<svg width="350" height="410" viewBox="0 0 350 410" fill="none" xmlns="http://www.w3.org/2000/svg">
<path d="M215.887 98.4208C238.719 98.4208 257.212 80.6838 257.212 58.7955C257.212 36.9072 238.719 19.3651 215.887 19.3651C215.887 18.7781 215.916 18.9885 297.969 18.9885C308.602 19.0674 318.772 23.3465 326.263 30.8932C333.754 38.4399 337.958 48.642 337.958 59.2751C337.958 69.9082 333.754 80.1103 326.263 87.657C318.772 95.2035 308.602 99.4828 297.969 99.5616H216.076C216.076 98.2525 216.151 98.4208 215.887 98.4208Z" fill="#706F64" fill-opacity="0.3"/>
<path d="M204.73 99.3848H215.673C238.508 99.3848 257 81.269 257 59.569C256.813 48.7367 252.375 38.4117 244.644 30.8225C236.912 23.2333 226.507 18.9867 215.673 19H204.73C194.071 19 183.848 23.2355 176.31 30.7715C168.773 38.3098 164.538 48.5329 164.538 59.1924C164.538 69.8519 168.773 80.075 176.31 87.6133C183.848 95.1494 194.071 99.3848 204.73 99.3848Z" fill="#FF7449"/>
<path d="M204.73 99.3848H215.673C238.508 99.3848 257 81.269 257 59.569C256.813 48.7367 252.375 38.4117 244.644 30.8225C236.912 23.2333 226.507 18.9867 215.673 19H204.73C268.489 25.866 254.489 99.3848 204.73 99.3848Z" fill="#BF5130"/>
<path d="M292.313 194.582C269.482 194.582 250.989 212.319 250.989 234.208C250.989 256.096 269.482 273.638 292.313 273.638C292.313 274.225 292.287 274.017 210.232 274.017C199.599 273.937 189.429 269.659 181.937 262.112C174.448 254.565 170.243 244.364 170.243 233.729C170.243 223.096 174.448 212.895 181.937 205.348C189.429 197.801 199.599 193.523 210.232 193.444H292.125C292.125 194.751 292.05 194.582 292.313 194.582Z" fill="#706F64" fill-opacity="0.3"/>
<path d="M303.259 274.019H292.316C269.482 274.019 250.989 255.903 250.989 234.203C251.176 223.371 255.614 213.046 263.345 205.457C271.077 197.867 281.482 193.621 292.316 193.634H303.259C313.918 193.634 324.142 197.87 331.679 205.406C339.217 212.944 343.451 223.167 343.451 233.827C343.451 244.486 339.217 254.709 331.679 262.247C324.142 269.783 313.918 274.019 303.259 274.019Z" fill="#FF7449"/>
<path d="M303.259 274.019H292.316C269.482 274.019 250.989 255.903 250.989 234.203C251.176 223.371 255.614 213.046 263.346 205.457C271.077 197.867 281.482 193.621 292.316 193.634H303.259C239.5 200.5 253.5 274.019 303.259 274.019Z" fill="#BF5130"/>
<path d="M27.7578 296.364C40.3844 295.661 53.3255 294.177 58.3274 293.344C59.0141 297.458 52.8891 315.286 50.2132 321.836C47.6015 328.236 36.8622 361.57 26.8163 371.842C19.6214 379.196 10.2024 378.392 10.2024 375.608C9.37171 375.614 27.7578 330.686 27.7578 296.364Z" fill="#F9F5E5"/>
<path d="M29.4435 187.863C30.3872 179.182 42.6527 120.121 47.3711 111.818C51.4293 104.807 56.3913 95.9907 64.7271 93.8398C65.7571 90.8869 68.3157 86.1575 68.3157 82.3828C70.6239 81.2265 70.81 82.3031 74.166 75.5888L75.1097 75.0217C68.3157 73.6926 63.4091 65.3989 69.4477 59.9274C70.7081 58.9038 72.2897 58.3608 73.9135 58.3952C75.535 58.4297 77.0923 59.0396 78.3084 60.1157L79.2498 59.3603C85.7182 55.63 85.1799 47.3252 81.8926 39.9243C81.7043 39.3594 81.1372 38.4157 81.7043 38.0391C82.9426 36.8008 96.4885 38.8322 104.536 27.4705C107.037 29.1385 107.135 41.7208 112.083 45.0192C114.347 46.53 121.708 44.6426 122.273 45.2075C123.217 46.5366 119.633 50.3024 119.066 51.8132C116.046 60.6739 120.953 72.9461 115.3 78.617C108.608 85.5129 96.4707 78.7632 93.035 95.9752C105.981 97.9689 106.809 100.047 106.809 99.185C117.187 96.9189 142.299 75.2942 145.681 74.654C146.583 74.4834 146.751 74.8068 147.378 74.8423C150.588 67.2951 147.378 59.5575 145.681 52.0103C145.493 50.6812 143.982 45.0281 146.437 44.8398C149.857 44.6182 152.302 51.7246 154.172 54.8413C154.819 54.5179 150.335 33.7838 154.172 34.8382C158.788 36.1075 160.893 49.516 161.91 54.086C163.281 54.086 161.416 31.7325 164.362 32.5743C166.384 32.8268 168.46 39.5388 168.89 41.2534C171.366 52.398 170.068 58.2372 171.154 58.2372C172.58 58.2372 174.151 44.6205 174.363 43.1407C174.363 42.7641 174.74 38.8012 175.872 39.3749C182.413 41.754 176.41 62.2069 175.872 67.8667C175.872 68.4338 184.835 65.2306 185.118 68.9986C185.435 73.2318 172.401 80.2163 168.137 82.0195C160.321 85.2758 161.737 83.6831 160.966 85.2271C161.719 85.7942 162.098 86.1708 161.91 86.1708C161.688 86.1708 152.663 105.574 152.663 105.795C162.559 105.795 187.947 92.5461 188.818 92.2027C191.232 91.2524 193.516 90.785 194.134 92.0654C197.822 84.8394 209.988 58.173 217.945 59.7524C221.139 60.3904 214.926 69.1891 214.179 70.3189C213.991 70.5094 211.915 73.1499 212.85 73.3404C217.281 73.3404 220.012 68.8347 238.513 67.6784C240.585 67.4901 242.669 67.4901 244.74 67.6784C245.368 67.7043 245.981 67.8704 246.536 68.1644C247.091 68.4583 247.574 68.8728 247.948 69.3774C250.198 73.429 225.601 77.0885 226.624 78.6236C227.085 79.5429 230.877 78.247 241.721 78.247C248.094 78.247 253.111 80.6837 247.948 82.3983C243.141 83.9955 227.38 86.2483 227.38 87.1144C227.38 88.0315 234.419 88.0005 235.682 88.2464C239.734 88.5366 247.828 88.9486 249.456 92.3977C251.062 95.798 236.127 95.3527 232.842 95.0404C232.466 95.0404 229.446 94.4733 229.076 95.0404C228.536 96.117 242.85 98.8062 242.85 102.964C241.856 104.621 232.291 103.713 227.001 103.343C221.937 102.988 217.622 104.404 203.225 109.191C204.554 112.589 205.677 115.23 205.677 115.615C205.677 115.806 164.918 154.487 117.367 152.609C117.367 152.855 114.797 197.477 111.707 206.387C109.018 211.765 35.0613 212.931 28.6793 212.993C28.2008 212.993 28.3027 213.172 28.3027 212.237C28.3226 212.215 28.3226 198.807 29.4435 187.863Z" fill="#F9F5E5"/>
<path d="M54.174 362.595C56.1986 356.725 63.1344 341.518 67.0066 330.697C69.8309 322.808 79.6487 293.754 79.6487 285.598C87.7629 284.842 99.6496 283.71 107.387 282.202C107.432 282.423 83.9993 357.17 69.8353 370.322C64.2952 373.795 48.8221 373.299 54.174 362.595Z" fill="#F9F5E5"/>
<path d="M39.0797 38.7923C40.5284 36.4907 43.0538 35.4053 44.5512 33.1325C47.0256 29.3667 47.8984 25.1578 51.343 21.8107C67.0288 6.56574 83.8132 12.3075 93.9898 10.8654C100.02 10.0126 105.87 6.45719 110.783 9.73346C113.235 11.9974 112.292 15.205 113.047 18.036C113.235 19.168 114.179 19.3651 114.934 20.1116C119.128 24.3072 117.555 33.4537 107.764 36.7255C107.172 33.5682 106.289 30.4727 105.123 27.4793L104.556 27.1028C95.8041 38.7724 83.0977 36.2958 81.7243 37.6692C81.0598 38.3338 82.2825 39.7847 83.7999 44.8398C84.9319 49.7464 84.1765 56.3588 79.2721 58.9926L78.3284 59.748C77.1123 58.6723 75.555 58.0627 73.9335 58.0279C72.3098 57.9929 70.7281 58.535 69.4677 59.5575C63.429 65.0312 68.3357 73.3338 75.1297 74.654L74.186 75.2189C73.4306 76.918 71.9199 80.3138 70.223 81.2575C67.762 83.7186 46.381 67.5854 41.3525 60.8778C36.9753 55.0429 34.749 45.666 39.0797 38.7923Z" fill="#D78C3B"/>
<path d="M8.13345 379.577C9.67301 375.229 8.90877 374.25 10.774 370.519C18.1528 347.703 27.1287 320.195 26.8141 297.495C24.6521 297.495 23.3562 298.127 22.8512 297.117C20.2084 293.156 23.0394 225.602 27.7578 212.769C27.1907 210.693 28.1344 193.9 28.6993 187.864C29.4923 180.888 40.6945 123.692 47.1917 110.686C51.1546 103.892 56.0524 95.4015 64.5521 93.1376C64.5521 91.0907 67.8749 86.6316 67.5714 82.3828C67.5714 82.1325 67.6711 81.8926 67.8483 81.7156C68.0255 81.5386 68.2648 81.4392 68.5151 81.4392C68.7654 81.4392 69.0046 81.5386 69.1818 81.7156C69.3591 81.8926 69.4587 82.1325 69.4587 82.3828C69.0711 85.9329 68.0477 89.3846 66.4395 92.5727C75.0278 92.7532 83.5961 93.4464 92.1024 94.6483C94.1781 84.2702 100.593 82.7616 106.255 81.4392C115.535 79.2594 117.449 76.9578 117.01 65.9683C115.291 66.062 113.57 65.8095 111.948 65.2258C110.327 64.642 108.84 63.7389 107.576 62.5702C106.689 61.7107 107.999 60.3904 108.905 61.2411C110.019 62.2603 111.33 63.0378 112.759 63.5252C114.188 64.0123 115.703 64.1986 117.207 64.0721C116.505 47.9012 120.811 49.8461 121.737 46.1446C119.744 46.1446 114.11 47.5401 111.736 45.9563C107.345 43.1341 107.179 36.1341 104.377 28.2192C104.339 28.1076 104.326 27.99 104.333 27.8726C104.341 27.7554 104.372 27.6408 104.426 27.5358C104.479 27.4306 104.552 27.3369 104.64 27.2601C104.729 27.183 104.833 27.1243 104.944 27.0873C105.055 27.0503 105.174 27.0354 105.289 27.0439C105.407 27.0523 105.522 27.0837 105.626 27.1365C105.733 27.189 105.826 27.2618 105.903 27.3509C105.981 27.4397 106.038 27.5427 106.076 27.6544C108.945 35.7642 108.812 41.8692 112.679 44.4477C114.695 45.7901 122.036 43.6502 123.057 45.0126C124.83 47.3762 120.038 51.1376 120.038 52.3714C117.032 60.962 122.012 73.2762 116.075 79.5452C109.753 86.3525 97.286 80.5221 94.1869 95.3949C98.4778 96.1392 102.702 97.2115 106.829 98.6025C117.24 96.4604 142.589 74.0737 146.078 74.0737C146.457 74.0737 146.645 74.2619 146.833 74.2619C151.421 63.1727 139.501 45.861 146.645 44.0689C149.476 43.8806 151.551 47.467 153.069 50.1075C152.367 45.4224 150.508 32.88 154.956 34.2578C161.416 36.2515 162.127 54.6819 162.127 45.9563C162.127 42.4496 162.503 36.7101 162.503 36.7101C163.573 27.0828 169.813 31.8366 171.938 51.9949C171.938 58.348 172.326 55.1249 173.449 46.7116C174 43.3889 173.615 40.0661 175.336 38.7857C176.607 38.1477 179.8 39.468 180.24 46.5233C180.551 55.2091 177.832 61.1746 177.412 67.0914C177.633 67.0914 186.467 64.5417 186.467 68.9765C186.656 71.4309 183.827 73.6949 182.701 74.6385C175.001 80.9385 169.051 82.7063 162.698 85.0167C163.392 85.7101 163.48 86.3126 163.077 86.7157C161.735 89.3983 158.075 99.2249 154.775 104.453C180.57 99.1873 188.251 88.0604 194.205 90.6787C198.299 82.4825 209.448 56.9724 218.545 58.4101C223.829 59.7281 214.558 71.4797 214.394 71.8075C216.795 71.2181 219.134 70.3969 221.376 69.3553C228.66 67.2398 251.902 62.9313 249.682 70.1107C249.164 71.7787 246.016 72.9395 245.529 72.9395C242.56 73.9824 239.537 74.8645 236.473 75.5822C224.159 78.4376 235.757 75.4294 246.096 76.9113C251.496 76.9113 253.814 80.6284 248.548 82.3851C243.249 84.1572 232.284 85.6104 231.566 85.9692C253.907 85.9692 259.874 96.4759 233.454 95.2154C233.675 95.2154 245.061 98.505 243.832 102.195C243.832 102.386 243.644 102.386 243.644 102.574C242.888 103.903 240.813 103.903 239.681 104.085C235.368 104.085 231.128 103.923 226.66 103.518C219.104 103.239 211.847 106.905 204.204 108.989C206.198 113.619 206.53 114.527 206.092 115.414C205.715 115.792 165.711 154.097 117.971 152.777C117.391 157.414 115.242 203.425 111.933 206.744C113.78 208.584 117.932 276.165 114.764 280.711C114.374 281.269 113.065 282.222 107.593 283.165C107.943 284.211 107.223 283.332 102.31 298.071C96.8407 314.477 81.9635 357.638 70.2318 370.342C103.544 389.689 109.682 389.552 110.801 394.873C111.908 400.411 101.302 400.345 95.3278 400.345C74.5626 400.345 72.3075 396.071 72.3075 399.015C68.8607 406.769 23.5733 401.849 15.1312 400.524C12.6657 400.524 6.77774 399.093 5.32015 395.996C4.17046 392.41 6.14199 385.201 8.13345 379.577ZM23.0394 335.801C28.6992 337.5 39.2679 337.5 44.5512 335.045C45.4948 332.781 46.248 330.517 47.0034 328.251C49.7303 320.079 54.535 310.997 57.5698 294.476C48.0246 295.599 39.866 296.798 28.6993 297.117C28.5929 310.211 26.6901 323.227 23.0394 335.801ZM161.73 83.3243C168.899 81.2092 175.571 77.6804 181.355 72.9461C185.497 69.6233 184.186 68.4626 184.186 68.23C182.245 66.6794 175.128 70.1661 175.128 67.6629C175.992 60.335 180.985 43.1097 176.071 40.3031C175.294 41.8537 175.214 48.1692 173.807 55.2091V55.3974C173.431 57.2847 173.052 58.9838 171.544 59.1632C168.562 59.1632 171.765 50.2294 166.825 37.0844C166.825 36.6414 165.443 33.673 164.75 33.5002C164.32 34.513 164.127 35.6098 164.185 36.7078C163.241 51.7999 164.699 54.8591 162.297 55.2002C161.174 55.2002 161.602 55.0053 160.033 48.0297C159.349 44.9949 157.202 36.7078 154.371 35.7642C154.371 35.7642 153.995 36.143 153.995 38.4069C153.995 49.7398 156.828 54.8214 154.938 55.5768C153.72 56.1882 152.544 52.9186 152.107 51.6161C151.164 49.917 148.9 45.387 147.013 45.5775C145.838 45.5775 147.013 51.337 147.013 51.8044C149.292 60.9309 151.47 68.0373 148.712 74.8246C157.94 80.4534 160.448 83.3243 161.73 83.3243ZM159.655 88.798C161.055 85.535 161.23 86.0312 160.598 85.3999C156.128 81.763 151.372 78.4925 146.377 75.6199C141.386 77.0464 120.962 95.4702 110.003 99.5062C137.21 109.475 149.693 104.269 152.107 104.269C154.183 101.817 157.77 93.3259 159.655 88.798ZM204.377 107.29C212.888 105.159 218.647 101.154 227.209 101.44C228.598 101.566 241.105 102.641 242.303 101.44C242.303 101.252 242.303 99.9316 233.813 96.9101C228.166 95.0338 228.529 94.3183 228.529 93.5142C229.225 92.1208 247.85 94.1233 249.097 91.6268C246.621 86.6759 227.209 89.1281 227.209 85.967C227.209 83.3841 236.956 84.1949 248.342 80.6838C251.824 79.6072 248.145 79.4854 246.643 78.9847C246.368 78.9847 243.021 78.6835 242.494 78.6082C229.267 78.6082 227.459 80.305 226.83 78.4199C223.875 75.4714 244.058 73.8278 248.342 69.5591C245.538 65.8176 225.419 69.8205 219.471 72.2018C217.606 72.9483 213.103 74.9863 212.491 73.1433C211.233 71.2604 218.528 65.3082 218.528 60.1246C211.831 58.574 199.076 85.1186 196.263 91.4474C198.715 94.0813 201.923 101.252 204.377 107.29ZM110.216 205.423C113.233 205.423 116.23 156.009 116.443 152.587C111.104 152.296 105.801 151.538 100.593 150.323C100.343 150.273 100.124 150.126 99.9819 149.913C99.8401 149.701 99.7869 149.441 99.8379 149.191C99.8888 148.94 100.035 148.72 100.248 148.579C100.46 148.437 100.72 148.386 100.97 148.435C137.111 157.476 177.673 138.91 204.565 114.472C192.231 83.6189 193.932 91.6556 181.733 96.5445C150.807 112.004 129.16 108.89 106.065 99.9426C92.1091 94.5332 69.0467 94.3382 66.9423 94.4911C58.8812 95.0692 52.9977 103.764 48.4765 111.572C42.7591 123.007 31.4195 179.747 30.4759 187.963C29.5322 197.398 29.448 207.938 29.448 211.145C63.4135 210.569 104.368 208.808 110.216 205.412V205.423ZM99.4613 301.658C105.901 283.123 105.405 285.708 106.255 283.165C95.0597 285.175 80.404 285.886 80.404 286.373C79.5179 295.898 71.0138 321.426 67.9502 329.961C74.7663 331.948 81.9812 332.145 88.8948 330.528C92.6673 320.895 96.3667 310.556 99.4613 301.647V301.658ZM74.742 360.907C79.7085 351.812 84.1211 342.422 87.9512 332.792C81.0509 334.064 73.9512 333.74 67.1948 331.849C55.0844 365.484 48.5873 368.621 58.8923 370.909C62.6581 370.898 68.473 374.216 74.742 360.896V360.907ZM71.3461 395.817C69.8265 394.118 67.9613 392.766 65.8746 391.854C67.9214 392.831 69.7755 394.171 71.3461 395.806V395.817ZM45.3065 380.344C45.9135 378.372 50.5898 366.388 51.1546 366.388C51.6553 362.389 58.4072 347.167 58.8923 346.199C67.2702 330.491 77.3603 294.421 78.1379 286.389C72.8923 286.763 71.9619 287.381 71.1578 286.577C69.2705 291.295 68.3268 292.427 67.392 292.615C64.561 293.183 61.9205 293.559 59.0894 293.945C59.0894 302.805 38.3331 359.629 27.5784 371.498L45.3065 380.344ZM11.341 376.004C25.4008 379.395 33.3844 362.646 38.7008 349.2C39.0176 348.403 42.3448 340.993 43.7958 337.123C36.829 339.006 29.5034 339.137 22.4724 337.502C16.9144 362.518 10.2467 375.993 11.341 375.993V376.004Z" fill="#501200"/>
<path d="M81.9125 65.7756C81.6644 65.8079 81.4141 65.7494 81.2059 65.611C80.9976 65.4725 80.847 65.2634 80.7805 65.0224C80.7362 64.7043 80.6742 64.3893 80.5922 64.0787C75.0055 54.7749 66.2068 61.0594 68.1384 67.4746C68.6967 69.1136 69.6669 70.5819 70.9539 71.7382C72.2432 72.8947 73.8071 73.7004 75.4973 74.0781C75.7476 74.1284 75.9669 74.2759 76.1087 74.4884C76.2505 74.701 76.3014 74.9608 76.2505 75.2112C76.2017 75.4615 76.0533 75.6814 75.8407 75.823C75.628 75.9643 75.3688 76.0157 75.1185 75.9654C67.4274 74.5677 62.5628 65.0202 69.0821 59.1721C76.0134 52.9541 85.4524 64.5971 81.9125 65.7756Z" fill="#501200"/>
<path d="M105.868 43.8872C105.868 48.0429 101.905 46.4657 101.905 42.1904C101.623 38.9872 105.868 37.8796 105.868 43.8872Z" fill="#501200"/>
<path d="M178.526 113.706C189.159 117.376 190.209 117.509 189.657 118.61C189.36 119.206 188.813 119.177 188.328 119.177C177.731 115.394 176.645 115.374 177.195 114.27C177.319 114.038 177.518 113.855 177.759 113.752C178.003 113.649 178.273 113.633 178.526 113.706Z" fill="#501200"/>
<path d="M155.694 117.478C155.893 117.328 156.146 117.264 156.394 117.299C156.642 117.335 156.866 117.467 157.014 117.667C157.165 117.868 157.229 118.12 157.194 118.367C157.158 118.615 157.025 118.839 156.826 118.989C146.795 126.52 147.69 125.971 147.201 125.971C146.999 125.977 146.802 125.918 146.638 125.803C146.474 125.688 146.35 125.522 146.286 125.332C146.224 125.141 146.224 124.935 146.286 124.744C146.348 124.553 146.472 124.388 146.636 124.272L155.694 117.478Z" fill="#501200"/>
<path d="M131.539 132.951C131.936 131.764 134.063 132.659 133.239 133.895C128.254 144.658 128.549 144.652 127.577 144.652C125.645 144.652 126.752 143.482 131.539 132.951Z" fill="#501200"/>
<path d="M141.162 99.7411C136.823 88.1645 136.581 88.4436 137.766 88.0426C138.951 87.6417 138.635 87.9031 142.861 99.1762C143.566 100.233 141.712 100.835 141.162 99.7411Z" fill="#501200"/>
<path d="M91.5353 113.517C91.5353 112.224 92.335 112.704 103.801 114.649C104.953 114.649 104.82 116.534 103.613 116.534C103.32 116.534 100.595 116.056 92.2907 114.649C91.7258 114.459 91.347 114.082 91.5353 113.517Z" fill="#501200"/>
<path d="M57.3815 116.346C56.1765 115.945 56.717 115.657 61.7233 104.827C62.1176 103.64 64.2464 104.532 63.4201 105.771C58.0195 117.223 58.7882 116.346 57.3815 116.346Z" fill="#501200"/>
<path d="M72.8613 138.228C72.6708 138.074 72.5489 137.853 72.5179 137.61C72.4891 137.368 72.5533 137.124 72.6995 136.928C72.8479 136.733 73.0628 136.602 73.3043 136.563C73.5457 136.524 73.7916 136.58 73.9932 136.719C82.4508 142.587 84.4334 143.453 83.4299 144.457C82.8296 145.642 81.5869 144.293 72.8613 138.228Z" fill="#501200"/>
<path d="M105.5 174.087C101.654 163.324 101.001 162.819 102.292 162.389C103.477 161.995 103.194 162.314 107.199 173.522C108.083 174.408 106.089 175.279 105.5 174.087Z" fill="#501200"/>
<path d="M65.8746 185.597C64.6673 185.196 65.21 184.908 70.2141 174.078C70.6084 172.891 72.7373 173.784 71.911 175.022C66.5148 186.475 67.279 185.597 65.8746 185.597Z" fill="#501200"/>
<path d="M57.9486 155.974C46.753 154.075 45.6078 154.31 46.0597 152.954C46.0597 151.661 46.8594 152.144 58.3252 154.086C59.6233 154.518 59.2777 155.974 57.9486 155.974Z" fill="#501200"/>
<path d="M99.0847 198.995C99.0847 200.227 98.7436 200.207 86.8192 200.506C86.693 200.514 86.5667 200.495 86.4471 200.45C86.3297 200.406 86.2233 200.337 86.1325 200.249C86.0439 200.158 85.9752 200.052 85.9309 199.932C85.8844 199.814 85.8667 199.688 85.8756 199.562C85.8756 198.33 86.2167 198.35 98.141 198.051C98.2673 198.042 98.3936 198.062 98.511 198.107C98.6306 198.151 98.737 198.22 98.8278 198.308C98.9164 198.399 98.985 198.505 99.0293 198.625C99.0736 198.742 99.0936 198.869 99.0847 198.995Z" fill="#501200"/>
<path d="M47.7588 204.845C38.7119 197.371 38.3265 197.48 38.898 196.354C39.9015 195.351 40.3955 196.31 48.8996 203.337C49.0989 203.487 49.2318 203.713 49.2651 203.961C49.3005 204.209 49.2341 204.462 49.0834 204.661C48.9328 204.861 48.7068 204.994 48.4587 205.027C48.2106 205.062 47.9581 204.996 47.7588 204.845Z" fill="#501200"/>
<path d="M70.0258 285.418C82.9758 252.54 80.765 236.033 95.31 233.339C95.8771 233.149 96.2537 233.528 96.4419 234.092C97.1885 236.33 89.2736 234.81 86.0638 243.339C82.9802 251.535 75.7676 276.385 71.911 286.174C71.7382 286.466 71.6119 286.785 71.5344 287.117C71.0205 288.143 69.1708 287.793 69.647 286.362C69.647 286.14 69.7201 286.335 70.0258 285.418Z" fill="#380D00"/>
<path d="M89.7066 381.841C91.5184 380.029 92.9294 383.54 90.4598 383.54C90.0832 383.917 89.5161 384.107 89.3278 384.484C86.6696 387.142 87.3829 389.012 85.9319 389.012C83.1297 389.012 87.1525 383.547 89.7066 381.841Z" fill="#F9F5E5"/>
<path d="M80.9689 380.332C81.6578 379.5 82.4885 378.797 83.4233 378.257C84.9341 377.501 85.9154 379.274 83.7999 380.332C78.8157 385.317 80.6876 386.183 78.5167 386.183C76.9328 385.664 79.7904 381.511 80.9689 380.332Z" fill="#F9F5E5"/>
<path d="M45.984 380.333C46.1745 380.468 46.3141 380.665 46.3806 380.889C46.447 381.114 46.436 381.354 46.3496 381.573C46.2632 381.79 46.1059 381.972 45.9021 382.089C45.6983 382.207 45.4635 382.253 45.2309 382.22C44.4977 382.577 43.853 383.09 43.3435 383.728C40.1204 386.952 40.3597 390.152 39.004 390.152C35.7919 390.144 43.8885 378.935 45.984 380.333Z" fill="#F9F5E5"/>
<path d="M52.7244 384.121C52.9149 384.256 53.0545 384.453 53.1209 384.677C53.1874 384.903 53.1763 385.142 53.0899 385.361C53.0035 385.578 52.8462 385.76 52.6424 385.877C52.4386 385.995 52.2038 386.041 51.9712 386.008C51.238 386.365 50.5934 386.879 50.0839 387.517C46.8608 390.74 48.1 390.941 46.7443 390.941C43.5323 390.932 50.6288 382.723 52.7244 384.121Z" fill="#F9F5E5"/>
</svg>
