<svg xmlns="http://www.w3.org/2000/svg" fill="none" viewBox="0 0 200 200"><g id="let-start--interface-let-start"><g id="plane"><path id="vector" fill="#ff7449" d="M137.566 177.736c-0.425 6.254 -3.92 13.082 -11.843 12.844 -14.912 -0.449 -29.91 -26.088 -37.115 -38.032 -1.7 -3.391 -7.622 -10.907 -5.087 -17.6 0 -0.084 0 -0.084 0.083 -0.167 3.5 -8.841 33.265 -6.194 41.368 8.173 5.662 10.046 13.371 23.346 12.594 34.782Z" stroke-width="1"></path><path id="vector_2" fill="#f9f5e5" d="M190.36 114.1c-2.05 -11.683 -15.847 -10.092 -24.1 -6.339 -2.753 1.251 -5.339 2.829 -8.341 3.086 -8.149 0.7 -93.543 -22.558 -94.662 -22.185A51.28 51.28 0 0 0 33.312 93c-25.556 14.068 -13.5 48.176 37.782 57.048 6.22 1.076 16.443 1.87 17.014 1.584 -2.919 -4.837 -6.589 -11.092 -4.5 -16.6 0 -0.083 0 -0.083 0.084 -0.167 3.5 -8.84 33.332 -6.231 41.367 8.174 1.548 2.773 3.337 5.755 5 8.841 0.871 -0.872 41.242 -0.853 48.874 -7.757 7.733 -6.994 13.186 -20.001 11.427 -30.023Z" stroke-width="1"></path><g id="group"><path id="vector_3" fill="#501200" d="M145.489 42.039c0.674 0 7.4 -10.9 7.757 -11.26a0.437 0.437 0 0 0 -0.167 -0.583c-1.029 -0.515 -2.5 4.064 -8.007 11.176 -0.199 0.199 -0.072 0.667 0.417 0.667Z" stroke-width="1"></path><path id="vector_4" fill="#501200" d="M151.828 41.705c3 -2.085 9.258 -7.006 11.76 -9.174a0.516 0.516 0 0 0 0.083 -0.584c-0.8 -0.8 -1.8 1.72 -12.26 9.008 -0.576 0.576 0.131 1.036 0.417 0.75Z" stroke-width="1"></path><path id="vector_5" fill="#501200" d="M162.92 41.622c-2.532 1.013 -9.547 3.778 -12.176 4.5 -0.526 0.175 -0.2 0.834 0.166 0.834 0.934 0 9.773 -3.554 10.676 -3.92 1.651 -0.669 2.13 -0.744 1.918 -1.168a0.488 0.488 0 0 0 -0.584 -0.246Z" stroke-width="1"></path><path id="vector_6" fill="#501200" d="M190.777 114.016c-1.969 -11.076 -14.712 -11.193 -24.687 -6.673 -2.868 1.23 -5.272 2.766 -8.257 3.086 -4.365 0.336 -3.273 0.191 -94.412 -22.185 -11.26 -1.918 -24.271 1.256 -29.775 4.087 -6.93 -25.739 -22.352 -13.049 -22.352 20.434 0 32.338 14.678 45.86 21.935 22.018a71.268 71.268 0 0 0 21.351 11.426c-0.584 2.836 -6.088 23.353 -8.09 29.775 -4.06 -1.623 -10.009 1.843 -10.009 7.59a7.967 7.967 0 0 0 7.924 7.923c8 0 11.319 -10.931 3 -15.1 1.835 -5.838 7.34 -26.355 8.09 -29.775a107.02 107.02 0 0 0 32.611 5.588 0.382 0.382 0 0 0 0.303 -0.114 0.388 0.388 0 0 0 0.114 -0.303c0 -1.84 -30.559 1.652 -54.963 -17.681a64.235 64.235 0 0 0 2.085 -11.176c9.241 2.923 43.265 12.677 48.124 12.677a0.423 0.423 0 0 0 0.42 -0.379 0.423 0.423 0 0 0 -0.337 -0.455c-11.509 -2 -33.277 -8.007 -48.04 -12.677a85.36 85.36 0 0 0 -1.835 -28.691c5.338 -2.836 18.182 -6.005 29.442 -4.087 90.232 22.131 90.025 22.531 94.745 22.186 3.431 -0.355 6.419 -2.275 8.508 -3.17 5.171 -2.335 13.094 -4.087 18.515 -1.334 2.752 1.418 4.2 3.916 4.781 7.335 0.9 6.513 0.254 12.476 -4.864 21.689 -3.484 0 -27.2 2.639 -61.635 3 -1 0 -1 0.834 0 0.834 23.6 -0.251 40.283 -1.418 61.134 -3a33.455 33.455 0 0 1 -5.755 7.089c-6.315 5.573 -39.537 7.473 -47.956 7.673 -0.7 0.017 -1.085 -0.061 -1.085 0.417s0.383 0.434 1.085 0.417a305.914 305.914 0 0 0 33.213 -3.075c0.588 1.826 6.777 22.858 8.982 30.373 -7.54 3.477 -5 15.071 3.426 15.071a7.91 7.91 0 0 0 7.742 -9.171 7.916 7.916 0 0 0 -3.683 -5.483 7.919 7.919 0 0 0 -6.559 -0.775c-0.148 -0.512 -8.254 -28.225 -9.008 -30.109 6.423 -1.084 12.094 -2.669 14.429 -4.671 7.146 -6.426 13.24 -19.22 11.343 -30.604Zm-178.733 -1.251c0 -31.291 14.073 -45.764 20.768 -20.017 -15.477 8.78 -17.865 26.519 -2 40.117 0.5 0.417 1 0.917 1.585 1.334 -6.784 23.736 -20.353 9.43 -20.353 -21.434Zm20.684 20.6c-4.695 -3.754 -9.281 -9.439 -11.009 -15.43 2.669 1.168 7.173 2.669 13.094 4.588a91.979 91.979 0 0 1 -2.085 10.842Zm2.085 -11.676c-6.255 -2 -10.842 -3.67 -13.428 -4.754 -2.07 -7.6 1.573 -17.5 11.677 -23.27 2.313 9.641 2.575 18.144 1.751 28.024Z" stroke-width="1"></path><path id="vector_7" fill="#501200" d="M108.708 124.358c-17.047 7.642 -32.652 -5.285 -31.693 -22.436a0.416 0.416 0 1 0 -0.834 0c-0.971 18.081 15.185 30.893 32.778 23.27 0.607 -0.203 0.094 -1.179 -0.251 -0.834Z" stroke-width="1"></path></g></g><g id="person"><g id="group_2"><path id="vector_8" fill="#f9f5e5" d="M144.989 184.491c-1.132 4.528 -5.8 4.483 -11.093 7.173 -0.5 0.253 -2.6 1.261 -2 2.085 0.489 0.675 1.834 0.667 2.5 0.751 1.391 0.051 18.589 -0.132 19.516 -1.251 0.426 -0.515 0.834 -7.276 0.834 -8.841 -1.667 -0.334 -8.59 0.333 -9.757 0.083Z" stroke-width="1"></path><path id="vector_9" fill="#f9f5e5" d="M145.239 106.009c0.1 0 -1.675 -11.947 -3.67 -17.932l0.084 -0.417c-10.265 -2.4 -24.318 -1.171 -30.693 -5.421 -0.5 -0.334 -1 -0.834 -1.5 -1.251 -6.96 3.478 -19.06 -7.745 -19.35 -7.673 -0.167 0.083 -0.251 0.25 -0.417 0.334l-0.084 -0.251c0 -1.751 -2.168 -3.92 -2.836 -5 -1.623 -3.085 0.3 -6.7 -1 -7.673 -0.584 -0.5 -1.251 0.417 -1.585 0.834 -0.751 1.251 -0.751 2.919 -0.917 4.337 -0.112 0 -0.043 0.027 -0.334 -0.167 -2.458 -1 -3.8 0.708 -3.586 2h-0.167c-1.084 -0.417 -1.5 0.917 -1.5 1.418 0 0.316 0.05 0.233 -0.251 0.333a1.573 1.573 0 0 0 -0.083 2.085l-0.334 0.084c-0.917 1.334 0 1.918 0.5 2.5 1.346 1.01 2.168 0.3 2.168 0.584 1.084 1.584 4.921 3.252 6.422 2.835l0.167 0.084a5.436 5.436 0 0 0 -0.834 1.251c-0.25 1 5.505 8.757 8.257 10.342v0.25C89 90.248 84.266 90.751 79.517 91c-0.457 2.061 -0.306 1.774 -0.834 1.668 -3.5 -2.95 -8.837 -6.353 -13.344 -7.172 -2.086 0 0.225 1.142 0.417 1.334 1.459 0.876 5.051 2.275 5.171 2.753 -1.182 -0.394 -6.782 -2.56 -7.84 -1.5 -0.6 0.6 2.987 1.733 4.587 2.419 0.084 0 1.168 0.334 1.168 0.5 0 0.3 -1.441 -0.667 -5 -0.667 -1.408 0 -2.031 0.486 -0.5 1.251 2.65 1.136 4.014 1.191 5.088 1.835 -0.2 0.393 -0.769 -0.438 -3.753 -0.167 -0.251 0 -0.918 0.084 -0.918 0.417 0 0.834 2.417 1.34 3 1.5 5.822 1.607 6.94 3.419 11.509 3.419 -0.083 0.834 0 1.33 0.251 1.418 10.735 3.816 25.581 3.686 36.78 1.918 0.222 1.107 1.464 2.223 1.919 5.255 -0.056 0.11 0.417 -0.084 0.417 -0.084 10.039 -4.889 27.604 -1.463 27.604 -1.088Z" stroke-width="1"></path><path id="vector_10" fill="#f9f5e5" d="M121.636 51.88c6.138 0 3.539 -6.091 -3.336 -6.005 -4.962 0.062 -3.759 6.005 3.336 6.005Z" stroke-width="1"></path><path id="vector_11" fill="#f9f5e5" d="M106.874 53.215c5.266 0.439 7.293 -6.522 2.835 -6.589 -5.776 -0.088 -7.638 6.589 -2.835 6.589Z" stroke-width="1"></path><path id="vector_12" fill="#f9f5e5" d="M105.539 54.633c-0.378 1.133 -0.7 10.547 1.335 13.511 2.73 3.979 6.005 3.823 6.005 4.17 3.169 2.5 6.5 2.586 9.841 2.5 0 -0.656 0.334 -2.8 0.334 -3.086 -0.507 -1.014 -0.186 -1.053 -0.417 -1.418 -0.294 -0.463 -0.886 -0.551 -1.418 -1.084 -1.732 -2.165 -0.429 -5.178 1.668 -6.5 0.756 -0.479 0.839 -0.256 1 -0.417h0.083c-0.25 -9.025 0.53 -6.25 -0.333 -8.841a10.616 10.616 0 0 1 -5.588 -0.25c-4.507 -1.878 -4.441 0.048 -6.506 1a9.515 9.515 0 0 1 -6.004 0.415Z" stroke-width="1"></path></g><g id="group_3"><path id="vector_13" fill="#ffb949" d="M130.727 66.893c-2.1 0.7 -1.36 3.859 -4.754 3.67 -1.585 -0.089 -2 -4.087 -2.169 -8.174a4.526 4.526 0 0 0 -3 2.5 3.969 3.969 0 0 0 0.417 4.587 8.14 8.14 0 0 1 1.251 0.918c0.167 0.25 0.083 0.667 0.167 0.917 0.069 0.139 0.15 0.5 0.25 0.5 0.816 1.632 4.538 2.3 7.173 0.417 2.038 -1.455 1.786 -3.092 0.665 -5.335Z" stroke-width="1"></path><path id="vector_14" fill="#ffb949" d="M105.289 58.8c-1.982 -0.661 -5.246 1.433 -3.92 3.753 0.167 0.334 0.584 0.667 0.584 1 0 0.417 -0.751 0.917 -1 1.251 -2.668 3 3.213 7.129 6.172 4.17 0.699 -0.696 -1.836 0.335 -1.836 -10.174Z" stroke-width="1"></path></g><path id="vector_15" fill="#ff7449" d="M122.637 44.207c-22.151 -2.013 -24.5 8.634 -17.265 10.342a9.312 9.312 0 0 0 6 -0.417c2.064 -0.992 1.993 -2.881 6.506 -1 2.266 0.721 5.361 0.8 7.339 -0.583 3.895 -2.714 1.59 -7.675 -2.58 -8.342Zm-10.843 6.339c-1.668 3.021 -5.539 3.337 -7.256 1.835 -1.567 -2.015 0.732 -4.794 3.253 -5.505 3.592 -1.012 5.309 1.314 4.003 3.67Zm12.594 0.584c-2.357 1.414 -7.166 0.854 -8.757 -1.668 -1.241 -1.967 0.112 -4.4 4.837 -3.336a6.135 6.135 0 0 1 4.254 2.668 1.634 1.634 0 0 1 0.328 1.239 1.634 1.634 0 0 1 -0.662 1.097Z" stroke-width="1"></path><path id="vector_16" fill="#fccac2" d="M176.6 75.817c0.624 -0.739 -4.135 -5.078 -9.508 -6.422 -9.377 -2.345 -20.771 -0.785 -35.7 1.168 -1.263 3.367 -7.25 3.6 -8.424 1.251 0 0.166 -0.376 3.006 -0.376 3.006 -6.65 0.166 -9.519 -2.134 -9.519 -2.559a10.403 10.403 0 0 1 -4.867 -2.366 8.874 8.874 0 0 0 0.269 9.96 8.87 8.87 0 0 0 2.567 2.384c6.64 4.427 21.051 2.636 33.528 6.172 2.844 0.806 10.426 6.011 11.676 5.838 1.169 -0.161 11.343 -12.51 11.343 -12.51 -0.917 -0.5 -1.835 -1 -2.752 -1.418 0.002 -0.753 11.276 -3.929 11.763 -4.504Z" stroke-width="1"></path><path id="vector_17" fill="#501200" d="M150.327 139.2c-3.838 -17.747 -4.016 -38.014 -8.508 -51.209 -0.185 -0.557 -0.961 -0.171 -0.75 0.25a102.436 102.436 0 0 1 3.586 17.1c-2.8 -0.936 -18.524 -3.03 -26.856 1.5 -1.315 -6.247 -4.243 -3.608 3 -5.254a0.422 0.422 0 0 0 0.27 -0.181 0.434 0.434 0 0 0 0.064 -0.319 0.434 0.434 0 0 0 -0.182 -0.271 0.42 0.42 0 0 0 -0.319 -0.063c-12.181 2.537 -30.085 3.595 -41.785 -0.918A37.785 37.785 0 0 1 80.1 91.5c10.667 -0.381 24.682 -2.748 34.279 -7.256a0.454 0.454 0 0 0 0.214 -0.57 0.45 0.45 0 0 0 -0.548 -0.264c-0.572 0 -6.126 3.444 -19.933 5.671 0 -0.083 -0.083 -0.083 -0.167 -0.167 -2.669 -1.584 -7.923 -8.84 -8.09 -9.925a54.439 54.439 0 0 1 4.087 -5.171c0 -0.764 10.946 10.357 19.349 7.59a0.371 0.371 0 0 0 0.251 -0.5c-0.5 -1.484 -3.8 4.3 -18.349 -7.256 -1.2 -0.98 -0.949 -0.751 -1.335 -0.751 -0.331 -1.549 -2.04 -3.6 -2.752 -4.671 -1.053 -1.9 -0.584 -3.851 -0.584 -5.087 0.489 -4.891 -3.67 -3.464 -3.67 2.252 -2.47 -0.967 -4 0.688 -4 1.918a1.715 1.715 0 0 0 -1.585 1.918 1.943 1.943 0 0 0 -0.417 2.252c-1.139 1.141 -0.316 2.269 0.584 3.169 0.63 0.449 1.4 0.656 2.169 0.584a10.235 10.235 0 0 0 6 2.919c-0.17 0.231 -0.31 0.484 -0.417 0.751 0 2.42 5.869 9 7.84 10.509 -12.844 1.938 -13.33 0.8 -13.762 1.668 0 0 -0.083 0.5 -0.25 1.251a40.26 40.26 0 0 0 -10.425 -6.255c-1.034 -0.345 -3.68 -1.234 -4.171 -0.417 -0.389 0.778 0.508 1.208 1.335 1.668 0.32 0.215 0.655 0.41 1 0.584 -0.847 -0.243 -3.117 -0.534 -3.67 0.166 -0.751 0.95 1.3 1.719 2.419 2.169 -0.951 0 -3.17 -0.5 -3.17 1 0.166 0.829 2.093 1.393 3.42 1.835h-0.918c-1.725 0 -2.474 1.6 2 2.753 1.311 0.311 2.594 0.73 3.837 1.251 4.9 2.262 7.256 2.345 7.256 2.085 0 0.917 0.166 1.334 0.5 1.5 4.921 1.919 11.009 2.919 18.1 3.169 -11.723 2.93 -9.126 12.776 -2.586 22.936a27.85 27.85 0 0 0 14.95 -2.07c6.45 4.435 12.788 8.87 20.079 9.41 5.943 13.47 10.716 33.665 15.193 50.7 -1.056 2.768 -2.484 3.161 -6.268 4.513 -10.681 4.154 -8.2 6.246 2.919 5.5 1.538 0 12.316 -0.12 13.261 -1.334 0.614 -0.819 0.738 -6.987 1.046 -9.444 2.073 -16.514 -2.661 -33.12 -4.794 -44.853ZM78.683 68.311a0.623 0.623 0 0 1 0.417 -0.084 4.833 4.833 0 0 0 2.836 3.086c-1.009 1.007 -4.889 -1.368 -3.253 -3.002Zm1.417 5.671c0 1.07 -3.579 -0.078 -2.585 -1.668a4.122 4.122 0 0 0 2.669 1.5c-0.084 0.086 -0.166 0.168 -0.084 0.168Zm-2.335 -3.753c1.015 2.176 3.169 2.082 3.169 2.335 -0.376 1.511 -3.934 -0.802 -3.168 -2.335h-0.001Zm2.753 4.671c0.506 -0.506 0.369 -1.168 0.25 -1.168a1.551 1.551 0 0 0 0.918 -1.335 2.074 2.074 0 0 0 1.168 -0.75c2.861 0 2.09 -3.1 -0.251 -4.587a0.43 0.43 0 0 0 -0.417 0.75c1.111 0.741 2.031 2.307 1.5 2.836a2.408 2.408 0 0 1 -2.252 -0.417c-1.586 -1.268 -2.074 -2.846 -1.418 -3.5 1.015 -1.016 1.52 -0.8 2.919 -0.334 0.154 0.154 0.667 -0.027 0.667 -0.333 0.156 -1.09 0.327 -4.473 1.668 -4.921 1.206 0 -0.489 4.593 1.084 7.59 0.645 1.227 2.753 3.153 2.753 4.92 -1.6 1.775 -2.8 3.587 -3 3.587 -1.085 0.331 -4.338 -1.004 -5.589 -2.338Zm-2.335 23.519c-0.358 -0.358 -1.044 0.583 -7.006 -2.168 -4.978 -1.661 -6.053 -1.716 -6.672 -2.336a8.35 8.35 0 0 1 3.169 0c0.392 0 1.208 0.253 1.418 -0.166 0.165 -0.165 0.105 -0.584 -0.167 -0.584 -1.635 -0.818 -7.744 -2.252 -4.921 -2.252 3.631 0 4.775 1.015 5.422 0.584 0.622 -0.622 -0.415 -0.911 -1.251 -1.168a28.317 28.317 0 0 1 -4.254 -1.835c4.562 0 6.622 2.152 7.59 1.668 0.56 -0.559 -0.819 -1.183 -1.085 -1.334 -0.1 0 -5.476 -2.752 -4.837 -2.752 3.885 0.353 10.227 4.454 13.178 7.005 0.389 0 -0.135 0.619 -0.584 5.338Zm26.939 5.171c8.054 -0.393 9.79 -1.22 10.175 -0.834a13.29 13.29 0 0 1 1.668 4.254 79.9 79.9 0 0 0 -11.843 -3.42Zm48.624 89.325c-1.138 1.012 -17.54 1.084 -19.516 1.084 -0.584 -0.083 -1.668 -0.083 -2 -0.584 0 -1.319 7.413 -3.665 9.758 -4.837a6.122 6.122 0 0 0 3.086 -3.336c0.084 -0.084 0 -0.25 0 -0.334 2.608 0 7.717 -0.452 9.258 -0.333 -0.169 6.925 -0.503 8.09 -0.586 8.34Z" stroke-width="1"></path><path id="vector_18" fill="#501200" d="M122.637 44.207c4.381 0.419 6.736 6.964 1.418 9.091 -0.158 0 -0.17 0 -0.334 0.167 -0.11 0 -0.167 0.043 -0.167 0.167 0 1.508 -1.209 17.24 2.419 17.431 1.9 0 2.351 -0.418 3.253 -1.835a3.724 3.724 0 0 1 1.668 -1.835c1.473 -0.736 5.651 -1.284 4.42 -10.842C133.35 41.3 117.375 34.98 106.206 43.29c-1.672 1.244 -3.586 2.836 -2.835 3.92 0.489 0.979 2.883 -4.567 19.266 -3.003Z" stroke-width="1"></path><path id="vector_19" fill="#501200" d="M122.97 71.4c-0.517 0 -0.519 0.973 -0.583 1.751 -0.033 0.2 -0.167 1.564 -0.167 1.585 0 0.694 0.834 0.649 0.834 0 0.025 -0.1 0.333 -2.721 0.333 -2.836 0 -0.337 -0.166 -0.5 -0.417 -0.5Z" stroke-width="1"></path><path id="vector_20" fill="#501200" d="M104.872 58.719c0 2.717 0.03 8.2 2.168 10.342a9.734 9.734 0 0 0 6.992 3.706 9.746 9.746 0 0 0 7.437 -2.706 0.414 0.414 0 0 0 -0.293 -0.7 0.413 0.413 0 0 0 -0.291 0.116 8.685 8.685 0 0 1 -12.177 0c-4.181 -3.136 -2.539 -14.614 -3 -14.845a6.075 6.075 0 0 1 -2.486 -1.082c-1.334 1.418 -1.017 4.418 -0.6 5.585a3.575 3.575 0 0 1 2.25 -0.416Z" stroke-width="1"></path><path id="vector_21" fill="#501200" d="M112.3 67.477c1.425 0.95 4.206 -1.45 3.252 -2.085 -0.6 -0.3 -0.37 0.46 -1.751 1.334 -1.024 0.648 -2.04 -0.32 -2.335 -1.5a0.424 0.424 0 0 0 -0.771 -0.152 0.428 0.428 0 0 0 -0.063 0.319 3.767 3.767 0 0 0 1.668 2.084Z" stroke-width="1"></path><path id="vector_22" fill="#501200" d="M110.96 63.307c0.457 0.456 1.187 -0.065 0.251 -1 -0.28 -0.28 -0.315 -0.5 -0.417 -0.5 0.154 -0.154 0.591 -0.008 0.75 -0.166 1.529 -0.437 1.335 -2.31 1.335 -3.587a0.425 0.425 0 0 0 -0.075 -0.333 0.421 0.421 0 0 0 -0.759 0.25c0.06 0.755 0.004 1.514 -0.167 2.252 -0.259 1.034 -1.379 0.234 -1.752 1.167 -0.289 0.578 0.502 1.584 0.834 1.917Z" stroke-width="1"></path><path id="vector_23" fill="#501200" d="M110.293 58.553c-1.1 0.005 -1.251 -2.926 0 -2.92 0.979 0.006 0.991 2.915 0 2.92Z" stroke-width="1"></path><path id="vector_24" fill="#501200" d="M119.72 58.184c-1.1 0.005 -1.251 -2.926 0 -2.919 0.98 0.005 0.991 2.914 0 2.919Z" stroke-width="1"></path><g id="group_4"><path id="vector_25" fill="#f9f5e5" d="m122.22 74.483 -0.085 0.784c1.8 0.2 25.156 -1.3 42.223 5.367 0.949 0.37 1.246 -0.217 0.4 -0.816 -6.499 -4.586 -32.075 -6.185 -42.538 -5.335Z" stroke-width="1"></path><path id="vector_26" fill="#f9f5e5" d="M109.542 123.941c-0.253 0 -6.826 -5.467 -14.011 -8.341a0.352 0.352 0 0 0 -0.5 0.25c-0.336 1.01 0.992 -0.541 13.929 8.591 0.265 0 0.463 0.371 0.834 0a0.6 0.6 0 0 0 -0.252 -0.5Z" stroke-width="1"></path><path id="vector_27" fill="#f9f5e5" d="M133.98 132.781c-3.977 0.884 -5.088 -0.149 -5.088 0.751a0.393 0.393 0 0 0 0.417 0.417c6.02 0 5.681 -1.168 4.671 -1.168Z" stroke-width="1"></path></g><path id="vector_28" fill="#fccac2" d="M109.28 60.715a1.123 1.123 0 1 1 -2.246 0.001 1.123 1.123 0 0 1 2.246 -0.001Z" stroke-width="1"></path><path id="vector_29" fill="#fccac2" d="M120.743 61.519a1.123 1.123 0 1 1 -2.246 0.001 1.123 1.123 0 0 1 2.246 -0.001Z" stroke-width="1"></path></g><path id="cloud" fill="#fccac2" d="M55 20.02c3.276 3.733 -0.25 8.841 -4.254 10.342 -2.418 0 -27.686 -0.3 -35.446 -0.834 -2.668 -0.183 -6.322 -0.667 -6.422 -4.337 -0.214 -7.841 6.861 -5.914 7.173 -6.922 0.179 -0.58 -0.966 -6.173 4.253 -8.424 2.885 -1.244 5.31 -0.359 7.59 1.668 1.332 -9.658 17.886 -8.242 19.349 2 0 1.2 -0.084 2.398 -0.25 3.586A8.47 8.47 0 0 1 55 20.02Z" stroke-width="1"></path></g></svg>