<svg xmlns="http://www.w3.org/2000/svg" fill="none" viewBox="0 0 200 200"><g id="create-new-post--social-create-new-post"><g id="phone"><path id="Vector" fill="#f9f5e5" d="M49.308 170.373c0.077 3.516 1.047 4.418 3.287 5.234 4.625 1.684 8.42 2.046 13.336 2.5 15.227 1.4 32.722 3.292 48 3.472 4.91 0.058 5.952 -1.317 6.76 -4.314 0.526 -1.948 5.55 -59.451 5.55 -59.551 0.658 -4 3.93 -43.032 3.841 -47.083 -0.078 -3.517 -1.048 -4.419 -3.288 -5.235 -4.625 -1.683 -8.421 -2.046 -13.336 -2.5C98.235 61.5 82.949 60.183 67.667 60c-4.909 -0.058 -5.951 1.318 -6.76 4.314 -3.788 14.042 -11.817 96.177 -11.599 106.059Z" stroke-width="1"></path><path id="Vector_2" fill="#501200" d="M126.482 64.764a39.569 39.569 0 0 0 -8.1 -1.867c-6.445 -0.847 -31.783 -2.971 -46.558 -3.315 -2.472 -0.057 -5.262 -0.426 -7.68 0.263 -4.027 1.148 -4.035 6.233 -4.551 9.654 -0.8 5.337 -7.15 51.025 -7.26 51.9a0.499 0.499 0 0 0 0.316 0.553c-0.053 0.71 -3.635 44.005 -3.761 46.057a12.394 12.394 0 0 0 0.394 5.419c0.863 2.106 3.183 2.708 5.182 3.314 5.021 1.523 10.041 1.748 25.251 3.156 11.364 1.053 22.779 2.144 34.2 2.157 1.92 0 4.159 -0.05 5.629 -1.473 1.715 -1.659 1.792 -4.559 2.052 -6.917 0.542 -4.917 8.661 -96.983 8.838 -99.533 0.34 -4.997 0.612 -7.752 -3.952 -9.368Zm-6.444 112.974c-0.942 3.184 -3.683 3.367 -6.55 3.34 -14.488 -0.135 -34.09 -2.113 -49.529 -3.63a48.688 48.688 0 0 1 -8.759 -1.5 14.647 14.647 0 0 1 -3.814 -1.42c-2.023 -1.3 -1.611 -4.639 -1.421 -7.523 0.335 -5.076 4.395 -52 4.577 -53.081a0.621 0.621 0 0 0 -0.079 -0.394c0.763 -5.656 5.1 -37.269 6.681 -47.4 0.32 -2.051 0.711 -4.364 2.946 -5.156 2.368 -0.839 5.34 -0.4 7.786 -0.342 11.437 0.268 28.314 1.327 45.084 3.157 2.93 0.284 5.821 0.875 8.628 1.762 3.049 1 4.032 1.659 4.05 5.313 0.035 7.027 -8.702 103.836 -9.6 106.874Z" stroke-width="1"></path><path id="Vector_3" fill="#501200" d="M126.745 71.261a3.349 3.349 0 0 0 -1.841 -0.842 95.157 95.157 0 0 0 -9.864 -1.788 208.43 208.43 0 0 0 -22.463 -2.315c-1.316 -0.1 -3.128 -0.5 -4.288 0.368 -1.417 1.057 -1.446 3.525 -1.63 5.077 0 1.243 -1.312 6.487 -2.5 19.78a101.924 101.924 0 0 0 -0.816 10.6c0.049 2.92 1.972 4.134 4.63 4.577 8.239 1.375 19.822 2.89 28.118 3.867 1.5 0.176 3 0.347 4.34 -0.526 2.242 -1.464 2.914 -4.736 3.5 -7.155 1.744 -7.212 2.217 -14.837 2.946 -22.2 0.179 -1.815 0.348 -3.659 0.5 -5.471 0.1 -1.213 0.185 -2.947 -0.632 -3.972Zm-0.289 3.788c-0.364 6.784 -1.238 13.651 -2.131 20.411 -0.421 3.188 -1.547 11.194 -3.893 13.441 -1.437 1.378 -3.524 0.841 -5.313 0.632 -7.936 -0.931 -24.281 -3.29 -26.488 -3.63 -1.709 -0.264 -3.706 -0.632 -4.182 -2.578 -0.418 -1.71 0.067 -3.839 0.21 -5.576a246.818 246.818 0 0 1 3 -25.488 0.436 0.436 0 0 0 -0.027 -0.261c0.219 -0.44 -0.021 -3.694 1.42 -4.525 1 -0.577 2.763 -0.143 3.84 -0.079 2.606 0.156 5.209 0.237 7.813 0.5 7.049 0.711 14.15 1.585 21.121 2.92 1.38 0.214 2.736 0.558 4.051 1.026 0.237 0.158 -0.091 -0.522 0.342 0.657a6.6 6.6 0 0 1 0.237 2.55Z" stroke-width="1"></path><g id="Group"><path id="Vector_4" fill="#ff7449" d="M95.575 81.493c0.161 -1.633 0.395 -3.262 0.579 -4.892a24.612 24.612 0 0 0 2.788 5.287 0.5 0.5 0 0 0 0.921 -0.237c0.256 -2.581 0.66 -5.146 1.21 -7.681 0.138 -0.63 -0.812 -0.893 -0.947 -0.263a71.386 71.386 0 0 0 -1.105 6.524 23.502 23.502 0 0 1 -2.63 -5.945 0.5 0.5 0 0 0 -0.973 0.131c-0.322 2.364 -0.579 4.735 -0.868 7.1 -0.027 0.607 0.964 0.607 1.025 -0.024Z" stroke-width="1"></path><path id="Vector_5" fill="#ff7449" d="M107.28 82.7a10.507 10.507 0 0 1 -2.972 -0.789c-0.417 -0.32 -0.205 -1 -0.158 -1.578 0.03 -0.368 0.079 -0.737 0.132 -1.079 0.1 0 1.307 0.131 2.262 0.316 0.633 0.122 0.895 -0.818 0.263 -0.947a22.883 22.883 0 0 0 -2.394 -0.342c0.053 -0.368 0.111 -0.762 0.185 -1.131 0.057 -0.288 0.054 -1.156 0.289 -1.42 0.557 -0.628 2.393 0.081 3.13 0.236 0.631 0.134 0.9 -0.818 0.263 -0.947 -3.258 -0.665 -3.543 -0.774 -3.867 -0.578 -0.424 0.256 -0.465 1.053 -0.552 1.5a45.098 45.098 0 0 0 -0.71 4.866c-0.043 0.475 -0.211 1.184 0.079 1.605 0.29 0.421 0.713 0.357 3.814 1.236a0.491 0.491 0 0 0 0.57 -0.361 0.487 0.487 0 0 0 -0.334 -0.587Z" stroke-width="1"></path><path id="Vector_6" fill="#ff7449" d="M119.222 77.153a126.124 126.124 0 0 1 -2.683 4.971c-0.5 -1.551 -0.8 -3.16 -0.894 -4.787a0.498 0.498 0 0 0 -0.683 -0.434 0.502 0.502 0 0 0 -0.238 0.197c-0.956 1.589 -1.1 3.551 -1.946 5.182a161.917 161.917 0 0 1 -1.526 -6.5c-0.134 -0.631 -1.081 -0.368 -0.947 0.263 0.543 2.554 1.161 5.076 1.789 7.576a0.486 0.486 0 0 0 0.815 0.21c1.068 -1.4 1.342 -3.1 1.921 -4.708a21.4 21.4 0 0 0 1.1 4.314 0.505 0.505 0 0 0 0.415 0.334 0.5 0.5 0 0 0 0.48 -0.229c1.079 -1.961 2.138 -3.943 3.209 -5.919 0.307 -0.556 -0.519 -1.047 -0.812 -0.47Z" stroke-width="1"></path><path id="Vector_7" fill="#ff7449" d="M95.523 88.437c-1.393 -1 -2.6 -0.342 -3.025 1.21 -0.712 2.63 -1.063 5.4 -1.605 8.075 -0.127 0.632 0.816 0.9 0.947 0.263 0.317 -1.525 0.6 -3.051 0.895 -4.576 1.394 0.5 3.239 0.844 4.156 -0.632 0.978 -1.577 -0.052 -3.394 -1.368 -4.34Zm-2.578 3.972c0.132 -0.658 0.26 -1.316 0.4 -1.946 0.18 -0.843 0.225 -1.872 1.867 -1.053 1.36 0.681 2.276 4.678 -2.267 2.999Z" stroke-width="1"></path><path id="Vector_8" fill="#ff7449" d="M102.178 88.674c-1.338 -0.122 -3.757 3.726 -3.178 7.838a3 3 0 0 0 1.42 2.552 1.756 1.756 0 0 0 2.236 -0.579c1.511 -1.984 1.733 -5.581 1.263 -7.917a2.153 2.153 0 0 0 -1.741 -1.894Zm0.447 7.444c-0.849 2.744 -2.455 1.731 -2.762 -0.263a7.078 7.078 0 0 1 0.894 -4.52c1.1 -1.67 2.273 -1.3 2.236 -0.189a12.191 12.191 0 0 1 -0.368 4.972Z" stroke-width="1"></path><path id="Vector_9" fill="#ff7449" d="M109.49 94.487c-0.815 -0.344 -2.052 -0.395 -2.315 -1.447a1.93 1.93 0 0 1 1.14 -1.793 1.925 1.925 0 0 1 2.096 0.347c0.5 0.372 1 -0.476 0.5 -0.842 -1.915 -1.4 -4.965 -0.132 -4.708 2.446 0.184 1.844 2.283 1.84 3.156 2.289a1.226 1.226 0 0 1 0.596 1.833 1.227 1.227 0 0 1 -0.569 0.455 2.514 2.514 0 0 1 -2.815 -0.5c-0.37 -0.525 -1.212 -0.024 -0.841 0.5 1.175 1.663 5.1 1.74 5.523 -0.631a2.537 2.537 0 0 0 -1.763 -2.657Z" stroke-width="1"></path><path id="Vector_10" fill="#ff7449" d="M118.459 91.436c-1.552 -0.261 -3.129 -0.5 -4.682 -0.763 -0.631 -0.106 -0.895 0.847 -0.263 0.947 0.71 0.112 1.421 0.237 2.131 0.342 -0.5 2.341 -0.9 4.707 -1.21 7.076 -0.081 0.63 0.9 0.632 1 0 0.349 -2.31 0.71 -4.63 1.183 -6.918 0.526 0.079 1.053 0.18 1.578 0.263 0.633 0.1 0.895 -0.841 0.263 -0.947Z" stroke-width="1"></path></g><path id="Vector_11" fill="#501200" d="M120.537 123.079a3.404 3.404 0 0 0 -1.841 -0.815 83.447 83.447 0 0 0 -9.732 -1.631 203.802 203.802 0 0 0 -22.621 -2.052c-1.315 -0.08 -3.128 -0.444 -4.261 0.421 -1.418 1.082 -1.421 3.525 -1.579 5.1 0 1.4 -1.393 6.852 -2.6 25.2 -0.355 5.385 -1.569 8.939 4.761 9.837 11.7 1.659 22.983 2.976 28.329 3.5a5.505 5.505 0 0 0 3.814 -0.631c2.337 -1.584 2.974 -5.155 3.525 -7.681 1.583 -7.258 1.982 -14.86 2.578 -22.252 0.37 -4.645 0.79 -7.575 -0.373 -8.996Zm-0.21 3.577c-0.026 3.3 -1.512 17.533 -1.815 20.149 -0.375 3.241 -1.442 11.671 -3.761 13.967 -1.309 1.3 -3.13 0.941 -4.788 0.763 -6.836 -0.735 -24.276 -2.984 -26.145 -3.236 -1.63 -0.22 -4.03 -0.313 -4.893 -2 -0.82 -1.6 -0.234 -4.077 -0.131 -5.787C80 130.43 81.695 125 81.45 124.263c0.222 -0.444 -0.082 -3.686 1.342 -4.551 1 -0.606 2.762 -0.185 3.84 -0.131 2.578 0.128 5.13 0.148 7.707 0.368 7.078 0.6 14.186 1.347 21.174 2.63 1.411 0.215 2.802 0.549 4.156 1a0.099 0.099 0 0 0 0.079 0.026c0.459 0.948 0.659 2.001 0.579 3.051Z" stroke-width="1"></path></g><g id="character"><path id="Vector_12" fill="#f9f5e5" d="M114.488 109.638c-0.711 -0.552 -1.5 0.368 -1.868 1.131 0.335 -0.994 0.37 -2.064 0.1 -3.078 -0.1 -0.394 -0.287 -0.828 -0.868 -0.894 -0.941 -0.107 -1.433 0.841 -1.788 1.631a4.65 4.65 0 0 0 0 -3.314 0.78 0.78 0 0 0 -0.61 -0.491 0.784 0.784 0 0 0 -0.732 0.28 5.336 5.336 0 0 0 -1.022 1.897c0.571 -3.106 0.861 -6.258 0.868 -9.416a0.328 0.328 0 0 0 -0.233 -0.318 0.33 0.33 0 0 0 -0.372 0.133 17.178 17.178 0 0 0 -2.42 5.55c-0.394 1.658 -1.157 3.63 -1.656 3.92 -0.711 0.42 -2.394 0.578 -2.526 2.235 -0.054 1.135 0.022 1.086 1.842 7.786l6.865 3.946a22.887 22.887 0 0 0 4.76 -10 1.024 1.024 0 0 0 -0.34 -0.998Z" stroke-width="1"></path><path id="Vector_13" fill="#f9f5e5" d="M61.354 92.672c0.079 -0.587 0.263 -0.777 2 -4.077 -1.315 -0.21 -2.6 -0.447 -3.919 -0.684 -0.685 -3.617 -1.2 -13.966 -12.626 -10.811 -8.717 2.325 -12.667 13.534 -7.969 23.358 1.437 3.031 3.621 5.889 4.2 9.1a22.657 22.657 0 0 1 -0.2 6.447c-0.234 1.263 -0.344 2.114 0.947 2.578a7.824 7.824 0 0 0 3.656 0.263 17.101 17.101 0 0 0 7.76 -3.025c1.473 -0.937 0.064 -1.245 0.312 -6.865a8.427 8.427 0 0 0 4.291 -2.841c3.823 -4.803 1.375 -12.215 1.548 -13.443Z" stroke-width="1"></path><path id="Vector_14" fill="#501200" d="M114.435 109.059a1.25 1.25 0 0 0 -1.026 0.079 2.966 2.966 0 0 0 -0.789 -2.551 1.351 1.351 0 0 0 -1.736 -0.027c0.063 -2.319 -1.418 -2.868 -2.288 -2.183 0.21 -1.5 0.394 -3 0.473 -4.524 0.027 -0.632 0.552 -3.735 -1.052 -3.261 -0.6 0.183 -0.92 1.078 -1.184 1.551a25.518 25.518 0 0 0 -2.183 6.024 4.17 4.17 0 0 1 -1.131 2.156c-1.026 0.658 -2.157 0.711 -2.525 2.131 -0.317 1.267 0.134 2.243 1.5 7.339a6.256 6.256 0 0 0 -1.473 1.867 114.859 114.859 0 0 0 -11.968 20.017c-3.025 -7 -6.5 -14.072 -12.415 -19.1 -5.575 -4.745 -13.3 -7.24 -20.369 -4.564a23.596 23.596 0 0 1 -0.253 -4.747c3.987 -1.4 6.885 -5.2 6.26 -12.31 -0.132 -1.289 -0.552 -2.631 -0.552 -3.92 0.026 -1.367 1.341 -3 1.946 -4.182a0.449 0.449 0 0 0 -0.236 -0.736c-0.658 -0.106 -1.315 -0.237 -1.973 -0.342 -0.527 -0.079 -1.368 -0.053 -1.71 -0.5a6.387 6.387 0 0 1 -0.342 -1.736c-0.8 -3.714 -0.858 -5.09 -2.078 -6.366 -2.551 -2.683 -6.839 -3.5 -10.337 -2.683 -8.812 2.078 -12.047 12.126 -10.074 20.122 1.467 5.873 5.23 9.169 5.681 13.889a0.557 0.557 0 0 0 -0.158 0.447c0.222 1.879 0.14 3.782 -0.245 5.635 -2.31 -0.4 -9.58 0.72 -15.721 4.281 -5.155 3 -9.048 7.26 -12.757 11.837 -3.472 4.287 -7.155 8.864 -8.338 14.388 -2.715 12.61 9.613 26.66 21.043 32.695a8.75 8.75 0 0 0 1.709 0.868c0.632 0.185 0.463 -0.1 0.552 0.474 0.125 0.807 -0.358 3.452 -0.262 4.839 0.157 2.631 2.867 2.447 4.866 2.526 10.245 0.31 20.766 0.542 30.591 0.158 3 -0.132 6.1 -0.369 8.811 -1.789 3.213 -1.683 3.1 -3.456 3.288 -7 1.167 -19.305 1.133 -18.665 1 -19.464 3.262 1.473 6.523 2.393 10.153 1.5 3.706 -1.061 7 -3.227 9.443 -6.208 8.232 -9.488 12.4 -23.734 14.941 -36.036v-0.105a23.688 23.688 0 0 0 3.5 -7.47c0.233 -0.993 0.733 -2.572 -0.582 -3.019Zm-74.386 -7.339c-4.959 -9.2 -2.574 -18.27 3.156 -22.331 6.184 -4.4 13.158 -1.008 14.283 1.447a17.14 17.14 0 0 1 0.684 3.261c0.289 1.315 0.552 2.63 0.789 3.972a0.454 0.454 0 0 0 0.342 0.342c1.105 0.184 2.183 0.394 3.288 0.579 -0.868 1.394 -1.92 2.919 -1.736 4.55 0.263 2.5 0.815 4.866 0.473 7.418a0.16 0.16 0 0 1 -0.026 0.105c-1.473 0.026 -3.051 -0.71 -3.025 -2.367a0.5 0.5 0 0 0 -1 0c-0.027 2.13 1.867 3.34 3.814 3.366 -1.026 4.209 -4.6 7.365 -9.207 6.655 -0.631 -0.105 -0.894 0.868 -0.263 0.947a9.441 9.441 0 0 0 3.446 -0.105c-0.3 4.165 0.884 4.869 -0.473 6.076a13.683 13.683 0 0 1 -5.551 2.42c-1.342 0.327 -3.878 0.716 -5 0.1 -1.63 -0.838 -0.122 -2.137 -0.5 -6.6a0.43 0.43 0 0 0 0.132 -0.316c-0.023 -3.548 -1.995 -6.494 -3.626 -9.519Zm74.123 9.654a26.68 26.68 0 0 1 -1.447 4.1 21.828 21.828 0 0 1 -1.972 3.393c-4.515 -1.958 -7.244 -3.159 -7.339 -3.182 -1.42 -5.2 -2.059 -6.57 -1.236 -7.55a3.784 3.784 0 0 1 1.525 -0.841 2.82 2.82 0 0 0 1.42 -1.763c0.658 -1.578 0.948 -3.261 1.553 -4.866 0.078 -0.21 1.446 -2.788 1.42 -2.814a9.212 9.212 0 0 1 -0.105 2.525c-0.132 2.1 -0.474 4.209 -0.789 6.313a0.49 0.49 0 0 0 0.946 0.263c0.176 -0.477 0.948 -2.473 1.578 -1.079a3.749 3.749 0 0 1 -0.183 2.447c-0.185 0.526 0.657 0.894 0.894 0.368 0.289 -0.631 1.157 -2.157 1.815 -0.631a4.208 4.208 0 0 1 -0.158 2.6 0.485 0.485 0 0 0 0.289 0.568 0.491 0.491 0 0 0 0.605 -0.2c0.027 -0.053 0.027 -0.079 0.053 -0.132v-0.026c0.252 -0.567 1.252 -0.218 1.131 0.507Z" stroke-width="1"></path><path id="Vector_15" fill="#501200" d="M55.778 85.859c-1.424 0.836 -0.846 2.712 -0.315 3.893 0.26 0.58 1.106 0.079 0.841 -0.5 -0.313 -0.685 -0.76 -1.656 -0.263 -2.341 0.609 -0.84 1.132 1.1 1.237 1.5a0.491 0.491 0 0 0 0.946 -0.263c-0.232 -1.021 -1.002 -3.136 -2.446 -2.289Z" stroke-width="1"></path><path id="Vector_16" fill="#501200" d="M45.494 94.487a4.92 4.92 0 0 0 -2.683 -0.421c-0.631 0.083 -0.631 1.06 0 1a4.54 4.54 0 0 1 2.183 0.289c0.579 0.236 1.08 -0.609 0.5 -0.868Z" stroke-width="1"></path><path id="Vector_17" fill="#ffb949" d="M58.146 69.052c-4.891 -2.845 -11.048 -2 -15.756 0.946a13.453 13.453 0 0 0 -0.789 -7.68 11.019 11.019 0 0 0 -9.785 -6.26 13.663 13.663 0 0 0 -11.048 5.26c-5.76 7.37 -2.588 20.682 6.971 19.859 -3.077 6.083 -1.359 12.7 1.394 18.939 1.474 3.34 3.337 6.659 6.286 8.891a10.485 10.485 0 0 0 10.5 1.525 0.581 0.581 0 0 0 0.342 -0.368c3.709 -3.525 3.073 -8.993 0.947 -13.231a0.692 0.692 0 0 0 -0.947 -0.236c-3.884 1.824 -6.258 -1.789 -4.55 -3.367 1.394 -1.289 3.79 0.347 5.524 -0.342 3.739 -1.488 2.525 -6.313 1.815 -9.443 3.588 -0.66 9.4 -2.141 11.6 -5.051 2.489 -3.294 0.838 -7.494 -2.504 -9.442Z" stroke-width="1"></path><path id="Vector_18" fill="#f9f5e5" d="M28.738 81.256c1.8 -6.014 8.017 -8.433 13.362 -10.311 0.6 -0.212 0.342 -1.16 -0.263 -0.947 -5.714 2.008 -12.3 4.577 -14.072 10.995a0.505 0.505 0 0 0 0.973 0.263Z" stroke-width="1"></path><path id="Vector_19" fill="#f9f5e5" d="M88.789 138.256a35.139 35.139 0 0 1 -0.552 4.13c-0.113 0.63 0.837 0.893 0.947 0.263 0.252 -1.449 0.464 -2.921 0.578 -4.393 0.049 -0.632 -0.937 -0.604 -0.973 0Z" stroke-width="1"></path><path id="Vector_20" fill="#f9f5e5" d="M77.005 159.483c-4.2 -2.259 -7.094 -6.081 -9.627 -10 -0.341 -0.527 -1.2 -0.034 -0.842 0.5 2.707 4.027 5.624 8.06 10 10.364a0.495 0.495 0 0 0 0.469 -0.864Z" stroke-width="1"></path><path id="Vector_21" fill="#f9f5e5" d="M31.526 142.991c-0.957 4.907 -1.6 9.863 -2.1 14.809a35.817 35.817 0 0 0 -8.785 -5.708c-0.578 -0.264 -1.078 0.577 -0.5 0.841 6.139 2.806 8.575 5.805 9.154 6a198.848 198.848 0 0 0 -0.842 20.6 0.5 0.5 0 1 0 1 0 201.965 201.965 0 0 1 3.047 -36.279c0.11 -0.631 -0.85 -0.896 -0.974 -0.263Z" stroke-width="1"></path></g><g id="chat bubbles"><path id="Vector_22" fill="#ffb949" d="M194.082 132.6c2.729 10.891 -0.474 24.46 -11.915 28.8a27.126 27.126 0 0 1 -31.749 -9.864c-3.625 -4.974 -5.04 -11.093 -7.286 -16.729 -2.246 -5.636 -7.506 -9.329 -11.363 -13.809a0.713 0.713 0 0 1 -0.092 -0.809 0.713 0.713 0 0 1 0.723 -0.375c11.608 -5.523 22.553 -14.35 38.877 -10.074a31.63 31.63 0 0 1 14.538 8.302 31.631 31.631 0 0 1 8.267 14.558Z" stroke-width="1"></path><path id="Vector_23" fill="#fccac2" d="M177.642 23.6c9.134 4.722 16.188 17.237 9.443 26.7 -7.3 10.241 -21.121 8.676 -31.958 7.181 -11.863 -1.636 -24.62 -2.882 -36.3 0.552a0.6 0.6 0 0 1 -0.763 -0.315 0.646 0.646 0 0 1 -0.239 -0.763 0.65 0.65 0 0 1 0.16 -0.237C127.7 47.284 131.4 35.57 144.6 27.36c9.426 -5.86 22.686 -9.115 33.042 -3.76Z" stroke-width="1"></path><path id="Vector_24" fill="#501200" d="M180.141 128.1c0.133 0 0.26 0.053 0.354 0.146a0.504 0.504 0 0 1 0 0.708 0.504 0.504 0 0 1 -0.354 0.146c-6.549 0 -13.127 -0.213 -19.675 -0.736 -0.631 -0.05 -0.631 -1.049 0 -1 6.547 0.512 13.099 0.736 19.675 0.736Z" stroke-width="1"></path><path id="Vector_25" fill="#501200" d="M179.694 132.522c0.133 0 0.26 0.053 0.354 0.146a0.504 0.504 0 0 1 0 0.708 0.504 0.504 0 0 1 -0.354 0.146 196.061 196.061 0 0 1 -19.675 -0.736c-0.631 -0.05 -0.632 -1.049 0 -1 6.547 0.509 13.099 0.736 19.675 0.736Z" stroke-width="1"></path><path id="Vector_26" fill="#501200" d="M179.536 137.52c0.133 0 0.26 0.053 0.354 0.146a0.504 0.504 0 0 1 0 0.708 0.504 0.504 0 0 1 -0.354 0.146 196.657 196.657 0 0 1 -19.675 -0.736c-0.631 -0.051 -0.631 -1.049 0 -1 6.547 0.508 13.099 0.736 19.675 0.736Z" stroke-width="1"></path><path id="Vector_27" fill="#501200" d="M179.115 142.359c0.133 0 0.26 0.053 0.354 0.146a0.504 0.504 0 0 1 0 0.708 0.504 0.504 0 0 1 -0.354 0.146 196.062 196.062 0 0 1 -19.675 -0.737c-0.631 -0.05 -0.631 -1.048 0 -1 6.547 0.51 13.099 0.737 19.675 0.737Z" stroke-width="1"></path><path id="Vector_28" fill="#f9f5e5" d="M171.566 34.8c-0.132 -1.551 0.184 -4.708 -1.894 -5a35.342 35.342 0 0 0 -5.024 -0.079c-4.055 0.047 -8.104 0.328 -12.126 0.842 -2.108 0.233 -2.631 0.431 -2.446 3.419 0 3.752 0.5 9.976 0.732 13.721 0.2 3.263 1.012 4.008 3.477 4.008 4.129 -0.027 8.285 -0.211 12.415 -0.421 1.236 -0.053 2.972 0.131 4 -0.684 1.079 -0.842 1.21 -2.42 1.316 -3.683 0.318 -4.505 -0.096 -7.588 -0.45 -12.123Z" stroke-width="1"></path><path id="Vector_29" fill="#ff7449" d="M67.036 24.862c1.263 4.5 -1.341 11.047 -6.471 11.6a9.347 9.347 0 0 1 -7.338 9.259c-3.471 0.741 -8.943 -0.526 -10.495 -4.129 -2.078 3.761 -6.577 5.868 -10.758 4a7.387 7.387 0 0 1 -3.025 -11.048 7.82 7.82 0 0 1 -3.183 -8.417 7.856 7.856 0 0 1 7.154 -5.5 9.274 9.274 0 0 1 2.42 -6.944c2 -2.128 5.024 -2.626 7.839 -2.525 5.444 0.193 11.521 2.525 13.2 8.154a8.34 8.34 0 0 1 10.657 5.55Zm-6.944 10.679c4.763 -0.079 7.121 -6.416 6 -10.39a7.308 7.308 0 0 0 -9.792 -4.708 0.5 0.5 0 0 1 -0.736 -0.29c-1.282 -5.4 -6.893 -7.659 -11.942 -7.943 -2.6 -0.147 -5.531 0.124 -7.47 2.078A8.147 8.147 0 0 0 33.946 21c0 0.355 -0.145 0.662 -0.5 0.658a6.882 6.882 0 0 0 -6.708 4.787 6.777 6.777 0 0 0 3.183 7.6 0.486 0.486 0 0 1 0.105 0.762 6.366 6.366 0 0 0 2.815 10.1 7.534 7.534 0 0 0 9.521 -4.84c0.137 -0.393 0.867 -0.526 0.947 0 0.643 4.185 6.628 5.522 10.075 4.629a8.31 8.31 0 0 0 6.207 -8.653 0.487 0.487 0 0 1 0.501 -0.502Z" stroke-width="1"></path><path id="Vector_30" fill="#f9f5e5" d="M66.089 25.151c1.124 3.974 -1.234 10.311 -6 10.39a0.488 0.488 0 0 0 -0.5 0.5 8.31 8.31 0 0 1 -6.207 8.653c-3.447 0.893 -9.432 -0.444 -10.075 -4.629 -0.08 -0.526 -0.81 -0.393 -0.947 0a7.534 7.534 0 0 1 -9.521 4.84 6.364 6.364 0 0 1 -2.815 -10.1 0.487 0.487 0 0 0 -0.105 -0.762 6.777 6.777 0 0 1 -3.183 -7.6 6.882 6.882 0 0 1 6.708 -4.787c0.354 0 0.5 -0.3 0.5 -0.658a8.15 8.15 0 0 1 2.21 -6.707c1.939 -1.954 4.865 -2.225 7.47 -2.078 5.049 0.284 10.66 2.543 11.942 7.943a0.5 0.5 0 0 0 0.736 0.29 7.308 7.308 0 0 1 9.787 4.705Z" stroke-width="1"></path><path id="Vector_31" fill="#ff7449" d="M54.279 55.9a2.047 2.047 0 0 1 0.421 2.867 2.27 2.27 0 0 1 -3.025 0.158c-1.135 -1.256 0.693 -4.29 2.604 -3.025Zm-0.237 2.1c0.293 -0.586 -0.279 -1.487 -0.817 -1.448 -0.538 0.039 -1.259 1.505 -0.656 1.79A1.181 1.181 0 0 0 54.042 58Z" stroke-width="1"></path><path id="Vector_32" fill="#ff7449" d="M54.41 27.308c0.235 1.394 1.041 3.937 0.158 5.208a2.382 2.382 0 0 1 -1.736 0.815c-0.447 0.071 -3.5 0.519 -3.84 0.6 -0.289 0.816 -0.587 1.628 -0.868 2.447a0.5 0.5 0 0 1 -0.816 0.21 29.029 29.029 0 0 1 -1.709 -2.078c-1.21 0.237 -2.445 0.431 -3.683 0.6 -1.392 0.2 -2.919 0.447 -3.577 -1.078a23.97 23.97 0 0 1 -1.263 -6.55c-0.157 -1.394 -0.445 -3.181 0.868 -4.13 0.725 -0.523 1.1 -0.494 5.866 -1.315 0.026 -0.026 0.026 -0.026 0.053 -0.026 1.592 -0.441 3.22 -0.74 4.866 -0.894 1.131 -0.13 3.1 -0.554 4.051 0.315 0.587 0.775 0.942 1.7 1.025 2.668 0.22 1.049 0.42 2.1 0.605 3.208Zm-5.76 1.078a3.26 3.26 0 0 0 -0.026 -3 1.949 1.949 0 0 0 -1.947 -0.9 1.885 1.885 0 0 0 -1.289 1.184 1.808 1.808 0 0 0 -3 1.236 3.086 3.086 0 0 0 1.078 2.447 9.535 9.535 0 0 0 2.946 2.288 0.524 0.524 0 0 0 0.474 -0.132 8.172 8.172 0 0 0 1.764 -3.123Z" stroke-width="1"></path><path id="Vector_33" fill="#f9f5e5" d="M53.246 56.554a1.1 1.1 0 0 1 0.8 1.45 1.181 1.181 0 0 1 -1.473 0.342c-0.623 -0.292 0.136 -1.776 0.673 -1.792Z" stroke-width="1"></path><path id="Vector_34" fill="#ff7449" d="M52.1 48.061a2.38 2.38 0 0 1 -1.368 4.367 2.573 2.573 0 0 1 -1.868 -0.6c-1.336 -1.493 0.785 -5.4 3.236 -3.767Zm-0.079 2.71c0.488 -0.938 -0.473 -2.3 -1.331 -2.178 -0.83 0.124 -1.768 2.227 -0.826 2.677a1.69 1.69 0 0 0 2.153 -0.499h0.004Z" stroke-width="1"></path><path id="Vector_35" fill="#f9f5e5" d="M50.686 48.593c0.86 -0.138 1.821 1.236 1.331 2.178a1.69 1.69 0 0 1 -2.157 0.5c-0.925 -0.443 -0.024 -2.541 0.826 -2.678Z" stroke-width="1"></path><path id="Vector_36" fill="#ff7449" d="M172.087 45.011a45.04 45.04 0 0 0 -3.309 -2.4c-0.815 -0.525 -1.736 -1.314 -2.736 -0.789 -0.936 0.522 -1.84 1.878 -2.735 1.684a3.046 3.046 0 0 1 -0.763 -0.526c-2.341 -1.667 -3.346 -2.635 -3.894 -3.038 -0.328 -0.242 -0.493 -0.28 -0.683 -0.145a1582.45 1582.45 0 0 1 -7.207 5.05c-0.5 0.248 -0.046 1.236 0.5 0.842 2.284 -1.647 4.6 -3.235 6.918 -4.84 0.947 0.79 1.92 1.578 2.893 2.288 0.684 0.5 1.815 1.684 2.762 1.526 1.315 -0.21 1.841 -2.078 3.419 -1.84 0.579 0.078 1.526 0.972 2 1.288 0.764 0.526 1.489 1.033 2.21 1.631 0.477 0.402 1.256 -0.224 0.625 -0.73Z" stroke-width="1"></path><path id="Vector_37" fill="#ff7449" d="M162.912 34.594a2.149 2.149 0 0 1 3.288 2.6 1.724 1.724 0 0 1 -1.683 0.947c-1.575 -0.098 -3.09 -2.258 -1.605 -3.547Z" stroke-width="1"></path></g></g></svg>