<svg xmlns="http://www.w3.org/2000/svg" fill="none" viewBox="0 0 200 200"><g id="selfie-1--social-media-selfie"><g id="elements"><path id="vector" fill="#501200" d="M154.985 70.966c-0.984 0.03 -1.968 -0.02 -2.943 -0.152a0.515 0.515 0 0 1 0.282 -0.991c4.198 0.261 8.413 0.04 12.561 -0.657a0.516 0.516 0 0 1 0.153 1.019 69.896 69.896 0 0 1 -10.053 0.781Z" stroke-width="1"></path><path id="vector_2" fill="#501200" d="M154.272 74.869a0.512 0.512 0 0 1 -0.458 -0.567 0.514 0.514 0 0 1 0.567 -0.458c2.841 0.265 5.7 0.265 8.54 0a0.514 0.514 0 1 1 0.112 1.024 45.485 45.485 0 0 1 -8.761 0.001Z" stroke-width="1"></path><path id="vector_3" fill="#501200" d="M161.231 167.42a0.516 0.516 0 0 1 -0.033 -1.029c0.2 -0.013 19.846 -1.263 31.176 -0.555a0.514 0.514 0 1 1 -0.064 1.028c-11.674 -0.732 -30.71 0.556 -31.079 0.556Z" stroke-width="1"></path><path id="vector_4" fill="#501200" d="M156.787 173.77a0.513 0.513 0 0 1 -0.369 -0.877 0.515 0.515 0 0 1 0.363 -0.153c0.045 0 14.68 -0.572 17.957 -0.476a0.515 0.515 0 1 1 -0.03 1.029c-3.257 -0.093 -17.89 0.477 -17.921 0.477Z" stroke-width="1"></path><path id="vector_5" fill="#501200" d="M158.929 180.277a0.516 0.516 0 0 1 -0.017 -1.029c0.252 -0.009 25.291 -0.87 35.581 -0.715a0.512 0.512 0 0 1 0.511 0.519 0.512 0.512 0 0 1 -0.519 0.511c-18.703 0 -33.946 0.714 -35.556 0.714Z" stroke-width="1"></path></g><g id="person"><path id="vector_6" fill="#ffb949" d="M52.5 54.783s4.558 49.362 56.882 36.02a70.885 70.885 0 0 1 -2.436 11.4s16.826 2.474 22.438 22.722c0 0 -7.379 16.442 -15.584 26.991l8.615 2.652s23.5 -12.62 30.322 -41.072c6.822 -28.452 -13.864 -36.9 -13.97 -36.825 -0.106 0.075 4.01 -2.639 4.188 -5.794 0.178 -3.155 -8.392 -9.464 -20.624 -9.285 -12.232 0.179 -17.412 6.364 -16.876 8.866 0 0 -1.19 -1.128 -9.345 0.479 -8.155 1.607 -16.329 -0.5 -19.126 -2.46 -2.797 -1.96 -11.074 -10.258 -13 -13.691L52.5 54.783Z" stroke-width="1"></path><path id="vector_7" fill="#f9f5e5" d="M117.1 73.3a36.027 36.027 0 0 1 3.06 5.7s4.226 -4.345 6.458 -5.714l-0.208 -8.155a19.92 19.92 0 0 0 2.619 -2.738s4.311 1.647 7.143 -1.666c2.44 -2.856 1.689 -9.106 2.083 -12.482 0.447 -3.828 3.616 -8.851 0.04 -13.917 -1.594 -2.258 -4.365 -3.016 -8.93 -3.968 -3.078 -0.643 -5.842 -2.718 -9.919 -3.949 -7.818 -2.361 -11.826 2.8 -11.349 7.6 0.31 3.127 3.452 5 3.452 5s-1.573 15.282 -1.27 18.691c0.318 3.571 2.738 7.619 7.341 8.254l-0.52 7.344Z" stroke-width="1"></path><path id="vector_8" fill="#501200" d="M128.851 50.08a0.518 0.518 0 0 1 -0.41 -0.2 8.103 8.103 0 0 1 -1.321 -6.851 11.91 11.91 0 0 1 1.291 -3.373 0.514 0.514 0 0 1 0.879 0.536c-0.031 0.051 -3.047 5.114 -0.03 9.062a0.52 0.52 0 0 1 0.05 0.539 0.514 0.514 0 0 1 -0.459 0.287Z" stroke-width="1"></path><path id="vector_9" fill="#501200" d="M125.041 41.033a0.514 0.514 0 0 1 -0.458 -0.77 0.517 0.517 0 0 1 0.27 -0.23 5.625 5.625 0 0 0 2.124 -1.726 0.51 0.51 0 0 1 0.543 -0.22 0.51 0.51 0 0 1 0.329 0.235 0.518 0.518 0 0 1 -0.036 0.585 5.629 5.629 0 0 1 -2.772 2.126Z" stroke-width="1"></path><path id="vector_10" fill="#501200" d="M122.448 46.719c-0.568 -0.021 -1.051 0.59 -1.08 1.366 -0.029 0.776 0.408 1.421 0.977 1.442 0.569 0.021 1.052 -0.591 1.08 -1.366 0.028 -0.775 -0.408 -1.421 -0.977 -1.442Z" stroke-width="1"></path><path id="vector_11" fill="#501200" d="M125.934 27.342a5.683 5.683 0 0 1 -4.8 -2.893 0.514 0.514 0 0 1 0.909 -0.484 4.638 4.638 0 0 0 3.891 2.347 0.513 0.513 0 0 1 0.515 0.515 0.514 0.514 0 0 1 -0.515 0.515Z" stroke-width="1"></path><path id="vector_12" fill="#501200" d="M116.727 52.7c-0.091 0 -2.42 -1.249 -2.239 -2.142 0.194 -0.958 2.879 -1.564 3.053 -1.637 0.228 -1.536 0.362 -3.085 0.4 -4.638a0.518 0.518 0 0 1 0.536 -0.486 0.517 0.517 0 0 1 0.493 0.529c-0.208 4.927 -0.525 5.2 -0.692 5.35 -0.864 0.398 -1.754 0.739 -2.662 1.021 0.418 0.402 0.881 0.753 1.38 1.048a0.513 0.513 0 0 1 0.043 0.851 0.517 0.517 0 0 1 -0.312 0.104Z" stroke-width="1"></path><path id="vector_13" fill="#501200" d="M124.208 43.673a0.51 0.51 0 0 1 -0.358 -0.145 1.99 1.99 0 0 0 -2.725 -0.2 0.519 0.519 0 0 1 -0.376 0.118 0.513 0.513 0 0 1 -0.468 -0.559 0.518 0.518 0 0 1 0.183 -0.349 3.006 3.006 0 0 1 4.1 0.244 0.514 0.514 0 0 1 -0.066 0.803 0.515 0.515 0 0 1 -0.29 0.088Z" stroke-width="1"></path><path id="vector_14" fill="#501200" d="M112.665 43.347a0.515 0.515 0 0 1 0.623 -0.82 2.678 2.678 0 0 0 2.685 0.1 0.516 0.516 0 0 1 0.437 0.933 3.7 3.7 0 0 1 -3.745 -0.213Z" stroke-width="1"></path><path id="vector_15" fill="#501200" d="M131.886 53.384a0.516 0.516 0 0 1 -0.185 -1l0.714 -0.275a0.515 0.515 0 1 1 0.371 0.961c-0.777 0.303 -0.772 0.314 -0.9 0.314Z" stroke-width="1"></path><path id="vector_16" fill="#501200" d="M115.719 55.929a0.516 0.516 0 0 1 0.542 -0.714 8.282 8.282 0 0 0 5.049 -1.2 0.515 0.515 0 0 1 0.794 0.441c-0.096 5.644 -4.579 5.659 -6.385 1.473Zm1.364 0.351c0.465 0.724 1.3 1.689 2.341 1.582 1.007 -0.1 1.4 -1.507 1.555 -2.485a9.37 9.37 0 0 1 -3.896 0.903Z" stroke-width="1"></path><path id="vector_17" fill="#501200" d="M114.227 79.39c0.264 -0.85 0.59 -1.681 0.974 -2.485a0.516 0.516 0 1 0 -0.915 -0.474 18.295 18.295 0 0 0 -0.892 2.208c-2.812 -2.441 -6.261 -4.271 -7.257 -7.5a3.634 3.634 0 0 1 -0.132 -2 0.516 0.516 0 0 0 -0.713 -0.63 0.512 0.512 0 0 0 -0.261 0.295c-0.054 0.154 -1.249 3.819 4.544 8.123 1.411 1.048 2.555 1.952 3.483 2.777a22.117 22.117 0 0 0 1.228 16.411 0.515 0.515 0 1 0 0.915 -0.474 20.923 20.923 0 0 1 -1.3 -15.15c4.1 4.044 2.252 6.537 3.523 6.537a0.516 0.516 0 0 0 0.513 -0.567c-0.269 -2.669 -0.99 -4.515 -3.71 -7.071Z" stroke-width="1"></path><path id="vector_18" fill="#501200" d="M115.7 48.324a0.516 0.516 0 0 1 -0.337 -0.125 2.424 2.424 0 0 0 -2.663 -0.299 0.515 0.515 0 0 1 -0.495 -0.9 3.448 3.448 0 0 1 3.829 0.418 0.51 0.51 0 0 1 0.148 0.57 0.513 0.513 0 0 1 -0.482 0.336Z" stroke-width="1"></path><path id="vector_19" fill="#f9f5e5" d="M40.16 160.8v6.127s-4.365 1.325 -4.88 6.92c-0.515 5.595 4.554 7.891 7.321 8.05a7.588 7.588 0 0 0 5.59 -2.022 7.58 7.58 0 0 0 2.41 -5.433c0 -5.04 -3.73 -7.291 -4.96 -7.515V160.8H40.16Z" stroke-width="1"></path><path id="vector_20" fill="#f9f5e5" d="M133.4 160.8v6.127s-4.365 1.325 -4.881 6.92 4.555 7.891 7.322 8.05a7.585 7.585 0 0 0 5.589 -2.022 7.581 7.581 0 0 0 2.411 -5.433c0 -5.04 -3.73 -7.291 -4.96 -7.515V160.8H133.4Z" stroke-width="1"></path><path id="vector_21" fill="#501200" d="M136.157 177.273a3.259 3.259 0 1 0 0 -6.518 3.259 3.259 0 0 0 0 6.518Z" stroke-width="1"></path><path id="vector_22" fill="#501200" d="M43.062 177.273a3.259 3.259 0 1 0 0 -6.518 3.259 3.259 0 0 0 0 6.518Z" stroke-width="1"></path><path id="vector_23" fill="#ff7449" d="M5.99 147.683c0.986 -1.69 3.417 -1.171 5.321 0.631 2.263 2.142 5.238 7.052 14.921 7.232 9.683 0.18 119.786 1.086 127.34 -0.069 10.119 -1.548 15.252 -11.347 18.969 -8.362 3.888 3.124 -7.937 11.973 -17.421 13.084 -8.86 1.038 -125.138 0.735 -132.638 0.413 -9.167 -0.393 -19.04 -8.563 -16.492 -12.929Z" stroke-width="1"></path><path id="vector_24" fill="#f9f5e5" d="M144.961 134.941s5.437 -1.24 7.669 2.9c0 0 2.533 -0.452 2.738 1.191 0.205 1.643 -3.978 15.348 -6.875 16.216 -2.897 0.868 -15.356 0.547 -16.165 0 -0.809 -0.547 -0.462 -2.538 0.491 -2.641 0 0 -0.715 -3.986 2.46 -5.854 3.175 -1.868 7.42 -1 8.095 -1.075 0.675 -0.075 2.976 -3.928 2.818 -5.2 -0.158 -1.272 -1.905 -3.731 -1.231 -5.537Z" stroke-width="1"></path><path id="vector_25" fill="#f9f5e5" d="M26.51 151.914s-0.992 -5.487 3.174 -6.6c4.166 -1.113 7.223 0.438 10.873 -1.15 0 0 -1.755 -2.809 -1.19 -4.326 0.754 -2.024 6.1 -2.309 7.738 0 0.873 1.23 -2.222 4.868 -2.222 4.868s2.619 4.18 10.238 1.64c0 0 1.9 2.994 0 5.564 0 0 1.706 0.519 0.635 3.454 -0.046 0.126 -28.595 0.074 -29.314 -0.288 -0.719 -0.362 -0.742 -2.939 0.068 -3.162Z" stroke-width="1"></path><path id="vector_26" fill="#f9f5e5" d="M115.16 151.937s-1.786 -0.966 -2.619 1.753c0 0 -3.958 -0.317 -3.988 1.023 -0.03 1.34 3.482 1.042 3.482 1.042s-0.239 5.956 1.339 5.893c0.973 -0.04 1.168 -1.459 1.168 -1.459s0.365 1.578 1.258 1.563c0.893 -0.015 1.324 -1.25 1.324 -1.25s1.027 2.44 2.8 0.163c0 0 2.039 2.213 2.314 -2.589 0.275 -4.802 -0.79 -6.71 -1.924 -5.8 0 0 -0.762 -1.794 -2.563 -0.343 -0.002 0.004 -0.939 -1.418 -2.591 0.004Z" stroke-width="1"></path><path id="vector_27" fill="#ffb949" d="M45.339 24.987h-0.764v-2.565a0.486 0.486 0 1 0 -0.972 0v2.565h-1a0.486 0.486 0 0 0 0 0.972h1v2.564a0.486 0.486 0 0 0 0.972 0v-2.564h0.764a0.486 0.486 0 0 0 0 -0.972Z" stroke-width="1"></path><path id="vector_28" fill="#ffb949" d="M68.117 19.833h-0.507v-1.617a0.486 0.486 0 1 0 -0.971 0v1.617h-0.725a0.486 0.486 0 1 0 0 0.972h0.725v1.617a0.486 0.486 0 1 0 0.971 0v-1.617h0.507a0.486 0.486 0 0 0 0 -0.972Z" stroke-width="1"></path><path id="vector_29" fill="#ffb949" d="M71.41 51.788h-0.585V49.8a0.486 0.486 0 0 0 -0.972 0v1.985h-0.586a0.486 0.486 0 1 0 0 0.972h0.586v1.448a0.486 0.486 0 1 0 0.972 0V52.76h0.585a0.486 0.486 0 0 0 0 -0.972Z" stroke-width="1"></path><path id="vector_30" fill="#f9f5e5" d="M49.783 38.216s0.239 -4.227 0.318 -5.11c0.079 -0.883 0.2 -3.263 2.936 -3.3 2.736 -0.037 7.957 0.119 9.266 0.278 1.309 0.159 2.619 0.972 2.619 3.274s-0.337 8.206 -0.337 8.206 1.824 1.582 1.27 2.536a1.231 1.231 0 0 1 -1.349 0.547s-0.139 8.076 -0.179 8.691c-0.04 0.615 -0.694 3.214 -3.333 3.095 -2.639 -0.119 -8.6 -0.3 -9.291 -0.357a2.823 2.823 0 0 1 -2.574 -2.758c-0.04 -2.083 0 -3.056 0 -3.056s-2.834 -1.234 -1.947 -3.988a2.35 2.35 0 0 1 -0.172 -2.774s-1.175 -1.078 0.055 -2.846c0 0.004 -0.297 -2.141 2.718 -2.438Z" stroke-width="1"></path><path id="vector_31" fill="#501200" d="m65.136 41.586 0.251 -8.532a3.413 3.413 0 0 0 -3.314 -3.514l-9.006 -0.256a3.432 3.432 0 0 0 -3.411 3.252L49.4 37.89c-1.139 0.173 -2.933 0.663 -2.858 2.872a2.21 2.21 0 0 0 0.015 2.814 2.464 2.464 0 0 0 0.153 2.749 3.418 3.418 0 0 0 2.09 4.241l-0.117 2.49a3.409 3.409 0 0 0 3.293 3.572l9.4 0.321a3.416 3.416 0 0 0 3.408 -3.314l0.25 -8.617c0.4 0.007 0.787 -0.14 1.083 -0.409 0.668 -0.601 0.083 -2.38 -0.981 -3.023Zm-14.45 -9a2.394 2.394 0 0 1 2.381 -2.269l8.976 0.256a2.384 2.384 0 0 1 2.316 2.452l-0.229 7.846a2.277 2.277 0 0 0 -0.73 -0.221l0.112 -3.99a2.1 2.1 0 0 0 -2.025 -2.152l-8.014 -0.256a2.105 2.105 0 0 0 -2.157 2.007l-0.065 1.551c-0.147 -0.009 -0.7 -0.009 -0.812 -0.006l0.247 -5.218Zm11.672 10.56 -0.212 7.554a1.12 1.12 0 0 1 -1.162 1.089l-8.2 -0.306a1.123 1.123 0 0 1 -1.08 -1.168l0.127 -3.038a1.26 1.26 0 0 0 0.214 -1.939 1.413 1.413 0 0 0 0.392 -2.584c0.954 -0.418 1.875 -1.416 0.559 -2.425 0.562 -0.3 1.405 -1.729 -0.777 -2.411l0.068 -1.621a1.123 1.123 0 0 1 1.121 -1.075l8.047 0.256a1.128 1.128 0 0 1 1.086 1.154l-0.118 4.229a1.628 1.628 0 0 0 -0.065 2.285Zm-14.966 2.443a1.484 1.484 0 0 1 0.156 -1.737c1.352 -1.142 4.7 -1.023 4.756 0.177 0 0 0 0.576 -1.236 0.6a5.034 5.034 0 0 0 -3.676 0.96Zm5.416 -4.2c0 0.557 -1.242 0.671 -1.59 0.783a9.663 9.663 0 0 0 -3.973 0.706 1.101 1.101 0 0 1 0.124 -1.595c2.684 -1.089 5.391 -0.557 5.439 0.106Zm-2.417 -2.613c2.368 -0.05 2.443 0.388 2.464 0.429 -0.018 0.074 -0.1 0.588 -1.687 0.565a35.98 35.98 0 0 0 -3.646 0.424c0.032 -0.162 0.208 -1.363 2.869 -1.418Zm-2.722 7.808c2.037 -1.939 3.831 -0.7 3.758 -0.306 0 0.787 -1.818 0.779 -2.051 0.818a0.482 0.482 0 0 0 -0.4 0.456l-0.094 1.942 -0.027 -0.017c-0.492 -0.315 -2.132 -1.236 -1.186 -2.893ZM63.756 53.6a2.383 2.383 0 0 1 -2.463 2.313L52.01 55.6a2.38 2.38 0 0 1 -2.3 -2.492l0.244 -5.13c0.3 -0.058 0.595 -0.134 0.886 -0.227l-0.106 2.525a2.093 2.093 0 0 0 2.016 2.178l8.279 0.306a2.09 2.09 0 0 0 2.089 -2.033l0.183 -6.484c0.217 0.193 0.457 0.359 0.715 0.494l-0.26 8.863Zm1.695 -9.7c-0.788 0.88 -3.121 -1.474 -2.587 -2.166 0.608 -0.784 3.351 1.316 2.587 2.166Z" stroke-width="1"></path><path id="vector_32" fill="#ffb949" d="M60.636 32.1a0.486 0.486 0 0 1 -0.078 -0.966c0.781 -0.207 14.275 -5.131 23.205 -8.409a0.486 0.486 0 1 1 0.334 0.912C61.04 32.1 60.747 32.1 60.636 32.1Z" stroke-width="1"></path><path id="vector_33" fill="#ffb949" d="M62.342 33.106a0.486 0.486 0 0 1 -0.041 -0.969l19.286 -1.667a0.486 0.486 0 0 1 0.083 0.968l-19.328 1.668Z" stroke-width="1"></path><path id="vector_34" fill="#ffb949" d="M80.993 45.884c-0.207 0 -0.032 0.052 -20.157 -11.753a0.486 0.486 0 0 1 0.492 -0.838L81.239 44.98a0.486 0.486 0 0 1 -0.246 0.904Z" stroke-width="1"></path><path id="vector_35" fill="#501200" d="M57.848 32.938c0.4 0 0.725 -0.257 0.725 -0.575 0 -0.318 -0.325 -0.575 -0.725 -0.575 -0.4 0 -0.725 0.257 -0.725 0.575 0 0.318 0.325 0.575 0.725 0.575Z" stroke-width="1"></path><path id="vector_36" fill="#501200" d="M57.033 53.632a0.59 0.59 0 1 0 0.725 0.576 0.663 0.663 0 0 0 -0.725 -0.576Z" stroke-width="1"></path><path id="vector_37" fill="#501200" d="m141.111 77.854 -1.9 -1.191a21.19 21.19 0 0 0 1.776 -1.321 0.515 0.515 0 1 0 -0.773 -0.681c-3.052 3.466 -7.585 4.155 -11.628 5.373a12.84 12.84 0 0 0 -2.723 -2.3 0.514 0.514 0 1 0 -0.526 0.886 11.96 11.96 0 0 1 2.166 1.766c-0.213 0.074 -0.427 0.147 -0.634 0.226a13.95 13.95 0 0 0 -7.62 7.215 0.513 0.513 0 0 0 0.287 0.67 0.517 0.517 0 0 0 0.67 -0.288 13.143 13.143 0 0 1 7.032 -6.635c0.321 -0.123 0.654 -0.238 0.993 -0.348 5.239 6.814 -7 10.439 -4.67 20.48a0.513 0.513 0 0 0 0.917 0.133 0.515 0.515 0 0 0 0.083 -0.366c-2.186 -9.408 9.991 -13.085 4.711 -20.567 0.534 -0.157 9.458 -1.148 11.839 -3.052Z" stroke-width="1"></path><path id="vector_38" fill="#fccac2" d="M124.892 53.818c0.867 -0.13 1.493 -0.738 1.4 -1.355 -0.094 -0.618 -0.872 -1.012 -1.738 -0.881 -0.867 0.131 -1.494 0.738 -1.4 1.356 0.093 0.617 0.872 1.011 1.738 0.88Z" stroke-width="1"></path><path id="vector_39" fill="#fccac2" d="M113.283 52.1c0.125 -0.67 -0.408 -1.333 -1.19 -1.478 -0.783 -0.145 -1.518 0.28 -1.643 0.952 -0.125 0.67 0.408 1.333 1.191 1.478 0.782 0.146 1.518 -0.28 1.642 -0.952Z" stroke-width="1"></path><path id="vector_40" fill="#501200" d="M137.676 32.9c-1.5 -1.58 -3.957 -2.28 -6.613 -2.759 -7.321 -1.322 -8.655 -4.75 -15.082 -4.762 -7.2 -0.014 -11.084 7.834 -6.082 12.713 -3.211 -1.155 -3.442 -4.742 -3.451 -4.922a0.513 0.513 0 0 0 -0.539 -0.49 0.517 0.517 0 0 0 -0.49 0.539c0 0.057 0.326 5.543 5.633 6.2 -0.042 1.419 -0.63 9.1 -0.813 11.406 -0.3 3.75 -1.107 9.381 2.052 12.857a9.152 9.152 0 0 0 4.828 2.656l-0.341 5.431c-0.916 -1.467 -1.593 -2.468 -1.608 -2.491a0.516 0.516 0 0 0 -0.853 0.578 79.315 79.315 0 0 1 5.492 9.506 0.522 0.522 0 0 0 0.407 0.3 0.512 0.512 0 0 0 0.467 -0.192 30.332 30.332 0 0 1 9.457 -7.591 0.524 0.524 0 0 0 0.266 -0.291 0.517 0.517 0 0 0 -0.703 -0.642c-0.933 0.442 -1.835 0.947 -2.7 1.509v-7.094a12.352 12.352 0 0 0 2.252 -2.34c6.818 1.348 8.371 -3.4 8.737 -5.262 0.734 -3.749 -0.04 -8.9 1.343 -12.41 2.455 -6.255 0.454 -10.222 -1.659 -12.449Zm0.7 12.071c-1.483 3.768 -0.667 8.876 -1.4 12.589 -0.61 3.111 -3.185 5.125 -7.086 4.528a15.065 15.065 0 0 0 2.18 -6.072 0.678 0.678 0 0 1 0.469 -0.557c1.631 -0.526 2.533 -1.435 2.541 -2.558 0.01 -1.46 -0.993 -2.45 -2.823 -2.79a0.674 0.674 0 0 1 -0.557 -0.727c0.121 -1.2 0.368 -2.382 0.735 -3.53a0.515 0.515 0 1 0 -0.979 -0.319 18.408 18.408 0 0 0 -0.781 3.744 1.698 1.698 0 0 0 1.394 1.845c1.321 0.245 1.987 0.84 1.981 1.77 -0.006 0.868 -1.147 1.365 -1.827 1.584a1.691 1.691 0 0 0 -1.173 1.4c-0.547 5.145 -4.846 8.79 -4.856 8.8a0.52 0.52 0 0 0 -0.226 0.426v8.05A33.359 33.359 0 0 0 120.4 78.2c-0.788 -1.638 -1.781 -3.39 -2.69 -4.9l0.326 -5.187c1.348 -0.217 3.9 -1.219 4.064 -1.887 0.066 -0.273 -0.236 -0.5 -0.515 -0.5 -3.079 0 -6.4 -0.379 -8.535 -2.728 -2.844 -3.129 -2.092 -8.482 -1.792 -12.044 0.073 -0.864 0.764 -9.739 0.815 -11.331a12.859 12.859 0 0 0 7.64 0.781c1.904 -0.31 3.764 -0.85 5.538 -1.61a0.518 0.518 0 0 0 0.255 -0.682 0.516 0.516 0 0 0 -0.683 -0.255c-0.092 0.042 -9.266 4.15 -14.1 -0.384 -4.482 -4.2 -1.1 -11.053 5.239 -11.053 5.535 0 6.716 2.855 14.869 4.736 2.582 0.595 4.811 1.109 6.1 2.464 3.452 3.63 2.689 8.18 1.44 11.352l0.005 -0.001Z" stroke-width="1"></path><path id="vector_41" fill="#501200" d="M172.863 146.714c-4.205 -3.38 -9.226 6.705 -19.369 8.253 -0.65 0.1 -2.08 0.185 -4.155 0.253 3.4 -2.358 6.533 -14.837 6.5 -16.187 -0.044 -1.4 -1.641 -1.985 -2.878 -1.719 -2.622 -3.944 -7.387 -2.923 -7.511 -2.9 -0.43 -0.323 -0.882 -0.615 -1.354 -0.874a69.45 69.45 0 0 1 -12.111 14.015c0.571 -0.015 1.145 -0.03 1.728 -0.05a5.978 5.978 0 0 0 -1.274 4.579c-1.322 0.433 -1.113 2.852 -0.574 3.4 -2.8 0.017 -5.792 0.029 -8.933 0.038 -0.426 -4.571 -2.157 -3.962 -2.481 -3.965a1.625 1.625 0 0 0 -1.18 -0.727 1.61 1.61 0 0 0 -1.31 0.454c-1.368 -1.384 -2.451 -0.133 -2.81 0.17 -0.312 -0.153 -2.049 -0.641 -2.767 1.554 -0.95 0.036 -4.323 0.148 -4.423 1.79a0.928 0.928 0 0 0 0.441 0.733 8905.734 8905.734 0 0 1 -52.078 -0.227c0.385 -0.612 0.568 -2.872 -0.271 -3.638 0.6 -1.754 0.56 -3.663 -0.112 -5.391 2.381 -1.981 14.413 -11.879 22.686 -16.461 0.571 -12.041 11.829 -17.854 23.618 -20.311a67.347 67.347 0 0 1 11.39 -1.377 0.49 0.49 0 0 1 0.471 0.48 0.489 0.489 0 0 1 -0.459 0.491c-0.2 0 -20.128 0.389 -29.381 9.971a16.393 16.393 0 0 0 -4.686 12.153c0 0.055 -1.2 14.89 37.519 16.1a162.747 162.747 0 0 0 9.871 -17.338 53.212 53.212 0 0 1 -22.568 -8.243 0.486 0.486 0 0 1 0.571 -0.786 52.103 52.103 0 0 0 22.453 8.105c1.693 -3.448 1.628 -3.461 1.787 -3.726a44.343 44.343 0 0 0 3.161 -28.692c-0.19 -0.488 -1.031 -0.5 -0.966 0.365 0.5 6.643 0.643 15.215 -3.985 22.419 -6.028 -13.468 -17.427 -16.591 -19.963 -17.13 5.086 -13.871 0.757 -20.317 0.568 -20.587a0.517 0.517 0 0 0 -0.718 -0.127c-0.232 0.162 -0.146 0.434 -0.126 0.718 0.213 3.112 0.4 5.684 -1.76 9.414a18.846 18.846 0 0 0 3.258 -0.734 40.281 40.281 0 0 1 -2.2 10.983c-4.968 0.286 -41.874 3.485 -62.232 36.106 -0.1 0 -3.342 -0.726 -4.938 0.93 -1.257 1.3 0.229 4.068 0.73 4.912a7.016 7.016 0 0 1 -2.431 0.542l-0.692 -1.807a0.514 0.514 0 0 0 -0.963 0.368l0.571 1.486c-0.2 0 -0.448 0.009 -1.465 0l-0.571 -1.5a0.516 0.516 0 0 0 -0.963 0.365l0.43 1.13s-2.554 0.032 -3.858 0.188c-3.682 0.448 -4.327 4.518 -4.147 6.914 -0.777 1.124 -0.2 3.346 -0.144 3.429 -7.752 -0.265 -10.952 -3.7 -13.082 -5.984 -0.371 -0.4 -4.945 -5.068 -7.182 -1.613a4.06 4.06 0 0 0 0.3 4.494c4.632 7.132 13.379 9.071 16.616 9.209 1.637 0.071 8.106 0.139 17.244 0.189v5.244a8.19 8.19 0 0 0 -4.81 9.153 8.188 8.188 0 1 0 11.31 -9.123c0.014 -0.11 0.009 -2.06 0.009 -5.239 11.113 0.05 56.8 0.068 65.964 0.033a1.366 1.366 0 0 0 2.34 0.058 1.575 1.575 0 0 0 2.64 0c1.307 1.513 2.9 -0.1 2.9 -0.1a1.135 1.135 0 0 0 1.448 -0.009c3.87 -0.023 7.687 -0.05 11.292 -0.085v5.309a8.187 8.187 0 0 0 -4.806 9.148 8.186 8.186 0 0 0 16.028 0.074 8.184 8.184 0 0 0 -4.722 -9.192v-5.412c7.987 -0.106 14.08 -0.257 15.878 -0.466 9.467 -1.113 22.294 -10.313 17.687 -13.999Zm-132.8 -7c1.567 -1.789 6.219 -0.546 6.531 0.307 0.312 0.853 -0.868 2.837 -2.069 4.152l-3.414 -0.447c-0.02 -0.058 -2.011 -2.926 -1.053 -4.017l0.005 0.005Zm-5.709 5.813 0.488 1.289a0.516 0.516 0 0 0 0.963 -0.365l-0.345 -0.915c0.5 0.006 0.989 0.006 1.46 -0.012l0.344 0.9a0.516 0.516 0 0 0 0.963 -0.371l-0.227 -0.589a7.093 7.093 0 0 0 2.746 -0.747c3.065 0.4 3.906 0.518 3.967 0.518 0.106 0.176 2.79 4.515 10.328 1.589 0 0.1 1.031 2.559 -0.009 4.6 -2.519 0.127 -21.008 1.021 -28.045 0.05 -0.35 -6.348 3.447 -5.974 7.362 -5.952l0.005 0.005Zm-7.767 6.925c0.11 0 6.03 1.158 28.763 -0.014 0.515 0.331 0.3 1.98 0.12 2.3 -1.845 0.147 -27.044 -0.029 -28.748 -0.206a2.202 2.202 0 0 1 -0.14 -2.085l0.005 0.005Zm23.495 21.638a7.156 7.156 0 1 1 -7.155 -7.155 7.166 7.166 0 0 1 7.15 7.15l0.005 0.005Zm-9.347 -7.89v-4.865h4.447v4.886a8.193 8.193 0 0 0 -4.447 -0.021Zm-18.229 -6.1c-5.336 -0.226 -13.121 -3.846 -15.755 -8.673 -0.518 -0.948 -1.2 -2.469 -0.315 -3.482 1.939 -2.226 5.174 1.41 5.536 1.8 2.287 2.454 5.742 6.162 14.251 6.321 5.221 0.1 50.244 0.507 85.4 0.512a14.66 14.66 0 0 0 0.194 3.782c-7.09 0.022 -87.781 -0.196 -89.311 -0.26Zm89.314 -5.029c-1.366 0.1 -2.661 -0.071 -2.831 -0.389a7.474 7.474 0 0 1 3.046 -0.618c-0.062 0.236 -0.2 0.905 -0.215 1.003v0.004Zm2.251 5.28c-0.5 1.39 -0.965 0.75 -1.2 0 -0.136 -0.523 -0.717 -6.561 1.209 -8.008a0.51 0.51 0 0 1 0.462 -0.023 70.38 70.38 0 0 0 -0.471 8.027v0.004Zm2.608 -0.012c-0.329 0.916 -1.063 1.451 -1.574 0.006a24.828 24.828 0 0 1 0.5 -7.9c0.304 -0.348 0.728 -0.57 1.188 -0.62a0.81 0.81 0 0 1 0.53 0.283 53.073 53.073 0 0 0 -0.644 8.227v0.004Zm2.655 -0.015c-0.5 0.915 -1.079 1.288 -1.625 0.009 -0.112 -2.695 0.1 -5.394 0.633 -8.038 0.47 -0.416 0.923 -0.506 1.336 -0.044a66.088 66.088 0 0 0 -0.344 8.069v0.004Zm15.91 -12.864a6.656 6.656 0 0 1 3.205 -1.422l1.672 2.9a0.552 0.552 0 0 0 0.7 0.189 0.502 0.502 0 0 0 0.24 -0.311 0.515 0.515 0 0 0 -0.051 -0.389l-1.451 -2.513c0.385 -0.021 0.771 -0.021 1.156 0l1.225 2.189a0.575 0.575 0 0 0 0.7 0.2 0.516 0.516 0 0 0 0.2 -0.7l-0.871 -1.566c0.306 0.048 0.627 0.106 0.96 0.18 1.913 0.424 4 -4.95 3.837 -6.1 -0.144 -1.042 -1.433 -2.107 -1.3 -4.674 0.064 0.012 4.435 -0.942 6.677 2.537 -0.644 1.7 -2.777 11.97 -5.185 13.712 -2.06 1.5 -10.095 0.836 -13.492 0.4a4.773 4.773 0 0 1 1.778 -4.636v0.004Zm-2.334 5.589c0.1 0 11.627 1.662 14.654 -0.533 2.792 -2.023 4.934 -12.611 5.545 -14.18a1.4 1.4 0 0 1 1.695 0.73c0.038 1.395 -3.326 13.833 -6.2 15.407 -2.31 1.269 -15.086 0.683 -15.975 0.318 -0.386 -0.108 -0.505 -1.731 0.281 -1.746v0.004Zm-11.033 3.517a18.266 18.266 0 0 1 -0.626 3.743c-0.255 0.842 -0.637 0.437 -0.772 0.009a29.02 29.02 0 0 1 0.188 -7.693c1.323 -0.004 1.233 3.554 1.21 3.937v0.004Zm21.293 17.523a7.149 7.149 0 0 1 -4.417 6.607 7.154 7.154 0 0 1 -6.711 -12.556 7.149 7.149 0 0 1 9.029 0.891 7.162 7.162 0 0 1 2.099 5.054v0.004Zm-9.341 -7.888v-4.956l4.447 -0.05v5.027a8.202 8.202 0 0 0 -4.447 -0.022v0.001Zm21.231 -6.51c-1.619 0.192 -28.925 0.592 -32.824 0.618 0.417 -1.206 0.644 -2.47 0.674 -3.746 16.066 -0.044 28.339 -0.206 30.74 -0.574 9.994 -1.524 15.381 -11.023 18.569 -8.467 3.227 2.589 -7.997 11.092 -17.159 12.165v0.004Z" stroke-width="1"></path></g></g></svg>