<svg xmlns="http://www.w3.org/2000/svg" fill="none" viewBox="0 0 200 200" id="Designer-Creative--Streamline-Manchester.svg"><desc>Designer Creative Streamline Illustration: https://streamlinehq.com</desc><g id="Designer-Creative--Streamline-Manchester.svg"><g id="laptop"><path id="vector" fill="#ff7449" d="m169.521 144.875 -57.268 -30.239 -6.197 -61.599a6.73 6.73 0 0 0 -7.691 -5.749c-18.291 2.78 -87.353 12.544 -87.657 12.544a6.754 6.754 0 0 0 -5.6 7.84c3.361 19.537 12.096 74.217 12.096 74.217l0.075 5.301 43.157 40.991 109.385 -38.229 -0.299 -5.077h-0.001Z" stroke-width="1"></path><path id="vector_2" fill="#f9f5e5" d="M136.668 133.899c-1.568 -0.821 -24.653 -12.892 -26.058 -13.664 -0.528 -0.29 -1.12 -0.374 -1.717 -0.149 -1.344 0.374 -73.185 21.682 -75.039 22.25 -0.972 0.298 -1.203 1.411 -0.523 2.09 1.419 1.27 19.413 17.397 20.682 18.442 0.522 0.448 1.19 0.586 1.792 0.374 1.558 -0.552 78.984 -26.699 80.713 -27.178 0.873 -0.242 1.164 -1.658 0.149 -2.166l0.001 0.001Z" stroke-width="1"></path><path id="vector_3" fill="#f9f5e5" d="M125.469 155.03a1461.658 1461.658 0 0 1 -8.736 -5.301 2.233 2.233 0 0 0 -1.941 -0.224c-20.736 7.062 -20.284 6.51 -20.757 7.243a1.216 1.216 0 0 0 0.373 1.717 1398.18 1398.18 0 0 1 8.885 5.675c0.452 0.292 1.044 0.37 1.643 0.149 3.279 -1.211 15.146 -5.484 20.309 -7.243 0.966 -0.329 0.987 -1.558 0.224 -2.016Z" stroke-width="1"></path><path id="vector_4" fill="#f9f5e5" d="M102.621 56.472a6.732 6.732 0 0 0 -7.691 -5.749c-14.485 2.19 -79.071 11.35 -79.295 11.35a6.756 6.756 0 0 0 -5.6 7.84c3.142 18.341 10.976 67.347 10.976 67.347l87.284 -24.64c-0.1 0 -5.675 -55.74 -5.675 -56.148h0.001Z" stroke-width="1"></path><path id="vector_5" fill="#501200" d="m169.755 144.434 -57.194 -30.314a0.5 0.5 0 1 0 -0.468 0.884l56.155 29.764 -107.094 37.616 -43.596 -41.071a0.5 0.5 0 0 0 -0.707 0.707l43.615 41.09 -0.306 4.893a0.5 0.5 0 0 0 0.999 0.062l0.295 -4.726 108.068 -37.961c0.519 0 0.693 -0.699 0.234 -0.942l-0.001 -0.002Z" stroke-width="1"></path><path id="vector_6" fill="#501200" d="M130.724 130.465a0.501 0.501 0 0 0 -0.626 -0.328l-9.328 2.949 -9.547 -5.556 7.379 -2.338a0.5 0.5 0 1 0 -0.304 -0.953l-8.223 2.62 -8.094 -4.813a0.5 0.5 0 0 0 -0.511 0.859l7.326 4.356 -9.845 3.089 -7.322 -5.002a0.5 0.5 0 0 0 -0.564 0.826l6.671 4.558 -10.481 3.288 -6.801 -5.293a0.5 0.5 0 0 0 -0.613 0.789l6.259 4.872 -10.995 3.507 -6.883 -5.724a0.5 0.5 0 0 0 -0.639 0.769l6.389 5.313 -10.868 3.431 -6.666 -5.918a0.5 0.5 0 1 0 -0.665 0.747l6.22 5.522 -11.877 3.75 -6.967 -6.209a0.499 0.499 0 1 0 -0.667 0.745l6.527 5.813 -9.405 2.969a0.5 0.5 0 0 0 0.3 0.954l9.99 -3.135 7.081 6.307 -9.679 3.042c-0.629 0.196 -0.338 1.149 0.298 0.955l10.27 -3.205 7.222 6.441a0.5 0.5 0 0 0 0.707 -0.707l-6.825 -6.083 11.887 -3.77 6.872 6.1a0.501 0.501 0 0 0 0.663 -0.749l-6.424 -5.703 11.371 -3.605c7.936 6.527 7.314 6.077 7.565 6.077 0.441 0 0.67 -0.537 0.354 -0.854l-6.791 -5.581 11.391 -3.612c7.916 6.016 7.349 5.641 7.59 5.641a0.5 0.5 0 0 0 0.303 -0.898l-6.727 -5.113 11.481 -3.641c8.154 5.471 7.637 5.172 7.86 5.172 0.492 0 0.688 -0.639 0.28 -0.915l-6.918 -4.642 10.903 -3.421c9.022 5.251 8.31 4.871 8.503 4.871 0.51 0 0.691 -0.676 0.253 -0.932l-7.464 -4.344 8.481 -2.661a0.5 0.5 0 0 0 0.328 -0.626l-0.005 -0.001Zm-72.646 22.416 -7.08 -6.31 11.864 -3.764 7.13 6.33 -11.913 3.744h-0.001Zm13.025 -4.094 -7.132 -6.332 10.897 -3.458 7.565 6.208 -11.33 3.582Zm4.901 -10.149 11.05 -3.506 7.87 6.125 -11.362 3.592 -7.558 -6.211Zm20.077 2.253 -7.867 -6.123 10.592 -3.306 8.679 5.823 -11.405 3.605 0.001 0.001Zm12.625 -3.991 -8.679 -5.823 9.908 -3.139 9.546 5.556 -10.774 3.406h-0.001Z" stroke-width="1"></path></g><g id="screen"><path id="vector_7" fill="#f9f5e5" d="m96.05 65.207 -24.49 3.136 4.48 24.416 23.893 -4.107 -3.883 -23.445Z" stroke-width="1"></path><path id="vector_8" fill="#f9f5e5" d="M69.843 83.575c-1.867 3.66 -4.567 5.843 -8.512 3.36 -0.824 -0.519 -1.568 -1.195 -2.165 -1.867 -1.195 -1.344 -3.061 -4.779 -5.077 -4.779 -1.419 0 -2.547 1.563 -3.211 2.613a41.317 41.317 0 0 0 -4.181 8.736l-0.373 0.075 1.419 6.048 24.266 -4.629 -1.867 -9.632 -0.299 0.075Z" stroke-width="1"></path><path id="vector_9" fill="#f9f5e5" d="M63.198 80.365c3.959 -0.66 3.06 -7.249 -0.821 -6.571 -3.809 0.666 -3.283 7.255 0.821 6.571Z" stroke-width="1"></path><path id="vector_10" fill="#ffb949" d="M90.376 82.231c0.149 -0.373 -6.421 -4.779 -8.587 -6.347 0 0 -2.24 10.826 -1.867 10.901 0.373 0.149 10.304 -4.256 10.453 -4.555l0.001 0.001Z" stroke-width="1"></path><path id="vector_11" fill="#ffb949" d="m52.52 100.076 4.182 21.429 32.852 -8.213 -2.911 -19.264 -34.123 6.048Z" stroke-width="1"></path><path id="vector_12" fill="#ff7449" d="m101.501 91.639 -11.723 2.09 3.136 18.294 10.454 -1.718 -1.867 -18.666Z" stroke-width="1"></path><path id="vector_13" fill="#ff7449" d="m41.918 72.823 4.405 18.89 0.373 -0.075c1.045 -3.061 2.395 -6.093 4.181 -8.736 0.719 -1.064 1.792 -2.613 3.211 -2.613 2.091 0 3.878 3.438 5.077 4.779a10.23 10.23 0 0 0 2.165 1.867c3.962 2.531 6.645 0.373 8.512 -3.36l0.299 -0.075 -2.613 -14.261 -25.61 3.584Zm21.28 7.541c-4.03 0.685 -4.63 -5.905 -0.821 -6.571 3.881 -0.678 4.706 5.911 0.821 6.571Z" stroke-width="1"></path><path id="vector_14" fill="#ff7449" d="m25.118 116.204 3.211 13.44 25.834 -6.123 -2.837 -13.365 -26.208 6.048Z" stroke-width="1"></path><path id="vector_15" fill="#501200" d="M47.741 98.187a0.5 0.5 0 0 1 -0.487 -0.39l-5.823 -24.858a0.5 0.5 0 0 1 0.417 -0.611l25.685 -3.584a0.498 0.498 0 0 1 0.561 0.405l4.405 23.891a0.5 0.5 0 0 1 -0.399 0.583l-24.359 4.563v0.001Zm-5.21 -24.944 5.593 23.864 23.302 -4.374 -4.228 -22.932 -24.666 3.442h-0.001Z" stroke-width="1"></path><path id="vector_16" fill="#501200" d="M75.965 93.259a0.499 0.499 0 0 1 -0.491 -0.411l-4.405 -24.416a0.5 0.5 0 0 1 0.428 -0.585l24.49 -3.136a0.498 0.498 0 0 1 0.557 0.416l3.808 23.445a0.5 0.5 0 0 1 -0.409 0.573l-23.978 4.114Zm-3.819 -24.486 4.224 23.41 22.916 -3.939 -3.651 -22.479 -23.489 3.008Z" stroke-width="1"></path><path id="vector_17" fill="#501200" d="m45.546 109.02 -6.571 -35.914a0.498 0.498 0 0 0 -0.56 -0.405l-21.13 2.912a0.5 0.5 0 0 0 -0.422 0.592l7.392 37.407a0.5 0.5 0 0 0 0.49 0.403l20.415 -4.417a0.5 0.5 0 0 0 0.386 -0.579v0.001Z" stroke-width="1"></path></g><g id="card 4"><path id="vector_18" fill="#501200" d="M121.245 78.284c-2.906 -9.983 -15.835 -55.125 -18.666 -65.106 -0.342 -1.198 -1.599 -2.132 -3.157 -1.688l-19.861 5.675c-1.417 0.404 -2.054 1.876 -1.688 3.156 1.418 5.002 17.248 60.105 18.664 65.1 0.379 1.424 1.827 2.152 3.168 1.769 4.342 -1.241 15.166 -4.44 19.773 -5.746 1.363 -0.366 2.145 -1.737 1.766 -3.16h0.001Z" stroke-width="1"></path><path id="vector_19" fill="#ff7449" d="M114.791 67.597c0.299 1.12 -0.299 2.24 -1.419 2.539l-13.664 3.883a2.255 2.255 0 0 1 -1.568 -0.15c-0.448 -0.298 -0.82 -0.671 -0.971 -1.194 -0.886 -3.064 -2.585 -8.872 -3.435 -11.872a2.026 2.026 0 0 1 1.419 -2.54c3.37 -0.935 10.294 -2.946 13.664 -3.882 1.117 -0.31 2.24 0.299 2.539 1.419l3.435 11.797Z" stroke-width="1"></path><path id="vector_20" fill="#fccac2" d="M109.117 48.482c0.299 1.12 -0.302 2.228 -1.419 2.539 -3.37 0.936 -10.294 2.947 -13.664 3.883 -1.117 0.31 -2.226 -0.302 -2.539 -1.42 -0.859 -3.071 -2.585 -8.871 -3.435 -11.871a2.026 2.026 0 0 1 1.419 -2.54c3.37 -0.935 10.294 -2.946 13.664 -3.882 1.117 -0.31 2.24 0.299 2.539 1.419l3.435 11.872Z" stroke-width="1"></path><path id="vector_21" fill="#f9f5e5" d="M103.368 29.293c0.29 1.048 -0.299 2.24 -1.344 2.539 0 0 -10.22 2.941 -13.664 3.957 -1.03 0.304 -2.211 -0.213 -2.539 -1.344 -0.886 -3.064 -2.558 -8.879 -3.435 -11.872 -0.343 -1.172 0.403 -2.268 1.344 -2.539 3.361 -0.966 10.302 -2.992 13.664 -3.957 1.186 -0.341 2.265 0.408 2.539 1.344 0.876 2.992 2.589 8.817 3.435 11.872Z" stroke-width="1"></path></g><g id="card 3"><path id="vector_22" fill="#f9f5e5" d="M119.869 93.73c-0.46 1.04 -1.716 1.49 -2.688 1.045 -4.252 -1.951 -14.463 -6.694 -18.741 -8.587 -1.04 -0.46 -1.493 -1.717 -0.971 -2.688 4.331 -9.483 24.005 -52.066 28.224 -61.6 0.473 -1.068 1.683 -1.414 2.688 -0.97 4.278 1.892 14.463 6.694 18.741 8.587 0.915 0.405 1.495 1.508 0.971 2.688 -4.206 9.464 -24.005 51.992 -28.224 61.524Z" stroke-width="1"></path><path id="vector_23" fill="#f9f5e5" d="M122.333 81.634c-0.462 1.039 -1.717 1.493 -2.688 0.971 -3.211 -1.493 -9.699 -4.498 -12.917 -5.899 -1.062 -0.462 -1.418 -1.682 -0.971 -2.688 1.304 -2.93 3.848 -8.344 5.152 -11.274 0.462 -1.039 1.717 -1.493 2.688 -0.971 3.211 1.493 9.699 4.498 12.917 5.899 1.043 0.454 1.493 1.717 0.971 2.688 0 0 -3.848 8.344 -5.152 11.274Z" stroke-width="1"></path><path id="vector_24" fill="#fccac2" d="M130.546 63.415c-0.451 1.044 -1.717 1.493 -2.688 0.971 -3.211 -1.493 -9.699 -4.498 -12.917 -5.899a1.977 1.977 0 0 1 -0.971 -2.688c1.417 -2.802 3.848 -8.344 5.152 -11.274 0.462 -1.039 1.717 -1.493 2.688 -0.971 3.211 1.493 9.699 4.498 12.917 5.899 1.043 0.454 1.493 1.717 0.971 2.688 -1.344 2.912 -3.892 8.359 -5.152 11.274Z" stroke-width="1"></path><path id="vector_25" fill="#ff7449" d="M138.684 45.122a2.039 2.039 0 0 1 -2.688 1.045s-9.699 -4.498 -12.917 -5.899c-0.905 -0.394 -1.499 -1.501 -0.971 -2.688 1.304 -2.93 3.848 -8.344 5.152 -11.274 0.406 -0.914 1.507 -1.498 2.688 -0.971 3.233 1.444 9.699 4.498 12.917 5.899 0.902 0.392 1.495 1.49 0.971 2.688 -1.247 2.847 -3.861 8.338 -5.152 11.2Z" stroke-width="1"></path><path id="vector_26" fill="#501200" d="M116.909 95.16s-16.038 -7.38 -18.758 -8.669c-1.216 -0.561 -1.764 -2.059 -1.216 -3.337l28.228 -61.61c0.664 -1.329 2.107 -1.751 3.34 -1.222 2.15 0.98 16.635 7.626 18.751 8.591 1.331 0.664 1.75 2.108 1.223 3.34l-28.229 61.61c-0.543 1.267 -2.021 1.862 -3.34 1.297h0.001Zm0.4 -0.916c0.746 0.331 1.676 0.028 2.025 -0.786l28.228 -61.61c0.314 -0.734 0.109 -1.609 -0.74 -2.033 -2.1 -0.958 -16.585 -7.603 -18.725 -8.579 -0.747 -0.32 -1.613 -0.101 -2.033 0.739L97.848 83.558c-0.332 0.774 -0.008 1.688 0.725 2.026 2.719 1.288 17.211 7.982 18.735 8.659l0.001 0.001Z" stroke-width="1"></path><path id="vector_27" fill="#501200" d="M119.448 83.064s-9.607 -4.359 -12.931 -5.905c-1.335 -0.667 -1.742 -2.119 -1.219 -3.338 0.677 -1.468 4.485 -9.831 5.158 -11.287 0.563 -1.221 2.061 -1.769 3.339 -1.221 3.21 1.418 9.613 4.361 12.931 5.905 1.219 0.563 1.767 2.061 1.219 3.338 -0.676 1.466 -4.484 9.828 -5.158 11.287 -0.559 1.211 -2.051 1.772 -3.339 1.221Zm0.396 -0.918c0.782 0.34 1.697 0.012 2.035 -0.722 0.673 -1.458 4.481 -9.82 5.152 -11.274 0.331 -0.772 0.008 -1.686 -0.726 -2.024 -3.316 -1.542 -9.711 -4.482 -12.91 -5.895 -0.78 -0.335 -1.694 -0.011 -2.032 0.723 -0.672 1.455 -4.48 9.818 -5.152 11.274 -0.318 0.743 -0.102 1.61 0.74 2.031 3.306 1.538 9.693 4.497 12.893 5.887Z" stroke-width="1"></path></g><g id="card 2"><path id="vector_28" fill="#501200" d="M155.932 38.552c-3.825 -2.588 -16.949 -11.722 -16.949 -11.722 -0.896 -0.597 -2.184 -0.387 -2.837 0.523 -6.076 8.462 -32.402 47.296 -38.527 55.775 -0.656 0.908 -0.369 2.234 0.523 2.837 3.825 2.588 13.197 9.03 16.949 11.722 0.91 0.653 2.234 0.369 2.837 -0.523 5.839 -8.627 32.554 -47.189 38.527 -55.775 0.557 -0.928 0.388 -2.221 -0.523 -2.837Z" stroke-width="1"></path><path id="vector_29" fill="#f9f5e5" d="M122.482 85.666c-0.656 0.984 -2.13 1.054 -2.912 0.523 -2.93 -1.99 -8.781 -6.09 -11.648 -8.064a1.872 1.872 0 0 1 -0.821 -1.344c-0.07 -0.523 -0.003 -1.122 0.299 -1.568 1.775 -2.625 5.19 -7.642 7.019 -10.154 0.659 -0.906 1.929 -1.178 2.837 -0.523 2.873 2.071 8.837 6.012 11.648 8.064 0.905 0.66 1.195 1.941 0.523 2.837l-6.944 10.23h-0.001Z" stroke-width="1"></path><path id="vector_30" fill="#ff7449" d="M133.682 69.165c-0.672 0.896 -1.929 1.178 -2.837 0.523 -2.873 -2.071 -8.837 -6.012 -11.648 -8.064 -0.905 -0.66 -1.175 -1.927 -0.523 -2.837 1.847 -2.575 5.19 -7.642 7.019 -10.154 0.659 -0.906 1.929 -1.178 2.837 -0.523 2.873 2.071 8.837 6.012 11.648 8.064 0.905 0.66 1.195 1.941 0.523 2.837l-7.019 10.154Z" stroke-width="1"></path><path id="vector_31" fill="#ffb949" d="M144.882 52.589a2.03 2.03 0 0 1 -2.837 0.523s-8.781 -6.09 -11.648 -8.064c-0.986 -0.68 -1.057 -2.17 -0.523 -2.837 1.792 -2.613 5.244 -7.604 7.019 -10.23a1.992 1.992 0 0 1 1.344 -0.82c1.37 -0.196 0.728 -0.122 13.216 8.363 0.904 0.614 1.105 1.98 0.523 2.837 -1.841 2.706 -5.318 7.604 -7.093 10.229l-0.001 -0.001Z" stroke-width="1"></path></g><g id="card 1"><path id="vector_32" fill="#f9f5e5" d="M115.314 100.226a2.028 2.028 0 0 1 -2.912 0c-3.285 -3.285 -11.349 -11.274 -14.634 -14.56a2.031 2.031 0 0 1 0 -2.912l47.786 -48.01c0.819 -0.823 2.091 -0.821 2.837 0 0 0 11.349 11.274 14.634 14.56a1.987 1.987 0 0 1 0 2.837l-47.711 48.085Z" stroke-width="1"></path><path id="vector_33" fill="#fccac2" d="M121.81 89.698a2.03 2.03 0 0 1 -2.912 0c-2.464 -2.464 -7.56 -7.522 -10.08 -10.005a1.987 1.987 0 0 1 0 -2.837c2.24 -2.24 6.477 -6.514 8.736 -8.811 0.815 -0.828 2.091 -0.821 2.912 0 2.464 2.464 7.56 7.522 10.08 10.005 0.827 0.815 0.821 2.09 0 2.912l-8.736 8.736Z" stroke-width="1"></path><path id="vector_34" fill="#ffb949" d="M135.772 75.437a2.03 2.03 0 0 1 -2.912 0c-2.464 -2.464 -7.56 -7.522 -10.08 -10.005 -0.827 -0.815 -0.821 -2.091 0 -2.912 2.24 -2.24 6.477 -6.514 8.736 -8.811 0.815 -0.828 2.091 -0.821 2.912 0 2.464 2.464 7.56 7.522 10.08 10.005 0.827 0.815 0.821 2.091 0 2.912l-8.736 8.811Z" stroke-width="1"></path><path id="vector_35" fill="#ff7449" d="M149.735 61.1c-0.821 0.822 -2.091 0.822 -2.837 0 0 0 -7.56 -7.521 -10.08 -10.004a1.987 1.987 0 0 1 0 -2.837c2.24 -2.24 6.496 -6.571 8.736 -8.811a1.987 1.987 0 0 1 2.837 0c2.464 2.464 7.56 7.522 10.08 10.005 0.764 0.752 0.824 2 0 2.837a1978.588 1978.588 0 0 1 -8.736 8.81Z" stroke-width="1"></path><path id="vector_36" fill="#501200" d="M112.049 100.579S99.09 87.695 97.489 86.094a2.528 2.528 0 0 1 0 -3.62c3.652 -3.69 44.121 -44.307 47.784 -48.007 0.891 -0.981 2.493 -1.055 3.546 -0.002 1.647 1.647 12.996 12.922 14.634 14.56 0.99 0.99 0.99 2.555 0 3.544 -7.282 7.282 -40.45 40.6 -47.784 48.008a2.534 2.534 0 0 1 -3.621 0.002h0.001Zm33.949 -65.424c-3.678 3.716 -44.147 44.334 -47.801 48.025 -0.63 0.63 -0.63 1.578 -0.002 2.207 1.6 1.6 14.56 14.485 14.56 14.485 0.606 0.606 1.6 0.605 2.205 0 7.333 -7.407 40.503 -40.727 47.786 -48.01a1.489 1.489 0 0 0 0 -2.13c-1.638 -1.638 -12.987 -12.912 -14.634 -14.56 -0.637 -0.637 -1.575 -0.61 -2.114 -0.017Z" stroke-width="1"></path></g><g id="ipad"><path id="vector_37" fill="#ffb949" d="m192.219 98.434 -53.087 -9.26c-1.867 -0.298 -3.584 0.897 -3.957 2.764a61.938 61.938 0 0 0 -0.448 2.613l51.594 12.17c1.867 0.448 2.984 2.239 2.539 4.107 -1.125 4.724 -15.085 63.54 -14.933 63.54 1.867 0.373 3.509 0.602 4.853 0.821 1.866 0.305 3.605 -0.892 3.957 -2.763 2.384 -12.667 10.08 -57.418 12.245 -70.111 0.191 -2.095 -1.167 -3.592 -2.763 -3.883v0.002Z" stroke-width="1"></path><path id="vector_38" fill="#f9f5e5" d="M186.321 106.721c-11.271 -2.745 -50.952 -11.907 -52.415 -12.394 -1.898 -0.474 -3.807 0.89 -4.107 2.539 -2.987 12.544 -13.334 56.771 -16.352 69.289 -0.467 1.935 0.909 3.81 2.539 4.107 10.378 2.464 42.051 9.869 52.415 12.394 1.927 0.47 3.81 -0.906 4.107 -2.539 0.373 -1.493 16.352 -69.289 16.352 -69.289 0.373 -1.792 -0.744 -3.67 -2.539 -4.107Z" stroke-width="1"></path><path id="vector_39" fill="#fccac2" d="M180.945 111.5c1.493 0.299 2.491 1.798 2.165 3.285 -0.345 1.575 -0.747 3.061 -1.045 4.555l-0.224 -0.075c-9.333 -5.227 -19.331 5.092 -24.789 11.274 -3.221 3.649 -7.902 8.697 -12.693 9.557l-0.448 0.224c-2.794 -6.053 -5.76 -10.161 -13.141 -12.693 -0.574 -0.197 -1.897 -0.523 -2.165 -0.523 -0.104 0 0.066 0.032 -1.045 -0.224 1.867 -7.989 3.922 -15.876 5.824 -23.893 0.355 -1.498 1.812 -2.363 3.435 -2.016 14.826 3.167 29.493 6.795 44.127 10.528l-0.001 0.001Z" stroke-width="1"></path><path id="vector_40" fill="#ff7449" d="m181.841 119.34 0.224 0.075c-2.912 12.245 -8.587 36.81 -8.587 36.81 -4.48 2.912 -10.005 7.019 -15.978 5.152 -8.588 -2.684 -10.557 -13.89 -13.664 -20.906l0.448 -0.224c2.912 -0.523 6.135 -2.899 8.213 -4.853 5.706 -5.366 17.832 -22.407 29.343 -16.053l0.001 -0.001Z" stroke-width="1"></path><path id="vector_41" fill="#501200" d="M169.132 183.257c-0.694 0 -0.337 0.024 -53.336 -12.509 -1.83 -0.332 -3.473 -2.455 -2.908 -4.715 2.917 -12.565 13.444 -57.079 16.35 -69.284 0.508 -1.863 2.484 -3.464 4.714 -2.908l52.409 12.393c2.143 0.514 3.42 2.583 2.909 4.71 -1.077 4.525 -16.021 67.967 -16.353 69.294 -0.288 1.594 -1.946 3.018 -3.787 3.018l0.002 0.001ZM133.03 94.721c-1.287 0 -2.495 1.073 -2.823 2.276 -2.902 12.188 -13.428 56.699 -16.347 69.271 -0.421 1.684 0.826 3.263 2.141 3.502l52.441 12.4c1.662 0.414 3.256 -0.805 3.499 -2.142 0.337 -1.352 15.279 -64.789 16.357 -69.316 0.38 -1.583 -0.572 -3.124 -2.169 -3.505 -53.059 -12.642 -52.62 -12.486 -53.099 -12.486Z" stroke-width="1"></path><path id="vector_42" fill="#501200" d="M140.924 174.047c-1.607 0 -2.964 -1.357 -2.964 -2.964s1.357 -2.964 2.964 -2.964 2.964 1.357 2.964 2.964 -1.357 2.964 -2.964 2.964Zm0 -4.928c-1.065 0 -1.964 0.899 -1.964 1.964s0.899 1.964 1.964 1.964 1.964 -0.899 1.964 -1.964 -0.899 -1.964 -1.964 -1.964Z" stroke-width="1"></path><path id="vector_43" fill="#501200" d="M181.068 111.09c-13.254 -3.381 -27.693 -6.802 -44.153 -10.459 -1.974 -0.396 -3.534 0.637 -4.017 2.383 -2.097 7.567 -10.755 44.812 -13.072 55.352 -0.356 1.783 0.791 3.521 2.532 3.868 11.724 2.991 43.328 10.54 44.948 10.54 1.634 0 2.809 -0.983 3.221 -2.462 2.978 -10.688 5.03 -20.66 7.499 -31.366 1.47 -6.373 5.331 -22.774 5.573 -23.988 0.36 -1.798 -0.834 -3.53 -2.532 -3.868h0.001Zm1.552 3.671 -9.575 41.198c-4.769 3.127 -9.796 6.666 -15.329 4.937 -9.133 -2.684 -10.553 -16.252 -14.784 -23.502 -1.959 -3.604 -4.814 -6.539 -8.246 -8.478 -2.119 -1.271 -4.455 -1.834 -6.511 -2.321 1.885 -8.052 3.645 -15.941 5.688 -23.313 0.283 -1.022 1.084 -1.733 2.248 -1.733 1.578 0 33.821 8.035 44.737 10.517a2.299 2.299 0 0 1 1.773 2.697l-0.001 -0.002Z" stroke-width="1"></path></g><g id="spark"><path id="vector_44" fill="#ffb949" d="M49.74 27.994a0.5 0.5 0 0 0 -0.685 -0.176c-0.656 0.388 -2.06 1.125 -3.46 1.859 -1.501 -2.656 -3.011 -5.445 -3.177 -5.989 -0.006 -0.522 -0.714 -0.685 -0.947 -0.218 -0.222 0.444 1.58 3.789 3.228 6.677 -3.396 1.781 -3.39 1.807 -3.282 2.246 0.1 0.406 0.655 0.535 0.909 0.176 0.361 -0.232 1.645 -0.911 2.871 -1.555 1.1 1.906 2.021 3.431 2.045 3.469a0.5 0.5 0 0 0 0.851 -0.525 125.423 125.423 0 0 1 -2.003 -3.412c1.402 -0.734 2.802 -1.471 3.475 -1.869a0.5 0.5 0 0 0 0.176 -0.685l-0.001 0.002Z" stroke-width="1"></path><path id="vector_45" fill="#ffb949" d="M67.866 33.797c-1.66 0.119 -3.158 0.223 -4.444 0.31 -0.266 -1.57 -0.988 -5.671 -0.954 -6.271 0.2 -0.503 -0.435 -0.921 -0.818 -0.539 -0.391 0.391 -0.151 1.447 0.769 6.877 -1.757 0.117 -3.005 0.153 -3.561 0.218 -0.87 0.1 -1.31 0.969 0.082 0.969 0.621 0 1.708 -0.06 3.645 -0.19 0.262 1.591 0.491 3.097 0.562 4.016a0.5 0.5 0 1 0 0.997 -0.077c-0.073 -0.945 -0.293 -2.407 -0.557 -4.008l4.35 -0.308c0.654 -0.048 0.596 -1.038 -0.071 -0.998v0.001Z" stroke-width="1"></path></g></g></svg>