<svg xmlns="http://www.w3.org/2000/svg" fill="none" viewBox="0 0 200 200" id="Jogging--Streamline-Manchester.svg"><desc>Jogging Streamline Illustration: https://streamlinehq.com</desc><g id="Jogging--Streamline-Manchester.svg"><g id="person"><path id="vector" fill="#f9f5e5" d="M152.365 32.615c-0.187 -0.563 -4.343 0.545 -4.956 -1.074 -1.408 -3.721 -0.616 -3.453 -3.095 -9.289 -0.826 1.983 -2.542 4.874 -4.091 5.737 -1.424 0.793 -1.983 -1.239 -2.148 -2.313 0 -0.165 -0.165 -1.4 -0.5 -1.239 -0.533 0.266 -0.324 0.971 -2.4 3.634 -1.788 2.275 -5.642 3.906 -8.518 4.195a4.742 4.742 0 0 0 -2.3 -1.386c-3.32 -0.829 -4.565 5.183 -1.074 8.673 0.661 0.579 2.148 1.653 1.982 4.874 -0.124 2.73 -1.7 6.248 -2.95 8.689a25.26 25.26 0 0 1 10.985 5.265c0.712 -1.345 3.3 -9.243 4.855 -9.659 3.433 -0.527 7.378 0.168 9.252 -2.147 2.148 -2.809 1.074 -6.609 1.817 -9.748 0.544 -2.027 3.314 -3.694 3.141 -4.212Z" stroke-width="1"></path><path id="vector_2" fill="#f9f5e5" d="M180.12 56.57a1.77 1.77 0 0 0 -1.321 -0.331 2.47 2.47 0 0 0 -0.5 -1.073c-0.312 -0.4 -1.6 -0.849 -2.138 -0.146a2.424 2.424 0 0 0 -2.157 -1.589l-0.5 0.082a2.034 2.034 0 0 0 -1.157 -1.651 2.792 2.792 0 0 0 -2.725 0.743 16.59 16.59 0 0 0 -1.074 1.487 6.85 6.85 0 0 0 -4.957 1.817c-2.689 2.905 -1.778 8.593 1.9 10.739 0.288 0.168 0.591 0.308 0.906 0.419 -2.808 6.441 -7.02 13.872 -14.205 16.184 -5.864 1.955 -11.349 -2.633 -11.453 -2.633 -0.527 5.965 -1.734 9.333 -3.627 15.014 3.719 1.213 9.842 4.044 16.567 0.753 9 -4.378 15.943 -16.273 18.586 -25.69 2.885 -0.744 6.046 -4.25 6.422 -10.091a3.096 3.096 0 0 0 2 -2.465 2.47 2.47 0 0 0 -0.567 -1.569Z" stroke-width="1"></path><path id="vector_3" fill="#f9f5e5" d="M174.5 120.588c-3.552 -3.965 -9.417 -5.535 -14.538 -6.195a30.673 30.673 0 0 0 -9.913 -0.083l-0.165 -0.083c-1.567 4.528 -1.388 1.512 -4.708 12.721l0.165 0.083c0 -0.248 1.239 -0.413 1.322 -0.413 6.989 -1.47 15.2 0.832 17.925 7.434a18.23 18.23 0 0 1 1.239 7.848c-0.731 10.219 -3.045 16.147 -7.022 29.985l0.166 0.248a66.478 66.478 0 0 1 9.416 -3.8 5.73 5.73 0 0 1 1.735 -0.165v-0.331a108.35 108.35 0 0 0 7.435 -27.011c0.898 -6.867 1.697 -15.164 -3.057 -20.238Z" stroke-width="1"></path><path id="vector_4" fill="#f9f5e5" d="M117.589 53.348c-5.743 -1.075 -14.285 -0.1 -21.642 3.305C84.052 61.773 75.461 74.5 81.987 87.3c3.366 6.2 6.707 7.8 9.555 10.486A11.114 11.114 0 0 0 95 104.474c0.04 1.618 1.433 6.2 3.174 6.2 2.937 -0.2 4.85 -0.318 6.481 -2.176 0.476 -0.53 0.804 -1.175 0.954 -1.871 1.075 0.179 2.711 -1.258 2.854 -3.084 0.215 -2.716 -2.426 -5.935 -4.754 -7.242a19.525 19.525 0 0 0 -3.718 -1.57c-5.477 -4.887 -9.02 -9.667 -8.26 -17.263 1.322 -8.508 9.5 -11.648 17.512 -11.813h1.57a4.164 4.164 0 0 0 2.147 2.892 5.278 5.278 0 0 0 5.7 -0.083 10.407 10.407 0 0 0 4.626 -8.674c-0.698 -4.903 -3.04 -5.91 -5.697 -6.442Z" stroke-width="1"></path><path id="vector_5" fill="#f9f5e5" d="M95.286 140.33a31.065 31.065 0 0 1 -14.7 2.644c-10.675 -1.282 -21.011 -8.161 -27.59 -16.521 -0.958 2.942 -3.226 9.216 -4.444 10.975 6.094 7.5 15.419 14.527 20.3 16.862 11.47 5.484 23.805 5.7 34.941 -0.743a67.2 67.2 0 0 0 6.913 -4.766 83.372 83.372 0 0 0 -15.42 -8.451Z" stroke-width="1"></path><path id="vector_6" fill="#ffb949" d="M67.507 138.672a19.166 19.166 0 0 0 -5.963 11.046 63.516 63.516 0 0 0 2.847 2.013 21.211 21.211 0 0 1 5.691 -11.749 43.03 43.03 0 0 1 -2.575 -1.31Z" stroke-width="1"></path><path id="vector_7" fill="#fccac2" d="M139.975 33.441a2.135 2.135 0 0 0 -1.989 1.323 2.137 2.137 0 0 0 -0.159 0.825 2.168 2.168 0 0 0 2.065 2.147 2.128 2.128 0 0 0 1.989 -1.323c0.107 -0.261 0.161 -0.541 0.159 -0.824a2.17 2.17 0 0 0 -2.065 -2.148Z" stroke-width="1"></path><path id="vector_8" fill="#fccac2" d="M126.263 54.174c-3.059 -1.059 -5.507 -1.575 -8.674 -0.908 7.776 1.555 6.918 11.111 0.991 15.034 -3.556 2.353 -7.847 -0.6 -7.847 -2.809h-1.569c-0.418 1.1 -5.24 5.912 -8.509 29.407a17.46 17.46 0 0 1 2.891 1.322c3.359 1.949 7.517 7.847 2.4 10.408l-0.5 -0.083a3.876 3.876 0 0 1 -2.395 2.891l0.082 0.661a290.05 290.05 0 0 1 29.738 -1.321v-0.5c4.015 -14.055 12.484 -26.574 5.121 -43.2a20.029 20.029 0 0 0 -11.729 -10.902Z" stroke-width="1"></path><path id="vector_9" fill="#ff7449" d="M147.905 17.25c-5.948 -4.791 -15.778 -5.865 -22.716 -2.478 -6.113 2.974 -11.069 9.087 -10.408 16.191 0.056 0.946 0.194 1.886 0.413 2.808 0.991 3.469 3.386 8.756 9.829 10.573h0.166a4.97 4.97 0 0 0 -1.983 -4.873C119.688 35.953 121 29.9 124.28 30.8c0.854 0.23 1.629 0.688 2.244 1.324 2.873 -0.324 6.819 -1.9 8.577 -4.133a21.552 21.552 0 0 0 1.652 -2.478c0.165 -0.331 0.413 -0.991 0.744 -1.157 0.331 -0.166 0.495 1.074 0.495 1.239 0.165 1.074 0.744 3.14 2.148 2.313 1.569 -0.908 3.31 -3.631 4.136 -5.614A41.104 41.104 0 0 1 146.5 28.9l0.331 -0.083c4.46 -2.317 4.378 -8.841 1.074 -11.567Z" stroke-width="1"></path><path id="vector_10" fill="#ffb949" d="M165.665 145.286c-0.256 2.043 -0.24 1.192 -0.579 3.222 1.936 0.399 3.908 0.597 5.885 0.59a46.437 46.437 0 0 0 5.349 -0.838c0.248 -0.991 0.413 -2.065 0.661 -3.056 -0.1 -0.004 -10.181 1.117 -11.316 0.082Z" stroke-width="1"></path><path id="vector_11" fill="#ffb949" d="M95.2 89.777c-0.473 0.236 -2.556 -0.258 -5.782 3.056a7.217 7.217 0 0 0 -1.4 1.983 31.2 31.2 0 0 0 3.965 3.056c0.1 0.1 -0.2 -0.284 2.148 -1.57 3.063 -1.676 5.372 -1.078 5.864 -1.734a23.98 23.98 0 0 1 -4.795 -4.791Z" stroke-width="1"></path><path id="vector_12" fill="#501200" d="M152.735 32.347c-0.263 -0.525 -1.086 -0.446 -1.577 -0.4 -2.968 0.262 -3.266 -0.341 -3.365 -0.639 -0.911 -2.273 -1.277 -5.156 -2.989 -9.037 0.111 -0.256 0.205 -0.518 0.28 -0.787a0.41 0.41 0 0 0 -0.306 -0.478 0.412 0.412 0 0 0 -0.494 0.278c-0.484 1.948 -3.725 6.9 -4.859 6.361a3.009 3.009 0 0 1 -0.935 -2.048c0 -0.012 -0.06 -1.273 -0.564 -1.585a0.534 0.534 0 0 0 -0.529 -0.023c-0.716 0.357 -0.508 1.141 -2.536 3.749a12.007 12.007 0 0 1 -8.154 3.992 4.743 4.743 0 0 0 -2.333 -1.331c-2.018 -0.5 -3.453 1.246 -3.643 3.426a7.481 7.481 0 0 0 2.328 6.066c0.7 0.6 1.865 1.6 1.719 4.439a21.59 21.59 0 0 1 -2.519 7.767 0.416 0.416 0 0 0 0.189 0.553 0.415 0.415 0 0 0 0.553 -0.19c1.635 -3.347 2.51 -6.07 2.6 -8.09a5.648 5.648 0 0 0 -0.361 -2.872 5.649 5.649 0 0 0 -1.739 -2.315c-3.283 -3.283 -2.078 -8.67 0.673 -7.983 1.742 0.435 2.494 1.52 3.223 3.17a0.414 0.414 0 0 0 0.756 -0.334 9.85 9.85 0 0 0 -0.821 -1.531 12.856 12.856 0 0 0 8.181 -4.259 16.859 16.859 0 0 0 2.048 -3.261c0.055 0.222 0.091 0.447 0.109 0.675 0.281 1.828 1.216 3.517 2.756 2.611 1.465 -0.813 3.011 -3.2 3.913 -4.991 1.488 3.608 1.8 6.115 2.681 8.313 0.55 1.647 3.148 1.172 4.832 1.144 -0.449 0.526 -2.576 2.232 -3.025 3.917 -0.765 3.229 0.312 6.9 -1.742 9.59 -1.28 1.657 -3.612 1.642 -5.589 1.74a11.515 11.515 0 0 0 -3.474 0.271c-1.243 0.444 -3.247 5.184 -4.709 9.083a0.411 0.411 0 0 0 0.242 0.532 0.414 0.414 0 0 0 0.532 -0.242c2.109 -5.625 3.662 -8.4 4.166 -8.582a13.816 13.816 0 0 1 3.551 -0.25c2 -0.078 4.488 -0.175 5.936 -2.049 1.454 -1.9 1.513 -4.192 1.571 -6.407 0.1 -3.822 0.3 -4.112 2.028 -5.913 0.562 -0.585 0.407 -0.446 0.609 -0.629 0.495 -0.453 0.937 -0.89 0.787 -1.451Z" stroke-width="1"></path><path id="vector_13" fill="#501200" d="M144.678 31.142c-0.38 -2.268 -0.3 -2.123 -0.451 -2.429a0.415 0.415 0 0 0 -0.554 -0.186 0.415 0.415 0 0 0 -0.186 0.554c0.018 0.035 0.04 0.09 0.04 0.064 0.003 0.118 0.021 0.235 0.053 0.348 0.029 0.116 0.113 0.767 0.283 1.786a0.414 0.414 0 0 0 0.815 -0.137Z" stroke-width="1"></path><path id="vector_14" fill="#501200" d="M148.12 41.622a6.8 6.8 0 0 1 -4.1 -2.647 0.416 0.416 0 0 1 0.081 -0.58 0.412 0.412 0 0 1 0.58 0.08 6.586 6.586 0 0 0 2.724 2.1c0.746 0.373 0.954 0.166 1.032 0.088a0.413 0.413 0 0 1 0.584 0.584 1.235 1.235 0 0 1 -0.901 0.375Z" stroke-width="1"></path><path id="vector_15" fill="#501200" d="M125.449 37.011a3.328 3.328 0 0 0 -1.849 -2.292 0.41 0.41 0 0 1 -0.185 -0.554 0.413 0.413 0 0 1 0.554 -0.185 4.167 4.167 0 0 1 2.281 2.83 0.416 0.416 0 0 1 -0.302 0.493 0.412 0.412 0 0 1 -0.499 -0.292Z" stroke-width="1"></path><path id="vector_16" fill="#501200" d="M113.712 52.522c-23.19 -0.3 -40.926 17.635 -32.088 34.973 2.491 4.59 5.323 7.27 9.532 10.361l0 0.06a10.674 10.674 0 0 0 3.472 6.766c0.09 1.901 0.715 3.737 1.8 5.3 0.911 1.176 1.9 1.243 2.73 0.706 0.111 0.724 2.054 -0.151 2.678 -0.666a3.975 3.975 0 0 0 4.043 -2.792c2.314 -1.024 2.887 -2.593 2.955 -3.742 0.169 -2.833 -2.468 -6.125 -5 -7.543a12.335 12.335 0 0 0 -3.661 -1.529 33.37 33.37 0 0 1 -5.941 -6.747 16.306 16.306 0 0 1 -2.18 -10.14c1.313 -8.458 9.678 -11.462 18.261 -11.462a5.774 5.774 0 0 0 3.618 3.326 5.768 5.768 0 0 0 4.868 -0.669 10.671 10.671 0 0 0 4.812 -9.039c-0.111 -4.823 -3.476 -7.163 -9.899 -7.163Zm4.639 15.516a4.933 4.933 0 0 1 -7.124 -1.964c2 0.032 3.991 0.276 5.939 0.728a0.414 0.414 0 0 0 0.186 -0.805 30.946 30.946 0 0 0 -8.2 -0.754C97.7 65.363 89.4 71.775 91.409 82.41a16.855 16.855 0 0 0 3.467 7.619 38.672 38.672 0 0 0 4.807 5.047c0.25 0.147 0.522 0.249 0.807 0.3 4.483 1.132 7.687 5.3 7.524 8.062a3.317 3.317 0 0 1 -1.865 2.733c0.145 -0.95 0 -1.922 -0.416 -2.788a0.41 0.41 0 0 0 -0.554 -0.185 0.41 0.41 0 0 0 -0.185 0.554c0.432 0.938 0.497 2.004 0.18 2.987a0.435 0.435 0 0 0 -0.039 0.122 3.252 3.252 0 0 1 -0.939 1.512 3.249 3.249 0 0 1 -1.596 0.788 5.17 5.17 0 0 0 0.534 -3.364c0 -1.241 -0.881 -0.982 -0.822 0.058a6.263 6.263 0 0 1 0 1.708 3.296 3.296 0 0 1 -2.562 2.531 6.485 6.485 0 0 0 0.652 -2.325 0.412 0.412 0 0 0 -0.64 -0.402 0.412 0.412 0 0 0 -0.173 0.258l-0.059 0.343c-0.445 2.626 -1.577 2.624 -2.444 1.506a10.226 10.226 0 0 1 -1.608 -4.171c0.115 0.07 0.235 0.136 0.368 0.2a0.413 0.413 0 0 0 0.369 -0.738c-1.777 -0.888 -3.835 -3.6 -4.221 -6.833a0.413 0.413 0 0 0 -0.1 -0.565c-4.172 -3.059 -7.013 -5.608 -9.541 -10.263 -6.233 -12.225 1.61 -24.842 13.767 -30.077a40.83 40.83 0 0 1 17.587 -3.679c5.982 0 8.978 2.024 9.086 6.361a9.842 9.842 0 0 1 -4.442 8.329Z" stroke-width="1"></path><path id="vector_17" fill="#501200" d="M180.412 56.278a1.42 1.42 0 0 0 -1.286 -0.423 1.947 1.947 0 0 0 -1.883 -1.507 1.94 1.94 0 0 0 -0.839 0.187 2.484 2.484 0 0 0 -2.4 -1.517 0.46 0.46 0 0 0 -0.09 0.01 2.495 2.495 0 0 0 -1.38 -1.567 3.213 3.213 0 0 0 -3.118 0.852 6.622 6.622 0 0 0 -1.016 1.36 7.264 7.264 0 0 0 -5.113 1.96c-2.608 2.936 -2.249 8.65 1.97 11.353 0.173 0.145 0.37 0.258 0.582 0.335 -2.51 5.67 -6.639 13.215 -13.765 15.535 -2.531 0.786 -6.736 0.545 -10.949 -2.488a0.413 0.413 0 0 0 -0.482 0.67c4.18 3.01 8.659 3.543 11.681 2.606 7.628 -2.484 11.841 -10.588 14.459 -16.418a0.41 0.41 0 0 0 -0.014 -0.356 0.423 0.423 0 0 0 -0.286 -0.214 6.412 6.412 0 0 1 -2.957 -2.543 6.906 6.906 0 0 1 0.347 -7.9 6.583 6.583 0 0 1 4.674 -1.7c2.177 0.05 2.951 0.94 3.47 2.466 -0.025 1.039 -3.191 0.718 -4.155 0.367a0.45 0.45 0 0 0 -0.581 0.463c0.033 0.326 0.336 0.406 0.63 0.484 0.452 0.137 0.86 0.392 1.183 0.737a6.066 6.066 0 0 1 1.773 3.24 0.41 0.41 0 0 0 0.482 0.33 0.413 0.413 0 0 0 0.33 -0.481 6.71 6.71 0 0 0 -1.946 -3.622 6.3 6.3 0 0 0 1.617 -0.083 2.574 2.574 0 0 0 2.5 1.249c0.32 1.02 1.356 1.21 2.418 0.946a1.66 1.66 0 0 0 1.829 0.636c0.224 3.147 -2.265 8.158 -5.893 9.128a0.413 0.413 0 0 0 -0.422 0.3c-2.584 9.2 -9.434 21.085 -18.37 25.43 -5.21 2.55 -11.8 1.42 -16.016 -0.832a0.413 0.413 0 0 0 -0.389 0.728c5.595 2.988 12.152 3.1 16.767 0.847 9.084 -4.417 16.047 -16.361 18.732 -25.7 4.072 -1.157 6.754 -6.663 6.4 -10.16 1.717 -0.794 2.94 -2.994 1.506 -4.708Zm-11.064 -2.558c0.7 -1.061 1.609 -1.8 2.9 -1.49a1.63 1.63 0 0 1 0.933 1.342 4.042 4.042 0 0 1 -0.53 2.718 3.685 3.685 0 0 0 -3.303 -2.57Zm2.814 4.4a5.055 5.055 0 0 0 1.884 -4.27c1.167 0.019 1.96 0.88 1.7 2.417 -0.478 2.81 -2.592 3.16 -3.584 1.848v0.005Zm2.77 1.66a0.579 0.579 0 0 1 -0.28 -0.356 4.34 4.34 0 0 0 1.958 -4.011 0.876 0.876 0 0 1 0.795 -0.227c1.716 0.3 1.064 3.49 -0.73 4.407a2.321 2.321 0 0 1 -1.743 0.182v0.005Zm2.707 0.68a0.853 0.853 0 0 1 -0.551 -0.152 4.397 4.397 0 0 0 2.14 -3.628 0.584 0.584 0 0 1 0.575 0.159c1.241 1.484 -0.529 3.607 -2.164 3.616v0.005Z" stroke-width="1"></path><path id="vector_18" fill="#501200" d="M195.4 170.433c-0.268 -2.323 -3.659 -2.234 -5.967 -2.1 -4.483 0.261 -9.155 2.139 -13.512 1.982 -2.356 -0.074 -3.161 -2.114 -5.419 -2.508 5.223 -12.646 7.681 -24.2 8.214 -32.566 0.783 -12.308 -3.129 -19.012 -18.615 -21.259a32.733 32.733 0 0 0 -9.484 -0.183 9.368 9.368 0 0 0 0.262 -2.161c-0.108 -1.61 -2.046 -1.765 -3.536 -2.037 -13.091 -2.389 -38.035 -0.754 -46.258 0.4 -1.957 0.276 -3.364 1.15 -3.807 3.149 -0.082 0.391 -2.023 6.155 -2.218 6.643a53.887 53.887 0 0 1 -6.86 13.747c-0.551 0.663 -1.787 1.807 -1.709 2.791a0.957 0.957 0 0 0 0.375 0.7 14.647 14.647 0 0 0 3.5 1.693c1.148 0.439 0.815 0.3 3.807 1.639 -9.1 3.7 -17.849 2.729 -26.437 -2.043a47.784 47.784 0 0 1 -14.3 -11.875 0.606 0.606 0 0 0 -0.053 -0.539c-0.072 -0.1 -0.026 0.027 -1.634 -1.541 -2.892 -2.821 -7.264 -7.078 -10.465 -6.575 -1.88 0.313 -2.944 2.654 -3.72 4.363a138.798 138.798 0 0 0 -6.928 16.229c-1.387 3.915 -2.83 7.86 -3.164 11.968 -0.091 1.366 -0.244 3.651 1.074 4.687 1.88 1.432 4.182 -1.095 5.686 -2.869 2.871 -3.387 4.751 -8.132 7.9 -11.122 1.923 -1.843 4.185 -0.548 6.346 -2.881 9.873 12.319 24.065 21.193 39.906 20.425a38.078 38.078 0 0 0 20.034 -7.759c1.067 -0.789 1.03 -0.865 2.177 -1.671 1.1 0.921 2.824 2.922 4.226 2.922 1.551 0 3.2 -2.156 4.146 -3.2a32.388 32.388 0 0 0 7.381 -12.351 62.99 62.99 0 0 0 10.99 -1.325c2.134 -0.435 4.869 -0.88 6.26 -2.531 1.117 -1.3 1.386 -3.092 2.089 -5.4a0.423 0.423 0 0 0 0.1 -0.115 4.89 4.89 0 0 1 1.05 -0.218c6.781 -1.428 14.829 0.8 17.457 7.266 1.159 2.852 1.654 6.006 0.882 11.034 -0.907 7.229 -5.26 21.023 -6.9 26.807 -1.037 0.508 -0.993 0.717 -0.951 0.915 0.1 4.489 -0.84 14.652 4.266 14.652a16.794 16.794 0 0 0 4.694 -1.21 139.747 139.747 0 0 0 16.564 -6.375 43.724 43.724 0 0 0 9.917 -5.574c1.054 -0.88 2.819 -2.349 2.634 -4.024ZM49 137.5c1.061 -1.564 3.213 -7.38 4.127 -10.127a47.68 47.68 0 0 0 20.667 14.526 30.214 30.214 0 0 0 -5.194 11.69A58.323 58.323 0 0 1 49 137.5Zm58.922 12.667a37.28 37.28 0 0 1 -19.594 7.6 39.943 39.943 0 0 1 -18.957 -3.806 28.525 28.525 0 0 1 4.542 -10.792c0.3 -0.461 0.459 -0.556 0.723 -1a29.29 29.29 0 0 0 20.556 -1.344c1.976 0.881 4.11 1.9 6.527 3.1a58.967 58.967 0 0 1 8.125 4.724c-0.457 0.331 -1.03 0.851 -1.923 1.513l0.001 0.005Zm57.134 -16.267c-2.764 -6.8 -11.227 -9.3 -18.308 -7.775a4.841 4.841 0 0 0 -0.758 0.1c2.876 -9.607 2.779 -7.185 4.366 -11.538a30.84 30.84 0 0 1 9.632 0.113c4.359 0.633 10.593 1.942 14.379 5.987 4.594 4.9 3.88 12.779 2.994 19.553l-0.016 0.093c-2.875 0.318 -5.376 0.56 -8.294 0.805a22.808 22.808 0 0 0 -2.692 0.009 18.059 18.059 0 0 0 -1.303 -7.347Zm4.586 33.827a3.601 3.601 0 0 0 -1.465 0.3 78.345 78.345 0 0 0 -8.91 3.552c2.931 -10.241 6.421 -20.733 7.046 -29.49a12.915 12.915 0 0 1 2.4 -0.032c0.915 0.037 7.58 -0.673 8.49 -0.774a68.518 68.518 0 0 1 -1.29 6.891 134.386 134.386 0 0 1 -6.271 19.55v0.003Z" stroke-width="1"></path><path id="vector_19" fill="#f9f5e5" d="M119.72 136.365c-4.807 -0.228 -14.187 -1.16 -17.159 -4.949a0.412 0.412 0 0 1 0.65 -0.51c2.752 3.51 12.093 4.423 16.549 4.634 1.825 0.152 3.66 0.154 5.486 0.007a0.413 0.413 0 0 1 0 0.826 32.58 32.58 0 0 1 -5.526 -0.008Z" stroke-width="1"></path></g><g id="dash line"><path id="vector_20" fill="#501200" d="M13.26 71.521a0.413 0.413 0 0 1 -0.016 -0.825L61.4 68.8a0.413 0.413 0 0 1 0.033 0.825L13.26 71.52Z" stroke-width="1"></path><path id="vector_21" fill="#501200" d="M5 86.307a0.413 0.413 0 0 1 -0.011 -0.826l68.065 -1.9a0.408 0.408 0 0 1 0.425 0.4 0.413 0.413 0 0 1 -0.4 0.424L5 86.307Z" stroke-width="1"></path><path id="vector_22" fill="#501200" d="M10.7 100.433a0.413 0.413 0 1 1 -0.016 -0.826l48.241 -1.9a0.413 0.413 0 0 1 0.033 0.825L10.7 100.433Z" stroke-width="1"></path></g></g></svg>