<svg xmlns="http://www.w3.org/2000/svg" viewBox="0 0 200 200" id="Soon---Cubes--Streamline-Manchester.svg"><desc>Soon - Cubes Streamline Illustration: https://streamlinehq.com</desc><g id="Soon---Cubes--Streamline-Manchester.svg"><path d="M172.33 177.59c0.1 -0.19 8.47 -2.28 12 -6.09 0 0 4.66 3.62 5.33 5.42 0 0 -24.07 15.13 -25.31 13.8 -0.67 -0.57 1.99 -4.47 7.98 -13.13Z" fill="#f9f5e5" stroke-width="1"></path><path d="M116.49 185.49s4.38 1.52 14.36 0.09a30.51 30.51 0 0 1 0.19 6.66s-26.75 1.56 -28.04 0.76 13.49 -7.51 13.49 -7.51Z" fill="#f9f5e5" stroke-width="1"></path><path d="M124.77 22.14s2.37 14.84 2.75 17 3.81 10.18 11.42 8.47l0.57 4.09s-22.26 1.62 -22.64 1.62 -13.6 8.27 -14.27 8.94l4.47 26.07s-0.47 -0.67 -1.71 -0.19 -3.71 4.86 1.24 5.16c0 0 0.47 5.14 3.23 5.14 0 0 1.71 1 2.85 -0.19a1.61 1.61 0 0 0 2.19 -0.57s1.71 1.71 2.29 -2.38h6.46l0.38 9.89s20.46 8 41.39 2.48c0 0 -1 -11 -1.33 -13 0 0 17.66 -4.46 14.08 -20.26 -3.93 -17.31 -22.55 -23 -30.26 -22.83l-2 -6a16.48 16.48 0 0 0 4 -11.23s7.57 -0.51 5 -5.33c-1.31 -2.39 -5.71 -0.38 -5.71 -0.38a13 13 0 0 1 -8.28 -9.23c-0.24 -0.22 -8.61 3.88 -16.12 2.73Z" fill="#f9f5e5" stroke-width="1"></path><path d="M133.33 34.13c-0.76 -0.09 -2.57 -1.33 -2.48 -2.09 0 -0.38 2 -1.81 2.1 -1.91a36.19 36.19 0 0 0 -0.29 -4.66c0 -0.19 0.1 -0.47 0.38 -0.47s0.48 0.09 0.48 0.38c0.57 4.75 0.28 5.14 0.09 5.33s-1.71 1.33 -1.9 1.52a4.29 4.29 0 0 0 1.71 1.14c0.51 0.25 0.34 0.76 -0.09 0.76Z" fill="#501200" stroke-width="1"></path><path d="M132.76 37.46a5 5 0 0 1 -1.62 -0.86c-0.19 -0.19 -0.19 -0.47 0 -0.57s0.48 -0.19 0.57 0 1.71 1.81 4.76 -0.09c0.19 -0.1 0.47 -0.1 0.57 0.09s0.09 0.48 -0.1 0.57a4.6 4.6 0 0 1 -4.18 0.86Z" fill="#501200" stroke-width="1"></path><path d="M126.76 25.38a0.33 0.33 0 0 1 -0.28 -0.1 0.36 0.36 0 0 1 0 -0.57c0.09 -0.09 1.52 -1.62 4.37 -0.47a0.45 0.45 0 0 1 0.19 0.57 0.46 0.46 0 0 1 -0.57 0.19c-2.28 -0.95 -3.42 0.19 -3.42 0.19 -0.05 0.19 -0.19 0.19 -0.29 0.19Z" fill="#501200" stroke-width="1"></path><path d="M150.55 31.66c-0.1 0 -0.29 -0.1 -0.29 -0.19a0.36 0.36 0 0 1 0.1 -0.57 10.26 10.26 0 0 1 1.42 -1 0.42 0.42 0 1 1 0.38 0.76 10 10 0 0 0 -1.33 0.95c-0.09 -0.05 -0.19 0.05 -0.28 0.05Z" fill="#501200" stroke-width="1"></path><path d="M137.51 60.86 129 71.42a1.21 1.21 0 0 0 -1.33 -0.28c-0.87 0.45 -0.67 1.42 -0.38 2.38L126 75c-5.2 -3.13 -7.26 -4.41 -8 -4.28 -1.14 0.19 -0.57 1.61 -0.28 2 -2.1 -0.57 -2.29 1.15 -1 2.57L102.6 62.58Z" fill="#ffb949" stroke-width="1"></path><path d="M117.16 95.11c-0.86 -5 -2.1 -3 -2.38 -2.66A11.29 11.29 0 0 0 114 90l6.4 -8c1.76 1.76 8.4 3.47 10.75 3.81a10.43 10.43 0 0 0 -0.38 1.61c0 0.19 0 0.38 0.19 0.48a89.55 89.55 0 0 0 14.59 5.94c1.52 0 -6.21 0.16 -28.39 1.27Z" fill="#ffb949" stroke-width="1"></path><path d="M185.08 171.5c-15.89 -14.55 -20.85 -31.58 -19.5 -52 0.37 -5.7 0.28 -9.7 0.28 -10.94 0 -0.47 -0.57 -8.27 -1.42 -13.89a21.9 21.9 0 0 0 8.56 -4.41c10.92 -9.08 5.29 -24.12 -6.38 -32.92 8.38 -0.38 12.93 -9.13 11.8 -16.55 -1.54 -10.08 -13.06 -12.64 -18.26 -21.6 -3.92 -6.74 -7.71 -12.17 -20.36 -14s-25.31 8.47 -19.22 15.13a8.77 8.77 0 0 0 3.81 2.28c0.38 3.42 1.9 15.5 3.71 19.22 1.52 3.13 3.8 6.47 8.75 6.47a10.4 10.4 0 0 0 1.71 -0.1c0.1 0.67 0.38 2.38 0.57 3.42 -24.59 1.69 -22.09 1.44 -22.64 1.72 -15.28 9.33 -14.13 8.61 -14.27 8.75 0 0.33 0.76 5.09 4.38 25.49 -1.34 -0.57 -3.39 1.53 -3.43 3.33 0 2 2.09 2.67 3.14 2.76 0 0.1 0.29 5.14 3.62 4.95a1.91 1.91 0 0 0 2.75 -0.09 2.18 2.18 0 0 0 2.29 -0.29c1.8 0.76 2.38 -1.24 2.28 -2.28l5.8 -0.29c0 0.67 0.38 8.75 0.38 8.75 -8.46 35.39 -7.89 77.82 -7.8 81.15a37.83 37.83 0 0 0 -3.9 1.62l-1.52 -1.52c-0.19 -0.19 -0.47 -0.19 -0.57 0s-0.19 0.47 0 0.57l1.24 1.23c-0.48 0.19 -0.95 0.48 -1.34 0.67l-1 -1.05c-0.46 -0.46 -1 0.38 -0.57 0.57l0.86 0.86c-0.29 0.1 -6.66 3.43 -6.28 4.38a0.53 0.53 0 0 0 0.29 0.38c1.52 0.47 28.15 -0.48 28.54 -0.67s0.46 -0.28 0.19 -6.66c-1 -22.26 6.65 -46.71 8.75 -52.8 -1.81 -6.56 -3.43 -13.31 -3.81 -14.74 -2.66 -0.67 -7.42 -2.48 -7.61 -2.57a0.46 0.46 0 0 1 -0.19 -0.57 0.45 0.45 0 0 1 0.57 -0.19 64.08 64.08 0 0 0 7.71 2.57 0.3 0.3 0 0 1 0.28 0.28c0 0.1 10 47.57 34.63 59.94l-2.66 3.42 -1.71 -0.86a0.43 0.43 0 0 0 -0.38 0.77l1.52 0.76c-0.29 0.38 -0.57 0.85 -0.86 1.23l-1.43 -0.66a0.45 0.45 0 0 0 -0.57 0.19 0.46 0.46 0 0 0 0.19 0.57l1.24 0.57c-2 2.85 -3.71 5.61 -3.61 6.56 0 0.29 0.19 0.48 0.66 0.57 2.71 0 18.8 -9.68 21.6 -11.41 3.7 -2.3 3.71 -2.57 3.8 -2.76 0.31 -0.55 -1.28 -2.36 -4.61 -5.31Zm-78.86 -78.67c-0.48 0 -2.29 -0.29 -2.29 -1.81 0 -2 2.29 -3.14 2.19 -2.47 -0.27 1.71 -0.57 2.18 0.1 2.66Zm66.3 -3.24c-8 6.57 -18.74 5.61 -26.35 3.62a72.22 72.22 0 0 1 -14.65 -5.81c0.67 -3.32 3.62 -8.27 3.71 -8.56A40.09 40.09 0 0 0 166.91 77a0.47 0.47 0 0 0 0.19 -0.58 0.46 0.46 0 0 0 -0.57 -0.19 34.86 34.86 0 0 1 -3.9 1.72c-0.29 -4.19 -0.76 -7.71 -0.76 -7.8s-0.29 -0.38 -0.48 -0.38 -0.38 0.28 -0.38 0.47c0 0 0.48 3.71 0.76 8a40 40 0 0 1 -8.18 1.9l-5.8 -28.44c21.06 -0.3 39.95 25.37 24.73 37.89ZM124.29 81a36.32 36.32 0 0 1 -4.47 -2c-2.68 -1.68 -1.62 -2.19 -1.52 -2.28a23 23 0 0 0 5.8 2.85c0.19 0 0.38 -0.09 0.38 -0.28a0.42 0.42 0 0 0 -0.28 -0.57 23.49 23.49 0 0 1 -5.81 -3c-2.38 -1.81 -1.81 -3.14 0.48 -1.71a25.36 25.36 0 0 0 6.18 3.52c0.19 0 0.29 -0.1 0.38 -0.29a0.45 0.45 0 0 0 -0.19 -0.57 28.19 28.19 0 0 1 -5.8 -3.42c-0.48 -0.48 -1.33 -1.34 -1.14 -1.72 0.28 -0.57 2.87 1.31 4.47 2.29 4.23 2.59 5.33 3.23 5.9 2.66s0.19 -1.62 -0.29 -2.57c-0.28 -0.86 -0.76 -1.9 -0.28 -2.19 0.66 -0.09 3.33 3.43 5.8 7.71 -0.86 1.52 -2.47 5.42 -2.47 5.42 -1.53 -0.19 -7.32 -1.64 -9.8 -3 -1.71 -1 -1.43 -1.81 -1.43 -1.81a33.46 33.46 0 0 0 4 1.62c0.19 0 0.38 -0.1 0.38 -0.29s-0.1 -0.37 -0.29 -0.37ZM142 79.79l-3.62 -19.21 8.75 -8.47 5.81 28.16a39.52 39.52 0 0 1 -10.94 -0.48Zm-13.14 -38.43c-1.62 -3.42 -3.14 -14.84 -3.52 -18.65 6.47 1.24 15 -2.94 15 -2.94a12.33 12.33 0 0 0 1.14 3 4.64 4.64 0 0 0 -4.28 0.86c-0.43 0.42 0.24 0.9 0.57 0.57a4.23 4.23 0 0 1 4.38 -0.38 12.16 12.16 0 0 0 7.13 5c2.85 -1.71 5.52 -0.48 5.52 1.52 0 3 -5.23 3.23 -5.23 3.23a16.66 16.66 0 0 1 -4 11.23 42.39 42.39 0 0 0 1.81 5.9l-7.42 0.47c-0.1 -0.76 -0.38 -2.66 -0.57 -3.52 0.85 -0.19 1.8 -0.47 2.85 -0.76a0.45 0.45 0 1 0 -0.28 -0.85c-4.68 1.77 -9.68 2.55 -13.1 -4.68Zm-12 12.46 29.4 -2 -8.56 8.28 -33.58 1.81Zm-9.7 40c-0.27 -2.1 0.09 -4.85 0.66 -5.14 0.1 0 0.29 0.1 0.76 0.67a17.4 17.4 0 0 0 0.86 8.56c-0.18 -0.04 -1.76 -0.05 -2.27 -4.13ZM110.4 98a17.07 17.07 0 0 1 -1 -8.94c0.29 -0.47 0.57 -0.85 0.76 -0.85 0 0 0.76 0.19 1.14 4.18a19.08 19.08 0 0 0 0.76 5.61c-0.14 0.06 -0.99 0.82 -1.66 0Zm2.57 -0.19a15.7 15.7 0 0 1 -0.76 -5.42 6.68 6.68 0 0 1 0.85 -2.57c0.1 0.1 0.58 0.76 1.24 3.9a35.16 35.16 0 0 1 0.19 3.9c-0.28 0.15 -0.95 0.63 -1.49 0.15Zm3 -0.28c-0.19 0.19 -0.57 0.09 -0.76 0a32.87 32.87 0 0 0 -0.19 -3.81 3.69 3.69 0 0 1 0.57 -1c0.63 0.6 1.24 4.36 0.41 4.77Zm1.15 -2.38c-0.86 -5 -2.1 -3 -2.38 -2.66 -0.67 -3 -1.81 -5.14 -3 -2.29 -0.38 -1.8 -1.52 -4.09 -3 -1.8 -0.57 -1 -1.42 -0.48 -1.42 -0.38l-4.28 -25.21 34.53 -1.91 3.52 18.74a41.08 41.08 0 0 1 -5.8 -1.71c-0.19 -0.09 -0.38 0 -0.58 0.19a7.39 7.39 0 0 0 -0.38 0.67c-0.43 -0.9 -1.33 -2.33 -2.33 -3.79 -1.61 -2.39 -3.24 -4.47 -4.28 -3.9 -1.55 0.84 0.38 3.8 0.38 4.85 -1.25 -0.18 -8.77 -5.44 -10 -5.23s-0.57 1.61 -0.29 2c-2.57 -0.66 -2.19 2 -0.19 3.33 -1.24 1.72 1.62 3.52 1.62 3.52s-0.65 1.41 1.81 3.05c2.67 1.78 8.65 3 10 3.23a10.55 10.55 0 0 0 -0.38 1.62c0 0.19 0 0.38 0.19 0.48a66.47 66.47 0 0 0 14.08 5.8Zm13.6 91c0.09 2.38 0.19 5 0.09 5.81 -2.75 0.28 -23.49 1 -27.2 0.76a44.79 44.79 0 0 1 5.7 -3.43s1.43 1.43 1.53 1.43a0.33 0.33 0 0 0 0.28 -0.1 0.36 0.36 0 0 0 0 -0.57l-1 -1.14c0.47 -0.19 0.95 -0.47 1.42 -0.66a17.46 17.46 0 0 0 1.33 1.14 0.35 0.35 0 0 0 0.29 -0.1c0.19 -0.19 0.19 -0.47 0 -0.57l-0.86 -0.85a30.17 30.17 0 0 1 4.57 -1.72c4.95 0.85 11.51 0.29 13.89 0Zm-6.28 -81.34c-0.28 -3.42 -0.57 -8.46 -0.57 -9.13l23.88 -1.14a36.35 36.35 0 0 0 16 0.29c0.67 4.37 1.24 10.27 1.43 12.65 -18.44 3.71 -36.18 -1.33 -40.7 -2.67Zm40.15 85.53a26.49 26.49 0 0 1 3.52 -5.9s1.33 0.57 1.42 0.57 0.29 -0.09 0.38 -0.28a0.47 0.47 0 0 0 -0.19 -0.58l-1 -0.38a14.55 14.55 0 0 0 0.85 -1.23s1.34 0.66 1.43 0.66 0.29 -0.09 0.38 -0.28a0.45 0.45 0 0 0 -0.19 -0.57l-1.05 -0.48c1.05 -1.43 2.1 -2.85 3.14 -4.09a27.44 27.44 0 0 0 11.32 -5.71s4.29 4.09 4.57 4.76c-1.9 1.62 -21.88 13.32 -24.54 13.51Z" fill="#501200" stroke-width="1"></path><path d="M138.192 28.74a0.95 1.24 -1.27 1 0 1.9 -0.042 0.95 1.24 -1.27 1 0 -1.9 0.042" fill="#501200" stroke-width="1"></path><path d="M128.386 29.687a0.95 1.24 -1.27 1 0 1.9 -0.042 0.95 1.24 -1.27 1 0 -1.9 0.042" fill="#501200" stroke-width="1"></path><path d="M140.285 34.075a1.24 0.95 -5.81 1 0 2.467 -0.25 1.24 0.95 -5.81 1 0 -2.467 0.25" fill="#fccac2" stroke-width="1"></path><path d="M128.41 35.225a1.14 0.86 3.1 1 0 0.094 -1.717 1.14 0.86 3.1 1 0 -0.093 1.717" fill="#fccac2" stroke-width="1"></path><path d="m11.84 116.9 9.42 -5.24s31.11 -0.57 37.39 0.29l1 37.29s31.87 0.48 36.34 1.24c0 0 0.86 35.2 0.67 38.24 0 0 -9.23 5.14 -10.75 5.52 0 0 -73.54 0.09 -75.35 -0.29 -0.14 -0.09 0.14 -55.55 1.28 -77.05Z" fill="#f9f5e5" stroke-width="1"></path><path d="m30.01 155.33 0 38.53 -19.59 0 19.5 -20.64 -19.03 -17.89 19.12 0z" fill="#ffb949" stroke-width="1"></path><path d="m49.04 155.33 0 38.53 -19.03 0 18.94 -20.08 -18.94 -18.45 19.03 0z" fill="#ffb949" stroke-width="1"></path><path d="M95.85 150.38c-4.57 -0.38 -36.06 -1.23 -36.06 -1.23L49.42 155 49 193.86h36.76l10.75 -5.23c0 -1.81 -0.66 -38.25 -0.66 -38.25ZM67.4 185.3a10.75 10.75 0 1 1 10.75 -10.75A10.8 10.8 0 0 1 67.4 185.3Z" fill="#ff7449" stroke-width="1"></path><path d="M97.27 189.2c-0.75 -31 -0.88 -37.46 -1 -38.74 0 -0.11 0 -0.36 -0.27 -0.36 -2.19 -0.29 -32.06 -1 -36.06 -1.14 -0.19 -4.1 -0.67 -37.11 -0.67 -37.2 -20.19 -0.46 -37.74 0 -37.86 0 -4.52 2.24 -9.47 5.24 -9.47 5.24s-0.19 0.19 -0.19 0.29c-0.76 6 -1.52 73.91 -1.52 76.77a0.41 0.41 0 0 0 0.38 0.38l75.63 0.57 10.84 -5.42c0.19 -0.11 0.29 -0.2 0.19 -0.39ZM59.12 149l-9.27 5.42v-38l8.61 -4.09c0.09 4.85 0.54 33.3 0.66 36.67Zm-37.58 -36.71c0.78 0 27.22 -0.13 35.18 0.07l-7.3 3.39 -36 1c1.74 -1.04 5.18 -2.93 8.12 -4.46Zm-9.22 5.08 15.51 -0.28v18.17l-16.08 0.28c0.19 -10.18 0.57 -18.17 0.57 -18.17Zm36.53 76.06h-38c0 -3 0.1 -20.41 0.38 -37.91 2.76 0 18.74 0 37.58 0.1Zm-19.79 -38.67v-18.55H49v18.64c-7.28 -0.09 -14.13 -0.09 -19.94 -0.09Zm20.69 39v-38.15c11.51 0.1 24.26 0.29 35.3 0.58v37.53Zm1.1 -38.87 8.85 -5.13c2 0 28 0.66 34.72 1l-9.13 4.57c-10.75 -0.33 -23.03 -0.33 -34.44 -0.48Zm35.05 38.68V156l9.57 -4.95 0.53 37.58Z" fill="#501200" stroke-width="1"></path></g></svg>