<svg xmlns="http://www.w3.org/2000/svg" fill="none" viewBox="0 0 200 200"><g id="working-together-1--Work-working-together"><g id="desk"><path id="vector" fill="#f9f5e5" d="M189.257 169.469 10.54 166.964l5.348 -116.843 171.338 2.911 2.031 116.437Z" stroke-width="1"></path><path id="vector_2" fill="#501200" d="m189.257 169.969 -179.081 -2.662c-0.234 -0.248 -0.117 -0.063 5.212 -117.209a0.5 0.5 0 0 1 0.508 -0.477l171.338 2.911a0.5 0.5 0 0 1 0.492 0.491l2.031 116.437a0.5 0.5 0 0 1 -0.5 0.509Zm-178.194 -3.497 177.685 2.49 -2.014 -115.438 -170.37 -2.895 -5.302 115.842 0.001 0.001Z" stroke-width="1"></path></g><g id="house plan"><path id="vector_3" fill="#ffb949" d="m131.783 45.518 -82.115 8.936c1.692 3.52 10.087 108.449 10.087 108.449l89.968 -7.04 -17.939 -110.344 -0.001 0Z" stroke-width="1"></path><path id="vector_4" fill="#f9f5e5" d="M139.32 118.025c-4.035 -31.447 -2.381 -19.08 -6.838 -48.954a0.498 0.498 0 0 0 -0.547 -0.423l-36.543 3.857 -1.427 -12.286a0.497 0.497 0 0 0 -0.553 -0.439L60.85 63.503a0.5 0.5 0 0 0 -0.442 0.533c4.668 63.883 4.201 60.79 4.94 60.711l16.256 -1.364c0.829 11.263 0.738 11.043 0.963 11.251a0.461 0.461 0 0 0 0.482 0.336c3.248 -0.055 5.626 0.694 7.044 2.204 1.212 1.29 1.373 2.813 1.388 3.386l-7.994 0.452c-0.276 0.016 -0.503 0.224 -0.47 0.67 0.922 12.542 0.806 12.32 1.056 12.531 0.099 0.084 0.23 0.129 0.37 0.116l38.451 -3.655a0.499 0.499 0 0 0 0.45 -0.547l-2.969 -29.962 18.49 -1.578a0.5 0.5 0 0 0 0.454 -0.562h0.001Zm-2.088 -8.315 -3.899 0.475 -0.618 -7.975 3.492 -0.386 1.025 7.887v-0.001Zm-32.861 -4.267 1.4 8.145 -3.766 0.43 -1.389 -8.151 3.755 -0.425v0.001Zm2.394 8.023 -1.398 -8.135 4.357 -0.493 0.689 8.145 -3.648 0.483Zm4.64 -0.608 -0.688 -8.132 4.414 -0.499 0.808 8.079 -4.534 0.552Zm5.527 -0.673 -0.808 -8.075 4.507 -0.556 0.876 8.073 -4.576 0.558h0.001Zm5.568 -0.678 -0.876 -8.069 4.429 -0.49 0.993 8.005 -4.546 0.554Zm5.538 -0.675 -0.991 -7.994 4.673 -0.517 0.619 7.987 -4.301 0.524Zm3.525 -41.138 3.884 26.074 -8.861 0.744 -1.281 -7.88a0.5 0.5 0 0 0 -0.732 -0.36c-0.682 -0.007 -2.875 0.118 -4.702 1.822 -1.261 1.176 -2.067 2.836 -2.41 4.954 -0.822 -2.172 -2.038 -3.752 -3.632 -4.713 -2.686 -1.618 -5.425 -0.85 -5.54 -0.818 -0.542 0.187 -0.377 0.16 0.023 8.482l-9.88 0.788L95.507 73.5l36.056 -3.806Zm-38.534 -8.862 4.426 38.033 -8.648 0.69 -1.134 -6.51a0.5 0.5 0 0 0 -0.739 -0.44c-2.952 -0.026 -5.509 1.83 -6.249 5.363 -0.731 -1.633 -1.758 -2.84 -3.068 -3.604 -2.447 -1.426 -4.96 -0.748 -5.066 -0.718 -0.226 0.063 -0.38 0.258 -0.365 0.573l0.317 6.666 -8.351 0.701 -2.712 -37.14 31.589 -3.613Zm17.998 59.13c-0.632 0.053 -0.593 0.998 0.042 0.998l8.312 -0.708 2.921 29.476 -37.442 3.559 -0.816 -11.303 7.897 -0.446a0.5 0.5 0 0 0 0.468 -0.445 0.51 0.51 0 0 0 0.07 -0.216c0.008 -0.098 0.179 -2.422 -1.639 -4.371 -1.563 -1.675 -4.072 -2.531 -7.451 -2.537l-0.786 -10.669 13.413 -1.125a0.5 0.5 0 1 0 -0.083 -0.997l-30.164 2.53 -1.543 -21.128c9.221 -0.774 8.571 -0.693 8.721 -0.786a0.5 0.5 0 0 0 0.577 -0.517l-0.321 -6.745c3.132 -0.477 6.072 1.176 7.242 5.816 0 0.287 -0.002 0.442 0.182 0.594a0.5 0.5 0 0 0 0.886 -0.318 0.814 0.814 0 0 0 -0.067 -0.336c0.062 -4.539 2.391 -6.569 5.306 -6.679l1.146 6.559c0.045 0.26 0.282 0.432 0.528 0.412l20.515 -1.635a0.49 0.49 0 0 0 0.31 -0.212c0.138 -0.206 0.093 -0.045 -0.302 -8.336 3.491 -0.573 7.008 1.341 8.265 7.417 0.121 0.587 1.062 0.51 1.058 -0.104 -0.042 -5.889 2.833 -8.32 6.126 -8.434l1.275 7.841a0.5 0.5 0 0 0 0.555 0.416c0.101 0.014 -0.479 0.052 9.323 -0.77l0.529 4.07 -36.1 4.101a0.501 0.501 0 0 0 -0.437 0.581l1.557 9.139a0.499 0.499 0 0 0 0.492 0.416l35.77 -4.365 0.901 6.931 -27.235 2.325 -0.001 0.001Z" stroke-width="1"></path><path id="vector_5" fill="#f9f5e5" d="m66.771 72.497 0.338 4.603a0.5 0.5 0 0 0 0.498 0.463l4.236 -0.189 0.294 3.442 -3.906 0.421a0.5 0.5 0 0 0 -0.444 0.547l0.474 4.739a0.5 0.5 0 0 0 0.497 0.45l3.888 -0.185 0.15 1.759a0.5 0.5 0 0 0 0.498 0.456l11.485 -1.018a0.5 0.5 0 0 0 0.454 -0.537l-0.175 -2.141 4.672 -0.505a0.5 0.5 0 0 0 0.445 -0.533c-0.37 -5.13 -0.289 -4.896 -0.515 -5.086 -0.226 -0.19 0.013 -0.138 -5.043 0.359a0.313 0.313 0 0 0 -0.03 0.005l-0.258 -3.155 4.318 -0.458a0.5 0.5 0 0 0 0.445 -0.545l-0.474 -4.874a0.499 0.499 0 0 0 -0.543 -0.45l-4.306 0.392 -0.228 -2.845a0.5 0.5 0 0 0 -0.543 -0.458l-11.44 1.016a0.5 0.5 0 0 0 -0.454 0.537l0.252 2.951 -4.122 0.303a0.5 0.5 0 0 0 -0.462 0.535l-0.001 0.001Zm2.438 13.455 -0.377 -3.773 3.39 -0.365 0.339 3.978 -3.352 0.16Zm15.508 -5.412 4.159 -0.422 0.267 3.744 -4.167 0.45c-0.334 -4.075 -0.359 -3.763 -0.259 -3.772Zm3.331 -5.546 -3.809 0.404 -0.383 -3.943 3.814 -0.347 0.378 3.886Zm-5.464 -6.798 1.614 18.839 -10.45 0.927 -1.609 -18.839 10.445 -0.927ZM71.44 72.655l0.318 3.722 -3.687 0.165 -0.266 -3.62 3.635 -0.267Z" stroke-width="1"></path><path id="vector_6" fill="#f9f5e5" d="M98.18 135.553c0 4.121 3.352 7.473 7.473 7.473s7.473 -3.352 7.473 -7.473 -3.352 -7.473 -7.473 -7.473 -7.473 3.352 -7.473 7.473Zm13.945 0a6.48 6.48 0 0 1 -6.473 6.473 6.48 6.48 0 0 1 -6.473 -6.473 6.48 6.48 0 0 1 6.473 -6.473 6.48 6.48 0 0 1 6.473 6.473Z" stroke-width="1"></path></g><g id="pencil"><path id="vector_7" fill="#f9f5e5" d="M123.05 42.133c-0.19 0.614 -0.406 1.286 -0.677 2.099l3.385 1.422c0.338 -0.948 0.535 -1.762 0.745 -2.37 0.852 -2.467 -2.798 -3.265 -3.452 -1.15l-0.001 -0.001Z" stroke-width="1"></path><path id="vector_8" fill="#f9f5e5" d="m109.511 84.714 -0.947 8.056 4.4 -6.837 -3.453 -1.22Z" stroke-width="1"></path><path id="vector_9" fill="#501200" d="M122.576 41.975c-0.14 0.453 -12.8 39.706 -13.439 42.483 -0.239 0.185 -0.116 -0.368 -1.07 8.256 -0.058 0.523 0.632 0.768 0.917 0.326 5.083 -7.889 4.493 -6.924 4.524 -7.024l13.541 -42.585c0.874 -2.842 -3.556 -4.422 -4.472 -1.456h-0.001Zm0.955 0.295c0.523 -1.697 3.049 -0.72 2.565 0.855 -0.172 0.516 -0.392 1.176 -0.617 1.932l-2.499 -1.071c0.192 -0.591 0.392 -1.201 0.551 -1.716Zm-13.642 43.093 2.339 0.765 -2.933 4.58 0.594 -5.345Z" stroke-width="1"></path></g><g id="hand 3"><path id="vector_10" fill="#fccac2" d="M146.809 58.465c-5.143 -3.432 -13.212 -10.402 -13.312 -10.488 -0.609 0.203 -1.308 0.453 -1.781 0.79 -8.409 4.389 -19.975 12.804 -22.001 22.07 -0.068 0.677 -0.203 2.369 0.88 2.302 1.557 -0.068 2.911 -2.64 3.723 -3.724 2.186 -2.914 3.704 -4.6 6.685 -6.574 -1.282 1.923 -2.962 5.005 -2.894 7.386 0.068 1.15 0.948 2.167 2.031 1.963 1.395 -0.254 2.141 -0.815 2.898 -2a5.75 5.75 0 0 0 -0.529 2.406c0.203 1.354 1.354 2.03 3.046 1.354 0.764 -0.445 1.615 -1.048 2.163 -1.738 -0.05 1.652 0.355 3.03 1.086 3.43 0.609 0.338 1.75 -0.011 2.234 -0.406 1.196 -0.976 1.286 -1.22 2.099 -2.437l0.338 -0.271c1.672 2.388 8.969 -0.203 6.832 -5.392 5.402 -4.792 5.589 -7.076 6.501 -8.672l0.001 0Z" stroke-width="1"></path><path id="vector_11" fill="#ff7449" d="M167.256 5.036c-6.517 11.296 -16.635 23.652 -25.25 33.442 -3.637 4.125 -8.3 9.18 -8.597 9.477 0.101 0.088 10.553 8.958 13.336 10.628 0.339 0.27 0.745 0.406 1.151 0.474 7.683 -0.137 18.841 -6.763 25.183 -11.102 5.249 -3.827 11.281 -8.15 16.383 -12.66 -0.797 -1.167 -21.493 -31.505 -22.204 -30.26h-0.002Z" stroke-width="1"></path><path id="vector_12" fill="#f9f5e5" d="M183.052 26.074a0.501 0.501 0 0 0 -0.86 -0.512c-1.598 2.684 -4.168 5.038 -6.201 6.838 -2.63 -3.433 -4.776 -6.207 -7.603 -9.48 2.714 -3.028 4.875 -5.634 6.781 -8.175a0.5 0.5 0 1 0 -0.8 -0.6c-1.869 2.49 -3.987 5.048 -6.642 8.015 -0.963 -1.068 -3.287 -3.722 -5.399 -5.834 -0.724 -0.728 -0.949 -1.23 -1.369 -1.23 -0.71 0 -0.746 0.863 -0.146 1.045 3.537 3.832 0.068 -0.048 6.241 6.765 -2.862 3.153 -5.945 6.18 -8.883 9 -1.954 -2.13 -3.889 -3.944 -5.906 -5.533a0.5 0.5 0 1 0 -0.619 0.785c1.975 1.557 3.874 3.335 5.806 5.442a2005.187 2005.187 0 0 1 -10.019 9.508s-4.031 -3.242 -4.229 -3.407c0 0 -0.289 -0.166 -0.575 -0.426 -0.26 -0.406 -0.971 -0.247 -0.972 0.269a0.5 0.5 0 0 0 0.292 0.455c0.176 0.187 0.416 0.363 0.618 0.473 0.366 0.305 0.014 -0.017 4.126 3.323 -1.883 1.749 -6.866 6.484 -8.868 7.81a0.527 0.527 0 0 0 -0.448 0.486c-0.026 0.368 0.28 0.59 0.587 0.536 1.094 -0.193 8.623 -7.37 9.511 -8.192 0.581 0.476 2.051 1.459 6.524 5.608 -2.635 1.888 -7.683 5.34 -10.418 6.94 -0.439 0.258 -0.256 0.933 0.253 0.933 0.733 0 10.634 -7.001 10.923 -7.166 0.919 0.862 4.821 4.569 5.863 5.542a0.502 0.502 0 0 0 0.707 -0.024 0.502 0.502 0 0 0 -0.024 -0.707c-1.04 -0.971 -4.858 -4.6 -5.736 -5.423a461.873 461.873 0 0 0 10.722 -7.673c1.952 1.953 3.951 3.97 5.732 6.069a0.501 0.501 0 0 0 0.763 -0.647c-1.774 -2.09 -3.75 -4.088 -5.683 -6.023 3.307 -2.474 8.349 -6.633 8.758 -6.99 1.768 2.333 3.643 4.78 5.569 7.09a0.5 0.5 0 0 0 0.769 -0.64c-1.931 -2.315 -3.816 -4.776 -5.595 -7.124 2.074 -1.835 4.758 -4.277 6.453 -7.124l-0.003 -0.002Zm-34.838 16.675c0.109 -0.102 9.824 -9.324 9.928 -9.424 0.353 0.359 6.484 6.448 7.436 7.42a454.15 454.15 0 0 1 -10.761 7.695c-4.689 -4.358 -6.5 -5.607 -6.603 -5.69v-0.001Zm18.175 -2.604c-2.107 -2.163 -1.695 -1.594 -7.527 -7.515 2.923 -2.805 5.992 -5.817 8.852 -8.961 2.515 2.868 5.513 6.767 7.535 9.406 -0.224 0.199 -5.051 4.225 -8.859 7.07h-0.001Z" stroke-width="1"></path><path id="vector_13" fill="#501200" d="M146.489 58.58a0.5 0.5 0 0 0 -0.628 0.325c-1.335 4.196 -5.234 7.403 -8.581 10.264 -0.503 0.43 0.148 1.19 0.65 0.76 0.637 -0.544 1.362 -1.161 2.034 -1.769 0.287 0.913 0.194 1.751 -0.28 2.496 -0.845 1.33 -2.721 2.106 -4.152 2.186 -0.632 0.051 -1.213 -0.198 -1.557 -0.634 -0.438 -0.75 -0.594 -1.508 -0.479 -2.317a0.5 0.5 0 0 0 -0.99 -0.142c-0.122 0.857 0 1.694 0.384 2.526 -0.101 0.082 -0.431 0.579 -0.61 0.844 -0.424 0.628 -0.634 0.894 -1.5 1.602 -0.379 0.31 -1.296 0.554 -1.669 0.347 -0.459 -0.251 -0.89 -1.383 -0.823 -3.061 0.059 -1.418 0.453 -2.901 1.17 -4.409a0.5 0.5 0 0 0 -0.904 -0.43c-0.719 1.51 -1.137 3.007 -1.246 4.456 -0.109 0.103 -0.798 1.185 -1.873 1.726 -1.143 0.459 -2.168 0.31 -2.361 -0.89 0 -0.809 0.192 -1.621 0.57 -2.377 0.806 -1.905 1.783 -3.647 2.544 -4.953a0.5 0.5 0 0 0 -0.864 -0.504c-2.903 4.981 -2.785 6.506 -5.113 6.932a1.138 1.138 0 0 1 -0.861 -0.271c-2.222 -1.843 2.153 -8.518 3.958 -10.84a0.5 0.5 0 0 0 -0.789 -0.615c-0.429 0.551 -1.012 1.415 -1.526 2.186a0.504 0.504 0 0 0 -0.177 0.07c-3.221 2.056 -4.5 3.869 -6.765 6.891 -0.718 0.958 -2.022 3.444 -3.355 3.524 -1.242 0.075 -0.9 -9.381 16.885 -20.877 1.748 -1.112 3.13 -1.896 4.532 -2.571 0.537 -0.335 1.003 -0.555 1.424 -0.668h0.274a0.5 0.5 0 0 0 0 -1h-0.338c-0.396 0 -1.38 0.503 -1.841 0.793 -1.39 0.665 -2.805 1.467 -4.591 2.604 -6.801 4.395 -16.134 11.815 -17.684 19.818 -0.265 1.334 0.04 2.987 1.391 2.899 1.912 -0.08 3.225 -2.752 4.103 -3.923 1.635 -2.181 2.845 -3.905 4.859 -5.489 -1.362 2.392 -3.121 6.21 -0.999 7.967a2.13 2.13 0 0 0 1.651 0.489c2.126 -0.386 1.711 -1.318 1.717 -0.015 0.364 2.541 3.21 2.702 5.238 0.629 0.141 1.483 0.695 2.984 2.185 2.984 1.534 0 2.747 -1.194 3.605 -2.465 0.108 -0.16 0.229 -0.339 0.377 -0.549a2.808 2.808 0 0 0 1.879 0.719c1.756 0 4.105 -0.99 5.164 -2.657 0.765 -1.205 0.744 -2.65 0.236 -3.751 2.426 -2.208 4.966 -4.826 6.05 -8.233a0.5 0.5 0 0 0 -0.325 -0.628l0.001 0.001Z" stroke-width="1"></path></g><g id="hand 2"><path id="vector_14" fill="#f9f5e5" d="M69.774 152.884c0.271 1.625 -4.405 12.994 -9.071 20.106 -3.863 5.887 -16.646 21.137 -18.549 22.001 -1.214 0.552 -25.724 -21.933 -25.724 -21.933s12.729 -8.933 15.773 -11.441c8.944 -7.369 18.616 -18.684 19.903 -18.616 1.97 0 17.669 8.364 17.669 9.884l-0.001 -0.001Z" stroke-width="1"></path><path id="vector_15" fill="#fccac2" d="M68.081 128.31c2.979 -2.843 8.056 -5.551 6.025 0.609l0.135 0.135c2.166 -1.083 4.172 -0.955 3.249 2.031a13.415 13.415 0 0 1 -0.812 2.031c5.164 -3.521 7.536 -0.507 5.348 3.723 -1.015 2.369 -3.046 4.197 -5.483 5.009l-0.338 -0.135c-1.76 3.994 -3.249 7.853 -6.702 10.696 -1.895 -2.099 -13.201 -8.259 -16.653 -9.274 4.261 -9.586 10.26 -19.568 18.616 -25.995 1.76 -1.354 4.602 -3.311 6.905 -2.843 2.03 0.412 -0.487 3.034 -1.083 3.656 -3.184 3.319 -6.634 6.363 -9.207 10.357Z" stroke-width="1"></path><path id="vector_16" fill="#501200" d="M81.844 131.451c-1.287 -0.643 -2.983 -0.035 -4.273 0.668 0.125 -0.319 0.235 -0.636 0.329 -0.95 0.901 -2.83 -0.672 -3.857 -3.069 -3.006 0.904 -3.507 -0.913 -4.462 -4.08 -2.59 4.28 -5.028 9.474 -8.741 8.847 -10.812 -0.097 -0.321 -0.372 -0.735 -1.126 -0.886 -2.472 -0.509 -5.355 1.432 -7.311 2.937 -8.135 6.257 -14.344 16.367 -18.561 25.724a2.048 2.048 0 0 0 -0.333 -0.035c-1.812 -0.037 -10.84 10.905 -20.315 18.729 -2.997 2.464 -15.616 11.328 -15.743 11.417a0.5 0.5 0 0 0 -0.051 0.778c22.26 20.415 25.421 22.056 26.111 22.056 1.663 0 16 -17.764 18.917 -22.218 4.421 -6.728 9.477 -18.479 9.146 -20.462 -0.017 -0.103 -0.093 -0.243 -0.168 -0.367 3.112 -2.719 4.57 -6.189 6.227 -9.973 0.616 0.195 4.471 -1.502 6.077 -5.257 1.344 -2.599 1.101 -4.856 -0.626 -5.754l0.002 0.001Zm-21.493 41.265c-4.098 6.255 -16.231 20.51 -18.229 21.761 -1.897 -0.736 -15.946 -13.234 -24.829 -21.368 15.545 -10.942 16.843 -11.817 28.531 -23.615 6.41 -6.471 6.229 -6.118 6.952 -5.878 3.511 1.033 15.694 7.721 16.578 9.415 0.079 1.543 -4.149 12.299 -9.003 19.686v-0.001Zm21.215 -35.937a8.554 8.554 0 0 1 -4.68 4.547c0.181 -0.542 0.865 -2.669 1.246 -3.115 0.52 -0.107 0.536 -0.847 0.021 -0.975 -1.177 -0.298 -1.751 2.713 -2.83 5.175 -1.52 3.484 -2.958 6.781 -5.835 9.288 -2.711 -2.389 -12.161 -7.56 -15.92 -8.877 4.147 -9.175 10.251 -19.101 18.202 -25.217 1.037 -0.798 4.191 -3.226 6.502 -2.75 0.123 0.024 0.334 0.083 0.368 0.196 0.103 0.338 -0.487 1.344 -1.721 2.631 -0.955 0.996 -1.932 2.014 -2.896 2.98 -5.471 5.479 -3.871 4.328 -7.541 8.609a0.5 0.5 0 0 0 0.76 0.65c2.568 -2.999 5.693 -4.748 6.552 -4.207 0.159 0.101 0.617 0.612 -0.164 2.98l-0.008 0.03c-1.405 0.821 -2.589 1.857 -3.439 3.012a0.5 0.5 0 1 0 0.805 0.593c3.405 -4.618 10.503 -5.384 2.84 2.537 -1.732 1.473 0.083 1.981 0.287 1.15 0.481 -0.64 2.194 -2.017 2.845 -2.352 4.71 -3.211 6.573 -0.694 4.606 3.113v0.002Z" stroke-width="1"></path></g><g id="hand 1"><path id="vector_17" fill="#f9f5e5" d="M148.436 147.806c-3.249 0.406 -11.102 1.895 -14.216 2.979 -4.603 -5.89 -6.124 -13.246 -10.357 -19.226 -1.91 -2.698 -4.361 -4.918 -6.431 -7.447 -0.275 -0.335 -1.828 -1.895 -1.422 -2.437 0.406 -0.677 2.64 0.677 2.979 0.948 2.166 1.354 4.214 2.894 6.025 4.671 0.342 0.335 1.422 1.76 1.963 1.828 0.338 0 -0.338 -0.609 -0.542 -0.948 -3.503 -4.904 -8.421 -9.23 -7.311 -9.613 0.951 -0.328 2.775 1.084 3.452 1.557 2.232 1.559 4.298 3.418 6.228 5.416 0.798 0.826 1.888 2.654 2.911 3.182 0.166 0.086 -0.668 -1.252 -0.745 -1.354a68.489 68.489 0 0 0 -1.625 -2.302c-5.187 -6.185 -7.266 -7.133 -6.77 -7.92 0.471 -0.747 2.437 0.338 2.911 0.609 2.843 1.422 5.232 3.909 7.311 6.296a95.703 95.703 0 0 1 2.979 3.588c0.203 -0.135 -1.151 -2.234 -1.219 -2.369a36.231 36.231 0 0 0 -5.009 -6.566c-0.133 -0.138 -2.437 -2.369 -2.031 -2.572 0.677 -0.271 1.963 0.745 2.437 1.015a29.192 29.192 0 0 1 5.754 4.874c6.071 6.671 12.283 20.906 12.727 25.792l0.001 -0.001Z" stroke-width="1"></path><path id="vector_18" fill="#501200" d="M178.038 178.316c-0.252 -1.384 -26.653 -30.903 -27.982 -31.073 -1.346 -0.17 -1.086 0.19 -1.2 -0.294 -1.983 -8.468 -7.776 -19.859 -12.915 -25.409 -1.921 -2.075 -3.837 -3.697 -5.876 -4.974 -1.017 -0.729 -2.069 -1.357 -2.839 -1.05a0.64 0.64 0 0 0 -0.375 0.408c-0.215 0.913 2.256 2.603 5.204 6.566 -1.898 -2.055 -4.236 -4.254 -6.764 -5.455 -0.975 -0.466 -2.633 -1.262 -3.273 -0.294 -0.536 0.81 0.576 1.84 1.158 2.39 0.953 0.9 1.928 1.887 3.432 3.557a45.11 45.11 0 0 0 -4.102 -3.271c-1.251 -0.895 -2.67 -1.824 -3.676 -1.463a0.712 0.712 0 0 0 -0.457 0.461c-0.269 0.899 1.218 2.259 4.937 6.659 -1.662 -1.399 -3.272 -2.492 -4.491 -3.172 -1.395 -0.78 -2.803 -1.471 -3.345 -0.66 -0.542 0.723 0.312 1.792 1.234 2.825 6.619 7.359 7.384 7.733 11.364 16.667 1.489 3.341 3.027 6.792 5.338 9.86a3.915 3.915 0 0 0 -0.729 0.485c-1.29 1.071 9.08 30.336 10.002 32.976a0.5 0.5 0 0 0 0.542 0.33c0.086 -0.012 8.698 -1.217 17.2 -2.489 17.621 -2.636 17.621 -2.886 17.613 -3.579v-0.001Zm-43.649 -28.092c-4.462 -5.78 -6 -13.082 -10.255 -19.092 -2.245 -3.127 -7.402 -8.182 -7.824 -9.25 1.447 0.107 6.663 3.825 8.74 6.191 0.709 0.81 1.213 1.345 1.792 1.414 0.262 0 0.475 -0.129 0.57 -0.344 0.24 -0.541 -0.443 -1.044 -0.705 -1.395 -2.464 -3.44 -6.297 -7.289 -7.246 -8.868 0.769 0.111 2.094 1.081 2.686 1.507 2.252 1.619 5.387 4.277 7.084 6.471 0.592 0.765 2.086 2.772 2.747 2.068 0.248 -0.265 0.143 -0.489 -0.154 -1.044 -0.288 -0.539 -1.255 -2.086 -2.23 -3.279 -5.198 -6.198 -6.406 -6.515 -6.693 -7.321 0.172 -0.029 0.646 0.026 1.959 0.653 2.834 1.35 5.384 3.997 7.424 6.299 3.006 3.508 2.494 3.107 3.004 3.616a0.498 0.498 0 0 0 0.631 0.062c0.51 -0.339 0.266 -0.864 -0.912 -2.786 -3.392 -5.529 -5.115 -6.617 -6.693 -8.479 0.293 0.146 0.694 0.389 1.241 0.78 1.943 1.214 3.792 2.78 5.653 4.791 5.529 5.949 11.078 17.881 12.72 25.157 -3.575 0.485 -10.51 1.847 -13.54 2.847l0.001 0.002Z" stroke-width="1"></path></g><g id="stars"><path id="vector_19" fill="#ff7449" d="m71.602 37.53 -2.64 -1.286c-0.406 -0.135 -0.677 -0.474 -0.812 -0.812 -0.286 -0.858 -0.174 -0.78 0.745 -3.994 0.161 -0.321 -0.416 -0.522 -0.542 -0.271l-2.031 2.099c-0.609 0.542 -1.489 0.677 -2.167 0.203l-2.437 -1.625c-0.214 -0.214 -0.655 0.044 -0.474 0.406l1.354 2.573c0.314 0.784 0.211 1.55 -0.474 2.099l-2.302 1.828c-0.222 0.223 -0.027 0.542 0.271 0.542l2.911 -0.474c0.745 -0.135 1.553 0.34 1.828 1.083 1.047 2.834 1.01 2.911 1.286 2.911 0.135 0 0.338 -0.067 0.338 -0.271l0.474 -2.911a1.684 1.684 0 0 1 1.625 -1.421c3.275 -0.076 2.998 -0.087 3.182 -0.271 0.068 -0.135 0 -0.338 -0.135 -0.406v-0.002Z" stroke-width="1"></path><path id="vector_20" fill="#ff7449" d="m39.243 75.17 -2.708 -1.355c-0.406 -0.135 -0.677 -0.474 -0.812 -0.812 -0.307 -0.768 -0.13 -0.933 0.745 -3.994 0.068 -0.136 0 -0.27 -0.135 -0.339 -0.135 -0.067 -0.271 0 -0.406 0.068 -2.199 2.272 -2.187 2.43 -3.046 2.572 -0.658 0.132 -1.109 -0.288 -3.52 -1.896 -0.216 -0.215 -0.654 0.046 -0.474 0.406l1.354 2.573c0.135 0.338 0.203 0.745 0.135 1.151 -0.139 0.695 -0.456 0.826 -2.911 2.775 -0.068 0.135 -0.135 0.271 -0.068 0.406a0.373 0.373 0 0 0 0.339 0.203c3.056 -0.497 3.406 -0.664 4.062 -0.27 0.338 0.202 0.609 0.541 0.745 0.88l1.015 2.774c0.155 0.311 0.609 0.238 0.609 -0.068 0.502 -3.084 0.429 -3.339 1.015 -3.926 0.338 -0.27 0.677 -0.406 1.083 -0.406l2.911 -0.135c0.308 0 0.377 -0.455 0.068 -0.609l-0.001 0.001Z" stroke-width="1"></path></g></g></svg>