<svg xmlns="http://www.w3.org/2000/svg" fill="none" viewBox="0 0 200 200"><g id="ape-apeing--cryptocurrency-crypto-web 3.0-metaverse-bitcoin-ethereum-ape-apeing"><g id="ape"><path id="vector" fill="#fccac2" d="M71.17 96c5.393 -1.588 10.462 -7.186 10.462 -13.04 0 -5.884 -5.549 -8.812 -9.824 -5.616 -0.105 -3.7 -1.379 -6.965 -5.313 -9.077 -11.223 -6.129 -20.163 6.119 -28.131 10.263 -0.821 0.427 -1.551 -1.994 -5.021 -3.618 -7.5 -3.487 -13.429 3.969 -10.411 11.666 2.51 6.276 9.968 6.645 11.962 11.371 3.583 8.388 2.362 8.956 2.362 21.634 -0.443 5.611 0.96 11.592 7.532 12.626 10.6 1.325 10.494 -9.843 10.707 -10.586 11.493 3.134 20.181 -4.352 20.378 -11.417 0.073 -5.283 -3.21 -9.455 -4.703 -14.206Z" stroke-width="1"></path><path id="vector_2" fill="#fccac2" d="M138 166.675c4.45 0.051 9.5 0.613 7.645 -1.245 -3.471 -3.618 -12.036 -2.88 -16.466 -2.436 -5.316 0.443 -5.939 0.919 -8.471 2 1.174 0.89 1.109 9.229 -5.122 10.811 6.276 0.516 12.5 0.055 18.762 0.624 0.666 0.06 5.611 0.664 5.611 -0.665 0 -1.4 -5.094 -2.067 -5.021 -2.436 2.774 0.256 5.563 0.305 8.344 0.147 2.289 0 3.116 -1.193 -2.176 -2.624 9.025 -0.184 5.731 -2.33 -3.106 -4.176Z" stroke-width="1"></path><path id="vector_3" fill="#fccac2" d="M92.781 177.539c-2.4 -2.4 -9.977 -4.039 -10.263 -4.135 0.208 -0.623 6.821 1.165 9.23 1.994 0.22 0.076 1.854 0.737 1.771 0 -0.2 -1.775 -3.7 -3.237 -5.094 -3.766 -4.106 -1.55 -9.135 -2.02 -16.023 -0.517 -6.1 1.333 -3.817 1.773 -5.094 1.773 0.073 2.067 -1.7 10.189 -2.732 13 5.423 0.9 9.656 -2.307 17.72 -1.329 1.124 0.236 5.208 0.967 5.686 -0.148 0.221 -0.517 -0.37 -1.108 -0.739 -1.4 -2.483 -1.607 -3.515 -1.418 -6.128 -2.289 0.31 -0.412 6.141 1.2 8.786 1.772 0.368 0.08 2.806 0.812 2.585 -0.147 -0.275 -2.468 -10.367 -5.191 -9.968 -5.39 0.593 -0.742 7.38 1.431 8.86 1.993 0.3 0.148 2.658 1.108 2.732 0.295 0 -0.672 -0.81 -1.263 -1.329 -1.706Z" stroke-width="1"></path><path id="vector_4" fill="#ff7449" d="M83.921 111.382c0.811 -0.078 3.075 -0.581 3.544 0.665 0.256 0.682 -2.174 1.052 -3.766 1.4 -4.515 0.994 -8.7 2.179 -12.362 2.972 -1.387 0.3 -2.463 -1.179 -0.98 -2.094 2.012 -1.239 10.096 -2.607 13.564 -2.943Z" stroke-width="1"></path><path id="vector_5" fill="#f9f5e5" d="M67.972 91.446c0.86 1.475 -3.519 2.253 -4.356 0.369 -0.3 -0.664 0.59 -1.033 0.886 -1.181 0.59 -0.221 2.879 -0.074 3.47 0.812Z" stroke-width="1"></path><path id="vector_6" fill="#f9f5e5" d="M70.852 84.432c-0.425 -0.848 -10.557 -0.517 -11.814 -0.443 2.323 3.194 7.937 3.726 11.149 1.476 0.222 -0.221 0.886 -0.665 0.665 -1.033Z" stroke-width="1"></path><path id="vector_7" fill="#f9f5e5" d="M58.226 91.52c0.94 1.468 -3.806 2.274 -4.652 0.369 -0.706 -1.589 3.826 -1.665 4.652 -0.369Z" stroke-width="1"></path><path id="vector_8" fill="#f9f5e5" d="M44.418 84.21c-0.754 1.192 7.434 5.233 11.74 -0.221 -0.633 -0.064 -11.198 -0.634 -11.74 0.221Z" stroke-width="1"></path><g id="group"><path id="vector_9" fill="#fccac2" d="M70.113 95.876a2.843 2.843 0 0 1 -2.732 3.692 2.928 2.928 0 0 1 -2.88 -2.879 2.866 2.866 0 0 1 5.612 -0.813Z" stroke-width="1"></path><path id="vector_10" fill="#fccac2" d="M45.452 93.292c3.81 0 3.81 5.759 0 5.759 -2.468 0 -3.143 -2.879 -2.88 -2.879a2.931 2.931 0 0 1 2.88 -2.88Z" stroke-width="1"></path></g><path id="vector_11" fill="#501200" d="M132.652 171.025c-3.057 0 -3.982 -0.037 -3.892 -0.714 0.09 -0.677 0.47 -0.286 3.892 -0.286 9.752 0 -3.4 -4.176 -6.126 -2.819 -1.143 0.567 -2.363 -3.244 8.272 0.042 1.919 0.593 2.471 1.477 2.4 2.173 -0.146 1.535 -2.921 1.604 -4.546 1.604Z" stroke-width="1"></path><path id="vector_12" fill="#501200" d="M146.884 169.589c-0.05 -0.6 -0.558 -1.161 -2.939 -1.832 -3.333 -0.941 -2.807 -0.5 0.3 -0.5 2.334 0 2.61 -1.189 1.69 -2.175 -3.334 -3.475 -10.771 -3.209 -16.87 -2.589 -5.167 0.45 -6.616 1.1 -8.33 1.822 -4.061 -1.845 -13.4 0.117 -22.414 -6.524 -8.787 -6.518 -12.306 -16.336 -18.422 -25.213 -1.552 -2.2 -7.171 -9.516 -14.313 -11.345 -0.105 -0.028 -2.88 2.188 -9.818 0.428a0.5 0.5 0 0 0 -0.848 0.366c0.2 7.159 -4.788 10.405 -9.981 9.755 -6.931 -1.09 -7.43 -8.045 -7.109 -12.132 0.355 -1.924 -12.716 2.244 -17.924 6.093 -24.082 17.5 -26.114 73.513 40.994 62.328 0.849 -0.156 2.982 -0.111 3.723 -1.175 0.51 -0.733 -0.106 -0.438 1.772 -0.438 2.914 0 5.819 -0.83 8.681 -1.341 5.9 -1.052 6.892 0.307 11.437 0.3 0.639 -0.106 1.521 -0.11 1.854 -0.887 0.347 -0.809 -0.407 -1.7 -1.155 -2.165 1.994 0.5 6.032 1.876 5.771 -0.081 -0.231 -1.736 -5.008 -3.816 -6.655 -4.411 4.62 1.08 6.772 2.719 7.9 2.035 0.624 -0.381 0.44 -1.266 -0.108 -1.881 6.44 0.289 15.717 0.79 21.659 -1.709 3.123 0.233 6.142 0.261 9.058 0.288 9.863 0.09 15.633 1.509 15.629 -0.811 0.041 -0.782 -0.737 -1.319 -1.757 -1.73 1.527 0.052 3.056 0.023 4.58 -0.086 2.8 0 3.494 -1.9 -0.58 -2.934 1.45 -0.034 4.291 -0.089 4.175 -1.456Zm-82.261 2.341c2.151 -3.466 3.46 -7.691 4.57 -11.826a36.65 36.65 0 0 0 9.952 9.568c-2.684 0.107 -9.842 1.171 -11.46 2.484a0.496 0.496 0 0 0 -0.485 -0.284 0.49 0.49 0 0 0 -0.191 0.052c-0.095 0.048 -1.299 0.016 -2.386 0.006Zm26.946 6.55c-1.388 -0.574 -8.552 -2.963 -9.405 -1.885 -0.771 0.768 1.068 1.266 2.081 1.6 1.774 0.59 7.3 2.806 7.725 4.119 -0.777 0.137 -5.1 -1.163 -8.675 -1.888 -0.98 -0.253 -2.915 -0.74 -2.748 0.291 0.157 0.965 2.994 0.461 6.311 2.6 0.432 0.346 0.643 0.693 0.59 0.815 -0.07 0.166 -0.563 0.226 -0.828 0.258 -4.091 0.488 -4.09 -1.868 -14.094 0.212 -2.375 0.618 -4.827 0.89 -7.28 0.805a66.893 66.893 0 0 0 2.56 -12.23c1.886 -1.267 12.333 -4.237 20.438 -1.082 2.094 0.815 4.284 2.08 4.715 3.135 -0.345 -0.052 -10.476 -3.742 -10.926 -1.95 -0.353 1.4 4.9 0.531 10.49 4.688 1.608 1.207 1.43 1.475 -0.954 0.512Zm48.5 -8.446c-1.47 -0.034 -2.57 -0.348 -2.768 0.267a0.704 0.704 0 0 0 0.011 0.693c0.41 0.664 1.733 0.329 2.405 0.464 0.858 0.172 4.145 0.72 4.789 1.332 -0.935 0.415 -5.9 0.3 -7.389 0.189 -1.868 -0.187 -2.55 -0.322 -2.665 0.254 -0.115 0.576 0.419 0.73 1.714 1.083 2.207 0.6 3.316 1.081 3.3 1.445 -0.386 0.772 -4.691 -0.066 -14.623 -0.156 -2.372 -0.022 -4.812 -0.044 -7.313 -0.178 3.547 -2.161 4.9 -5.6 4.006 -10.3 -0.285 -0.848 18.834 -4.4 23.673 0.646 1.082 1.158 -5.82 -0.138 -9.849 0.276 -2.5 0.511 -1.258 1.165 -0.64 1.269 0.468 0.057 0.939 0.079 1.41 0.066 2.633 -0.002 17.724 2.978 3.938 2.65h0.001Z" stroke-width="1"></path><path id="vector_13" fill="#501200" d="M68.505 116.2c0.748 -7.852 -6.939 -16.874 -5.585 -22.268 0.163 -0.66 -2.035 -2.062 -0.751 3.834 1.633 7.494 5.988 12.115 5.331 18.435 -1.547 0 -3.306 0.034 -4.8 0.058 -3.784 0.06 -3.7 -0.082 -3.885 0.292 -0.559 1.122 1.31 0.649 9.16 0.649 2.755 0 3.306 0.166 3.306 -0.5s-0.643 -0.5 -2.776 -0.5Z" stroke-width="1"></path><path id="vector_14" fill="#501200" d="M56.619 83.72c-0.162 -0.381 -0.4 -0.337 -2.61 -0.388 -1.184 -0.027 -9.5 -0.349 -10.019 0.7 -0.819 1.363 2.856 3.278 5.8 3.278 4.261 -0.005 7.146 -2.844 6.829 -3.59Zm-11.629 0.838a37.335 37.335 0 0 1 6.238 -0.29v1.9a7.24 7.24 0 0 1 -6.238 -1.61Zm7.238 1.4v-1.67c1.188 0.039 2.021 0.049 2.848 0.075a6.623 6.623 0 0 1 -2.848 1.592v0.003Z" stroke-width="1"></path><path id="vector_15" fill="#501200" d="M71.342 84.081c-0.69 -1.09 -10.978 -0.667 -12.259 -0.591a0.5 0.5 0 0 0 -0.375 0.793c4.123 5.672 14.029 2.003 12.634 -0.202Zm-11.166 0.359c1.672 -0.065 4.567 -0.133 6.921 -0.049 0.04 0.393 0.124 1.206 0.186 1.739a8.18 8.18 0 0 1 -7.107 -1.69Zm8.082 1.42c-0.062 -0.535 -0.132 -1.228 -0.152 -1.424 0.745 0.025 1.488 0.099 2.223 0.221a6.418 6.418 0 0 1 -2.071 1.203Z" stroke-width="1"></path><path id="vector_16" fill="#501200" d="M36.212 89.674c-1.56 -0.817 -1.425 -3.208 -1.335 -4.79 0.395 -7 -8.262 -8.014 -8.492 -3.087a6.1 6.1 0 0 0 2.864 5.162 0.5 0.5 0 0 1 0.163 0.688c-0.682 1.107 -4.027 -2.2 -4.027 -5.873 0.161 -3.458 3.654 -4.859 6.678 -3.561 6.111 2.529 2.386 9.408 4.613 10.575a0.5 0.5 0 1 1 -0.464 0.886Z" stroke-width="1"></path><path id="vector_17" fill="#501200" d="M55.331 120.942a26.69 26.69 0 0 1 -8.189 -3.915c-2.481 -1.737 -2.508 -1.895 -2.84 -2.748 -2.094 -5.38 3.763 -12.577 4.758 -14.387 2.262 -3.908 3.377 -4.13 2.691 -4.7a0.5 0.5 0 0 0 -0.7 0.068 31.727 31.727 0 0 0 -2.878 4.164c-2.418 3.594 -6.268 9.318 -5.108 14.226a31.006 31.006 0 0 1 -1.807 -1.931 0.502 0.502 0 0 0 -0.693 -0.04 0.5 0.5 0 0 0 -0.066 0.69 30.486 30.486 0 0 0 14.571 9.534 0.502 0.502 0 0 0 0.569 -0.361 0.501 0.501 0 0 0 -0.308 -0.6Z" stroke-width="1"></path><path id="vector_18" fill="#501200" d="M76.259 78.485c-3.21 0.865 -1.658 4.554 -4.559 6.768 0.462 -2.586 0.692 -5.209 0.685 -7.836a0.5 0.5 0 0 0 -1 0c0 7.9 -2.606 13.355 -0.786 18.839a0.5 0.5 0 0 0 0.974 -0.182c0.006 -0.82 -1.3 -1.424 -0.1 -9.485 4.471 -2.749 2.305 -6.4 5.038 -7.136 1.83 -0.493 2.89 1.8 2.846 3.7 -0.054 2.325 -1.55 4.431 -4.523 6.638a0.5 0.5 0 0 0 0.595 0.8c8.271 -6.133 4.408 -13.07 0.83 -12.106Z" stroke-width="1"></path><path id="vector_19" fill="#501200" d="M90.271 110.479a0.503 0.503 0 0 1 -0.5 -0.5 0.5 0.5 0 0 1 0.5 -0.5c0.907 0 0.89 -1.374 0.633 -2.148 -1.006 -3.313 -7.567 -10.671 3.452 -11.152 2.373 -0.1 5.327 -0.234 6.419 -1.972 2.05 -3.267 -8 -8.565 -1.716 -11.628 0.84 -0.402 1.731 -0.69 2.648 -0.856a0.5 0.5 0 0 1 0.575 0.411c0.127 0.76 -0.623 0.363 -2.8 1.35 -5.09 2.483 4.768 7.063 2.137 11.255 -2.542 4.044 -11.185 1 -12.359 4.19 -0.935 2.406 1.841 5.616 2.594 8.1 0.522 1.556 0.095 3.45 -1.583 3.45Z" stroke-width="1"></path><path id="vector_20" fill="#f9f5e5" d="M71.106 147.759c-0.282 0.777 -1.916 8.338 -2.652 10.731a0.5 0.5 0 0 0 0.956 0.294c0.637 -2.069 2.567 -10.5 2.567 -10.5 0.617 -1.673 -1.069 -1.301 -0.871 -0.525Z" stroke-width="1"></path><path id="vector_21" fill="#f9f5e5" d="M67.65 172.242c-0.749 -1.125 -11.645 0.142 -16.272 0 -13.713 -0.506 -23.633 -1.991 -26.4 -16.577a0.5 0.5 0 1 0 -0.983 0.187c2.735 14.394 12.747 17.4 27.975 17.4 2.289 0 8.9 -0.393 11.965 -0.452 3.59 -0.144 3.19 0.4 3.579 0.139a0.506 0.506 0 0 0 0.212 -0.516 0.501 0.501 0 0 0 -0.076 -0.181Z" stroke-width="1"></path></g><g id="elements"><path id="vector_22" fill="#501200" d="M123.349 78.434c-0.337 0 -0.147 0.094 -34.989 -35.963a0.5 0.5 0 0 1 0.719 -0.695c32.646 33.786 36.098 36.658 34.27 36.658Z" stroke-width="1"></path><path id="vector_23" fill="#501200" d="M147.715 85.449c-0.571 0 -0.344 0.115 -24.323 -71.223a0.508 0.508 0 0 1 0.026 -0.382 0.505 0.505 0 0 1 0.482 -0.276 0.49 0.49 0 0 1 0.343 0.17 0.51 0.51 0 0 1 0.097 0.169c24.617 72.962 24.517 71.542 23.375 71.542Z" stroke-width="1"></path><path id="vector_24" fill="#501200" d="M165.674 91.875c2.068 -72.485 1.715 -72.491 2.582 -72.476 0.867 0.015 0.5 0.038 -1.582 72.505a0.5 0.5 0 1 1 -1 -0.029Z" stroke-width="1"></path><path id="vector_25" fill="#501200" d="M133.022 75.038c-0.376 0 -0.168 0.1 -31.989 -38.726a0.503 0.503 0 0 1 0.075 -0.698 0.501 0.501 0 0 1 0.699 0.065c31.611 38.463 32.818 39.359 31.215 39.359Z" stroke-width="1"></path><path id="vector_26" fill="#501200" d="M156.723 83.972c-0.622 0 -0.361 0.083 -18.428 -72.887a0.501 0.501 0 0 1 0.744 -0.548 0.5 0.5 0 0 1 0.227 0.308c18.325 74.355 18.516 73.127 17.457 73.127Z" stroke-width="1"></path><path id="vector_27" fill="#501200" d="M174.021 91.908c7.991 -72.107 7.664 -72.152 8.526 -72.063 0.862 0.089 0.534 0.127 -7.532 72.173a0.49 0.49 0 0 1 -0.184 0.335 0.51 0.51 0 0 1 -0.368 0.107 0.503 0.503 0 0 1 -0.442 -0.552Z" stroke-width="1"></path></g><g id="coin 3"><path id="vector_28" fill="#ffb949" d="M127.336 34.3c-5.52 -1.923 -11.2 -0.511 -13.921 3.053a12.598 12.598 0 0 0 -1.584 13.191c4.7 9.415 19.89 9.019 24.144 -2.806 1.834 -5.102 -2.067 -11.152 -8.639 -13.438Z" stroke-width="1"></path><g id="group_2"><path id="vector_29" fill="#f9f5e5" d="m127.927 40.869 0.812 8.195 -8.122 -2.215 5.686 -0.738 1.624 -5.242Z" stroke-width="1"></path><path id="vector_30" fill="#f9f5e5" d="m126.672 39.392 -1.846 4.873 -5.242 1.108 -0.813 -8.344 7.901 2.363Z" stroke-width="1"></path></g><path id="vector_31" fill="#f9f5e5" d="M127.573 33.9c-13.2 -4.548 -20.49 8.245 -16.194 16.858 3.214 6.443 11.235 8.328 16.655 6.158 4.146 -1.612 7.657 -6.38 8.562 -8.869 1.966 -5.41 -2.181 -11.792 -9.023 -14.147ZM111.3 43.073a9.145 9.145 0 0 0 1.386 4.145l-0.82 2.2a10.64 10.64 0 0 1 -0.566 -6.345Zm1.166 7.607 0.906 -2.435c2.779 3.961 3.085 1.3 1.342 5.362a10.807 10.807 0 0 1 -2.253 -2.927h0.005Zm3.043 3.6c0.03 -0.049 1.125 -2.611 1.148 -2.663a14.58 14.58 0 0 0 3.032 1.71l-1.177 2.6a11.518 11.518 0 0 1 -3.012 -1.651l0.009 0.004Zm3.961 1.957c1.729 -3.822 0.215 -2.245 4.522 -1.721l-1.231 2.239a17.329 17.329 0 0 1 -3.296 -0.522l0.005 0.004Zm12.016 -2.724a12.445 12.445 0 0 1 -2.711 1.97c0.957 -1.983 0.114 -0.752 2.706 -1.974l0.005 0.004Zm-4.13 2.587a11.779 11.779 0 0 1 -3.455 0.643c1.741 -3.166 0.259 -1.666 4.246 -2.271l-0.791 1.628Zm8.3 -8.4c-2.091 5.751 -8.815 7.108 -14.515 5.094 -8.759 -2.852 -12.517 -13.533 -4.188 -17.624 8.947 -4.394 21.77 4.097 18.703 12.53Z" stroke-width="1"></path></g><g id="coin 2"><path id="vector_32" fill="#ffb949" d="M187.6 60.769c-2.57 -3.948 -8.5 -5.515 -14.26 -3.509 -6.571 2.289 -10.579 8.377 -8.712 13.512 4.53 12.461 19.723 11.959 24.218 2.732 0.3 -0.004 3.033 -6.157 -1.246 -12.735Z" stroke-width="1"></path><g id="group_3"><path id="vector_33" fill="#f9f5e5" d="m179.465 59.549 0.886 8.196 -5.243 0.221 -3.027 -4.43 7.384 -3.987Z" stroke-width="1"></path><path id="vector_34" fill="#f9f5e5" d="m179.465 69.517 -7.236 3.913 -1.108 -8.417 2.88 4.947 5.464 -0.443Z" stroke-width="1"></path></g><path id="vector_35" fill="#f9f5e5" d="M184.161 57.165c-9.688 -4.758 -23.489 4.407 -20.078 13.787 1.042 2.864 4.528 7.321 8.551 9 5.375 2.149 13.461 0.409 16.651 -6.14 3.356 -6.436 -0.276 -14.266 -5.124 -16.647Zm-10.736 0.568a13.59 13.59 0 0 1 10.295 0.329c10.024 4.924 2.558 17.522 -7.923 18.341a11.164 11.164 0 0 1 -9.325 -3.307c-4.082 -4.538 -1.209 -12.551 6.953 -15.363Zm7.516 18.391a13.909 13.909 0 0 0 2.982 -1.637l1.294 2.793a11.25 11.25 0 0 1 -3.049 1.706l-1.227 -2.862Zm-7.67 3 -0.82 -1.845c3.989 0.625 2.5 -0.935 4.3 2.5a11.722 11.722 0 0 1 -3.48 -0.657v0.002Zm-4.392 -2.95c3.039 1.551 1.934 -0.119 3.013 2.31a13.39 13.39 0 0 1 -3.013 -2.312v0.002Zm9.007 3.617 -1.286 -2.453c4.383 -0.5 2.831 -2.2 4.6 1.931a17.042 17.042 0 0 1 -3.314 0.52v0.002Zm8.119 -3.188c-1.939 -4.184 -1.567 -1.5 1.272 -5.5l0.921 2.641a11.237 11.237 0 0 1 -2.193 2.856v0.003Zm2.806 -4.142 -0.835 -2.394a8.938 8.938 0 0 0 1.383 -4.037 10.654 10.654 0 0 1 -0.548 6.429v0.002Z" stroke-width="1"></path></g><g id="coin 1"><g id="group_4"><path id="vector_36" fill="#ffb949" d="M147.567 97.279c-12.548 -4.206 -19.761 7.785 -15.5 16.318 3.057 6.13 10.676 7.987 16.022 5.907 4.387 -1.707 7.689 -7.091 8.2 -8.639 1.742 -5.348 -2.08 -11.359 -8.722 -13.586Z" stroke-width="1"></path><g id="group_5"><path id="vector_37" fill="#f9f5e5" d="m148.897 105.254 -0.074 8.269 -7.901 -3.101 5.686 -0.148 2.289 -5.02Z" stroke-width="1"></path><path id="vector_38" fill="#f9f5e5" d="m147.789 103.629 -2.363 4.726 -5.39 0.517 0.074 -8.418 7.679 3.175Z" stroke-width="1"></path></g></g><path id="vector_39" fill="#f9f5e5" d="M147.8 96.807c-13.221 -4.553 -20.482 8.335 -16.194 16.931 3.233 6.48 11.266 8.313 16.651 6.16 4.127 -1.561 7.583 -6.239 8.566 -8.945 1.97 -5.408 -2.177 -11.79 -9.023 -14.146Zm-16.26 9.168a8.95 8.95 0 0 0 1.4 4.136l-0.864 2.269a10.636 10.636 0 0 1 -0.532 -6.405h-0.004Zm1.131 7.656 0.955 -2.506c2.81 3.974 3.184 1.332 1.313 5.468a10.835 10.835 0 0 1 -2.264 -2.962h-0.004Zm7.3 2.551 -1.2 2.737a11.53 11.53 0 0 1 -3.035 -1.658l1.241 -2.743c0.93 0.671 1.936 1.229 2.997 1.664h-0.003Zm-0.243 3.042c1.78 -4.055 0.173 -2.371 4.574 -1.866l-1.249 2.378a17.199 17.199 0 0 1 -3.322 -0.512h-0.003Zm7.855 -0.141a11.69 11.69 0 0 1 -3.394 0.64c1.754 -3.339 0.249 -1.8 4.237 -2.424l-0.843 1.784Zm1.388 -0.6c1.138 -2.409 0.049 -0.75 3.084 -2.313a12.114 12.114 0 0 1 -3.081 2.316l-0.003 -0.003Zm6.913 -7.874c-2.937 8.081 -16.451 7.871 -21.87 -0.7 -5.194 -7.175 2.837 -15.812 13.462 -12.155 6.324 2.175 10.183 7.984 8.411 12.858l-0.003 -0.003Z" stroke-width="1"></path></g><g id="bill 3"><path id="vector_40" fill="#ff7449" d="M152.219 82.291c-7.053 -8.1 -10.364 -19.552 -12.035 -20.527 -0.665 -0.443 -8.639 3.544 -11.149 4.652 0.147 0.812 0.59 2.362 0.59 2.436 -0.216 0.109 -2.51 1.521 -3.544 2.142 1.255 5.537 13.66 21.043 15.432 21.634 1.387 0.462 6.473 -1.222 12.035 -7.9 0.369 -0.813 -0.886 -1.921 -1.329 -2.437Z" stroke-width="1"></path><path id="vector_41" fill="#f9f5e5" d="M152.087 85.408c-1.124 1.123 -8.282 4.555 -9.934 3.807 -1.2 -0.53 -9.464 -13.128 -11.98 -20.6a0.5 0.5 0 0 0 -0.633 -0.314c-1.8 0.6 9.746 20.769 12.209 21.824 2.284 1.041 9.92 -2.89 11.045 -4.014a0.5 0.5 0 0 0 -0.707 -0.703Z" stroke-width="1"></path><path id="vector_42" fill="#f9f5e5" d="M137.32 77.518c-0.283 0.202 -0.554 0.42 -0.812 0.653a0.497 0.497 0 0 0 -0.109 0.545 0.503 0.503 0 0 0 0.462 0.309c0.282 0 0.245 -0.117 1.018 -0.663 0.168 -0.169 0.052 -0.068 0.907 0.644a2.124 2.124 0 0 0 2.507 0.364c1.814 -1.335 -0.734 -4.264 -1.345 -5.311 -1.546 -2.581 2.964 -0.1 3.78 2.019 -0.581 1.111 2.465 1.2 0.091 -1.709 -0.7 -0.861 -0.722 -0.318 0.206 -1.229a0.511 0.511 0 0 0 0.276 -0.472 0.513 0.513 0 0 0 -0.313 -0.449c-0.373 -0.157 -0.6 0.175 -0.758 0.278 -0.1 0.067 -0.683 0.593 -0.709 0.626 -1.016 -0.8 -2.361 -1.475 -3.414 -0.855 -1.051 0.656 -0.274 1.965 0.423 2.964 2.464 3.542 1.134 3.883 -0.133 2.983 -2.972 -2.477 -2.423 -4.665 -3.445 -4.3 -0.952 0.351 0.8 2.897 1.368 3.603Z" stroke-width="1"></path></g><g id="bill 2"><path id="vector_43" fill="#ff7449" d="M174.591 22.114c-1.668 -0.581 -2.506 3.595 -12.109 9.082 0.18 0 -9.148 5.3 -9.6 6.2 -0.37 0.739 4.282 8.344 5.611 10.706 5.613 -1.19 21.4 -12.963 22.077 -14.841 0.805 -2.216 -4.346 -10.578 -5.979 -11.147Z" stroke-width="1"></path><path id="vector_44" fill="#f9f5e5" d="M170.768 36.535c-1.212 -2.788 -6.656 1.142 -6.919 0.283 -0.372 -1.214 2.672 -3.551 4.063 -3.769 0.929 0.812 1.822 -2.191 -1.774 -0.362 -0.872 0.523 -0.631 0.751 -1.311 -0.486 -0.043 -0.744 -1.517 -0.657 -0.767 0.675 0.093 0.141 0.3 0.512 0.528 0.907 -2.487 2.158 -2.434 4.844 0.71 3.868 0.964 -0.3 4.045 -1.883 4.547 -0.732 0.286 0.717 -1.031 1.739 -1.9 2.173 -3.042 1.521 -4.184 0.9 -4.035 1.785a0.503 0.503 0 0 0 0.575 0.411c3.614 -0.6 3.131 -1.645 3.63 -0.481 0.154 0.359 0.254 0.709 0.645 0.709a0.499 0.499 0 0 0 0.447 -0.723c-0.666 -1.336 -0.475 -0.847 0.644 -1.786 0.372 -0.372 1.361 -1.362 0.917 -2.472Z" stroke-width="1"></path></g><g id="bill 1"><path id="vector_45" fill="#ff7449" d="M184.781 94.843c1.55 0.664 6.292 9.236 5.39 11.444 -0.726 1.778 -17.13 12.922 -22.815 13.734 -1.256 -2.437 -5.464 -10.263 -5.095 -11 0.517 -0.886 7.849 -4.392 12.921 -7.383 6.552 -3.867 8.145 -7.28 9.599 -6.795Z" stroke-width="1"></path><path id="vector_46" fill="#f9f5e5" d="M179.893 107.876c-1.414 -2.358 -5.218 1.4 -5.956 1 -0.418 -0.886 1.241 -2.676 2.116 -3.228 1.2 -0.756 0.885 -0.282 1.309 -0.451 0.793 -0.319 0.131 -2.261 -2.553 0.15a4.81 4.81 0 0 1 -0.466 -0.523c-0.74 -1.11 -1.683 -0.026 -0.765 0.649 0.164 0.204 0.339 0.399 0.525 0.583 -2.119 2.389 -1.463 5.057 1.777 3.126 0.936 -0.557 2.679 -1.593 3.161 -0.788 0.141 0.227 -0.028 0.648 -0.458 1.165 -2.485 2.65 -4.545 1.958 -4.251 2.99a0.504 0.504 0 0 0 0.423 0.36 0.512 0.512 0 0 0 0.195 -0.016c3.006 -0.86 2.549 -1.883 3.207 -0.843a0.5 0.5 0 0 0 0.857 -0.514c-0.527 -0.882 -0.7 -0.227 0.318 -1.315 0.768 -0.921 0.957 -1.712 0.561 -2.345Z" stroke-width="1"></path></g><g id="laptop"><path id="vector_47" fill="#ffb949" d="M194.527 137.889c-5.2 11.318 -15.269 32.831 -18.828 40.758a5.144 5.144 0 0 1 -4.652 3.027c-10.116 0.074 -41.128 0.511 -55.967 0.812a5.254 5.254 0 0 1 -5.272 -4.766 5.243 5.243 0 0 1 0.398 -2.544c5.217 -11.866 15.176 -34.791 18.9 -43.267a5.272 5.272 0 0 1 4.947 -3.175c10.414 0.147 41.278 1.157 55.968 1.7a5.265 5.265 0 0 1 2.424 0.747 5.275 5.275 0 0 1 2.082 6.708Z" stroke-width="1"></path><path id="vector_48" fill="#ffb949" d="M110.059 181.822H89.385a1.995 1.995 0 0 1 -1.845 -1.23 1.98 1.98 0 0 1 -0.149 -0.764v-2.51a1.993 1.993 0 0 1 1.994 -1.994h18.828s-1.698 4.209 1.846 6.498Z" stroke-width="1"></path><path id="vector_49" fill="#f9f5e5" d="M157.018 154.65c4.085 0.093 3.574 6.076 -0.147 5.907 -3.913 -0.178 -3.771 -5.996 0.147 -5.907Z" stroke-width="1"></path></g></g></svg>