<svg xmlns="http://www.w3.org/2000/svg" fill="none" viewBox="0 0 200 200"><g id="bills-payment-1--finance-bills-payment"><g id="phone"><path id="vector" fill="#f9f5e5" d="M160.87 149.608a5.191 5.191 0 0 0 -0.961 -2.292L72.967 64.884s-5.619 -6.432 -13.086 -1.184L19 91.35a8.43 8.43 0 0 0 -2 4.067 5.247 5.247 0 0 0 2.218 4.953c4.9 4.04 87.608 86.647 87.608 86.647s6.292 6.591 12.568 1.627c7.182 -5.681 38.075 -31.644 38.075 -31.644s4.089 -3.477 3.401 -7.392Z" stroke-width="1"></path><path id="vector_2" fill="#ff7449" d="M138.1 146.873c-0.385 -2.6 -6.284 -7.135 -8.429 -7.172 -2.069 -0.035 -5.249 2.218 -6.8 3.4 -2.662 2 -16.487 12.864 -16.487 12.864a1.98 1.98 0 0 0 -0.665 1.479c0.074 0.813 0.813 1.405 1.331 1.922 1.478 1.405 6.658 5 7.762 5.249 3.046 0.676 4.436 -0.813 5.989 -2.07 5.545 -4.436 9.833 -7.91 11.9 -9.611 2.441 -2.069 5.661 -4.293 5.399 -6.061Z" stroke-width="1"></path><path id="vector_3" fill="#501200" d="M107.168 177.915c-3.776 0 -6.7 -2.945 -6.743 -2.987 -0.7 -0.69 -71.225 -69.738 -75.379 -73.164 -3.195 -2.663 -2.374 -6.633 0.975 -8.93 6.3 -4.315 34.7 -23.407 34.985 -23.6a8.92 8.92 0 0 1 11.867 0.949l74.867 69.543c2.24 2.912 0.408 6.5 -2.142 8.9 -0.292 0.242 -27.521 22.7 -33.737 27.6a7.537 7.537 0 0 1 -4.693 1.689ZM66.512 68.105a8.927 8.927 0 0 0 -5.091 1.74c-0.289 0.195 -28.69 19.286 -34.982 23.6 -2.953 2.026 -3.721 5.418 -0.921 7.751 4.177 3.444 72.523 70.364 75.431 73.211 0.217 0.223 5.241 5.263 10.457 1.229 6.207 -4.892 33.429 -27.343 33.7 -27.569 2.28 -2.139 3.985 -5.36 2.086 -7.844L72.346 70.7a8.367 8.367 0 0 0 -5.834 -2.595Z" stroke-width="1"></path><path id="vector_4" fill="#501200" d="M160.164 147.049 73.245 64.641c-0.059 -0.067 -5.926 -6.622 -13.571 -1.246L19.49 90.572c-2.729 1.845 -5.667 8.852 -0.543 14.559 4.318 4.684 86.728 85.827 87.539 86.651 0.047 0.049 3.485 3.579 7.809 3.578a8.154 8.154 0 0 0 5.182 -1.916c7.02 -5.558 37.772 -31.316 38.08 -31.574 3.915 -3.228 6.222 -10.229 2.607 -14.821ZM19.9 91.184 60.093 64a9.14 9.14 0 0 1 12.619 1.149l86.906 82.392c2.161 2.777 0.288 6.887 -2.387 9.175 -0.309 0.26 -30.98 26.084 -38.065 31.634 -5.941 4.686 -11.825 -1.332 -12.078 -1.6 -3.379 -3.372 -82.8 -82.639 -87.635 -86.672 -3.617 -2.942 -1.894 -7.308 0.447 -8.894Z" stroke-width="1"></path><path id="vector_5" fill="#501200" d="M140.935 166.711c-0.467 -4.271 -5.761 -6.51 -8.068 -4.029 -0.1 0.067 -2.014 2.111 -2.076 3.936a4.572 4.572 0 0 0 1.259 3.338c1.859 2.2 5.022 2.793 7.863 -0.051a3.826 3.826 0 0 0 1.022 -3.194Zm-6.93 2.086c-2.077 -2.075 -1.678 -4.81 -0.665 -5.553 2.047 -2.154 6.472 0 6.86 3.547 0.377 3.466 -3.59 4.609 -6.195 2.009v-0.003Z" stroke-width="1"></path><path id="vector_6" fill="#501200" d="M138.251 146.082c-1.159 -2.7 -6.358 -6.712 -8.58 -6.75 -1.977 -0.034 -4.658 1.755 -7.019 3.471 -2.71 1.978 -16.361 12.764 -16.53 12.9a4.826 4.826 0 0 0 0.894 6.74c1.441 1.369 6.715 5.095 7.856 5.339a6.49 6.49 0 0 0 1.563 0.2c2.2 0 3.453 -1.3 4.746 -2.343 4.6 -3.74 10.325 -8.093 11.906 -9.392 4.082 -3.402 7.327 -5.123 5.164 -10.165Zm-31.639 10.174c0.138 -0.109 13.777 -10.886 16.475 -12.855 1.37 -1 4.58 -3.364 6.572 -3.33 1.805 0.031 6.556 3.67 7.794 5.991a1.671 1.671 0 0 1 0.14 1.62c-0.515 1.185 -2.287 2.634 -3.886 3.941 -0.422 0.346 -13.461 10.9 -13.622 11.035 -1.362 1.141 -2.649 2.218 -5.2 1.6 -0.881 -0.189 -5.935 -3.658 -7.545 -5.184 -1.095 -0.827 -1.815 -1.717 -0.728 -2.818Z" stroke-width="1"></path><path id="vector_7" fill="#f9f5e5" d="M121.941 156.894c0.105 -0.085 0.109 -0.1 0.426 -0.348 0.7 -0.556 1.274 -1.592 0.639 -2.221 -0.487 -0.585 -1.465 -0.444 -2.049 -0.36 -0.189 0.031 -1.655 0.424 -2.491 0.716 -0.681 -0.434 -1.277 -0.846 -1.688 -1.121a9.108 9.108 0 0 1 1.6 -1.083c0.147 -0.082 0.624 -0.041 0.674 -0.431a0.394 0.394 0 0 0 -0.643 -0.345 8.535 8.535 0 0 0 -2.285 1.427 8.576 8.576 0 0 1 -1.513 -1.065 0.366 0.366 0 0 0 -0.408 -0.049 0.374 0.374 0 0 0 -0.201 0.358 0.38 0.38 0 0 0 0.128 0.252c0.436 0.382 0.904 0.725 1.4 1.025 -2.07 1.933 -1.277 3.394 1.221 2.38a15.184 15.184 0 0 0 1.608 -0.528 47.838 47.838 0 0 0 2.221 1.429c-3.138 1.823 -4.228 1.284 -4.056 2a0.372 0.372 0 0 0 0.301 0.279 0.367 0.367 0 0 0 0.144 -0.005 15.013 15.013 0 0 0 4.329 -1.844c0.6 0.372 1.142 0.729 1.516 0.979a0.372 0.372 0 0 0 0.561 -0.38 0.375 0.375 0 0 0 -0.15 -0.235c-0.325 -0.213 -0.776 -0.511 -1.284 -0.83Zm0.519 -2.071c0.277 0.274 -0.246 0.9 -0.551 1.143 -0.259 0.2 -0.255 0.207 -0.632 0.519a42.573 42.573 0 0 1 -2.026 -1.281c0.723 -0.223 2.769 -0.904 3.209 -0.381Zm-5.938 0.5c-1.159 0.464 -1.845 0.549 -1.181 -0.338 0.24 -0.348 0.524 -0.663 0.845 -0.937 0 0 1.046 0.7 1.41 0.939 -0.349 0.128 -0.705 0.246 -1.074 0.34v-0.004Z" stroke-width="1"></path><path id="vector_8" fill="#f9f5e5" d="M130.51 151.793a53.765 53.765 0 0 0 -1.343 -0.872c0.511 -0.437 1.319 -1 1.357 -1.851a0.954 0.954 0 0 0 -0.273 -0.733c-0.544 -0.654 -1.768 -0.446 -2.593 -0.224 -0.654 0.176 -1.326 0.361 -1.972 0.587 -0.674 -0.432 -1.175 -0.777 -1.7 -1.127 0.206 -0.176 0.425 -0.336 0.655 -0.479 0.303 -0.268 0.66 -0.469 1.046 -0.589 0.3 -0.077 0.577 -0.151 0.608 -0.448a0.394 0.394 0 0 0 -0.693 -0.294 3.3 3.3 0 0 0 -1.373 0.719 5.759 5.759 0 0 0 -0.887 0.674 8.756 8.756 0 0 1 -1.418 -1.007 0.37 0.37 0 0 0 -0.521 0.04 0.371 0.371 0 0 0 0.041 0.521c0.41 0.357 0.847 0.681 1.307 0.97a5.438 5.438 0 0 0 -0.8 0.927c-0.97 1.288 -0.117 2.306 2.038 1.434a14.907 14.907 0 0 0 1.585 -0.521 47.265 47.265 0 0 0 2.218 1.436c-3.122 1.807 -4.2 1.273 -4.031 1.991a0.372 0.372 0 0 0 0.301 0.279 0.387 0.387 0 0 0 0.144 -0.006 14.99 14.99 0 0 0 4.306 -1.83c0.626 0.384 1.191 0.758 1.614 1.039a0.373 0.373 0 0 0 0.51 -0.126 0.373 0.373 0 0 0 -0.126 -0.51Zm-0.8 -2.958c0.276 0.274 -0.248 0.9 -0.552 1.143 -0.304 0.243 -0.26 0.211 -0.652 0.536a45.34 45.34 0 0 1 -2.031 -1.29c0.703 -0.224 2.785 -0.924 3.231 -0.389h0.004Zm-5.938 0.5c-0.984 0.394 -1.85 0.552 -1.182 -0.339a4.82 4.82 0 0 1 0.83 -0.922l1.4 0.933c-0.343 0.125 -0.691 0.24 -1.052 0.332l0.004 -0.004Z" stroke-width="1"></path></g><g id="paper roll"><path id="vector_9" fill="#fccac2" d="M121.687 126.32c-4.145 -3.173 -8.454 -10.421 -9.094 -15.525 -1.156 -9.236 0.529 -15.086 1.183 -24.176 0.2 -2.81 -0.077 -7.895 -3.622 -8.723 -1.554 -0.364 -8.724 4.214 -16.265 9.389l-0.074 -0.074c-2.587 -1.553 -2.215 -6.284 -1.774 -8.576 2.648 -13.774 13.728 -42.214 -11.312 -34.156 -9.081 2.921 -24.029 9.685 -33.49 14.047v0.148a9.856 9.856 0 0 1 5.545 0.517c7.394 2.891 8.653 12.749 7.171 20.331 -2.268 11.6 -11.4 30.1 -3.327 38.961a3.54 3.54 0 0 0 4.953 0.518c4.891 -3.668 7.9 -16.3 15.082 -19.518a2.792 2.792 0 0 1 3.845 1.183c2.351 3.805 0.706 10.632 0 15.526 -2.176 15.067 4.657 34.229 17.078 39.922 0.221 0 31.272 -23.953 31.272 -23.953 0 -0.074 -4.365 -3.693 -7.171 -5.841Z" stroke-width="1"></path><g id="group"><path id="vector_10" fill="#f9f5e5" d="M76.589 99.483c-7.261 3.256 -10.035 15.733 -15.082 19.517 4.059 -2.31 19.292 -11.607 20.036 -11.607 0.383 -4.34 -0.981 -9.693 -4.954 -7.91Z" stroke-width="1"></path><path id="vector_11" fill="#f9f5e5" d="M52.858 59.117c-11.709 -4.336 -18.047 12.3 -20.7 24.47a64.38 64.38 0 0 0 -1.331 9.243c-0.076 1.108 0.148 5.618 0.222 6.653 0.091 -0.453 28.217 -20.11 28.907 -20.11 0.221 -1.072 0.37 -2.159 0.443 -3.252 0.468 -6.288 -0.676 -14.462 -7.541 -17.004Z" stroke-width="1"></path></g><path id="vector_12" fill="#501200" d="M129.1 131.877c-0.044 -0.037 -4.4 -3.652 -7.183 -5.85 -4.12 -3.163 -8.3 -10.3 -8.952 -15.276 -1.1 -9.214 0.589 -14.944 1.185 -24.1 0.149 -1.894 0.309 -8.147 -3.906 -9.113 -0.959 -0.233 -3.683 0.624 -16.24 9.226 -2.025 -1.319 -2.092 -5.184 -1.521 -8.132 2.348 -12.3 14.126 -43.037 -11.787 -34.577 -10.482 3.32 -33.611 13.93 -33.731 14.277 -9.16 2.38 -13.6 18.351 -15.093 25.169a49.091 49.091 0 0 0 -1.34 9.3c-0.079 1.093 0.156 5.737 0.221 6.7a0.37 0.37 0 0 0 0.677 0.18c0.859 -0.848 20.414 -14.7 28.171 -19.651 -2.584 11.8 -11.331 29.795 -3.246 38.7a3.991 3.991 0 0 0 5.41 0.59c4.676 -2.663 14.405 -8.721 19.513 -11.373 -0.2 2.97 -0.8 5.988 -1.136 8.191 -2.02 14.714 4.445 34.423 17.29 40.309 0.292 0.136 0.2 0.265 31.652 -24a0.368 0.368 0 0 0 0.016 -0.57ZM31.45 98.763c-0.091 -1.66 -0.243 -5.051 -0.181 -5.916a48.56 48.56 0 0 1 1.323 -9.18c2.582 -11.8 8.961 -28.6 20.213 -24.2 7.451 2.912 7.659 12.6 7.373 16.706 -0.066 0.962 -0.19 1.918 -0.372 2.865 -0.796 0.362 -23.74 15.994 -28.356 19.725Zm25.45 19.472c-8.713 -9.593 3.281 -30.957 4.014 -42.014 0.3 -4.274 0.063 -14.355 -7.841 -17.445a10.231 10.231 0 0 0 -4.022 -0.721c14.592 -6.744 25.314 -11.221 31.866 -13.3 3.384 -1.106 8.285 -2.35 11.757 -0.4 8.137 4.5 1 24.032 -0.923 34.131 -0.217 1.12 -1.108 6.61 1.605 8.712C91.222 88.666 76.3 99.118 76.192 99.3c-6.412 3.252 -8.576 11.851 -13.354 18 -1.638 2.109 -4.071 2.977 -5.938 0.935Zm6.846 -0.922c4.282 -5.574 6.973 -14.758 13.06 -17.489 3.565 -1.6 4.713 3.359 4.525 7.262 -4.274 2.176 -12.309 7.114 -17.584 10.227h-0.001Zm33.808 38.38c-12.423 -5.854 -18.655 -25.07 -16.682 -39.446 0.7 -4.628 2.384 -11.717 -0.053 -15.779a3.175 3.175 0 0 0 -2.686 -1.674c2.7 -1.917 29.256 -21.191 31.937 -20.538 3.734 0.856 3.435 7.093 3.337 8.339 -0.59 9.069 -2.3 14.966 -1.181 24.248 0.67 5.138 4.986 12.508 9.231 15.767 2.309 1.823 5.71 4.631 6.809 5.541 -10.214 7.878 -28.812 22.193 -30.711 23.542h-0.001Z" stroke-width="1"></path><g id="group_2"><path id="vector_13" fill="#ff7449" d="M64.243 63.553a0.37 0.37 0 0 1 -0.167 -0.7 128.909 128.909 0 0 1 26.247 -9.861 0.37 0.37 0 0 1 0.182 0.717c-16.214 4.12 -25.636 9.844 -26.262 9.844Z" stroke-width="1"></path><path id="vector_14" fill="#ff7449" d="M64.051 75.9c0.3 -0.69 1.534 -1.049 2.022 -1.294a206.34 206.34 0 0 1 24 -10.368 0.371 0.371 0 1 1 0.248 0.7 205.446 205.446 0 0 0 -23.9 10.327c-0.4 0.2 -1.542 0.594 -1.686 0.93a0.373 0.373 0 0 1 -0.684 -0.295Z" stroke-width="1"></path><path id="vector_15" fill="#ff7449" d="M63.208 88.246a0.37 0.37 0 0 1 -0.1 -0.727c0.15 -0.072 0.662 -0.412 0.819 -0.491 2.255 -1.435 5.2 -3.017 7.294 -4.274a150.655 150.655 0 0 1 17.424 -8.528 0.37 0.37 0 0 1 0.279 0.685A149.941 149.941 0 0 0 71.6 83.392c-2.182 1.311 -4.437 2.49 -7.305 4.28 -0.278 0.143 -0.851 0.574 -1.087 0.574Z" stroke-width="1"></path><path id="vector_16" fill="#ff7449" d="M63.03 102.668c-0.2 -0.433 0.111 -0.435 2.692 -2.371 3.4 -2.45 14.176 -9.365 21.557 -13.411a0.372 0.372 0 0 1 0.546 0.284 0.37 0.37 0 0 1 -0.19 0.365 255.372 255.372 0 0 0 -23.857 15.1 0.42 0.42 0 0 1 -0.587 0.195 0.417 0.417 0 0 1 -0.161 -0.162Z" stroke-width="1"></path><path id="vector_17" fill="#ff7449" d="M86.95 106.537c-0.091 -0.3 0.087 -0.416 0.746 -0.856 3.219 -2.3 14.64 -9.57 21.061 -14.114a0.369 0.369 0 0 1 0.427 0.6c-5.644 4 -20.582 13.681 -21.57 14.47a0.372 0.372 0 0 1 -0.55 0.072 0.37 0.37 0 0 1 -0.114 -0.172Z" stroke-width="1"></path><path id="vector_18" fill="#ff7449" d="M88.627 121.212c-0.192 -0.311 0 -0.5 0.9 -1.176 1 -1.017 9.9 -8.2 19.076 -15.009a0.365 0.365 0 0 1 0.269 -0.057 0.368 0.368 0 0 1 0.171 0.651c-11.4 8.46 -16.256 12.681 -18.131 14.193 -0.314 0.243 -0.614 0.503 -0.9 0.779 -0.239 0.182 -0.508 0.4 -0.659 0.53a0.433 0.433 0 0 1 -0.338 0.249 0.427 0.427 0 0 1 -0.388 -0.16Z" stroke-width="1"></path><path id="vector_19" fill="#ff7449" d="M93.3 132.9a0.366 0.366 0 0 1 -0.34 -0.229 0.368 0.368 0 0 1 0.079 -0.402c2.916 -2.91 13.006 -10.811 17.348 -13.866a0.374 0.374 0 0 1 0.276 -0.062 0.373 0.373 0 0 1 0.239 0.151c0.462 0.656 -0.536 0.241 -11.674 9.444 -5.134 4.242 -4.709 3.962 -5.1 4.286 -0.64 0.64 -0.638 0.678 -0.828 0.678Z" stroke-width="1"></path><path id="vector_20" fill="#ff7449" d="M96.844 144.835c0.027 -0.34 0.389 -0.514 2.517 -2.119 3.879 -2.926 13.1 -9.412 19.469 -13.382a0.363 0.363 0 0 1 0.279 -0.046 0.37 0.37 0 0 1 0.112 0.673c-8.948 5.578 -21.051 14.456 -21.662 15.053a0.375 0.375 0 0 1 -0.648 0.071 0.374 0.374 0 0 1 -0.067 -0.25Z" stroke-width="1"></path></g></g><g id="elements"><path id="vector_21" fill="#ffb949" d="M61.138 37.751c-0.655 0 0.308 -0.14 -8.987 -20.77 -1.911 -4.262 -2.8 -5.69 -3.458 -7.075 -0.213 -0.449 -0.655 -1.379 -0.921 -1.828 -0.52 0.036 -0.5 -0.781 -0.073 -0.894 0.4 -0.107 0.606 0.183 1.662 2.4 0.7 1.468 1.611 2.955 3.464 7.089 3.237 7.186 6.124 13.694 8.659 20.577a0.37 0.37 0 0 1 -0.346 0.501Z" stroke-width="1"></path><path id="vector_22" fill="#ffb949" d="M49.753 35.312c-0.817 0 0.065 -1.844 -16.785 -22.075 -2.17 -2.605 -4.413 -5.3 -6.571 -8.006a0.37 0.37 0 0 1 0.578 -0.461c7.837 9.833 16.36 18.956 23.093 29.979a0.37 0.37 0 0 1 -0.315 0.563Z" stroke-width="1"></path><path id="vector_23" fill="#ffb949" d="M47.608 45.883c-0.637 0 -2.871 -3.336 -16.493 -14.051 -1.2 -0.91 -7.778 -5.919 -9.162 -6.508a0.38 0.38 0 0 1 -0.442 -0.363 0.422 0.422 0 0 1 0.209 -0.35c0.264 -0.144 0.484 -0.109 2.955 1.529a215.026 215.026 0 0 1 23.189 19.107 0.37 0.37 0 0 1 -0.256 0.636Z" stroke-width="1"></path></g><g id="coin 1"><path id="vector_24" fill="#ffb949" d="M141.632 82.029c-8.01 -1.457 -15.545 1.947 -17.936 7.771 -3.661 8.916 -0.817 16.119 5 20.248 4.9 3.48 12.867 3.482 17.891 0.592 5.214 -3 8.506 -10.382 8.945 -12.864 1.258 -7.111 -4.954 -14.121 -13.9 -15.747Z" stroke-width="1"></path><path id="vector_25" fill="#f9f5e5" d="M153.825 88.992c-5.446 -7.912 -18.17 -10.235 -26.054 -4.75 -3.513 2.444 -5.9 7.23 -6.165 12.214a15.663 15.663 0 0 0 9.412 15.309 18.732 18.732 0 0 0 15.756 -0.807c5.375 -3.176 8.7 -10.568 9.121 -13.114a11.624 11.624 0 0 0 -2.07 -8.852ZM122.58 94.46a12.408 12.408 0 0 0 2.876 7.053l-0.79 3.883a14.339 14.339 0 0 1 -2.086 -10.936Zm2.672 11.763 0.816 -4.009a17.353 17.353 0 0 0 4.3 3.465l-1.172 4.246a17.107 17.107 0 0 1 -3.944 -3.702Zm9.382 5.887a14.44 14.44 0 0 1 -4.789 -1.774l1.183 -4.289a19.395 19.395 0 0 0 4.718 1.765l-1.112 4.298Zm0.739 0.118 1.094 -4.252c1.72 0.352 3.479 0.483 5.232 0.388l-1.378 3.863a22.366 22.366 0 0 1 -4.948 0.001Zm10.78 -1.785a15.1 15.1 0 0 1 -5.008 1.668l1.356 -3.81a19.997 19.997 0 0 0 4.614 -1.043c-0.949 3.101 -0.947 3.073 -0.962 3.185Zm0.932 -0.561c0.826 -2.7 0.873 -2.833 0.894 -2.948a14.362 14.362 0 0 0 4.424 -2.846 17.727 17.727 0 0 1 -5.318 5.794Zm-5.041 -2.272a21.132 21.132 0 0 1 -5.453 -0.362 18.79 18.79 0 0 1 -5.572 -2.032c-9.056 -5.069 -10.368 -15.12 -2.826 -20.368 7.542 -5.248 19.807 -3.011 25.023 4.563 5.549 8.063 -0.244 17.358 -11.172 18.199Z" stroke-width="1"></path><path id="vector_26" fill="#f9f5e5" d="M144.638 97.988c1.754 -1.164 3.986 -3.3 2.579 -4.762 -0.831 -0.861 -2.525 -0.717 -3.726 -0.546a34.262 34.262 0 0 0 -4.752 1.14 186.988 186.988 0 0 1 -3.587 -2.555 19.931 19.931 0 0 1 3.452 -2.171 0.371 0.371 0 0 0 -0.023 -0.676 0.37 0.37 0 0 0 -0.277 0 21.114 21.114 0 0 0 -3.779 2.4 24.787 24.787 0 0 1 -2.917 -2.255 0.37 0.37 0 0 0 -0.5 0.543c0.886 0.8 1.828 1.535 2.82 2.2a14.453 14.453 0 0 0 -1.892 1.879c-0.365 0.438 -1.124 1.35 -0.717 2.165 0.393 0.85 1.748 0.917 4.128 0.2 0.966 -0.258 2 -0.593 3.163 -0.914 0 0 3.711 2.614 4.663 3.3a26.98 26.98 0 0 1 -7.844 2.883 0.371 0.371 0 0 0 -0.136 0.669 0.371 0.371 0 0 0 0.277 0.056 27.73 27.73 0 0 0 8.377 -3.13c1.333 0.912 2.459 1.686 3.169 2.183a0.37 0.37 0 0 0 0.424 -0.605 291.169 291.169 0 0 0 -2.902 -2.004Zm-12.656 -2.965c-0.362 -0.726 1.94 -2.76 2.568 -3.283a158.18 158.18 0 0 0 3.28 2.347c-1.103 0.319 -5.437 1.813 -5.848 0.936Zm7.521 -0.665c1.476 -0.443 6.106 -1.736 7.181 -0.62 0.721 0.749 -0.443 2.03 -1.226 2.722a11.43 11.43 0 0 1 -1.47 1.076 727.21 727.21 0 0 0 -4.488 -3.178h0.003Z" stroke-width="1"></path></g><g id="coin 1_2"><path id="vector_27" fill="#ffb949" d="M169.6 60.9c-8.01 -1.457 -15.546 1.948 -17.937 7.77 -3.661 8.917 -0.817 16.12 5 20.249 4.9 3.48 12.867 3.482 17.891 0.592 5.214 -3 8.506 -10.382 8.946 -12.864 1.253 -7.107 -4.96 -14.118 -13.9 -15.747Z" stroke-width="1"></path><path id="vector_28" fill="#f9f5e5" d="M181.787 67.866c-5.445 -7.912 -18.169 -10.235 -26.054 -4.75 -3.512 2.444 -5.9 7.231 -6.164 12.214a15.661 15.661 0 0 0 9.411 15.309 18.733 18.733 0 0 0 15.756 -0.806c5.375 -3.177 8.7 -10.569 9.121 -13.115a11.625 11.625 0 0 0 -2.07 -8.852Zm-31.244 5.468a12.406 12.406 0 0 0 2.875 7.053l-0.79 3.883a14.34 14.34 0 0 1 -2.085 -10.936Zm2.672 11.766 0.815 -4.008a17.388 17.388 0 0 0 4.295 3.464l-1.171 4.244a17.074 17.074 0 0 1 -3.939 -3.7Zm9.382 5.887a14.41 14.41 0 0 1 -4.79 -1.774l1.184 -4.289a19.432 19.432 0 0 0 4.717 1.765l-1.111 4.298Zm0.738 0.118 1.095 -4.251c1.72 0.352 3.478 0.482 5.231 0.387l-1.377 3.859a22.327 22.327 0 0 1 -4.949 0v0.005Zm10.78 -1.785a15.102 15.102 0 0 1 -5.007 1.669l1.356 -3.81a20.016 20.016 0 0 0 4.613 -1.043c-0.949 3.097 -0.947 3.069 -0.962 3.181v0.003Zm0.933 -0.56c0.826 -2.7 0.872 -2.833 0.893 -2.949a14.306 14.306 0 0 0 4.424 -2.846 17.744 17.744 0 0 1 -5.317 5.792v0.003Zm-5.042 -2.273a21.11 21.11 0 0 1 -5.453 -0.362 18.733 18.733 0 0 1 -5.571 -2.032c-9.057 -5.069 -10.368 -15.12 -2.826 -20.367 7.542 -5.247 19.808 -3.012 25.022 4.563 5.549 8.059 -0.244 17.354 -11.172 18.195v0.003Z" stroke-width="1"></path><path id="vector_29" fill="#f9f5e5" d="M172.6 76.862c1.753 -1.163 3.985 -3.3 2.578 -4.761 -0.831 -0.862 -2.525 -0.718 -3.726 -0.547a34.262 34.262 0 0 0 -4.752 1.14 186.988 186.988 0 0 1 -3.587 -2.555 19.975 19.975 0 0 1 3.452 -2.171 0.371 0.371 0 0 0 -0.023 -0.676 0.37 0.37 0 0 0 -0.277 0 21.136 21.136 0 0 0 -3.779 2.4 24.631 24.631 0 0 1 -2.916 -2.255 0.37 0.37 0 0 0 -0.5 0.543c0.886 0.8 1.828 1.535 2.819 2.2A14.59 14.59 0 0 0 160 72.052c-0.364 0.438 -1.124 1.35 -0.716 2.165 0.393 0.85 1.747 0.917 4.127 0.2 0.967 -0.258 2 -0.593 3.163 -0.913 0 0 3.712 2.613 4.664 3.3a26.96 26.96 0 0 1 -7.845 2.883 0.37 0.37 0 0 0 0.142 0.726 27.772 27.772 0 0 0 8.377 -3.131c1.332 0.912 2.458 1.686 3.168 2.183a0.369 0.369 0 0 0 0.424 -0.6 443.382 443.382 0 0 0 -2.904 -2.003ZM159.945 73.9c-0.363 -0.726 1.939 -2.76 2.567 -3.283 0.973 0.722 2.121 1.534 3.281 2.347 -1.104 0.317 -5.438 1.813 -5.848 0.936Zm7.521 -0.664c1.475 -0.444 6.1 -1.737 7.181 -0.62 0.72 0.748 -0.443 2.03 -1.227 2.72 -0.46 0.399 -0.952 0.758 -1.47 1.077a651.996 651.996 0 0 0 -4.484 -3.18v0.003Z" stroke-width="1"></path></g><g id="coin 1_3"><path id="vector_30" fill="#ffb949" d="M143.644 48.175c-8.01 -1.456 -15.545 1.948 -17.936 7.771 -3.661 8.917 -0.817 16.12 5 20.25 4.9 3.48 12.868 3.481 17.892 0.591 5.214 -3 8.506 -10.382 8.945 -12.864 1.255 -7.11 -4.955 -14.123 -13.901 -15.748Z" stroke-width="1"></path><path id="vector_31" fill="#f9f5e5" d="M155.836 55.139c-5.445 -7.912 -18.169 -10.235 -26.053 -4.751 -3.513 2.445 -5.9 7.232 -6.165 12.215a15.662 15.662 0 0 0 9.412 15.309 18.727 18.727 0 0 0 15.756 -0.807c5.375 -3.176 8.7 -10.569 9.121 -13.114a11.625 11.625 0 0 0 -2.071 -8.852Zm-31.244 5.468a12.407 12.407 0 0 0 2.876 7.053l-0.79 3.883a14.339 14.339 0 0 1 -2.086 -10.936Zm2.672 11.763 0.816 -4.009a17.385 17.385 0 0 0 4.294 3.465l-1.174 4.246a17.108 17.108 0 0 1 -3.936 -3.702Zm9.382 5.887a14.429 14.429 0 0 1 -4.789 -1.774l1.183 -4.289a19.415 19.415 0 0 0 4.718 1.765l-1.112 4.298Zm0.738 0.118 1.1 -4.252c1.72 0.352 3.478 0.482 5.231 0.388l-1.377 3.863a22.378 22.378 0 0 1 -4.954 0.001Zm10.781 -1.785a15.096 15.096 0 0 1 -5.008 1.668l1.356 -3.81a19.966 19.966 0 0 0 4.614 -1.043c-0.949 3.101 -0.947 3.073 -0.962 3.185Zm0.932 -0.561c0.826 -2.7 0.872 -2.833 0.894 -2.948a14.357 14.357 0 0 0 4.424 -2.846 17.734 17.734 0 0 1 -5.315 5.794h-0.003Zm-5.041 -2.272a21.119 21.119 0 0 1 -5.456 -0.357 18.798 18.798 0 0 1 -5.571 -2.032c-9.057 -5.069 -10.368 -15.12 -2.826 -20.368 7.542 -5.248 19.809 -3.011 25.022 4.563 5.552 8.058 -0.241 17.353 -11.169 18.194Z" stroke-width="1"></path><path id="vector_32" fill="#f9f5e5" d="M146.65 64.135c1.753 -1.164 3.986 -3.3 2.578 -4.762 -0.83 -0.861 -2.524 -0.717 -3.725 -0.546a34.262 34.262 0 0 0 -4.752 1.141 191.5 191.5 0 0 1 -3.587 -2.556 19.97 19.97 0 0 1 3.452 -2.171 0.371 0.371 0 0 0 -0.023 -0.676 0.37 0.37 0 0 0 -0.277 0 21.08 21.08 0 0 0 -3.779 2.4 24.528 24.528 0 0 1 -2.917 -2.254 0.37 0.37 0 0 0 -0.5 0.543c0.886 0.8 1.829 1.535 2.82 2.2a14.533 14.533 0 0 0 -1.892 1.878c-0.365 0.438 -1.125 1.351 -0.717 2.166 0.393 0.851 1.748 0.917 4.128 0.2 0.966 -0.258 2 -0.593 3.162 -0.914 0 0 3.712 2.614 4.664 3.3a26.948 26.948 0 0 1 -7.845 2.884 0.372 0.372 0 0 0 -0.292 0.433 0.372 0.372 0 0 0 0.434 0.292 27.706 27.706 0 0 0 8.377 -3.131c1.333 0.913 2.459 1.687 3.169 2.184a0.369 0.369 0 1 0 0.424 -0.605 255.706 255.706 0 0 0 -2.902 -2.006Zm-12.656 -2.965c-0.362 -0.727 1.94 -2.76 2.567 -3.283 0.973 0.722 2.122 1.533 3.281 2.346 -1.103 0.32 -5.442 1.817 -5.848 0.937Zm7.521 -0.665c1.475 -0.443 6.105 -1.736 7.181 -0.619 0.721 0.748 -0.443 2.03 -1.226 2.721a11.43 11.43 0 0 1 -1.47 1.076c-1.026 -0.744 -4.485 -3.178 -4.485 -3.178Z" stroke-width="1"></path></g></g></svg>