<svg xmlns="http://www.w3.org/2000/svg" fill="none" viewBox="0 0 200 200"><g id="add-files-media--interface-add-files-media"><g id="hand"><path id="Vector" fill="#ffb949" d="M194.997 158.075c0.032 0.025 -20.843 30.146 -26.494 28.503 -3.936 -1.147 -35.472 -26.446 -35.733 -29.406 -0.237 -2.692 13.716 -17.347 18.013 -18.655 4.904 -1.48 43.564 19.055 44.214 19.558Z" stroke-width="1"></path><path id="Vector_2" fill="#f9f5e5" d="M112.033 108.143c-2.405 -0.315 -6.483 -1.031 -10.58 0.155 -0.96 0.276 -2.806 0.902 -2.497 2.261 0.633 2.77 9.012 1.202 15.321 4.725 0.537 0.301 2.082 0.667 1.561 1 -0.39 0.252 -3.855 -1.333 -4.334 -1.463 -3.936 -1.082 -8.067 -1.838 -12.133 -0.984 -0.895 0.195 -3.375 0.626 -3.285 1.976 0.166 2.454 7.671 2.94 12.946 5.115 0.748 0.309 2.407 0.805 2.887 1.553 0.268 0.423 -0.943 -0.358 -1.431 -0.512 -3.623 -1.14 -8.126 -2.124 -11.889 -1.61 -0.83 0.114 -2.651 0.382 -2.903 1.407 -0.576 2.303 7.591 3.398 13.101 7.303 0.667 0.463 2.472 1.618 2.667 2.529 -0.106 -0.033 -0.903 -0.35 -0.968 -0.374 -2.154 -0.884 -8.611 -2.66 -9.368 -0.423 -0.472 1.382 2.35 2.83 3.212 3.326 4.538 2.619 8.156 5.521 12.206 8.913 0 0 13.231 11.727 16.077 12.71l0.488 0.252c1.513 -3.059 7.678 -9.829 12.559 -14.02 -4.122 -15.304 -16.696 -31.466 -33.637 -33.839Z" stroke-width="1"></path><path id="Vector_3" fill="#501200" d="M195.309 157.684c-0.301 -0.241 -39.468 -21.216 -44.672 -19.645 -1.296 0.395 -3.192 1.808 -4.694 3.057 -4.18 -14.552 -16.407 -31.006 -33.844 -33.448 -3.365 -0.442 -7.033 -0.917 -10.784 0.17 -2.176 0.626 -3.133 1.586 -2.845 2.853 0.339 1.485 2.296 1.869 3.237 2.054 2.823 0.555 1.079 -0.123 -2.628 0.663 -1.17 0.248 -3.604 0.761 -3.492 2.458 0.115 1.696 2.656 2.438 4.021 2.839 1.336 0.393 1.857 0.531 3.461 0.94 4.286 1.093 -0.321 -0.338 -4.538 0.238 -0.893 0.122 -2.983 0.409 -3.32 1.781 -0.79 3.163 8.093 3.592 14.653 8.807 -2.529 -0.872 -8.346 -2.36 -9.209 0.187 -0.57 1.673 1.943 3.067 3.436 3.921 4.622 2.643 8.224 5.588 12.125 8.854 0.543 0.482 13.355 11.818 16.251 12.81 -0.156 0.396 -0.218 0.718 -0.194 0.993 0.295 3.357 32.388 28.764 36.091 29.842 0.174 0.051 0.359 0.075 0.556 0.075 6.711 0 26.37 -28.523 26.525 -28.834a0.502 0.502 0 0 0 -0.136 -0.615Zm-90.719 -23.992c-3.126 -1.787 -3.093 -2.425 -2.988 -2.732 0.597 -1.763 6.89 -0.019 8.72 0.731 0 0 0.754 0.296 0.917 0.356a0.5 0.5 0 0 0 0.703 -0.599c-0.231 -0.928 -1.487 -1.851 -2.65 -2.647 -2.722 -1.864 -4.672 -2.67 -8.009 -4.01 -0.496 -0.199 -1.719 -0.691 -1.873 -0.749 -4.441 -1.659 -3.939 -2.75 -0.743 -3.188 3.678 -0.503 8.13 0.478 11.671 1.591 0.664 0.21 1.515 1.001 1.983 0.485 0.066 -0.073 0.262 -0.338 0.02 -0.719 -0.581 -0.906 -2.271 -1.397 -3.117 -1.745 -4.861 -2.005 -12.511 -2.795 -12.638 -4.686 -0.057 -0.862 2.069 -1.28 2.889 -1.454 4.166 -0.885 8.354 0.003 11.9 0.978 0.107 0.029 0.534 0.204 0.946 0.373 2.676 1.097 3.386 1.291 3.789 1.029 0.336 -0.215 0.345 -0.509 0.333 -0.625 -0.073 -0.714 -1.341 -0.908 -1.92 -1.232 -4.443 -2.482 -8.749 -2.343 -12.622 -3.104 -0.733 -0.144 -2.261 -0.444 -2.455 -1.295 -0.149 -0.655 0.574 -1.216 2.148 -1.67 3.842 -1.113 8.106 -0.435 10.372 -0.14 17.165 2.404 29.17 18.817 33.141 33.17 -4.444 3.861 -10.27 10.117 -12.19 13.5 -0.935 -0.312 -4.183 -2.14 -16.047 -12.653 -3.802 -3.184 -7.591 -6.285 -12.277 -8.963l-0.003 -0.002Zm64.438 52.457c-3.208 0 -35.492 -26.466 -35.759 -29.021 -0.226 -2.162 13.302 -16.806 17.659 -18.132 4.263 -1.291 38.938 16.657 43.374 19.237 -3.01 4.56 -20.179 27.918 -25.274 27.916Z" stroke-width="1"></path></g><g id="phone"><path id="Vector_4" fill="#f9f5e5" d="M80.877 18.637c10.729 1.504 9.611 12.044 9.611 12.044l-2.652 148.81c-0.238 1.179 -0.684 2.158 -1.274 2.975 -2.937 4.116 -9.354 3.974 -9.354 3.974s-48.339 -1.92 -59.195 -2.671c-9.516 -0.665 -8.765 -12.006 -8.765 -12.006s6.189 -145.388 5.846 -153.278c-0.304 -6.987 6.127 -8.292 7.595 -8.47 0.431 -0.052 -0.057 0.457 58.188 8.622Z" stroke-width="1"></path><path id="Vector_5" fill="#ff7449" d="M57.882 69.172c-0.827 10.849 -1.806 21.684 -2.852 32.511 -0.189 -0.014 -0.021 0.025 -0.703 -0.228 -5.54 -2.056 -9.965 0.331 -14.069 4.582 -3.801 -3.074 -5.13 -9.621 -6.055 -13.632 -1.721 -7.519 -5.114 -20.496 -15.258 -20.534l-1.169 -0.038 0.304 -8.926s27.092 2.307 37.378 3.441c1.438 0.159 2.539 1.314 2.424 2.824Z" stroke-width="1"></path><path id="Vector_6" fill="#f9f5e5" d="m54.901 101.674 0.128 0.01a1960.082 1960.082 0 0 1 -2.139 21.104c-0.143 1.245 -1.236 2.443 -2.918 2.32 -10.875 -0.837 -34.004 -2.966 -34.004 -2.966 0.2 -5.457 0.55 -12.934 0.769 -19.009 2.017 4.83 4.035 11.531 8.68 12.782 0.866 0.233 1.798 0.349 2.681 0.171 9.316 -1.882 13.756 -19.631 26.803 -14.412Z" stroke-width="1"></path><path id="Vector_7" fill="#ffb949" d="M34.202 92.405c-1.721 -7.52 -5.114 -20.495 -15.258 -20.534l-1.169 -0.038 -1.114 31.398c1.766 4.386 4.657 11.601 8.757 12.683 5.771 1.586 10.594 -5.522 14.839 -9.877 -3.801 -3.074 -5.13 -9.621 -6.055 -13.632Z" stroke-width="1"></path><path id="Vector_8" fill="#501200" d="M80.951 18.142 23.639 9.578c-4.445 -0.664 -12.428 3.145 -13.198 12.468 -0.649 7.915 -5.871 151.82 -5.923 153.257 -0.008 0.119 -0.679 11.856 9.201 12.529 10.72 0.743 59.242 2.684 59.361 2.684 1.34 0 9.324 -0.324 13.945 -7.758a0.504 0.504 0 0 0 0.068 -0.178c0.595 -0.878 1.01 -1.888 1.243 -3.081l2.649 -148.766c0.012 -0.111 1.055 -11.14 -10.034 -12.591Zm9.037 12.53 -2.643 148.72c-0.93 4.614 -5.432 6.39 -10.118 6.548 -0.483 -0.019 -48.456 -1.928 -59.181 -2.67 -8.902 -0.623 -8.329 -11.032 -8.3 -11.486 0.253 -5.937 6.186 -145.5 5.846 -153.321 -0.248 -5.695 5.011 -8.327 7.918 -7.892l57.301 8.562c10.122 1.326 9.222 11.082 9.176 11.54l0.001 -0.001Z" stroke-width="1"></path><path id="Vector_9" fill="#501200" d="M74.617 168.3c-0.389 0 -43.097 -2.294 -52.148 -3.025 -8.745 -0.706 -8.213 -10.78 -8.207 -10.882 0 0 4.465 -128.746 4.372 -130.607 -0.259 -5.252 4.591 -8.123 8.177 -7.554l50.114 7.957c9.785 1.38 8.918 10.84 8.908 10.936l-1.604 126.853c-1.196 6.115 -8.631 6.322 -9.612 6.322ZM19.633 23.736c0.094 1.889 -4.373 130.707 -4.373 130.707 -0.023 0.387 -0.474 9.208 7.288 9.835 9.409 0.76 51.58 3 52.004 3.022 0.066 0.002 7.584 0.166 8.685 -5.425l1.598 -126.808c0.038 -0.395 0.771 -8.643 -8.059 -9.89l-50.195 -7.97c-2.843 -0.45 -7.183 1.769 -6.948 6.529Z" stroke-width="1"></path><path id="Vector_10" fill="#501200" d="M54.963 171.6c-0.859 -0.837 -1.971 -1.249 -3.132 -1.163 -4.067 0.351 -6.634 2.191 -7.089 6.03 -0.235 2.012 0.316 3.829 1.553 5.117 1.497 1.559 2.999 1.632 5.017 1.496 4.701 -0.355 7.218 -7.998 3.65 -11.479l0.001 -0.001Zm-3.723 10.481c-2.488 0.172 -3.85 -2.42 -3.715 -4.96 0.218 -4.259 4.198 -7.284 6.739 -4.805 2.895 2.822 0.905 9.469 -3.024 9.765Z" stroke-width="1"></path><path id="Vector_11" fill="#501200" d="M60.181 60.717c-6.587 -0.62 -41.31 -4.051 -41.654 -4.085 -0.305 -0.028 -0.54 0.183 -0.552 0.585l-0.158 5.65a0.5 0.5 0 0 0 0.456 0.512c0.263 0.023 26.967 2.34 37.129 3.467 1.195 0.13 2.07 1.07 1.98 2.287 -0.851 10.793 -4.233 46.52 -4.989 53.598 -0.113 0.987 -0.991 1.979 -2.383 1.878a1349.262 1349.262 0 0 1 -33.931 -3.045s-0.328 8.47 -0.423 10.23l37.584 3.46c2.057 0.207 3.859 -1.303 4.065 -3.36l6.255 -67.125c0.182 -2.03 -1.311 -3.87 -3.379 -4.052Z" stroke-width="1"></path><path id="Vector_12" fill="#501200" d="M55.082 101.209c-0.501 -0.187 -1.08 -0.413 -1.646 -0.571 -5.173 -1.44 -9.407 0.88 -13.208 4.714 -3.379 -3.103 -4.606 -8.993 -5.539 -13.06 -1.434 -6.246 -4.777 -20.88 -15.743 -20.921h-1.219l-0.151 1.077C28.83 71.17 32.272 86.24 33.713 92.517c1.006 4.38 2.219 10.233 5.817 13.552 -3.874 4.066 -8.658 10.822 -13.986 9.361 -3.721 -0.982 -5.684 -5.901 -7.261 -9.853l-1.439 -3.15 -0.071 2.069c1.8 4.49 3.893 10.681 8.512 11.9 0.962 0.254 1.931 0.369 2.916 0.178 3.948 -0.764 7.267 -4.52 9.968 -7.533 5.294 -5.908 9.335 -9.605 16.542 -6.903a0.502 0.502 0 0 0 0.649 -0.28 0.496 0.496 0 0 0 -0.278 -0.649Z" stroke-width="1"></path></g><g id="elements"><path id="Vector_13" fill="#ff7449" d="M110.341 45.178c-0.816 -0.148 -2.51 -0.52 -4.145 -0.877 0.614 -3.231 1.33 -6.573 1.573 -7.12 0.342 -0.406 -0.105 -0.995 -0.586 -0.78 -0.479 0.214 -1.31 4.192 -1.954 7.688 -4.107 -0.897 -4.121 -0.87 -4.312 -0.462 -0.172 0.366 0.155 0.812 0.573 0.714 0.442 0.057 2.021 0.396 3.561 0.732 -0.42 2.345 -0.725 4.26 -0.731 4.308a0.5 0.5 0 0 0 0.991 0.129c0.134 -1.023 0.394 -2.57 0.7 -4.227 0.231 0.05 4.016 0.887 4.243 0.887 0.606 0 0.685 -0.884 0.089 -0.992h-0.002Z" stroke-width="1"></path><path id="Vector_14" fill="#ff7449" d="M129.326 66.906c-0.811 -0.585 -2.341 -1.7 -3.852 -2.808 0.795 -1.343 3.145 -5.364 3.613 -5.843 0.468 -0.226 0.326 -0.944 -0.223 -0.95 -0.451 0.004 -0.568 0.057 -4.2 6.199 -1.645 -1.208 -3.102 -2.29 -3.361 -2.506a0.502 0.502 0 0 0 -0.839 0.132c-0.155 0.364 -0.191 0.448 3.674 3.26 -0.898 1.507 -1.742 2.896 -2.313 3.717 -0.382 0.547 0.45 1.104 0.82 0.57 0.579 -0.83 1.415 -2.204 2.305 -3.698 3.999 2.898 3.844 2.832 4.083 2.832 0.484 0 0.686 -0.622 0.293 -0.905Z" stroke-width="1"></path></g><g id="file"><path id="Vector_15" fill="#fccac2" d="M127.834 104.313a2099.433 2099.433 0 0 1 -5.945 21.477c-2.342 -0.653 -3.775 -1.122 -6.489 -1.195 -4.641 -0.125 -8.699 1.892 -12.393 4.643l-0.252 -0.333c-3.587 -2.934 -4.879 -9.128 -5.798 -13.223 -1.651 -7.303 -4.904 -19.891 -14.622 -19.924 0 0 0.594 -2.797 0.984 -4.164 0.333 -1.155 1.61 -2.074 3.18 -1.66 13.231 3.547 26.43 7.258 39.514 11.288 1.35 0.416 2.192 1.727 1.822 3.09l-0.001 0.001Z" stroke-width="1"></path><path id="Vector_16" fill="#ff7449" d="M121.89 125.79a1789.658 1789.658 0 0 1 -8.205 28.072c-0.35 1.155 -1.602 2.082 -3.18 1.659 -13.231 -3.546 -26.428 -7.253 -39.514 -11.288 -1.334 -0.411 -2.202 -1.689 -1.822 -3.09 1.131 -4.161 2.285 -8.33 3.456 -12.486 2.244 4.302 4.79 10.005 10.328 11.144 11.948 2.511 18.504 -15.583 32.447 -15.207 2.905 0.079 4.51 0.643 6.489 1.195l0.001 0.001Z" stroke-width="1"></path><path id="Vector_17" fill="#f9f5e5" d="M98.388 121.407c-0.578 -1.878 -1 -3.806 -1.431 -5.725 -1.651 -7.303 -5.099 -19.948 -14.817 -19.98 -3.164 10.986 -6.4 21.962 -9.515 32.957 2.244 4.302 4.79 10.005 10.328 11.144 7.784 1.636 14.194 -6.146 20.054 -10.564 -0.604 -0.798 -2.899 -2.333 -4.619 -7.832Z" stroke-width="1"></path><path id="Vector_18" fill="#501200" d="M133.984 101.195c0.544 -1.95 -0.617 -3.92 -2.474 -4.437L84.548 83.34a3.583 3.583 0 0 0 -4.442 2.468L62.37 147.857c-0.533 1.913 0.569 3.903 2.466 4.437l46.975 13.427a3.587 3.587 0 0 0 4.438 -2.475l17.736 -62.051h-0.001Zm-64.815 39.949c1.122 -4.164 13.759 -48.183 14.15 -49.549 0.333 -1.155 1.61 -2.074 3.18 -1.659a1250.65 1250.65 0 0 1 39.514 11.287c1.352 0.422 2.196 1.724 1.822 3.09 -1.936 7.172 -11.336 40.213 -14.15 49.549 -0.35 1.154 -1.602 2.082 -3.18 1.659a1227.08 1227.08 0 0 1 -39.514 -11.288c-1.357 -0.424 -2.198 -1.718 -1.822 -3.089Z" stroke-width="1"></path><path id="Vector_19" fill="#501200" d="M110.375 156.004a1234.314 1234.314 0 0 1 -39.53 -11.292c-1.674 -0.523 -2.591 -2.12 -2.158 -3.7 3.179 -11.799 7 -24.844 14.151 -49.555 0.397 -1.373 1.923 -2.499 3.788 -2.005a1255.064 1255.064 0 0 1 39.531 11.292c1.657 0.517 2.593 2.113 2.159 3.701 -1.862 6.9 -11.42 40.493 -14.154 49.561 -0.443 1.462 -1.98 2.483 -3.787 1.998Zm-40.723 -14.73c-0.31 1.132 0.403 2.144 1.488 2.483a1235.035 1235.035 0 0 0 39.494 11.282c1.305 0.35 2.299 -0.419 2.572 -1.321 2.731 -9.062 12.284 -42.637 14.146 -49.535 0.308 -1.122 -0.411 -2.146 -1.488 -2.482A1254.643 1254.643 0 0 0 86.37 90.419c-1.27 -0.335 -2.306 0.404 -2.57 1.315 -5.28 18.244 -10.7 36.745 -14.147 49.541l-0.001 -0.001Z" stroke-width="1"></path><path id="Vector_20" fill="#501200" d="M122.041 125.352c-6.749 -2.301 -12.41 -1.572 -18.936 3.193 -2.434 -1.963 -3.861 -6.078 -4.239 -7.285 -0.566 -1.841 -0.995 -3.792 -1.422 -5.688 -1.366 -6.069 -4.583 -20.296 -15.108 -20.313a0.5 0.5 0 1 0 -0.002 1c9.728 0.033 12.82 13.697 14.135 19.533 0.968 4.294 2.198 10.251 5.816 13.371 -5.693 4.407 -11.883 11.691 -19.231 10.15 -5.158 -1.061 -7.572 -6.212 -9.959 -10.834a0.5 0.5 0 1 0 -0.912 0.413c3.12 6.016 5.981 11.659 13.023 11.659 6.811 0 13.299 -7.292 18.101 -10.912 6.564 -4.888 11.897 -5.56 18.413 -3.34a0.5 0.5 0 0 0 0.322 -0.946l-0.001 -0.001Z" stroke-width="1"></path></g><g id="plus"><path id="Vector_21" fill="#ff7449" d="M85.327 99.21c8.564 0 15.507 -6.944 15.507 -15.508s-6.943 -15.507 -15.507 -15.507S69.82 75.138 69.82 83.702 76.763 99.21 85.327 99.21Z" stroke-width="1"></path><path id="Vector_22" fill="#501200" d="M85.327 99.616c-8.775 0 -15.914 -7.139 -15.914 -15.914 0 -8.775 7.139 -15.913 15.914 -15.913 8.775 0 15.914 7.14 15.914 15.913 0 8.774 -7.139 15.914 -15.914 15.914Zm0 -31.014c-8.326 0 -15.1 6.774 -15.1 15.1s6.774 15.101 15.1 15.101 15.1 -6.774 15.1 -15.1c0 -8.328 -6.774 -15.1 -15.1 -15.1Z" stroke-width="1"></path><path id="Vector_23" fill="#f9f5e5" d="M93.979 81.48h-6.416v-6.415a0.5 0.5 0 0 0 -0.5 -0.5h-3.458a0.5 0.5 0 0 0 -0.5 0.5v6.416h-6.416a0.5 0.5 0 0 0 -0.5 0.5v3.458a0.5 0.5 0 0 0 0.5 0.5h6.416v6.4a0.5 0.5 0 0 0 0.5 0.5h3.458a0.5 0.5 0 0 0 0.5 -0.5v-6.4h6.416a0.5 0.5 0 0 0 0.5 -0.5V81.98a0.5 0.5 0 0 0 -0.5 -0.5Z" stroke-width="1"></path></g><g id="thumb"><path id="Vector_24" fill="#f9f5e5" d="M115.555 123.83c-4.053 -0.371 -5.605 1.798 -2.529 4.904 2.415 2.439 5.66 3.61 8.4 5.579 2.797 2.001 1.126 4.42 4.457 10.295l5.424 -13.816s-8.558 -6.334 -15.752 -6.962Z" stroke-width="1"></path><path id="Vector_25" fill="#501200" d="M125.529 144.808c-3.321 -5.857 -1.746 -8.309 -4.34 -10.165 -2.699 -1.939 -5.994 -3.14 -8.453 -5.623 -2.066 -2.086 -1.924 -3.474 -1.441 -4.271 0.657 -1.079 2.101 -1.524 4.296 -1.324 7.223 0.63 15.604 6.778 15.957 7.039 0.432 0.32 -0.051 0.973 -0.483 0.654 -0.085 -0.063 -8.551 -6.273 -15.545 -6.883 -3.602 -0.328 -5.05 1.342 -2.205 4.213 2.35 2.374 5.606 3.565 8.349 5.534 2.938 2.103 1.297 4.642 4.573 10.425 0.265 0.467 -0.446 0.865 -0.708 0.401Z" stroke-width="1"></path></g></g></svg>