<svg xmlns="http://www.w3.org/2000/svg" fill="none" viewBox="0 0 200 200"><g id="data-organization--work-data-organization"><g id="panels"><path id="vector" fill="#fccac2" d="M25.6 73.967c32.766 0 39.723 0.075 40.253 0.106 0 48.572 -0.06 48.409 0.106 48.574H25.6v-48.68Z" stroke-width="1"></path><path id="vector_2" fill="#f9f5e5" d="M70.8 74.073c32.116 0 39.436 0.118 40.253 0.106 0 48.572 -0.06 48.409 0.106 48.575H70.8V74.073Z" stroke-width="1"></path><path id="vector_3" fill="#f9f5e5" d="M26.454 179.836c0.229 0.016 31.714 -1.886 32.143 -2.1 10.4 2.286 22.493 4.413 31.878 6.833 -0.585 -0.054 -35.839 3.748 -36.424 3.881 -0.257 0.171 -27.597 -8.614 -27.597 -8.614Z" stroke-width="1"></path><path id="vector_4" fill="#f9f5e5" d="M136.657 185.021c22.347 7.137 30.857 9.853 30.974 9.837 1.3 -0.373 16.045 -17.648 13.612 -41.077 -3.476 -0.331 -28.212 -0.448 -28.395 -0.9 -0.201 13.307 -6.172 23.373 -16.191 32.14Z" stroke-width="1"></path><path id="vector_5" fill="#f9f5e5" d="M25.5 20.633c31.387 0 39.291 0.076 40.252 0.107 0 48.571 -0.059 48.408 0.107 48.574H25.5V20.633Z" stroke-width="1"></path><path id="vector_6" fill="#f9f5e5" d="M70.721 20.553c33.277 0 39.333 0.01 40.245 0.032 0 48.572 -0.051 48.484 0.114 48.649H70.721V20.553Z" stroke-width="1"></path><path id="vector_7" fill="#ff7449" d="M111.266 74.233c0.158 -0.158 0.063 -0.373 -0.106 -0.373 -21.159 0 -39.749 -0.009 -40.485 0 -0.21 0.635 -0.058 49.234 -0.058 49.133 0 0.366 40.36 0 40.463 0 0.42 -0.003 0.24 0.001 0.186 -48.76ZM71.04 122.541V74.233c33.8 0 39.812 0.027 39.827 0.026l0 48.229c-3.159 0.129 -39.467 0.012 -39.827 0.053Z" stroke-width="1"></path><path id="vector_8" fill="#ffb949" d="M86.275 83.006c-0.669 -1.271 -10.491 7.146 -7.631 17.388 0.172 0.615 0.015 0.619 0.931 0.4 3.224 -0.775 11.543 -3.318 16.218 -4.467 0.769 -0.19 -8.244 -10.896 -9.518 -13.321Z" stroke-width="1"></path><path id="vector_9" fill="#ffb949" d="M46.261 36.32c-5.761 -0.082 -5.8 -0.211 -5.8 0.026a132.018 132.018 0 0 0 0.08 20.685c0.026 0.212 0.345 0.212 0.319 0l5.237 0.08a0.164 0.164 0 0 0 0.32 0.053c0.096 -0.346 0.318 -20.838 -0.156 -20.844Z" stroke-width="1"></path><path id="vector_10" fill="#501200" d="M97.1 98.453c-2.189 0.365 -14.265 4.416 -16.989 4.946 -1.212 0 3.04 11.085 9.412 10.448 0.85 0 0.763 -0.01 1.09 -0.744 0.802 -1.814 7.447 -14.925 6.487 -14.65Zm-7.072 14.915c-0.053 0.027 -0.319 0 -0.372 0.027 -4.846 0.269 -8.192 -5.219 -9.385 -9.678 2.06 -0.343 14.041 -4.318 16.59 -4.812 -0.056 0.109 -6.711 14.4 -6.838 14.463h0.005Z" stroke-width="1"></path><path id="vector_11" fill="#501200" d="M39.375 122.834c19.292 0 24.844 0.111 26.3 -0.014 0.662 -0.058 0.384 -0.186 0.386 -0.361 0 -48.677 0.064 -48.7 -0.127 -48.7 -40.566 0 -40.749 -0.222 -40.491 0.293 -0.14 0.139 -0.027 48.739 -0.027 48.627 0.001 0.395 0.001 0.155 13.959 0.155ZM25.789 74.259c0 -0.2 0.021 -0.136 39.827 -0.106l0 48.229c-31.84 0 -39.007 -0.029 -39.827 0.053V74.259Z" stroke-width="1"></path><path id="vector_12" fill="#501200" d="M25.439 69.585c6.546 -0.126 37.153 0.115 40.283 -0.079a0.236 0.236 0 0 0 0.222 -0.236c0 -48.477 0.105 -48.823 -0.115 -48.823 -40.522 0 -40.519 -0.331 -40.519 0.4 0 48.733 -0.217 48.744 0.129 48.738Zm0.27 -48.792c39.827 0 39.728 0.032 39.828 0.027 0 48.2 -0.006 48.106 0 48.228 -39.763 0 -39.728 -0.011 -39.828 0V20.793Z" stroke-width="1"></path><path id="vector_13" fill="#501200" d="M60.918 56.769c0.027 -0.006 0.018 -0.007 0 0Z" stroke-width="1"></path><path id="vector_14" fill="#501200" d="M111.08 20.34c-5.488 0 -39.67 -0.042 -40.226 0 -0.359 0.028 -0.292 0.025 -0.292 1.835V69.26c0 0.306 0.016 0.212 4.44 0.212 35.836 0 37.1 0.432 36.219 -0.45 0 -48.741 0.089 -48.682 -0.141 -48.682Zm-0.292 48.628H70.96V20.66c39.827 0 39.728 0.032 39.828 0.026v48.282Z" stroke-width="1"></path><path id="vector_15" fill="#501200" d="M86.381 60.593c-7.653 0.04 -9.648 -0.053 -9.545 -0.053 -0.186 -0.08 -0.4 0.163 -0.213 0.32 0.306 0.252 14.682 0.21 14.916 -0.081 0.397 -0.556 -0.52 -0.21 -5.158 -0.186Z" stroke-width="1"></path><path id="vector_16" fill="#501200" d="M76.836 60.54c0.027 0 0.027 -0.026 0 0Z" stroke-width="1"></path><path id="vector_17" fill="#501200" d="M86.722 64.529c0.033 -0.055 -0.12 -0.039 -1.032 0.052 -5.3 0.177 -8.747 0 -8.854 0 -0.16 -0.106 -0.4 0.134 -0.239 0.32 0.248 0.331 8.974 0.112 9.917 0.026 0.857 -0.143 0.418 -0.55 0.208 -0.398Z" stroke-width="1"></path><path id="vector_18" fill="#501200" d="M100.764 39.856a5.413 5.413 0 0 0 -4.7 -1.2c-9.787 1.435 -8.764 14.2 -0.373 14.783 6.863 0.479 11.22 -8.959 5.073 -13.583Zm2.207 7.923c-2.167 6.91 -10.992 6.594 -12.948 1.3 -0.957 -2.589 -0.468 -6.3 1.622 -8.029 1.835 -1.835 5.7 -2.737 7.923 -1.516a6.749 6.749 0 0 1 3.403 8.245Z" stroke-width="1"></path><path id="vector_19" fill="#501200" d="M181.589 155.483c-0.1 -1.842 -0.159 -1.9 -0.372 -1.941 -1.086 -0.1 -25.673 -0.766 -28.346 -0.754a0.24 0.24 0 0 0 -0.24 0.236c-0.421 19.272 -13.511 29.685 -15.76 31.576 -1.069 0.9 -2.168 -0.214 24.326 8.45 6.955 2.274 6.353 2.269 7.285 1.2a55.318 55.318 0 0 0 13.107 -38.767Zm-13.913 38.952c-6.406 -1.874 -27.429 -8.743 -30.481 -9.575a41.697 41.697 0 0 0 15.813 -31.638c0.732 0.067 27.854 0.844 27.958 0.844 1.483 16.128 -5.725 32.012 -13.29 40.369Z" stroke-width="1"></path><path id="vector_20" fill="#501200" d="M90.528 184.383c-6.037 -1.538 -31.072 -6.807 -32.117 -6.807 -0.1 0 -29.768 2.074 -31.984 2.074 -0.3 -0.038 -0.2 0.409 0 0.479 13.4 4.688 27.273 8.614 27.491 8.587 0.1 0 33.94 -3.841 36.344 -3.881 0.514 -0.009 0.468 -0.401 0.266 -0.452Zm-36.344 3.854c-3.614 -1.1 -21.288 -6.236 -26.736 -8.253 0.1 -0.01 31.049 -2.009 31.149 -2.009 0.1 0 30.389 6.519 30.389 6.519s-15.063 1.542 -34.802 3.743Z" stroke-width="1"></path><path id="vector_21" fill="#ff7449" d="M37.354 41.929c-5.795 -0.041 -5.8 -0.207 -5.8 0.054a69.314 69.314 0 0 0 0.08 15.074c0.025 0.213 0.346 0.213 0.319 0l5.238 0.054c-0.027 0.159 0.262 0.238 0.319 0.053 0.172 -0.556 0.092 -13.81 0.053 -14.464 0.004 -0.236 0.046 -0.769 -0.209 -0.771Z" stroke-width="1"></path><path id="vector_22" fill="#ff7449" d="M92.629 44.11a7.435 7.435 0 0 0 -5.291 -5.477 8.842 8.842 0 0 0 -6.833 2.126c-2.762 2.308 -3.21 8.307 0.239 11.034 5.456 4.316 13.185 -0.847 11.885 -7.683Z" stroke-width="1"></path><path id="vector_23" fill="#f9f5e5" d="M60.91 111.162c-12.432 -0.245 -25.328 -0.593 -31.266 -0.558a0.198 0.198 0 0 0 -0.141 0.059 0.198 0.198 0 0 0 0 0.282 0.198 0.198 0 0 0 0.141 0.059c13.343 -0.021 22.328 0.4 31.266 0.559a0.2 0.2 0 0 0 0.142 -0.059 0.199 0.199 0 0 0 0 -0.283 0.2 0.2 0 0 0 -0.142 -0.059Z" stroke-width="1"></path><path id="vector_24" fill="#f9f5e5" d="M31.4 107.068a91.897 91.897 0 0 0 11.087 -12.2c5.761 4.691 5.672 4.752 5.876 4.546 4.29 -4.344 7.9 -8.324 11.591 -12.389 0.242 0.674 0.368 1.384 0.373 2.1a0.2 0.2 0 0 0 0.4 0c-0.009 -0.595 -0.289 -2.718 -0.691 -2.712 -0.824 0.014 -1.648 0.067 -2.473 0.08a0.2 0.2 0 1 0 0 0.4c0.666 -0.013 1.356 -0.053 2.021 -0.08A473.48 473.48 0 0 1 48.231 98.99c-1.861 -1.516 -3.748 -3.031 -5.609 -4.546 -0.6 -0.4 -2.225 3.533 -11.513 12.362 -0.18 0.164 0.108 0.426 0.291 0.262Z" stroke-width="1"></path><g id="group"><path id="vector_25" fill="#ffb949" d="m19.993 17.788 0.08 1.6c0.026 0.212 0.345 0.212 0.319 0l-0.08 -1.622c0.346 -0.053 0.692 -0.1 1.037 -0.186 0.213 -0.052 0.107 -0.369 -0.08 -0.319 -0.317 0.085 -0.638 0.133 -0.957 0.186 -0.053 -1.117 -0.053 -2.26 -0.053 -3.377a0.16 0.16 0 0 0 -0.224 -0.16 0.158 0.158 0 0 0 -0.087 0.095 0.161 0.161 0 0 0 -0.008 0.065c0 1.143 0 2.287 0.053 3.4a7.169 7.169 0 0 1 -1.542 -0.026c-0.213 -0.025 -0.213 0.319 0 0.319a9.936 9.936 0 0 0 1.542 0.025Z" stroke-width="1"></path><path id="vector_26" fill="#ffb949" d="M29.99 6.728c-0.345 0.035 -0.691 0.08 -1.064 0.107a11.98 11.98 0 0 1 -0.133 -1.675c0 -0.1 -0.54 -0.868 -0.186 1.728 -0.425 0.053 -0.851 0.079 -1.276 0.133 -0.213 0.026 -0.213 0.344 0 0.319 0.452 -0.055 0.877 -0.08 1.329 -0.133 0.08 0.452 0.2 0.874 0.319 1.329a0.165 0.165 0 0 0 0.32 -0.08 12.47 12.47 0 0 1 -0.32 -1.276c0.346 -0.026 0.665 -0.08 1.011 -0.106 0.21 -0.053 0.21 -0.367 0 -0.346Z" stroke-width="1"></path><path id="vector_27" fill="#ffb949" d="M21.721 86.463a4.266 4.266 0 0 1 -0.8 0.159 23.4 23.4 0 0 1 -0.107 -2.9 0.16 0.16 0 0 0 -0.095 -0.16 0.161 0.161 0 0 0 -0.182 0.039 0.16 0.16 0 0 0 -0.042 0.121c-0.024 0.985 0.011 1.97 0.107 2.951 -1.2 0.075 -1.436 -0.11 -1.436 0.16 0 0.293 1.2 0.192 1.462 0.159 0.053 0.559 0.16 1.117 0.266 1.675a0.164 0.164 0 1 0 0.319 -0.079 12.938 12.938 0 0 1 -0.239 -1.622c0.287 -0.047 0.57 -0.109 0.851 -0.186 0.189 -0.08 0.109 -0.397 -0.104 -0.317Z" stroke-width="1"></path></g><path id="vector_28" fill="#fccac2" d="M140.459 116.772c-0.1 0 -10.362 -47.53 -10.635 -47.485 -29.352 6.51 -39.617 8.958 -39.508 9.067 -0.048 0.047 10.439 47.3 10.452 47.359 0 0.417 40.666 -8.356 39.691 -8.941Z" stroke-width="1"></path><path id="vector_29" fill="#ff7449" d="M105.523 91.222c1.388 -1.318 4.372 -1.516 7.312 2.605 0.763 1.069 1.46 2.4 2.738 2.925A2.944 2.944 0 0 0 119 95.529c1.934 -2.651 0.713 -11.772 2.925 -15.447a4.25 4.25 0 0 1 4.2 -2.26c0.241 0.047 0.346 -0.346 0.107 -0.372a4.434 4.434 0 0 0 -3.8 1.356c-3.166 3.123 -1.99 10.973 -3.111 15.021 -0.743 2.682 -3.157 3.884 -5.105 1.3 -1.055 -1.4 -2.4 -3.875 -4.785 -4.759 -2.8 -1.037 -5.4 0.26 -5.557 4.413a33.725 33.725 0 0 0 0.4 6.089c0.08 0.212 0.452 0.106 0.425 -0.16 0.109 0.003 -1.455 -7.324 0.824 -9.488Z" stroke-width="1"></path><path id="vector_30" fill="#ff7449" d="M141.629 98.586a68.553 68.553 0 0 1 6.726 -4.972c0.211 -0.136 0 -0.481 -0.213 -0.345a69.344 69.344 0 0 0 -6.806 5.025c-0.188 0.157 0.105 0.449 0.293 0.292Z" stroke-width="1"></path><path id="vector_31" fill="#ff7449" d="M151.227 102.308c0.239 -0.026 0.265 -0.428 0 -0.4 -2.662 0.292 -5.344 0.638 -8 0.957 -0.239 0.053 -0.239 0.452 0 0.4l8 -0.957Z" stroke-width="1"></path><path id="vector_32" fill="#ff7449" d="M143.41 108.4c1.418 1.024 2.822 0.542 7.045 2.419 0.24 0.107 0.426 -0.239 0.213 -0.345a27.846 27.846 0 0 0 -3.589 -1.3c-2.06 -0.572 -2.679 -0.567 -3.483 -1.117 -0.241 -0.212 -0.375 0.343 -0.186 0.343Z" stroke-width="1"></path><path id="vector_33" fill="#ff7449" d="M162.9 163.645c0 -0.685 -5.614 -0.091 -6.7 2.712 -0.255 0.659 5.757 6.064 6.168 6.434a0.206 0.206 0 0 0 0.213 0.037 0.209 0.209 0 0 0 0.133 -0.17c-0.021 -4.33 0.472 -8.87 0.186 -9.013Z" stroke-width="1"></path><path id="vector_34" fill="#ffb949" d="M172.044 170.531c-1.454 -5.6 -7.158 -6.826 -7.258 -6.886 -0.507 -0.254 0.012 0.768 -1.569 11.007 -1.356 -1.011 -2.741 -1.991 -4.068 -3.031 -2.951 -2.315 -3.663 -3.643 -3.988 -3.643 -0.585 -0.585 -2.647 4.912 -1.037 9.226 2.342 6.274 11.333 8.446 15.58 3.164a11.491 11.491 0 0 0 2.34 -9.837Z" stroke-width="1"></path><path id="vector_35" fill="#ff7449" d="M76.065 182.5c-0.447 -0.131 -2.207 -0.439 -2.207 0.026 0 0.389 0.4 0.051 1.622 0.266 -8.392 1.31 -14.145 1.957 -21.429 2.686 -15.538 -5.18 -14.968 -4.217 -12.735 -4.44a0.212 0.212 0 0 0 0.15 -0.364 0.212 0.212 0 0 0 -0.15 -0.062c-1.347 0.123 -1.953 -0.183 -1.7 1.064 0.145 0.715 0.135 1.1 0.4 1.01 0.232 -0.058 0.132 -0.353 0 -1.01 0 -0.113 -1.52 -0.947 13.054 3.881 -0.691 0.053 -1.356 0.125 -2.047 0.186 -0.266 0.024 -0.266 0.423 0 0.4a95.61 95.61 0 0 0 2.862 -0.3s0.665 0.211 1.711 0.568c0.239 0.082 0.346 -0.292 0.106 -0.372 -0.492 -0.164 -0.82 -0.3 -0.82 -0.3s7.929 -0.713 20.335 -2.488c-0.18 0.258 -0.628 0.978 -0.292 1.09 0.413 0.1 -0.128 -0.164 1.2 -1.489a0.19 0.19 0 0 0 0.095 -0.197 0.185 0.185 0 0 0 -0.053 -0.102 0.185 0.185 0 0 0 -0.102 -0.053Z" stroke-width="1"></path><path id="vector_36" fill="#ffb949" d="M135.141 64.05a13.267 13.267 0 0 1 -3.163 -5.849c2.016 -3.025 2.986 -7.415 2.392 -8.428 -0.405 -0.693 -1.929 -0.951 -2.632 1.329a13.628 13.628 0 0 0 -0.159 7.019c-1.413 1.978 -3.616 3.813 -5.424 2.207a6.03 6.03 0 0 1 -1.356 -2.42 23.843 23.843 0 0 0 3 -8.029c0.145 -3.613 -6.269 -0.675 -3.376 8a9.457 9.457 0 0 1 -3.217 3.748c-0.467 0.257 0.6 1.216 3.376 -3.323 1.5 4.1 4.572 3.8 7.126 0.266a12.99 12.99 0 0 0 3.19 5.743c0.135 0.138 0.376 -0.104 0.243 -0.263Zm-7.736 -14.7c0.359 1.483 -1.772 6.287 -2.739 8.083 -2.321 -7.314 2.234 -10.178 2.739 -8.086v0.003Zm4.2 4.36c0.1 -1.051 0.432 -3.5 1.383 -3.961 2.409 -1.164 0.794 5.089 -1.117 8.029a13.42 13.42 0 0 1 -0.271 -4.071l0.005 0.003Z" stroke-width="1"></path><g id="group_2"><path id="vector_37" fill="#ffb949" d="M142.8 84.761c-0.11 -0.165 -0.232 -0.027 -0.345 -0.027 -0.053 -0.638 -0.067 -1.277 -0.133 -1.914 -0.022 -0.213 -0.341 -0.213 -0.319 0 0.068 0.663 0.106 1.329 0.133 1.994a1.509 1.509 0 0 1 -0.957 -0.159 0.175 0.175 0 0 0 -0.24 0.052 0.173 0.173 0 0 0 0.053 0.24c1.255 0.627 1.122 -0.65 1.25 1.649 0.027 0.212 0.346 0.212 0.319 0 -0.026 -0.506 -0.08 -1.011 -0.106 -1.516 0.169 -0.057 0.416 -0.101 0.345 -0.319Z" stroke-width="1"></path><path id="vector_38" fill="#ffb949" d="M137.242 72.185c-0.265 0.06 -0.532 0.107 -0.8 0.16 -0.053 -0.585 -0.07 -1.171 -0.133 -1.755 -0.023 -0.213 -0.341 -0.213 -0.319 0 0.065 0.611 0.08 1.223 0.133 1.835 -0.372 0.079 -0.719 0.126 -1.09 0.212a0.161 0.161 0 0 0 -0.101 0.075 0.154 0.154 0 0 0 -0.018 0.124 0.158 0.158 0 0 0 0.075 0.102 0.162 0.162 0 0 0 0.124 0.018c0.345 -0.083 0.691 -0.133 1.037 -0.212 0.026 0.478 0.05 0.931 0.106 1.409 0.025 0.213 0.346 0.212 0.319 0 -0.1 -1.76 -0.377 -1.413 0.771 -1.622a0.183 0.183 0 0 0 0.019 -0.318 0.182 0.182 0 0 0 -0.123 -0.028Z" stroke-width="1"></path></g><path id="vector_39" fill="#501200" d="M29.166 57.217c0.419 0.209 31.6 0.084 31.931 -0.08 0.212 -0.133 0 -0.479 -0.213 -0.345 0.1 -0.1 0.387 0.106 -3.4 0.106 0 -0.1 0.151 -22.753 -0.053 -23.5 -0.074 -0.222 0.005 -0.237 -5.823 -0.319 -0.86 -0.012 -0.6 17.826 -0.133 23.875 -20.186 -0.003 -23.404 -0.284 -22.309 0.263Zm22.649 -23.686c1.755 0.054 3.45 0.1 5.2 0.129l0.063 23.211c-1.728 0.027 -3.456 0.027 -5.211 0.053a177.895 177.895 0 0 1 -0.052 -23.393Z" stroke-width="1"></path></g><g id="person"><g id="group_3"><path id="vector_40" fill="#f9f5e5" d="M139.847 117.649c-0.207 -2.425 -3.422 -9.391 -5 -12.336 -0.214 0.054 -0.439 0.121 -0.664 0.194 1.372 -5.083 1.5 -5.406 1.329 -5.538 -0.42 0.175 -0.608 0.662 -1.542 2.871 0.824 -3.3 0.2 -5.358 -0.346 -2.765a13.26 13.26 0 0 1 -0.851 2.606c0.569 -5.58 -0.624 -5.471 -0.638 -4.653a16.332 16.332 0 0 1 -0.319 4.573 7.653 7.653 0 0 0 -0.744 -3.643c-0.716 -1.484 0.235 1.168 -0.4 4.972a6.578 6.578 0 0 0 -2.978 -1.17c0.769 0.946 2.215 1.447 3.295 3.89 -0.133 0.061 -0.292 0.138 -0.477 0.232 0.888 2.716 1.863 5.692 2.678 8.443 -11.388 0.576 -14.484 4.265 -15.067 4.265a17.552 17.552 0 0 0 -0.346 -2.393l-5.291 0.8c0.16 0.664 -0.292 1.382 -0.133 2.047 -3.064 -2.095 -6.934 -1.554 -10.389 -0.143 0.43 -1.245 1.14 -3.644 2.28 -7.142a18.596 18.596 0 0 0 -3.543 -1.937c-7.358 8.813 -11.9 19.28 -0.392 18.82 1.8 -0.072 3.407 -0.147 4.7 -0.21 -0.038 1.811 -0.787 17.106 -0.927 20.737 -0.036 0.933 -0.163 1.172 1.182 1.274 1.909 0.145 7.237 0.035 23.018 0.053 0.131 -0.043 0.786 -0.153 1.622 -0.4 0 -1.295 -1.109 -22.4 -1.228 -25.15 2.969 -1.433 11.424 -5.354 11.171 -8.297Z" stroke-width="1"></path><path id="vector_41" fill="#f9f5e5" d="M98.372 189.7c-0.184 0.11 -0.4 0.32 -0.346 0.532 0.112 0.42 2.181 0.372 4.732 0.372 5.62 0 6.554 0.478 7.073 0.186 0.863 -0.487 0.313 -3.739 0.133 -4.6 -6.59 0.535 -5.835 0.073 -11.592 3.51Z" stroke-width="1"></path><path id="vector_42" fill="#f9f5e5" d="M134.849 189.7c-5.679 -3.539 -5.039 -2.975 -11.592 -3.536 -0.187 0.894 -0.732 4.112 0.133 4.6 0.531 0.3 1.211 -0.186 7.072 -0.186 1.993 -0.001 5.926 0.222 4.387 -0.878Z" stroke-width="1"></path><path id="vector_43" fill="#f9f5e5" d="M108.634 113.741a6.313 6.313 0 0 0 1.781 0.159l-0.345 -2.18a1.328 1.328 0 0 0 -1.7 0.665c-0.146 0.406 -0.127 1.108 0.264 1.356Z" stroke-width="1"></path><path id="vector_44" fill="#f9f5e5" d="M121.476 112.305c0.075 -0.564 -0.431 -1.286 -1.782 -1.2l-0.053 2.206c0.693 -0.045 1.773 -0.139 1.835 -1.006Z" stroke-width="1"></path><path id="vector_45" fill="#f9f5e5" d="M100.844 110.79c4.863 2.706 1.638 1.732 5.5 -0.825a9.93 9.93 0 0 0 1.3 -0.9 6.424 6.424 0 0 0 -3.084 0.8c-0.177 -3.954 1.153 -6.173 0.213 -5a7.888 7.888 0 0 0 -1.2 3.509 16.549 16.549 0 0 1 0.265 -4.573c0 -1.038 -1.116 -0.585 -1.223 4.547a12.903 12.903 0 0 1 -0.5 -2.686c-0.192 -2.415 -1.107 -1.118 -0.691 2.712 -0.735 -2.482 -0.758 -2.79 -1.17 -3.031 -0.224 0.111 -0.098 0.473 0.59 5.447Z" stroke-width="1"></path></g><path id="vector_46" fill="#501200" d="M140.033 117.41c-0.406 -2.843 -3.556 -9.5 -5 -12.2 -0.094 -0.141 -0.186 -0.086 -0.532 0 1.252 -5.008 1.463 -5.05 1.144 -5.37a0.168 0.168 0 0 0 -0.181 -0.058 0.17 0.17 0 0 0 -0.059 0.031c-0.566 0.267 -0.724 1.023 -0.93 1.436 0.1 -0.934 0.325 -2.378 -0.213 -2.5 -0.585 -0.132 -0.721 1.009 -0.8 1.356 -0.771 3.467 0.36 -2.686 -1.037 -2.686 -0.661 -0.055 -0.478 1.132 -0.478 2.048 0 3.617 0.04 -0.56 -1.17 -1.064 -0.624 -0.208 0.307 1.264 -0.266 5.211a6.054 6.054 0 0 0 -2.818 -1.037 0.2 0.2 0 0 0 -0.183 0.128 0.203 0.203 0 0 0 0.05 0.218c0.887 1.06 2.094 1.447 3.164 3.669 -0.185 0.093 -0.5 0.136 -0.4 0.346 0.878 2.738 1.755 5.45 2.579 8.215 -14.565 0.88 -14.071 5.85 -14.756 3.111 0.053 -0.027 0.107 -0.027 0.16 -0.054 1.22 -0.465 1.6 -3.428 1.675 -4.732 2.322 -0.211 2.055 -2.374 0.212 -2.579 0.488 -5.853 0.719 -6.687 0.24 -6.328a7.775 7.775 0 0 1 -2.047 0.718c0.332 -0.41 0.617 -0.856 0.85 -1.329 0.08 -0.186 -0.079 -0.372 -0.266 -0.266 -0.586 0.293 -0.461 0.32 -0.372 0.053a0.192 0.192 0 0 0 -0.05 -0.189 0.186 0.186 0 0 0 -0.088 -0.051 0.203 0.203 0 0 0 -0.101 0.001 18.917 18.917 0 0 1 -3.43 1.436c0.144 -1 0.53 -1.185 0.24 -1.33 -0.336 -0.224 -0.583 0.992 -0.612 1.2 -0.172 -0.344 -0.887 -1.612 -1.2 -1.3 -0.276 0.276 0.346 0.374 0.877 1.568 0 0.506 -5.735 -0.235 -4.706 6.408 -1.752 0 -1.919 2.333 -0.718 2.579 0.11 0.022 1.282 0.08 1.356 0.08 1.223 4.225 1.477 3.968 2.154 4.307 0 0.425 -0.16 0.851 -0.186 1.276 -3.031 -1.835 -6.727 -1.3 -9.917 -0.08 2.381 -6.981 2.245 -6.794 1.914 -7.125a8.066 8.066 0 0 1 1.595 -1.808c0.757 -0.63 2.855 -1.682 1.941 -1.835a6.21 6.21 0 0 0 -2.9 0.692c-0.057 -1.67 0.15 -3.339 0.612 -4.945 0.118 -0.384 -0.686 -0.762 -1.649 2.126 0.1 -1.941 0.764 -3.775 -0.159 -3.562 -0.727 0.121 -1.043 2.769 -1.091 3.669 -0.255 -1.663 -0.157 -2.579 -0.744 -2.579 -0.834 0 -0.377 3.538 -0.665 2.1 -0.15 -0.509 -0.588 -1.485 -0.9 -1.17 -0.323 0.265 -0.165 0.348 0.532 5.5 -0.2 -0.067 -10.427 11.815 -6.673 17.149 1.934 2.748 6.294 2.079 10.874 1.861 -0.964 21.948 -1.272 21.454 -0.293 22.014 0.448 0 -0.744 32.374 -0.744 34.962 -1.457 0.6 -1.283 0.73 -1.515 0.265a0.198 0.198 0 0 0 -0.116 -0.07 0.197 0.197 0 0 0 -0.225 0.121 0.199 0.199 0 0 0 -0.005 0.136c0.053 0.106 0.133 0.186 0.186 0.292 -0.239 0.133 -0.505 0.239 -0.744 0.372 -0.149 -0.247 -0.331 -0.639 -0.532 -0.505 -0.219 0.146 -0.034 0.342 0.159 0.665 -0.677 0.356 -1.371 0.8 -2.5 1.489 -0.265 0.161 -0.605 0.346 -0.638 0.691 -0.116 1.208 4.768 0.514 9.678 0.877 2.28 0.169 3.533 0.938 2.791 -3.881 0.335 -0.335 0.991 -9.915 6.328 -29.485 1.726 6.239 6.364 24.718 6.089 31.186 -0.109 2.546 0.475 2.366 2.313 2.233 6.778 -0.488 9.826 0.1 10.262 -0.558 0.4 -0.609 -0.72 -1.086 -1.09 -1.3 -0.669 -0.391 -1.3 -0.8 -1.994 -1.17 0.18 -0.3 0.4 -0.545 0.16 -0.664 -0.262 -0.131 -0.276 0.185 -0.532 0.5a6.467 6.467 0 0 0 -0.745 -0.372c0.054 -0.107 0.133 -0.186 0.187 -0.293 0.139 -0.209 -0.225 -0.428 -0.346 -0.186a1.036 1.036 0 0 1 -0.2 0.278s-0.386 -0.161 -1.21 -0.491l-0.984 -34.988c1.624 -0.361 1.677 -0.168 1.542 -1.383 -0.072 -1.66 -1.148 -24.039 -1.249 -24.141 2.8 -1.327 8.041 -3.806 10.209 -6.247a2.633 2.633 0 0 0 0.886 -2.662Zm-19.833 -6.089c1.431 0.179 1.537 1.639 -0.159 1.808 0.079 -0.611 0.105 -1.223 0.159 -1.808Zm-11.007 2.34c-1.115 0 -0.964 -1.834 0.452 -1.834 0.287 2.014 0.898 1.834 -0.453 1.834h0.001Zm19.037 -10.608c1.659 0.375 2.481 1.452 2.6 0.957 0.27 -1.581 0.315 -3.192 0.133 -4.786a9.022 9.022 0 0 1 0.612 3.4c0 0.214 0.718 1.174 0.718 -3.456 0 -0.979 -0.047 -1.074 0.026 -1.2 0.163 -0.326 0.665 0.954 0.213 4.732 -0.023 0.187 0.295 0.268 0.372 0.107 0.833 -1.747 1.2 -4.333 1.2 -3.43a14.192 14.192 0 0 1 -0.372 3.43c-0.052 0.213 0.27 0.374 0.372 0.159 1.65 -3.473 1.71 -4.292 -0.106 2.366 0 0.12 -0.2 -0.057 -2.951 1.09a8.553 8.553 0 0 0 -2.818 -3.369h0.001Zm-15.607 16.112c0.221 -0.883 -0.249 -0.614 1.356 -0.532a18.811 18.811 0 0 0 3.829 -0.239c0.218 0.634 0.19 1.326 -0.08 1.94 -0.69 0.992 -2.593 1.1 -3.775 0.745 -1.409 -0.427 -1.559 -1.001 -1.331 -1.914h0.001Zm-11.406 -10.8c0.058 0.212 0.427 0.186 0.4 -0.053a8.861 8.861 0 0 1 0.16 -3.563c0.235 0.408 0.034 1.316 0.664 3.59a0.202 0.202 0 0 0 0.361 0.095 0.203 0.203 0 0 0 0.039 -0.149c0.013 -0.8 0.02 -1.6 0.107 -2.392 0.06 -0.552 0.479 -2.5 0.691 -2.287 0.081 0.108 -0.642 4.733 -0.24 4.733 0 0.315 0.377 0.214 0.4 0 0.095 -0.983 0.374 -1.94 0.824 -2.819 0.652 -1.3 -0.3 0.438 -0.239 4.281 0.01 0.574 0.992 -0.424 2.712 -0.585a9.435 9.435 0 0 0 -3.27 3c-2.71 -1.642 -2.765 -1.29 -2.765 -1.462 -0.576 -4.854 -1.234 -7.438 0.155 -2.384l0.001 -0.005Zm8.88 81.272c0 1.425 -0.354 0.977 -4.679 0.824 -7.993 -0.283 -9.07 0.586 -4.2 -2.233 0.094 0.186 0.279 0.488 0.452 0.372 0.229 -0.152 0.025 -0.336 -0.106 -0.532 0.883 -0.491 0.676 -0.484 1.063 0 0.148 0.148 0.632 0.02 0.08 -0.532v-0.026l-0.026 -0.027c0.469 -0.22 0.952 -0.408 1.447 -0.562 0 0 1.18 0.379 5.837 0.19 0.147 0.837 0.192 1.688 0.135 2.536l-0.003 -0.01Zm20.472 -2.154c-0.533 0.534 -0.139 0.778 0.054 0.585l0.319 -0.4c0.239 0.133 0.5 0.24 0.744 0.373 -0.081 0.161 -0.36 0.4 -0.106 0.531 0.191 0.1 0.3 -0.074 0.452 -0.372 4.373 2.551 4.318 1.98 -3.563 2.18 -4.787 0.122 -5.706 1.429 -5.066 -3.261 6.397 0.274 4.609 -0.829 7.165 0.374l0.001 -0.01Zm9.093 -69.525c-0.426 3.342 -11.394 7.815 -12.044 8.3 -0.214 0.158 0.007 0.629 0.225 0.476 0.193 -0.135 0.409 -0.233 0.637 -0.292 0.288 0.966 0.284 5.851 1.239 24.462v0.027c-0.479 0.133 -0.984 0.239 -1.463 0.346 -0.087 0 -19.323 -0.1 -23.04 -0.128 -0.441 0 -0.885 0.1 -0.83 -0.668 0.186 -2.619 0.849 -20.78 0.846 -20.873 1.01 -0.053 2.047 -0.119 3.058 -0.133a0.197 0.197 0 0 0 0.141 -0.059 0.197 0.197 0 0 0 0 -0.282 0.197 0.197 0 0 0 -0.141 -0.059c-9.526 0.216 -9.614 0.419 -10.609 0.265 -3.834 -0.593 -4.859 -3.352 -3.8 -6.992 1.193 -4.105 4.155 -7.979 6.85 -11.263a23.373 23.373 0 0 1 3.333 1.745 353.451 353.451 0 0 1 -2.286 6.939 55.067 55.067 0 0 0 -3.855 1.888c-0.24 0.106 -0.027 0.452 0.212 0.345 3.457 -1.808 7.253 -3.747 11.273 -2.977 0.76 0.145 2.575 0.71 2.872 1.3 0.693 1.64 5.627 2.019 6.061 -0.585 0.568 0 3.145 -4.046 16.458 -4.307a0.197 0.197 0 0 0 0.141 -0.059 0.197 0.197 0 0 0 0 -0.282 0.197 0.197 0 0 0 -0.141 -0.059l-1.436 0.079a476.333 476.333 0 0 0 -2.552 -8.135 27.4 27.4 0 0 1 3.988 -1.436c1.056 1.997 5.134 10.295 4.862 12.427l0.001 -0.01Z" stroke-width="1"></path></g></g></svg>