<svg xmlns="http://www.w3.org/2000/svg" fill="none" viewBox="0 0 200 200"><g id="remote-team-2--Work-remote-team"><g id="person 3"><path id="vector" fill="#fccac2" d="M101.695 156.176c-0.217 -8.362 -1.035 -24.458 -1.125 -25.52 -0.096 -1.126 -0.282 -2.326 -0.997 -3.222 -1.101 -1.38 -2.966 -1.355 -4.577 -1.355H27.538c-1.074 0 -2.227 -0.004 -3.196 0.511 -2.249 1.195 -2.039 4.354 -2.174 7.058 -0.566 11.404 -1.226 24.813 -1.1 36.107 0.085 7.627 0.108 8.117 0.384 9.231 0.259 1.048 0.791 2.101 1.816 2.583 1.097 0.516 2.378 0.228 3.529 0.281 5.28 0.244 27.19 0.666 32.476 0.716 7.1 0.068 35.57 -0.677 36.593 -0.716 2.387 -0.091 5.667 0.958 5.856 -5.089 0.213 -6.827 0.153 -13.706 -0.026 -20.585h-0.001Z" stroke-width="1"></path><path id="vector_2" fill="#501200" d="M100.826 136.435H22.219c-0.409 0 -0.409 0.639 0 0.639h78.607c0.409 0 0.409 -0.639 0 -0.639Z" stroke-width="1"></path><path id="vector_3" fill="#501200" d="M26.541 132.19c0 1.264 1.203 1.999 2.378 1.483 1.605 -0.704 0.931 -3.199 -0.716 -3.12 -0.912 0.044 -1.662 0.664 -1.662 1.637Z" stroke-width="1"></path><path id="vector_4" fill="#501200" d="M31.604 132.113c0 1.264 1.203 1.999 2.378 1.483 1.605 -0.704 0.931 -3.199 -0.716 -3.12 -1.147 0.055 -1.858 1.244 -1.662 1.637Z" stroke-width="1"></path><path id="vector_5" fill="#501200" d="M36.642 132.292c0 1.264 1.203 1.999 2.378 1.483 1.605 -0.704 0.931 -3.199 -0.716 -3.12 -1.228 0.059 -1.923 1.376 -1.662 1.637Z" stroke-width="1"></path><path id="vector_6" fill="#f9f5e5" d="M106.477 153.414c10.402 10.604 21.845 22.035 37.155 24.011 5.448 0.703 11.33 -0.049 15.624 -3.452 4.861 -3.852 8.645 -11.594 7.365 -18.718 -0.91 -5.065 -4.581 -9.678 -9.513 -11.072 -1.791 -0.507 -3.682 -0.572 -5.549 -0.537 -5.396 0.101 -10.764 1.258 -15.752 3.248 -5.404 2.156 -6.024 3.102 -14.039 4.424a240.193 240.193 0 0 1 -15.445 2.02l0.153 0.077 0.001 -0.001Z" stroke-width="1"></path><path id="vector_7" fill="#ff7449" d="M157.364 143.902c-2.531 -0.743 -5.242 -0.665 -7.85 -0.486 -5.325 0.365 -10.29 1.616 -15.189 3.733 -5.894 2.548 -6.698 2.949 -15.599 4.322 -4.522 0.697 -10.002 1.342 -12.428 1.56 -0.383 0.034 -0.409 0.639 -0.026 0.639 10.016 10.226 21.573 22.012 37.232 24.088 10.249 1.359 18.339 -2.409 22.273 -12.377 3.959 -10.03 -0.977 -19.297 -8.413 -21.48v0.001Zm6.265 24.446c-3.538 6.049 -8.878 9.28 -17.158 9.001 -15.752 -0.53 -28.538 -12.565 -39.38 -23.781a228.382 228.382 0 0 0 15.42 -2.071c2.608 -0.439 5.188 -0.979 7.671 -1.918 3.999 -1.512 11.185 -5.679 22.349 -5.651 2.404 0.006 4.752 0.341 6.879 1.509 6.615 3.633 9.916 13.172 4.219 22.912v-0.001Z" stroke-width="1"></path><path id="vector_8" fill="#ff7449" d="M155.727 153.67c0.409 -0.056 0.23 -0.69 -0.179 -0.614 -0.596 0 -18.406 0.192 -19.613 0.102 -0.409 -0.03 -0.409 0.62 0 0.639 0.101 0.005 18.835 0.002 19.792 -0.128v0.001Z" stroke-width="1"></path><path id="vector_9" fill="#ff7449" d="M155.727 157.02c-0.106 0 -18.446 0.189 -19.613 0.102 -0.409 -0.03 -0.409 0.612 0 0.639 0.476 0.031 18.915 0.04 19.767 -0.102 0.411 -0.069 0.256 -0.69 -0.153 -0.639h-0.001Z" stroke-width="1"></path><path id="vector_10" fill="#ff7449" d="M155.727 161.444c-0.106 0 -18.446 0.189 -19.613 0.102 -0.409 -0.03 -0.409 0.612 0 0.639 0.476 0.031 18.915 0.04 19.767 -0.102 0.411 -0.069 0.256 -0.69 -0.153 -0.639h-0.001Z" stroke-width="1"></path><path id="vector_11" fill="#ff7449" d="M155.727 166.021c-0.106 0 -18.446 0.189 -19.613 0.102 -0.409 -0.03 -0.409 0.612 0 0.639 0.476 0.031 18.915 0.04 19.767 -0.102 0.411 -0.069 0.256 -0.716 -0.153 -0.639h-0.001Z" stroke-width="1"></path><path id="vector_12" fill="#ff7449" d="M5.47 121.987c1.903 -1.386 3.16 -3.497 3.606 -5.575 0.153 -0.716 0.315 -1.535 0.205 -2.276 -0.095 -0.64 -0.738 -1.375 -1.458 -0.946 -0.51 0.304 -0.882 1.338 -0.972 1.943 -0.527 3.547 2.982 6.713 5.319 6.035 1.454 -0.422 2.388 -1.788 2.659 -3.222 0.219 -1.158 0.163 -3.648 -0.358 -4.603 -0.951 -1.743 -3.468 -0.304 -2.404 3.171 0.847 2.766 3.4 4.261 6.009 4.066 0.409 -0.031 0.409 -0.67 0 -0.639 -2.662 0.198 -5.067 -1.559 -5.549 -4.194 -0.457 -2.498 1.343 -3.527 1.662 -1.125 0.092 0.692 0.135 1.381 0.128 2.071 -0.028 2.779 -1.73 4.044 -3.043 3.938 -1.348 -0.109 -3.472 -1.922 -3.81 -4.015 -0.178 -1.1 0.122 -2.173 0.537 -2.711 0.257 -0.332 0.542 -0.052 0.614 0.281 0.137 0.637 -0.019 1.459 -0.153 2.097 -0.401 1.899 -1.605 3.901 -3.324 5.191 -0.332 0.205 0.006 0.749 0.332 0.511v0.002Z" stroke-width="1"></path><path id="vector_13" fill="#f9f5e5" d="M74.564 155.23c-0.08 -0.639 -0.179 -1.445 -0.997 -1.458a0.536 0.536 0 0 0 -0.205 0.026c-0.254 -0.592 -0.745 -0.74 -1.125 -0.588a1.602 1.602 0 0 0 -0.307 0.128c-0.026 0 -0.026 0.026 -0.026 0.026 0.111 0 -0.192 -0.24 -0.281 -0.307 -0.477 -0.477 -0.754 -0.588 -1.176 -0.588 -0.077 0 -0.307 0 -0.384 0.051 -0.256 -0.307 -0.877 -0.285 -1.048 0.102 -0.134 0.304 -0.256 0.588 -0.409 0.895 -0.102 0.205 -0.179 0.511 -0.307 0.69 -0.102 0.128 -0.332 0.205 -0.486 0.281 -0.077 0.026 -0.128 0.077 -0.205 0.128a0.929 0.929 0 0 0 -0.384 0.384l-0.077 0.153c-0.077 0.205 0 0.435 0.128 0.588 0.081 1.137 0.872 1.527 1.227 2.199 0.026 0.026 0.026 0.077 0.051 0.102 0.1 0.201 -0.004 0.201 0.23 0.435 0.512 0.896 1.058 0.811 1.943 0.69a58.331 58.331 0 0 0 1.688 -0.256c0.51 -0.085 1.146 -0.11 1.585 -0.384 0.506 -0.315 0.537 -0.972 0.563 -1.509 0.102 -0.588 0.074 -1.201 0 -1.79l0.002 0.002Zm-1.56 -1.074c0 0.026 -0.026 0.051 -0.026 0.077 0 -0.026 0 -0.051 0.026 -0.077Zm0.026 -0.051s0 0.026 -0.026 0.026c-0.017 0 -0.009 -0.009 0.026 -0.026Zm-2.89 -1.483c0 -0.026 -0.026 -0.026 -0.026 -0.051 0 0.026 0.026 0.026 0.026 0.051Z" stroke-width="1"></path><path id="vector_14" fill="#ff7449" d="M74.743 158.528c0 -0.077 -0.077 -0.155 -0.153 -0.153 -1.152 0.026 -4.628 0.179 -5.191 0.179 -0.274 0 -0.722 -0.07 -0.869 0.077 -2.274 -3.058 -3.515 -3.412 -6.879 -3.606 -4.053 -0.233 -6.103 0.081 -8.183 1.406 -4.425 2.82 -6.948 10.173 -8.106 15.292 -0.775 3.425 -1.202 6.93 -1.432 10.433 0 0.077 0.077 0.153 0.153 0.153 15.417 0.15 10.112 0.375 25.776 0.179 0.077 0 0.153 -0.077 0.153 -0.153 0 -0.537 0.026 -1.1 0.026 -1.637 0 -1.046 0.011 -0.955 0.537 -1.406 5.676 -4.366 4.868 -13.459 4.168 -20.764Z" stroke-width="1"></path><path id="vector_15" fill="#501200" d="M69.654 179.369c0.408 -0.108 0.562 0.509 0.179 0.614 -6.055 1.651 -13.86 -5.118 -17.644 -10.229 -0.25 -0.337 0.303 -0.662 0.537 -0.332 2.178 3.078 5.277 5.996 9.027 8.183 2.356 1.374 5.155 2.493 7.902 1.764h-0.001Z" stroke-width="1"></path><path id="vector_16" fill="#501200" d="M68.35 159.168c0.125 -0.384 0.744 -0.23 0.614 0.179 -1.36 4.277 -2.199 8.745 -2.25 13.246 -0.005 0.409 -0.644 0.409 -0.639 0 0.013 -1.176 0.102 -2.353 0.205 -3.529 -2.746 -4.021 -3.294 -4.962 -4.245 -6.112 -1.413 -1.708 -3.299 -3.235 -5.6 -3.248 -0.409 -0.002 -0.409 -0.639 0 -0.639 4.549 0 7.202 4.956 9.922 9.001 0.409 -3.017 1.055 -6.015 1.995 -8.899l-0.002 0.001Z" stroke-width="1"></path><path id="vector_17" fill="#501200" d="M67.455 142.674s-0.026 0.026 0 0c-0.026 0.026 0 0.026 0 0Z" stroke-width="1"></path><path id="vector_18" fill="#f9f5e5" d="M59.13 153.246c-1.021 2.437 -1.507 3.013 -0.796 3.869 0.47 0.566 1.536 1.253 2.513 1.608 0.977 0.355 2.249 0.385 2.797 0.296 1.255 -0.204 1.11 -0.491 1.672 -4.942 0 0 1.877 0.279 2.869 -1.093 2.114 -2.923 1.076 -5.231 1.109 -6.829 0.015 -0.7 0.905 -2.072 0.963 -2.802 0.058 -0.73 -0.336 -0.7 -0.715 -0.452 -0.379 0.248 -0.876 0.642 -1.197 0.233 -0.321 -0.409 -2.437 -4.626 -2.437 -4.626s-2.8 -0.287 -5.23 0.726c-2.43 1.013 -3.798 2.127 -3.798 2.127s0.934 1.352 0.629 2.666c-0.304 1.314 -0.801 1.875 -0.801 1.875 -2.935 -0.344 -3.422 2.803 -1.699 3.253 1.41 0.369 2.324 -0.657 2.324 -0.657 0.175 1.926 0.773 3.363 1.798 4.749l-0.001 -0.001Z" stroke-width="1"></path><path id="vector_19" fill="#501200" d="M56.178 147.789c-0.216 0 -0.066 -0.009 -0.409 0.077 -0.547 0.274 -0.682 -0.103 -0.614 -0.307 0.104 -0.311 0.695 -0.46 1.023 -0.46 0.427 0 0.443 0.69 0 0.69Z" stroke-width="1"></path><path id="vector_20" fill="#501200" d="M69.117 149.936c0.311 -2.486 -0.214 -3.038 -0.051 -4.219 0.14 -1.017 0.921 -1.848 0.921 -2.711 -0.128 0.026 -0.257 0.152 -0.332 0.205 -0.181 0.125 -0.358 0.256 -0.563 0.358 -0.486 0.205 -0.862 -0.004 -1.1 -0.435 -0.099 -0.181 -0.205 -0.358 -0.307 -0.537 -0.52 0.173 -0.747 0.46 -0.793 0.46 0.128 1.227 -0.46 2.455 -1.585 2.992 -1.672 0.797 -3.481 0.009 -3.964 -1.534 -1.339 -0.065 -2.536 0.358 -3.759 0.511a3.84 3.84 0 0 1 -0.665 1.125c-0.113 0.151 -0.413 0.151 -0.486 0.102 -1.074 -0.435 -2.294 0.715 -2.148 1.816 0.081 0.613 0.664 0.859 1.227 0.818 0.485 -0.035 0.946 -0.281 1.355 -0.537 0.105 -0.158 0.762 -0.479 0.818 0.077 0.169 1.661 0.775 3.2 1.662 4.603a0.302 0.302 0 0 1 0 0.332v0.026c-0.874 2.186 -1.004 2.35 -0.972 2.711 0.093 1.02 2.224 2.73 4.91 2.608 0.563 -0.026 0.972 -0.281 1.151 -0.818 0.153 -0.459 0.156 -0.634 0.511 -3.478 -0.946 -0.077 -1.891 -0.386 -2.659 -0.921 -0.332 -0.231 -0.026 -0.767 0.332 -0.563 1.651 1.117 4.116 1.179 5.396 -0.281 0.49 -0.559 0.818 -1.33 0.997 -2.071 -1.085 0.114 -2.035 -0.798 -1.841 -1.995 0.042 -0.257 0.52 -0.426 0.561 0.185 0.07 1.028 0.586 1.171 1.383 1.171h0.001Zm5.856 4.884a8.47 8.47 0 0 1 -0.153 3.606c-0.101 0.384 -0.718 0.23 -0.614 -0.179 0.378 -1.487 0.291 -2.896 0.102 -3.606 -0.026 -0.128 -0.31 -0.692 -0.486 -0.384 -0.13 0.229 -0.532 0.204 -0.588 -0.077 -0.047 -0.231 -0.102 -0.563 -0.281 -0.716 -0.077 -0.077 -0.358 -0.179 -0.409 -0.026 -0.102 0.256 -0.436 0.333 -0.588 0.077 -0.181 -0.306 -0.382 -0.693 -0.716 -0.844 -0.229 -0.104 -0.537 -0.077 -0.665 0.153 -0.128 0.23 -0.537 0.205 -0.588 -0.077 -0.104 -0.571 -0.939 -0.572 -1.176 0.256 -0.22 0.77 0.211 1.584 0.358 2.327 0.081 0.408 -0.543 0.564 -0.614 0.179 -0.056 -0.306 -0.153 -0.614 -0.23 -0.946 -2.073 0.319 -0.825 2.18 0.69 3.631 0.301 0.288 -0.151 0.739 -0.46 0.46 -0.7 -0.63 -1.729 -1.864 -1.918 -2.685 -0.111 -0.484 -0.05 -1.022 0.281 -1.406 0.308 -0.357 0.793 -0.486 1.253 -0.588 -0.026 -0.179 -0.051 -0.332 -0.051 -0.511 -0.852 0.757 -1.675 0.949 -2.557 1.023 -0.077 0.639 -0.174 1.279 -0.256 1.918 -0.127 0.994 -0.125 2.17 -1.048 2.736 -0.411 0.252 -0.946 0.274 -1.432 0.256a7.062 7.062 0 0 1 -3.017 -0.793c-0.821 -0.429 -1.803 -1.129 -2.071 -2.071 -0.204 -0.714 0.138 -1.362 0.639 -2.532 -1.414 0.707 -5.157 -0.777 -6.418 -1.56 -1.875 -1.163 -3.295 -3.146 -3.964 -5.217 -2.307 -7.142 -0.641 -12.685 6.265 -15.624 4.068 -1.731 10.724 -0.237 12.198 3.785 0.337 0.919 0.409 1.969 0.077 2.89 -0.026 0.102 -0.128 0.205 -0.23 0.307 0.437 0.853 1.689 3.224 1.739 3.324 0.153 0.026 0.281 0.153 0.281 0.307 0 0.051 -0.026 0.102 -0.051 0.153 0.077 0.153 0.205 0.563 0.358 0.639 0.301 0.086 0.776 -0.688 1.406 -0.639 0.409 0.031 0.511 0.281 0.511 0.639 0 0.818 -0.508 1.484 -0.793 2.225 -0.563 1.465 0.736 3.248 -0.563 6.495 0.478 -0.08 0.853 0.066 1.125 0.384 0.256 -0.153 0.588 -0.179 0.895 -0.128 0.46 0.102 0.767 0.46 1.023 0.818 0.426 -0.266 1.167 -0.131 1.458 0.742a0.919 0.919 0 0 1 0.588 0.051c0.486 0.281 0.615 0.792 0.69 1.227v0.001Zm-8.26 -12.428c0.205 -0.153 0.435 -0.281 0.665 -0.358 -0.563 -1.074 -1.1 -2.148 -1.662 -3.196 -1.226 -0.306 -5.753 0.689 -7.748 2.097 -0.128 0.102 -0.563 0.332 -0.588 0.511 0 0.228 0.726 0.914 0.358 2.941 0.849 -0.121 2.158 -0.519 3.401 -0.486 -0.265 -2.121 1.096 -3.952 3.196 -3.554a3.137 3.137 0 0 1 2.378 2.046v-0.001Zm-1.458 2.966c1.791 -1.174 1.02 -4.247 -1.304 -4.424 -1.926 -0.147 -2.288 2.05 -2.176 2.902 0.235 1.791 2.099 2.428 3.481 1.522h-0.001Z" stroke-width="1"></path><path id="vector_21" fill="#501200" d="M65.409 143.365c0.135 0.947 -1.006 1.161 -1.202 0.179 -0.051 -0.153 -0.051 -0.307 -0.077 -0.435 0 -0.212 0.304 -0.452 0.629 -0.404 0.3 0.044 0.597 0.397 0.65 0.66Z" stroke-width="1"></path></g><g id="person 2"><path id="vector_22" fill="#f9f5e5" d="M153.63 131.039c1.151 0.128 32.911 -0.552 35.595 -0.716 1.177 -0.072 2.457 0.233 3.478 -0.358 1.537 -0.89 1.764 -2.864 1.816 -4.577 0.456 -15.164 -0.337 -30.352 -1.1 -45.491 -0.211 -4.18 -1.599 -5.038 -5.012 -5.038h-67.968c-3.376 0 -4.8 0.825 -5.012 5.038 -0.763 15.165 -1.556 30.327 -1.1 45.491 0.052 1.713 0.278 3.687 1.816 4.577 1.021 0.591 2.301 0.286 3.478 0.358 2.684 0.164 34.445 0.844 35.595 0.716h-1.586Z" stroke-width="1"></path><path id="vector_23" fill="#501200" d="M194.928 108.306c-0.147 -7.569 -0.486 -15.138 -0.869 -22.707 0.102 -0.128 0.102 -0.358 -0.026 -0.46 -0.061 -1.34 -0.243 -5.92 -0.486 -7.134 -0.291 -1.456 -1.099 -2.74 -2.583 -3.196 -1.252 -0.386 -2.685 -0.256 -3.989 -0.256 -69.451 0 -67.996 -0.215 -69.452 0.384 -1.41 0.58 -2.05 1.968 -2.276 3.4 -0.18 1.144 -1.618 24.94 -1.355 42.91 0.053 3.635 -0.3 7.788 2.174 9.052 1.13 0.578 2.507 0.264 3.708 0.332 0.358 0.02 35.007 0.742 35.007 0.742l34.317 -0.742c1.303 -0.072 2.76 0.278 3.912 -0.486 1.2 -0.796 1.615 -2.224 1.764 -3.58 0.312 -2.841 0.213 -15.173 0.153 -18.258l0.001 -0.001Zm-79.22 -27.617c0.082 -1.444 0.054 -3.361 1.074 -4.475 1.136 -1.241 3.014 -1.023 5.396 -1.023 68.116 0 67.09 -0.078 68.122 0.128 3.521 0.7 2.582 4.419 3.069 9.768 0 0 -76.919 -0.026 -77.916 0l0.256 -4.398h-0.001Zm78.606 40.403c-0.027 1.841 0.031 3.708 -0.179 5.523 -0.175 1.509 -0.794 3.138 -2.506 3.375l-36.72 0.793c-0.1 0 -37.817 -0.761 -38.127 -0.844 -2.572 -0.688 -2.217 -4.785 -2.276 -9.282 -0.156 -11.99 0.235 -21.95 0.895 -34.93h77.993c0.588 11.85 1.112 22.394 0.921 35.365h-0.001Z" stroke-width="1"></path><path id="vector_24" fill="#501200" d="M119.544 80.817c0 1.264 1.203 1.999 2.378 1.483 1.605 -0.704 0.931 -3.2 -0.716 -3.12 -0.81 0.039 -1.662 0.65 -1.662 1.637Z" stroke-width="1"></path><path id="vector_25" fill="#501200" d="M124.581 80.715c0 1.264 1.203 1.999 2.378 1.483 1.605 -0.704 0.931 -3.199 -0.716 -3.12 -0.897 0.043 -1.662 0.616 -1.662 1.637Z" stroke-width="1"></path><path id="vector_26" fill="#501200" d="M129.644 80.894c0 1.264 1.203 1.999 2.378 1.483 1.605 -0.704 0.931 -3.199 -0.716 -3.12 -1.413 0.068 -1.818 1.48 -1.662 1.637Z" stroke-width="1"></path><path id="vector_27" fill="#ffb949" d="M169.254 113.753a3.825 3.825 0 0 0 -0.409 -0.486c-1.927 -2.228 -4.051 -3.374 -6.7 -4.322 -4.385 -1.569 -4.262 -1.558 -9.299 -1.262 -10.548 0.621 -14.785 1.556 -19.034 11.874a86.748 86.748 0 0 0 -2.148 -12.581c-0.026 -0.077 -0.102 -0.128 -0.205 -0.102 -2.473 0.371 -5.133 1.262 -5.472 1.432 -0.102 0.051 -0.128 0.102 -0.205 0.051 -0.102 -0.051 -0.205 0 -0.23 0.102 -0.793 2.455 -0.78 5.038 -0.793 7.569 -0.019 3.893 -0.328 8.177 0.793 11.354 1.265 3.585 3.515 4.304 7.62 4.424 1.059 0.031 7.156 -0.529 7.156 -1.27l15.593 0.324c0 0.051 10.509 6.862 12.437 7.441 1.178 0.354 2.469 0.163 3.196 -0.869 0.339 -0.481 0.533 -1.049 0.665 -1.611 1.776 -7.58 1.88 -16.01 -2.966 -22.068h0.001Z" stroke-width="1"></path><path id="vector_28" fill="#f9f5e5" d="M162.657 99.561c-0.105 -0.818 -0.852 -1.156 -1.56 -0.997 -0.5 0.112 -0.934 0.407 -1.337 0.708 -2.374 -2.045 -3.956 -4.982 -4.416 -8.073 -1.221 0.94 -2.797 0.951 -8.199 1.324 -0.026 0.457 -1.416 9.322 1.065 13.124 0.614 0.941 1.583 1.71 2.652 1.994 0.209 2.545 0.247 3.166 0.57 3.709 0.392 0.66 1.101 1.019 1.841 1.202 3.088 0.764 5.779 -1.395 5.779 -3.145 0 -0.332 -0.032 -0.377 -0.946 -3.452 1.41 -0.888 1.765 -2.637 2.02 -4.271 1.448 0.463 2.71 -0.743 2.532 -2.123h-0.001Z" stroke-width="1"></path><path id="vector_29" fill="#f9f5e5" d="M157.679 125.978c-1.509 -1.355 -3.025 -3.172 -4.023 -4.937 -0.358 0.179 -0.301 0.689 -0.179 1.074 0.348 1.095 0.665 2.199 0.997 3.324a45.804 45.804 0 0 0 -5.626 -2.455c-0.026 0.332 0.256 0.614 0.537 0.793l3.299 2.455c-1.56 -0.639 -3.096 -1.274 -4.654 -1.918 -0.425 -0.176 -1.084 -0.01 -0.588 0.486a19.893 19.893 0 0 0 3.989 2.455l-4.68 -0.767c0.767 1.588 2.941 1.375 4.398 1.892l-3.35 -0.077c0.026 0.358 0.409 0.563 0.742 0.716a37.148 37.148 0 0 0 7.595 2.122l1.542 -5.164 0.001 0.001Z" stroke-width="1"></path><path id="vector_30" fill="#501200" d="M166.007 103.192c-1.55 -5.591 -0.715 -13.117 -6.035 -16.852 -1.475 -1.035 -3.392 -1.595 -5.14 -1.202 -0.792 0.178 -1.147 0.483 -1.279 0.562 -1.426 -2.214 -6.614 -2.045 -9.589 1.739 -1.463 1.861 -1.807 3.765 -1.713 6.06 0.115 2.826 0.382 3.933 -0.384 7.569 -0.631 2.996 -2.009 6.92 -2.173 9.717 3.163 -2.214 7.014 -2.597 10.816 -2.838 0.306 1.985 0.104 2.81 0.69 3.656 1.501 2.167 6.622 1.818 7.953 -1.355 0.279 -0.666 0.153 -1.304 -0.051 -1.969 -0.051 -0.127 -0.077 -0.255 -0.128 -0.383 0.307 0.077 0.612 0.182 0.92 0.281 4.115 1.324 6.568 2.261 9.308 5.549 0.478 -3.7 -2.205 -6.958 -3.196 -10.535l0.001 0.001Zm-5.856 -1.841c-0.154 -0.049 -0.357 0.051 -0.384 0.23 -0.219 1.459 -0.511 3.17 -1.841 4.04 -0.051 0.025 -0.103 0.077 -0.154 0.128a0.25 0.25 0 0 0 -0.025 0.23c0.909 2.846 0.971 2.961 0.946 3.452 -0.062 1.249 -1.773 2.89 -4.245 2.89 -0.895 0 -1.94 -0.233 -2.557 -0.895 -0.55 -0.59 -0.518 -1.405 -0.69 -3.478 0.333 0.051 0.666 0.059 0.998 0.025 0.41 -0.042 0.409 -0.693 0 -0.639 -2.252 0.294 -3.878 -1.64 -4.5 -3.58 -0.902 -2.81 -0.836 -8.386 -0.274 -10.972 5.064 -0.343 6.436 -0.367 7.664 -1.098a13.698 13.698 0 0 0 4.296 7.646c0.085 0.428 0.735 0.408 0.792 0 0.384 -0.281 0.793 -0.522 1.253 -0.511 1.745 0.04 0.842 3.205 -1.278 2.531l-0.001 0.001Z" stroke-width="1"></path><path id="vector_31" fill="#501200" d="M149.309 97.439c-0.567 -0.402 -1.227 0.028 -1.227 0.92 0 0.436 0.041 0.872 0.102 1.305 0.022 0.154 0.229 0.278 0.384 0.23 0.442 -0.137 0.096 -0.627 0.16 -1.614 0.029 -0.454 0.256 -0.352 0.351 -0.026 0.108 0.369 0.192 1.05 0.231 1.333 0.074 0.538 0.659 0.272 0.614 0a9.076 9.076 0 0 0 -0.153 -1.151c-0.051 -0.384 -0.131 -0.763 -0.46 -0.997h-0.002Z" stroke-width="1"></path><path id="vector_32" fill="#501200" d="M153.503 99.356s-0.002 -0.98 -0.001 -1.013c0.014 -0.574 0.59 -0.613 0.589 0.027 0 0.737 -0.003 0.802 0.026 0.986 0.024 0.154 0.229 0.278 0.384 0.23 0.178 -0.055 0.256 -0.205 0.23 -0.384l0 -0.511c0 -0.459 -0.014 -1.016 -0.511 -1.355 -0.505 -0.345 -1.172 -0.046 -1.33 0.767a4.873 4.873 0 0 0 -0.077 1.227c0.242 0.564 0.733 0.281 0.69 0.026Z" stroke-width="1"></path><path id="vector_33" fill="#501200" d="M151.789 101.428c-0.746 -1.119 -0.716 -0.948 -0.716 -1.048 0.18 0 0.315 0.023 0.511 0.051 0.204 0.03 0.388 -0.076 0.409 -0.307 0.098 -1.072 0.102 -2.148 0.102 -3.222 0 -0.409 -0.639 -0.409 -0.639 0 0 0.946 -0.026 1.892 -0.077 2.838 -0.486 -0.077 -1.165 -0.101 -1.125 0.435 0.019 0.256 0.281 0.537 0.435 0.742 0.179 0.281 0.358 0.537 0.563 0.793 0.23 0.384 0.793 0.051 0.537 -0.281v-0.001Z" stroke-width="1"></path><path id="vector_34" fill="#501200" d="M152.863 105.494c0.64 0.238 1.275 -0.25 1.33 -0.997 0.03 -0.409 -0.153 -0.793 -0.307 -1.176 -0.077 -0.153 -0.307 -0.205 -0.435 -0.102 -0.288 0.192 -0.061 0.519 0.05 0.803 0.19 0.483 -0.044 1.444 -0.816 0.54 -0.177 -0.208 -0.277 -0.394 -0.41 -0.729 -0.051 -0.153 -0.23 -0.281 -0.384 -0.23 -0.154 0.051 -0.281 0.23 -0.23 0.384 0.153 0.639 0.565 1.272 1.202 1.509v-0.002Z" stroke-width="1"></path><path id="vector_35" fill="#501200" d="M160.688 100.584c0.407 -0.407 0.491 -0.394 0.767 -0.486 0.153 -0.051 0.278 -0.23 0.23 -0.384 -0.202 -0.653 -1.56 0.288 -1.56 0.639 0 0.316 0.425 0.402 0.563 0.23v0.001Z" stroke-width="1"></path><path id="vector_36" fill="#501200" d="M169.101 127.664a19.893 19.893 0 0 0 -3.842 -1.501c0.036 -0.967 -0.083 -2.321 -0.377 -3.204 -0.051 -0.153 -0.23 -0.281 -0.383 -0.23 -0.153 0.051 -0.283 0.23 -0.23 0.383 0.463 1.35 0.312 2.429 0.329 2.865 -1.94 -0.505 -4.929 -0.615 -6.901 -0.615a0.195 0.195 0 0 0 -0.128 0.051c-1.432 -1.33 -2.669 -2.819 -3.58 -4.552 -0.08 -0.151 -0.279 -0.2 -0.435 -0.102 -0.808 0.507 -0.287 1.423 0.46 4.041a50.605 50.605 0 0 0 -5.038 -2.174c-0.205 -0.076 -0.409 0.103 -0.409 0.307 0 0.751 0.774 1.144 1.611 1.765 0.571 0.423 0.406 0.28 -0.486 -0.077 -0.853 -0.341 -1.913 -1.006 -2.531 -0.511 -0.307 0.281 -0.156 0.667 0.102 0.895 0.527 0.465 1.726 1.246 2.378 1.637 -0.921 -0.153 -1.842 -0.3 -2.762 -0.46 -0.282 -0.049 -0.488 0.205 -0.358 0.46 0.785 1.543 2.585 1.381 1.304 1.381 -0.23 0 -0.335 0.205 -0.307 0.409 0.093 0.666 0.87 0.895 1.432 1.1 2.064 0.754 4.324 1.456 7.16 1.943 0.077 0.025 0.153 0 0.23 -0.025 0.128 0 0.278 -0.053 0.332 -0.205 0.602 -1.676 1.023 -3.427 1.33 -5.166 4.066 0 7.188 0.343 10.842 2.199 0.307 0.128 0.641 -0.413 0.255 -0.614h0.002Zm-13.016 3.145c-4.792 -0.855 -7.129 -2.001 -7.569 -2.148 0.895 0.026 1.764 0.039 2.66 0.051 0.383 0.005 0.41 -0.515 0.077 -0.639 -1.121 -0.419 -2.762 -0.333 -3.708 -1.151 1.279 0.205 2.555 0.425 3.836 0.639 0.332 0.056 0.591 -0.414 0.256 -0.588 -1.576 -0.818 -2.157 -1.016 -3.679 -2.095 -0.598 -0.424 0.349 -0.284 0.715 -0.133 0.435 0.18 3.092 1.459 3.935 1.819 0.358 0.153 0.516 -0.389 0.255 -0.588 -0.683 -0.522 -2.647 -1.906 -2.971 -2.176 -0.283 -0.142 -0.184 -0.231 0.161 -0.098 0.806 0.311 2.939 1.306 4.293 2.044 0.231 0.126 0.556 -0.074 0.46 -0.358 -0.169 -0.503 -1.003 -3.401 -1.048 -3.58 1.413 2.268 3.453 4.271 3.555 4.271 -0.307 1.585 -0.665 3.196 -1.228 4.73Z" stroke-width="1"></path><path id="vector_37" fill="#501200" d="M133.915 119.302c-0.153 0 -0.332 0.153 -0.307 0.307 0.051 0.69 0.128 1.381 0.179 2.071 0.089 0.535 0.659 0.269 0.614 0 -0.051 -0.69 -0.128 -1.381 -0.179 -2.071a0.311 0.311 0 0 0 -0.307 -0.307Z" stroke-width="1"></path><path id="vector_38" fill="#501200" d="M129.9 100.609c-0.179 0.004 -0.332 0.026 -0.511 0.051 -1.023 -1.406 -2.333 -2.676 -3.861 -3.58 -0.573 -0.339 -1.897 -0.887 -2.378 -0.486 -0.307 0.256 -0.23 0.716 -0.077 1.023 0.234 0.547 0.853 0.855 1.764 1.918 -1.153 -0.461 -1.695 0.248 -1.585 1.125 -0.712 0.285 -0.839 1.312 -0.614 2.046 -0.358 0.102 -0.617 0.511 -0.639 0.895 -0.031 0.537 0.35 1.003 0.639 1.406 0.466 0.648 1.204 1.127 1.995 1.048 0.23 0.793 0.597 1.579 1.074 2.276 0.254 0.371 0.758 0.002 0.537 -0.332 -0.438 -0.663 -0.793 -1.355 -0.997 -2.122 0 -0.026 -0.026 -0.026 -0.026 -0.051 0 0 0.026 0 0.026 -0.026 0.358 -0.256 0.614 -0.716 0.563 -1.151a1.55 1.55 0 0 0 0.972 -0.818c0.46 -0.205 0.946 -0.435 1.432 -0.563a5.625 5.625 0 0 0 -0.23 2.046c0.028 0.409 0.665 0.409 0.639 0a5.318 5.318 0 0 1 0.358 -2.327c0.08 -0.203 -0.128 -0.409 -0.307 -0.409 -1.319 0 -2.965 1.3 -3.145 0.818 -0.051 -0.179 0.075 -0.436 0.179 -0.588 0.227 -0.334 0.613 -0.539 0.972 -0.716 0.944 -0.465 1.969 -0.711 3.017 -0.793 0.307 -0.024 1.1 -0.179 1.227 0.23 0.053 0.211 -0.142 5.051 -0.153 5.268 -0.021 0.409 0.619 0.409 0.639 0 0.069 -1.38 0.093 -2.788 0.153 -4.168 0.022 -0.512 0.147 -1.197 -0.179 -1.637 -0.339 -0.456 -0.971 -0.396 -1.483 -0.384l-0.001 0.001Zm-7.083 3.452c-0.284 -0.426 -0.137 -0.767 0.077 -0.767h0.051c0.584 0.85 1.573 1.366 2.225 1.406 0.139 0.696 -1.229 1.327 -2.353 -0.639Zm2.429 0c-0.769 -0.04 -1.855 -0.905 -2.046 -1.764 -0.123 -0.552 0.124 -0.96 0.281 -1.023 0.337 0.562 0.746 1.115 1.509 1.611 -0.102 0.358 -0.109 0.748 0.153 1.023 0.075 0.079 0.179 0.128 0.256 0.179 -0.051 -0.026 -0.102 -0.026 -0.153 -0.026Zm0.051 -1.739c-0.568 -0.393 -1.461 -1.229 -1.432 -1.892 0.044 -0.997 1.688 0.256 1.969 0.486 0.026 0.026 0.051 0.026 0.077 0.051 0.153 0.179 0.281 0.384 0.358 0.614 0.122 0 -0.513 0.145 -0.972 0.742v-0.001Zm1.585 -1.023a5.2 5.2 0 0 0 -0.665 -0.997c-1.278 -1.989 -2.136 -2.241 -2.506 -2.89 -0.026 -0.051 -0.153 -0.281 -0.102 -0.332 0 -0.026 0.179 0 0.23 0.026 1.61 0.161 3.851 2.288 4.884 3.682a8.088 8.088 0 0 0 -1.841 0.511Z" stroke-width="1"></path><path id="vector_39" fill="#501200" d="M144.348 120.76c-0.603 3.296 -0.957 6.598 -1.151 9.947 -0.024 0.409 0.614 0.409 0.639 0 0.205 -3.273 0.563 -6.546 1.151 -9.768 0.051 -0.435 -0.564 -0.588 -0.639 -0.179Z" stroke-width="1"></path><path id="vector_40" fill="#ff7449" d="M189.89 145.922c-0.775 -0.81 -1.509 -1.688 -1.969 -2.711 1.457 -0.991 2.059 -3.065 1.713 -3.81 -0.236 -0.509 -0.818 -0.713 -1.33 -0.614 -1.507 0.291 -1.585 2.429 -1.33 3.606l0.153 0.537c-0.026 0 -0.051 0.026 -0.077 0.026 -0.972 0.332 -2.005 0.031 -2.48 -0.895a4.809 4.809 0 0 1 -0.511 -1.816c0.921 -0.614 1.852 -1.375 2.378 -2.353 1.509 -2.805 -1.787 -4.885 -2.864 -0.077a7.395 7.395 0 0 0 -0.153 2.071c-0.051 0.026 -0.077 0.051 -0.128 0.077 -1.125 0.716 -2.424 1.33 -3.785 1.048 -0.408 -0.084 -0.562 0.533 -0.179 0.614 1.487 0.315 2.915 -0.256 4.168 -1.048 0.386 2.663 2.076 3.594 3.887 2.915 0.486 1.074 1.253 2.046 2.097 2.864 0.23 0.307 0.697 -0.134 0.409 -0.435l0.001 0.001Zm-4.654 -10.126c0.956 -0.868 1.962 1.483 -1.227 3.682 0 -1.178 0.449 -2.976 1.227 -3.682Zm2.455 4.322c0.176 -0.41 0.537 -0.818 1.023 -0.69 0.588 0.154 0.334 0.921 0.205 1.33 -0.227 0.717 -0.639 1.406 -1.227 1.867 -0.256 -0.818 -0.338 -1.716 0 -2.506l-0.001 -0.001Z" stroke-width="1"></path></g><g id="person 1"><path id="vector_41" fill="#f9f5e5" d="M52.573 103.934c1.151 0.128 32.911 -0.552 35.595 -0.716 1.177 -0.072 2.457 0.233 3.478 -0.358 1.537 -0.89 1.764 -2.864 1.816 -4.577 0.456 -15.164 -0.337 -30.352 -1.1 -45.49 -0.211 -4.18 -1.599 -5.039 -5.012 -5.039H19.381c-3.376 0 -4.8 0.825 -5.012 5.038 -0.763 15.165 -1.556 30.327 -1.1 45.491 0.166 5.505 2.597 4.77 5.293 4.935 2.684 0.164 34.445 0.844 35.595 0.716h-1.585Z" stroke-width="1"></path><path id="vector_42" fill="#501200" d="M92.489 50.9c-0.291 -1.457 -1.099 -2.74 -2.583 -3.197 -1.252 -0.386 -2.685 -0.256 -3.989 -0.256 -69.451 0 -67.996 -0.215 -69.452 0.384 -1.41 0.58 -2.05 1.968 -2.276 3.401 -0.18 1.143 -1.618 24.94 -1.355 42.91 0.053 3.634 -0.3 7.787 2.174 9.051 1.13 0.578 2.507 0.264 3.708 0.332 0.358 0.02 34.982 0.742 34.982 0.742l34.317 -0.742c1.303 -0.072 2.76 0.278 3.912 -0.486 1.2 -0.796 1.615 -2.224 1.764 -3.58 0.86 -7.82 -0.636 -45.728 -1.202 -48.56Zm-76.765 -1.817c1.136 -1.24 3.014 -1.023 5.396 -1.023 68.116 0 67.09 -0.078 68.122 0.128 3.521 0.701 2.582 4.417 3.069 9.768 0 0 -76.919 -0.026 -77.916 0 0.352 -5.979 0.217 -7.658 1.33 -8.873h-0.001Zm77.532 44.878c-0.059 3.638 0.424 8.468 -2.685 8.899 -0.022 0.003 -36.353 0.75 -36.388 0.767 -2.868 0 -38.195 -0.748 -38.459 -0.818 -2.572 -0.688 -2.217 -4.785 -2.276 -9.282 -0.156 -11.976 0.233 -21.912 0.895 -34.93h77.993c0.594 11.97 1.126 22.798 0.921 35.365l-0.001 0Z" stroke-width="1"></path><path id="vector_43" fill="#501200" d="M18.511 53.686c0 1.264 1.203 2 2.378 1.483 1.605 -0.704 0.931 -3.199 -0.716 -3.12 -1.228 0.06 -1.923 1.376 -1.662 1.637Z" stroke-width="1"></path><path id="vector_44" fill="#501200" d="M23.549 53.584c0 1.264 1.203 2 2.378 1.483 1.605 -0.704 0.931 -3.199 -0.716 -3.12 -1.413 0.068 -1.818 1.48 -1.662 1.637Z" stroke-width="1"></path><path id="vector_45" fill="#501200" d="M28.587 53.788c0 1.264 1.203 1.999 2.378 1.483 1.605 -0.704 0.931 -3.199 -0.716 -3.12 -0.797 0.038 -1.662 0.631 -1.662 1.637Z" stroke-width="1"></path><path id="vector_46" fill="#f9f5e5" d="M52.146 103.625c1.611 0.972 3.368 3.454 3.956 5.244 0.588 1.79 0.69 3.682 0.742 5.575a18.44 18.44 0 0 1 -2.046 -4.373c0.281 2.02 0.563 4.066 0.153 6.06l-1.534 -5.191a23.783 23.783 0 0 1 -0.205 4.245c-0.052 0.358 -0.128 0.767 -0.46 0.946 -0.428 -0.299 -0.306 -0.653 -0.793 -4.628 -0.358 1.585 -0.767 3.248 -1.943 4.347 -0.179 -1.688 0.153 -3.452 0.997 -4.961 -1.432 -0.844 -2.429 -2.429 -2.583 -4.091l3.716 -3.173Z" stroke-width="1"></path><path id="vector_47" fill="#ffb949" d="M56.766 58.442c-0.662 -0.922 -1.943 -1.279 -2.992 -0.895 0.121 -3.254 -6.881 -3.798 -9.819 1.1 -1.279 -0.92 -3.041 -0.408 -3.964 0.767 -1.819 2.318 -0.618 6.18 0.537 8.924 0.046 0.11 0.359 0.051 0.435 0.026 0.537 -0.307 1.227 -0.102 1.534 0.435 0.051 0.102 0.23 0.102 0.281 0a15.464 15.464 0 0 0 1.534 -4.96c1.355 0.562 2.813 0.637 4.27 0.587 2.852 -0.098 6.236 -0.143 7.927 -2.429 0.73 -0.987 1.026 -2.482 0.256 -3.554l0.001 0Z" stroke-width="1"></path><g id="group"><path id="vector_48" fill="#501200" d="M42.37 69.694a8.76 8.76 0 0 0 -1.355 -0.128c-0.454 0 -0.365 0.666 0 0.614 0.322 0 0.864 0.024 1.176 0.102 0.458 0.076 0.523 -0.535 0.179 -0.588Z" stroke-width="1"></path><path id="vector_49" fill="#501200" d="M48.174 69.847c0.625 0.462 1.211 -1.213 0.281 -2.02 -0.151 -0.13 -0.409 -0.128 -0.511 0.077 -0.343 0.572 -0.355 1.511 0.23 1.943Z" stroke-width="1"></path><path id="vector_50" fill="#501200" d="M53.467 69.412c0.641 0.458 1.2 -1.222 0.281 -2.02 -0.605 -0.526 -1.157 1.3 -0.281 2.02Z" stroke-width="1"></path><path id="vector_51" fill="#501200" d="M50.552 71.228c0.332 0.23 0.997 0.588 1.406 0.332 0.409 -0.256 0.283 -0.921 0.256 -1.33 -0.073 -1.1 -0.311 -2.172 -0.665 -3.222 -0.129 -0.383 -0.747 -0.228 -0.614 0.179 0.553 1.687 0.665 2.82 0.665 3.81 -0.1 0 -0.417 -0.101 -0.716 -0.307 -0.362 -0.25 -0.665 0.307 -0.332 0.537v0.001Z" stroke-width="1"></path><path id="vector_52" fill="#501200" d="M51.166 73.402c0 0.186 -0.341 0.46 -0.757 0.374 -0.248 -0.05 -0.378 -0.618 -0.334 -0.844 0.158 -0.81 -0.387 -0.584 -0.47 -0.425 -0.57 1.085 0.549 2.542 1.688 1.74 0.284 -0.202 0.46 -0.487 0.486 -0.845 0.057 -0.396 -0.613 -0.423 -0.613 0Z" stroke-width="1"></path><path id="vector_53" fill="#501200" d="M86.966 75.728c0 -0.23 -0.28 -0.406 -0.486 -0.28a4.846 4.846 0 0 0 -1.151 0.971c0.464 -1.39 1.311 -2.685 0.537 -3.298 -0.128 -0.102 -0.334 -0.129 -0.46 0 -2.514 2.568 -1.455 3.263 -0.997 -1.867 0.022 -0.256 -0.282 -0.358 -0.486 -0.28 -0.895 0.408 -1.221 1.46 -1.56 2.301 -0.176 0.436 -0.358 0.895 -0.511 1.355 0.025 -0.435 0.029 -0.843 0.051 -1.278 0.03 -0.588 0.307 -1.995 -0.639 -2.046 -0.153 0 -0.255 0.103 -0.307 0.23a38.67 38.67 0 0 0 -1.688 5.268c-0.642 -0.825 -2.201 -2.448 -3.222 -2.225 -0.127 0.028 -0.233 0.18 -0.23 0.307 0.013 0.691 0.548 1.198 0.767 1.815 0.566 1.598 0.461 3.47 1.1 4.987 -0.1 0 -5.016 4.95 -8.618 8.285 -0.792 -1.278 -1.506 -2.609 -2.275 -3.912 -1.356 -2.296 -1.97 -2.812 -2.813 -3.861 -1.703 -2.119 -2.753 -3.943 -6.214 -4.858 -1.613 -0.427 -3.452 -0.307 -4.705 0.895 -0.026 -0.46 -0.077 -1.432 -0.077 -1.432 0.741 -0.205 1.427 -0.592 1.918 -1.176 0.734 -0.875 1.173 -2.097 1.253 -3.222 0.084 -1.193 -0.343 -5.72 -1.074 -8.72 -0.1 -0.41 -0.712 -0.23 -0.614 0.18 0.523 2.182 1.349 7.538 0.921 9.332 -0.453 1.897 -1.474 2.83 -2.762 3.094 -1.53 0.314 -2.171 0.098 -2.89 -0.127 -0.386 -0.12 -0.565 0.493 -0.179 0.613 1.287 0.404 1.454 0.35 2.762 0.205 0 0 0.077 1.176 0.103 1.765 -0.72 0.52 -2.697 0.818 -3.708 0.818 -1.079 0 -2.487 -0.17 -3.171 -0.486 0.128 -0.716 0.244 -1.435 0.384 -2.148 0.07 -0.359 0.172 -0.737 -0.051 -1.074 -0.185 -0.278 -0.511 -0.486 -0.742 -0.742 -0.995 -1.101 -1.624 -2.556 -1.662 -4.065 -0.008 -0.307 -0.335 -0.387 -0.537 -0.23 -0.933 0.726 -2.535 0.41 -2.608 -0.92 -0.066 -1.199 1.42 -1.526 1.917 -0.742 0.228 0.36 0.776 0.021 0.562 -0.333 -0.393 -0.649 -1.201 -0.866 -1.917 -0.665 -1.6 0.45 -1.599 2.832 0 3.53 0.662 0.287 1.381 0.204 1.995 -0.078 0.368 3.008 2.311 4.456 2.429 4.603 0.102 0.153 0.002 0.41 -0.026 0.588a36.634 36.634 0 0 1 -0.332 1.841c-0.051 -0.026 -0.128 -0.05 -0.179 -0.077 -2.396 -2.067 -6.326 -2.463 -9.999 -0.077 -3.485 2.265 -5.581 6.108 -7.441 9.717 -1.661 3.222 -3.824 8.445 -2.66 11.891 1.732 5.126 13.536 6.17 23.858 8.464a5.82 5.82 0 0 0 2.046 2.532 8.881 8.881 0 0 0 -0.895 4.833c0.028 0.281 0.329 0.432 0.537 0.23 0.806 -0.78 1.278 -1.764 1.611 -2.812 0.257 1.799 0.083 2.626 0.742 3.12 0.077 0.051 0.23 0.051 0.333 0 0.684 -0.456 0.64 -1.29 0.792 -3.273 0.307 1.022 0.627 2.067 0.921 3.094 0.08 0.28 0.558 0.332 0.613 0 0.212 -1.256 0.23 -2.506 0.128 -3.759 0.333 0.742 0.74 1.433 1.151 2.122 0.153 0.256 0.606 0.18 0.588 -0.153 -0.206 -3.707 -0.938 -8.252 -4.309 -10.486 0.087 -0.124 0.089 -0.148 0.089 -0.177 0.889 -0.059 6.067 0.128 6.521 0.128 0.383 0.025 1.075 0.179 1.15 -0.384 0.024 -0.178 0.101 -3.038 -0.025 -5.242 2.131 2.028 3.808 4.697 8.106 5.293 2.215 0.308 3.79 -0.344 5.012 -1.79 1.824 -2.158 5.089 -8.744 6.316 -11.277 2.841 -5.864 2.875 -6.024 2.66 -6.239 0.946 -1.151 1.689 -2.479 2.506 -3.733 0.948 -1.457 1.841 -3.146 1.841 -4.859v-0.004Zm-30.583 37.513c-0.537 -1.023 -1.004 -2.069 -1.355 -3.171 -0.13 -0.408 -0.668 -0.229 -0.614 0.179 0.194 1.459 0.409 2.941 0.333 4.398 -0.358 -1.228 -0.732 -2.458 -1.1 -3.683 -0.1 -0.333 -0.644 -0.281 -0.639 0.077 0.026 1.838 0.021 2.554 -0.153 3.989 -0.025 0.205 -0.051 0.486 -0.153 0.69 -0.034 -0.078 -0.454 -4.043 -0.46 -4.117 -0.029 -0.332 -0.544 -0.462 -0.639 -0.077 -0.306 1.248 -0.588 2.583 -1.355 3.631 0 -1.381 0.337 -2.745 0.998 -3.989 0.08 -0.151 0.025 -0.357 -0.103 -0.435a4.97 4.97 0 0 1 -1.969 -2.225 479.94 479.94 0 0 0 3.247 -4.018c2.713 1.903 3.764 5.618 3.964 8.748l-0.002 0.003Zm25.725 -29.33a118.404 118.404 0 0 0 -3.631 -1.969c-0.806 -1.437 -0.643 -3.307 -1.228 -5.242 -0.269 -0.891 -0.542 -1.097 -0.69 -1.432 0.672 0.207 2.441 1.753 3.248 3.784 0.152 0.384 0.765 0.206 0.614 -0.179a9.486 9.486 0 0 0 -0.665 -1.33c0.112 -0.112 0.314 -1.767 1.56 -5.038 0 1.15 -0.154 3.912 -0.179 4.27 -0.026 0.384 0.52 0.412 0.639 0.077 0.279 -0.786 1.423 -4.182 1.944 -4.833 -0.205 1.688 -0.626 3.347 -1.023 5.012 -0.079 0.332 0.413 0.59 0.588 0.256a17.026 17.026 0 0 1 2.276 -3.324c-0.058 0.46 -0.572 1.63 -1.636 4.552 -0.13 0.357 0.408 0.536 0.588 0.255 0.509 -0.794 1.074 -1.688 1.815 -2.327 -0.205 1.381 -0.949 2.751 -1.713 3.861 -0.821 1.192 -1.56 2.48 -2.506 3.605l-0.001 0.002Z" stroke-width="1"></path><path id="vector_54" fill="#501200" d="M79.934 69.336c-1.87 0.367 -3.488 1.67 -4.322 3.375 -0.176 0.36 0.386 0.692 0.563 0.332 0.777 -1.58 2.223 -2.744 3.938 -3.094 0.383 -0.078 0.229 -0.694 -0.179 -0.614v0.001Z" stroke-width="1"></path><path id="vector_55" fill="#501200" d="M75.587 70.205c1.04 -1.336 2.834 -1.998 4.501 -1.662 0.408 0.082 0.562 -0.536 0.179 -0.614 -1.893 -0.38 -3.938 0.307 -5.114 1.841 -0.281 0.307 0.177 0.766 0.435 0.435h-0.001Z" stroke-width="1"></path></g><g id="group_2"><path id="vector_56" fill="#f9f5e5" d="M45.847 99.101c-4.661 -2.738 -6.263 -3.49 -8.541 -4.628 0.042 -0.042 1.029 -2.96 1.048 -3.017 0.118 -0.35 -0.472 -0.606 -0.614 -0.153 -0.423 1.347 -0.997 2.84 -0.997 2.941a56.807 56.807 0 0 0 -2.736 -1.15c-0.384 -0.153 -0.539 0.465 -0.179 0.613 5.228 2.145 9.782 4.765 14.729 7.774 1.304 0.793 2.585 1.66 3.708 2.685 0.307 0.281 0.768 -0.18 0.46 -0.46 -2.063 -1.875 -4.496 -3.204 -6.879 -4.603l0.001 -0.002Z" stroke-width="1"></path><path id="vector_57" fill="#f9f5e5" d="M69.271 89.997c-0.06 -0.501 -0.663 -0.299 -0.614 0 0.275 2.746 -0.407 3.253 0.153 3.427 0.155 0.048 0.358 -0.051 0.384 -0.23 0.152 -1.049 0.204 -2.125 0.077 -3.196v-0.001Z" stroke-width="1"></path></g><path id="vector_58" fill="#ffb949" d="M37.383 39.341c-1.718 0.248 -3.336 -0.679 -4.449 -1.892 -0.233 -0.253 -0.435 -0.51 -0.639 -0.767 0.179 -1.585 0.045 -3.27 -0.511 -4.756 -0.949 -2.532 -2.938 -1.867 -2.608 0.205 0.154 0.972 0.697 1.863 1.176 2.711a21.75 21.75 0 0 0 1.253 1.995c-0.026 0.128 -0.025 0.256 -0.051 0.41 -0.301 1.764 -1.003 3.421 -2.097 4.832 -0.257 0.331 0.315 0.646 0.563 0.332 1.11 -1.404 1.816 -3.12 2.122 -4.859 1.33 1.585 3.239 2.71 5.37 2.404 0.433 -0.062 0.28 -0.673 -0.128 -0.614l-0.001 0Zm-5.933 -3.964c-0.636 -1.047 -2.246 -3.485 -1.483 -4.347 0.58 -0.655 1.838 1.486 1.764 4.807 -0.102 -0.153 -0.205 -0.307 -0.281 -0.46Z" stroke-width="1"></path></g><g id="light bubble"><path id="vector_59" fill="#fccac2" d="M162.299 32.002c-1.478 -11.67 -13.144 -15.978 -23.219 -12.198 -18.383 6.898 -21.955 31.276 -39.763 40.096 -0.154 0.076 -0.077 0.281 0.077 0.281v0.026c-0.179 -0.026 -0.231 0.233 -0.051 0.307 2.883 1.178 9.697 2.386 12.735 2.89 5.581 0.926 9.623 1.601 14.959 1.074 8.136 -0.803 19.151 -4.272 25.239 -9.819 2.1 -1.914 3.882 -4.145 5.447 -6.495 3.136 -4.71 5.309 -10.38 4.577 -16.16l-0.001 -0.002Z" stroke-width="1"></path><path id="vector_60" fill="#f9f5e5" d="M140.333 25.865c-3.569 -0.318 -8.961 2.551 -9.794 6.93 -0.452 2.36 0.17 4.013 2.711 14.294l7.518 1.1c1.473 -3.218 6.543 -8.126 6.188 -14.55 -0.23 -3.708 -2.915 -7.467 -6.623 -7.773Z" stroke-width="1"></path><path id="vector_61" fill="#501200" d="M147.186 32.692c-0.482 -2.975 -2.531 -5.945 -5.447 -6.879 -3.995 -1.279 -10.791 1.976 -11.558 7.211 -0.311 2.122 0.313 4.218 0.818 6.265 0.517 2.095 1.79 7.288 1.918 7.774 -0.998 0.4 -1.184 2.07 -0.205 2.992 -0.793 0.435 -1.309 1.305 -1.1 2.276 0.313 1.453 2.087 1.662 3.58 1.662 -0.207 1.86 2.137 2.522 3.043 1.1 0.198 -0.31 0.281 -0.69 0.256 -1.048 0.529 0 2.496 0.741 3.273 -0.588 0.509 -0.87 0.128 -1.79 -0.563 -2.378 1.322 -0.617 1.296 -2.274 0.128 -2.966 -0.051 -0.026 -0.077 -0.05 -0.128 -0.05 0.844 -1.689 2.017 -3.174 3.017 -4.757 1.97 -3.118 3.551 -7.002 2.966 -10.612l0.002 -0.002Zm-9.564 22.12c-0.64 0.8 -1.97 0.164 -1.79 -0.87 0.665 -0.026 1.33 -0.05 1.995 0 0.077 0.281 0 0.614 -0.205 0.87Zm3.554 -1.663c-0.533 0.744 -1.764 0.307 -2.506 0.205 -2.253 -0.313 -5.1 0.338 -6.112 -0.639 -0.796 -0.769 -0.168 -2.199 0.844 -2.199 2.157 0.15 4.313 0.346 6.47 0.567 0.923 0.095 1.923 1.202 1.304 2.067Zm-0.869 -2.659c-2.151 -0.223 -4.327 -0.397 -6.48 -0.57 -0.65 -0.052 -1.297 -0.869 -1.115 -1.705 0.203 -0.933 0.984 -0.61 2.25 -0.46 1.921 0.23 3.836 0.537 5.779 0.793 1.31 0 0.978 2.414 -0.435 1.943l0.001 0Zm-2.122 -13.68c1.084 0.27 0.946 0.076 0.946 0.178 -0.533 2.475 -0.805 8.265 -0.869 10.561 -0.358 -0.05 -0.742 -0.102 -1.1 -0.153 0.658 -3.518 1.023 -7.008 1.023 -10.587Zm8.157 0.23c-1.139 4.803 -4.28 7.793 -5.754 10.867l-1.662 -0.23c0.061 -2.11 0.358 -8.6 0.895 -10.689 0.639 -0.05 1.269 -0.267 1.764 -0.665 1.969 -1.58 -1.085 -4.354 -2.301 0.026 -0.344 0 -0.727 -0.046 -1.125 -0.179 0 -2.453 -1.374 -3.147 -2.225 -2.787 -1.063 0.45 -0.457 2.355 1.585 3.222 0 3.693 -0.366 7.402 -0.972 10.69v0.076c-0.056 -0.008 -2.91 -0.409 -2.966 -0.409 -0.486 -1.995 -2.25 -9.027 -2.25 -9.027 -0.646 -2.729 -1.078 -5.24 0.69 -7.748 1.768 -2.507 5.717 -4.439 8.618 -4.015 3.764 0.551 7.09 5.015 5.702 10.868l0.001 0ZM140 36.271c0 -0.026 0.026 -0.05 0.026 -0.077 0.179 -0.51 0.38 -1.13 0.844 -1.458 0.788 -0.555 1.444 1.15 -0.869 1.534l-0.001 0.001Zm-2.455 -0.409c-0.767 -0.383 -1.905 -1.602 -1.355 -1.892 0.486 -0.256 0.997 0.41 1.151 0.767 0.154 0.358 0.179 0.742 0.205 1.125h-0.001Z" stroke-width="1"></path><path id="vector_62" fill="#ff7449" d="M110.747 32.973c-3.234 -1.932 -6.45 -3.901 -9.717 -5.754 -0.359 -0.203 -0.691 0.359 -0.332 0.563 3.267 1.852 6.483 3.821 9.717 5.754 0.354 0.211 0.686 -0.351 0.332 -0.563Z" stroke-width="1"></path><path id="vector_63" fill="#ff7449" d="M110.85 19.42c-0.158 -0.382 -0.722 -0.049 -0.563 0.332 1.207 2.884 3.138 5.408 4.27 8.336 0.149 0.385 0.762 0.207 0.614 -0.179 -1.142 -2.976 -3.106 -5.559 -4.322 -8.49l0.001 0.001Z" stroke-width="1"></path><path id="vector_64" fill="#ff7449" d="M122.843 17.63c-0.695 2.69 -1.476 5.365 -2.174 8.081 -0.105 0.408 0.511 0.563 0.614 0.18 0.716 -2.686 1.397 -5.388 2.174 -8.082 0.119 -0.412 -0.508 -0.587 -0.614 -0.179Z" stroke-width="1"></path><path id="vector_65" fill="#ffb949" d="M171.147 61.23c-1.486 -0.504 -2.469 -1.939 -2.89 -3.4 -0.132 -0.46 -0.23 -0.922 -0.307 -1.382a11.227 11.227 0 0 0 1.739 -3.938c0.176 -0.793 0.336 -2.128 -0.46 -2.659 -0.814 -0.543 -1.579 0.386 -1.816 1.1 -0.323 0.975 -0.285 2.02 -0.256 3.017 0.023 0.767 0.051 1.534 0.153 2.301 -1.103 1.544 -2.651 2.783 -4.373 3.58 -0.384 0.178 -0.048 0.725 0.332 0.563 1.653 -0.705 3.069 -1.867 4.194 -3.248 0 0.026 0 0.077 0.026 0.102 0.409 1.97 1.57 3.857 3.529 4.577 0.334 0.123 0.511 -0.484 0.128 -0.614l0.001 0.001Zm-3.324 -6.112c-0.083 -1.487 -0.172 -2.95 0.179 -3.989 0.351 -1.039 1.176 -1.187 1.176 0.307 0 1.142 -0.7 2.896 -1.33 3.99 -0.026 -0.078 -0.026 -0.206 -0.026 -0.308h0.001Z" stroke-width="1"></path></g></g></svg>