<svg xmlns="http://www.w3.org/2000/svg" viewBox="0 0 200 200"><g><g><path d="M189.14 33.6S179 162.19 178 169.05s-2.48 14.2 -19.83 14.4 -58.43 0.19 -63.1 0 -15.45 -3.25 -14.21 -17.83S91.59 46.84 92.67 35.41c1.2 -12.59 4.77 -18.29 16.59 -19 6.58 -0.38 57.29 0.24 63.2 0.19s17.92 1.56 16.68 17Z" fill="#f9f5e5" stroke-width="1"></path><path d="M145.29 26.88s-5.57 5.84 -7.29 10.72 0.1 7.25 2.48 7.53 5.86 3.62 5.62 6.29 0.58 4.86 2.67 5c0 0 6.39 -24.45 15.16 -29.5Z" fill="#501200" stroke-width="1"></path><path d="M180.56 41.61s-8.2 103.23 -9.15 110.67 -9.72 9.34 -16.78 9.34h-14.77s7.72 -9 6 -20.31c-1.8 -11.91 -3.47 -20.9 1.72 -29.36 5.58 -9.08 13.24 -14.49 16.39 -17.35 6.56 -5.92 6.89 -25.25 7.54 -34.69 0.49 -7.34 2.57 -18.21 9.05 -20.69Z" fill="#ffb949" stroke-width="1"></path><path d="M163.12 26.83s-15.64 13.35 -15.64 35.46c0 17.06 -1.23 21.45 -12.48 34 -17.73 19.83 -3.44 33.46 -12.4 50.81 -6.29 12.2 -8.19 14.39 -8.19 14.39h25.26s10 -6.09 5.24 -29.36c-3.45 -17 7.64 -27.82 19 -37.65 13.17 -11.42 1.33 -46.61 16.59 -55.38 0 0 0.22 -2.74 -1.82 -7 -3.08 -6.27 -15.56 -5.27 -15.56 -5.27Z" fill="#ff7449" stroke-width="1"></path><path d="M175.79 16.25c-0.35 0 -2 -0.19 -3.24 -0.19 -1.43 0 -58.24 -0.49 -63.2 -0.19 -12.32 0.75 -15.75 7 -17 19.44 -1 10.78 -10.47 115.44 -11.73 130.21 -0.47 5.53 0.76 10 3.62 13.25a16.17 16.17 0 0 0 11.06 5.06c2.29 0.11 68.35 -0.15 70.26 -0.29 15.56 -1.1 17.26 -7.81 18.2 -14.49S195 33.6 195 33.6c0.91 -15.44 -13.39 -17.35 -19.21 -17.35ZM95.25 183a14.89 14.89 0 0 1 -10.39 -4.67c-2.7 -3 -3.78 -7.24 -3.34 -12.58 1.24 -14.9 10.61 -119.57 11.63 -130.25 1.27 -13.34 5.34 -18 16.2 -18.58 1.72 -0.1 61.68 0.19 63.2 0.19 4 0 9.53 0.77 13.06 4.57 2.57 2.77 3.63 6.77 3.24 12 0 0 -10.21 128.69 -11.15 135.36 -0.87 6.2 -1.82 13.78 -19.26 13.87 -17.26 0.09 -58.62 0.18 -63.19 0.09Z" fill="#501200" stroke-width="1"></path><path d="M154 162h-53.89c-9.88 0 -13 -4.19 -12.3 -13.44 0.5 -6.86 9.57 -105.52 10.11 -110 0.71 -6 2.38 -12.29 13.63 -12.29 0.09 0 51.19 0 57.48 0.28 8.1 0.38 12.2 5 12.2 13.73 0 3.81 -7.81 107 -9.34 113 -1.63 6.26 -6.77 8.72 -17.89 8.72ZM111.45 27.21c-10.48 0 -12 5.72 -12.77 11.54 -0.58 4.47 -9.55 103.13 -10.11 110 -0.38 4.76 0.31 7.7 2.1 9.53s4.86 2.86 9.34 2.86h53.86c10.77 0 15.49 -2.3 16.87 -8 1.56 -6.45 9.34 -109.15 9.34 -112.76 0 -8.3 -3.71 -12.51 -11.34 -12.87s-30.5 -0.3 -57.29 -0.3Z" fill="#501200" stroke-width="1"></path><path d="M125.56 166a6 6 0 0 0 -5.82 6 6.22 6.22 0 0 0 5.34 6.29c3.06 0.55 7.38 -1.34 7.44 -5.91 0.05 -4.09 -3.15 -6.59 -6.96 -6.38Zm-5 6a5 5 0 0 1 5 -5.15 5.33 5.33 0 0 1 5.24 5.15 5.52 5.52 0 0 1 -5.24 5.43 5.29 5.29 0 0 1 -4.96 -5.43Z" fill="#501200" stroke-width="1"></path></g><g><path d="M142.43 151c-0.28 -0.19 0.1 -1.24 0.19 -1.62 0.1 -0.2 0.29 -0.86 0.76 -0.77 0.29 0.1 0.29 0.48 0.29 0.77 -0.09 0.51 -0.48 2.23 -1.24 1.62Z" fill="#f9f5e5" stroke-width="1"></path><path d="M155.11 135.12c-0.29 -0.19 0.09 -1.24 0.19 -1.62 0.1 -0.19 0.29 -0.86 0.76 -0.77 0.29 0.1 0.29 0.48 0.29 0.77 -0.1 0.5 -0.35 2.28 -1.24 1.62Z" fill="#f9f5e5" stroke-width="1"></path><path d="M141 134.83c-0.28 -0.19 0.1 -1.24 0.19 -1.62 0.1 -0.19 0.29 -0.86 0.77 -0.76 0.28 0.09 0.28 0.47 0.28 0.76 -0.09 0.57 -0.48 2.29 -1.24 1.62Z" fill="#f9f5e5" stroke-width="1"></path><path d="M146.24 145.7c-0.28 -0.19 0.1 -1.24 0.2 -1.62 0.09 -0.19 0.28 -0.86 0.76 -0.77 0.28 0.1 0.28 0.48 0.28 0.77 -0.09 0.47 -0.48 2.29 -1.24 1.62Z" fill="#f9f5e5" stroke-width="1"></path><path d="M148.06 137.6c-0.29 -0.2 0.09 -1.24 0.19 -1.63 0.09 -0.19 0.28 -0.85 0.76 -0.76 0.28 0.1 0.28 0.48 0.28 0.76 0 0.48 -0.38 2.29 -1.23 1.63Z" fill="#f9f5e5" stroke-width="1"></path><path d="M141 142.84c-0.28 -0.19 0.1 -1.24 0.19 -1.62 0.1 -0.19 0.29 -0.86 0.77 -0.76 0.28 0.09 0.28 0.47 0.28 0.76 -0.09 0.47 -0.48 2.19 -1.24 1.62Z" fill="#f9f5e5" stroke-width="1"></path><path d="M151.68 144.08c-0.29 -0.19 0.09 -1.24 0.19 -1.62 0.09 -0.19 0.28 -0.86 0.76 -0.77 0.29 0.1 0.29 0.48 0.29 0.77 -0.1 0.47 -0.38 2.19 -1.24 1.62Z" fill="#f9f5e5" stroke-width="1"></path><path d="M160.54 50.18c-0.28 -0.19 0.1 -1.23 0.19 -1.62 0.1 -0.19 0.29 -0.85 0.77 -0.76 0.28 0.1 0.28 0.48 0.28 0.76 -0.09 0.44 -0.38 2.29 -1.24 1.62Z" fill="#f9f5e5" stroke-width="1"></path><path d="M163.88 38c-0.29 -0.19 0.09 -1.24 0.19 -1.62 0.1 -0.19 0.29 -0.86 0.76 -0.76 0.29 0.1 0.29 0.48 0.29 0.76 -0.12 0.46 -0.48 2.27 -1.24 1.62Z" fill="#f9f5e5" stroke-width="1"></path><path d="M165.88 43.61c-0.28 -0.19 0.1 -1.24 0.19 -1.62 0.1 -0.19 0.29 -0.86 0.76 -0.77 0.29 0.1 0.29 0.48 0.29 0.77 -0.12 0.47 -0.38 2.28 -1.24 1.62Z" fill="#f9f5e5" stroke-width="1"></path><path d="M158.35 42.65c-0.29 -0.19 0.1 -1.24 0.19 -1.62 0.1 -0.19 0.29 -0.85 0.76 -0.76 0.29 0.1 0.29 0.48 0.29 0.76 -0.1 0.58 -0.38 2.29 -1.24 1.62Z" fill="#f9f5e5" stroke-width="1"></path><path d="M156.44 53.23c-0.28 -0.19 0.1 -1.23 0.19 -1.62 0.1 -0.19 0.29 -0.85 0.77 -0.76 0.28 0.1 0.28 0.48 0.28 0.76 -0.09 0.48 -0.38 2.29 -1.24 1.62Z" fill="#f9f5e5" stroke-width="1"></path><path d="M166.64 50.76c-0.28 -0.19 0.1 -1.24 0.19 -1.62 0.1 -0.19 0.29 -0.86 0.77 -0.77 0.28 0.1 0.28 0.48 0.28 0.77 -0.09 0.47 -0.47 2.28 -1.24 1.62Z" fill="#f9f5e5" stroke-width="1"></path><path d="M161.69 56.19c-0.29 -0.19 0.09 -1.24 0.19 -1.62 0.09 -0.19 0.28 -0.86 0.76 -0.76 0.29 0.09 0.29 0.47 0.29 0.76 -0.1 0.48 -0.48 2.29 -1.24 1.62Z" fill="#f9f5e5" stroke-width="1"></path><path d="M148.82 129.11c-0.29 -0.19 0.09 -1.24 0.19 -1.62 0.09 -0.19 0.28 -0.86 0.76 -0.76 0.29 0.09 0.29 0.48 0.29 0.76 -0.06 0.51 -0.48 2.29 -1.24 1.62Z" fill="#f9f5e5" stroke-width="1"></path></g><g><path d="M142.34 49.52a1.69 1.69 0 0 0 -2 -0.19c-5.82 2.65 -8.48 3.51 -13.72 4.29a34.14 34.14 0 0 0 -17.83 7.81 20.34 20.34 0 0 0 -4.86 5.82c-7.15 2.48 -15 5.34 -23.07 8.48a6 6 0 0 0 -2.95 -1.52c-0.29 0 -0.86 0 -1.05 0.38 -2 -0.57 -2 0.38 -2 0.57 -1.53 -0.38 -1.43 0.57 -1.43 0.86a1 1 0 0 0 -0.48 0.19c-0.28 0.19 -0.59 0.67 0 1.9a1.52 1.52 0 0 1 0.19 0.58q-7 2.72 -14 5.72c-2.76 -4.58 -5.91 -8.58 -9.72 -11.16 0 -0.09 -0.1 -0.09 -0.19 -0.09a14.47 14.47 0 0 0 -7.34 -2.39c-13.8 -0.54 -29.74 14.07 -29.74 29.08a14.2 14.2 0 0 0 1 5.62c-4.38 2.38 -7.65 4.47 -8.1 5.72 -1.16 3.23 10 0 13.25 -1a19.24 19.24 0 0 0 3.62 0.86c-0.09 2 -0.38 11.72 -0.47 12.58 0 0.19 0.09 0.38 0.28 0.38 0 0 0.38 0.09 1 0.29 -0.86 6.38 -5.72 53.76 -5.72 54.23a16 16 0 0 0 4.48 0.67 27 27 0 0 0 5.06 -0.36c3.53 -9.82 8.66 -33.38 10.09 -41 0.67 10.11 -1.33 40.7 -1.43 41.09a15.51 15.51 0 0 0 4.77 0.66 19.75 19.75 0 0 0 4.83 -0.68c3.62 -17.45 8.42 -52 8.8 -55.08 0.95 -0.19 1.67 -0.33 1.76 -0.33a2.12 2.12 0 0 0 0.24 -0.5c0.38 -6.11 0.3 -14.73 0.3 -17.68a10 10 0 0 0 6.4 2.68c11.15 0.24 16.42 -20.57 16.61 -20.57 0 -0.2 -0.71 -0.82 -1 -1a10.25 10.25 0 0 0 1.5 -1.25s17.06 -8 26.69 -12.79c11.78 5.57 28.68 1.65 34 -10.81 2.65 -6.39 3.66 -10.58 2.23 -12.06Z" fill="#f9f5e5" stroke-width="1"></path><path d="M142.34 49.52a1.69 1.69 0 0 0 -2 -0.19c-5.82 2.65 -8.48 3.51 -13.72 4.29a34.14 34.14 0 0 0 -17.83 7.81 20.34 20.34 0 0 0 -4.86 5.82c-7.15 2.48 -15 5.34 -23.07 8.48a6 6 0 0 0 -2.95 -1.52c-0.29 0 -0.86 0 -1.05 0.38 -2 -0.57 -2 0.38 -2 0.57 -1.53 -0.38 -1.43 0.57 -1.43 0.86a1 1 0 0 0 -0.48 0.19c-0.28 0.19 -0.59 0.67 0 1.9a1.52 1.52 0 0 1 0.19 0.58q-7 2.72 -14 5.72c-2.76 -4.58 -5.91 -8.58 -9.72 -11.16 0 -0.09 -0.1 -0.09 -0.19 -0.09a14.47 14.47 0 0 0 -7.34 -2.39c-13.8 -0.54 -29.74 14.07 -29.74 29.08a14.2 14.2 0 0 0 1 5.62c-4.38 2.38 -7.65 4.47 -8.1 5.72 -1.16 3.23 10 0 13.25 -1a19.24 19.24 0 0 0 3.62 0.86c-0.09 2 -0.38 11.72 -0.47 12.58 0 0.19 0.09 0.38 0.28 0.38 0 0 0.38 0.09 1 0.29 -0.86 6.38 -5.82 53.85 -5.91 54.33 0 0.09 -1 3.62 -0.39 4.38s9.82 1.1 16.4 1c0.67 0 0.77 -0.49 0.1 -1s-1.53 -0.95 -2.48 -1.62l-0.77 0.77a0.42 0.42 0 0 1 -0.57 0c-0.19 -0.1 -0.09 -0.38 0 -0.58l0.67 -0.66c-0.29 -0.19 -0.67 -0.38 -1 -0.57l-0.77 0.76a0.42 0.42 0 0 1 -0.57 0c-0.19 -0.1 -0.19 -0.38 0 -0.57l0.67 -0.67a6.66 6.66 0 0 1 -1.33 -1c3.52 -9.82 8.38 -33.46 9.81 -41.08 0.67 10.1 -1.33 40.7 -1.43 41.08 0 0.1 -0.66 3.81 -0.19 4.58s10.48 0.81 17 0.66c0.67 0 0.77 -0.48 0.1 -1s-1.62 -0.95 -2.67 -1.62l-1 1.05a0.44 0.44 0 0 1 -0.57 0c-0.19 -0.19 -0.1 -0.38 0 -0.57l0.85 -0.86a8.82 8.82 0 0 1 -1 -0.57l-1 0.95a0.44 0.44 0 0 1 -0.57 0 0.35 0.35 0 0 1 0 -0.57l0.76 -0.77A10.7 10.7 0 0 1 45 179c3.62 -17.45 8.39 -51.86 8.77 -54.91 0.95 -0.19 1.62 -0.38 1.72 -0.38a1.38 1.38 0 0 0 0.28 -0.38c0.38 -6.1 0.29 -14.68 0.29 -17.64a8.72 8.72 0 0 0 6 2.58c12.18 0.3 16.88 -20.88 17.07 -20.88a0.78 0.78 0 0 0 -0.19 -0.48c-0.1 -0.09 -0.38 -0.19 -0.67 -0.38a10.05 10.05 0 0 0 1.24 -1.14s17 -8.1 26.59 -12.87c11.68 5.51 28.66 1.83 34.13 -10.77 2.77 -6.34 3.54 -10.75 2.11 -12.23ZM49.59 74.3c3.24 2.29 6.1 5.91 8.86 10.49 -3.05 1.21 -6.1 2.57 -9.05 3.81 0.09 -6.67 0.19 -12.3 0.19 -14.3Zm-0.29 15.06s19.45 -8.1 24.12 -9.91c0.38 1.13 0.9 3.26 0.28 4.29 -0.9 -0.54 -1.49 -1.1 -1.71 -0.67 -8 8.39 -11.82 10.2 -13 10.68 0.67 -1.53 -1 -1 -2.28 -0.67a36.94 36.94 0 0 1 -7.82 2c0.1 0 2.19 -3.24 1.81 -3.62 -0.86 -0.86 -3.62 0.19 -7.24 4.38l-9.73 1V95ZM5.83 111.57c0 -0.34 0.54 -1.46 7.73 -5.43a17.13 17.13 0 0 0 3.62 3.53c-7.53 2.09 -10.87 2.38 -11.35 1.9Zm13.83 -1.81c-1.53 -0.46 -7.86 -3.52 -6.49 -12.77a28.22 28.22 0 0 1 3.24 -9.44 34.15 34.15 0 0 1 17.64 -14.87c-0.48 2.86 -0.95 19.26 -1.14 24.12 0 0 -7.06 0.28 -8.87 0.28l0.48 -5.72a0.35 0.35 0 0 0 -0.38 -0.38 0.36 0.36 0 0 0 -0.39 0.38l-0.47 5.72a23.85 23.85 0 0 1 -2.86 -0.08 0.39 0.39 0 1 0 -0.19 0.76c1.33 0.19 9.53 -0.08 10.2 -0.09 5.57 -0.16 11.34 -0.67 12.87 -0.78a10.79 10.79 0 0 0 1.9 7.34 77.67 77.67 0 0 1 -12.39 4.58c-3.81 1.08 -8.97 2.19 -13.15 0.95Zm2.66 13.54c0.1 -1.91 0.39 -10.3 0.48 -12.3a34.52 34.52 0 0 0 9.72 -1.14c-0.28 7 -0.19 12.2 -0.19 13.44 -4.1 1.62 -8.86 0.28 -10.01 0Zm22.22 55.19a19.29 19.29 0 0 1 -8.49 0c0.29 -3.91 2.38 -37.18 1.05 -43.28l0.67 -3.91a45.46 45.46 0 0 0 4.67 -1.3 0.53 0.53 0 0 0 0.28 -0.48 0.51 0.51 0 0 0 -0.47 -0.28s-3.24 1 -4.86 1.33a0.31 0.31 0 0 0 -0.29 0.29c-2 10.78 -7.3 37 -11 47.37a22.55 22.55 0 0 1 -8.49 -0.09c0.48 -4.2 5.06 -47.57 5.82 -54a16.89 16.89 0 0 0 9.34 -0.47c0.19 -0.1 0.29 -0.19 0.19 -0.38 0 0 -0.09 -1.62 -0.09 -4.1a31 31 0 0 0 15 0c0 2.1 -0.09 3.43 -0.09 3.52s0.09 0.29 0.19 0.29a8.38 8.38 0 0 0 5.14 0.95c-0.47 4.3 -5.05 37.38 -8.57 54.54ZM55.21 123c-1 0.29 -4.29 1.24 -6.48 -0.29 0 -1.52 0.19 -9.72 0.38 -19a20.19 20.19 0 0 0 6.48 -1.82l-0.09 2.77c-0.1 0.05 0.19 10.92 -0.29 18.34ZM46 103a9.11 9.11 0 0 1 -1.52 -6.29c1.52 -2.49 4.25 -5.25 5.52 -4.77 0.28 0.19 -2 3.14 -1.81 3.71 0.47 1 10 -2.19 10.2 -2.28a4.43 4.43 0 0 1 -1.81 1.71 24 24 0 0 1 -4 1.24 0.33 0.33 0 0 0 -0.28 0.48c0 0.19 0.19 0.28 0.47 0.28a25 25 0 0 0 4.48 -1.33c1 -0.37 2.1 -0.76 2.29 -0.57 0 0.28 -0.57 0.95 -1.91 1.71a37.16 37.16 0 0 1 -4.67 1.53 0.51 0.51 0 0 0 -0.28 0.47c0 0.19 0.28 0.29 0.47 0.29a47.1 47.1 0 0 0 5 -1.62c0.48 -0.2 1.14 -0.48 1.24 -0.38 0.19 0.38 -1.43 1.14 -2.19 1.52a17.69 17.69 0 0 1 -3.7 1.3 0.5 0.5 0 0 0 -0.29 0.47c0 0.2 0.19 0.29 0.48 0.29a18.6 18.6 0 0 0 3.9 -1.43c-0.28 0.61 -4.29 4.04 -11.59 3.67Zm32.28 -15.54c-0.67 2.47 -5.62 20 -15.92 20a8.18 8.18 0 0 1 -6.2 -3l0.1 -3c2.19 -1.24 2.38 -2.48 2.29 -2.67 2.38 -1.34 1.43 -2.38 1.05 -2.48 1.24 -1.62 0.47 -1.91 0 -1.91 6.29 -2.47 10.58 -8.86 13 -10.39 0.53 0.3 5.4 3.25 5.68 3.45Zm0.72 -2.77a11.26 11.26 0 0 1 -1.33 1.24 9.4 9.4 0 0 1 -3.34 -1.81c0.67 -1.24 0.1 -3.81 -0.76 -6.39 -0.29 -0.66 -0.38 -0.86 -0.19 -1 0.86 -0.1 2.57 3.72 2.67 4.1a0.36 0.36 0 1 0 0.66 -0.29 11.64 11.64 0 0 0 -2.47 -4.38c-0.46 -0.45 -0.42 -0.73 0.28 -0.48 1.23 0.44 2 2 2.29 2.29a8.27 8.27 0 0 1 1.05 2.29c0.17 0.35 0.76 0.39 0.76 -0.19 -1.24 -3.44 -2.76 -4.29 -2.86 -4.39s-0.38 -0.76 0.57 -0.48a4.36 4.36 0 0 1 2.1 1.43 3.1 3.1 0 0 1 0.48 0.67 5.34 5.34 0 0 1 0.76 2.1c0 0.39 0.76 0.56 0.76 0a6.12 6.12 0 0 0 -2.76 -4.39c0.09 0 0.86 -0.28 2.48 1 0.19 0.19 1.62 1.72 1.52 3.24A10.15 10.15 0 0 1 79 84.69Zm1.62 -0.76a7.24 7.24 0 0 0 1.62 -4.77 4.78 4.78 0 0 0 -1 -2.86c7.72 -3 15.44 -5.81 22.59 -8.29l1.62 3.81c-8.96 4.58 -17.26 8.58 -24.79 12.11Zm25.64 -12.2 -1.81 -4.2c0.77 -1.33 6.65 -11 22.12 -13.15 1.52 -0.21 2.86 -0.48 4.1 -0.76 1 0.09 2.19 0.28 2.28 0.76 0.1 0.95 -5.43 4.29 -5.24 6.86s7.09 -2.69 7.91 -1.33 -4.29 7.24 1.81 5c-6.37 9.36 -21.22 11.54 -31.13 6.82Z" fill="#501200" stroke-width="1"></path></g><g><path d="M51.59 57.91c-0.2 -1.82 -0.33 -6.1 -0.38 -8.49a1.59 1.59 0 0 0 -1.62 -1.52c-1.53 0 -3.43 -0.12 -6 -0.19 -3.91 -0.12 -5.44 0.95 -5.91 2.66s0.57 6.58 -1.05 6.68c-0.76 0.09 -1.71 -3.15 -3.52 -2.48s-1.53 3 -0.67 3.91a6.71 6.71 0 0 0 1.62 1.43c0 6.19 3.81 7.53 3.81 7.53a9.63 9.63 0 0 1 -0.38 3.91 11.26 11.26 0 0 0 7.72 0.85 5.66 5.66 0 0 1 0 -3.62c6.57 -1.43 6.66 -8.1 6.38 -10.67Z" fill="#f9f5e5" stroke-width="1"></path><path d="M45 39.22c-6.77 -0.19 -11 3 -12.58 6.1s-4.48 13 2.19 19.16a7.29 7.29 0 0 0 2.86 3c0.1 0.1 0.19 0.1 0.19 0.29a7.43 7.43 0 0 1 -0.38 3.34 0.34 0.34 0 0 0 0.19 0.47c0.1 0.1 2.77 1.53 7.91 1.05 0.12 0 0.49 -0.27 0.29 -0.48a8.55 8.55 0 0 1 -0.19 -3.33c6.08 -0.68 6.74 -7.45 6.29 -13.54 0 -0.28 -0.19 -4.67 -0.29 -6.48a3.31 3.31 0 0 0 2.2 -1.43c1.37 -2.94 -2 -7.96 -8.68 -8.15Zm4.39 26.6c-1.67 2.35 -4.1 2.57 -6.58 2.38a0.38 0.38 0 0 0 0 0.76h1.81a8 8 0 0 0 0.19 3.15 13.06 13.06 0 0 1 -6.77 -1 8.36 8.36 0 0 0 0.29 -3.34 0.92 0.92 0 0 0 -0.57 -0.86 7.83 7.83 0 0 1 -2.86 -3.34 13.35 13.35 0 0 1 -0.38 -4.28 2.59 2.59 0 0 1 -2.2 -2.67c0 -1.91 2.29 -1.81 2.77 -0.29s2.19 1.62 2.67 0.86c0.95 -1.24 -0.41 -5.27 0.95 -6.58s2.49 -1.61 4.87 -1.47a28.31 28.31 0 0 0 7 -0.1c0.15 2.81 0.29 4.14 0.29 6.39 0.34 2.48 0.57 7.49 -1.47 10.39Z" fill="#501200" stroke-width="1"></path></g><g><path d="M46.25 60.38a0.47 0.47 0 0 1 -0.38 -0.19 0.34 0.34 0 0 1 0.19 -0.47 6.39 6.39 0 0 0 1.53 -1s-1.49 -0.32 -1.74 -0.43a1.31 1.31 0 0 1 -0.36 -0.23c-0.48 -0.48 -0.29 -2.77 -0.1 -4a0.41 0.41 0 0 1 0.38 -0.38 0.42 0.42 0 0 1 0.39 0.38 13.85 13.85 0 0 0 -0.1 3.43 1.86 1.86 0 0 0 0.86 0.19c0.76 0.1 1.43 0.29 1.43 0.86 0 0.98 -1.94 1.69 -2.1 1.84Z" fill="#501200" stroke-width="1"></path><path d="M46.82 56.86c-0.71 -0.36 1 -2.45 3.43 -1.43a0.36 0.36 0 1 1 -0.28 0.66 1.86 1.86 0 0 0 -2.58 0.58c-0.19 0.19 -0.47 0.33 -0.57 0.19Z" fill="#501200" stroke-width="1"></path><path d="M43.39 56.76c-0.09 0 -0.28 -0.09 -0.28 -0.19a2 2 0 0 0 -2.58 -0.57 0.36 0.36 0 1 1 -0.28 -0.67 2.81 2.81 0 0 1 3.52 0.86c0.1 0.09 0 0.57 -0.38 0.57Z" fill="#501200" stroke-width="1"></path><path d="M42.34 61.05a0.41 0.41 0 0 1 0.67 -0.48 2.53 2.53 0 0 0 3.34 0.77 0.36 0.36 0 1 1 0.28 0.66 3.15 3.15 0 0 1 -4.29 -0.95Z" fill="#501200" stroke-width="1"></path><path d="M46.82 52.38a2.75 2.75 0 0 1 1.62 -0.86 2.51 2.51 0 0 1 1.81 0.76 0.35 0.35 0 0 1 0 0.57 0.36 0.36 0 0 1 -0.57 0 1.3 1.3 0 0 0 -1.24 -0.47 1.68 1.68 0 0 0 -1.14 0.62c-0.24 0.16 -0.82 0.07 -0.48 -0.62Z" fill="#501200" stroke-width="1"></path><path d="M43.58 52.85a2.34 2.34 0 0 0 -1.52 -0.76 2.14 2.14 0 0 0 -1.43 0.76 0.37 0.37 0 0 1 -0.58 0 0.36 0.36 0 0 1 0 -0.57 2.52 2.52 0 0 1 2 -1 3.75 3.75 0 0 1 2.09 1c0.32 0.61 -0.31 0.82 -0.56 0.57Z" fill="#501200" stroke-width="1"></path><path d="M39.432 59.917a0.95 0.76 13.12 1 0 0.345 -1.48 0.95 0.76 13.12 1 0 -0.345 1.48" fill="#fccac2" stroke-width="1"></path><path d="M49.241 59.687a0.95 0.76 -27.28 1 0 1.689 -0.87 0.95 0.76 -27.28 1 0 -1.689 0.87" fill="#fccac2" stroke-width="1"></path></g></g></svg>