<svg xmlns="http://www.w3.org/2000/svg" fill="none" viewBox="0 0 200 200"><g id="online-learning-4--education-online-learning"><g id="books"><path id="vector" fill="#f9f5e5" d="M135.057 140.193H74.973a0.798 0.798 0 0 0 -0.798 0.798v3.439c0 0.441 0.357 0.798 0.798 0.798h60.084a0.798 0.798 0 0 0 0.798 -0.798v-3.439a0.798 0.798 0 0 0 -0.798 -0.798Z" stroke-width="1"></path><path id="vector_2" fill="#ffb949" d="M142.57 145.228H63.679a0.913 0.913 0 0 0 -0.913 0.913v3.209c0 0.504 0.409 0.913 0.913 0.913h78.891a0.913 0.913 0 0 0 0.913 -0.913v-3.209a0.913 0.913 0 0 0 -0.913 -0.913Z" stroke-width="1"></path><path id="vector_3" fill="#ffb949" d="M142.476 161.325H72.388c-0.556 0 -1.007 0.451 -1.007 1.007v4.842c0 0.556 0.45 1.007 1.007 1.007h70.088c0.556 0 1.007 -0.451 1.007 -1.007v-4.842c0 -0.556 -0.451 -1.007 -1.007 -1.007Z" stroke-width="1"></path><path id="vector_4" fill="#ff7449" d="M156.671 168.181H63.328c-0.826 0 -1.496 0.67 -1.496 1.496v8.336c0 0.826 0.67 1.496 1.496 1.496h93.343c0.826 0 1.496 -0.67 1.496 -1.496v-8.336c0 -0.826 -0.67 -1.496 -1.496 -1.496Z" stroke-width="1"></path><path id="vector_5" fill="#ff7449" d="M125.131 110.607H71.267c-0.56 0 -1.013 0.454 -1.013 1.013v6.928c0 0.559 0.453 1.013 1.013 1.013h53.864c0.559 0 1.013 -0.454 1.013 -1.013v-6.928c0 -0.559 -0.454 -1.013 -1.013 -1.013Z" stroke-width="1"></path><path id="vector_6" fill="#f9f5e5" d="M135.582 104.566a0.265 0.265 0 0 0 0.104 -0.021 0.271 0.271 0 0 0 0.168 -0.252v-1.482a0.272 0.272 0 0 0 -0.272 -0.272H91.08a0.266 0.266 0 0 0 -0.192 0.08 0.268 0.268 0 0 0 -0.08 0.192v1.482a0.27 0.27 0 0 0 0.168 0.252 0.267 0.267 0 0 0 0.104 0.021h1.752v4.013H91.08a0.267 0.267 0 0 0 -0.193 0.08 0.27 0.27 0 0 0 -0.08 0.193v1.482a0.274 0.274 0 0 0 0.273 0.273h44.5a0.272 0.272 0 0 0 0.272 -0.273v-1.482a0.271 0.271 0 0 0 -0.272 -0.273h-1.6v-4.013h1.602Z" stroke-width="1"></path><path id="vector_7" fill="#f9f5e5" d="M140.356 121.588a0.271 0.271 0 0 0 0.273 -0.272v-1.482a0.274 0.274 0 0 0 -0.273 -0.273H79.222a0.274 0.274 0 0 0 -0.273 0.273v1.482a0.27 0.27 0 0 0 0.08 0.193 0.284 0.284 0 0 0 0.089 0.059c0.033 0.013 0.068 0.02 0.104 0.02h1.8v5.512h-1.8a0.274 0.274 0 0 0 -0.273 0.273v1.482a0.273 0.273 0 0 0 0.273 0.273h61.134a0.274 0.274 0 0 0 0.273 -0.273v-1.482a0.274 0.274 0 0 0 -0.273 -0.273h-1.933v-5.515l1.933 0.003Z" stroke-width="1"></path><path id="vector_8" fill="#f9f5e5" d="M132.438 131.068H74.837v7.127h57.601v-7.127Z" stroke-width="1"></path><path id="vector_9" fill="#f9f5e5" d="M133.433 152.657H70.81v6.435h62.623v-6.435Z" stroke-width="1"></path><path id="vector_10" fill="#501200" d="M156.746 167.8h-13.011c0.189 -0.4 0.133 -0.241 0.133 -5.514a1.345 1.345 0 0 0 -1.342 -1.342h-6.784c0.153 -0.256 0.112 -0.341 0.112 -1.639a0.783 0.783 0 0 0 -0.784 -0.784h-1.227v-5.446h1.227a0.783 0.783 0 0 0 0.784 -0.785c0 -1.367 0.033 -1.4 -0.112 -1.639h6.873a1.251 1.251 0 0 0 1.253 -1.252v-3.3a1.256 1.256 0 0 0 -1.253 -1.252h-6.443c0.093 -0.268 0.067 -0.039 0.067 -3.892a1.15 1.15 0 0 0 -0.335 -0.808 1.15 1.15 0 0 0 -0.808 -0.335h-0.724c0.14 -0.249 0.1 -0.358 0.1 -1.673a0.742 0.742 0 0 0 -0.22 -0.531 0.754 0.754 0 0 0 -0.531 -0.219h-0.953v-5.446h0.953a0.742 0.742 0 0 0 0.531 -0.219 0.757 0.757 0 0 0 0.22 -0.531c0 -1.413 0.031 -1.442 -0.1 -1.673h5.984a0.66 0.66 0 0 0 0.658 -0.658v-1.482a0.66 0.66 0 0 0 -0.658 -0.658h-1.431v-4.745h1.431a0.659 0.659 0 0 0 0.658 -0.657v-1.482a0.66 0.66 0 0 0 -0.658 -0.658h-13.963c0.088 -0.18 0.134 -0.378 0.135 -0.578 0 -7.611 0.055 -7.21 -0.135 -7.607h9.189a0.66 0.66 0 0 0 0.465 -0.192 0.66 0.66 0 0 0 0.192 -0.465v-1.482a0.659 0.659 0 0 0 -0.657 -0.658H134.4v-3.243h1.185a0.661 0.661 0 0 0 0.657 -0.658v-1.482a0.657 0.657 0 0 0 -0.657 -0.657H91.08a0.658 0.658 0 0 0 -0.657 0.657v1.482a0.658 0.658 0 0 0 0.657 0.658h1.375v3.243H91.08a0.658 0.658 0 0 0 -0.657 0.658v1.37H71.216a1.345 1.345 0 0 0 -1.347 1.347v7.027a1.351 1.351 0 0 0 1.347 1.348h7.348v1.37a0.66 0.66 0 0 0 0.658 0.657h1.431v4.745h-1.431a0.66 0.66 0 0 0 -0.658 0.658c0 1.61 -0.02 1.577 0.061 1.755h-5.084a0.749 0.749 0 0 0 -0.75 0.75v1.308a0.748 0.748 0 0 0 0.75 0.75h0.959v5.446h-0.954a0.749 0.749 0 0 0 -0.75 0.75v1.308a0.748 0.748 0 0 0 0.75 0.75h0.543a1.135 1.135 0 0 0 -0.294 0.758c0 3.8 -0.027 3.621 0.068 3.892h-10.23a1.255 1.255 0 0 0 -1.252 1.252v3.3a1.255 1.255 0 0 0 1.252 1.252h4.911c-0.153 0.257 -0.113 0.342 -0.113 1.639a0.787 0.787 0 0 0 0.785 0.785h1.226v5.446h-1.226a0.785 0.785 0 0 0 -0.785 0.784v1.239a0.785 0.785 0 0 0 0.785 0.785H71.4a1.34 1.34 0 0 0 -0.4 0.957c0 5.325 -0.05 5.129 0.133 5.514h-7.88a1.809 1.809 0 0 0 -1.806 1.806v8.486a1.806 1.806 0 0 0 1.806 1.806h93.493a1.806 1.806 0 0 0 1.806 -1.806v-8.49a1.807 1.807 0 0 0 -1.806 -1.8Zm-80.9 -48.62h-4.63a0.578 0.578 0 0 1 -0.578 -0.578v-7.029a0.58 0.58 0 0 1 0.578 -0.578h4.632l-0.002 8.185Zm-5.491 30.7h-6.722a0.484 0.484 0 0 1 -0.482 -0.482v-3.3a0.483 0.483 0 0 1 0.482 -0.482h6.724l-0.002 4.264Zm72.258 -4.264a0.483 0.483 0 0 1 0.483 0.482v3.3a0.48 0.48 0 0 1 -0.483 0.482h-8.686v-4.264h8.686Zm-7.519 -5.035c0.099 0 0.194 0.04 0.264 0.109 0.07 0.07 0.109 0.165 0.11 0.264v3.519a0.378 0.378 0 0 1 -0.11 0.264 0.377 0.377 0 0 1 -0.264 0.109h-5.69v-4.265h5.69Zm-43.9 -36.4v-1.257h44.276v1.257H91.194Zm2.032 0.77h40.4v3.243h-40.4v-3.243Zm-2.032 4.013h44.276v1.258H91.193l0.001 -1.258Zm34.566 2.605v7.031c0 0.153 -0.061 0.3 -0.169 0.409a0.582 0.582 0 0 1 -0.409 0.169H120.2v-8.185h4.982a0.58 0.58 0 0 1 0.577 0.576h0.001Zm-45.136 -0.578h34.766v8.185H80.623l0.001 -8.185Zm-1.29 10.209v-1.257h60.91v1.257h-60.91Zm58.821 0.77v4.745H81.423v-4.745h56.732Zm-58.821 5.515h60.91v1.258h-60.91v-1.258Zm-4.07 4.451H132v5.446H75.264v-5.446Zm52.113 13.674v4.264H76.909v-4.264h50.468Zm-43.779 -0.77v-4.265h42.833v4.265H83.598Zm-9.038 -3.892a0.373 0.373 0 0 1 0.373 -0.373h5.69v4.265h-5.69a0.373 0.373 0 0 1 -0.373 -0.373v-3.519Zm-3.348 17.566v-5.446h61.861v5.446H71.212Zm2.207 20.607H63.253a1.037 1.037 0 0 1 -1.036 -1.036V169.6a1.036 1.036 0 0 1 1.036 -1.036h10.166v10.557Zm3.49 -11.328h-4.571a0.57 0.57 0 0 1 -0.572 -0.572v-4.942a0.57 0.57 0 0 1 0.572 -0.572h4.571v6.086Zm4.379 -6.086h49.158v6.093H81.288v-6.093Zm56.382 17.414H81.908v-10.555h55.762v10.555Zm5.428 -11.9a0.572 0.572 0 0 1 -0.572 0.572h-7.7v-6.083h7.7a0.572 0.572 0 0 1 0.572 0.572v4.939Zm14.684 10.864a1.036 1.036 0 0 1 -1.036 1.036h-10.587v-10.555h10.587a1.036 1.036 0 0 1 1.036 1.036v8.483Z" stroke-width="1"></path></g><g id="person"><path id="vector_11" fill="#f9f5e5" d="m94.8 136.768 7.681 -5.216s2.361 3.529 2.1 3.893c-0.261 0.364 -11.728 9.964 -11.884 9.679 -0.156 -0.285 2.103 -8.356 2.103 -8.356Z" stroke-width="1"></path><path id="vector_12" fill="#f9f5e5" d="m56.348 143.177 6.366 -6.608 8.65 -0.623s0.415 4.394 0 4.533c-0.415 0.139 -14.497 3.079 -15.016 2.698Z" stroke-width="1"></path><path id="vector_13" fill="#f9f5e5" d="M134.661 70.746c-4.981 -10.759 -17.177 -15.827 -17.177 -15.827s-0.9 -20.552 -0.9 -21.922c0 -1.37 1.055 -12.122 -9.094 -12.471 -10.785 -0.369 -8.838 11.776 -8.74 13.2 0.077 1.119 -0.742 19.186 -0.742 19.186C86.66 54.018 78.611 65.2 78.611 65.2s-1.27 0.028 -5.707 0.208c-4.437 0.18 -3.736 4.685 -3.736 4.685 -1.373 0.167 -0.909 3.516 -0.909 3.516 -1.6 2.176 -0.523 2.594 -0.523 2.594 -0.9 2.32 0.7 2 0.7 2 -0.621 2.022 0.6 1.763 0.6 1.763 -0.6 2.284 1.288 0.975 1.288 0.975 0.482 5.255 0 9.43 4.6 9.12 4.863 -0.329 43.214 -0.4 43.214 -0.4l0.167 -4.216c13.964 4.255 21.334 -3.945 16.356 -14.699Zm-15.7 4.706 0.233 -6.228c2 1.091 5.761 6.228 5.761 6.228a23.21 23.21 0 0 1 -5.993 0h-0.001Z" stroke-width="1"></path><path id="vector_14" fill="#501200" d="M106.783 30.6a5.855 5.855 0 0 1 0.017 -6.6 0.385 0.385 0 0 1 0.613 0.465 5.002 5.002 0 0 0 0.014 5.714 0.387 0.387 0 0 1 -0.12 0.52 0.384 0.384 0 0 1 -0.524 -0.099Z" stroke-width="1"></path><path id="vector_15" fill="#501200" d="M108.915 30.63a3.368 3.368 0 0 1 -0.555 -2.876 0.387 0.387 0 0 1 0.474 -0.25 0.387 0.387 0 0 1 0.265 0.465 2.63 2.63 0 0 0 0.414 2.176 0.385 0.385 0 0 1 -0.598 0.485Z" stroke-width="1"></path><path id="vector_16" fill="#501200" d="M111.238 30.6c0.579 -3.631 -1.168 -5.259 -1.243 -5.327a0.387 0.387 0 0 1 -0.027 -0.54 0.384 0.384 0 0 1 0.539 -0.035c0.088 0.078 2.14 1.952 1.492 6.023a0.384 0.384 0 0 1 -0.441 0.32 0.384 0.384 0 0 1 -0.32 -0.441Z" stroke-width="1"></path><path id="vector_17" fill="#501200" d="M102.744 30.3a3.561 3.561 0 0 1 0.563 -4.654 0.385 0.385 0 0 1 0.536 0.552c-0.075 0.073 -1.814 1.807 -0.476 3.65a0.385 0.385 0 0 1 -0.623 0.452Z" stroke-width="1"></path><path id="vector_18" fill="#501200" d="M104.541 30.611a2.737 2.737 0 0 1 -0.269 -2.791 0.384 0.384 0 1 1 0.682 0.358 1.972 1.972 0 0 0 0.214 1.986 0.385 0.385 0 0 1 -0.627 0.447Z" stroke-width="1"></path><path id="vector_19" fill="#501200" d="M100.409 30.2a4.304 4.304 0 0 1 1.423 -4.906 0.385 0.385 0 0 1 0.441 0.631 3.474 3.474 0 0 0 -1.138 4.021 0.386 0.386 0 0 1 -0.242 0.473 0.385 0.385 0 0 1 -0.484 -0.219Z" stroke-width="1"></path><path id="vector_20" fill="#501200" d="M105.32 39.586a10.72 10.72 0 0 1 -1.732 -0.717 0.697 0.697 0 0 1 -0.398 -0.58 0.701 0.701 0 0 1 0.306 -0.633 5.65 5.65 0 0 0 1.26 -1.067c0.203 -1.39 0.197 -2.802 -0.019 -4.19a0.387 0.387 0 0 1 0.626 -0.338c0.079 0.064 0.13 0.157 0.14 0.259 0.124 1.2 0.361 4.05 -0.123 4.719a5.82 5.82 0 0 1 -1.354 1.186c0.454 0.23 0.922 0.432 1.4 0.606a0.388 0.388 0 0 1 0.275 0.423 0.386 0.386 0 0 1 -0.381 0.332Z" stroke-width="1"></path><path id="vector_21" fill="#501200" d="M110.058 32.95a2.285 2.285 0 0 0 -2.077 -0.158 0.385 0.385 0 0 1 -0.367 -0.676 3.038 3.038 0 0 1 2.808 0.156 0.386 0.386 0 0 1 -0.364 0.678Z" stroke-width="1"></path><path id="vector_22" fill="#501200" d="M100.4 32.272a3.045 3.045 0 0 1 2.809 -0.156 0.384 0.384 0 0 1 -0.079 0.696 0.386 0.386 0 0 1 -0.286 -0.019 2.289 2.289 0 0 0 -2.079 0.157 0.384 0.384 0 1 1 -0.365 -0.678Z" stroke-width="1"></path><path id="vector_23" fill="#501200" d="M104.09 41.783a0.389 0.389 0 0 1 -0.184 -0.216 0.386 0.386 0 0 1 0.501 -0.484 2.309 2.309 0 0 0 1.791 0.01 0.385 0.385 0 0 1 0.358 0.681 2.948 2.948 0 0 1 -2.466 0.009Z" stroke-width="1"></path><path id="vector_24" fill="#501200" d="M113.664 51.459a27.245 27.245 0 0 1 0 -4.641 0.384 0.384 0 0 1 0.766 0.076 26.975 26.975 0 0 0 0 4.494 0.385 0.385 0 0 1 -0.766 0.071Z" stroke-width="1"></path><path id="vector_25" fill="#501200" d="M100.456 50.87v-3.284a0.386 0.386 0 0 1 0.657 -0.272c0.072 0.072 0.113 0.17 0.113 0.272v3.284a0.386 0.386 0 0 1 -0.657 0.272 0.386 0.386 0 0 1 -0.113 -0.272Z" stroke-width="1"></path><path id="vector_26" fill="#501200" d="M102.256 37.255c0.39 0 0.706 -0.425 0.706 -0.95 0 -0.525 -0.316 -0.95 -0.706 -0.95 -0.39 0 -0.706 0.425 -0.706 0.95 0 0.525 0.316 0.95 0.706 0.95Z" stroke-width="1"></path><path id="vector_27" fill="#501200" d="M108.924 37.255c0.39 0 0.706 -0.425 0.706 -0.95 0 -0.525 -0.316 -0.95 -0.706 -0.95 -0.39 0 -0.706 0.425 -0.706 0.95 0 0.525 0.316 0.95 0.706 0.95Z" stroke-width="1"></path><path id="vector_28" fill="#501200" d="M128.879 74.464a15.096 15.096 0 0 1 -3.446 0.655 47.917 47.917 0 0 0 -7.059 -7.208 0.383 0.383 0 0 0 -0.543 0.002 0.386 0.386 0 0 0 0.002 0.544c0.013 0.014 0.6 0.516 0.97 0.831l-0.183 5.81c-1.791 -0.131 -3.12 -0.3 -3.405 -0.341a0.844 0.844 0 0 0 -0.608 -0.262c0.255 -0.792 -0.1 -1.422 -1.185 -1.378 -0.4 -0.688 -1.225 -0.581 -1.946 -0.246 -0.1 0 -3.05 -0.877 -3.405 0.477 -0.171 0.638 0.474 1 1.109 1.175 -0.7 0.665 -1.352 1.5 -1.044 2.1a0.801 0.801 0 0 0 0.846 0.385c-0.162 0.847 0.307 1.4 1.312 1.118 -0.131 0.846 0.364 1.4 1.465 0.993a0.93 0.93 0 0 0 0.364 0.755c0.669 0.463 1.8 -0.362 2.484 -0.9 1.781 -1.4 1.827 -2.256 1.553 -2.733a1.052 1.052 0 0 0 -0.791 -0.485 1.63 1.63 0 0 0 0.036 -0.195c3.8 0.485 10.091 0.869 13.723 -0.367a0.385 0.385 0 1 0 -0.249 -0.73Zm-20.056 -0.939c0.09 -0.177 0.8 -0.218 1.684 -0.074 -0.179 0.116 -0.428 0.306 -0.6 0.438a2.362 2.362 0 0 1 -1.084 -0.364Zm0.01 2.712c0.149 -0.8 3.026 -3.147 3.806 -2.835a29.735 29.735 0 0 0 -3.277 2.745c-0.17 0.06 -0.349 0.09 -0.529 0.09Zm0.952 1.2a0.334 0.334 0 0 1 -0.051 0c-0.02 -0.248 0.031 -0.497 0.146 -0.718a26.773 26.773 0 0 1 3.42 -2.819c0.431 -0.049 0.59 0.028 0.611 0.061 0.059 0.1 -0.072 0.465 -0.262 0.757a19.784 19.784 0 0 0 -2.959 2.42 2.28 2.28 0 0 1 -0.905 0.298v0.001Zm2.218 0.723c-0.65 0.344 -0.9 0.336 -0.955 0.326a1.708 1.708 0 0 1 0.182 -0.8 19.177 19.177 0 0 1 2.846 -2.325c0.154 -0.055 0.314 -0.087 0.477 -0.095a0.361 0.361 0 0 1 0.093 0.008 1.29 1.29 0 0 1 -0.17 0.7c-0.676 0.54 -2.207 1.941 -2.476 2.185l0.003 0.001Zm3.489 -1.534c0.311 0.535 -2.2 2.615 -2.93 2.615 -0.071 -0.087 -0.021 -0.44 0 -0.555 0.362 -0.328 1.8 -1.637 2.407 -2.129 0.231 -0.076 0.467 -0.03 0.523 0.068v0.001Zm3.9 -1.478 0.164 -5.194a41.166 41.166 0 0 1 4.965 5.232c-1.71 0.085 -3.424 0.072 -5.133 -0.039l0.004 0.001Z" stroke-width="1"></path><path id="vector_29" fill="#501200" d="M113.406 31.067a3.19 3.19 0 0 1 0.027 -2.374 0.384 0.384 0 0 1 0.681 0.359 2.475 2.475 0 0 0 0.025 1.781 0.385 0.385 0 0 1 -0.733 0.234Z" stroke-width="1"></path><path id="vector_30" fill="#ffb949" d="M72.9 65.409s26.856 -0.856 27.842 -0.882a3.9 3.9 0 0 1 3.763 3.763c0.363 3.088 1.4 16.01 1.453 16.814 0 0 7.495 -0.077 8.3 0 0.805 0.077 1.673 3.3 -0.344 3.581 -2.017 0.281 -9.724 0.116 -9.724 0.116s-29.029 1.182 -29.89 1.208c-0.861 0.026 -3.126 -0.484 -3.5 -3.615 -0.374 -3.131 -0.483 -5.453 -0.483 -5.453s2.617 -2 2.409 -3.193c-0.082 -0.476 -0.77 -0.093 -0.77 -0.093s1.2 -2.567 -0.537 -2.229c0 0 1.211 -2.05 -0.486 -1.583 0 0 1.21 -2.1 -1.152 -1.22 0 0 -0.408 -3.01 -0.45 -3.71a3.638 3.638 0 0 1 3.569 -3.504Z" stroke-width="1"></path><path id="vector_31" fill="#501200" d="M86.018 79.059a1.623 1.623 0 1 0 0 -3.246 1.623 1.623 0 0 0 0 3.246Z" stroke-width="1"></path><path id="vector_32" fill="#501200" d="M134.853 70.666a33.292 33.292 0 0 0 -16.964 -16l-0.816 -13.566a4.72 4.72 0 0 0 3.382 -4.834 4.352 4.352 0 0 0 -3.444 -4.062c0.013 -0.033 0.426 -5.758 -2.766 -9.261a9.167 9.167 0 0 0 -6.949 -2.83 8.304 8.304 0 0 0 -6.687 2.589c-2.756 3.146 -2.389 8.068 -2.26 9.194a4.387 4.387 0 0 0 -3.544 4.221 4.555 4.555 0 0 0 3.418 4.465l-0.367 12.012a31.116 31.116 0 0 0 -19.571 12.253l-5.515 0.174a4.033 4.033 0 0 0 -3.887 4.4l0.036 0.4c-1.137 0.079 -1.1 3.2 -1.052 3.936 -1.408 1.886 -0.626 2.548 -0.462 2.7 -0.613 1.728 0.38 2.027 0.623 2.109 -0.457 1.5 0.444 1.6 0.637 1.657 -0.264 1.647 1.124 1.45 1.332 1.36l0.472 5.176a4.04 4.04 0 0 0 4.016 3.667c0.043 0 -6.782 2.751 -9.626 7.842 -4.4 7.872 -2.984 34.164 -2.732 38.272 -0.573 0.575 -1.091 1.1 -1.561 1.578l-0.841 -0.5a0.388 0.388 0 0 0 -0.53 0.13 0.387 0.387 0 0 0 0.13 0.53l0.68 0.408 -0.524 0.536 -0.6 -0.359a0.387 0.387 0 0 0 -0.53 0.129 0.387 0.387 0 0 0 0.13 0.53l0.444 0.267c-3.015 3.11 -3.061 3.331 -3.081 3.439a0.4 0.4 0 0 0 0.133 0.382c0.056 0.049 0.11 0.095 0.367 0.095 1.693 0 14.772 -2.694 15.111 -2.823 0.252 -0.095 0.716 -0.274 0.3 -4.914 0.156 -14.29 2.02 -26.006 6.589 -30.979 0.23 -2.121 0.86 -4.179 1.861 -6.064 1.652 -3.094 5.114 -6.949 12.2 -7.716a0.385 0.385 0 0 1 0.085 0.765c-5.425 0.587 -9.33 3.048 -11.609 7.316a16.282 16.282 0 0 0 -1.7 5.2c1.181 14.309 12.938 29.186 15.337 32.089l-0.651 2.253 -0.942 -0.124a0.385 0.385 0 0 0 -0.1 0.765l0.829 0.108c-0.07 0.246 -0.139 0.485 -0.2 0.708l-0.783 -0.1a0.382 0.382 0 0 0 -0.389 0.181 0.382 0.382 0 0 0 -0.045 0.292 0.391 0.391 0 0 0 0.175 0.238 0.38 0.38 0 0 0 0.141 0.052l0.69 0.089c-1.093 3.934 -1.015 4.146 -1 4.252a0.329 0.329 0 0 0 0.377 0.283c0.722 0 11.962 -9.5 12.22 -9.8 0.174 -0.2 0.49 -0.575 -2.012 -4.352 -4.49 -8.5 -9.467 -25.453 -11.581 -31.647a0.385 0.385 0 0 1 0.729 -0.249l0.916 2.689h18.955c7.527 0.139 6.972 -10.018 6.662 -11.662l0.174 -4.827a15.519 15.519 0 0 0 14.226 -1.057c4.091 -2.922 4.797 -8.026 1.944 -14.005Zm-63.766 69.525c-1.27 0.318 -11.124 2.288 -14.018 2.689 0.557 -0.614 1.509 -1.609 2.548 -2.682 1.036 0.625 1 0.626 1.147 0.626a0.386 0.386 0 0 0 0.2 -0.716l-0.8 -0.474c0.174 -0.18 0.349 -0.36 0.523 -0.537 0.8 0.479 0.777 0.483 0.911 0.483a0.386 0.386 0 0 0 0.2 -0.716l-0.555 -0.334c0.478 -0.485 0.942 -0.957 1.36 -1.378l8.42 -0.787c0.145 1.27 0.166 2.552 0.064 3.826Zm24.152 -3.29 7.131 -4.8a19.314 19.314 0 0 1 1.822 3.241c-0.965 0.885 -8.684 7.321 -11.034 9.053 0.182 -0.744 0.5 -1.943 0.872 -3.259 0 0 0.967 0.126 0.985 0.126a0.388 0.388 0 0 0 0.38 -0.361 0.385 0.385 0 0 0 -0.331 -0.407l-0.824 -0.107 0.2 -0.708s0.828 0.107 0.846 0.107a0.386 0.386 0 0 0 0.385 -0.36 0.384 0.384 0 0 0 -0.336 -0.407l-0.682 -0.09c0.203 -0.709 0.403 -1.402 0.586 -2.029v0.001ZM117.1 54.329a35.445 35.445 0 0 0 -7.188 -2.194v-4.766a9.696 9.696 0 0 0 4.309 -5.781c0.07 0.024 0.144 0.037 0.218 0.039 1.411 0.014 1.709 0.122 1.863 -0.542l0.798 13.244Zm-2.638 -22.014 1.083 0.02v8.545l-1.083 -0.021v-8.544Zm-7.177 -11.437a8.433 8.433 0 0 1 6.392 2.576c2.886 3.166 2.614 8.245 2.594 8.565 0 0 0.015 -9.451 -8.714 -10.058a8.363 8.363 0 0 0 -7.419 2.843c1.403 -2.859 3.986 -3.978 7.146 -3.926h0.001Zm-5.764 4.054a6.907 6.907 0 0 1 5.409 -1.771 8.1 8.1 0 0 1 7.273 4.568 19.46 19.46 0 0 1 1.167 3.834c-1.051 -0.02 -1.227 -0.069 -1.488 0.192 -0.314 0.314 -0.222 -0.1 -0.167 8.432a9.134 9.134 0 0 1 -4.38 6.631 0.382 0.382 0 0 0 -0.193 0.333v5.207l-3.051 5.283 -2.129 -5.252 0.105 -3.169a5.169 5.169 0 0 0 3.133 -1.345 0.386 0.386 0 0 0 -0.252 -0.677 8.073 8.073 0 0 1 -5.778 -2.718c-2.466 -2.912 -1.984 -13.051 -1.984 -13.051 -0.003 -0.041 -0.106 -4.095 2.334 -6.497h0.001Zm-2.54 16.03a9.267 9.267 0 0 0 1.6 4.016 8.792 8.792 0 0 0 2.782 2.24l-0.162 4.86a30.893 30.893 0 0 0 -4.57 0.377l0.35 -11.493Zm-0.69 12.327c0.223 1.553 1.083 7.054 2.032 7.234 1.065 0.2 3.828 -2.494 4.727 -3.405l0.6 1.473c-0.02 6.063 -0.038 12.717 -0.041 17.862l-0.793 -8.658a4.035 4.035 0 0 0 -4.146 -3.664l-21.4 0.685a31.778 31.778 0 0 1 19.02 -11.527h0.001Zm-29.3 17.336 0.175 1.922a8.844 8.844 0 0 0 -0.56 0.449 4.631 4.631 0 0 1 0.387 -2.371h-0.002Zm1.789 2.2a0.154 0.154 0 0 1 0.154 0.144c0.028 0.128 -0.057 0.369 -0.365 0.665 -0.1 0.1 -2.034 1.5 -2.709 2.183 -0.614 -0.348 1.14 -3.148 2.922 -2.993l-0.002 0.001Zm-2.41 5.042c-0.621 -0.137 -0.477 -0.69 -0.159 -1.3 0.431 -0.457 2.469 -2.478 3.2 -2.286 0.047 1.112 -1.427 1.286 -3.041 3.586Zm0.364 1.539c-0.079 -0.1 -0.082 -0.406 0.157 -0.941a8.407 8.407 0 0 1 2.489 -2.579s0.4 -0.134 0.451 -0.07c0.007 0.011 0.536 0.3 -0.564 1.609 -0.147 0.108 -1.945 1.83 -2.156 2.087 -0.1 0 -0.295 -0.006 -0.377 -0.106Zm1.186 1.353c-0.385 0.228 -0.534 0.174 -0.534 0.174a0.818 0.818 0 0 1 0.2 -0.8c0.168 -0.168 1.919 -1.921 2.107 -2.066 0.254 -0.038 0.487 -0.109 0.565 0.034 0.233 0.434 -2.158 2.547 -2.338 2.658Zm32.565 8.008 -27.895 0.891a3.276 3.276 0 0 1 -3.354 -2.967l-0.508 -5.558c0.329 -0.258 0.638 -0.54 0.926 -0.844 1.183 -1.216 1.576 -2 1.281 -2.551a0.933 0.933 0 0 0 -0.735 -0.438c0.4 -0.847 0.873 -2.313 -0.3 -2.135 0.252 -0.467 0.909 -1.6 -0.313 -1.632 0.111 -0.246 0.53 -1.971 -1.667 -1.348 -0.077 -0.854 -0.278 -2.829 -0.278 -2.829a3.26 3.26 0 0 1 3.158 -3.565l28 -0.89a3.265 3.265 0 0 1 3.248 2.966l1.586 17.339a3.425 3.425 0 0 1 -0.8 2.46 3.85 3.85 0 0 1 -2.349 1.101Zm12.294 -1.329a0.98 0.98 0 0 1 -0.98 0.98h-8.632c0.829 -0.407 1.272 -2 1.242 -3.02h7.39a0.98 0.98 0 0 1 0.98 0.98v1.06Zm-1.594 -6.087a0.386 0.386 0 0 0 -0.538 0.552 17.322 17.322 0 0 0 5.291 3.513l-0.123 3.385 -2.687 -0.226c0.473 -0.553 0.421 -0.962 0.421 -2.2a1.754 1.754 0 0 0 -1.75 -1.75h-7.414c-0.033 -2.93 0 -17.8 0.031 -26.009l0.945 -1.637c0.88 1.036 3.738 4.285 4.829 4.2 1.114 -0.09 1.965 -5.509 2.184 -7.044 5.676 1.949 14.87 6.565 19.784 16.865 7.387 15.481 -11.752 19.382 -20.973 10.351Z" stroke-width="1"></path><path id="vector_33" fill="#fccac2" d="M110.445 40.546c0.577 -0.067 1.006 -0.45 0.959 -0.856 -0.047 -0.406 -0.553 -0.681 -1.13 -0.614 -0.576 0.067 -1.005 0.45 -0.958 0.856 0.047 0.406 0.553 0.681 1.129 0.614Z" stroke-width="1"></path><path id="vector_34" fill="#fccac2" d="M102.042 40.05c0.043 -0.407 -0.391 -0.785 -0.968 -0.846 -0.577 -0.06 -1.08 0.22 -1.122 0.627 -0.043 0.407 0.391 0.785 0.968 0.845 0.578 0.06 1.08 -0.22 1.122 -0.626Z" stroke-width="1"></path></g><g id="clouds"><g id="group"><path id="vector_35" fill="#f9f5e5" d="M117.277 172.878h67.466s15.915 -14.36 7.335 -17.022c-5.353 -1.661 -18.233 9.03 -18.233 9.03s12.958 -18.012 6.305 -20.266c-9.419 -3.191 -24.988 10.821 -34.434 21.754 0 0 7.748 -12.3 1.661 -13.147 -12.87 -1.8 -30.1 19.651 -30.1 19.651Z" stroke-width="1"></path><path id="vector_36" fill="#501200" d="M117.277 173.263a0.388 0.388 0 0 1 -0.347 -0.219 0.388 0.388 0 0 1 0.047 -0.407 93.385 93.385 0 0 1 10.271 -10.55c7.939 -6.894 14.73 -10 20.182 -9.241 4.487 0.626 2.375 6.592 0.326 10.656 7.088 -7.751 22.62 -22.6 32.518 -19.246 5.7 1.93 -1.346 13.711 -4.686 18.765 3.87 -2.945 12.358 -8.852 16.6 -7.532 7.381 2.29 -1.552 12.589 -7.191 17.675 -0.172 0.159 0.003 0.099 -67.72 0.099Zm0.82 -0.77h66.5c1.124 -1.036 10.537 -9.875 9.573 -14.253a2.803 2.803 0 0 0 -2.2 -2.016c-5.1 -1.583 -17.746 8.853 -17.874 8.958a0.386 0.386 0 0 1 -0.628 -0.259 0.388 0.388 0 0 1 0.07 -0.262c3.193 -4.441 11.692 -17.915 6.495 -19.676 -10.108 -3.425 -27.035 13.556 -34.019 21.64a0.385 0.385 0 0 1 -0.617 -0.456c1.538 -2.455 4.893 -8.792 3.674 -11.415a2.053 2.053 0 0 0 -1.741 -1.146c-11.282 -1.577 -26.268 15.378 -29.23 18.885h-0.003Z" stroke-width="1"></path></g><g id="group_2"><path id="vector_37" fill="#f9f5e5" d="M17.944 57.858c-0.285 0.4 34.114 0 34.114 0s7.127 -6.366 4.982 -8.442c-2.145 -2.076 -10.1 3.183 -10.1 3.183s8.165 -11.486 3.6 -12.455c-4.565 -0.969 -12.667 5.328 -16.058 11.279 0 0 2.491 -4.774 -0.415 -4.982 -2.906 -0.208 -10.656 3.806 -16.123 11.417Z" stroke-width="1"></path><path id="vector_38" fill="#501200" d="M23.356 58.412c-5.578 -0.03 -5.609 -0.088 -5.754 -0.368a0.4 0.4 0 0 1 0.029 -0.41c5.4 -7.516 13.216 -11.63 16.463 -11.577 2.325 0.038 1.812 2.034 1.71 2.7 3.964 -5.166 10.7 -9.91 14.811 -8.993 3.962 0.883 -0.15 8.135 -2.366 11.566 9.193 -5.343 9.589 -1.4 9.578 -0.86 -0.055 2.766 -5.29 7.472 -5.513 7.671a0.384 0.384 0 0 1 -0.252 0.1c-0.085 0.003 -27.733 0.176 -28.706 0.171Zm-4.72 -0.848c3.452 0.175 21.176 0.05 33.271 -0.089 1.574 -1.428 6.379 -6.317 4.864 -7.782 -1.4 -1.357 -6.646 1.26 -9.623 3.227a0.385 0.385 0 0 1 -0.526 -0.544c1.964 -2.762 7.148 -11.152 3.833 -11.855 -4.4 -0.937 -12.411 5.426 -15.64 11.093a0.385 0.385 0 0 1 -0.675 -0.369c0.4 -0.772 1.573 -4.44 -0.1 -4.42 -2.508 0.029 -9.884 3.358 -15.403 10.739h-0.001Z" stroke-width="1"></path></g><g id="group_3"><path id="vector_39" fill="#f9f5e5" d="M133.623 53.136h17.7s3.788 -3.322 2.854 -4.412c-0.934 -1.09 -4.152 0.883 -4.152 0.883s3.737 -4.256 2.18 -5.657c-1.557 -1.401 -5.449 0.934 -9.653 5.4 0 0 0.934 -2.483 -0.155 -2.876 -1.089 -0.393 -5.66 1.264 -8.774 6.662Z" stroke-width="1"></path><path id="vector_40" fill="#501200" d="M133.623 53.521a0.382 0.382 0 0 1 -0.333 -0.193 0.392 0.392 0 0 1 0 -0.385c3.2 -5.551 7.891 -7.193 9.234 -6.834 1.05 0.28 0.807 1.474 0.745 1.949 3.4 -3.371 7.345 -6.054 9.191 -4.394 1.2 1.083 0 3.307 -1.044 4.785 3.143 -1.3 5.342 0.431 0.157 4.976 -0.173 0.149 -0.024 0.096 -17.95 0.096Zm0.681 -0.77h16.87c1.993 -1.773 3.026 -3.4 2.708 -3.776 -0.491 -0.573 -2.474 0.234 -3.659 0.96a0.385 0.385 0 0 1 -0.49 -0.582c1.137 -1.3 3.173 -4.251 2.212 -5.117 -1.292 -1.163 -5.04 1.048 -9.116 5.375a0.386 0.386 0 0 1 -0.64 -0.4c0.221 -0.59 0.711 -2.135 0.074 -2.379 -0.742 -0.283 -4.863 0.979 -7.963 5.919h0.004Z" stroke-width="1"></path></g><g id="group_4"><path id="vector_41" fill="#f9f5e5" d="M5.385 126.674h59.578s8.1 -9.964 3.217 -12.248c-4.883 -2.284 -11.832 4.774 -11.832 4.774s8.1 -16.815 1.661 -19.306c-6.439 -2.491 -16.4 2.906 -25.949 14.843 0 0 2.387 -7.577 -1.661 -8.408 -4.048 -0.831 -15.05 4.465 -25.014 20.345Z" stroke-width="1"></path><path id="vector_42" fill="#501200" d="M5.385 127.059a0.382 0.382 0 0 1 -0.384 -0.395 0.384 0.384 0 0 1 0.058 -0.194c9.757 -15.551 20.921 -21.359 25.418 -20.517 3.4 0.637 2.694 5.555 2.365 7.22 9.166 -10.956 18.773 -16.165 25.306 -13.637 5.343 2.068 1.58 12.848 -0.685 18.126 9.965 -7.854 12.355 -2.47 12.57 -1.533 0.869 3.79 -4.541 10.5 -4.771 10.788 -0.184 0.226 -0.003 0.142 -59.877 0.142Zm0.7 -0.77h58.692c0.773 -0.986 5.3 -6.861 4.506 -9.988 -1.128 -4.418 -9.406 -0.6 -12.661 3.17a0.383 0.383 0 0 1 -0.646 -0.173 0.386 0.386 0 0 1 0.025 -0.264c0.057 -0.118 5.7 -11.9 3.687 -16.9 -1.3 -3.222 -8.331 -2.79 -13.3 0.111a53.204 53.204 0 0 0 -14.03 12.737 0.386 0.386 0 0 1 -0.668 -0.356c0.014 -0.046 1.976 -7.306 -1.371 -7.915 -3.289 -0.603 -13.863 3.352 -24.235 19.578h0.001Z" stroke-width="1"></path></g><g id="group_5"><path id="vector_43" fill="#f9f5e5" d="M15.522 167.88H36.35s3.6 -2.56 2.491 -4.22c-1.109 -1.66 -5.051 0.83 -5.051 0.83s4.083 -5.951 1.522 -6.781c-2.561 -0.83 -6.781 2.421 -9.549 6.3 0 0 1.938 -3.736 0.346 -4.428 -1.592 -0.692 -6.297 1.795 -10.587 8.299Z" stroke-width="1"></path><path id="vector_44" fill="#501200" d="M15.522 168.265a0.379 0.379 0 0 1 -0.342 -0.203 0.383 0.383 0 0 1 0.021 -0.397c5.88 -8.916 12.991 -10.965 11.778 -5.8 2.658 -2.982 6.1 -5.291 8.452 -4.529 2.2 0.715 0.633 4.113 -0.531 6.106 1.369 -0.645 3.4 -1.294 4.262 0 1.277 1.916 -2.189 4.464 -2.589 4.748 -0.157 0.116 -0.002 0.075 -21.051 0.075Zm0.724 -0.769h19.979c0.917 -0.68 3 -2.563 2.3 -3.623 -0.734 -1.1 -3.585 0.348 -4.526 0.942a0.382 0.382 0 0 1 -0.48 -0.06 0.385 0.385 0 0 1 -0.042 -0.483c1 -1.456 3.4 -5.652 1.72 -6.2 -2.149 -0.7 -6.154 2.006 -9.117 6.154a0.386 0.386 0 0 1 -0.681 -0.121 0.385 0.385 0 0 1 0.026 -0.279c0.484 -0.935 1.5 -3.48 0.535 -3.9 -1.283 -0.552 -5.552 1.531 -9.714 7.574v-0.004Z" stroke-width="1"></path></g></g></g></svg>