<svg xmlns="http://www.w3.org/2000/svg" viewBox="0 0 200 200"><g><path d="M46.52 174.7s6.09 -25.26 48.15 -25.79c42.66 -0.54 52 14.09 53.45 25.79Z" fill="#ffb949" stroke-width="1"></path><path d="M98.13 174.7s-0.09 -7.06 0 -8.69c0 0 -5.18 -0.67 -7.17 -0.64a15.11 15.11 0 0 1 0.61 3.13s-8.84 1.42 -10.63 2.76C80 172 80 174.7 80 174.7Z" fill="#fccac2" stroke-width="1"></path><path d="M86.37 124.19s0.22 11 1.33 14.24 1.91 7.16 6 9.33a18 18 0 0 1 -0.6 5.17 7.09 7.09 0 0 0 10.41 0.41 24.77 24.77 0 0 1 -0.22 -6.09 11.7 11.7 0 0 0 5.64 -8.67c0.89 -6.27 1.07 -13.47 0.63 -15.13a12.2 12.2 0 0 1 -5.46 -1.47c-2.36 -1.44 -3.49 -7.69 -9 -8 0 0 -0.09 3.53 -1.5 5.52s-5.98 1.5 -7.23 4.69Z" fill="#fccac2" stroke-width="1"></path><path d="M148 75.55c-0.46 -0.72 0.92 -6.91 1 -8.26 0 0 -6.45 -0.17 -10 -4.85 0 0 -4.73 2.56 -9.54 0.61 0 0 -2.07 9.44 -2.64 12.16s-1.7 10.7 4.06 13.66c0 0 -0.26 2.34 -0.62 4.42 -2.6 -7.25 -11.1 -26.39 -27.76 -24.56a14.55 14.55 0 0 1 -0.14 -5.1s5.84 -1.32 7.44 -9.73a58.3 58.3 0 0 0 0.2 -17.33 28.72 28.72 0 0 0 -5.76 0c-2.93 0.34 -3.92 1.66 -6.36 1.72s-4 -1.11 -6.79 -0.88 -5 3.54 -5.33 6.69c0 0 -5.84 0.65 -5.42 3.91s4.53 3.2 4.53 3.2 1.79 8.46 6.59 12c1.14 0.85 1.46 0 0.47 5.67 0 0 -10.89 -3 -24.7 13.64l-0.25 0.3c0 -1.59 0 -3.31 -0.18 -5.19 -0.75 -10.89 -4 -11 -4 -11 -2.92 2.15 -14.23 3.6 -15.11 4.32s-1 7.55 -1 7.55c-1.78 -0.52 -5.7 -0.08 -5.83 3s4 4.32 4 4.32A12.36 12.36 0 0 0 50.14 96c0.22 1.22 -1 6.94 -1 6.94s3.3 3.17 6.19 3.23c2.48 0.05 5.09 -3.16 4.95 -3.68a17.17 17.17 0 0 1 9.28 0.78s6 -6.55 6.54 -6.31 -1.59 9.61 -1.59 9.61a34.2 34.2 0 0 1 5.13 7.11 5.19 5.19 0 0 0 -2.48 3.5c-1.46 4.9 2 7.22 2.17 10.51 0.1 2.35 -1.4 4.73 -0.4 7.21 1.82 4.52 8.67 3.45 8.67 3.45 -0.26 -1 -1.51 -11.28 -1.18 -14.2s4.69 -2.55 6.5 -3.84c0.37 -0.26 2.26 -2.32 2.26 -6.33 0 0 3.55 -1 8.35 7.7 0.79 1.43 6.09 1.73 6.09 1.73 0.67 4.17 -0.85 16.1 -0.85 16.1 4.84 1.32 5.58 -3.2 7.1 -5 1 -1.24 4.28 -1.5 4.34 -5.79 0 -3.28 -1.38 -5.65 -1.73 -7.94s0.4 -5.86 -1.57 -8.26 -8.34 -7.91 -8.25 -8c5.26 -5.06 12.31 -9.24 21 -8.69a2.16 2.16 0 0 1 -0.23 0.5 6.87 6.87 0 0 0 9.15 0.59s0.08 -5.68 0.57 -6.66c0 0 5.25 -2 7.94 -9 0 0 5.12 0.59 5.13 -1.92 0 -3.41 -3.8 -3.07 -4.22 -3.79Z" fill="#f9f5e5" stroke-width="1"></path><path d="M75.13 145.7a2.59 2.59 0 0 1 3.16 -1.39s1.27 -1.59 3.51 -0.14c0 0 1.94 -0.75 3 0.46s1.38 1.59 2.07 1.9 3.18 0.05 2.47 3c-0.81 3.32 -3 3 -2.69 0.86 0.27 -1.69 -3.07 -1.29 -3.21 -0.6 -0.08 0.41 -0.48 5.1 -1.35 5.17s-1.07 -1 -1.07 -1 -1.12 2.81 -2.17 0.14c0 0 -1.86 2.88 -2.93 -0.14 0 0 -2 3.05 -3 -1.52s-0.36 -8.18 2.21 -6.74Z" fill="#f9f5e5" stroke-width="1"></path><path d="M186.17 164.65a9.22 9.22 0 0 0 -2.49 -0.2s0.19 -7 -0.06 -7.24a15.29 15.29 0 0 0 -3.35 -0.19c0.37 -8 -2.71 -5.69 -2.71 -5.69 -1.2 -2.41 -2.77 -1.19 -2.77 -1.19 -1 -1.77 -3.16 0.12 -3.16 0.12 -2.15 -1.66 -3.75 3.12 -4.32 3.17a3.07 3.07 0 0 0 -3 3.37c-3.29 0 -15.14 0.1 -15.26 0.26a54.65 54.65 0 0 0 -0.25 7.3s-4.26 -0.1 -4.37 0.43 -0.22 9.89 -0.22 9.89h42s0.26 -9.78 -0.04 -10.03Z" fill="#f9f5e5" stroke-width="1"></path><path d="M20.82 169.86s1.3 -2.4 2.9 -1.34c0 0 1 -1.67 3.13 -0.09 0 0 1.32 -0.93 2.8 0.72s1.39 2 2 2.21a2.74 2.74 0 0 1 2.54 3c0 2.72 -0.45 3.1 -1 3.14 -1.35 0.12 -1.23 -2.58 -1.81 -2.84a8.28 8.28 0 0 0 -3 0.12s-0.41 4.1 -1.23 4.16a0.9 0.9 0 0 1 -1 -0.69s-0.85 2 -2 0c0 0 -1.49 2.63 -2.63 -0.31 0 0 -1 2.19 -2.25 -0.67s-1.27 -9.09 1.55 -7.41Z" fill="#f9f5e5" stroke-width="1"></path><path d="M152.22 157.06h4.91v7.31h-4.91Z" fill="#ffb949" stroke-width="1"></path><path d="M180.73 157.51v7h-4.68v-2.36c0.92 0.25 1.62 -0.9 1.67 -1a1.22 1.22 0 0 0 2.13 -0.16 9.11 9.11 0 0 0 0.88 -3.48Z" fill="#ffb949" stroke-width="1"></path><path d="M40.72 53.1s-2.13 -0.48 -1.4 2.49 3.78 6.28 4.68 5.82 0.27 -1.93 0.27 -1.93 0.77 0.86 1.62 0.51 6.1 -1.88 7.57 -3.21c0 0 -6.63 -15.09 -7.06 -15.74s-0.84 -1.67 -2.13 -1.46 -0.57 2.23 -0.41 2.61 3.24 7.05 3.14 7.24 -1.85 1.22 -2 1 -3.21 -6.84 -3.7 -7.75 -3.12 -1.68 -2.3 1.6 3.95 7.94 3.95 7.94 -1.7 -0.56 -2.23 0.88Z" fill="#f9f5e5" stroke-width="1"></path><path d="M171.26 70.66a3.09 3.09 0 0 1 4 -0.88 1.9 1.9 0 0 0 2.18 -0.21 3.06 3.06 0 0 1 4.15 -0.39 1.66 1.66 0 0 0 1.13 0.46c0.79 0 1.26 -0.06 1.91 -1.26 0.25 -0.45 1 -0.08 0.72 0.39a2.56 2.56 0 0 1 -2.6 1.69 2.52 2.52 0 0 1 -1.66 -0.62 2.32 2.32 0 0 0 -3.06 0.3 2.55 2.55 0 0 1 -3.18 0.35 2.2 2.2 0 0 0 -2.94 0.61 0.41 0.41 0 0 1 -0.65 -0.44Z" fill="#501200" stroke-width="1"></path><path d="M26.87 91.47a3.3 3.3 0 0 0 -4.33 -1.85 3.29 3.29 0 0 1 -4.15 -1.39 2.55 2.55 0 0 0 -3.47 -0.94 0.47 0.47 0 0 1 -0.53 0 0.41 0.41 0 0 1 0.12 -0.7 4 4 0 0 1 3.23 -0.11 3.32 3.32 0 0 1 1.35 1.33 2.57 2.57 0 0 0 3.2 1 4.41 4.41 0 0 1 2.58 -0.19 3.87 3.87 0 0 1 2.79 2.59 0.41 0.41 0 0 1 -0.79 0.26Z" fill="#501200" stroke-width="1"></path><path d="m136.18 24.68 -1.46 2.77 -1.09 -0.57a0.41 0.41 0 0 0 -0.38 0.73l1.09 0.57 -1.23 2.32a0.41 0.41 0 0 0 0.73 0.38l1.22 -2.32 1 0.52a0.41 0.41 0 0 0 0.38 -0.73l-1 -0.52 1.47 -2.77a0.41 0.41 0 0 0 -0.73 -0.38Z" fill="#ffb949" stroke-width="1"></path><path d="M62.37 33.44a2.57 2.57 0 1 1 2.57 -2.57 2.57 2.57 0 0 1 -2.57 2.57Zm0 -4.31a1.75 1.75 0 1 0 1.75 1.74 1.75 1.75 0 0 0 -1.75 -1.74Z" fill="#501200" stroke-width="1"></path><path d="m21.07 61.87 -2.65 -1.48 0.7 -1.26a0.41 0.41 0 0 0 -0.71 -0.4L17.7 60c-3.12 -1.74 -3.19 -1.76 -3.21 -1.77a0.41 0.41 0 0 0 -0.33 0.75l3.14 1.74 -0.74 1.28a0.41 0.41 0 0 0 0.72 0.4l0.72 -1.29 2.65 1.48a0.41 0.41 0 0 0 0.42 -0.72Z" fill="#ffb949" stroke-width="1"></path><path d="M143.46 49.16a17.68 17.68 0 0 1 10.44 6 1 1 0 0 0 1.27 0.27c1.49 -0.72 4.45 -2.87 3.14 -8.19 -1.71 -7 -9.62 -7.69 -12.89 -5.06a7.11 7.11 0 0 0 -2.85 6 1.08 1.08 0 0 0 0.89 0.98Z" fill="#ff7449" stroke-width="1"></path><path d="M174.35 98.88c4.87 -1.47 6.29 -8.38 3.54 -13.87 -2.65 -5.31 -9.67 -6.46 -14.35 -7.19a10.59 10.59 0 0 1 -2.37 -0.65 4.39 4.39 0 0 1 -2.71 -4c-0.21 -7.79 0.38 -16.35 -11.52 -22.07 -8.67 -4.18 -16 -0.78 -18.81 1.69s-5 7.31 -1 10.41 11.62 -0.15 11.62 -0.15c4.69 6 10.15 5 10.15 5 -0.17 2.2 -0.94 7.43 -0.94 7.43 2.46 0.38 4.33 1.31 4.26 3.86s-4.9 2 -4.9 2 -2.81 7.15 -8.17 8.92l-0.47 5.48s18.92 2.61 27.24 27.66a13.82 13.82 0 0 0 10.72 -7.89 14.5 14.5 0 0 0 -2.29 -16.63Z" fill="#ff7449" stroke-width="1"></path><path d="M126.15 81.34a18.41 18.41 0 0 0 -2.71 13.45 29.28 29.28 0 0 1 6 -0.5 22.27 22.27 0 0 0 1.38 -5.44 11.2 11.2 0 0 1 -4.67 -7.51Z" fill="#ff7449" stroke-width="1"></path><path d="M99.08 136.21a0.47 0.47 0 0 1 -0.34 -0.79 29.19 29.19 0 0 0 2 -2.31c-0.88 0 -2 0.22 -2.36 -0.44s-0.28 -4.06 -0.27 -6.12a0.47 0.47 0 0 1 0.47 -0.46 0.45 0.45 0 0 1 0.46 0.47 55.22 55.22 0 0 0 0.16 5.63 5.07 5.07 0 0 0 1.11 0c0.78 0 1.29 -0.07 1.52 0.33s0.35 0.63 -2.44 3.53a0.44 0.44 0 0 1 -0.31 0.16Zm0.16 -3.94Z" fill="#501200" stroke-width="1"></path><path d="M102.64 130.84a0.45 0.45 0 0 1 -0.46 -0.51c0.12 -1.15 0.77 -3.06 2.4 -2.91s2 2.67 2 2.77a0.47 0.47 0 1 1 -0.93 0.08s-0.18 -1.84 -1.12 -1.92 -1.31 1.26 -1.4 2.08a0.46 0.46 0 0 1 -0.49 0.41Z" fill="#501200" stroke-width="1"></path><path d="M90.7 130.93a0.46 0.46 0 0 1 -0.45 -0.48c0.07 -2.39 1.44 -3 2.23 -3 1.47 0 2 1.8 2 2.87a0.46 0.46 0 1 1 -0.92 0.06s-0.19 -2 -1.13 -2c-1.22 0 -1.3 2.11 -1.3 2.13a0.47 0.47 0 0 1 -0.43 0.42Z" fill="#501200" stroke-width="1"></path><path d="M106.16 126a0.47 0.47 0 0 1 -0.31 -0.12 2.14 2.14 0 0 0 -2.74 -0.13 0.45 0.45 0 0 1 -0.65 -0.08 0.46 0.46 0 0 1 0.07 -0.65 3.05 3.05 0 0 1 3.94 0.17 0.46 0.46 0 0 1 -0.31 0.81Z" fill="#501200" stroke-width="1"></path><path d="M94.67 125.49a0.51 0.51 0 0 1 -0.31 -0.11 2.21 2.21 0 0 0 -3 -0.09 0.48 0.48 0 0 1 -0.66 -0.05 0.46 0.46 0 0 1 0 -0.66 3.17 3.17 0 0 1 4.2 0.09 0.46 0.46 0 0 1 -0.23 0.82Z" fill="#501200" stroke-width="1"></path><path d="M98.35 141.21A3.85 3.85 0 0 1 95 138.5a0.47 0.47 0 0 1 0.89 -0.28 2.93 2.93 0 0 0 2.5 2.06h0.06c1.74 0 2.17 -1.93 2.18 -2a0.47 0.47 0 0 1 0.92 0.19 3.26 3.26 0 0 1 -3.2 2.74Z" fill="#501200" stroke-width="1"></path><path d="M105.32 134.94a1.21 0.9 0 1 0 2.42 0 1.21 0.9 0 1 0 -2.42 0" fill="#fccac2" stroke-width="1"></path><path d="M90.5 134.84a1.24 0.9 0 1 0 2.48 0 1.24 0.9 0 1 0 -2.48 0" fill="#fccac2" stroke-width="1"></path><path d="M142.494 75.17a1.2 1.02 -79 1 0 0.458 -2.356 1.2 1.02 -79 1 0 -0.458 2.356" fill="#501200" stroke-width="1"></path><path d="M132.34 72.219a1.2 1.02 -79 1 0 0.457 -2.356 1.2 1.02 -79 1 0 -0.458 2.356" fill="#501200" stroke-width="1"></path><path d="M148.38 79.5a0.46 0.46 0 0 1 -0.24 -0.86 8 8 0 0 1 1.16 -0.59 0.46 0.46 0 0 1 0.6 0.26 0.45 0.45 0 0 1 -0.26 0.6c-0.81 0.33 -0.99 0.59 -1.26 0.59Z" fill="#501200" stroke-width="1"></path><path d="M134.53 78.06c-1.25 0.39 -1 -0.85 -0.89 -1.18 0.93 -3.31 4 -7.87 4.1 -8.06 0.32 -0.49 1.11 0 0.77 0.51 0 0 -3.08 4.62 -4 7.79l2 -1c0.53 -0.26 1 0.57 0.42 0.83 0.07 -0.01 -2.31 1.11 -2.4 1.11Zm0.14 -0.49Z" fill="#501200" stroke-width="1"></path><path d="M134.81 82.83a3.48 3.48 0 0 1 -0.63 0c-2.23 -0.36 -2.66 -2.9 -2.67 -3a0.46 0.46 0 0 1 0.91 -0.14c0 0.08 0.35 2 1.91 2.23a2.39 2.39 0 0 0 2.5 -1.08 0.47 0.47 0 0 1 0.82 0.46 3.35 3.35 0 0 1 -2.84 1.53Z" fill="#501200" stroke-width="1"></path><path d="M145.13 70.77a1.66 1.66 0 0 0 -2.29 -0.81 0.46 0.46 0 0 1 -0.42 -0.82 2.54 2.54 0 0 1 3.53 1.2 0.46 0.46 0 0 1 -0.82 0.43Z" fill="#501200" stroke-width="1"></path><path d="M134.78 67.57a1.76 1.76 0 0 0 -2.21 -0.6 0.47 0.47 0 0 1 -0.42 -0.83 2.69 2.69 0 0 1 3.37 0.87 0.46 0.46 0 0 1 -0.74 0.56Z" fill="#501200" stroke-width="1"></path><path d="M141.32 79.21a1.4 0.99 0 1 0 2.8 0 1.4 0.99 0 1 0 -2.8 0" fill="#fccac2" stroke-width="1"></path><path d="M128.885 76.814a1.27 0.95 21.06 1 0 0.683 -1.773 1.27 0.95 21.06 1 0 -0.683 1.773" fill="#fccac2" stroke-width="1"></path><path d="M98.76 57.15a3.17 3.17 0 0 1 -2.86 -2 0.46 0.46 0 0 1 0.86 -0.35 2.32 2.32 0 0 0 1.93 1.41c1.35 0.05 2.07 -1.65 2.08 -1.67a0.46 0.46 0 0 1 0.86 0.35c-0.04 0.11 -0.94 2.26 -2.87 2.26Z" fill="#501200" stroke-width="1"></path><path d="M90.495 53.303a1.2 0.9 6.76 1 0 0.212 -1.788 1.2 0.9 6.76 1 0 -0.212 1.788" fill="#fccac2" stroke-width="1"></path><path d="M105.81 52.41a1.2 0.9 0 1 0 2.4 0 1.2 0.9 0 1 0 -2.4 0" fill="#fccac2" stroke-width="1"></path><path d="M107.31 40.3a5.79 5.79 0 0 0 -5.94 4.9 4.43 4.43 0 0 0 -1 -0.33c-0.28 -1.66 -0.59 -2.82 -0.62 -2.92a0.46 0.46 0 0 0 -0.89 0.26s0.3 1.07 0.57 2.59a5.3 5.3 0 0 0 -1.69 0.34 5.68 5.68 0 1 0 0 1 4.31 4.31 0 0 1 1.84 -0.41 22.93 22.93 0 0 1 0.24 5c0 0.09 -0.11 0.08 -0.17 0.06L98 50.51a0.46 0.46 0 0 0 -0.55 0.39 0.48 0.48 0 0 0 0.37 0.52 18.36 18.36 0 0 0 2.39 0.26c0.28 0 0.54 -0.12 0.58 -0.82a25.64 25.64 0 0 0 -0.23 -4.94 3 3 0 0 1 0.8 0.35 5.82 5.82 0 1 0 6 -6ZM91.82 50.43a4.71 4.71 0 1 1 5 -4.57 4.78 4.78 0 0 1 -5 4.57Zm15.19 0.26a4.72 4.72 0 1 1 5 -4.58 4.8 4.8 0 0 1 -5.01 4.58Z" fill="#501200" stroke-width="1"></path><path d="M194.53 174.23h-7.81c0.09 -2.14 0 -6.94 0 -9a1.14 1.14 0 0 0 -1.12 -1.12l-1.41 0 0 -6.3a1.15 1.15 0 0 0 -1.09 -1.13c-0.62 0 -1.4 0 -2.28 -0.07 0.09 -1.42 -0.05 -4.13 -0.88 -5.35a1.55 1.55 0 0 0 -2.25 -0.35 2.1 2.1 0 0 0 -2.83 -1.26 1.84 1.84 0 0 0 -2.14 -0.49c-2 -14 -8.42 -41.92 -26.66 -50.68a46.88 46.88 0 0 0 -6.91 -2.7 28.77 28.77 0 0 1 0.28 -4.87 0.56 0.56 0 0 1 0.36 -0.44 13.37 13.37 0 0 0 7.35 -8.25 0.56 0.56 0 0 1 0.56 -0.34c6.15 0.23 5 -3.81 4.61 -4.46a5.56 5.56 0 0 0 -3.43 -2 0.58 0.58 0 0 1 -0.45 -0.66c0.22 -1.45 0.63 -4.23 0.94 -6.53a0.46 0.46 0 0 0 -0.92 -0.12c-0.31 2.29 -0.73 5.06 -0.94 6.51a1.5 1.5 0 0 0 1.19 1.71 4.58 4.58 0 0 1 2.83 1.57c0.29 0.43 1.07 3.18 -3.76 3a1.5 1.5 0 0 0 -1.51 1 12.47 12.47 0 0 1 -6.83 7.7 1.49 1.49 0 0 0 -0.92 1.14 29.46 29.46 0 0 0 -0.29 4.77c0 0.39 0.18 1.39 -0.3 1.6a8.36 8.36 0 0 1 -7.71 -0.32 0.62 0.62 0 0 1 -0.27 -0.73c0.17 -0.51 1.31 -5.58 1.44 -6.35a11.1 11.1 0 0 0 2.62 0.77 0.46 0.46 0 0 0 0.16 -0.91c-7.28 -1.27 -8.18 -7.94 -6.72 -15.18 0 -0.19 2.25 -10.07 2.27 -10.16a0.47 0.47 0 0 0 -0.91 -0.21c-0.07 0.33 -2.24 10 -2.27 10.18 -1.15 5.74 -1.1 12.18 4 15.08a28 28 0 0 1 -1 5 27.39 27.39 0 0 0 -21.24 9.51c-2.46 -5.45 -9.39 -6.17 -14.17 1.25a6 6 0 0 0 -6.14 -1.51c-2.73 1 -3.13 3.33 -3.94 5.23 -1.31 3 -1.2 2.93 -3.36 4a10.76 10.76 0 0 0 -1.2 0.63 24.28 24.28 0 0 0 -4.4 -6.57c1.78 -9.15 1.43 -9.66 1.31 -9.83a0.5 0.5 0 0 0 -0.35 -0.21c-0.25 0 -0.72 -0.1 -6.73 6.08a15.26 15.26 0 0 0 -8.64 -0.8 19.42 19.42 0 0 1 -0.22 -5.13 9.71 9.71 0 0 0 6.13 -6.59 33.09 33.09 0 0 0 0.68 -6.74C73 75.79 81.82 68.47 91.39 69.26c-0.06 0.28 -0.13 0.56 -0.2 0.84a1.53 1.53 0 0 0 0.53 1.47c3.65 3.45 8.81 1.62 10.71 0a1.7 1.7 0 0 0 0.62 -1.57c0 -0.23 -0.07 -0.52 -0.11 -0.84A21.8 21.8 0 0 1 119.78 76a22.93 22.93 0 0 1 4.75 7.26 0.47 0.47 0 0 0 0.88 -0.32 23.68 23.68 0 0 0 -4.92 -7.56 23 23 0 0 0 -17.65 -7.08c-0.1 -1.15 -0.08 -4.28 -0.09 -4.32 4.72 -1.71 7.12 -6.74 7.8 -11.4 0.76 -5.24 0.18 -9 0 -15.16a7.32 7.32 0 0 0 4.23 -5.67 11.93 11.93 0 0 0 -5 -10.3c-4 -2.73 -8.26 0.15 -11.91 -0.07s-4.61 -1.26 -8.82 0 -5.68 6.27 -6.57 8.19 -5 5.46 -5.31 9.53c-0.26 3.69 2.53 7 3.07 7.55 -1.19 3.08 0.74 4 1.46 4.41 0.32 1.66 1.43 5.51 4.8 6.73 0.68 1.67 2.39 5.1 5.4 6.47a26.35 26.35 0 0 1 -0.35 4.12c-9.55 -0.87 -18.5 6 -24.32 13.62l0 -4.12a24.29 24.29 0 0 0 -0.72 -13.14 19.18 19.18 0 0 1 -2.87 3s1.88 2.08 2.68 9c-0.14 4.6 0.16 9.55 -0.74 13.37a8.45 8.45 0 0 1 -9.29 6.31 0.47 0.47 0 0 0 -0.13 0.92 20 20 0 0 0 3.25 -0.14 19.81 19.81 0 0 0 0.32 5.35 5.73 5.73 0 0 1 -10.16 0.22 32.54 32.54 0 0 0 1.14 -6.83 0.46 0.46 0 0 0 -0.26 -0.46 9.53 9.53 0 0 1 -3.55 -3.64 19.27 19.27 0 0 1 -1.63 -6.45s-4.58 -1.25 -3.94 -4.43c0.45 -2.24 3.72 -1.58 5.38 -1.33a1 1 0 0 0 1.18 -1c0 -2.06 0 -6.35 0.77 -7.16C50 70 60.88 70.11 64.82 65.68c3 -3.33 2.37 -7.86 1.89 -9.9a0.75 0.75 0 0 0 -1.15 -0.45 14.5 14.5 0 0 1 -5.28 2.23c-3.54 0.67 -15.34 1.26 -18.88 7.38 -2.4 4.21 -2.95 10.61 -0.8 14.86a5.09 5.09 0 0 0 0.52 4.3c0.2 2.25 1.1 6.77 5.07 8.27a10.65 10.65 0 0 0 3.61 3.76 38.27 38.27 0 0 1 -1 6.18c-11.87 -4.18 -22.38 6.6 -25.37 24.25 -2.85 16.79 -0.34 38.73 0 41.29a2 2 0 0 0 -2.47 1.5 1.53 1.53 0 0 0 -2.22 0.48c-0.87 1.47 -0.62 4.26 -0.6 4.4H5.47a0.47 0.47 0 1 0 0 0.93h12.72a8.77 8.77 0 0 0 1.08 3.32 1.3 1.3 0 0 0 2.22 0.19c0.05 0.11 1.52 2.28 2.62 0.21 0 0.11 1.14 1.74 2.18 0.23 0 0 1.07 1.06 1.79 -0.68a12.53 12.53 0 0 0 0.65 -3.22c0.06 0 2.38 -0.05 2.38 -0.05 0.6 3.35 2.46 2.88 2.93 2.35a3.58 3.58 0 0 0 0.61 -2.35h1c-0.43 -37.32 0.37 -45 0.38 -45.14a0.46 0.46 0 0 1 0.92 0.1c0 0.08 -0.8 7.8 -0.37 45h158a0.47 0.47 0 1 0 0 -0.93ZM87.67 58.05a22.63 22.63 0 0 1 -1.75 -6.34 1.09 1.09 0 0 0 -1.13 -1c-5.15 0.09 -3.85 -3.67 -3.46 -4.14 1.64 -1.73 4.21 -0.71 4.85 -1.24s1.26 -6.41 4.91 -7c2.72 -0.47 5.13 1.21 7.67 0.87s3.76 -1.69 5.9 -2.06 3.54 0.55 5 0.51c0.1 0 0 -0.34 0.22 4.52 0.28 5.8 0.52 12.22 -2.7 17.09a9.1 9.1 0 0 1 -7.33 4.34 0.47 0.47 0 0 0 0 0.93 10.53 10.53 0 0 0 2 -0.3 30.05 30.05 0 0 0 0.3 6 0.68 0.68 0 0 1 -0.26 0.67c-4.69 3.55 -8.23 1.21 -9.53 0a0.6 0.6 0 0 1 -0.24 -0.55 26.35 26.35 0 0 0 0.74 -6.43 0.47 0.47 0 0 0 -0.29 -0.42c-2.52 -1.02 -4.12 -3.73 -4.9 -5.45ZM20.05 178a10.53 10.53 0 0 1 -0.6 -7.62 0.65 0.65 0 0 1 1.18 -0.05 15.92 15.92 0 0 0 0.34 6.86c0.34 1.39 -0.75 1.04 -0.92 0.81Zm2.92 0.94c-0.2 0 -0.57 -0.3 -0.9 -1.29a13.42 13.42 0 0 1 -0.48 -7.37s0.64 -2 1.7 -1.43a18.66 18.66 0 0 0 0.3 8.77c0 0.17 0.04 1.15 -0.59 1.28Zm2.79 -1.36c0 0.36 -0.17 1.23 -0.54 1.23 0 0 -0.25 -0.13 -0.51 -0.76s-1.62 -5.44 -0.49 -9.12a1.31 1.31 0 0 1 2.11 -0.25s-1 2.06 -0.57 8.86Zm7.58 -0.65c-0.12 0.14 -0.73 0.55 -1.21 -1.26a2.76 2.76 0 0 0 -0.66 -1.4 8.91 8.91 0 0 0 -2.61 0c0.05 -0.31 0.27 -1.14 0.07 -1.3a0.47 0.47 0 0 0 -0.65 0.08c-0.68 0.86 -0.41 5.74 -1.29 5.5 -0.44 0 -1 -4 0 -9.05 0.06 -0.27 0.22 -0.89 0.71 -0.89 1.1 0 2 1.31 2.57 2.18 0.42 0.63 0.67 1 1.06 1.06a3.21 3.21 0 0 1 2.32 2.43 5.27 5.27 0 0 1 -0.31 2.61Zm145.84 -25.16c1.21 1.67 0.78 8.39 -0.34 9 -0.16 0.1 -0.64 -0.26 -0.72 -1.18a45.56 45.56 0 0 0 -0.13 -7.81 0.81 0.81 0 0 1 1.19 -0.05Zm-2.7 -1.12c0.22 0.23 1.33 2.18 0.67 9.07 -0.17 1.76 -1.48 1.87 -1.4 0.72 0.17 -2.46 0.31 -7.67 -0.49 -10a0.93 0.93 0 0 1 1.22 0.17Zm-2.41 -0.53a17.88 17.88 0 0 1 1 6.24c0 2.89 -0.31 4.17 -0.59 4.72a0.38 0.38 0 0 1 -0.7 -0.06 24.18 24.18 0 0 1 -0.36 -4.52 16.39 16.39 0 0 0 -1.21 -6 1.33 1.33 0 0 1 1.86 -0.42Zm-7 3.76c0.53 0 0.95 -0.48 1.29 -1.16 1.41 -2.8 2.89 -2.11 3.15 -1.53a17.07 17.07 0 0 1 1 5.31c0 0.07 0.31 4.87 -0.26 4.79 -0.58 0.08 -1.08 -3.83 -1.26 -4.79a3.62 3.62 0 0 0 -0.5 -1.62 0.47 0.47 0 0 0 -0.78 0.1c-0.1 0.21 0 0.36 0.09 0.55a2.74 2.74 0 0 1 0.17 0.64c-0.74 0 -3.3 0 -3.36 0.6 -0.29 2.78 -1.58 3.79 -1.86 0.68 -0.01 -0.25 -0.29 -3.59 2.36 -3.61Zm-16.59 -23.45c4.43 5.39 9.1 23.84 9.66 26.13l-9.67 0.09c-0.97 -9.65 0.05 -26.26 0.05 -26.26Zm-1.25 27.37a0.22 0.22 0 0 1 0.22 -0.2c2 0 7.94 -0.1 14.33 -0.14 0.2 2.7 1.42 2.86 1.88 2.83 1.55 -0.07 1.27 -2.66 1.75 -3.08a8.67 8.67 0 0 1 2.72 -0.09c0 0.09 0.5 5.17 2.11 5.17a0.77 0.77 0 0 0 0.77 -0.51 1.26 1.26 0 0 0 2.1 -0.28 1.71 1.71 0 0 0 0.9 0.69c0.92 0.25 1.62 -0.9 1.67 -1a1.22 1.22 0 0 0 2.13 -0.16 9.11 9.11 0 0 0 0.88 -3.45s1.69 0 2.31 0a0.21 0.21 0 0 1 0.21 0.21l0 6.27c-0.14 0 -29.93 -0.08 -34 0 0.04 -0.91 -0.07 -3.48 0.06 -6.3Zm-4.56 7.46a0.22 0.22 0 0 1 0.22 -0.22c3.64 -0.07 40.06 0 40.64 0a0.21 0.21 0 0 1 0.21 0.21l0 1.28 -41.09 0Zm-66.9 -48.32c0.89 -3.22 5 -4.06 5.74 -5 1.39 -1.78 1.11 -6.29 4.73 -7.59 3.12 -1.12 5.46 1.58 5.55 1.69a0.48 0.48 0 0 0 0.77 -0.07s2.67 -4.46 6.34 -5.36c4.69 -1.16 6.89 4.46 7 4.71a13.74 13.74 0 0 0 4 4.64c1.77 0.78 5.07 2.24 5.6 5.27a10 10 0 0 1 0.06 4.08c-0.82 3.69 2.14 6.3 1.62 9.88 -0.25 1.8 -1.35 2.61 -2.51 3.47a9.26 9.26 0 0 0 -2.68 3c-1 1.72 -2.1 3.66 -4.7 3.5 1 -4.49 1 -11.78 1 -14.93a1.55 1.55 0 0 0 -1.45 -1.52 11.48 11.48 0 0 1 -4.67 -1.23c-2.39 -1.34 -3.58 -8.32 -9.18 -7.8a0.45 0.45 0 0 0 -0.42 0.43s-0.21 3.29 -1.27 4.9c-1.88 2.86 -5.4 1.18 -7.16 4.5a2 2 0 0 0 -0.23 1c0.09 2.51 0.51 11 1.12 13.5 -2.1 0 -5.7 -0.43 -7 -2.09 -2.17 -2.79 -0.23 -5.86 -0.35 -8.55s-3.32 -5.25 -1.91 -10.43Zm20.92 31.71a9.38 9.38 0 0 0 4.18 -0.7 19.05 19.05 0 0 0 0.26 5 0.52 0.52 0 0 1 -0.22 0.55c-4.5 3 -7.91 0.74 -9.17 -0.39a0.53 0.53 0 0 1 -0.15 -0.58 18.21 18.21 0 0 0 0.65 -4.67 0.47 0.47 0 0 0 -0.27 -0.43c-2.12 -1 -5 -4.05 -6 -9.62a123.9 123.9 0 0 1 -1.1 -13.33 1.18 1.18 0 0 1 0.12 -0.53c2 -3.75 7.58 0.28 8.5 -9.36 4.72 0 5.52 6.19 8.26 7.71a12.29 12.29 0 0 0 5.07 1.35 0.61 0.61 0 0 1 0.57 0.6c0 2.68 0 11.76 -1.32 16 -0.75 2.36 -3.16 7.82 -9.33 7.53a0.47 0.47 0 0 0 -0.05 0.87ZM87 149.3c-0.63 -0.58 -2.3 -0.37 -2.92 -0.26a3.24 3.24 0 0 1 0.11 -0.45 0.46 0.46 0 0 0 -0.68 -0.62 10.39 10.39 0 0 0 -0.56 2.4c-0.14 1.06 -0.49 3.83 -1 4.12 -0.34 -0.4 -0.64 -2.28 -0.66 -4.37 0 -1.52 0.31 -5.81 1.59 -5.81 2 0 3.11 2.6 4 2.65 0.09 0 1.83 0.06 2.17 1.5a2.84 2.84 0 0 1 -1 2.72c-0.16 0.13 -0.58 0.4 -0.91 0.22 -0.1 -0.05 0 -0.51 0 -0.76s0.25 -1.03 -0.14 -1.34Zm-6.38 4.23c0.06 1.61 -1.16 0.95 -1.51 -0.28a19.49 19.49 0 0 1 -0.06 -8.89c0.21 -0.73 2.27 -0.26 2.09 0.32a20.89 20.89 0 0 0 -0.48 8.85Zm-4.2 -8.53a1.44 1.44 0 0 1 1.48 -0.31c-0.68 2.22 -0.3 6.58 0.39 8.89 -0.11 1.38 -1.29 1.28 -1.58 0.7 -1.12 -2.2 -1.6 -8.03 -0.29 -9.28Zm-1 8.48c0.12 0.32 -0.29 1.81 -1.34 0.49s-2.21 -9.56 0.88 -7.91a12.51 12.51 0 0 0 -0.21 3.2c0 0.81 0.64 4.22 0.64 4.24Zm-4.28 -30c-0.07 -0.56 0.85 -0.7 0.92 -0.13a179.88 179.88 0 0 1 2 20.5c0 0.6 -0.91 0.56 -0.93 0a178.39 178.39 0 0 0 -2.02 -20.33ZM75.53 98c-0.12 1.38 -0.67 4.67 -1.3 8a16.35 16.35 0 0 0 -4.06 -2.78c2.14 -2.22 4.34 -4.36 5.36 -5.22Zm22.09 69c-1.45 0.24 -3.45 0.6 -5.56 1 -0.12 -0.83 -0.29 -1.62 -0.45 -2.29 1.23 0.13 3.94 0.43 6 0.81Zm-0.06 0.95a48.89 48.89 0 0 0 0 6.26H80.45c0 -0.79 0.11 -2.46 1.16 -2.86 2.33 -0.89 11.64 -2.64 15.95 -3.35Zm46.22 -2.75v9H98.55a53.12 53.12 0 0 1 0.12 -8.71c6.18 -0.22 28.56 -2 28.79 -2.06a0.46 0.46 0 0 0 -0.07 -0.92c-0.24 0 -23.66 1.92 -29.15 2.06a0.46 0.46 0 0 0 -0.45 0.42s0 0.25 -0.06 0.6c-2.35 -0.42 -5.4 -0.74 -6.38 -0.84 -0.16 -0.57 -0.29 -0.94 -0.3 -1a0.47 0.47 0 0 0 -0.47 -0.31c-11.57 0.72 -30.46 0 -30.65 0a0.48 0.48 0 0 0 -0.48 0.45 0.46 0.46 0 0 0 0.45 0.48c0.19 0 18.73 0.72 30.38 0a25.46 25.46 0 0 1 0.87 3.75 85.32 85.32 0 0 0 -9.88 2.3c-1.59 0.61 -1.76 2.74 -1.75 3.73H46.69c4.37 -12.39 16 -18.69 25.77 -21.86 1.24 4.37 3.23 2.74 3.46 2.42 1.85 1.92 2.61 0.52 2.87 0.07 1.43 1.32 2.14 0.45 2.38 0.09 0 0 2.19 2.42 2.8 -4.94 0 0 0 -0.31 2.32 -0.15a1.83 1.83 0 0 1 0 0.64c-0.41 2.37 1.73 1.92 2.38 1.42a3.75 3.75 0 0 0 1.33 -3.59 3.09 3.09 0 0 0 -2.94 -2.25c-0.25 -1.61 -0.64 -3.94 -1.25 -7.19 0.61 0.05 1.12 0.06 1.44 0.06 1 4.29 3.32 7.81 6 9.21a16.17 16.17 0 0 1 -0.59 4.07 1.47 1.47 0 0 0 0.41 1.58c3.71 3.44 8.47 1.71 10.31 0.47a1.46 1.46 0 0 0 0.61 -1.51 16.62 16.62 0 0 1 -0.29 -2.93c20.5 -1.87 38.57 12.88 40.49 14.51a1.12 1.12 0 0 0 -0.41 0.95Zm42 9h-41.07v-1.45c2.1 0 39.35 0.06 41.11 0 -0.01 0.6 -0.02 1.09 -0.03 1.48Zm0 -2.36c-5.25 0.13 -38.35 0 -41.12 0v-4.44l41.1 0c0.06 1.38 0.08 3.03 0.07 4.47Z" fill="#501200" stroke-width="1"></path><path d="M158.08 177.15a0.47 0.47 0 0 1 -0.46 -0.46v-7.18a0.47 0.47 0 1 1 0.93 0v7.18a0.47 0.47 0 0 1 -0.47 0.46Z" fill="#ff7449" stroke-width="1"></path><path d="M91.1 45.85a1.13 1.46 0 1 0 2.26 0 1.13 1.46 0 1 0 -2.26 0" fill="#501200" stroke-width="1"></path><path d="M104.6 46.03a1.13 1.46 0 1 0 2.26 0 1.13 1.46 0 1 0 -2.26 0" fill="#501200" stroke-width="1"></path><path d="M84.13 48.8a0.44 0.44 0 0 1 -0.32 -0.13 2.71 2.71 0 0 0 -1 -0.54 0.46 0.46 0 0 1 0.26 -0.89 3.36 3.36 0 0 1 1.33 0.76 0.47 0.47 0 0 1 -0.27 0.8Z" fill="#501200" stroke-width="1"></path><path d="M53.87 56.68a6 6 0 0 0 -1 -1.88c-0.41 -1 -5.24 -12.32 -5.91 -13.63 -1.07 -2.08 -2.15 -2.26 -2.87 -2 -1.31 0.41 -1.08 2.22 -0.71 3.11s2.68 5.86 3.13 7.17a12.72 12.72 0 0 1 -1.24 0.59c-0.33 -0.68 -1.68 -3.81 -2.65 -5.79 -1.09 -2.25 -2.17 -3.25 -3.2 -2.79 -1.28 0.53 -1.41 2.09 -0.36 4.63a59.69 59.69 0 0 0 3 5.6 1.45 1.45 0 0 0 -1.45 0.94c-1.33 0 -2.21 0.89 -1.82 2.71 0.54 2.5 3.4 6.43 4.78 6.57s1.29 -1 1.29 -1.4c2.35 0.63 1.64 -2.37 1.38 -3.06 0.12 0 3.09 -1 3.44 0.79 0.12 0.58 1.07 0.3 0.89 -0.28 -0.68 -2.17 -2.76 -1.79 -4.13 -1.5s-1.5 -0.24 -1.34 -0.53c0.51 -0.92 2 -1.89 4.25 -2s3.62 3 3.64 3a0.47 0.47 0 0 0 0.88 -0.25ZM43.65 61c-0.65 -0.06 -3.41 -3.29 -4 -5.84 -0.1 -0.43 -0.32 -1.74 0.83 -1.58a14.55 14.55 0 0 0 3.29 6.15c0.57 1.27 0.03 1.27 -0.12 1.27Zm5.66 -8c-5.16 0.22 -6.75 4.51 -4.05 4.54 0.85 1.88 -0.06 2.12 -0.29 2a13.15 13.15 0 0 1 -3.53 -6c0 -0.35 0.27 -1.36 1.2 -0.79l0.79 1.25a0.47 0.47 0 0 0 0.8 -0.48c0 -0.06 -3.41 -5.59 -4.31 -7.79 -0.46 -1.11 -1.08 -3 -0.14 -3.42 0.35 -0.15 1.07 0.38 2 2.3 0.68 1.41 1.33 2.88 1.86 4.07 1 2.36 1 2.36 1.43 2.33a8.55 8.55 0 0 0 2.25 -1c0.38 -0.31 0.41 -0.34 -2.21 -6.13 -0.4 -0.9 -0.76 -1.68 -0.88 -2 -0.26 -0.63 -0.41 -1.66 0.13 -1.86 0.7 -0.27 1.41 0.89 1.76 1.57 0.52 1 3.68 8.4 5.15 11.85a3.9 3.9 0 0 0 -1.96 -0.44Z" fill="#501200" stroke-width="1"></path><path d="m72.12 90.18 1.26 -2.34a0.47 0.47 0 0 1 0.82 0.45l-1.27 2.33a0.46 0.46 0 0 1 -0.81 -0.44Z" fill="#501200" stroke-width="1"></path><path d="m82.92 80.32 -1.4 -2.25a0.47 0.47 0 0 1 0.79 -0.5l1.4 2.26a0.47 0.47 0 0 1 -0.79 0.49Z" fill="#501200" stroke-width="1"></path><path d="m92.66 91.4 1.26 -2.34a0.47 0.47 0 0 1 0.82 0.44l-1.26 2.34a0.47 0.47 0 0 1 -0.82 -0.44Z" fill="#501200" stroke-width="1"></path><path d="m81 99.83 1.6 2.12a0.46 0.46 0 0 1 -0.74 0.56l-1.6 -2.12a0.46 0.46 0 0 1 0.74 -0.56Z" fill="#501200" stroke-width="1"></path><path d="m106.91 95.31 -0.32 -2.63a0.46 0.46 0 0 1 0.92 -0.12l0.32 2.64a0.46 0.46 0 0 1 -0.92 0.11Z" fill="#501200" stroke-width="1"></path><path d="m108.45 79.56 -1.19 -2.37a0.46 0.46 0 0 1 0.83 -0.41l1.2 2.37a0.47 0.47 0 0 1 -0.84 0.41Z" fill="#501200" stroke-width="1"></path><path d="m116.93 87.36 2.61 0.49a0.47 0.47 0 0 1 -0.18 0.92l-2.6 -0.49a0.47 0.47 0 0 1 0.17 -0.92Z" fill="#501200" stroke-width="1"></path><path d="M58 83.86a15.68 15.68 0 0 0 1.87 -2.15c-1.06 -0.11 -2.44 0.18 -2.75 -0.55a35.67 35.67 0 0 1 -0.25 -5.16 0.47 0.47 0 1 1 0.93 0c0 2 0.05 4.14 0.14 4.74 0.85 0.17 2.91 -0.29 2.93 0.78 0 0.66 -1.21 2 -2.25 3a0.46 0.46 0 0 1 -0.62 -0.66Z" fill="#501200" stroke-width="1"></path><path d="M51 77a0.46 0.46 0 0 1 -0.35 -0.76 2.64 2.64 0 0 1 3.63 -0.33 0.47 0.47 0 0 1 -0.53 0.77 1.71 1.71 0 0 0 -2.39 0.16 0.45 0.45 0 0 1 -0.36 0.16Z" fill="#501200" stroke-width="1"></path><path d="M63.66 76.6a0.45 0.45 0 0 1 -0.32 -0.13 1.59 1.59 0 0 0 -2.25 0 0.47 0.47 0 0 1 -0.66 0 0.46 0.46 0 0 1 0 -0.66 2.48 2.48 0 0 1 3.54 0 0.47 0.47 0 0 1 -0.31 0.79Z" fill="#501200" stroke-width="1"></path><path d="M44.54 82.73c-0.33 -0.26 -1.11 -0.74 -1.11 -0.74a0.47 0.47 0 1 1 0.48 -0.8s0.83 0.52 1.21 0.81a0.47 0.47 0 0 1 -0.58 0.73Z" fill="#501200" stroke-width="1"></path><path d="M57.46 91.25c-1.92 0 -3.06 -1.52 -3.45 -3.39a0.75 0.75 0 0 1 0.8 -0.9 31.65 31.65 0 0 0 5.19 -0.08 0.76 0.76 0 0 1 0.83 0.92c-0.73 3.06 -2.5 3.45 -3.37 3.45ZM55 87.9c0.22 0.84 0.82 2.34 2.39 2.42s2.22 -1.56 2.46 -2.49a31.24 31.24 0 0 1 -4.85 0.07Z" fill="#501200" stroke-width="1"></path><path d="M51.14 79.68a0.98 1.26 0 1 0 1.96 0 0.98 1.26 0 1 0 -1.96 0" fill="#501200" stroke-width="1"></path><path d="M61.45 79.57a0.98 1.26 0 1 0 1.96 0 0.98 1.26 0 1 0 -1.96 0" fill="#501200" stroke-width="1"></path><path d="M50.57 84.18a1.2 0.9 6.76 1 0 0.212 -1.787 1.2 0.9 6.76 1 0 -0.211 1.787" fill="#fccac2" stroke-width="1"></path><path d="M63.038 83.81a1.2 0.9 -3.69 1 0 2.395 -0.155 1.2 0.9 -3.69 1 0 -2.395 0.154" fill="#fccac2" stroke-width="1"></path><path d="M53.1 106.53a7.21 7.21 0 0 1 -4.44 -3.47 0.3 0.3 0 0 0 -0.2 -0.15 12.74 12.74 0 0 0 -2.73 -0.21 0.3 0.3 0 0 0 -0.29 0.32c0.29 5.82 1 8.69 1.37 9.78a0.31 0.31 0 0 0 0.53 0.09 36.83 36.83 0 0 1 5.89 -5.83 0.3 0.3 0 0 0 -0.13 -0.53Z" fill="#f9f5e5" stroke-width="1"></path><path d="M62.6 103a0.44 0.44 0 0 0 -0.44 -0.44 9 9 0 0 0 -1.27 0.15 0.43 0.43 0 0 0 -0.34 0.3c-0.72 1.94 -3 3.21 -4.18 3.61a0.43 0.43 0 0 0 -0.19 0.7c1.75 2 4.13 4.59 5.21 5.74a0.45 0.45 0 0 0 0.76 -0.23 78 78 0 0 0 0.45 -9.83Z" fill="#f9f5e5" stroke-width="1"></path></g></svg>