<svg xmlns="http://www.w3.org/2000/svg" fill="none" viewBox="0 0 200 200"><g id="collaboration--work-collaboration"><g id="panel"><path id="vector" fill="#f9f5e5" d="M149.669 59.85S61.1 57.257 59.556 57.037C59.1 58.136 45.1 168.031 44.542 170.076c1.224 0.451 83.379 2.936 90.769 2.557 1.198 -7.498 14.358 -112.783 14.358 -112.783Z" stroke-width="1"></path><path id="vector_2" fill="#501200" d="M149.945 60.36c0.062 -0.562 0.182 -0.832 -0.377 -0.848 -2.308 -0.068 -83.3 -2.269 -89.972 -2.585a0.483 0.483 0 0 0 -0.5 0.409c-1.176 7.618 -14.049 110.65 -14.631 112.783 1.421 0.523 88.386 3.035 90.026 2.928 1.483 -0.1 1.166 -0.968 1.166 -0.968 0.943 -5.256 14.121 -110.218 14.288 -111.719Zm-15.223 111.751c-6.466 0.157 -86.04 -2.28 -89.35 -2.572 1.037 -6.269 13.972 -106.633 14.443 -111.96 5.987 0.283 82.808 2.772 89.408 2.56 -1.565 15.315 -14.603 111.972 -14.501 111.972Z" stroke-width="1"></path><path id="vector_3" fill="#ffb949" d="M138.726 53.1a8.136 8.136 0 0 1 -5.7 -5.634c1.669 -0.858 2.569 -3.168 2.687 -4.9 0.392 -5.759 -5.215 -3.417 -3.394 4.549 -2.425 0.808 -4.719 -1.226 -5.963 -3.465 2.416 -1.438 2.923 -4.164 2.923 -7 0 -6.455 -7.6 -0.732 -3.7 6.765A3.289 3.289 0 0 1 121.5 42c-1.126 -1.648 -1.022 -3.651 -0.8 -5.515 0.045 -0.377 -0.541 -0.377 -0.589 0 -0.794 6.305 2.806 8.739 5.727 7.448 3.379 5.792 6.671 3.449 6.671 3.842a8.587 8.587 0 0 0 6.033 5.892c0.396 0.094 0.558 -0.473 0.184 -0.567Zm-10.017 -16.121c-0.054 2.36 -0.536 5.018 -2.593 6.175 -3.3 -6.601 2.728 -12.141 2.593 -6.175Zm5.185 3.276c1.724 -1.323 2.01 4.718 -0.99 6.647 -0.525 -1.927 -0.711 -5.34 0.99 -6.647Z" stroke-width="1"></path></g><g id="chalk"><path id="vector_4" fill="#fccac2" d="M104.833 129.207c-0.044 -0.1 -4.87 -8.932 -5.35 -9.216 -0.282 -0.167 -0.59 0.024 -0.849 0.141 -0.966 0.44 -1.28 0.691 -0.843 1.817 0.108 0.28 4.61 9.548 5.251 8.908 1.258 -0.945 2.224 -0.657 1.791 -1.65Z" stroke-width="1"></path><path id="vector_5" fill="#fccac2" d="M88.216 122.159c-0.121 0.353 0.444 0.517 0.566 0.165 1.069 -3.077 2.39 -6.08 3.653 -9.074 0.148 -0.351 -0.377 -0.66 -0.518 -0.306 0.1 0 -1.517 2.875 -3.701 9.215Z" stroke-width="1"></path><path id="vector_6" fill="#fccac2" d="M90.385 127.415c-0.141 0.354 0.428 0.5 0.565 0.165 1.431 -3.448 2.685 -6.962 3.96 -10.441 0.139 -0.378 -0.448 -0.518 -0.566 -0.165 0.113 0 -3.777 9.985 -3.959 10.441Z" stroke-width="1"></path><path id="vector_7" fill="#fccac2" d="M94.085 129.419c-0.067 0.378 0.5 0.519 0.566 0.165a136.205 136.205 0 0 1 2.192 -9.829c0.1 -0.376 -0.472 -0.542 -0.566 -0.165 0.101 0 -0.998 3.155 -2.192 9.829Z" stroke-width="1"></path></g><g id="person 2"><g id="group"><path id="vector_8" fill="#ffb949" d="M68.182 172.952a22.047 22.047 0 0 0 -4.227 -1.743 38.916 38.916 0 0 0 -5.349 1.938c-0.589 1.177 -1.268 2.422 0.478 2.515 3.147 0.168 9.019 -1.671 9.122 -1.72a0.576 0.576 0 0 0 -0.024 -0.99Z" stroke-width="1"></path><path id="vector_9" fill="#ffb949" d="M101.25 172.645c-0.824 -0.639 -4.238 -2.941 -5.02 -2.9 -0.448 0.025 -0.7 0.382 -1.013 0.66 -0.1 0.092 -4.822 3.168 -2.334 2.994 2.862 -0.2 5.638 1.984 7.92 2.027 1.285 0.024 2.466 -1.215 0.447 -2.781Z" stroke-width="1"></path></g><path id="vector_10" fill="#f9f5e5" d="M105.681 134.086c-0.576 -1.935 -3.334 -2.349 -4.949 0.636a48.138 48.138 0 0 1 -5.539 8.839 13.174 13.174 0 0 0 -7.165 -3.229c-6.437 -0.836 -8.289 3.02 -11.361 1.484 -0.26 -1.171 -5.432 -1.039 -7.872 2.64 -1.423 2.147 -2.506 7.616 -3.017 10.182 -1 5 -0.827 4.22 1.037 6.317 1.409 1.584 2.615 3.325 4.5 4.431 4.841 2.837 14.852 2.388 18.785 -0.306 2.905 -1.991 0.276 -3.2 -0.613 -13.27 0 -0.283 -0.106 -0.224 0.142 -0.141 1.5 0.662 5.553 0.121 7.07 -0.307 5.311 -1.5 6.094 -6.359 8.25 -12.916 0.451 -1.354 1.151 -2.963 0.732 -4.36Z" stroke-width="1"></path><path id="vector_11" fill="#fccac2" d="M85.388 131.469c-0.871 0.52 -8.33 4.8 -10.017 6.27 -0.6 0.521 0.225 1.48 0.9 0.9 0.411 -0.358 0.5 -0.442 0.467 -0.335 -0.045 0.164 -0.559 2.059 -0.208 2.5 0.718 0.908 3.018 1.112 4.03 0.636a3.099 3.099 0 0 0 1.509 -2.074c1.518 0.854 3.981 0.025 4.172 -4.124 0.048 -1.061 0.047 -2.169 0.07 -3.253a0.589 0.589 0 0 0 -0.923 -0.52Z" stroke-width="1"></path><path id="vector_12" fill="#fccac2" d="M105.729 127.6c-0.239 -0.417 -0.587 -0.841 -0.825 -0.424 -0.024 0.047 -0.047 0.118 -0.071 0.165 -0.323 -0.377 -0.685 -0.913 -1.32 -0.754 -0.148 -3.256 -0.11 -3.151 -0.212 -3.253a0.299 0.299 0 0 0 -0.418 -0.304 0.299 0.299 0 0 0 -0.148 0.139 36.08 36.08 0 0 0 -0.825 4.337c-1.3 -0.869 -1.577 1.539 -1.037 2.852 0.319 0.773 1.032 0.94 1.273 1.343 0.206 0.345 0.108 0.565 0.849 0.637a8.44 8.44 0 0 1 2.474 0.542c0.804 0.329 2.758 -6.88 0.26 -5.28Z" stroke-width="1"></path><path id="vector_13" fill="#ff7449" d="M71.5 165.553c3.267 1.771 13.39 3.294 18.527 -1.982a30.374 30.374 0 0 1 4.125 -4.9c2.189 -2.024 6.9 -4.5 8.721 -2.334 1.764 2.1 -0.828 8.924 -5.138 12.916 -5.363 4.967 -14.858 8.065 -22.368 6.623 -5.715 -1.1 -14.91 -5.5 -18.125 -11.9 -2.623 -5.227 -0.512 -9.861 4.737 -7.425 5.491 2.543 7.83 8.083 9.521 9.002Z" stroke-width="1"></path><g id="group_2"><path id="vector_14" fill="#501200" d="M106.954 127.463a0.98 0.98 0 0 0 -1.273 -0.33c-0.137 -0.367 -0.521 -0.694 -0.872 -0.519a0.897 0.897 0 0 0 -1.155 -0.5c0 -1.908 0.45 -3.762 -0.612 -3.653 -1.009 0.1 -1.4 3.629 -1.462 4.572a1.256 1.256 0 0 0 -1.3 0.613 3.651 3.651 0 0 0 -0.071 1.956 2.112 2.112 0 0 0 0.589 1.627c0.483 0.394 0.96 0.538 1.121 0.754a0.9 0.9 0 0 1 0.006 0.4c-1.213 0.686 -1.259 3.271 -7.042 10.892a10.314 10.314 0 0 0 -6.011 -3.347 27.085 27.085 0 0 0 -6.614 0.51c0.07 -0.156 0.123 -0.319 0.156 -0.487 2.2 0.964 4.965 -1.121 4.149 -7.306 -0.053 -0.4 -0.683 -0.4 -0.637 0 0.087 0.814 0.127 1.632 0.118 2.451 0 3.848 -2 4.918 -3.371 4.243a0.285 0.285 0 0 0 -0.141 -0.024c0.024 -0.141 0.027 -0.306 0.047 -0.448 0.057 -0.4 -0.562 -0.588 -0.613 -0.189a2.987 2.987 0 0 1 -0.66 2.051 4.507 4.507 0 0 1 -4.384 0.33c-0.474 -0.364 -0.294 -0.967 -0.141 -2.31 0.046 -0.4 -0.588 -0.4 -0.636 0A7.427 7.427 0 0 0 76 140.68c-3.021 -0.585 -6.8 1.307 -8.88 7.147a39.421 39.421 0 0 0 -2.02 9.973c-9.953 -7.611 -13.479 5 -1.415 13.1 -1.249 0.4 -2.473 0.8 -3.724 1.226 -2.514 0.846 -2.538 2.7 -1.626 3.37 1.906 1.395 10.416 -1.24 10.536 -1.72 13.26 6.068 22.089 -0.425 23.428 -0.425 6.18 1.851 10.239 3.215 10.606 1.014 0.16 -0.957 -1.145 -1.836 -2.05 -2.545 -3.045 -2.387 -3.629 -1.764 -2.994 -2.24 5.69 -5.093 9.177 -15.682 2.145 -14.424 -3.47 0.621 -6.464 3.379 -8.579 6.2 -0.519 -3.088 -0.99 -6.2 -1.414 -9.31 7.605 1.124 10.9 -1.576 13.434 -7.778 1.251 -3.064 2.492 -6.293 2.617 -9.64a3.81 3.81 0 0 0 -0.087 -1.19c0.934 -1.597 1.863 -4.662 0.977 -5.975Zm-6.081 2.851a14.138 14.138 0 0 1 -0.165 -1.767c-0.059 -0.731 0.31 -1.014 0.731 -0.967 0.133 0 0.094 -0.007 0.094 0.613 0.013 0.068 0.05 0.13 0.104 0.174a0.295 0.295 0 0 0 0.381 0 0.297 0.297 0 0 0 0.104 -0.174c-0.005 -0.892 0.066 -1.783 0.213 -2.663 0.058 -0.337 0.512 -2.431 0.754 -2.475 0.1 -0.019 -0.018 1.028 -0.071 5.35 0.013 0.068 0.05 0.13 0.104 0.174a0.295 0.295 0 0 0 0.381 0 0.297 0.297 0 0 0 0.104 -0.174c0 -0.457 0.019 -0.9 0.023 -1.35 0 -0.349 0.536 -0.657 0.676 -0.075a8.41 8.41 0 0 1 0.1 1.685c0 0.4 0.621 0.337 0.565 0a63.728 63.728 0 0 1 -0.042 -1.149c-0.009 -0.328 0.13 -0.489 0.242 0.03 0.071 0.326 0.152 0.945 0.272 1.543a0.29 0.29 0 0 0 0.532 0.079 0.288 0.288 0 0 0 0.033 -0.22 54.666 54.666 0 0 1 -0.154 -1.008c-0.051 -0.362 0.365 -0.567 0.594 -0.075a6.486 6.486 0 0 1 -0.834 4.972 3.698 3.698 0 0 0 -2.552 -0.66 3.99 3.99 0 0 0 -0.489 0.018c0.092 -0.95 -1.473 -1.051 -1.7 -1.881Zm-39.691 45.042c-0.822 0.06 -2.841 0.181 -3.064 -0.613 -0.462 -1.641 2.235 -2.054 5.892 -3.252 0.2 0 0.019 0.15 4.007 2.145a26.792 26.792 0 0 1 -6.835 1.72Zm40.87 -1.3c0.485 0.946 -1.274 1 -2.522 0.684 -1.541 -0.385 -3.438 -1.082 -6.718 -1.7a24.373 24.373 0 0 0 4.078 -2.687c1.64 0.785 4.671 2.747 5.162 3.706v-0.003Zm-4.431 -17.441c3.446 -1.635 6.246 -1.158 5.279 3.3 -2.576 11.883 -17.879 17.407 -27.85 15.161 -7.126 -1.605 -16.566 -6.591 -18.194 -13.784 -0.975 -4.308 1.321 -6.337 5.357 -4.311a20.348 20.348 0 0 1 6.346 5.644c2.43 3.053 1.312 2.336 3.112 3.206 5.854 2.829 14.421 2.053 18.549 -2.074 0.1 -0.098 3.286 -5.186 7.401 -7.139v-0.003Zm7.141 -17.63c-0.141 -0.212 -0.259 -0.424 -0.4 -0.636 -0.171 -0.342 -0.7 -0.025 -0.495 0.306 0.007 0.012 0.669 1.084 0.683 1.084a50.14 50.14 0 0 1 -2.663 6.67c-0.049 -0.291 -0.011 -0.482 -0.142 -0.612a0.283 0.283 0 0 0 -0.212 -0.094 0.283 0.283 0 0 0 -0.212 0.094c-0.151 0.15 -0.1 0.217 0.047 1.319a7.565 7.565 0 0 1 -1.791 2.334c-0.142 -0.425 -0.122 -0.735 -0.165 -0.778 0 -0.23 -0.1 -0.471 -0.33 -0.471 -0.552 0 -0.077 1.626 0.024 1.626 -1.618 1.617 -5.258 1.895 -7.543 1.791 0.106 -0.211 -0.188 -0.677 -0.188 -0.8 -0.137 -0.364 -0.143 -0.917 -0.519 -0.8 -0.446 0.138 -0.083 0.965 0.212 1.555 -0.424 -0.023 -0.825 -0.07 -1.225 -0.094 -0.071 -0.471 -0.124 -0.966 -0.189 -1.438 -0.043 -0.317 -0.715 -0.56 -0.542 0.306 -0.861 1.046 -1.3 1.32 -1.013 1.6 0.3 0.241 0.449 -0.006 1.131 -0.825 0.916 7.083 1.135 6.274 0.259 5.4a0.297 0.297 0 0 0 -0.21 -0.08 0.297 0.297 0 0 0 -0.294 0.294 0.3 0.3 0 0 0 0.08 0.21c1.639 1.639 0.914 0.262 1.791 5 0 0.121 -0.99 1.269 -0.99 1.414a8.99 8.99 0 0 1 -1.293 1.058c-0.043 -0.032 -1.627 -0.422 -1.724 -0.445 -0.4 -0.133 -0.487 0.516 -0.141 0.565 0.4 0.095 0.8 0.213 1.2 0.307 -4.74 2.731 -12.394 2.515 -16.617 -0.071 -0.4 -0.244 -0.243 -0.03 1.6 -12.61 0.1 -0.659 0.186 -1.343 0.307 -2 0.069 -0.377 -0.513 -0.541 -0.566 -0.165 -0.2 1.381 -1.851 12.714 -2.074 13.906a31.157 31.157 0 0 0 -4.95 -5.609A38.343 38.343 0 0 1 67 150.137c0.141 0.376 0.275 0.756 0.4 1.154a0.29 0.29 0 0 0 0.135 0.169 0.292 0.292 0 0 0 0.43 -0.31c-0.452 -1.269 -0.505 -1.659 -0.753 -1.721a13.772 13.772 0 0 1 3.441 -6.387c-0.211 0.79 -0.56 1.327 -0.118 1.391 0.36 0.1 0.392 -0.264 0.872 -1.909 0 -0.382 1.809 -1.078 2.522 -1.226 0.024 0.047 0.024 0.094 0.071 0.118 1.077 1.267 1.343 1.721 1.65 1.414 0.263 -0.263 -0.014 -0.466 -1.037 -1.626a6.264 6.264 0 0 1 1.617 0.1c0.347 0.52 1.11 0.861 2.672 0.819a4.387 4.387 0 0 0 2.843 -0.97 23.338 23.338 0 0 1 3.238 -0.538c0.282 0 -0.745 1 -0.212 1.178 0.372 0.185 0.416 -0.162 0.849 -0.967 0.043 -0.065 0.047 -0.259 0 -0.259a22.65 22.65 0 0 1 2.192 -0.117c0 0.253 0.412 0.423 0.754 1.107 0.171 0.342 0.709 0.022 0.5 -0.306a18.922 18.922 0 0 0 -0.542 -0.778c3.242 0.284 5.372 2.53 7.448 4.761 0.261 0.281 0.685 -0.143 0.424 -0.424 -0.351 -0.38 -0.707 -0.778 -1.084 -1.155 1.148 -1.462 0.483 -1.168 1.2 0 0.174 0.347 0.71 0.017 0.495 -0.307a4.754 4.754 0 0 1 -0.211 -0.452 0.095 0.095 0 0 1 -0.025 -0.019c0 -0.1 -0.084 -0.171 -0.188 -0.589a0.37 0.37 0 0 0 -0.142 -0.189 57.241 57.241 0 0 0 1.579 -2.333c0.029 0.407 0.294 1.372 0.684 1.06 0.337 -0.225 -0.094 -0.532 -0.094 -1.06 0 -0.492 0.024 -0.566 -0.166 -0.66 4.314 -6.752 3.514 -7.1 4.031 -5.162a0.292 0.292 0 0 0 0.526 0.072 0.29 0.29 0 0 0 0.04 -0.213c-0.118 -0.354 -0.212 -0.731 -0.33 -1.084a6.62 6.62 0 0 1 2.121 0.282 11.47 11.47 0 0 0 -0.189 1.957c0 0.418 0.614 0.337 0.566 0 0.001 -3.415 0.991 -1.04 -0.447 4.03v-0.003Z" stroke-width="1"></path><path id="vector_15" fill="#501200" d="M96.8 142.9c0.014 0 -0.016 -0.046 0 0Z" stroke-width="1"></path><path id="vector_16" fill="#501200" d="M68.984 156.194c-0.342 0.049 -0.286 0.624 0.141 0.566 1.548 -0.212 1.941 -0.2 1.862 -0.59 -0.106 -0.37 -0.395 -0.211 -2.003 0.024Z" stroke-width="1"></path><path id="vector_17" fill="#501200" d="M69.054 160.036a0.286 0.286 0 0 0 0.028 0.327 0.28 0.28 0 0 0 0.09 0.073c0.316 0.136 0.345 0 1.461 -1.485 0.133 -0.132 -0.017 -0.3 -0.117 -0.4 -0.316 -0.135 -0.345 -0.004 -1.462 1.485Z" stroke-width="1"></path><path id="vector_18" fill="#501200" d="M66.532 155.44c-0.372 0.115 -0.2 0.521 0.118 1.862 0.059 0.352 0.634 0.267 0.566 -0.142 -0.329 -1.382 -0.279 -1.845 -0.684 -1.72Z" stroke-width="1"></path><path id="vector_19" fill="#501200" d="M70.8 152.941c0.253 -0.169 0.18 -0.332 -0.519 -1.767 -0.16 -0.329 -0.676 -0.066 -0.5 0.306 0.519 1.066 0.652 1.754 1.019 1.461Z" stroke-width="1"></path><path id="vector_20" fill="#501200" d="M69.62 147.591c-0.342 0.171 -0.02 0.713 0.306 0.5 0.178 -0.114 0.368 -0.209 0.566 -0.283 0.477 -0.212 0.988 -0.19 0.872 -0.565 -0.152 -0.499 -1.302 0.092 -1.744 0.348Z" stroke-width="1"></path><path id="vector_21" fill="#501200" d="M72.873 144.692c-0.367 -0.053 -0.388 0.566 0 0.566a13.94 13.94 0 0 0 1.979 0.141 0.27 0.27 0 0 0 0.283 -0.283c0 -0.46 -0.37 -0.154 -2.262 -0.424Z" stroke-width="1"></path><path id="vector_22" fill="#501200" d="M74 149.547c0.424 0.066 0.279 -0.153 0.8 -2.168 0.134 -0.4 -0.516 -0.488 -0.565 -0.141 -0.347 1.406 -0.655 2.244 -0.235 2.309Z" stroke-width="1"></path><path id="vector_23" fill="#501200" d="M77.4 144.032c1.084 0.174 2.343 0.437 2.263 -0.047 0 -0.431 -0.339 -0.2 -2.122 -0.519a0.29 0.29 0 0 0 -0.34 0.216 0.292 0.292 0 0 0 0.199 0.35Z" stroke-width="1"></path><path id="vector_24" fill="#501200" d="M77.445 146.389c0.677 0.7 1.072 1.33 1.344 0.99 0.29 -0.29 -0.128 -0.561 -0.92 -1.414 -0.227 -0.285 -0.719 0.118 -0.424 0.424Z" stroke-width="1"></path><path id="vector_25" fill="#501200" d="M76.785 151.48c0.543 0.091 0.3 -0.813 0.872 -1.579 0.187 -0.374 -0.345 -0.605 -0.495 -0.306 -0.262 0.431 -0.862 1.745 -0.377 1.885Z" stroke-width="1"></path><path id="vector_26" fill="#501200" d="M73.957 152.847c0.045 0.5 0.316 1.848 0.778 1.556 0.316 -0.2 -0.212 -1.016 -0.212 -1.462 0 -0.599 -0.612 -0.372 -0.566 -0.094Z" stroke-width="1"></path><path id="vector_27" fill="#501200" d="M78.553 154.026c-0.1 -0.33 -0.419 -0.232 -1.532 0.047 -0.352 0.058 -0.267 0.633 0.141 0.565 0.924 -0.217 1.515 -0.211 1.391 -0.612Z" stroke-width="1"></path><path id="vector_28" fill="#501200" d="M74.122 156.5c-0.377 -0.108 -0.426 0.374 -0.731 1.533a0.294 0.294 0 0 0 0.209 0.368 0.309 0.309 0 0 0 0.117 0.005 0.286 0.286 0 0 0 0.194 -0.124 0.285 0.285 0 0 0 0.046 -0.108c0.275 -1.003 0.603 -1.611 0.165 -1.674Z" stroke-width="1"></path><path id="vector_29" fill="#501200" d="M72.849 162.18c-0.339 0.215 -0.04 0.482 0.754 1.674a0.294 0.294 0 0 0 0.5 -0.306c-0.703 -1.048 -0.924 -1.577 -1.254 -1.368Z" stroke-width="1"></path><path id="vector_30" fill="#501200" d="M76.2 159.517c-0.147 0.386 -0.346 0.75 -0.589 1.084 -0.3 0.455 0.473 1.172 1.178 -0.943 0.122 -0.377 -0.473 -0.5 -0.589 -0.141Z" stroke-width="1"></path><path id="vector_31" fill="#501200" d="M80.486 157.844c0.21 -0.352 -0.156 -0.47 -1.745 -1.132 -0.437 -0.219 -0.566 0.409 -0.306 0.5 1.596 0.688 1.893 0.946 2.051 0.632Z" stroke-width="1"></path><path id="vector_32" fill="#501200" d="M77.445 163.406c-0.513 0.159 -0.015 0.408 0.259 2.122 0.044 0.27 1.117 0.817 0.1 -1.91a0.275 0.275 0 0 0 -0.243 -0.224 0.27 0.27 0 0 0 -0.116 0.012Z" stroke-width="1"></path><path id="vector_33" fill="#501200" d="M81.641 164.726c-0.554 0.184 -1.423 -0.122 -1.344 0.354 -0.086 0.6 2.254 0.281 2.074 -0.26 -0.131 -0.392 -0.478 -0.136 -0.73 -0.094Z" stroke-width="1"></path><path id="vector_34" fill="#501200" d="M81.782 161.8c0.272 -0.546 -1.377 -0.967 -1.815 -1.038a0.29 0.29 0 0 0 -0.34 0.216 0.292 0.292 0 0 0 0.199 0.35c1.465 0.231 1.704 0.894 1.956 0.472Z" stroke-width="1"></path><path id="vector_35" fill="#501200" d="M86.166 162.039c-0.43 0.143 -1.984 0.725 -1.7 1.179 0.253 0.4 0.71 -0.221 1.32 -0.425 0.023 -0.023 0.071 -0.023 0.094 -0.047 0.013 0 0 0 0.424 -0.141a0.293 0.293 0 0 0 -0.138 -0.566Z" stroke-width="1"></path><path id="vector_36" fill="#501200" d="M89.56 161.638c0.3 -0.2 0.1 -0.394 -0.589 -1.744 -0.178 -0.345 -0.711 -0.016 -0.5 0.306 0.558 1.052 0.734 1.723 1.089 1.438Z" stroke-width="1"></path><path id="vector_37" fill="#501200" d="M84.634 159.447c0.568 -1.517 0.888 -2 0.448 -2.075 -0.314 -0.089 -0.348 0.053 -1.014 1.933 -0.105 0.295 0.36 0.554 0.566 0.142Z" stroke-width="1"></path><path id="vector_38" fill="#501200" d="M81.664 155.416a0.293 0.293 0 1 0 0.5 0.306c0.193 -0.385 0.259 -0.334 0.259 -0.4 0.113 -0.339 1.068 -0.5 0.755 -0.9 -0.315 -0.46 -1.25 0.466 -1.514 0.994Z" stroke-width="1"></path><path id="vector_39" fill="#501200" d="M86.732 154.1c-0.375 0.237 0.016 0.41 0.542 1.461a0.238 0.238 0 0 1 0.047 0.119c0 0.373 0.714 0.233 0.589 -0.142 -0.193 -0.487 -0.739 -1.72 -1.178 -1.438Z" stroke-width="1"></path><path id="vector_40" fill="#501200" d="M86.614 151.527a0.276 0.276 0 0 0 -0.13 -0.183 0.282 0.282 0 0 0 -0.224 -0.029c-0.583 0.164 -1.152 0.377 -1.7 0.636a0.278 0.278 0 0 0 -0.134 0.179 0.282 0.282 0 0 0 0.04 0.221c0.17 0.255 0.311 0.1 1.131 -0.212 0.536 -0.203 1.127 -0.256 1.017 -0.612Z" stroke-width="1"></path><path id="vector_41" fill="#501200" d="M80.933 151.079c-0.84 0.28 -1.531 0.04 -1.531 0.519 0 0.506 1.222 0.193 1.673 0.047a0.293 0.293 0 0 0 -0.142 -0.566Z" stroke-width="1"></path><path id="vector_42" fill="#501200" d="M81.428 148.7c0.171 0.341 0.708 0.022 0.5 -0.307a6.514 6.514 0 0 1 -0.518 -1.013c-0.05 -0.1 -0.148 -0.47 -0.424 -0.377a0.308 0.308 0 0 0 -0.213 0.353c0.166 0.472 0.385 0.923 0.655 1.344Z" stroke-width="1"></path><path id="vector_43" fill="#501200" d="M82.041 143.443c0.632 -1.474 0.886 -1.772 0.566 -1.91 -0.376 -0.225 -0.465 0.213 -1.061 1.6a0.291 0.291 0 1 0 0.495 0.31Z" stroke-width="1"></path><path id="vector_44" fill="#501200" d="M84.87 145.47c0.354 -0.225 -0.028 -0.547 -0.637 -1.461a0.294 0.294 0 0 0 -0.5 0.306c0.461 0.685 0.786 1.376 1.137 1.155Z" stroke-width="1"></path><path id="vector_45" fill="#501200" d="M84.445 147.308a0.297 0.297 0 0 0 -0.21 -0.08 0.297 0.297 0 0 0 -0.294 0.294 0.3 0.3 0 0 0 0.08 0.21c0.404 0.427 0.774 0.884 1.108 1.367 0.258 0.323 1.324 0.217 -0.684 -1.791Z" stroke-width="1"></path><path id="vector_46" fill="#501200" d="M87.769 147.19c-0.142 0 -0.233 0.188 -0.189 0.33 0.092 0.3 0.336 0.189 0.519 0.189 0.708 0 1.21 0.03 1.155 -0.306 0 -0.44 -0.875 -0.32 -1.485 -0.213Z" stroke-width="1"></path><path id="vector_47" fill="#501200" d="M87.533 145.022c0.352 -0.109 0.236 -0.443 -0.118 -1.6a0.293 0.293 0 0 0 -0.566 0.141c0.203 0.727 0.283 1.583 0.684 1.459Z" stroke-width="1"></path><path id="vector_48" fill="#501200" d="M92.176 143.4c0.4 -0.239 -0.032 -0.547 -0.754 -1.509a0.3 0.3 0 0 0 -0.073 -0.09 0.3 0.3 0 0 0 -0.217 -0.064 0.304 0.304 0 0 0 -0.11 0.036c-0.344 0.206 -0.083 0.462 0.755 1.509 0.108 0.16 0.215 0.175 0.399 0.118Z" stroke-width="1"></path><path id="vector_49" fill="#501200" d="M91.115 144.268c-1.342 0.7 -1.836 0.786 -1.6 1.155 0.2 0.313 0.4 0.095 1.909 -0.661 0.345 -0.173 0.015 -0.71 -0.309 -0.494Z" stroke-width="1"></path><path id="vector_50" fill="#501200" d="M91.422 147.119c-0.287 -0.229 -0.738 0.315 -0.142 0.613 0.386 0.286 0.728 0.628 1.014 1.014 0.272 0.272 1.348 -0.041 -0.872 -1.627Z" stroke-width="1"></path><path id="vector_51" fill="#501200" d="M94.84 150.089c0.1 -0.1 -0.44 0.33 -0.543 0.33 -1.162 0.233 -0.37 1.431 1.155 -0.094 0.239 -0.238 -0.021 -0.825 -0.612 -0.236Z" stroke-width="1"></path><path id="vector_52" fill="#501200" d="M94.769 145.87a0.297 0.297 0 0 0 -0.213 -0.088 0.302 0.302 0 0 0 -0.212 0.088c0 0.222 -0.441 0.377 -0.683 0.377 -0.718 0 -0.445 0.606 -0.165 0.566 0.654 0 1.683 -0.532 1.273 -0.943Z" stroke-width="1"></path><path id="vector_53" fill="#501200" d="M97.314 147.025c-0.347 0 -0.252 0.3 -0.424 1.721a0.283 0.283 0 1 0 0.566 0c0.15 -1.239 0.275 -1.79 -0.142 -1.721Z" stroke-width="1"></path><path id="vector_54" fill="#501200" d="M99.506 145.446c-1.168 -0.361 -1.478 -0.613 -1.6 -0.212 -0.1 0.334 0.2 0.359 1.462 0.778a0.286 0.286 0 0 0 0.321 -0.102 0.29 0.29 0 0 0 -0.183 -0.464Z" stroke-width="1"></path><path id="vector_55" fill="#501200" d="M98.846 143.443c0.557 -0.946 0.993 -1.366 0.637 -1.579 -0.362 -0.181 -0.532 0.253 -1.132 1.273a0.291 0.291 0 0 0 0.495 0.306Z" stroke-width="1"></path><path id="vector_56" fill="#501200" d="M100.873 137.173c-0.382 -0.191 -0.462 0.2 -1.107 1.3 -0.188 0.374 0.345 0.6 0.494 0.306 0.562 -0.958 0.967 -1.429 0.613 -1.606Z" stroke-width="1"></path><path id="vector_57" fill="#501200" d="M101.463 139.837a0.492 0.492 0 0 1 -0.142 -0.024 0.292 0.292 0 0 0 -0.141 0.566c0.563 0.122 1.989 0.074 1.815 -0.448 -0.174 -0.522 -0.995 0.176 -1.532 -0.094Z" stroke-width="1"></path><path id="vector_58" fill="#501200" d="M101.769 142.17c-0.23 0.745 -0.532 1.355 -0.118 1.414 0.38 0.109 0.375 -0.347 0.684 -1.273a0.31 0.31 0 0 0 0.011 -0.117 0.302 0.302 0 0 0 -0.114 -0.2 0.306 0.306 0 0 0 -0.106 -0.051 0.307 0.307 0 0 0 -0.117 -0.005 0.301 0.301 0 0 0 -0.195 0.124 0.295 0.295 0 0 0 -0.045 0.108Z" stroke-width="1"></path><path id="vector_59" fill="#501200" d="M103.489 135.924c-0.413 0.074 -0.83 0.121 -1.249 0.141 -0.433 0.289 -0.018 0.894 1.391 0.425a0.292 0.292 0 0 0 -0.142 -0.566Z" stroke-width="1"></path></g><path id="vector_60" fill="#ff7449" d="M74.051 132.7c-5.689 6.5 0.968 8.278 8.438 3.182a29.403 29.403 0 0 0 4.078 -3.394c0 -12.33 -15.284 -11.142 -12.516 0.212Z" stroke-width="1"></path><path id="vector_61" fill="#501200" d="M83.715 130.644c0.4 0.018 0.4 -0.618 0 -0.636a17.079 17.079 0 0 0 -9.522 2.475c-0.33 0.236 -0.024 0.8 0.329 0.566a16.124 16.124 0 0 1 9.193 -2.405Z" stroke-width="1"></path></g><g id="paintbrush"><path id="vector_62" fill="#ff7449" d="M110.655 82.374c-0.7 -0.313 -3.074 -1.381 -3.654 -0.8 -0.44 0.44 0.6 1.349 1.25 3.7 0.774 2.8 -2.082 5.665 -0.236 9.239 1.575 3.05 4.513 3.249 4.03 2.4l3.96 -1.909c0.094 0.189 0.4 0.283 0.5 0.024 2.163 -4.828 -1.391 -10.66 -5.85 -12.654Z" stroke-width="1"></path><path id="vector_63" fill="#f9f5e5" d="M113.53 87.064c-2.077 -4.656 -7.241 -6.194 -6.152 -4.949 0 0.5 3.617 2.328 4.219 7.5 0.044 0.377 0.632 0.378 0.59 0a11.48 11.48 0 0 0 -3.229 -6.765 9.16 9.16 0 0 1 4.077 4.5c0.151 0.371 0.654 0.071 0.495 -0.286Z" stroke-width="1"></path><path id="vector_64" fill="#f9f5e5" d="M112.422 98.731c-0.815 0.046 -1.268 -1.088 -0.424 -1.932 0.6 -0.6 4.095 -2.129 4.832 -1.886a0.84 0.84 0 0 1 0.5 1.037l-4.908 2.781Z" stroke-width="1"></path><path id="vector_65" fill="#501200" d="M157.841 152.941c-9.417 -21.041 -38.162 -54.26 -40.21 -56.991a1.093 1.093 0 0 0 -0.238 -1.001 1.104 1.104 0 0 0 -0.962 -0.366 16.15 16.15 0 0 0 -2.946 1.014 3.434 3.434 0 0 0 -2.145 1.673 1.266 1.266 0 0 0 0.017 1.02 1.274 1.274 0 0 0 0.761 0.68c0 0.863 9.379 14.941 18.808 26.634 11.792 14.62 28.447 30.76 26.915 27.337Zm-45.984 -54.964c-0.2 -0.959 1.32 -1.548 2.027 -1.862 3.035 -1.346 3.158 -1.023 3.158 -0.141 -4.733 2.548 -4.519 2.474 -4.62 2.474a0.585 0.585 0 0 1 -0.565 -0.471Z" stroke-width="1"></path><path id="vector_66" fill="#ff7449" d="M106.751 80.306c-6.175 -2.821 -8.862 -1.109 -9.72 4.967 -1.335 9.46 6.323 1.914 8.3 9.734 1.112 4.407 -0.879 9.432 1.343 13.388 2.45 4.359 7.718 4.217 6.432 16.807 -0.16 1.567 -1.3 1.244 -1.254 -0.073 0.452 -13.7 -8.524 -2.982 -8.524 -17.653 0 -8.381 0.039 -9.21 -0.5 -10.56a3.231 3.231 0 0 0 -2.758 -2.144c-2.129 -0.036 -3.811 2.908 -6.458 0.8 -2.48 -1.974 -2.27 -5.729 -1.768 -8.862 0.6 -3.773 1.724 -8.1 5.209 -9.664 3.287 -1.475 7.12 0.28 9.863 2.659 0.319 0.275 0.515 0.911 -0.165 0.601Z" stroke-width="1"></path></g><g id="person 3"><path id="vector_67" fill="#f9f5e5" d="M158.265 171.514c-0.342 -1.2 -3.562 -31.9 -4.148 -35.166a0.61 0.61 0 0 0 -0.183 -0.468 0.6 0.6 0 0 0 -0.996 0.586c0 0.1 0.006 0.022 -14.118 4.832a0.577 0.577 0 0 0 -0.646 -0.391 0.578 0.578 0 0 0 -0.485 0.579c0.218 3.02 0.192 0.156 -2.993 30.782 -0.025 0.236 -0.023 1.811 0.212 1.839 6.562 0.785 4.588 2.3 7.33 -7.4 1.1 -3.891 2.682 -7.749 3.724 -11.667 0.116 -0.438 1.045 -4.076 1.273 -4.455 4.818 17.866 5.032 24.33 5.68 23.994 0.7 -0.362 5.038 -0.513 5.138 -0.613 0.166 -0.806 0.237 -1.629 0.212 -2.452Z" stroke-width="1"></path><path id="vector_68" fill="#fccac2" d="M129.84 114.405c-0.445 -0.255 -1.358 0.68 -1.673 1.3 -0.338 0.661 -0.586 1.162 -2.145 0.613 -2.2 -0.775 -2.663 -1.044 -3.253 -1.013 0.384 1.343 1.869 1.084 0.283 1.084 -0.381 0 -0.038 0.966 0.648 1.316 -0.481 -0.11 -1.022 0.523 0.625 0.994 -0.259 0.117 -0.686 -0.142 -0.754 0.117a0.29 0.29 0 0 0 0.012 0.143 0.283 0.283 0 0 0 0.082 0.117c0.74 0.833 2.494 -0.07 3.088 0.919l2.4 -0.991c-0.283 -0.447 0.13 -1.1 0.286 -1.625 0.175 -0.587 -0.04 -1.246 0.212 -1.791 0.049 -0.117 0.689 -0.933 0.189 -1.183Z" stroke-width="1"></path><path id="vector_69" fill="#501200" d="M128 115.371c-0.444 0.725 -0.357 1.22 -1.933 0.684 -1.818 -0.619 -2.461 -1.037 -3.347 -1.037 -0.517 0 -0.214 0.757 0.118 1.131 -0.365 0 -0.387 0.862 0.236 1.485a0.544 0.544 0 0 0 0.047 0.8c0.147 0.148 0.251 0.15 0.165 0.236 -0.189 0.424 0.282 0.827 0.636 0.966 0.855 0.338 2.1 -0.116 2.522 0.519a0.3 0.3 0 1 0 0.519 -0.306c-0.774 -1.161 -2.461 -0.34 -2.946 -0.825 0.727 0 1.655 0.219 1.579 -0.236 0 -0.539 -0.835 0.014 -1.717 -0.405 -0.176 -0.084 -0.5 -0.434 0.084 -0.287 0.424 0.096 0.857 0.144 1.292 0.144a0.248 0.248 0 0 0 0.198 -0.054 0.243 0.243 0 0 0 0.069 -0.287 0.25 0.25 0 0 0 -0.152 -0.138 0.243 0.243 0 0 0 -0.104 -0.01c-0.918 0 -1.674 -0.07 -1.98 -0.99 0.166 0.012 0.334 0.012 0.5 0 0.05 0.025 1.475 0.556 1.438 0.519a0.293 0.293 0 1 0 0.306 -0.5c-1.8 -0.694 -1.845 -0.585 -2.216 -1.061 1.413 0.3 3.436 1.667 4.526 1.037 0.581 -0.336 0.588 -1.15 1.485 -1.815 0.094 -0.07 0.373 -0.305 0.448 -0.118 0.066 0.167 -0.189 0.425 -0.26 0.566 -0.374 0.624 -0.163 1.405 -0.259 1.886 -0.096 0.481 -0.711 1.145 -0.33 1.838 0.183 0.333 0.684 0.024 0.519 -0.306 -0.189 -0.33 0.164 -0.826 0.282 -1.132 0.289 -0.747 -0.01 -1.451 0.283 -1.98a3.62 3.62 0 0 0 0.33 -0.589c0.087 -1.606 -1.433 -1.206 -2.338 0.265Z" stroke-width="1"></path><path id="vector_70" fill="#ffb949" d="M157.181 125.318c-0.438 -3.676 -3.026 -11.732 -6.152 -13.317 -2.307 -1.17 -4.662 0.026 -7.4 0.731 -5.812 1.5 -9.413 0.947 -10.889 6.764 -1.037 4.089 -0.352 4.569 -0.872 3.724 -2.839 -4.618 -1.437 -4.811 -3.606 -4.007 -2.682 1 -2.373 0.99 -2.074 2.734 0.88 5.128 2.526 14.659 7.684 13.977 3.287 -0.435 2.228 -3.686 2.9 1.721 0.5 4.061 -0.071 5.711 6.67 4.784 6.176 -0.849 11.925 -3.021 11.761 -3.677 -0.306 -2.616 -0.589 -5.256 -1.013 -7.872 3.525 0.62 3.379 -2.303 2.991 -5.562Z" stroke-width="1"></path><path id="vector_71" fill="#fccac2" d="M146.834 105.826c-0.435 -0.085 -0.834 0.365 -1.249 -0.189a1.656 1.656 0 0 1 -0.118 -1.555 1.447 1.447 0 0 1 -1.174 -0.59 1.45 1.45 0 0 1 -0.217 -1.296 1.327 1.327 0 0 1 -1.366 0.132 1.333 1.333 0 0 1 -0.755 -1.146 1.666 1.666 0 0 1 -1.409 0.59 1.678 1.678 0 0 1 -1.301 -0.801 1.69 1.69 0 0 1 -1.65 1.555c-0.628 1.047 -2.828 9.942 2.555 10.122a4.561 4.561 0 0 0 1.051 1.71c1.275 0.987 6.258 0.333 4.832 -3.111 -1.621 -3.913 0.888 -2.309 1.272 -4.408 0.078 -0.423 -0.072 -0.939 -0.471 -1.013Z" stroke-width="1"></path><path id="vector_72" fill="#501200" d="M151.359 102.974c1.223 -1.673 0.471 -3.178 -0.613 -3.394a2.146 2.146 0 0 0 0.086 -1.813 2.137 2.137 0 0 0 -1.335 -1.228c0.53 -1.825 -1.433 -3.231 -3.252 -2.192a2.281 2.281 0 0 0 -3.23 -0.848 2.28 2.28 0 0 0 -0.824 0.919c-1.064 -0.979 -3.133 -0.221 -3.606 1.673 -1.179 -0.589 -2.9 1.2 -2.5 2.546 -1.988 0.426 -1.676 4.472 0.825 4.525a15.225 15.225 0 0 0 -0.589 3.3c-0.321 3.195 0.377 6.233 3.582 6.411a2.662 2.662 0 0 0 2.782 2.121c2.233 -0.062 4.37 -1.088 3.889 -3.252 -0.142 -0.637 -0.519 -1.226 -0.66 -1.862a1.697 1.697 0 0 0 1.66 0.469c0.293 -0.078 0.56 -0.232 0.774 -0.447 0.214 -0.215 0.366 -0.483 0.441 -0.777a2.018 2.018 0 0 0 1.735 -0.686 2.02 2.02 0 0 0 0.434 -1.814c0 -0.047 -0.024 -0.188 -0.048 -0.188 0.048 -0.048 0.165 -0.071 0.213 -0.118 1.437 -0.956 1.477 -2.637 0.236 -3.345Zm-5.774 10.418a4.428 4.428 0 0 1 -3.7 0.848 2.104 2.104 0 0 1 -1.225 -1.343 5.905 5.905 0 0 0 2.05 -0.566c0.4 -0.188 0.045 -0.76 -0.353 -0.589a4.382 4.382 0 0 1 -3.418 0.259c-3.4 -1.42 -1.508 -8.643 -1.178 -9.192a2.029 2.029 0 0 0 1.626 -1.2 2.022 2.022 0 0 0 2.38 0.141 1.667 1.667 0 0 0 1.886 0.967 1.786 1.786 0 0 0 1.347 1.624c-0.176 1 0.288 2.066 1.391 1.838 0.258 -0.053 0.456 -0.121 0.566 0.212 0.3 0.925 -1.121 1.47 -1.414 1.839 -1.355 1.699 1.393 3.776 0.042 5.162Z" stroke-width="1"></path><path id="vector_73" fill="#501200" d="M137.925 105.071a0.328 0.328 0 0 0 -0.33 0.33 0.328 0.328 0 0 0 0.33 0.33 0.328 0.328 0 0 0 0.33 -0.33 0.328 0.328 0 0 0 -0.33 -0.33Z" stroke-width="1"></path><path id="vector_74" fill="#501200" d="M141.13 105.614a0.328 0.328 0 0 0 -0.33 0.33 0.328 0.328 0 0 0 0.33 0.33 0.328 0.328 0 0 0 0.33 -0.33 0.328 0.328 0 0 0 -0.33 -0.33Z" stroke-width="1"></path><path id="vector_75" fill="#501200" d="M139.669 104.765c-0.5 0.133 0.059 0.709 -0.448 1.273 -0.4 0.4 -1.353 0.264 -1.219 1.082 0.06 0.371 0.413 0.8 1.172 1.063 0.379 0.162 0.618 -0.524 0.165 -0.637 -1.145 -0.572 -0.523 -0.437 -0.071 -0.683 1.168 -0.636 1.058 -2.274 0.401 -2.098Z" stroke-width="1"></path><path id="vector_76" fill="#501200" d="M139.692 108.678c-0.362 0 -0.33 0.278 -0.33 0.872 0 0.631 -0.707 -0.007 -0.707 -0.189 -0.079 -0.23 -0.1 -0.51 -0.377 -0.471 -0.666 0 -0.249 1.136 0.448 1.485 1.486 0.891 1.808 -1.697 0.966 -1.697Z" stroke-width="1"></path><path id="vector_77" fill="#501200" d="M145.915 107.311h0.306a0.327 0.327 0 0 0 0.177 -0.052 0.326 0.326 0 0 0 0.141 -0.325 0.315 0.315 0 0 0 -0.082 -0.165 1.26 1.26 0 0 0 -0.926 -0.023c-0.463 0.186 -0.167 0.84 0.384 0.565Z" stroke-width="1"></path><g id="group_3"><path id="vector_78" fill="#501200" d="M154.541 130.574a56.616 56.616 0 0 0 -2.121 -9.829 0.299 0.299 0 0 0 -0.351 -0.152 0.303 0.303 0 0 0 -0.215 0.317 63.104 63.104 0 0 1 2.1 9.687c0.046 0.33 0.636 0.354 0.587 -0.023Z" stroke-width="1"></path><path id="vector_79" fill="#501200" d="M131.726 121.877v5.515c0.013 0.068 0.05 0.13 0.104 0.174a0.295 0.295 0 0 0 0.381 0 0.297 0.297 0 0 0 0.104 -0.174v-5.515a0.297 0.297 0 0 0 -0.104 -0.174 0.295 0.295 0 0 0 -0.381 0 0.297 0.297 0 0 0 -0.104 0.174Z" stroke-width="1"></path><path id="vector_80" fill="#501200" d="M139.645 124.516a35.977 35.977 0 0 1 -3.182 9.358c-0.165 0.329 0.339 0.641 0.519 0.306a33.515 33.515 0 0 0 3.252 -9.5c0.073 -0.375 -0.517 -0.54 -0.589 -0.164Z" stroke-width="1"></path></g><path id="vector_81" fill="#fccac2" d="M141.154 107.146a0.775 0.775 0 0 0 -0.375 0.09 0.796 0.796 0 0 0 -0.366 1.001c0.242 0.758 2.334 0.947 2.461 -0.1 0.103 -0.852 -0.868 -1.074 -1.72 -0.991Z" stroke-width="1"></path><path id="vector_82" fill="#501200" d="M162.673 175.592c-2.9 -1.538 -3.452 -1.294 -4.125 -2.64 0 -1.27 -3.828 -33.593 -3.842 -33.7 -0.045 -0.377 -0.635 -0.377 -0.589 0 1.573 12.929 2.771 21.5 3.323 27.294 0.16 1.674 0.377 5.327 0.472 6.034 -1.815 0.448 -3.394 0.613 -5.209 1.06 -0.341 -2.47 -4.9 -23.11 -5 -23.31 0.137 -0.275 0.428 -1.535 1.438 -1.933 0.354 -0.139 0.188 -0.708 -0.165 -0.565 -1.549 0.627 -2.025 2.3 -3.913 9.074 -2.17 7.783 -3.511 13.1 -4.949 16.876a46.707 46.707 0 0 1 -5.233 -1.108c-0.1 -0.075 -0.194 -0.026 3.276 -30.617 0.043 -0.378 -0.546 -0.378 -0.589 0 -3.461 30.766 -3.372 30.586 -3.323 30.782 -0.671 1.453 -1.41 1.283 -4.2 2.758 -0.476 0.317 -0.173 1.452 0.731 1.461 9.029 0.087 9.3 0.459 9.522 -0.589 0.19 -0.731 0.277 -1.484 0.259 -2.239 2.826 -7.623 4.844 -17.43 6.741 -22.886 0.365 1.791 4.785 21.436 4.785 22.6a0.325 0.325 0 0 0 0.022 0.157 0.322 0.322 0 0 0 0.096 0.126c-0.168 0 0.043 1.417 0.212 2.239 0.217 1.059 0.481 0.676 9.522 0.589 0.896 -0.011 1.221 -1.141 0.738 -1.463Z" stroke-width="1"></path></g><g id="light bulbs"><path id="vector_83" fill="#ffb949" d="M36.081 39.171c-8.049 -4.283 -20.233 1.444 -21.166 11.6 -0.288 3.131 0.975 7.265 2.31 10.112 3.095 6.597 10.431 10.93 13.575 15.74 -0.99 0.72 -0.066 2.748 0.848 5.138 0.794 2.073 1.122 3.711 3.489 3.866 1.7 0.11 4.623 -0.942 6.151 -1.7 1.652 -0.817 2.552 -1.634 1.91 -4.243 -0.419 -1.7 -1.016 -5.313 -2.711 -5.4 0.112 0 -0.186 -0.517 -0.118 -1.58 0.178 -2.753 3.5 -8.795 3.8 -16.71 0.237 -6.494 -2.01 -13.588 -8.088 -16.823Z" stroke-width="1"></path><g id="group_4"><path id="vector_84" fill="#501200" d="M40.158 74.879a0.301 0.301 0 0 0 -0.306 -0.519c-0.45 0.303 -0.923 0.57 -1.415 0.8a126.862 126.862 0 0 1 -4.784 -23.381 3.706 3.706 0 0 0 2.263 -1.509 1.941 1.941 0 0 0 -0.354 -2.38c-0.979 -0.794 -2.839 -0.039 -2.64 2.545 0.078 1.007 0.184 0.876 -0.165 0.967a27.183 27.183 0 0 1 -4.5 0.73c-3.216 -4.407 -6.428 -0.9 -4.949 0.26 0.861 0.674 4.643 0.244 4.643 0.4 2.981 4.472 6.63 23.435 6.741 23.546 -1.14 0.172 -2.296 0.196 -3.441 0.071 -0.378 -0.043 -0.378 0.547 0 0.589a13.39 13.39 0 0 0 8.907 -2.119Zm-6.434 -26c1.142 -2.22 3.652 1.155 -0.118 2.286a4.364 4.364 0 0 1 0.118 -2.283v-0.003ZM24.3 52.111c-2.075 -0.2 0.618 -3.336 3.276 0.047 -1.091 0.07 -2.187 0.055 -3.276 -0.047Zm4.36 0.565a27.69 27.69 0 0 0 4.478 -0.754c1.647 13.208 4.529 23.278 4.875 23.452 -0.872 0.375 -1.78 0.659 -2.71 0.848 -0.05 -0.1 -3.872 -19.148 -6.647 -23.546h0.004Z" stroke-width="1"></path><path id="vector_85" fill="#501200" d="M42.138 76.953a24.188 24.188 0 0 1 -10.63 3.135c-0.377 0.021 -0.377 0.61 0 0.589a24.818 24.818 0 0 0 10.936 -3.205c0.33 -0.189 0.024 -0.708 -0.306 -0.519Z" stroke-width="1"></path><path id="vector_86" fill="#501200" d="M42.963 79.711a17.233 17.233 0 0 1 -10.489 3.559 0.3 0.3 0 0 0 0 0.589 17.64 17.64 0 0 0 10.89 -3.724c0.305 -0.235 -0.121 -0.635 -0.401 -0.424Z" stroke-width="1"></path></g><path id="vector_87" fill="#ff7449" d="M14.067 29.012c1.72 2.075 3.553 4.084 5.4 6.058 0.262 0.28 0.686 -0.144 0.424 -0.424 -1.843 -1.974 -3.674 -3.986 -5.4 -6.058 -0.326 -0.388 -0.676 0.424 -0.424 0.424Z" stroke-width="1"></path><path id="vector_88" fill="#ff7449" d="M26.087 31.2c0.094 0.378 0.656 0.214 0.566 -0.165 -0.641 -2.68 -1.286 -5.365 -1.862 -8.06 -0.076 -0.353 -0.637 -0.189 -0.566 0.165l1.862 8.06Z" stroke-width="1"></path><path id="vector_89" fill="#ff7449" d="M32.734 31.252c-0.073 0.376 0.5 0.518 0.565 0.165 0.507 -2.591 1.152 -5.126 1.839 -7.684a0.3 0.3 0 0 0 -0.566 -0.165c0.1 0 -0.729 1.959 -1.838 7.684Z" stroke-width="1"></path><path id="vector_90" fill="#ffb949" d="M185.794 72.357c-2.746 -8.01 -14.582 -11.676 -21.542 -5.492 -2.173 1.931 -3.909 5.508 -4.808 8.273 -2.074 6.376 0.171 13.956 -0.755 19.139 -0.926 -0.112 -1.4 0.918 -2.663 3.983 -0.944 2.292 -2.852 5.084 5.138 7.566 1.533 0.476 2.771 0.541 3.96 -1.65 0.785 -1.447 2.684 -4.246 1.579 -5.35 0.024 0.023 0.094 -0.142 0.094 -0.095 0.232 -0.378 0.509 -0.726 0.825 -1.037 1.855 -1.724 7.885 -3.748 13.034 -8.886 4.26 -4.249 7.183 -10.486 5.138 -16.451Z" stroke-width="1"></path><g id="group_5"><path id="vector_91" fill="#501200" d="M166.137 101.583a21.338 21.338 0 0 1 -9.121 -4.572c-0.282 -0.237 -0.712 0.171 -0.424 0.424a20.746 20.746 0 0 0 9.38 4.714c0.376 0.079 0.518 -0.49 0.165 -0.566Z" stroke-width="1"></path><path id="vector_92" fill="#501200" d="M164.935 103.94a16.153 16.153 0 0 1 -9.286 -4.172c-0.281 -0.261 -0.687 0.169 -0.424 0.425a15.595 15.595 0 0 0 9.687 4.36c0.4 0.029 0.401 -0.573 0.023 -0.613Z" stroke-width="1"></path><path id="vector_93" fill="#501200" d="M179.808 77.354c-0.564 -0.9 -1.818 -0.687 -2.546 -0.118a7.613 7.613 0 0 0 -1.108 1.225c-0.2 0.408 -3.416 -2.047 -3.771 -2.333 0 -0.071 0.024 -0.141 0.024 -0.212 0.4 -3.684 -2.371 -4.492 -3.323 -3.465 -0.932 1.005 1.024 2.531 2.663 3.936 -0.59 3.835 -9.769 19.621 -10.253 20.105a11.367 11.367 0 0 1 -2.333 -2.1c-0.238 -0.281 -0.66 0.118 -0.424 0.425a12.62 12.62 0 0 0 7.283 4.172c0.377 0.068 0.518 -0.5 0.165 -0.566a14.814 14.814 0 0 1 -1.438 -0.354c0 -0.1 3.592 -7.794 11.478 -18.714 2.938 1.394 4.326 -0.818 3.583 -2.001Zm-10.371 -4.337c0.161 -0.76 2.749 -0.593 2.4 2.687 -0.327 -0.289 -2.501 -2.204 -2.4 -2.687ZM164.3 97.883a12.034 12.034 0 0 1 -2.286 -1.108c0.325 -0.325 9.459 -15.513 10.3 -19.963a25.95 25.95 0 0 0 3.441 2.262C171.717 83.845 164.3 97.21 164.3 97.883Zm14.637 -18.927c-0.636 0.524 -1.577 0.231 -2.334 -0.094 2.06 -2.885 3.675 -1.01 2.333 0.094h0.001Z" stroke-width="1"></path></g><path id="vector_94" fill="#ff7449" d="M177.144 59.134a0.3 0.3 0 0 0 0.487 0.176 0.3 0.3 0 0 0 0.103 -0.176c-0.012 -2.5 0.016 -4.973 0.165 -7.471 0.022 -0.377 -0.566 -0.377 -0.59 0 0.101 0 -0.209 2.195 -0.165 7.471Z" stroke-width="1"></path><path id="vector_95" fill="#ff7449" d="M184.027 60.69c-0.189 0.33 0.329 0.636 0.518 0.306 1.265 -2.2 2.586 -4.384 3.818 -6.6a0.311 0.311 0 0 0 0.039 -0.11 0.308 0.308 0 0 0 -0.058 -0.224 0.301 0.301 0 0 0 -0.499 0.028l-3.818 6.6Z" stroke-width="1"></path><path id="vector_96" fill="#ff7449" d="M188.505 64.885c-0.3 0.217 0 0.734 0.306 0.519 1.971 -1.394 3.984 -2.756 6.058 -4.03 0.306 -0.189 0.023 -0.708 -0.307 -0.519 0.1 0 -2.262 1.321 -6.057 4.03Z" stroke-width="1"></path><path id="vector_97" fill="#501200" d="M182.9 99.391c-0.3 0.215 -0.019 0.738 0.307 0.519a14.265 14.265 0 0 0 6.128 -12.3c-0.021 -0.4 -0.613 -0.4 -0.613 -0.023 0.254 -0.004 0.26 7.524 -5.822 11.804Z" stroke-width="1"></path><path id="vector_98" fill="#501200" d="M191.64 94.984c-0.751 3.984 -4.216 6.475 -7.354 8.6 -0.308 0.209 -0.022 0.732 0.306 0.518 3.291 -2.146 6.859 -4.832 7.637 -8.956 0.047 -0.374 -0.518 -0.539 -0.589 -0.162Z" stroke-width="1"></path></g><g id="pencil"><g id="group_6"><path id="vector_99" fill="#ffb949" d="M73.721 106.533c-0.808 0.539 -61.647 43.375 -62.341 43.462 -5.176 -1.882 -6.763 -7.308 -5.916 -8.155 13.1 -9.965 63.141 -43.019 63.26 -43.109 1.019 0 6.332 0.465 7.189 0.542 0.066 2.327 -1.628 6.821 -2.192 7.26Z" stroke-width="1"></path><path id="vector_100" fill="#501200" d="M75.913 98.991c-0.106 -0.01 -6.946 -0.488 -7.049 -0.5 -2.686 -0.18 -61.644 41.553 -63.589 43.132 -0.567 0.46 -0.052 2.456 0.189 3.087 1.42 3.72 5.476 5.76 6.175 5.539 50.009 -34.933 61.748 -42.908 62.474 -43.414 0.706 0.005 2.887 -7.844 1.8 -7.844Zm-64.6 50.745c-2.759 -0.92 -5.773 -4.015 -5.7 -7.59 3.244 -3.012 62.854 -42.84 62.954 -42.92a47.813 47.813 0 0 0 4.809 7.213c-0.153 0.1 -62.095 43.297 -62.067 43.297h0.004Zm62.459 -43.722a49.594 49.594 0 0 1 -4.643 -6.976c1.061 0.023 2.1 0.16 3.158 0.235 1.688 0.12 0.558 -0.338 3.064 2.169 -0.36 1.577 -0.89 3.11 -1.583 4.572h0.004Z" stroke-width="1"></path></g><path id="vector_101" fill="#501200" d="M67.923 88.266a34.152 34.152 0 0 1 10.512 5.115c4.746 3.527 8.332 8.792 9.051 14.542 0.047 0.378 0.637 0.377 0.589 0C87.038 99.8 81.2 91.911 68.088 87.7c-0.444 -0.142 -0.456 0.566 -0.165 0.566Z" stroke-width="1"></path></g><g id="person 1"><path id="vector_102" fill="#f9f5e5" d="M64.01 113.651c-0.712 0.464 -1.414 0.919 -2.121 1.367a0.506 0.506 0 0 0 -0.212 -0.283c-0.825 -0.572 -1.076 0.357 -1.266 0.632a2.824 2.824 0 0 1 -0.643 0.688c-2.457 2.035 -2.379 1.978 -2.4 2.1a4.28 4.28 0 0 1 -0.99 1.956c-0.449 0.5 0.437 0.9 2.663 -0.448a11.696 11.696 0 0 0 5.374 -5.61 0.293 0.293 0 0 0 -0.405 -0.402Z" stroke-width="1"></path><path id="vector_103" fill="#f9f5e5" d="M41.969 97.106c-1.108 0 -1.43 -1.165 -2.329 -2.547 -1.311 -2.012 -1.549 -1.794 -2.758 -0.895 -3.308 2.459 -5.044 3.36 -5.256 5.468 -0.026 0.965 0.22 1.917 0.712 2.747 0.482 1.208 -0.445 2.2 -0.547 3.051 -0.13 1.079 0.524 1.607 1.6 1.744 1.663 0.211 2.466 0.533 3.158 0.024 0.589 -0.434 0.683 -1.225 1.084 -2.027 0.576 -0.959 1.4 0.1 2.64 -0.754 1.638 -1.129 1.236 -3.13 1.543 -4.844 0.234 -0.57 0.557 -1.1 0.957 -1.569 0.142 -0.214 -0.324 -0.396 -0.804 -0.398Z" stroke-width="1"></path><path id="vector_104" fill="#fccac2" d="M38.361 97.888c-0.666 0.07 -1.237 0.756 -0.536 1.6a0.977 0.977 0 0 0 1.6 -0.33 0.993 0.993 0 0 0 -1.064 -1.27Z" stroke-width="1"></path><path id="vector_105" fill="#f9f5e5" d="M41.949 134.934a0.588 0.588 0 0 0 -1.005 -0.416 0.588 0.588 0 0 0 -0.173 0.416s-16.857 -2.311 -17.017 -1.626c-2.443 10.426 -3.489 26.476 -3.489 32.337 0 0.2 3.179 0.668 5.186 0.637a0.571 0.571 0 0 0 0.565 -0.425c4.684 -23.078 3.5 -21.838 7.448 -22.556 -0.472 1.228 0.258 0.412 1.579 8.038l1.721 9.969c0.326 1.887 0.336 4.285 0.636 6.176 1.9 -0.185 3.787 -0.468 5.657 -0.849 0 -11.425 -1.108 -28.259 -1.108 -31.701Z" stroke-width="1"></path><g id="group_7"><path id="vector_106" fill="#501200" d="M64.151 113.329c-0.755 0.417 -1.48 0.887 -2.168 1.406 -0.165 -0.442 -0.771 -0.613 -1.3 -0.141 -0.236 0.212 -0.374 0.521 -0.589 0.73 -0.48 0.381 -0.937 0.79 -1.367 1.226a5.137 5.137 0 0 1 -0.684 0.754 0.287 0.287 0 0 0 -0.083 -0.223 0.283 0.283 0 0 0 -0.223 -0.083c-4.016 0.437 -9.751 0.06 -9.97 -0.377 -0.583 -2.526 -3.341 -8.784 -7.212 -10.253a6.95 6.95 0 0 0 -3.159 -0.283c0.326 -0.473 0.602 -0.979 0.825 -1.508A3.773 3.773 0 0 0 42 101.112c0.086 -0.858 -0.112 -1.779 0.26 -2.381 0.372 -0.602 1.134 -1.224 0.495 -1.885 -0.3 -0.31 -1.406 0.677 -2.4 -1.7a5.214 5.214 0 0 0 -1.462 -2.334 6.6 6.6 0 0 0 0.071 -0.683c0.23 -3.6 -2.66 -3.938 -4.973 -1.721 -1.125 1.078 -0.454 0.822 -1.721 0.731a3.858 3.858 0 0 0 -2.569 0.707c-3.08 -3.134 -6.945 -3.675 -10.418 -0.778 -2.315 1.932 -4.518 5.057 -12.146 17.775a0.357 0.357 0 0 0 0.094 0.447 17.879 17.879 0 0 0 6.506 3.041c0.71 0.118 -0.168 -0.416 7.966 -12.728 1.75 -2.648 3.727 -6.793 6.576 -6.081 -2.291 5.729 0.627 10.032 3.936 9.687a7.672 7.672 0 0 0 -0.66 2.122c-0.025 0 -0.582 -0.082 -1.178 -0.095 -5.255 -0.109 -7.249 6.707 -8.6 11.785 -0.644 2.415 -1.266 5.144 0.165 7.213 1.243 1.8 2.554 1.348 2.357 1.744 -0.024 0.1 -3.945 24.217 -4.573 39.6 -0.763 1.909 -4.238 2.335 -4.384 3.064a0.94 0.94 0 0 0 0.9 1.225c9.029 0.087 9.3 0.459 9.522 -0.589 1.4 -6.722 2.406 -13.728 4.337 -21.684 0.537 -2.213 0.617 -3.78 2.64 -4.148 1.235 2.186 4.189 23.351 4.289 23.451a15.61 15.61 0 0 0 0.212 3.112c0.225 1.058 0.485 0.843 9.523 0.589 0.913 -0.026 1.2 -1.15 0.73 -1.461 -3.267 -1.538 -3.59 -1.572 -4.195 -2.782 -0.12 -20.582 -1.2 -29.261 -1.155 -31.135 0.094 -4.01 0.5 -7.99 0.66 -12 1.405 0.504 2.871 0.813 4.36 0.919a10.848 10.848 0 0 0 8.627 -2.9c4.059 0 8.367 -5.051 9.069 -7.147 0.265 -0.81 -0.045 -1.084 -0.71 -0.763Zm-31.04 -10.19c2.128 -0.809 2.525 -3.327 1.673 -3.206a0.919 0.919 0 0 1 -1.084 -0.966 0.932 0.932 0 0 1 1.061 -0.731c0.528 0.528 3.3 -1.794 4.1 -4.761 0.683 0.707 0.843 1.771 1.343 2.569a2.475 2.475 0 0 0 2.286 1.367c-0.023 0.377 -0.612 0.943 -0.754 1.226a6.836 6.836 0 0 0 -0.283 2.593c-0.1 -0.05 -1.343 0.316 -1.343 -0.66 0 -0.734 -0.6 -0.537 -0.613 -0.189a1.505 1.505 0 0 0 1.886 1.532c-1.112 2.779 -4.14 2.654 -5.256 0.849 -0.217 -0.351 -0.78 -0.023 -0.566 0.33a3.469 3.469 0 0 0 2.168 1.532c-0.825 1.719 -1.382 2.309 -3.323 2a3.807 3.807 0 0 1 -1.909 -0.9c-0.478 -0.232 0.614 -2.166 0.614 -2.585Zm9.589 63.072a94.434 94.434 0 0 1 -5.162 0.4c-1.347 -10.426 -3.67 -22.146 -4.125 -23.193 0.107 0.025 0.21 0.065 0.307 0.118 0.306 0.212 0.613 -0.307 0.306 -0.519 -0.744 -0.512 -2.458 -0.026 -3.088 0.637 -1.511 1.591 -4.651 19.945 -5.02 22.108 -1.838 -0.165 -3.7 -0.283 -5.539 -0.424a240.214 240.214 0 0 1 3.394 -30.994c0.818 0.454 3.716 1.562 3.818 1.6 4.776 1.879 9.209 2.158 14.024 0.212C42.236 144.8 42.7 157 42.7 166.211Zm13.717 -45.678a8.916 8.916 0 0 0 1.367 -2.333 3.942 3.942 0 0 0 1.2 -1.014c0.44 -0.497 0.929 -0.947 1.461 -1.343 0.244 -0.255 0.465 -0.531 0.66 -0.825 0.659 -0.658 0.45 1.218 -0.518 2.4 -0.233 0.285 0.193 0.711 0.424 0.424a4.599 4.599 0 0 0 1.037 -2.427c0.1 0 0.483 -0.436 2.169 -1.415a11.84 11.84 0 0 1 -7.796 6.533h-0.004Z" stroke-width="1"></path><path id="vector_107" fill="#501200" d="M39.074 97.246c0.373 0.374 0.728 0.1 0.845 -0.224 0.174 -0.479 -0.531 -0.933 -0.8 -0.526a0.792 0.792 0 0 0 -0.045 0.75Z" stroke-width="1"></path></g><g id="group_8"><path id="vector_108" fill="#f9f5e5" d="M25.451 117.163c-0.534 2.67 -1.034 5.371 -1.391 8.06 -0.05 0.377 0.516 0.542 0.566 0.165 0.358 -2.713 0.869 -5.393 1.39 -8.06 0.074 -0.377 -0.49 -0.542 -0.565 -0.165Z" stroke-width="1"></path><path id="vector_109" fill="#f9f5e5" d="M42.68 122.654a15.715 15.715 0 0 1 -4.478 -3.511c-0.257 -0.286 -0.665 0.145 -0.424 0.424a15.43 15.43 0 0 0 4.6 3.606c0.322 0.169 0.63 -0.35 0.302 -0.519Z" stroke-width="1"></path></g></g></g></svg>