<svg xmlns="http://www.w3.org/2000/svg" fill="none" viewBox="0 0 200 200"><g id="remote-team--work-remote-team"><g id="laptop"><path id="vector" fill="#fccac2" d="M193.471 165.313c-10.835 -8.865 -19.373 -13.8 -30.935 -20.751 0 -43.363 1.012 -56.9 0.226 -69.259 -0.155 -2.434 0.185 -6.274 -2.389 -7.616 -1.645 -0.857 -0.111 -0.682 -41.118 -0.991 -32.46 -0.244 -12.1 -0.259 -32.579 -0.068 -46.846 0.438 -45.592 0.212 -47.157 1.059 -3.241 1.754 -2.874 5.048 -1.555 76.65 -10.477 6.286 -21.244 12.236 -30.574 20.21 -3.054 2.61 -2.565 1.794 -2.118 9.012a0.543 0.543 0 0 0 0.541 0.541c0.1 0 143.582 -0.023 188.356 -0.023a0.56 0.56 0 0 0 0.541 -0.54c0.111 -1.712 0.135 -3.426 0.248 -5.115 0.115 -1.729 -0.113 -1.985 -1.487 -3.109Z" stroke-width="1"></path><path id="vector_2" fill="#f9f5e5" d="M156.678 75.551a3.402 3.402 0 0 0 -1.915 -2.479c-1.491 -0.644 -0.971 -0.52 -38.009 -0.788 -15.27 -0.111 -66.644 0.249 -68.223 0.293 -0.915 -0.03 -1.829 0.1 -2.7 0.383 -3.252 1.278 -2.9 3.459 -1.96 67.434a0.365 0.365 0 0 0 0.008 0.358 0.372 0.372 0 0 0 0.308 0.183H156.25a0.347 0.347 0 0 0 0.257 -0.104 0.357 0.357 0 0 0 0.104 -0.257c-0.101 -6.528 1.574 -58.497 0.067 -65.023Z" stroke-width="1"></path><path id="vector_3" fill="#f9f5e5" d="M192.052 167.622c0.473 -0.067 0.27 -0.89 -0.2 -0.822 0.1 -0.01 8.112 0.012 -184.865 0.248 -0.45 0.067 -0.247 0.642 0.2 0.574h184.865Z" stroke-width="1"></path><path id="vector_4" fill="#f9f5e5" d="M38.437 144.371h123.626a0.364 0.364 0 0 0 0.342 -0.36 0.36 0.36 0 0 0 -0.342 -0.361H38.437c-0.458 -0.023 -0.445 0.721 0 0.721Z" stroke-width="1"></path><path id="vector_5" fill="#501200" d="M178.984 162.677c0.532 0 -18.2 -13.127 -19.467 -13.812 -0.257 -0.257 -119.245 0.494 -119.345 0.519 -0.788 0.262 -18.455 11.432 -19.849 12.594 -0.272 0.272 -0.242 0.741 0.112 0.811 165.64 0.554 158.334 0.552 158.233 0.541a0.38 0.38 0 0 0 0.316 -0.653Zm-8.314 -5.2h-15.163c-1.6 -1.532 -3.222 -3.041 -4.844 -4.551 13.428 0 13.272 0.033 13.428 -0.045 0.135 0.086 3.321 2.284 6.579 4.591v0.005Zm-117.317 -4.556h17.191a432.817 432.817 0 0 0 -2.141 4.551H48.4c2.817 -2.7 4.851 -4.45 4.953 -4.551Zm18 0h16.6c-0.271 1.51 -0.564 3.042 -0.856 4.551H69.169a758.16 758.16 0 0 0 2.186 -4.551h-0.002Zm17.348 0h14.871c0.135 1.51 0.247 3.042 0.315 4.551h-16.04c0.293 -1.532 0.586 -3.041 0.853 -4.551h0.001Zm15.614 0h14.96c0.659 1.48 1.223 3 1.69 4.551h-16.333a100.03 100.03 0 0 0 -0.315 -4.551h-0.002Zm15.749 -0.023h14.6c1.014 1.51 2 3.02 3 4.552h-15.931a45.185 45.185 0 0 0 -1.667 -4.55l-0.002 -0.002Zm15.479 0.023h14.014a310.294 310.294 0 0 1 4.889 4.551h-15.927a201.617 201.617 0 0 0 -2.974 -4.551h-0.002Zm23.634 -3.4c0.25 0.125 3.226 2.169 3.943 2.681h-13.246c-0.3 -0.3 -2.689 -2.4 -2.929 -2.614 3.921 -0.074 10.507 -0.069 12.234 -0.069l-0.002 0.002ZM146 149.6c0 0.24 -0.045 0.053 2.771 2.579h-13.7c-0.032 -0.032 -1.731 -2.541 -1.757 -2.579H146Zm-13.586 0.056c0.586 0.834 1.171 1.69 1.757 2.546h-14.42a16.348 16.348 0 0 1 -0.947 -2.456 1548.87 1548.87 0 0 1 13.609 -0.092l0.001 0.002Zm-14.352 0.113c0.22 0.828 0.514 1.634 0.878 2.41h-14.713c-0.105 -1.184 -0.248 -2.31 -0.248 -2.41h14.083Zm-14.78 0.09c0 0.253 0.016 -0.047 0.225 2.32H88.838c0.043 -0.228 0.383 -2.085 0.383 -2.32h14.061Zm-14.781 0.09c-0.135 0.766 -0.27 1.464 -0.405 2.23H71.715c0.338 -0.721 0.7 -1.509 1.037 -2.23h15.749Zm-16.582 0.045c-0.338 0.721 -0.676 1.442 -1.037 2.185H54.186c0.654 -0.54 1.289 -1.1 1.938 -1.644a0.322 0.322 0 0 0 0.045 -0.451c3.95 -0.032 9.264 -0.028 15.749 -0.092l0.001 0.002Zm-31.543 0.158c0.513 0.079 14.613 -0.045 15.163 -0.045a70.665 70.665 0 0 0 -2.456 2.095H37.018c0.588 -0.345 2.065 -1.357 3.357 -2.052l0.001 0.002Zm-4.507 2.748c0.1 0.053 3.193 0.023 16.38 0.023 -1.668 1.487 -3.312 3 -4.912 4.551h-18.7c0.697 -0.449 5.969 -3.812 7.232 -4.574Zm-14.4 9.294c0.624 -0.437 5.921 -3.988 6.038 -3.988h19.086c-1.586 1.587 -2.877 2.958 -3.74 3.842 -0.066 0.068 -0.09 0.079 -0.09 0.146H21.469Zm22.192 0.068c1.307 -1.374 2.614 -2.738 3.966 -4.044h20.416c-0.654 1.352 -1.285 2.692 -1.938 4.044H43.661Zm23.252 0.068c0.653 -1.352 1.284 -2.76 1.938 -4.112h18.117c-0.27 1.374 -0.54 2.715 -0.811 4.112H66.913Zm20.007 0.033c0.271 -1.374 0.541 -2.771 0.811 -4.168h16.223c0.067 1.4 0.112 2.771 0.135 4.168H86.92Zm17.89 0.045c-0.023 -1.4 -0.068 -2.816 -0.135 -4.213h16.515c0.428 1.4 0.811 2.794 1.171 4.213H104.81Zm18.3 0.045c0 -0.359 -1.024 -3.914 -1.127 -4.258h16.155c0.3 0.491 1.768 2.77 2.636 4.258H123.11Zm18.52 0.046a163.223 163.223 0 0 0 -2.636 -4.3h16.222a307.896 307.896 0 0 1 4.393 4.3H141.63Zm18.61 0.045a0.318 0.318 0 0 0 -0.045 -0.429c-1.307 -1.306 -2.613 -2.613 -3.943 -3.9h15.434c0.1 0.071 5.7 4.056 6.083 4.438 -0.102 0.001 -0.03 -0.053 -17.531 -0.111l0.002 0.002Z" stroke-width="1"></path><path id="vector_6" fill="#ffb949" d="M31.07 121.784a6.601 6.601 0 0 1 -3.38 -2.411c2.326 -2.52 1.658 -5.364 -0.09 -5.565 -1.809 -0.209 -1.912 2.791 -1.284 4.528 0.12 0.31 0.263 0.611 0.428 0.9 -1.526 1.21 -3.441 0.811 -4.213 -2.794 -0.138 -0.464 -0.13 -0.96 0.022 -1.42 0.173 -0.431 -0.534 -0.628 -0.7 -0.2a4.736 4.736 0 0 0 0.315 3.064c0.949 2.743 3.089 3.372 5 1.937a7.651 7.651 0 0 0 3.74 2.636c0.41 0.181 0.61 -0.532 0.162 -0.675Zm-4.011 -7.1c0.323 -0.323 1.075 -0.154 1.307 0.676a4.177 4.177 0 0 1 -1.081 3.38c-0.966 -1.854 -0.613 -3.666 -0.226 -4.054v-0.002Z" stroke-width="1"></path><path id="vector_7" fill="#501200" d="M156.746 107.657c-0.117 0 -53.025 1.005 -55.831 1.059l-0.383 -36.275c0.045 -0.473 -0.673 -0.473 -0.721 0 -0.061 0.6 0.343 33.023 0.383 36.32l-56.124 1.081c-0.473 0 -0.473 0.744 0 0.721l56.146 -1.059c0.006 0.518 0.368 31.117 0.474 31.588 0.1 0.449 0.811 0.271 0.7 -0.2 0.025 0.1 0.039 2.52 -0.473 -31.386l55.808 -1.081c0.494 -0.025 0.494 -0.768 0.021 -0.768Z" stroke-width="1"></path></g><g id="character4"><path id="vector_8" fill="#ff7449" d="M83.048 98.4a7.807 7.807 0 0 1 -0.766 -1.486c-0.147 -0.544 -0.059 -1.128 -0.158 -1.668 -0.309 -1.689 -1.875 -1.806 -2.185 -2.951 -0.177 -0.652 0.225 -1.293 -0.451 -2.546 -0.309 -0.574 -0.994 -1.691 -1.469 -2.59a5.386 5.386 0 0 0 -4.186 -5.259c1.251 -1.577 0.176 -3.895 -1.735 -4.664a3.064 3.064 0 0 0 -4.281 3.132 2.55 2.55 0 0 0 1.194 2.276c-4.144 2.368 -2.866 5.9 -4.37 8.449 -1.057 1.789 -3.312 2.822 -3.312 4.979 0.107 0.79 0.265 1.573 0.473 2.343 0.217 1.621 -0.757 3.221 -0.564 4.822 0.071 0.585 0.381 1.227 0.947 1.329 0.566 0.102 1.029 -0.345 1.442 -0.743a12.746 12.746 0 0 1 6.15 -3.245l1.037 -0.766a3.825 3.825 0 0 0 -0.225 -3.492c-0.423 -0.546 -0.8 -1.127 -1.127 -1.735 -0.2 -0.5 -0.312 -1.162 -0.834 -1.307a3.268 3.268 0 0 0 -0.54 -0.045 1.113 1.113 0 0 1 -0.609 -1.983c0.519 -0.359 1.4 -0.292 1.555 -0.9 0.109 -0.428 -0.221 -0.9 0.608 -1.194a36.559 36.559 0 0 1 7.526 -1.892c0.087 0.383 0.209 0.839 0.344 1.337 1 0.115 1.842 0.773 1.229 1.8a2.87 2.87 0 0 1 -0.606 0.729c0.2 4.068 -1.166 4.857 -1.689 5.459a9.817 9.817 0 0 0 0.429 2.932c1.234 -0.033 2.47 0.028 3.695 0.181a11.61 11.61 0 0 0 2.613 0.337 1.817 1.817 0 0 0 -0.135 -1.639Z" stroke-width="1"></path><path id="vector_9" fill="#ffb949" d="M92.421 108.693a31.506 31.506 0 0 0 -0.879 -5.384 0.552 0.552 0 0 0 -0.542 -0.409c-3.3 -0.036 -3.432 -0.251 -3.672 0.338 -0.137 0.334 -0.285 0.659 -0.437 0.981 -1.22 -2.56 -4.854 -5.092 -9.251 -5.059 -2.091 0.015 -1.335 3.057 -3.02 6.354a16.04 16.04 0 0 1 -2.523 -3.7 10.01 10.01 0 0 0 -0.608 -1.374c-0.065 -0.115 -0.658 -0.646 -0.992 -0.563 -4.991 1.232 -6.654 2.958 -8.516 6.106 -0.687 1.16 -2.147 3.47 -0.811 3.627 4.41 -0.237 30.068 -0.743 31.024 -0.743 0.294 0.007 0.252 0.141 0.227 -0.174Z" stroke-width="1"></path><path id="vector_10" fill="#501200" d="M92.556 101.574a3.426 3.426 0 0 0 0 -2.569 0.845 0.845 0 0 0 -0.879 -0.406 0.841 0.841 0 0 0 -1.1 -0.45 1.028 1.028 0 0 0 -1.149 -0.654 20.718 20.718 0 0 0 -0.383 -2.253c-0.167 -0.724 -0.471 -2.043 -1.509 -1.734 -0.855 0.253 -0.634 1.442 -0.586 2.095 0.074 0.87 0.194 1.734 0.36 2.591a2.113 2.113 0 0 0 -1.036 -0.023 1.421 1.421 0 0 0 -0.789 1.916c0.33 0.817 1.416 1.623 1.758 2.05 0.022 0.022 0.022 0.045 0.045 0.067l0.001 0.009a0.016 0.016 0 0 0 0.005 0.007 0.021 0.021 0 0 0 0.007 0.005 0.026 0.026 0 0 0 0.009 0.002 0.362 0.362 0 0 0 -0.225 0.248c-0.09 0.338 -0.2 0.676 -0.293 1.036 -1.956 -3.761 -5.621 -4.933 -9.846 -4.574a7.1 7.1 0 0 1 -0.315 -2.3c1.67 -1.054 1.915 -3.246 1.915 -5.227 1.688 -1.447 0.8 -3.069 -0.608 -3.244a9.44 9.44 0 0 0 -0.316 -0.766 0.362 0.362 0 0 0 -0.5 -0.135c-0.348 0.208 -0.075 0.607 0.023 0.9a2.365 2.365 0 0 0 -2 1.87 2.458 2.458 0 0 0 -0.9 0.18c-0.914 -1.826 -4.266 -1.486 -4.172 0.5a2.327 2.327 0 0 0 2.572 2.021 1.825 1.825 0 0 0 1.8 -1.848c0.309 0 -0.091 -0.214 1.082 1.194 -0.18 0.158 -0.338 0.316 -0.518 0.473a0.366 0.366 0 0 0 0.518 0.518c0.251 -0.221 0.5 -0.45 0.743 -0.7a0.381 0.381 0 0 0 0 -0.518c-0.255 -0.256 0.348 0.293 1.375 0 0.045 -0.023 0.112 -0.023 0.157 -0.045 -0.067 1.577 -0.252 3.771 -2 4.393a4.47 4.47 0 0 1 -3.087 -0.18c-0.408 -0.22 -0.789 0.408 -0.36 0.631a5.084 5.084 0 0 0 3.537 0.293 7.1 7.1 0 0 0 0.383 2.275c0 0.023 0 0.023 -0.022 0.045A40.368 40.368 0 0 1 74.6 105a16.54 16.54 0 0 1 -3.132 -5.182 0.5 0.5 0 0 0 -0.54 -0.293c-5.29 1.262 -10.115 4.486 -10.657 9.8 -0.046 0.451 0.674 0.451 0.721 0 0.393 -3.809 3.519 -6.636 6.939 -8.088a19.383 19.383 0 0 1 2.906 -0.947 19.89 19.89 0 0 0 3.65 5.746 0.358 0.358 0 0 0 0.35 0.098 0.36 0.36 0 0 0 0.259 -0.256c0.543 -2.089 1.442 -4.1 1.8 -6.241l0.023 -0.023c3.176 -0.272 6.145 0.316 8.223 2.749a9.28 9.28 0 0 1 1.33 2.186 137.76 137.76 0 0 0 -1.059 4.258c-0.107 0.452 0.6 0.63 0.7 0.18 0.429 -2.032 0.992 -4.055 1.555 -6.083l3.267 0.135c0.575 1.855 0.886 3.781 0.924 5.723 0 0.45 0.737 0.473 0.721 0 -0.05 -2.097 -0.4 -4.176 -1.037 -6.174a0.475 0.475 0 0 0 -0.113 -0.18 1.388 1.388 0 0 0 1.126 -0.834ZM70.827 90.812c-0.052 -0.522 -0.012 -0.8 0.8 -1 1.193 -0.287 2.036 0.367 2.107 1.058 0.15 1.478 -2.759 1.403 -2.907 -0.058Zm5.859 -1.74c0.622 -0.321 1.685 -0.315 1.99 0.369 0.254 0.57 -0.27 1.271 -0.878 1.588 -1.632 0.853 -2.764 -1.107 -1.112 -1.957Zm13.4 12.065c0.019 -0.112 0.453 -1.594 0.54 -2.264 0 -0.187 0.461 -0.127 0.461 0.312 0 0.03 -0.548 2.026 -0.556 2.054 -0.056 0.223 -0.602 0.307 -0.44 -0.102h-0.005Zm-0.779 -2.2a1.36 1.36 0 0 0 0.18 -0.653c0.022 -0.113 0.225 -0.068 0.293 0a0.88 0.88 0 0 1 0.248 0.586c-0.043 0.313 -0.11 0.622 -0.2 0.924a2.075 2.075 0 0 0 -0.609 -0.789c0.025 -0.022 0.07 -0.045 0.093 -0.068h-0.005Zm-0.083 2.282a0.279 0.279 0 0 1 -0.255 -0.3c0.18 0.054 0.372 0.037 0.54 -0.045a0.426 0.426 0 0 1 -0.28 0.345h-0.005Zm-1.517 -6.968c0.523 -0.459 1.084 3.345 1.071 4.457a6.367 6.367 0 0 0 -0.688 -0.289 24.211 24.211 0 0 1 -0.451 -3.469c-0.017 -0.136 -0.083 -0.562 0.073 -0.699h-0.005Zm-0.856 6.466c-0.383 -0.383 -0.921 -0.9 -0.721 -1.509 0.206 -0.63 1.148 -0.268 1.577 -0.135 0.453 0.104 0.874 0.318 1.225 0.622 0.3 0.32 0.394 0.7 -0.105 0.442 -0.385 -0.2 -0.754 -0.387 -1.143 -0.591 -0.428 -0.226 -0.789 0.429 -0.36 0.631 0.337 0.158 0.653 0.338 0.991 0.495a0.954 0.954 0 0 0 0.947 1.239 0.863 0.863 0 0 0 0.383 -0.09 0.758 0.758 0 0 0 0.991 0.361c0.022 0 0.022 0.022 0.045 0.022a0.49 0.49 0 0 0 0.18 0.113c-0.924 -0.045 -1.825 -0.068 -2.749 -0.113a1.195 1.195 0 0 0 -0.315 -0.63 11.542 11.542 0 0 1 -0.941 -0.857h-0.005Zm4.348 0.992c0.443 -1.885 0.587 -2.307 0.587 -2.451 0.1 -0.1 0.22 0.3 0.247 0.4 0.185 0.699 -0.053 2.272 -0.833 2.051h-0.001Z" stroke-width="1"></path><path id="vector_11" fill="#501200" d="M66.556 108.581v0.991a0.37 0.37 0 0 0 0.36 0.36 0.347 0.347 0 0 0 0.256 -0.104 0.35 0.35 0 0 0 0.105 -0.256v-0.991a0.36 0.36 0 1 0 -0.721 0Z" stroke-width="1"></path><path id="vector_12" fill="#501200" d="M72.684 90.646a0.361 0.361 0 0 0 0 0.721 0.361 0.361 0 0 0 0 -0.721Z" stroke-width="1"></path><path id="vector_13" fill="#501200" d="M74.261 93.766a0.352 0.352 0 0 0 -0.685 0.088 1.254 1.254 0 0 0 0.865 1.253 1.277 1.277 0 0 0 1.4 -0.518 0.37 0.37 0 0 0 -0.135 -0.5c-0.488 -0.244 -0.631 0.582 -1.148 0.277 -0.213 -0.121 -0.265 -0.514 -0.297 -0.6Z" stroke-width="1"></path><path id="vector_14" fill="#501200" d="M68.921 92.381c0.213 0.053 0.451 -0.115 0.451 -0.27 0.158 -0.634 -1.079 -0.635 -1.307 -0.293 -0.365 0.551 0.402 0.563 0.856 0.563Z" stroke-width="1"></path><path id="vector_15" fill="#501200" d="M77.145 89.677a0.361 0.361 0 0 0 0 0.721 0.361 0.361 0 0 0 0 -0.721Z" stroke-width="1"></path><g id="group"><path id="vector_16" fill="#f9f5e5" d="M70.138 102.069a0.403 0.403 0 0 0 0.386 -0.406 0.404 0.404 0 0 0 -0.386 -0.405 0.403 0.403 0 0 0 -0.386 0.405 0.404 0.404 0 0 0 0.386 0.406Z" stroke-width="1"></path><path id="vector_17" fill="#f9f5e5" d="M67.209 103.579a0.403 0.403 0 0 0 0.386 -0.406 0.404 0.404 0 0 0 -0.386 -0.405 0.403 0.403 0 0 0 -0.386 0.405 0.404 0.404 0 0 0 0.386 0.406Z" stroke-width="1"></path><path id="vector_18" fill="#f9f5e5" d="M70.093 105.584a0.403 0.403 0 0 0 0.386 -0.406 0.404 0.404 0 0 0 -0.386 -0.405 0.403 0.403 0 0 0 -0.386 0.405 0.404 0.404 0 0 0 0.386 0.406Z" stroke-width="1"></path><path id="vector_19" fill="#f9f5e5" d="M64.3 105a0.404 0.404 0 0 0 0.386 -0.406 0.404 0.404 0 0 0 -0.386 -0.405 0.403 0.403 0 0 0 -0.386 0.405 0.404 0.404 0 0 0 0.386 0.406Z" stroke-width="1"></path><path id="vector_20" fill="#f9f5e5" d="M66.961 106.643a0.403 0.403 0 0 0 0.386 -0.406 0.404 0.404 0 0 0 -0.386 -0.405 0.404 0.404 0 0 0 -0.393 0.245 0.407 0.407 0 0 0 0.393 0.566Z" stroke-width="1"></path><path id="vector_21" fill="#f9f5e5" d="M62.68 108.445a0.403 0.403 0 0 0 0.386 -0.406 0.404 0.404 0 0 0 -0.386 -0.405 0.403 0.403 0 0 0 -0.386 0.405 0.404 0.404 0 0 0 0.386 0.406Z" stroke-width="1"></path><path id="vector_22" fill="#f9f5e5" d="M65.271 108.738a0.403 0.403 0 0 0 0.386 -0.406 0.404 0.404 0 0 0 -0.386 -0.405 0.403 0.403 0 0 0 -0.386 0.405 0.404 0.404 0 0 0 0.386 0.406Z" stroke-width="1"></path><path id="vector_23" fill="#f9f5e5" d="M69.642 108.738a0.403 0.403 0 0 0 0.386 -0.406 0.404 0.404 0 0 0 -0.386 -0.405 0.403 0.403 0 0 0 -0.386 0.405 0.404 0.404 0 0 0 0.386 0.406Z" stroke-width="1"></path><path id="vector_24" fill="#f9f5e5" d="M72.436 106.846a0.403 0.403 0 0 0 0.386 -0.406 0.404 0.404 0 0 0 -0.386 -0.405 0.403 0.403 0 0 0 -0.386 0.405 0.404 0.404 0 0 0 0.386 0.406Z" stroke-width="1"></path><path id="vector_25" fill="#f9f5e5" d="M74.869 108.783a0.403 0.403 0 0 0 0.386 -0.406 0.404 0.404 0 0 0 -0.386 -0.405 0.403 0.403 0 0 0 -0.386 0.405 0.404 0.404 0 0 0 0.386 0.406Z" stroke-width="1"></path><path id="vector_26" fill="#f9f5e5" d="M78.722 108.49a0.403 0.403 0 0 0 0.386 -0.406 0.404 0.404 0 0 0 -0.386 -0.405 0.403 0.403 0 0 0 -0.386 0.405 0.404 0.404 0 0 0 0.386 0.406Z" stroke-width="1"></path><path id="vector_27" fill="#f9f5e5" d="M77.438 105.877a0.403 0.403 0 0 0 0.386 -0.406 0.404 0.404 0 0 0 -0.386 -0.405 0.403 0.403 0 0 0 -0.386 0.405 0.404 0.404 0 0 0 0.386 0.406Z" stroke-width="1"></path><path id="vector_28" fill="#f9f5e5" d="M77.889 102.362a0.403 0.403 0 0 0 0.386 -0.406 0.404 0.404 0 0 0 -0.386 -0.405 0.403 0.403 0 0 0 -0.386 0.405 0.404 0.404 0 0 0 0.386 0.406Z" stroke-width="1"></path><path id="vector_29" fill="#f9f5e5" d="M81.088 101.574a0.407 0.407 0 1 0 0 -0.814 0.407 0.407 0 0 0 0 0.814Z" stroke-width="1"></path><path id="vector_30" fill="#f9f5e5" d="M79.939 104.367a0.403 0.403 0 0 0 0.386 -0.406 0.404 0.404 0 0 0 -0.386 -0.405 0.403 0.403 0 0 0 -0.386 0.405 0.404 0.404 0 0 0 0.386 0.406Z" stroke-width="1"></path><path id="vector_31" fill="#f9f5e5" d="M81.493 107a0.403 0.403 0 0 0 0.386 -0.406 0.404 0.404 0 0 0 -0.386 -0.405 0.403 0.403 0 0 0 -0.386 0.405 0.404 0.404 0 0 0 0.386 0.406Z" stroke-width="1"></path><path id="vector_32" fill="#f9f5e5" d="M83.972 108.693a0.403 0.403 0 0 0 0.386 -0.406 0.404 0.404 0 0 0 -0.386 -0.405 0.403 0.403 0 0 0 -0.386 0.405 0.404 0.404 0 0 0 0.386 0.406Z" stroke-width="1"></path><path id="vector_33" fill="#f9f5e5" d="M83.679 104.5a0.407 0.407 0 1 0 0 -0.814 0.407 0.407 0 0 0 0 0.814Z" stroke-width="1"></path><path id="vector_34" fill="#f9f5e5" d="M85.346 106.26a0.403 0.403 0 0 0 0.386 -0.406 0.404 0.404 0 0 0 -0.386 -0.405 0.403 0.403 0 0 0 -0.386 0.405 0.404 0.404 0 0 0 0.386 0.406Z" stroke-width="1"></path><path id="vector_35" fill="#f9f5e5" d="M88.365 104.8a0.403 0.403 0 0 0 0.386 -0.406 0.404 0.404 0 0 0 -0.386 -0.405 0.403 0.403 0 0 0 -0.386 0.405 0.404 0.404 0 0 0 0.386 0.406Z" stroke-width="1"></path><path id="vector_36" fill="#f9f5e5" d="M90.641 106.012a0.403 0.403 0 0 0 0.386 -0.406 0.404 0.404 0 0 0 -0.386 -0.405 0.403 0.403 0 0 0 -0.386 0.405 0.404 0.404 0 0 0 0.386 0.406Z" stroke-width="1"></path><path id="vector_37" fill="#f9f5e5" d="M87.825 107.815a0.407 0.407 0 1 0 0 -0.814 0.407 0.407 0 0 0 0 0.814Z" stroke-width="1"></path><path id="vector_38" fill="#f9f5e5" d="M91.092 108.558a0.403 0.403 0 0 0 0.386 -0.406 0.404 0.404 0 0 0 -0.386 -0.405 0.403 0.403 0 0 0 -0.386 0.405 0.404 0.404 0 0 0 0.386 0.406Z" stroke-width="1"></path></g></g><g id="speech bubble"><path id="vector_39" fill="#f9f5e5" d="M64.956 81.026c-8.074 -5.058 -8.07 -16.434 -13.766 -23.635 -5.392 -6.815 -13.7 -7.4 -18.295 -3 -6.813 6.519 -6.2 23.644 11.04 27.623 5.861 1.352 15.9 1.155 21.111 -0.789l-0.09 -0.199Z" stroke-width="1"></path><path id="vector_40" fill="#501200" d="M65.159 80.733c-8.959 -5.644 -7.809 -19.441 -16.4 -26.294C44.1 50.727 38.668 50.5 34.72 52.682c-4.369 2.417 -6.386 7.984 -6.2 12.933 0.258 6.721 3.988 12.325 10.837 15.32 5.491 2.4 11.414 2.561 17.281 2.231a29.687 29.687 0 0 0 8.517 -1.532c0.382 -0.175 0.289 -0.687 0.004 -0.901Zm-11.536 1.8c-7.374 0.134 -15.048 -1.152 -20.12 -6.556 -7.1 -7.566 -5.024 -21.573 4.281 -23.725a12.172 12.172 0 0 1 9.305 1.848c9.619 6.222 8.058 20.813 17.326 26.992a36.381 36.381 0 0 1 -10.792 1.443v-0.002Z" stroke-width="1"></path><path id="vector_41" fill="#ff7449" d="M35.553 58.517c0.338 -0.2 0.7 -0.428 1.037 -0.63 -0.18 0.54 -0.361 1.081 -0.564 1.622a0.364 0.364 0 0 0 0.7 0.2c0.3 -0.852 0.586 -1.69 0.856 -2.569a0.368 0.368 0 0 0 -0.541 -0.406c-0.622 0.4 -1.239 0.767 -1.87 1.15a0.37 0.37 0 1 0 0.382 0.633Z" stroke-width="1"></path><path id="vector_42" fill="#ff7449" d="M34.81 65.119c-0.248 -0.113 -0.473 -0.2 -0.721 -0.316 0.185 -0.064 0.365 -0.14 0.541 -0.225 1 -0.517 1.125 -1.652 0.36 -2.14a0.866 0.866 0 0 0 -1.172 0.153 0.355 0.355 0 0 0 0.354 0.553c0.19 -0.023 0.3 -0.258 0.492 0.006 0.167 0.226 -0.038 0.485 -0.237 0.685a6.6 6.6 0 0 1 -1.622 0.676 0.36 0.36 0 0 0 0 0.63c0.516 0.23 1.03 0.464 1.554 0.676 0.524 0.212 0.804 -0.566 0.451 -0.698Z" stroke-width="1"></path><path id="vector_43" fill="#ff7449" d="M32.647 67.6a0.367 0.367 0 0 0 0.133 0.715c0.255 -0.026 0.5 -0.056 0.574 0.215 0.088 0.314 -0.275 0.35 -0.572 0.4 -0.389 0.111 -0.385 0.749 0.19 0.74 0.614 -0.01 0.775 0.814 -0.056 0.814 -0.474 0 -0.691 -0.434 -0.99 -0.135 -0.635 0.635 1.479 1.489 2.118 0.248a1.2 1.2 0 0 0 -0.226 -1.329 1.075 1.075 0 0 0 -1.171 -1.668Z" stroke-width="1"></path><path id="vector_44" fill="#ff7449" d="M50.424 63.226a96.608 96.608 0 0 0 -11.536 -3c-0.452 -0.086 -0.652 0.623 -0.2 0.7 3.92 0.69 7.777 1.694 11.536 3 0.469 0.158 0.648 -0.556 0.2 -0.7Z" stroke-width="1"></path><path id="vector_45" fill="#ff7449" d="M46.909 74.672a96.57 96.57 0 0 0 -11.536 -3c-0.451 -0.085 -0.652 0.624 -0.2 0.7a71.209 71.209 0 0 1 11.536 3c0.448 0.154 0.648 -0.557 0.2 -0.7Z" stroke-width="1"></path><path id="vector_46" fill="#ff7449" d="M48.666 68.881a81.842 81.842 0 0 0 -11.536 -3c-0.451 -0.085 -0.652 0.623 -0.2 0.7 3.922 0.676 7.78 1.68 11.535 3 0.45 0.155 0.652 -0.544 0.201 -0.7Z" stroke-width="1"></path><path id="vector_47" fill="#ff7449" d="M21.787 55.836a14.39 14.39 0 0 0 -2.906 8.7 0.361 0.361 0 0 0 0.721 0 13.086 13.086 0 0 1 2.7 -8.179 0.366 0.366 0 0 0 -0.515 -0.521Z" stroke-width="1"></path><path id="vector_48" fill="#ff7449" d="M22.283 67.935c0.049 0.473 0.781 0.474 0.721 0a14.656 14.656 0 0 1 1.261 -7.863c0.2 -0.45 -0.428 -0.811 -0.63 -0.383a16.608 16.608 0 0 0 -1.352 8.246Z" stroke-width="1"></path></g><g id="character3"><path id="vector_49" fill="#ff7449" d="M141.628 97.563c-1.8 -2.084 -4.495 -2.169 -7.48 -2.343a0.562 0.562 0 0 0 -0.564 0.563c-0.011 0.541 -0.563 0.855 -1.013 1.014 -1.8 0.635 -4.152 0.931 -4.484 -0.946a0.55 0.55 0 0 0 -0.541 -0.406c-2.638 0.242 -5.272 0.528 -6.8 2.794l-0.068 -0.135a0.571 0.571 0 0 0 -0.766 -0.2c-0.463 0.223 -3.6 0.562 -3.83 1.329 0.011 3.042 0.176 6.082 0.428 9.125 0.024 0.293 -0.18 0.209 0.135 0.2 1.442 -0.025 22.649 -0.631 28.231 -0.631 0.293 0.023 0.111 -0.022 0.09 -0.315 -0.254 -3.498 -1.026 -7.368 -3.338 -10.049Z" stroke-width="1"></path><g id="group_2"><path id="vector_50" fill="#fccac2" d="M135.139 86.23a8.139 8.139 0 0 0 -2.839 -5.294 4.683 4.683 0 0 0 -7.367 3.086 27.535 27.535 0 0 0 0.18 5.52 4.686 4.686 0 0 0 2.839 3.447c-0.469 2.438 0.382 4.51 2.816 4.078a6.49 6.49 0 0 0 2.073 -0.788c0.67 -0.526 0.556 -1.143 0.248 -3.312a1.107 1.107 0 0 1 -0.023 -0.451c0.032 -0.1 1.34 -1.966 1.346 -3.064a0.955 0.955 0 0 0 0.3 -0.068c0.202 -0.036 0.399 -0.097 0.586 -0.18a1.543 1.543 0 0 0 1.069 -1.548 1.535 1.535 0 0 0 -1.228 -1.426Z" stroke-width="1"></path><path id="vector_51" fill="#fccac2" d="m119.413 95.22 0.225 -0.225a0.566 0.566 0 0 0 0.126 -0.599 0.568 0.568 0 0 0 -0.487 -0.37 0.98 0.98 0 0 0 0.199 -0.404 0.98 0.98 0 0 0 -0.2 -0.855 0.99 0.99 0 0 0 -0.359 -0.273c0.113 -0.181 0.23 -0.358 0.36 -0.564a0.571 0.571 0 0 0 -0.008 -0.57 0.576 0.576 0 0 0 -0.492 -0.286c-1.471 0.23 -2.89 0.719 -4.191 1.442 -0.51 0.253 -0.2 0.885 0.158 1.329 -0.113 0.091 -0.248 0.181 -0.338 0.271 -0.473 0.383 0.045 1.059 0.541 0.946a0.498 0.498 0 0 1 0.18 -0.022 1.975 1.975 0 0 1 -0.2 0.36 0.586 0.586 0 0 0 0.5 0.856h0.428a3.919 3.919 0 0 0 -0.113 0.383 0.582 0.582 0 0 0 0.406 0.7c0.018 0.21 0.026 0.42 0.022 0.631a0.568 0.568 0 0 0 0.721 0.54 11.94 11.94 0 0 1 2.433 -0.631 0.56 0.56 0 0 0 0.383 -0.7 4.33 4.33 0 0 0 -0.27 -0.766c0.108 -0.07 0.206 -0.154 0.293 -0.248a0.568 0.568 0 0 0 -0.044 -0.817 0.565 0.565 0 0 0 -0.273 -0.128Z" stroke-width="1"></path></g><path id="vector_52" fill="#501200" d="M126.735 85.509a0.337 0.337 0 0 0 -0.338 0.338 0.34 0.34 0 0 0 0.338 0.338 0.337 0.337 0 0 0 0.338 -0.338 0.34 0.34 0 0 0 -0.338 -0.338Z" stroke-width="1"></path><path id="vector_53" fill="#501200" d="M130.881 85.78a0.338 0.338 0 1 0 0.036 0.674 0.338 0.338 0 0 0 -0.036 -0.674Z" stroke-width="1"></path><path id="vector_54" fill="#501200" d="M128.74 88.754c0.409 0.126 0.588 -0.523 0.181 -0.654 -0.5 -0.159 -0.792 -0.488 -0.248 -0.833 0.874 -0.438 0.837 -1.289 0.766 -2.366 -0.029 -0.428 -0.7 -0.428 -0.676 0 0.024 0.5 0.139 1.357 -0.271 1.712 -0.289 0.252 -0.671 0.25 -0.856 0.631 -0.396 0.816 0.478 1.316 1.104 1.51Z" stroke-width="1"></path><path id="vector_55" fill="#501200" d="M129.551 90.015a0.672 0.672 0 0 1 -1.261 -0.022c-0.177 -0.407 -0.764 -0.046 -0.586 0.338a1.342 1.342 0 0 0 1.932 0.58c0.217 -0.134 0.39 -0.328 0.501 -0.558 0.195 -0.387 -0.383 -0.743 -0.586 -0.338Z" stroke-width="1"></path><path id="vector_56" fill="#501200" d="M127.817 83.617a1.614 1.614 0 0 0 -1.713 0.473c-0.276 0.333 0.2 0.806 0.473 0.473a0.98 0.98 0 0 1 1.059 -0.316c0.428 0.158 0.608 -0.492 0.181 -0.63Z" stroke-width="1"></path><path id="vector_57" fill="#501200" d="M130.453 83.684c-0.429 0.087 -0.248 0.744 0.18 0.654 0.428 -0.09 0.808 0.251 1.1 0.5 0.334 0.275 0.809 -0.2 0.473 -0.473a2.11 2.11 0 0 0 -1.753 -0.681Z" stroke-width="1"></path><path id="vector_58" fill="#501200" d="M134.688 87.807c0.136 0.023 0.248 0.068 0.383 0.09a0.326 0.326 0 0 0 0.358 -0.105 0.337 0.337 0 0 0 0.071 -0.247 0.33 0.33 0 0 0 -0.248 -0.278c-0.136 -0.023 -0.248 -0.068 -0.383 -0.091a0.33 0.33 0 0 0 -0.378 0.475 0.33 0.33 0 0 0 0.197 0.156Z" stroke-width="1"></path><path id="vector_59" fill="#501200" d="M145.188 108c-0.364 -3.492 -0.743 -7.594 -3.267 -10.252a9.988 9.988 0 0 0 -8.292 -2.951c-0.3 -1.7 -0.453 -1.763 0 -2.411 0.353 -0.49 0.634 -1.03 0.834 -1.6 4.963 0.749 6.642 -8.289 2.749 -12.8 -1.963 -2.273 -5.317 -2.635 -8.156 -2.253 -6.537 0.878 -8.993 9.391 -4.484 12.437 0.052 2.343 0.746 4.343 2.974 5.069 0.023 0.563 -0.022 1.239 0.045 1.893a9.692 9.692 0 0 0 -6.8 2.794 0.773 0.773 0 0 0 -0.563 -0.406 36.887 36.887 0 0 1 -0.361 -0.879c0.536 -0.535 0.492 -1.085 0.158 -1.419a0.928 0.928 0 0 0 0.287 -0.833 0.928 0.928 0 0 0 -0.535 -0.699 1.022 1.022 0 0 0 0.095 -0.786 1.017 1.017 0 0 0 -0.5 -0.614c0.022 -0.045 0.043 -0.068 0.067 -0.113a1.268 1.268 0 0 0 0.045 -1.216c-0.627 -1.018 -4.257 0.324 -5.182 1.171a1.2 1.2 0 0 0 -0.225 1.713 1.014 1.014 0 0 0 0.315 1.644 1.026 1.026 0 0 0 0.879 1.262 0.794 0.794 0 0 0 0.405 0.924c0.187 2.055 -0.129 4.886 0.429 10.7 0.041 0.428 0.717 0.428 0.675 0a85.33 85.33 0 0 1 -0.337 -9.35 29.388 29.388 0 0 1 3.2 -0.789c0.54 -0.074 0.435 -0.005 0.7 0.36 0.188 0.344 0.339 0.706 0.451 1.082a69.6 69.6 0 0 1 2.794 8.674c0.11 0.429 0.9 0.587 0.788 0.158a97.93 97.93 0 0 0 -3.267 -9.981c0.225 -0.113 2.793 -2.966 6.624 -2.749 0.467 1.867 3.1 2.039 4.844 1.239 0.733 -0.335 1.267 -0.748 1.172 -1.6a9.288 9.288 0 0 1 7.953 3.019c2.205 2.526 2.5 6.331 2.839 9.53 0.016 0.455 0.691 0.455 0.647 0.032Zm-30.574 -15.056c0.452 -0.905 5.175 -2.4 4.168 -1.036a2.541 2.541 0 0 1 -0.7 0.586 22.986 22.986 0 0 0 -3.312 1.014c-0.247 -0.023 -0.224 -0.451 -0.156 -0.564Zm0.225 1.96a0.315 0.315 0 0 1 -0.293 -0.247c-0.074 -0.408 0.463 -0.441 0.563 -0.541 0.161 -0.062 3.923 -1.4 4.078 -1.059 0.091 0.2 -0.09 0.428 -0.248 0.563 -0.173 0.048 -4 1.135 -4.1 1.28v0.004Zm3.762 2.929c-0.694 0.194 -1.4 0.338 -2.095 0.519 -0.022 -0.158 -0.045 -0.316 -0.067 -0.5a5.725 5.725 0 0 0 2.816 -0.811c0.067 0.18 0.135 0.338 0.2 0.518 -0.313 0.094 -0.627 0.211 -0.855 0.274h0.001Zm0.519 -1.6a4.722 4.722 0 0 1 -2.546 0.9c-0.44 0.011 -0.743 -0.017 -0.5 -0.428a46.882 46.882 0 0 1 3.177 -0.969c0.5 0.002 0.242 0.187 -0.131 0.498v-0.001Zm0.045 -1.217a43.04 43.04 0 0 0 -3.447 1.037c0.1 0 -0.435 0.076 -0.564 -0.181 -0.15 -0.263 0.126 -0.329 0.248 -0.45a32.3 32.3 0 0 1 3.695 -1.059c0.18 -0.045 0.523 -0.18 0.5 0.135 -0.023 0.226 -0.252 0.384 -0.432 0.519v-0.001Zm12.5 1.622c-0.669 0.185 -1.374 0.2 -2.05 0.045 -1.424 -0.35 -1.317 -1.383 -1.4 -3.289 0.714 0.122 1.439 0.175 2.163 0.158a0.337 0.337 0 0 0 0.338 -0.338 0.34 0.34 0 0 0 -0.338 -0.338c-2.186 0.011 -4.179 -0.364 -4.844 -2.749a14.602 14.602 0 0 1 0.068 -5.9 4.166 4.166 0 0 1 5 -3.47c2.479 0.583 3.718 3.357 3.9 5.678 0 0.135 0.09 0.315 0.248 0.315 2.071 0.276 1 2.083 -0.09 1.825a0.344 0.344 0 0 0 -0.428 0.316 7.664 7.664 0 0 1 -1.42 3.4c-0.896 1.395 1.46 3.634 -1.143 4.348l-0.004 -0.001Z" stroke-width="1"></path><path id="vector_60" fill="#501200" d="M138.023 106.305c-0.053 0.608 -0.1 1.194 -0.135 1.8 -0.027 0.428 0.649 0.428 0.676 0 0.038 -0.608 0.082 -1.194 0.135 -1.8 0.039 -0.451 -0.637 -0.451 -0.676 0Z" stroke-width="1"></path><path id="vector_61" fill="#f9f5e5" d="M135.229 96.3c-0.687 2.239 -6.313 3.63 -8.584 -0.045 -0.25 -0.4 -0.874 -0.025 -0.631 0.361 2.567 4.066 8.934 2.884 9.914 -0.135 0.138 -0.426 -0.561 -0.629 -0.699 -0.181Z" stroke-width="1"></path></g><g id="balloon"><path id="vector_62" fill="#501200" d="M109.139 67.935a0.363 0.363 0 0 0 -0.39 -0.284 0.365 0.365 0 0 0 -0.331 0.352c0.014 0.569 8.408 22.927 8.408 23.028a5.15 5.15 0 0 1 0.7 -0.18c-0.002 -0.101 -8.387 -22.445 -8.387 -22.916Z" stroke-width="1"></path><path id="vector_63" fill="#ffb949" d="M112.789 40.313c-2.885 -2.907 -7.711 -3.073 -11.176 -1.2 -3.2 1.734 -5.252 4.92 -4.416 10.883 0.646 4.6 4.2 8.445 5.318 12.166a0.999 0.999 0 0 0 -0.519 0.992c-0.011 0.766 0.019 1.532 0.068 2.3 0.09 1.414 -0.037 2.47 1.4 3.019a9.978 9.978 0 0 0 4.078 0.135c1.169 -0.182 1.873 -0.56 1.96 -2.23 0.06 -1.145 0.374 -3.446 -0.631 -3.808 0.023 0 0.023 -0.113 0.023 -0.09a3.56 3.56 0 0 1 0.2 -0.9c0.564 -1.47 3.848 -4.881 5.452 -9.486 1.364 -3.914 1.329 -8.672 -1.757 -11.781Z" stroke-width="1"></path><path id="vector_64" fill="#f9f5e5" d="M102.56 64.69c-0.338 -0.315 -0.833 0.18 -0.5 0.5 1.335 1.258 2.9 2.217 4.281 3.426 0.336 0.3 0.85 -0.2 0.5 -0.5 -1.4 -1.188 -2.93 -2.163 -4.281 -3.425Z" stroke-width="1"></path><path id="vector_65" fill="#f9f5e5" d="M108.981 48.063a1.313 1.313 0 0 0 -1.69 1.127c-0.808 -0.1 -1.212 -0.123 -1.893 -0.226 0 -1.718 -1.72 -2 -2.117 -1.036a1.19 1.19 0 0 0 0.585 1.419c0.264 0.128 0.545 0.22 0.834 0.271 0 0.11 -0.267 12.674 -0.27 12.82a3.6 3.6 0 0 1 -1.487 -0.609c-0.251 -0.2 -0.473 0.113 -0.428 0.383a0.362 0.362 0 0 0 -0.248 0.609c1.937 1.937 4.337 3.3 6.241 5.272 0.321 0.332 0.833 -0.18 0.5 -0.518 -1.757 -1.758 -3.875 -3.064 -5.7 -4.754a9.243 9.243 0 0 0 5.385 0c0.382 -0.095 0.226 -0.808 -0.158 -0.7 -0.398 0.117 -0.804 0.2 -1.216 0.248 0.209 -3.839 0.624 -12.311 0.631 -12.437a1.45 1.45 0 0 0 1.6 -0.743 0.907 0.907 0 0 0 -0.569 -1.126Zm-5.07 0.248c0 -0.158 0.113 -0.2 0.271 -0.18 0.362 0.08 0.436 0.409 0.5 0.766 -0.365 -0.068 -0.793 -0.203 -0.771 -0.586Zm1.217 14.239c0.248 -12.813 0.27 -12.6 0.27 -12.82 0.26 0 1.306 0.135 1.78 0.181l-0.63 12.572c-0.471 0.06 -0.946 0.083 -1.42 0.067Zm3.38 -13.315c-0.164 0.04 -0.332 0.054 -0.5 0.045 0.09 -0.271 0.248 -0.541 0.563 -0.541 0.455 0 0.229 0.409 -0.063 0.496Z" stroke-width="1"></path><path id="vector_66" fill="#ff7449" d="M102.267 35.4a32.612 32.612 0 0 0 -2.7 -7.052c-0.224 -0.429 -0.851 -0.048 -0.631 0.36a31.706 31.706 0 0 1 2.614 6.872 0.372 0.372 0 0 0 0.717 -0.18Z" stroke-width="1"></path><path id="vector_67" fill="#ff7449" d="M109.139 26.276c0.09 -0.451 -0.606 -0.653 -0.7 -0.2 -0.57 2.775 -1.222 5.514 -1.78 8.291 -0.095 0.473 0.609 0.654 0.7 0.2l1.78 -8.291Z" stroke-width="1"></path><path id="vector_68" fill="#ff7449" d="M112.9 36.956a153.116 153.116 0 0 1 5.813 -6.264 0.365 0.365 0 0 0 0 -0.518 0.367 0.367 0 0 0 -0.518 0 133.612 133.612 0 0 0 -5.813 6.263c-0.314 0.363 0.203 0.878 0.518 0.519Z" stroke-width="1"></path></g><g id="character2"><path id="vector_69" fill="#ff7449" d="M56.011 123.135c0.084 0.047 0.184 0.06 0.278 0.035a0.375 0.375 0 0 0 0.222 -0.17c0.333 -0.557 -0.766 -0.555 -3.853 -3.582 -0.318 -0.312 -0.833 0.2 -0.5 0.518a36.59 36.59 0 0 0 3.853 3.199Z" stroke-width="1"></path><path id="vector_70" fill="#ff7449" d="M58.174 115.79a0.358 0.358 0 0 0 -0.173 -0.218 0.38 0.38 0 0 0 -0.135 -0.044 0.376 0.376 0 0 0 -0.268 0.077 0.363 0.363 0 0 0 -0.124 0.385c0.4 1.69 0.8 3.359 1.216 5.047 0.111 0.451 0.811 0.248 0.7 -0.2l-1.216 -5.047Z" stroke-width="1"></path><path id="vector_71" fill="#ff7449" d="M62.185 121.175c0.185 -1.588 0.54 -3.152 1.059 -4.664 0.156 -0.451 -0.561 -0.63 -0.7 -0.2a25.436 25.436 0 0 0 -1.081 4.866 0.362 0.362 0 0 0 0.617 0.254 0.362 0.362 0 0 0 0.105 -0.256Z" stroke-width="1"></path><path id="vector_72" fill="#501200" d="M78.226 119.868c0.171 0.238 0.368 0.458 0.586 0.654a4.927 4.927 0 0 1 -0.5 0.5 0.367 0.367 0 0 0 0.518 0.518c0.34 -0.292 0.643 -0.625 0.9 -0.992 0.291 -0.364 -0.333 -0.554 -0.434 -0.622a2.85 2.85 0 0 1 -1.03 -1.518 0.363 0.363 0 1 0 -0.7 0.2c0.133 0.46 0.357 0.889 0.66 1.26Z" stroke-width="1"></path><path id="vector_73" fill="#501200" d="M79.668 119.035a0.362 0.362 0 0 0 0 -0.721 0.362 0.362 0 0 0 0 0.721Z" stroke-width="1"></path><path id="vector_74" fill="#501200" d="M78.925 123.992c0.3 -0.407 0.375 -1.5 -0.045 -1.555a10.94 10.94 0 0 1 -1.733 -0.394c-0.317 -0.089 -0.707 -0.127 -0.791 0.191 -0.218 0.83 -0.312 1.7 0.361 2.231a1.134 1.134 0 0 0 1.149 0.2 1.93 1.93 0 0 0 1.059 -0.673Zm-0.5 -0.766c0 0.548 -0.578 0.833 -1.126 0.833 -0.682 -0.228 -0.594 -0.661 -0.361 -1.239 1.412 0.402 1.491 0.226 1.491 0.406h-0.004Z" stroke-width="1"></path><path id="vector_75" fill="#501200" d="M71.467 121.423c-0.331 -0.728 -0.3 -0.95 0.045 -1.487a1.815 1.815 0 0 0 0.428 -1.577c-0.157 -0.451 -0.858 -0.247 -0.7 0.2 0.285 0.8 -1.231 1.216 -0.563 2.906 0.25 0.452 0.453 0.928 0.608 1.42a3.828 3.828 0 0 1 -0.248 1.734 0.365 0.365 0 0 0 0.7 0.2 3.474 3.474 0 0 0 -0.27 -3.396Z" stroke-width="1"></path><path id="vector_76" fill="#501200" d="M75.365 114.1a0.387 0.387 0 0 0 -0.248 -0.451 0.372 0.372 0 0 0 -0.45 0.248c-0.7 1.814 -2.969 1.225 -3.335 2.839a0.372 0.372 0 0 0 0.248 0.45 0.383 0.383 0 0 0 0.451 -0.248c0.26 -1.156 2.492 -0.593 3.334 -2.838Z" stroke-width="1"></path><g id="group_3"><path id="vector_77" fill="#501200" d="M91.069 140.259c-1.036 -6.986 -1.508 -13.284 -8.562 -12.955a0.308 0.308 0 0 1 0.045 0.247c-1.13 3.229 -3.779 4.454 -5.88 3.876a3.848 3.848 0 0 1 -2.771 -3.38 0.236 0.236 0 0 1 0.09 -0.225c-0.246 0 -4.411 -0.845 -7.233 1.892 -1.41 1.368 -2.388 3.938 -2.974 5.813 0.068 1.4 0.147 2.815 0.181 4.214 0.006 0.247 -0.136 0.473 -0.271 0.473 -0.548 0 -0.091 -1.853 -0.608 -5.385 -0.448 -3.056 -0.126 -3.816 -0.7 -3.9a8.254 8.254 0 0 0 0.541 -2.321c0.205 -1 0.935 -1.471 0.879 -2.343a1.025 1.025 0 0 0 -1.667 -0.833c-0.551 0.407 -0.56 1.055 -1.149 1.982 -0.53 -0.794 -1.275 -0.471 -3.042 -0.991 -0.514 -0.343 -1.345 0.237 -1.059 1.284a0.876 0.876 0 0 0 -0.248 1.194 1.069 1.069 0 0 0 0.2 1.307c-0.309 0.309 -0.043 1.3 0.969 1.465a55.453 55.453 0 0 0 -0.5 8.764c0 0.317 0.44 0.451 0.541 0.451 32.751 0 32.7 0.011 32.8 0 0.373 0.047 0.465 -0.314 0.418 -0.629Zm-33.638 -9.621c0 -0.1 -0.008 0.069 0.991 0.09 0.532 0.066 1.07 0.059 1.6 -0.022 -0.284 0.568 -2.729 0.552 -2.591 -0.068Zm1.059 -0.631c-0.488 -0.032 -1.262 0 -1.262 -0.518 0.363 0.14 0.75 0.213 1.139 0.213 0.686 0.072 1.38 0.036 2.055 -0.108a1.16 1.16 0 0 1 -0.434 0.391c-0.497 0.064 -1 0.071 -1.498 0.022Zm-1.262 -1.464c-0.023 -0.023 -0.045 -0.158 0.022 -0.158 0.474 0.183 0.965 0.315 1.467 0.393a3.052 3.052 0 0 0 1.53 0.058c-0.189 0.664 -2.781 0.264 -3.019 -0.293Zm1.126 -0.428a1.142 1.142 0 0 1 -0.766 -0.5c-0.043 -0.091 -0.112 -0.36 -0.022 -0.473 1.677 0.516 2.095 0.3 2.523 0.518a0.457 0.457 0 0 1 0.271 0.27 2.203 2.203 0 0 1 -2.006 0.185Zm3.245 2.726a0.294 0.294 0 0 0 -0.068 0.18c-0.293 0.023 -0.563 0.023 -0.856 0.045a0.641 0.641 0 0 0 0.023 -0.721 0.795 0.795 0 0 0 0.135 -1.081 0.958 0.958 0 0 0 0.158 -0.7 0.178 0.178 0 0 0 0.09 -0.09 8.159 8.159 0 0 0 1.171 -2.095c0.109 -0.183 0.406 -0.586 0.654 -0.338 0.405 0.405 -0.312 1.256 -0.519 1.712 -0.487 1.077 -0.17 2.178 -0.787 3.088h-0.001Zm7.562 9.579a0.27 0.27 0 0 1 -0.456 0.181 0.27 0.27 0 0 1 -0.085 -0.181 39.41 39.41 0 0 0 0.2 -3.514 0.28 0.28 0 0 1 0.282 -0.265 0.28 0.28 0 0 1 0.281 0.265 35.07 35.07 0 0 1 -0.222 3.514Zm16.285 0.286c-0.373 0 -0.232 -0.282 -0.609 -3.222a0.26 0.26 0 0 1 0.077 -0.194 0.283 0.283 0 0 1 0.089 -0.059 0.269 0.269 0 0 1 0.105 -0.018c0.373 0 0.231 0.282 0.608 3.222a0.26 0.26 0 0 1 -0.165 0.253 0.268 0.268 0 0 1 -0.105 0.018Z" stroke-width="1"></path><path id="vector_78" fill="#501200" d="M69.282 123.879a9.29 9.29 0 0 0 -0.5 2.568c0.064 0.575 0.192 0.7 0.766 0.766a9.048 9.048 0 0 0 4.551 -0.36 0.355 0.355 0 0 0 0.218 -0.174 0.363 0.363 0 0 0 0.03 -0.277 1.698 1.698 0 0 1 -0.09 -0.36c0.326 0.202 0.684 0.347 1.059 0.428 -0.023 0.518 -0.09 1.036 -0.158 1.555 -0.04 -0.011 -0.7 -0.136 -0.743 -0.136 0.026 0.051 0.049 0.104 0.067 0.158a3.195 3.195 0 0 0 1.195 2.208c1.834 1.467 5.1 0.66 6.353 -2.884 0 -0.022 0.023 -0.045 0.045 -0.067 -0.31 0.001 -0.618 0.023 -0.924 0.067l-0.27 -1.149a5.187 5.187 0 0 0 3.515 -2.028 0.707 0.707 0 0 0 -0.023 -0.991c-0.915 -0.989 -0.379 -2.142 -0.721 -3.4 -0.207 -0.765 -0.808 -1.352 -0.923 -2.141a4.893 4.893 0 0 0 -0.519 -2.478c-0.194 -0.365 -0.432 -0.7 -0.63 -1.059 -0.464 -0.846 -0.667 -2.12 -1.8 -2.929a3.182 3.182 0 0 0 -4.213 0.563c-2.177 -0.837 -4.64 1.165 -5.7 3.02a4.123 4.123 0 0 0 -0.474 2.5 4.777 4.777 0 0 1 -0.721 2.276c-0.822 1.909 0.739 3.064 0.61 4.324Zm8.944 2.05c-0.472 0.091 -0.27 0.789 0.2 0.7a4.731 4.731 0 0 0 1.645 -0.654c0.113 0.609 0.248 1.194 0.406 1.78 -0.096 0.111 -0.18 0.232 -0.248 0.361a3.053 3.053 0 0 1 -3.087 1.216 3.19 3.19 0 0 1 -1.352 -0.653 18.02 18.02 0 0 0 0.293 -2.5 0.383 0.383 0 0 0 -0.36 -0.36 2.685 2.685 0 0 1 -1.69 -0.924c-0.554 -3.243 0.587 -4.809 0.157 -6.624a8.035 8.035 0 0 0 4.416 -2.163 5.268 5.268 0 0 0 1.69 0.788c0.528 1.338 1.5 4.072 1.307 5.52a4.19 4.19 0 0 1 -3.377 3.513Zm-9.057 -5.629c0.172 -0.678 0.6 -1.241 0.789 -1.916 0.414 -1.5 -0.565 -2.151 1.239 -4.19 1 -1.135 2.634 -2.452 4.236 -1.645a0.367 0.367 0 0 0 0.495 -0.135 2.483 2.483 0 0 1 3.4 -0.586c0.964 0.658 0.829 1.44 2.1 3.537 0.372 0.635 0.552 1.365 0.518 2.1 0.073 0.731 0.338 1.43 0.766 2.027 0.719 1.4 -0.17 2.962 1.1 4.236a4.69 4.69 0 0 1 -1.149 1.082c-0.59 0.384 -1.26 0.624 -1.96 0.7 0 -0.022 0 -0.022 -0.023 -0.045a4.669 4.669 0 0 0 1.532 -2.7c0.293 -1.739 -0.62 -4.395 -1.261 -6.038 0.141 -0.378 -0.241 -0.608 -0.676 -0.608a5.054 5.054 0 0 1 -1.6 -0.834 0.388 0.388 0 0 0 -0.451 0.068 7.44 7.44 0 0 1 -4.483 2.23c-0.24 0.04 -0.5 0.273 -0.406 0.541 0.688 1.854 -0.958 3.721 0.2 8.134 -1.31 0.42 -2.71 0.489 -4.055 0.2 0 -1.652 0.308 -1.33 0.473 -2.41 0.233 -1.508 -1.105 -2.486 -0.784 -3.748Z" stroke-width="1"></path></g><path id="vector_79" fill="#501200" d="M77.731 113.47a1.944 1.944 0 0 1 1.464 0.969 0.36 0.36 0 0 0 0.22 0.17 0.364 0.364 0 0 0 0.411 -0.531 2.581 2.581 0 0 0 -2.095 -1.352c-0.519 0 -0.442 0.744 0 0.744Z" stroke-width="1"></path><path id="vector_80" fill="#501200" d="M75.816 119.88a0.362 0.362 0 0 0 0 -0.721 0.362 0.362 0 0 0 0 0.721Z" stroke-width="1"></path></g><g id="character1"><g id="group_4"><path id="vector_81" fill="#ffb949" d="M130.948 130.616a3.628 3.628 0 0 0 2.276 -3.65 6.411 6.411 0 0 0 -1.87 0.63c-0.268 0.14 -0.09 0.519 0.18 0.5 0 0.11 0.248 0.894 -0.045 1.217a4.142 4.142 0 0 1 -2.794 0.653c-1.18 -0.122 -2.844 -1.009 -2.884 -2.185a0.285 0.285 0 0 0 -0.09 -0.383 8.042 8.042 0 0 0 -1.126 -0.406c0.073 2.945 3.43 4.54 6.353 3.624Z" stroke-width="1"></path><path id="vector_82" fill="#ffb949" d="M136.694 133.3c0.135 -0.586 0.27 -1.172 0.428 -1.758 -0.235 0 -1.462 -0.92 -3.966 -1.87 -0.022 0 -0.045 -0.022 -0.067 -0.022a3.608 3.608 0 0 1 -2.366 1.645 5.76 5.76 0 0 1 -5.768 -1.758c-0.1 0.1 -5.172 1.149 -5.272 1.149l0.068 0.744a47.852 47.852 0 0 1 16.943 1.87Z" stroke-width="1"></path><path id="vector_83" fill="#ffb949" d="M119.322 128.115a0.327 0.327 0 0 1 0.136 -0.045c1.554 -0.136 3.086 -0.293 4.641 -0.428a2.901 2.901 0 0 1 -0.045 -0.767 11.97 11.97 0 0 0 -4.979 0.046c0.09 0.379 0.18 0.788 0.247 1.194Z" stroke-width="1"></path><path id="vector_84" fill="#ffb949" d="M114.929 134.243a52.975 52.975 0 0 1 -1.555 -5.295c-0.613 0.307 -1.477 0.675 -2.974 1.487 1.521 1.521 0.115 0.277 4.529 3.808Z" stroke-width="1"></path><path id="vector_85" fill="#ffb949" d="M137.279 131.021c0.243 -0.848 0.341 -1.136 0.451 -1.464 -0.372 0 -1.017 -0.513 -4.033 -1.4 -0.071 0.34 -0.177 0.672 -0.315 0.991a26.634 26.634 0 0 1 3.897 1.873Z" stroke-width="1"></path><path id="vector_86" fill="#ffb949" d="M119.413 128.633c0.09 0.5 0.157 0.991 0.225 1.487a31.74 31.74 0 0 1 5 -1.059 3.392 3.392 0 0 1 -0.406 -0.879c-0.045 0.023 -0.067 0.023 -0.112 0.045 -2.227 0.194 -4.126 0.406 -4.707 0.406Z" stroke-width="1"></path><path id="vector_87" fill="#ffb949" d="m119.818 131.99 0.068 1.059a0.324 0.324 0 0 1 0.157 -0.045c5.9 -0.328 11.374 1.352 16.448 1.352 0.045 -0.158 0.067 -0.338 0.113 -0.5a48.15 48.15 0 0 0 -16.786 -1.866Z" stroke-width="1"></path><path id="vector_88" fill="#ffb949" d="M114.14 134.491c0.045 -0.023 0.091 -0.023 0.136 -0.045 -4.1 -3.213 -3.306 -2.652 -4.371 -3.718a7.703 7.703 0 0 0 -3.448 3.335 33.681 33.681 0 0 1 7.683 0.428Z" stroke-width="1"></path><path id="vector_89" fill="#ffb949" d="M143.7 136.113a0.296 0.296 0 0 1 -0.096 -0.12 0.316 0.316 0 0 1 -0.026 -0.152 0.314 0.314 0 0 1 0.167 -0.246 0.283 0.283 0 0 1 -0.278 -0.16 0.258 0.258 0 0 1 -0.027 -0.109 0.283 0.283 0 0 1 0.171 -0.272 0.3 0.3 0 0 1 0.111 -0.022 668.4 668.4 0 0 0 7.863 -0.564 10.06 10.06 0 0 0 -2.816 -2.658 36.634 36.634 0 0 0 -4.8 2.929c-0.272 0.223 -0.681 -0.164 -0.406 -0.406a30.593 30.593 0 0 1 4.642 -2.884 21.927 21.927 0 0 0 -3.47 -1.6 12.903 12.903 0 0 0 -1.1 1.779c-0.533 0.906 -1.068 1.775 -1.6 2.682a0.289 0.289 0 0 1 -0.495 -0.293c0.085 -0.147 2.421 -4.081 2.636 -4.371 -0.935 -0.338 -2.9 -1 -3 -1.037 -0.5 1.87 -1.011 3.757 -1.532 5.633a0.283 0.283 0 0 1 -0.512 0.051 0.282 0.282 0 0 1 -0.029 -0.209c0.51 -1.9 1.037 -3.785 1.532 -5.677 -0.585 -0.2 -1.149 -0.406 -1.734 -0.609a5.894 5.894 0 0 0 -0.519 1.285c-1.809 5.574 -1.064 5.821 -2.027 5.812 -5.563 -0.051 -10.961 -1.695 -16.4 -1.351a0.272 0.272 0 0 1 -0.135 -0.023v0.518a0.28 0.28 0 0 1 -0.282 0.265 0.28 0.28 0 0 1 -0.281 -0.265 32.672 32.672 0 0 0 -0.811 -7.029 14.14 14.14 0 0 0 -2.141 0.653c0.5 2.05 0.95 4.142 1.24 6.241 0.049 0.36 -0.491 0.518 -0.541 0.158 -0.288 -2.077 -0.721 -4.146 -1.217 -6.2 -0.653 0.248 -1.307 0.541 -1.937 0.833 1.191 5.206 2.057 5.764 1.4 5.858 0.068 0.158 -0.09 0.338 -0.27 0.361a0.3 0.3 0 0 1 -0.338 0.225 4.26 4.26 0 0 1 -0.5 -0.09c-0.853 0.285 -7.267 3.509 -7.367 3.56 0.916 1.333 2.55 1.69 4.281 1.938a11.29 11.29 0 0 1 1.96 -3.042 48.865 48.865 0 0 1 2.568 -3.064c0.248 -0.271 0.637 0.14 0.406 0.405 -0.922 1.062 -3.9 4.472 -4.348 5.813 1.635 0.24 3.617 0.309 3.717 0.316a16.206 16.206 0 0 1 2.3 -6.241 0.29 0.29 0 0 1 0.29 -0.141 0.287 0.287 0 0 1 0.106 0.038 0.279 0.279 0 0 1 0.134 0.176 0.287 0.287 0 0 1 -0.03 0.22A16.927 16.927 0 0 0 115.92 141c0.834 0.023 1.645 0.045 2.479 0.045a19.887 19.887 0 0 1 1.6 -6.263c0.131 -0.34 0.673 -0.182 0.541 0.157a20.163 20.163 0 0 0 -1.6 6.129c1.606 0 1.974 0.022 2.5 0.022 0.213 -2.025 0.652 -4.02 1.307 -5.948 0.114 -0.337 0.656 -0.2 0.541 0.158a32.69 32.69 0 0 0 -1.307 5.79c6.039 0.129 12.282 -0.092 16.335 -0.315 -0.023 -0.023 -0.023 -0.068 -0.045 -0.113 -0.18 -1.757 -0.421 -3.512 -0.654 -5.249 -0.048 -0.36 0.493 -0.5 0.541 -0.158 0.214 1.51 0.676 5.034 0.676 5.5 0.028 0 2.926 -0.156 4.889 -0.293 -0.317 -0.158 -0.155 -2.083 -2.073 -5.069 -0.2 -0.315 0.3 -0.589 0.5 -0.293a13.193 13.193 0 0 1 2.005 5.047 0.318 0.318 0 0 1 -0.112 0.293 47.546 47.546 0 0 0 5.655 -0.676c-1.604 -1.713 -4.037 -2.344 -5.998 -3.651Zm-11.018 4.641a13.74 13.74 0 0 1 -0.067 -4.551c0.023 -0.157 0.225 -0.225 0.338 -0.2 0.068 0.023 0.126 0.07 0.163 0.132 0.037 0.062 0.05 0.135 0.037 0.206a12.82 12.82 0 0 0 0.068 4.259c0.069 0.358 -0.474 0.493 -0.538 0.154h-0.001Zm2.884 -0.09a25.52 25.52 0 0 1 -0.248 -4.979c0.021 -0.361 0.585 -0.361 0.564 0a25.166 25.166 0 0 0 0.225 4.822c0.049 0.36 -0.49 0.517 -0.54 0.157h-0.001Zm5.182 -0.248c-0.3 -1.73 -0.615 -3.44 -0.969 -5.159 -0.073 -0.359 0.472 -0.5 0.541 -0.158 0.352 1.714 0.66 3.428 0.969 5.16 0.065 0.361 -0.478 0.519 -0.54 0.157h-0.001Z" stroke-width="1"></path><path id="vector_90" fill="#ffb949" d="M151.924 135.032c-2.658 0.18 -5.339 0.383 -8 0.563 0.023 0 0.045 0.022 0.068 0.045 2.072 1.374 4.663 2.028 6.331 3.988a3.63 3.63 0 0 0 2.073 -2.366 3.079 3.079 0 0 0 -0.293 -1.892 2.539 2.539 0 0 1 -0.179 -0.338Z" stroke-width="1"></path><path id="vector_91" fill="#ffb949" d="M113.1 134.9a33.39 33.39 0 0 0 -6.872 -0.247 4.536 4.536 0 0 0 0.271 3.469c4.324 -2.122 5.448 -2.647 6.601 -3.222Z" stroke-width="1"></path><path id="vector_92" fill="#ffb949" d="M133.765 127.574a37.7 37.7 0 0 1 4.055 1.464 0.046 0.046 0 0 1 0.031 0.015 0.05 0.05 0 0 1 0.014 0.031 7.12 7.12 0 0 1 0.563 -1.42 11.477 11.477 0 0 0 -4.618 -0.743c-0.023 0.202 -0.023 0.428 -0.045 0.653Z" stroke-width="1"></path></g><path id="vector_93" fill="#f9f5e5" d="M131.016 135.482a17.639 17.639 0 0 1 -3.56 0.451 0.876 0.876 0 0 0 -0.859 0.547 0.871 0.871 0 0 0 -0.065 0.353 0.323 0.323 0 0 0 -0.135 0.045 6.84 6.84 0 0 0 -3.2 1.037 0.488 0.488 0 0 0 -0.204 0.161 0.489 0.489 0 0 0 -0.089 0.244 3.785 3.785 0 0 0 -0.5 0.383 0.577 0.577 0 0 0 0.002 0.794 0.574 0.574 0 0 0 0.246 0.152c2.125 0.57 4.311 0.881 6.511 0.924a0.582 0.582 0 0 0 0.549 -0.464 0.572 0.572 0 0 0 -0.008 -0.257c-0.481 -2.724 -0.479 -2.626 -0.5 -2.726 0.67 -0.233 1.356 -0.421 2.051 -0.563a0.565 0.565 0 0 0 0.376 -0.234 0.555 0.555 0 0 0 -0.615 -0.847Z" stroke-width="1"></path><path id="vector_94" fill="#501200" d="M126.375 125.231c0.098 0.133 0.203 0.261 0.315 0.383 -0.135 0.383 -0.277 0.763 -0.406 1.126 -0.418 1.181 -0.776 1.351 -0.045 2.118a4.837 4.837 0 0 0 5.2 0.811c0.494 -0.206 0.385 -0.676 0.293 -1.1 -0.088 -0.406 -0.18 -0.788 -0.293 -1.171a12.718 12.718 0 0 0 2.321 -1.825c0.105 0.062 0.219 0.107 0.338 0.135a1.357 1.357 0 0 0 1.621 -0.496 1.359 1.359 0 0 0 -0.134 -1.69c1.288 -1.426 2.795 -2.842 3.086 -4.393 0.8 -4.244 -3.978 -4.372 -4.078 -4.439a11.624 11.624 0 0 0 -1.78 -2.455c-1.658 -1.6 -3.669 -1.73 -4.664 -0.969 -1.212 0.928 -0.836 3.663 0.068 5.069 -1.207 1.663 -2.852 4.957 -2.613 6.985a4.02 4.02 0 0 0 0.771 1.911Zm0.135 -4.1a15.155 15.155 0 0 1 2.3 -4.551 4.726 4.726 0 0 0 2.636 -0.518 2.04 2.04 0 0 0 2.185 0.833c0.18 0.934 0.574 1.813 1.15 2.569 -0.313 0.68 -1.09 2.73 -0.812 3.425a0.33 0.33 0 0 0 -0.084 0.147 0.319 0.319 0 0 0 0.242 0.393c1.681 0.385 1.331 2.151 0.068 1.645 -0.292 -0.117 -0.517 -0.269 -0.811 -0.045a12.583 12.583 0 0 1 -2.524 1.96 0.347 0.347 0 0 0 -0.158 0.383c0.108 0.358 0.451 1.628 0.451 1.758 -0.1 -0.034 -2.694 1.046 -4.3 -0.564 -0.09 -0.09 -0.336 -0.27 -0.361 -0.405 -0.021 -0.113 0.113 -0.338 0.158 -0.473 0.045 -0.135 0.481 -1.283 0.586 -1.578 0.312 0.249 0.662 0.447 1.036 0.586 0.408 0.152 0.563 -0.473 0.18 -0.631a3.776 3.776 0 0 1 -2.185 -2.816 4.444 4.444 0 0 1 0.243 -2.119v0.001Z" stroke-width="1"></path><path id="vector_95" fill="#501200" d="M134.1 124.465c0.372 0 0.28 0.17 0.5 0.249a0.341 0.341 0 0 0 0.414 -0.258c0.067 -0.225 -0.111 -0.329 -0.416 -0.532 -0.989 -0.424 -0.91 0.541 -0.498 0.541Z" stroke-width="1"></path><path id="vector_96" fill="#501200" d="M128.583 119.238c0.087 0 0.17 -0.034 0.231 -0.096a0.323 0.323 0 0 0 0.096 -0.231 0.323 0.323 0 0 0 -0.096 -0.231 0.323 0.323 0 0 0 -0.231 -0.096 0.323 0.323 0 0 0 -0.231 0.096 0.323 0.323 0 0 0 -0.096 0.231c0 0.087 0.034 0.17 0.096 0.231a0.323 0.323 0 0 0 0.231 0.096Z" stroke-width="1"></path><path id="vector_97" fill="#501200" d="M131.714 120.522c0.087 0 0.17 -0.034 0.231 -0.096a0.323 0.323 0 0 0 0.096 -0.231 0.323 0.323 0 0 0 -0.096 -0.231 0.323 0.323 0 0 0 -0.231 -0.096 0.323 0.323 0 0 0 -0.231 0.096 0.323 0.323 0 0 0 -0.096 0.231c0 0.087 0.034 0.17 0.096 0.231a0.323 0.323 0 0 0 0.231 0.096Z" stroke-width="1"></path><path id="vector_98" fill="#501200" d="M132.345 118.472a1.18 1.18 0 0 1 0.721 0.7c0.1 0.311 0.747 0.18 0.612 -0.267 -0.193 -0.641 -1.4 -1.435 -1.581 -0.814a0.396 0.396 0 0 0 0.248 0.381Z" stroke-width="1"></path><path id="vector_99" fill="#501200" d="M128.966 117.638a1.49 1.49 0 0 1 0.878 -0.068 0.33 0.33 0 0 0 0.25 -0.028 0.33 0.33 0 0 0 0.128 -0.447 0.33 0.33 0 0 0 -0.197 -0.156 2.284 2.284 0 0 0 -1.24 0.068 0.304 0.304 0 0 0 -0.203 0.153 0.312 0.312 0 0 0 -0.022 0.253 0.364 0.364 0 0 0 0.406 0.225Z" stroke-width="1"></path><path id="vector_100" fill="#501200" d="M129.506 122.1a0.325 0.325 0 0 0 0.249 0.037 0.339 0.339 0 0 0 0.202 -0.149 0.344 0.344 0 0 0 0.037 -0.249 0.335 0.335 0 0 0 -0.15 -0.202 9.795 9.795 0 0 1 -0.991 -0.541c0.259 -0.389 0.574 -0.4 1.893 -1.983a0.336 0.336 0 0 0 -0.24 -0.564 0.337 0.337 0 0 0 -0.234 0.091 15.15 15.15 0 0 1 -1.757 1.825 0.75 0.75 0 0 0 -0.318 0.516 0.75 0.75 0 0 0 0.16 0.584c0.13 0.096 1.007 0.563 1.149 0.635Z" stroke-width="1"></path><path id="vector_101" fill="#501200" d="M128.222 124.307a1.472 1.472 0 0 0 1.329 -0.5 0.344 0.344 0 0 0 0.073 -0.108 0.347 0.347 0 0 0 0 -0.256 0.337 0.337 0 0 0 -0.31 -0.207 0.328 0.328 0 0 0 -0.127 0.026 0.319 0.319 0 0 0 -0.109 0.072 0.74 0.74 0 0 1 -0.785 0.3c-0.388 -0.11 -0.1 -0.6 -0.476 -0.7a0.33 0.33 0 0 0 -0.406 0.225 1.078 1.078 0 0 0 0.811 1.148Z" stroke-width="1"></path><path id="vector_102" fill="#501200" d="M143.16 134.6a25.881 25.881 0 0 0 -7.255 0.338c-1.082 0.178 -2.185 0.361 -3.244 0.631 -0.829 -0.829 -1.908 -0.439 -5.994 -0.022a0.584 0.584 0 0 0 -0.292 -0.2 38.244 38.244 0 0 0 -4.529 -0.856 37.207 37.207 0 0 0 -6.286 -0.293c-0.473 0.019 -0.473 0.74 0 0.721a35.96 35.96 0 0 1 10.5 1.081c0 0.2 -0.022 0.333 -0.022 0.474 -0.107 0.015 -1.416 0.13 -2.366 0.337a1.083 1.083 0 0 0 -0.879 0.722 0.988 0.988 0 0 0 -0.44 0.358 0.99 0.99 0 0 0 -0.168 0.542 0.788 0.788 0 0 0 -0.271 1.171c-0.337 0.586 0.721 1.24 7.8 1.217 0.356 0 0.651 -0.08 0.563 -0.473 -0.016 -0.1 -0.405 -2.727 -0.405 -2.974h0.022a0.716 0.716 0 0 1 0.226 -0.113 30.688 30.688 0 0 1 13.2 -1.937 0.347 0.347 0 0 0 0.257 -0.104 0.373 0.373 0 0 0 0.078 -0.118 0.364 0.364 0 0 0 0.025 -0.139 0.79 0.79 0 0 0 -0.52 -0.363Zm-17.1 5.36a0.355 0.355 0 0 0 0.046 -0.18 0.352 0.352 0 0 0 -0.049 -0.179 0.368 0.368 0 0 0 -0.311 -0.179 17.315 17.315 0 0 1 -3.087 -0.135c-0.09 -0.045 -0.158 -0.158 -0.09 -0.2 0.151 0.151 0 0.114 3.627 -0.045 0.474 -0.021 0.473 -0.742 0 -0.721 -1.081 0.049 -2.163 0.09 -3.221 0.136 -0.023 -0.113 0.112 -0.226 0.247 -0.2l3.493 -0.067a0.364 0.364 0 0 0 0.342 -0.36 0.36 0.36 0 0 0 -0.342 -0.361c-0.856 0.032 -1.69 0.022 -2.547 0.045a15.809 15.809 0 0 1 4.957 -0.248c-0.076 0.4 0.047 0.425 0.387 2.832 -0.528 -0.025 -1.997 -0.091 -3.454 -0.135l0.002 -0.003Zm3.516 -3.332a8.552 8.552 0 0 0 -2.839 -0.18 0.369 0.369 0 0 1 0.023 -0.158c0.968 -0.112 1.914 -0.21 2.883 -0.315a8.171 8.171 0 0 1 2.006 -0.113 11.44 11.44 0 0 0 -2.075 0.769l0.002 -0.003Z" stroke-width="1"></path></g></g></svg>