<svg xmlns="http://www.w3.org/2000/svg" viewBox="0 0 200 200"><g><g><path d="M35.82 32.8c30.37 -5.61 112.51 -20.94 115.08 -21.6 1.9 -0.48 11.23 -3.14 11 10.28 -0.19 11.13 -0.29 13.8 -0.29 13.8s20.56 -3.43 22.84 -3.62c6.67 -0.47 9.71 3.14 9.81 11 0.19 10.66 0 60.25 0 63.87 0 4.47 -3.24 9.9 -10.57 11.23 -4.85 0.86 -23.51 4.47 -23.51 4.47s-0.09 18.75 -0.09 20.85c-0.1 3 -0.67 8 -9.33 9.8 -9.52 2 -76.9 14.37 -80.9 15.42 -3.81 1 -12.66 1.62 -13 -8.76 -0.38 -9.32 -0.1 -31.6 -0.1 -31.6s-15.76 2.8 -22.27 3.56c-4.66 0.58 -9.9 0.2 -9.9 -8.66 0 -11.23 -0.57 -72.33 -0.57 -74.52 -0.19 -2.19 -1.24 -13.14 11.8 -15.52Z" fill="#f9f5e5" stroke-width="1"></path><path d="M161.18 59.55a0.61 0.61 0 0 1 -0.58 -0.48c-0.09 -0.28 0.19 -0.57 0.48 -0.66l24.18 -3.91c0.28 -0.09 0.57 0.19 0.66 0.48s-0.19 0.57 -0.47 0.67Z" fill="#501200" stroke-width="1"></path><path d="M156.89 60.22a0.62 0.62 0 0 1 -0.57 -0.48c-0.09 -0.29 0.19 -0.57 0.48 -0.67l2.19 -0.38c0.28 -0.09 0.57 0.19 0.66 0.48s-0.19 0.57 -0.47 0.66Z" fill="#501200" stroke-width="1"></path><path d="M152.9 60.88a0.61 0.61 0 0 1 -0.58 -0.47c-0.09 -0.29 0.19 -0.58 0.48 -0.67l2.19 -0.38c0.28 -0.1 0.57 0.19 0.67 0.47s-0.2 0.58 -0.48 0.67Z" fill="#501200" stroke-width="1"></path><path d="M138.9 63.07a0.61 0.61 0 0 1 -0.57 -0.48c-0.09 -0.28 0.19 -0.57 0.48 -0.66l12 -1.91c0.29 -0.09 0.57 0.2 0.67 0.48s-0.19 0.57 -0.48 0.67Z" fill="#501200" stroke-width="1"></path><path d="M135.38 63.64a0.61 0.61 0 0 1 -0.57 -0.47c-0.09 -0.29 0.19 -0.58 0.48 -0.67l1.81 -0.29c0.28 -0.09 0.57 0.19 0.66 0.48s-0.19 0.57 -0.47 0.67c-0.1 0 -1.91 0.28 -1.91 0.28Z" fill="#501200" stroke-width="1"></path><path d="M131.86 64.21a0.59 0.59 0 0 1 -0.57 -0.47c-0.1 -0.29 0.19 -0.57 0.48 -0.67l1.61 -0.28c0.29 -0.1 0.57 0.19 0.67 0.47s-0.19 0.57 -0.48 0.67a11.28 11.28 0 0 1 -1.71 0.28Z" fill="#501200" stroke-width="1"></path><path d="M123.67 65.55a0.61 0.61 0 0 1 -0.57 -0.48c-0.09 -0.29 0.19 -0.57 0.48 -0.67l6.19 -1c0.28 -0.1 0.57 0.19 0.66 0.47s-0.19 0.57 -0.47 0.67c0.04 0.05 -6.29 1.01 -6.29 1.01Z" fill="#501200" stroke-width="1"></path><path d="M166.89 68a0.59 0.59 0 0 1 -0.57 -0.48 0.71 0.71 0 0 1 0.47 -0.66L185.73 64a0.72 0.72 0 0 1 0.67 0.48 0.71 0.71 0 0 1 -0.48 0.66c0 0.12 -19.03 2.86 -19.03 2.86Z" fill="#501200" stroke-width="1"></path><path d="M155.08 69.83a0.61 0.61 0 0 1 -0.57 -0.48 0.71 0.71 0 0 1 0.48 -0.66l7.8 -1.15a0.58 0.58 0 1 1 0.19 1.15Z" fill="#501200" stroke-width="1"></path><path d="M143.85 71.54a0.61 0.61 0 0 1 -0.57 -0.47 0.71 0.71 0 0 1 0.48 -0.67l4.66 -0.67a0.72 0.72 0 0 1 0.67 0.48 0.73 0.73 0 0 1 -0.48 0.67c0 -0.1 -4.76 0.66 -4.76 0.66Z" fill="#501200" stroke-width="1"></path><path d="M132.24 73.25a0.61 0.61 0 0 1 -0.57 -0.47 0.72 0.72 0 0 1 0.48 -0.67l7.9 -1.14a0.58 0.58 0 0 1 0.19 1.14c0 -0.11 -7.9 1.14 -8 1.14Z" fill="#501200" stroke-width="1"></path><path d="M123.67 74.49a0.61 0.61 0 0 1 -0.57 -0.47 0.72 0.72 0 0 1 0.48 -0.67l5.62 -0.86a0.71 0.71 0 0 1 0.66 0.48 0.73 0.73 0 0 1 -0.47 0.67s-5.62 0.85 -5.72 0.85Z" fill="#501200" stroke-width="1"></path><path d="M147.76 100.86a0.61 0.61 0 0 1 -0.58 -0.48c-0.09 -0.28 0.19 -0.57 0.48 -0.67l3.71 -0.66c0.29 -0.1 0.57 0.19 0.67 0.47s-0.19 0.58 -0.48 0.67c0.1 0 -3.71 0.67 -3.8 0.67Z" fill="#ffb949" stroke-width="1"></path><path d="M132.72 103.33a0.59 0.59 0 0 1 -0.57 -0.47c-0.1 -0.29 0.19 -0.58 0.47 -0.67l13.14 -2.19c0.28 -0.09 0.57 0.19 0.66 0.48s-0.19 0.57 -0.47 0.66Z" fill="#ffb949" stroke-width="1"></path><path d="M128.05 104.09a0.61 0.61 0 0 1 -0.57 -0.47c-0.09 -0.29 0.19 -0.57 0.48 -0.67l2.38 -0.38c0.28 -0.1 0.57 0.19 0.66 0.48s-0.19 0.57 -0.47 0.66Z" fill="#ffb949" stroke-width="1"></path><path d="M124.06 104.76a0.61 0.61 0 0 1 -0.58 -0.48c-0.09 -0.28 0.19 -0.57 0.48 -0.66l2.09 -0.38c0.29 -0.1 0.58 0.19 0.67 0.47s-0.19 0.57 -0.48 0.67c0 0 -2.09 0.38 -2.18 0.38Z" fill="#ffb949" stroke-width="1"></path><path d="M106.07 107.81a0.6 0.6 0 0 1 -0.57 -0.48c-0.1 -0.29 0.19 -0.57 0.47 -0.67l15.8 -2.66c0.29 -0.1 0.57 0.19 0.67 0.47s-0.19 0.57 -0.48 0.67Z" fill="#ffb949" stroke-width="1"></path><path d="M101.59 108.47a0.61 0.61 0 0 1 -0.59 -0.47c-0.09 -0.29 0.19 -0.58 0.48 -0.67l3 -0.48c0.28 -0.09 0.57 0.19 0.66 0.48s-0.19 0.57 -0.47 0.67c0.06 0 -2.98 0.47 -3.08 0.47Z" fill="#ffb949" stroke-width="1"></path><path d="M97.22 109.23a0.61 0.61 0 0 1 -0.58 -0.47c-0.09 -0.29 0.19 -0.57 0.48 -0.67l2.86 -0.48c0.28 -0.09 0.57 0.2 0.66 0.48s-0.19 0.57 -0.47 0.67c0 0 -2.86 0.47 -2.95 0.47Z" fill="#ffb949" stroke-width="1"></path><path d="M131.1 112a0.59 0.59 0 0 1 -0.57 -0.47c-0.1 -0.29 0.19 -0.57 0.47 -0.67l11.71 -1.9c0.29 -0.1 0.57 0.19 0.67 0.47s-0.19 0.57 -0.48 0.67c-0.09 -0.01 -11.8 1.9 -11.8 1.9Z" fill="#ffb949" stroke-width="1"></path><path d="M117.49 114.28a0.59 0.59 0 0 1 -0.57 -0.48c-0.1 -0.28 0.19 -0.57 0.47 -0.66l11.23 -1.91c0.29 -0.09 0.58 0.19 0.67 0.48s-0.19 0.57 -0.48 0.66Z" fill="#ffb949" stroke-width="1"></path><path d="M112.73 115a0.59 0.59 0 0 1 -0.57 -0.48c-0.1 -0.28 0.19 -0.57 0.47 -0.66l2.86 -0.48c0.29 -0.09 0.57 0.19 0.67 0.48s-0.19 0.57 -0.48 0.66c0.1 0.04 -2.86 0.48 -2.95 0.48Z" fill="#ffb949" stroke-width="1"></path><path d="M107.49 115.9a0.62 0.62 0 0 1 -0.57 -0.48c-0.09 -0.29 0.19 -0.57 0.48 -0.67l3.33 -0.57c0.29 -0.09 0.57 0.19 0.67 0.48s-0.19 0.57 -0.48 0.66c0 0.1 -3.43 0.58 -3.43 0.58Z" fill="#ffb949" stroke-width="1"></path><path d="M103.21 116.66a0.61 0.61 0 0 1 -0.57 -0.48c-0.09 -0.28 0.19 -0.57 0.48 -0.67l2.38 -0.38c0.28 -0.09 0.57 0.19 0.66 0.48s-0.19 0.57 -0.47 0.67c-0.1 0 -2.48 0.38 -2.48 0.38Z" fill="#ffb949" stroke-width="1"></path><path d="M145.85 118.27a0.61 0.61 0 0 1 -0.57 -0.47c-0.09 -0.29 0.19 -0.57 0.48 -0.67l5.33 -0.85c0.28 -0.1 0.57 0.19 0.66 0.47s-0.19 0.57 -0.47 0.67c0.09 -0.1 -5.28 0.85 -5.43 0.85Z" fill="#ffb949" stroke-width="1"></path><path d="M127.48 121.32a0.61 0.61 0 0 1 -0.57 -0.48c-0.09 -0.28 0.19 -0.57 0.48 -0.66l15.89 -2.67c0.29 -0.09 0.57 0.19 0.67 0.48s-0.19 0.57 -0.48 0.67Z" fill="#ffb949" stroke-width="1"></path><path d="M123.48 122a0.61 0.61 0 0 1 -0.57 -0.48c-0.09 -0.28 0.19 -0.57 0.48 -0.67l1.81 -0.28c0.28 -0.1 0.57 0.19 0.66 0.47s-0.19 0.58 -0.47 0.67Z" fill="#ffb949" stroke-width="1"></path><path d="M119.2 122.65a0.61 0.61 0 0 1 -0.57 -0.47c-0.09 -0.29 0.19 -0.57 0.48 -0.67l2.19 -0.38c0.28 -0.1 0.57 0.19 0.66 0.48s-0.19 0.57 -0.47 0.66Z" fill="#ffb949" stroke-width="1"></path><path d="M106.92 124.75a0.61 0.61 0 0 1 -0.57 -0.48c-0.09 -0.28 0.19 -0.57 0.48 -0.67l10.28 -1.71c0.28 -0.09 0.57 0.19 0.66 0.48s-0.19 0.57 -0.47 0.66Z" fill="#ffb949" stroke-width="1"></path><path d="M134.53 127.6a0.61 0.61 0 0 1 -0.58 -0.47c-0.09 -0.29 0.19 -0.57 0.48 -0.67l11.61 -1.9c0.29 -0.1 0.57 0.19 0.67 0.47s-0.19 0.57 -0.48 0.67Z" fill="#ffb949" stroke-width="1"></path><path d="M130.62 128.27a0.61 0.61 0 0 1 -0.57 -0.48c-0.09 -0.28 0.19 -0.57 0.48 -0.66l2 -0.29c0.28 -0.09 0.57 0.19 0.66 0.48s-0.19 0.57 -0.47 0.66c0 0.02 -2 0.29 -2.1 0.29Z" fill="#ffb949" stroke-width="1"></path><path d="M112.35 131.31a0.59 0.59 0 0 1 -0.57 -0.47c-0.1 -0.29 0.19 -0.57 0.47 -0.67l16.47 -2.76c0.29 -0.09 0.57 0.19 0.67 0.48s-0.19 0.57 -0.48 0.66c0 0 -16.47 2.76 -16.56 2.76Z" fill="#ffb949" stroke-width="1"></path><path d="M105.4 132.46a0.59 0.59 0 0 1 -0.57 -0.48c-0.1 -0.28 0.19 -0.57 0.48 -0.67l4.75 -0.76c0.29 -0.09 0.58 0.19 0.67 0.48s-0.19 0.57 -0.48 0.67Z" fill="#ffb949" stroke-width="1"></path><path d="M131.77 136.55a0.61 0.61 0 0 1 -0.58 -0.48c-0.09 -0.28 0.19 -0.57 0.48 -0.66l9 -1.53c0.28 -0.09 0.57 0.19 0.66 0.48s-0.19 0.57 -0.47 0.67c0.04 -0.1 -9 1.52 -9.09 1.52Z" fill="#ffb949" stroke-width="1"></path><path d="M121.58 138.36a0.61 0.61 0 0 1 -0.57 -0.48c-0.1 -0.28 0.19 -0.57 0.48 -0.66l7.52 -1.34c0.28 -0.09 0.57 0.19 0.66 0.48s-0.19 0.57 -0.47 0.67Z" fill="#ffb949" stroke-width="1"></path><path d="M109.3 140.45a0.61 0.61 0 0 1 -0.57 -0.47c-0.09 -0.29 0.19 -0.58 0.48 -0.67l10 -1.71c0.29 -0.1 0.57 0.19 0.67 0.47s-0.19 0.57 -0.48 0.67c-0.1 0 -10.1 1.71 -10.1 1.71Z" fill="#ffb949" stroke-width="1"></path><path d="M102.35 141.69a0.61 0.61 0 0 1 -0.57 -0.48c-0.09 -0.28 0.19 -0.57 0.48 -0.66l4.85 -0.86c0.29 -0.1 0.57 0.19 0.67 0.48s-0.19 0.57 -0.48 0.66c-0.09 0 -4.95 0.86 -4.95 0.86Z" fill="#ffb949" stroke-width="1"></path><path d="M142.62 143.21a0.61 0.61 0 0 1 -0.58 -0.47c-0.09 -0.29 0.19 -0.58 0.48 -0.67l6.38 -1.14c0.28 -0.1 0.57 0.19 0.66 0.47s-0.19 0.57 -0.47 0.67c0.09 0 -6.38 1.14 -6.47 1.14Z" fill="#ffb949" stroke-width="1"></path><path d="M137.57 144.07a0.61 0.61 0 0 1 -0.57 -0.48c-0.1 -0.28 0.19 -0.57 0.48 -0.66l2.38 -0.48c0.28 -0.09 0.57 0.19 0.66 0.48s-0.19 0.57 -0.47 0.66a21.68 21.68 0 0 1 -2.48 0.48Z" fill="#ffb949" stroke-width="1"></path><path d="M132.05 145.12a0.61 0.61 0 0 1 -0.57 -0.48c-0.1 -0.29 0.19 -0.57 0.48 -0.67l3.23 -0.57c0.29 -0.09 0.57 0.19 0.67 0.48s-0.19 0.57 -0.48 0.66Z" fill="#ffb949" stroke-width="1"></path><path d="M126.53 146.07a0.59 0.59 0 0 1 -0.57 -0.48c-0.1 -0.28 0.19 -0.57 0.48 -0.67l3.14 -0.57c0.28 -0.09 0.57 0.19 0.66 0.48s-0.19 0.57 -0.47 0.67c0.09 0 -3.24 0.57 -3.24 0.57Z" fill="#ffb949" stroke-width="1"></path><path d="M111.49 148.73a0.61 0.61 0 0 1 -0.57 -0.47c-0.09 -0.29 0.19 -0.57 0.48 -0.67l12.66 -2.28c0.28 -0.1 0.57 0.19 0.66 0.47s-0.19 0.57 -0.47 0.67c0 0.09 -12.76 2.28 -12.76 2.28Z" fill="#ffb949" stroke-width="1"></path><path d="M103.69 150.16a0.59 0.59 0 0 1 -0.57 -0.48c-0.1 -0.28 0.19 -0.57 0.47 -0.66l5.81 -1.02c0.28 -0.09 0.57 0.19 0.66 0.48s-0.19 0.57 -0.47 0.66Z" fill="#ffb949" stroke-width="1"></path><path d="M98.17 151.11a0.59 0.59 0 0 1 -0.57 -0.47c-0.1 -0.29 0.19 -0.58 0.47 -0.67l3.24 -0.57c0.28 -0.1 0.57 0.19 0.66 0.47s-0.19 0.58 -0.47 0.67c0 0 -3.24 0.57 -3.33 0.57Z" fill="#ffb949" stroke-width="1"></path><path d="M62.76 82.68a0.59 0.59 0 0 1 -0.57 -0.48c-0.1 -0.28 0.09 -0.57 0.48 -0.66l9.13 -1.81c0.29 -0.1 0.57 0.09 0.67 0.47s-0.1 0.57 -0.48 0.67Z" fill="#ff7449" stroke-width="1"></path><path d="M56 83.92a0.62 0.62 0 0 1 -0.57 -0.48c-0.09 -0.29 0.1 -0.57 0.48 -0.67l4.85 -1c0.29 -0.09 0.57 0.1 0.67 0.48s-0.1 0.57 -0.48 0.66c0.05 0.15 -4.85 1.01 -4.95 1.01Z" fill="#ff7449" stroke-width="1"></path><path d="M49.24 85.25a0.61 0.61 0 0 1 -0.57 -0.48c-0.09 -0.28 0.1 -0.57 0.48 -0.66l5 -1c0.29 -0.09 0.58 0.1 0.67 0.48s-0.09 0.57 -0.48 0.67Z" fill="#ff7449" stroke-width="1"></path><path d="M43.15 86.48a0.61 0.61 0 0 1 -0.57 -0.47c-0.09 -0.29 0.1 -0.57 0.48 -0.67l4.28 -0.85c0.29 -0.1 0.57 0.09 0.67 0.47s-0.1 0.57 -0.48 0.67Z" fill="#ff7449" stroke-width="1"></path><path d="M55.81 90.67a0.61 0.61 0 0 1 -0.57 -0.47c-0.09 -0.29 0.19 -0.57 0.48 -0.67l16 -3c0.28 -0.1 0.57 0.19 0.66 0.48s-0.19 0.57 -0.47 0.66c0.09 -0.04 -16 3 -16.1 3Z" fill="#ff7449" stroke-width="1"></path><path d="M51 91.53a0.59 0.59 0 0 1 -0.57 -0.48c-0.1 -0.28 0.19 -0.57 0.47 -0.66l2.57 -0.48c0.29 -0.09 0.57 0.19 0.67 0.48s-0.19 0.57 -0.48 0.66Z" fill="#ff7449" stroke-width="1"></path><path d="M43.15 93a0.61 0.61 0 0 1 -0.57 -0.48c-0.09 -0.28 0.19 -0.57 0.48 -0.67l5.71 -1c0.28 -0.1 0.57 0.19 0.67 0.47s-0.2 0.57 -0.48 0.67Z" fill="#ff7449" stroke-width="1"></path><path d="M50 100.1a0.59 0.59 0 0 1 -0.57 -0.48c-0.1 -0.29 0.19 -0.57 0.47 -0.67l7 -1.14c0.28 -0.09 0.57 0.19 0.67 0.48s-0.2 0.57 -0.48 0.66c-0.04 -0.09 -7.09 1.15 -7.09 1.15Z" fill="#ff7449" stroke-width="1"></path><path d="M43.44 101.14a0.59 0.59 0 0 1 -0.57 -0.47c-0.1 -0.29 0.19 -0.57 0.47 -0.67l4.29 -0.67c0.28 -0.09 0.57 0.19 0.66 0.48s-0.19 0.57 -0.47 0.67c-0.1 0 -4.38 0.66 -4.38 0.66Z" fill="#ff7449" stroke-width="1"></path><path d="M43.82 109.23a0.59 0.59 0 0 1 -0.57 -0.47c-0.1 -0.29 0.19 -0.57 0.47 -0.67l12.76 -2.19c0.28 -0.09 0.57 0.19 0.66 0.48s-0.19 0.57 -0.47 0.66c0.09 -0.04 -12.76 2.19 -12.85 2.19Z" fill="#ff7449" stroke-width="1"></path><path d="M51 115.7a0.59 0.59 0 0 1 -0.57 -0.47c-0.1 -0.29 0.19 -0.57 0.47 -0.67l5.62 -1c0.28 -0.09 0.57 0.19 0.66 0.48s-0.19 0.57 -0.47 0.66c0.05 0.05 -5.66 1 -5.71 1Z" fill="#ff7449" stroke-width="1"></path><path d="M44.3 116.75a0.61 0.61 0 0 1 -0.58 -0.47c-0.09 -0.29 0.19 -0.58 0.48 -0.67l4.85 -0.76c0.29 -0.1 0.58 0.19 0.67 0.47s-0.19 0.58 -0.48 0.67c0 0.01 -4.85 0.76 -4.94 0.76Z" fill="#ff7449" stroke-width="1"></path><path d="M66.19 97.53a1 1 0 0 1 -1 1 1.13 1.13 0 0 1 -1 -1 1 1 0 0 1 1 -1 1.12 1.12 0 0 1 1 1Z" fill="#501200" stroke-width="1"></path><path d="M73.61 96.57a1 1 0 0 1 -1 1 1.06 1.06 0 0 1 -1 -1 1 1 0 0 1 1 -1 1.05 1.05 0 0 1 1 1Z" fill="#501200" stroke-width="1"></path><path d="M80.27 95.72a1 1 0 1 1 -1 -1 1 1 0 0 1 1 1Z" fill="#501200" stroke-width="1"></path><path d="M84 55.55a1 1 0 1 1 -1 -1 1.05 1.05 0 0 1 1 1Z" fill="#501200" stroke-width="1"></path><path d="M91.31 54.31a1 1 0 0 1 -1 1 1 1 0 0 1 -1 -1 1 1 0 0 1 1 -1 1.12 1.12 0 0 1 1 1Z" fill="#501200" stroke-width="1"></path><path d="M98.07 53.36a0.93 0.93 0 0 1 -0.85 1 1 1 0 0 1 -1 -1 0.94 0.94 0 0 1 0.86 -1 1.09 1.09 0 0 1 0.99 1Z" fill="#501200" stroke-width="1"></path><path d="M35.54 39.85a1 1 0 0 1 -0.95 1 1.23 1.23 0 0 1 -1.15 -1 1 1 0 0 1 1 -1 1.05 1.05 0 0 1 1.1 1Z" fill="#501200" stroke-width="1"></path><path d="M42.87 38.51a1 1 0 0 1 -0.95 1.05 1.22 1.22 0 0 1 -1.15 -1 1 1 0 0 1 1 -1 1.06 1.06 0 0 1 1.1 0.95Z" fill="#501200" stroke-width="1"></path><path d="M49.53 37.37a0.93 0.93 0 0 1 -0.86 1 1 1 0 0 1 -1 -1 0.94 0.94 0 0 1 0.85 -0.95 1.21 1.21 0 0 1 1.01 0.95Z" fill="#501200" stroke-width="1"></path><path d="M194.68 42.7q-0.28 -7.28 -3.43 -10c-2.66 -2.28 -6.25 -1.9 -10.25 -1.23 -3.8 0.57 -10.56 1.71 -18.84 3.14 0 -1.14 0.09 -4.57 0.38 -12.94 0.09 -4.67 -0.95 -8 -3 -9.81 -2.66 -2.28 -6.37 -1.52 -7.71 -1.23 -17.32 3.52 -50.63 9.61 -77.47 14.56 -17.8 3.14 -33 6 -38.46 7C23 34.9 23.17 43.56 23.26 47.75c0 0.28 0.38 65.67 0.48 74.52 0 1.81 0 6 2.76 8.47a7.39 7.39 0 0 0 5.14 1.72c0.47 0 21.51 -3.05 24.36 -3.62 -0.09 10.95 -0.09 22.27 0.1 29.31 0.09 4.48 1.43 7.71 3.8 9.62a9.5 9.5 0 0 0 5.62 1.81c1.14 0 69.29 -12.85 82.43 -15.42 11.61 -2.29 12.65 -6.57 12.65 -10.76 0 -5.23 0.1 -12.66 0.1 -20.65 2.28 -0.38 12.66 -2.38 20.46 -3.81 11 -2.09 13.42 -6.47 13.71 -13.51 0.38 -11.14 -0.19 -62.73 -0.19 -62.73Zm-13.52 -10.09c3.81 -0.57 7.14 -0.95 9.43 1 1.8 1.52 2.76 4.37 2.95 8.66L72.47 63.17v-0.86c0 -0.1 -0.86 -10.57 7.61 -12.28 3.52 -0.67 90.33 -15.7 101.08 -17.42ZM150 78.58c2 -0.28 4.76 -0.28 6.85 1.53 1.53 1.33 2.48 3.52 2.67 6.47L57.33 104.19c0 -0.19 -1.23 -11 8 -12.09 5.81 -1 19.89 -3.43 19.89 -3.43 23.51 -3.8 51.68 -8.18 64.78 -10.09Zm-64.34 9c0 -5.71 0.38 -14.56 0.47 -16.37 11 -2.47 28.65 -5 32.08 -5.33 0.19 3 0.09 13.23 0 16.56 -10.53 1.56 -22.04 3.38 -32.51 5.09ZM71.33 62.4v6.86c-8.09 1.81 -25.89 5.9 -29.6 6.76 -0.19 -6 -0.48 -21.33 -0.58 -24.18 10.76 -2 63.11 -12.37 69.68 -13.61v5.33c-15.14 2.66 -27.51 4.85 -30.94 5.52 -3.9 0.76 -6.66 3.33 -7.9 7.52a18.26 18.26 0 0 0 -0.66 5.8ZM24.4 47.65c-0.09 -4.19 -0.28 -11.9 11.61 -14.37 5.33 -1.05 20.66 -3.9 38.36 -7.14 26.84 -4.95 60.16 -11 77.48 -14.56 1.33 -0.29 4.47 -0.95 6.76 1.05 1.8 1.52 2.76 4.37 2.66 8.47 0.1 0.09 -136.87 26.65 -136.87 26.55Zm31.7 64.06c0 4.76 -0.1 10.28 -0.1 16 -2.38 0.38 -15.51 2.76 -23.13 3.52 -2.47 0.28 -4.37 -0.19 -5.61 -1.33 -2.29 -2.1 -2.38 -6 -2.38 -7.62 0 -8.85 -0.48 -68.72 -0.48 -73.19l137 -26.75c-0.19 8.57 -0.29 11.62 -0.38 12.47 -14.47 2.48 -33.13 5.71 -49.12 8.47v-5.8a0.47 0.47 0 0 0 -0.19 -0.38 0.41 0.41 0 0 0 -0.47 -0.1c-0.57 0.1 -60.54 12 -70.72 13.9a0.59 0.59 0 0 0 -0.48 0.57c0 0.19 0.48 19.42 0.57 25.32a0.52 0.52 0 0 0 0.19 0.38c0.1 0.09 0.19 0.09 0.38 0.09 0 0 20.94 -4.85 30.08 -6.85v19.5C69 90.29 67 90.67 65 91c-8.85 1.62 -8.94 8.75 -8.94 12.66 0.13 0.24 0.04 5.19 0.04 8.05Zm103.27 31.6c0 3.9 -1 7.61 -11.71 9.71 -13.13 2.57 -79.76 15.13 -80.43 15.22a8.63 8.63 0 0 1 -6.66 -1.42c-2.19 -1.72 -3.24 -4.67 -3.33 -8.76 -0.29 -10.95 0 -32.27 0.09 -46.35 0 -2.38 0 -4.48 0.1 -6.38l102.32 -17.61c-0.1 0.28 -0.38 50.07 -0.38 55.59Zm34.26 -38c-0.28 6.57 -2.38 10.57 -12.75 12.47 -7.62 1.43 -17.61 3.33 -20.28 3.81 0.1 -12.38 0.1 -34.08 0.1 -34.46v-0.09c-0.19 -3.53 -1.24 -6.1 -3.14 -7.81 -2.38 -2 -5.52 -2.09 -7.71 -1.81 -6.95 1 -18.08 2.67 -30.55 4.57 0.09 -3.52 0.28 -13.32 0 -16.46a1.19 1.19 0 0 0 -0.38 -0.77 1.56 1.56 0 0 0 -0.86 -0.28c-3.43 0.47 -21.23 3 -32.17 5.42A1.12 1.12 0 0 0 85 71c-0.09 1.81 -0.47 10.85 -0.47 16.66 -4.19 0.66 -8.28 1.42 -12.09 2V64.31l121.19 -20.94V44c-0.09 4.22 0.48 50.29 0 61.33Z" fill="#501200" stroke-width="1"></path></g><g><path d="M101.88 127.7a20.25 20.25 0 0 0 -20.56 -20.37A20.88 20.88 0 0 0 60.38 128a20.25 20.25 0 0 0 20.56 20.37 16.48 16.48 0 0 0 3.81 -0.38l7.61 33.31a0.54 0.54 0 0 0 1 -0.28l-7.62 -33.22a20.7 20.7 0 0 0 16.14 -20.1Zm-20.94 19.6a19.1 19.1 0 0 1 -19.42 -19.22 19.74 19.74 0 0 1 19.8 -19.61 19.1 19.1 0 0 1 19.42 19.23 19.74 19.74 0 0 1 -19.8 19.6Z" fill="#501200" stroke-width="1"></path><path d="M84.94 119.32a0.64 0.64 0 0 1 -0.67 -0.57 0.61 0.61 0 0 1 0.57 -0.76l8.66 -1.33a0.67 0.67 0 1 1 0.19 1.33Z" fill="#ffb949" stroke-width="1"></path><path d="M77 120.46a0.64 0.64 0 0 1 -0.67 -0.57 0.61 0.61 0 0 1 0.57 -0.76l4.28 -0.66a0.67 0.67 0 1 1 0.2 1.33c0.13 0.09 -4.25 0.66 -4.38 0.66Z" fill="#ffb949" stroke-width="1"></path><path d="M65.14 122.37a0.64 0.64 0 0 1 -0.67 -0.57 0.62 0.62 0 0 1 0.53 -0.8l8.09 -1.23a0.67 0.67 0 1 1 0.2 1.33Z" fill="#ffb949" stroke-width="1"></path><path d="M88.84 129.79a0.64 0.64 0 0 1 -0.67 -0.57 0.61 0.61 0 0 1 0.57 -0.76l8.76 -1.33a0.67 0.67 0 1 1 0.19 1.33Z" fill="#ffb949" stroke-width="1"></path><path d="M78.56 131.31a0.64 0.64 0 0 1 -0.67 -0.57 0.61 0.61 0 0 1 0.57 -0.76l6.67 -0.95a0.61 0.61 0 0 1 0.76 0.57c0 0.38 -0.19 0.76 -0.57 0.76 0 -0.09 -6.76 0.95 -6.76 0.95Z" fill="#ffb949" stroke-width="1"></path><path d="M65.14 133.22a0.64 0.64 0 0 1 -0.67 -0.57 0.61 0.61 0 0 1 0.57 -0.76l8.29 -1.24a0.67 0.67 0 0 1 0.19 1.33Z" fill="#ffb949" stroke-width="1"></path><path d="M75.51 141.59a0.63 0.63 0 0 1 -0.66 -0.57 0.61 0.61 0 0 1 0.57 -0.76l15 -2a0.67 0.67 0 0 1 0.19 1.33Z" fill="#ffb949" stroke-width="1"></path></g><g><path d="M183.92 86.87s0 -10.85 -1.42 -16.47 -4.86 -11.52 -6 -11.23 0.95 8 0.95 8 -4 -3 -4.19 1c0 0 -3 -1.24 -2.95 2.38 0 0 -2.57 -1.62 -2.57 2 0 0 -3.23 -0.76 -1 4.38s3.9 2.57 3.9 2.57l2.66 8.09c0.06 0.04 5.86 1.18 10.62 -0.72Z" fill="#f9f5e5" stroke-width="1"></path><path d="m41 66.88 -0.19 -4.48s-6.09 5.52 -6.85 11.81c0 0 2.67 6.37 6.28 8.75 0 0 7.9 -2.57 10.38 -5.33s5.61 -6.18 0 -4.76c0 0 2.85 -5.23 -2.29 -2.57 0 0 4.19 -6.28 -2.19 -3 0 0 7.33 -6.75 5.9 -7.9C50.1 58 41 66.88 41 66.88Z" fill="#f9f5e5" stroke-width="1"></path><path d="M79.23 157.39s-5.81 -2 3.8 -6.09c8.86 -3.71 10.66 0.38 8.57 1.14 0 0 5.33 0.86 1.43 3.72 0 0 5.33 0.09 1.42 4.18 0 0 5.72 0.58 -2.18 4.95 -11.14 6.19 -7.33 -1.23 -7.33 -1.23s-5.43 1.61 -2.76 -3.43c0.19 -0.1 -5.05 1.71 -2.95 -3.24Z" fill="#f9f5e5" stroke-width="1"></path><path d="M160.51 140.36s31.41 -10.19 25.79 -52.45a1.27 1.27 0 0 0 -1.42 -1 56.73 56.73 0 0 1 -12.57 0.76 1.24 1.24 0 0 0 -1.24 1c-0.95 4 -4.56 18.84 -10.28 22.65Z" fill="#ff7449" stroke-width="1"></path><path d="M24.21 126.65s-30 -12.66 -15 -33.88C18.5 79.44 29 74.4 32.3 73.35a1.37 1.37 0 0 1 1.53 0.57 68.5 68.5 0 0 0 6.09 9.61 1.17 1.17 0 0 1 0 1.53c-2.67 3.33 -14.18 15.51 -16.28 17.8 0 0 0.19 22.27 0.57 23.79Z" fill="#ffb949" stroke-width="1"></path><path d="M15.55 111.71a0.52 0.52 0 0 1 -0.38 -0.19 0.58 0.58 0 0 1 0 -0.76l8.66 -8a0.54 0.54 0 1 1 0.76 0.76c-0.09 0 -8.94 8.19 -9.04 8.19Z" fill="#501200" stroke-width="1"></path><path d="M84.94 169.1c-1 -0.09 -2.86 -0.57 -1.91 -3 0.1 -0.19 -0.09 -0.38 -0.28 -0.38 -1.24 0 -3.62 -0.57 -2.48 -3 0.1 -0.19 -0.09 -0.38 -0.28 -0.38 -1.33 0 -3.81 -0.38 -2.38 -3.43 0.09 -0.19 0 -0.38 -0.19 -0.38a1.49 1.49 0 0 1 -1.33 -1.62c0 -0.09 -0.1 -0.19 -0.2 -0.09l-15.79 8.47a118.65 118.65 0 0 0 -9.52 7.24c-0.1 0.09 -0.19 0.09 -0.38 0.09a1 1 0 0 1 -0.48 -0.19 0.49 0.49 0 0 1 0.1 -0.76c0.19 -0.19 4.56 -3.62 8 -6.09l-1.52 -7.52s-21.13 13.23 -9.9 27c10.28 12.66 32.36 -3.33 38.83 -15.42 -0.01 -0.25 -0.1 -0.54 -0.29 -0.54Z" fill="#501200" stroke-width="1"></path><path d="M183.16 70.59a44.4 44.4 0 0 0 -3 -7.9c-2.29 -4.57 -3.14 -4.38 -3.53 -4.28s-1.42 0.28 0.1 7.61c-0.86 -0.47 -2 -0.86 -2.76 -0.38a1.94 1.94 0 0 0 -1 1.81 2.47 2.47 0 0 0 -2.1 0.38 2.09 2.09 0 0 0 -0.85 1.81 2.22 2.22 0 0 0 -1.72 0.19 2.52 2.52 0 0 0 -0.95 2.19 1.88 1.88 0 0 0 -1.43 0.66c-0.76 1 -0.47 2.76 1 5.52s2.57 2.86 3.24 2.57c0.19 -0.09 0.28 -0.19 0.47 -0.28a70.36 70.36 0 0 1 2.37 7.33 0.41 0.41 0 0 0 0.38 0.38 17.3 17.3 0 0 0 3.23 0.28 26.44 26.44 0 0 0 7.62 -1.23 0.65 0.65 0 0 0 0.38 -0.48c-0.02 -0.38 0.17 -9.52 -1.45 -16.18Zm0.29 15.8a22.51 22.51 0 0 1 -9.62 0.86c-1 -4.1 -3.61 -10.76 -3.71 -11a0.52 0.52 0 0 0 -0.76 -0.29 0.53 0.53 0 0 0 -0.28 0.76s0.38 0.95 0.85 2.29a0.86 0.86 0 0 1 -0.28 0.85c-0.19 0.1 -0.86 -0.19 -1.81 -2.09 -1.72 -3.24 -1.33 -4.19 -1.14 -4.28 1.71 -1.15 5 2.28 5 2.28s0.57 0.29 0.76 0a0.49 0.49 0 0 0 0 -0.76 10.81 10.81 0 0 0 -4.09 -2.67c-0.19 -2.28 1.9 -1.14 1.9 -1.14a11.1 11.1 0 0 1 4 3.24c0.1 0.09 0.57 0.28 0.76 0.09s0.29 -0.57 0.1 -0.76a13 13 0 0 0 -4.1 -3.43c-0.47 -2.09 1.43 -1.61 1.81 -1.52a9.48 9.48 0 0 1 4.19 3.81 0.57 0.57 0 0 0 0.76 0.19 0.51 0.51 0 0 0 0.21 -0.82 10.94 10.94 0 0 0 -4 -3.9c0 -0.86 0.39 -2.57 3 -0.48a12.13 12.13 0 0 1 2.57 3.14 0.72 0.72 0 0 0 0.76 0.29 0.64 0.64 0 0 0 0.28 -0.77 11.07 11.07 0 0 0 -2.47 -3.14 32.59 32.59 0 0 1 -1.07 -7.14c1.14 1.24 4 6.76 5.05 11 1.33 5.59 1.33 13.49 1.33 15.39Z" fill="#501200" stroke-width="1"></path><path d="M33.44 73.64a25 25 0 0 1 6.86 -12.09 0.55 0.55 0 0 1 1 0.38l0.09 3.71c3.15 -3 8.38 -7 10.28 -7a1 1 0 0 1 1 0.47c0.38 0.67 0.38 1.81 -2.95 5.33 -0.58 0.57 -1.05 1.15 -1.53 1.62 0.95 -0.19 1.53 -0.09 1.91 0.38 0.19 0.29 0.57 1 -0.48 2.76 1 -0.28 1.71 -0.19 2.09 0.29 0.58 0.66 0.19 1.71 -0.19 2.57 1.15 -0.19 2.19 -0.29 2.67 0.57 0.86 1.71 -2.76 5 -3.81 5.9 -5.61 4.38 -10.18 5.14 -10.37 5 -4.19 -3.42 -6.66 -9.42 -6.57 -9.89Zm1.15 0.09A23.86 23.86 0 0 0 40 82.39a23.59 23.59 0 0 0 9.62 -4.76c2.18 -1.71 3.8 -4 3.52 -4.47 0 0 -0.38 -0.38 -2.67 0.38a0.61 0.61 0 0 1 -0.66 -0.19 0.47 0.47 0 0 1 0 -0.67c0.76 -1 1.23 -2.28 1 -2.47 0 0 -0.38 -0.29 -2.47 0.57a0.63 0.63 0 0 1 -0.67 -0.19 0.47 0.47 0 0 1 0 -0.67c1 -1.14 1.62 -2.47 1.52 -2.85 -0.09 0 -0.66 -0.19 -3.14 1a0.53 0.53 0 0 1 -0.66 -0.19 0.59 0.59 0 0 1 0.09 -0.76c3.52 -3.14 6.38 -6.57 6.28 -7.43 -2 -0.47 -10.47 7.71 -10.66 7.81a6.62 6.62 0 0 0 -0.85 1 0.51 0.51 0 0 1 -0.76 0.09 0.5 0.5 0 0 1 -0.1 -0.76 5.56 5.56 0 0 1 1.05 -1.24l-0.29 -3.23c-1.57 1.8 -4.8 5.9 -5.56 10.37Z" fill="#501200" stroke-width="1"></path><path d="M97.31 161.39c-0.19 -0.86 -1 -1.24 -1.81 -1.52 1 -1.33 1.33 -2.29 1 -3.05a2.38 2.38 0 0 0 -2.09 -1 2.31 2.31 0 0 0 0.86 -2.19 2.68 2.68 0 0 0 -2.27 -1.57 1.25 1.25 0 0 0 -0.1 -1.33c-1 -1.62 -5.33 -1.9 -10.85 0.48 -3.42 1.52 -5 2.85 -5 4.28a2.71 2.71 0 0 0 1.62 2c-0.67 1.24 -0.76 2.19 -0.19 2.95s2 0.86 3 0.76c-0.57 1.14 -0.67 2 -0.19 2.67 0.57 0.85 2 0.95 3 0.85 -0.28 0.86 -0.57 2.19 0.19 2.95a2.1 2.1 0 0 0 1.62 0.57 13.55 13.55 0 0 0 5 -1.61c4.59 -2.19 6.5 -3.81 6.21 -5.24Zm-19 -5.9c0.1 -0.29 0.29 -1.43 4.29 -3.24 5.61 -2.47 8.94 -1.71 9.42 -0.95 0.1 0.19 -0.09 0.48 -0.29 0.67a36.53 36.53 0 0 0 -12.18 4.66c-1.09 -0.09 -1.47 -0.47 -1.28 -1.14Zm1.69 2.19c0.85 -0.48 6.37 -3.81 11.9 -4.57 0.85 -0.19 3.9 0.57 0.57 2.86 -3.81 0.76 -8.28 3 -10 3.9 -4.1 1.52 -3.47 -1.52 -2.47 -2.19Zm3 3.24c1.72 -1 6.67 -3.43 10.38 -4 0.85 0 3.52 0.28 0.66 2.85a73.53 73.53 0 0 1 -9 3.62h-0.09c-3.82 1.14 -2.95 -1.52 -1.95 -2.47Zm7.62 4.75c-6.28 3.24 -5.62 0.29 -5 -1.14 1.62 -0.57 6.09 -2.28 9 -3.61 0.69 0 4.38 0.47 -3.97 4.75Z" fill="#501200" stroke-width="1"></path></g></g></svg>