<svg xmlns="http://www.w3.org/2000/svg" fill="none" viewBox="0 0 200 200"><g id="teacher-presenting--education-teacher-presenting"><g id="board"><path id="vector" fill="#f9f5e5" d="M37.906 130.517s-0.532 -86.514 0.111 -87c0.643 -0.486 133.49 -3.06 134.481 -2.092 0.991 0.968 1.355 87.058 1.355 87.058l-135.947 2.034Z" stroke-width="1"></path><path id="vector_2" fill="#ff7449" d="m121.615 84.305 -1.682 15.427 15.924 -3.694s-2.981 -11.207 -14.242 -11.733Z" stroke-width="1"></path><path id="vector_3" fill="#501200" d="M149.5 58.936c-0.57 0.008 -0.586 -0.922 -0.011 -0.882a74.804 74.804 0 0 0 2.95 -0.079 0.44 0.44 0 0 1 0.462 0.419 0.448 0.448 0 0 1 -0.114 0.318 0.444 0.444 0 0 1 -0.305 0.144c-0.989 0.044 -1.982 0.068 -2.982 0.08Z" stroke-width="1"></path><path id="vector_4" fill="#501200" d="M147.141 58.957c-0.967 0.013 -2.069 0.019 -3.345 0.022a0.442 0.442 0 0 1 0 -0.882c1.273 0 2.373 -0.009 3.337 -0.022a0.44 0.44 0 1 1 0.008 0.882Z" stroke-width="1"></path><path id="vector_5" fill="#501200" d="M141.325 58.945c-1.125 0.047 -2.26 0.048 -3.387 0.052a0.442 0.442 0 0 1 0 -0.882c1.129 -0.005 2.258 -0.052 3.388 -0.053a0.445 0.445 0 0 1 0.421 0.442 0.444 0.444 0 0 1 -0.422 0.441Z" stroke-width="1"></path><path id="vector_6" fill="#501200" d="M135.321 58.987h-3.55a0.443 0.443 0 0 1 -0.444 -0.438 0.44 0.44 0 0 1 0.438 -0.444h3.554a0.44 0.44 0 1 1 0.002 0.882Z" stroke-width="1"></path><path id="vector_7" fill="#501200" d="M128.838 59.086c-1.252 0.021 -2.506 0 -3.758 0 -0.56 0 -0.58 -0.9 -0.008 -0.882 1.253 -0.009 2.507 0 3.761 0a0.443 0.443 0 0 1 0.443 0.438 0.44 0.44 0 0 1 -0.438 0.444Z" stroke-width="1"></path><path id="vector_8" fill="#501200" d="M121.929 59.14h-3.291a0.44 0.44 0 0 1 -0.319 -0.75 0.438 0.438 0 0 1 0.31 -0.132h3.292a0.44 0.44 0 1 1 0.008 0.882Z" stroke-width="1"></path><path id="vector_9" fill="#501200" d="M115.474 59.088h-2.368a0.442 0.442 0 0 1 -0.008 -0.882h2.368a0.44 0.44 0 1 1 0.008 0.882Z" stroke-width="1"></path><path id="vector_10" fill="#501200" d="m110.455 59.18 -2.716 0.024a0.443 0.443 0 0 1 -0.445 -0.437 0.44 0.44 0 0 1 0.437 -0.445l2.716 -0.024a0.443 0.443 0 0 1 0.445 0.437 0.455 0.455 0 0 1 -0.126 0.313 0.443 0.443 0 0 1 -0.311 0.132Z" stroke-width="1"></path><path id="vector_11" fill="#501200" d="M105.2 59.352c-2.914 0.027 -2.871 0.064 -3.038 -0.078a0.442 0.442 0 0 1 -0.127 -0.484 0.446 0.446 0 0 1 0.405 -0.295l2.752 -0.025a0.44 0.44 0 1 1 0.008 0.882Z" stroke-width="1"></path><path id="vector_12" fill="#501200" d="m99.705 59.539 -2.323 0.025a0.442 0.442 0 0 1 -0.011 -0.882l2.323 -0.025a0.443 0.443 0 0 1 0.447 0.436 0.442 0.442 0 0 1 -0.436 0.446Z" stroke-width="1"></path><path id="vector_13" fill="#501200" d="M152.9 60.551a25.358 25.358 0 0 0 3.24 -2.6 34.114 34.114 0 0 0 -3.458 -1.686 0.439 0.439 0 0 1 -0.212 -0.571 0.44 0.44 0 0 1 0.561 -0.238c3.862 1.667 3.989 2.127 4.044 2.323 0.079 0.279 0.212 0.75 -3.665 3.493a0.442 0.442 0 0 1 -0.51 -0.721Z" stroke-width="1"></path><path id="vector_14" fill="#501200" d="M152.379 77.221c-5.991 0.093 -49.052 0.071 -50.092 -0.034 -0.4 -0.04 -0.61 -0.128 -0.7 -0.483 -0.1 -0.416 -0.18 -4.712 -0.173 -4.81a0.442 0.442 0 0 1 0.771 -0.259 0.44 0.44 0 0 1 0.109 0.318c0 0.022 -0.09 2.141 0.038 4.289 1.423 0.253 49.414 0.1 49.783 0.1 0.12 -1.075 0.164 -2.156 0.13 -3.237a0.446 0.446 0 0 1 0.266 -0.412 0.444 0.444 0 0 1 0.58 0.23 0.45 0.45 0 0 1 0.036 0.169c0.055 3.525 -0.266 3.852 -0.388 3.974a0.592 0.592 0 0 1 -0.36 0.155Z" stroke-width="1"></path><path id="vector_15" fill="#501200" d="m95.723 97.633 -3.112 -1.909a0.442 0.442 0 0 0 -0.462 0.752l1.99 1.22c-2.137 0.019 -16.841 0.146 -29.608 0.2 -0.148 -10.907 -10.031 -13.457 -11.564 -13.783 0 -0.453 -0.159 -9.775 -0.237 -11.556l1.3 1.662a0.444 0.444 0 0 0 0.7 -0.545l-2.156 -2.748a0.444 0.444 0 0 0 -0.724 0.042l-1.967 3.212a0.442 0.442 0 0 0 0.754 0.461l1.214 -1.986c0.078 1.8 0.492 25.633 0.495 25.717a0.441 0.441 0 0 0 0.44 0.428c12.844 0.022 37.567 -0.188 41.182 -0.22l-1.587 1.165a0.44 0.44 0 0 0 0.522 0.711l2.85 -2.091a0.446 0.446 0 0 0 -0.03 -0.732Zm-42.508 0.285c-0.045 -1.586 -0.2 -7.331 -0.242 -12.9 1.873 0.407 10.537 2.85 10.677 12.884 -3.819 0.012 -7.431 0.02 -10.435 0.016Z" stroke-width="1"></path><path id="vector_16" fill="#501200" d="M119.89 83.667A16.4 16.4 0 1 0 136.8 99.8a16.545 16.545 0 0 0 -16.91 -16.133Zm15.373 12.017 -14.852 3.567 1.656 -14.572a15.713 15.713 0 0 1 13.196 11.005Zm-14.877 19.891a15.525 15.525 0 0 1 -14.902 -9.738 15.526 15.526 0 0 1 4.047 -17.335 15.533 15.533 0 0 1 11.655 -3.909l-1.726 15.184a0.433 0.433 0 0 0 0.263 0.454c0.058 0.025 0.12 0.037 0.183 0.036l15.594 -3.732a15.595 15.595 0 0 1 -8.383 17.469 15.594 15.594 0 0 1 -6.731 1.571Z" stroke-width="1"></path><path id="vector_17" fill="#501200" d="M181.825 128.637a1.787 1.787 0 0 0 -0.4 -1.358 1.787 1.787 0 0 0 -1.258 -0.649c-0.094 -0.015 -1.563 -0.01 -4.117 0.01 0.122 -22.385 0.516 -62.578 -0.263 -82.906 -0.137 -3.576 -0.557 -4.464 -2.672 -4.505 -2.115 -0.041 -130.3 1.688 -132.659 1.643 -2.359 -0.045 -5 0.056 -5.114 3.217 -0.573 15.954 0.4 70.065 0.659 84.221l-5.2 0.064c-2.643 0.03 -2.367 1.851 -2.4 2.314a23.828 23.828 0 0 0 0.054 3.507c0.1 1.379 0.844 1.939 1.739 2.006 0.895 0.067 146.7 -0.981 149.137 -1.019 2.437 -0.038 2.5 -1.1 2.576 -1.748 0.076 -0.648 -0.062 -3.496 -0.082 -4.797Zm-75.112 -2.622a29.166 29.166 0 0 1 5.031 -0.177c-0.017 0.51 0.003 1.021 0.059 1.529l-5.281 0.064c-0.06 -0.686 0.013 -1.339 0.191 -1.416Zm31.134 1.039 -25.158 0.3a7.106 7.106 0 0 1 0.174 -2.92c1.363 -0.566 15.48 -0.8 24.59 0.413 0.024 0 0.1 0.013 0.19 0.16a3.51 3.51 0 0 1 0.204 2.047Zm33.792 -0.375 -32.913 0.365c0.141 -1.182 0 -2.916 -1.158 -3.07 -3.98 -0.514 -7.987 -0.793 -12 -0.834 -13.042 -0.228 -13.354 0.538 -13.487 0.864a4.357 4.357 0 0 0 -0.249 0.953c-1.47 -0.026 -4.783 -0.051 -5.477 0.249 -0.764 0.334 -0.794 1.5 -0.73 2.236l-65.266 0.813c0.057 -4.956 -0.744 -82.054 -0.24 -82.654 0.413 -0.493 130.452 -2.127 130.946 -1.769 0.921 0.668 0.563 53.543 0.574 82.847Z" stroke-width="1"></path></g><g id="pointer"><path id="vector_18" fill="#f9f5e5" d="M9.3 171.2s21.383 -3.016 36.993 -30.707l-3.62 -2.729s1.488 -3.383 4.025 -3.316c5.065 0.135 7.377 -1.095 8.342 -4.175 0 0 3.3 -0.642 2.876 -3.339 0 0 1.952 -1.27 1.379 -2.848 0 0 3.278 -2.309 -0.97 -4.865s-5.861 -1.636 -4.93 0.688c0 0 -3.439 -0.17 -0.868 3.022 0 0 -5.361 -0.862 -0.859 3.607 0 0 -5.061 -1.2 -2.957 2.044 0 0 -2.7 4.332 -3.124 4.4 -0.424 0.068 -3.276 -1.514 -3.684 -2.89 -0.408 -1.376 3.846 -6.028 3.846 -6.028s5.014 -2.1 1.094 -3.145 -9.262 1.859 -5.785 7.112l-4.087 5.248 -2.9 -2.4s-7.542 9.206 -28.863 17.157c-0.002 0.005 0.2 12.979 4.092 23.164Z" stroke-width="1"></path><path id="vector_19" fill="#ffb949" d="M41.905 130.092c-0.286 1.2 2.5 2.888 3.542 2.893 1.042 0.005 3.266 -4.4 3.266 -4.4s-2.2 -2.673 2.588 -2.207c0 0 -3.7 -4.038 1.065 -3.421 0 0 -2.71 -3.007 1.031 -3.045 0 0 -1.318 -2.379 1.53 -2.261 0 0 30.126 -44.066 29.545 -44.233 -1.409 -0.405 -36.629 47.617 -36.629 47.617s2.069 1.582 -2.036 2.947c0 -0.002 -3.791 5.644 -3.902 6.11Z" stroke-width="1"></path><path id="vector_20" fill="#501200" d="M88 67.265c-1.664 2.069 -38.3 50.636 -40.384 53.393 -2.556 -0.842 -6.266 0.053 -7.505 2.137a4.721 4.721 0 0 0 0.532 5.175c-0.8 1.079 -3.105 3.931 -3.688 4.651a263.156 263.156 0 0 1 -2.6 -2.175 0.444 0.444 0 0 0 -0.615 0.042C24.82 140.459 5.487 147.43 5.292 147.5a0.444 0.444 0 0 0 -0.038 0.816 0.44 0.44 0 0 0 0.338 0.016c0.194 -0.069 19.329 -6.969 28.517 -16.936 1.584 1.339 8.339 7.008 11.661 9.121 -1.529 3.022 -13.191 24.634 -36.586 30.254a0.442 0.442 0 0 0 0.206 0.858c25.467 -6.118 37.235 -30.841 37.351 -31.09a0.44 0.44 0 0 0 -0.171 -0.564c-0.869 -0.524 -2.071 -1.388 -3.378 -2.378 0.037 -0.03 1.6 -2.65 3.7 -2.691 3.087 -0.06 7.18 -0.178 8.488 -4.291 0.135 -0.033 2.288 -0.578 2.9 -2.123a2.34 2.34 0 0 0 0.1 -1.37 2.584 2.584 0 0 0 1.316 -2.744 3.02 3.02 0 0 0 1.225 -2.344c-0.064 -2.208 -3.4 -4.147 -5.426 -4.563C79.165 83.8 88.629 67.923 88.722 67.766a0.44 0.44 0 0 0 -0.722 -0.501Zm-33.35 62.746c-0.939 3.855 -5.733 3.9 -7.777 4.012 -2.931 0.164 -4.323 3.051 -4.334 3.076a200.11 200.11 0 0 1 -4.9 -3.917c0.625 -0.773 3.363 -4.166 3.92 -4.97a0.445 0.445 0 0 0 -0.034 -0.546c-0.08 -0.089 -1.954 -2.233 -0.652 -4.421 0.985 -1.657 5.66 -2.985 6.963 -1.289 0.575 0.748 -2.676 1.76 -4.549 2.016a0.441 0.441 0 0 0 0.12 0.875c0.275 -0.038 0.884 -0.132 1.593 -0.3 -1.053 1.491 -2.986 4.264 -3.436 5.153 -0.724 1.431 2.34 3.64 3.884 3.762 0.311 0.025 1.014 -0.361 3.478 -4.443 0.593 0.451 1.237 0.83 1.92 1.128a0.44 0.44 0 0 0 0.582 -0.226 0.442 0.442 0 0 0 -0.227 -0.582c-1.138 -0.5 -2.949 -1.693 -2.466 -2.183 1.378 -1.401 6.331 1.144 5.914 2.855h0.001Zm2.815 -1.848c-0.28 0.816 -1.315 1.259 -1.886 1.464 0 -1.342 -1.128 -2.513 -3.086 -3.177 -0.014 -0.013 -2.48 -1.913 -2.106 -2.736 0.56 -1.233 8.152 1.321 7.077 4.449h0.001Zm1.315 -2.8a2.876 2.876 0 0 1 -0.714 0.906c-0.078 -0.156 -0.8 -2.152 -4.893 -3.482 -0.026 -0.043 -1.56 -1.286 -1.16 -1.95 1.179 -1.955 8.043 2.303 6.766 4.528l0.001 -0.002Zm1.377 -3.527a2.39 2.39 0 0 1 -0.753 1.624 8.578 8.578 0 0 0 -5.483 -3.8c-0.016 -0.05 -0.579 -0.622 -0.314 -1.161 0.76 -1.553 6.335 1.381 6.549 3.339l0.001 -0.002Zm-5.527 -4.469c-1.758 -0.038 -2.366 1.016 -1.748 2.2a2.106 2.106 0 0 0 -1.558 0.717c-0.567 0.709 -0.148 1.547 0.351 2.173 -0.275 -0.025 -1.816 -0.017 -2.124 0.97 -0.285 0.916 0.382 1.879 1.105 2.6 -2.907 -0.321 -3.335 1.174 -2.38 2.35a26.103 26.103 0 0 1 -2.9 4.173 7.143 7.143 0 0 1 -2.975 -2.124c-0.112 -0.217 -0.066 -0.308 -0.051 -0.338 0.553 -1.091 3.669 -5.467 4.018 -5.955 1.378 -0.322 3.15 -1.448 2 -3.01l34.5 -45.671c-5.062 7.901 -28.248 41.817 -28.239 41.917l0.001 -0.002Z" stroke-width="1"></path></g><g id="globe"><path id="vector_21" fill="#f9f5e5" d="M151.731 165.661s-10.737 -4.045 -12.487 -0.89 10.151 7.575 10.887 7.838c0.736 0.263 11.422 4.915 13.3 2.416 1.878 -2.499 -7.162 -7.544 -9.433 -8.454l5.322 -12.709c5.7 1.575 23.734 4.363 31.677 -15.7 4.532 -11.447 -2.853 -25.38 -15.038 -30.212 -8.806 -3.492 -24.778 -0.926 -30.837 11.53 -8.915 18.331 5.523 30.9 11.988 33.482l-5.379 12.699Z" stroke-width="1"></path><path id="vector_22" fill="#ffb949" d="M146.876 116.93s3.885 1.421 4.866 4.276c1.362 3.964 -0.417 6.307 -1.006 8.595 -0.589 2.288 0.694 9.315 -6.333 10.5 -0.003 -0.001 -6.268 -11.158 2.473 -23.371Z" stroke-width="1"></path><path id="vector_23" fill="#ffb949" d="M175.828 108.119a5.804 5.804 0 0 1 -4.394 4.749c-4.448 1.324 -6.483 2.805 -6.668 6.57 -0.193 3.919 2.2 4.879 2.8 7.662 0.588 2.722 -1.23 7.175 1.371 9.737 2.778 2.736 8.171 1.114 10.449 2.522 2.458 1.519 4.268 5.077 7.972 5.325 0 0 6.868 -6.979 3.874 -20.189 -1.793 -7.927 -8.445 -14.06 -15.404 -16.376Z" stroke-width="1"></path><path id="vector_24" fill="#ffb949" d="M156.363 152.7s6.553 2.7 10.756 2.318c0 0.004 -3.234 -6.945 -10.756 -2.318Z" stroke-width="1"></path><path id="vector_25" fill="#501200" d="M194.94 128.958c-1.338 -19.739 -19.966 -25.321 -27.041 -25.211 -0.1 0 -0.206 0 -0.305 0.009a0.438 0.438 0 0 0 -0.423 0.426l-0.066 1.943c-14.145 0.082 -25.4 11.439 -25.193 25.091A24.676 24.676 0 0 0 156.7 153.26l-5.009 11.864c-6.122 -2.421 -11.753 -2.4 -12.748 -0.732 -1.935 3.234 8.284 7.437 11.8 8.865 2.934 1.189 12.264 4.781 13.228 1.79 0.74 -2.293 -3.571 -6.238 -9.468 -8.72 1.66 -3.829 4.655 -11.127 5.01 -11.994a25.53 25.53 0 0 0 5.522 1.1v1.989a0.44 0.44 0 0 0 0.428 0.441c6.053 0.279 14.741 -1.527 20.821 -7.283a27.251 27.251 0 0 0 8.656 -21.622Zm-47.9 -11.5c0.771 0.329 3.935 1.842 4.517 4.691 0.958 4.676 -1.444 5.125 -1.413 9.942a9.31 9.31 0 0 1 -0.822 4.173 5.835 5.835 0 0 1 -4.741 3.467 23.093 23.093 0 0 1 2.462 -22.274l-0.003 0.001Zm9.328 34.691a24.225 24.225 0 0 1 -11.439 -11.576 6.682 6.682 0 0 0 5.209 -3.968c0.655 -1.406 0.96 -2.95 0.888 -4.5a8.468 8.468 0 0 1 0.858 -4.3 9.199 9.199 0 0 0 0.538 -5.828c-0.633 -3.1 -3.721 -4.739 -4.841 -5.241a24.685 24.685 0 0 1 27.836 -8.341 5.284 5.284 0 0 1 -3.942 3.854c-4.187 1.266 -6.536 3.215 -6.984 5.793a7.808 7.808 0 0 0 1.5 6.378 8.215 8.215 0 0 1 1.215 6.011c-0.223 2.371 -0.475 5.059 1.551 6.845 2.144 1.887 4.544 1.828 6.66 1.857 4.267 0.057 5.4 1.816 6.423 2.891 1.266 1.333 2.586 2.7 5 2.978a24.622 24.622 0 0 1 -19.224 9.648 7.95 7.95 0 0 0 -5.165 -3.888 8.714 8.714 0 0 0 -6.08 1.386l-0.003 0.001Zm19.8 -43.5c14.579 5.586 20.142 22.915 11.239 35.583 -0.044 -0.019 -2.015 0.437 -4.936 -2.817 -1.017 -1.133 -2.354 -3.182 -7.069 -3.167 -1.959 0.006 -4.179 0.029 -6.069 -1.637 -1.691 -1.488 -1.47 -3.832 -1.257 -6.1a8.953 8.953 0 0 0 -1.35 -6.569 7.045 7.045 0 0 1 -1.319 -2.725 7.04 7.04 0 0 1 -0.05 -3.027c0.379 -2.192 2.582 -3.956 6.369 -5.1 4.1 -1.24 4.44 -4.279 4.452 -4.408 0.009 -0.015 -0.003 -0.024 -0.003 -0.037l-0.007 0.004Zm-23.157 58.841a0.453 0.453 0 0 0 0.038 0.421 0.442 0.442 0 0 0 0.37 0.204 0.435 0.435 0 0 0 0.234 -0.072 0.435 0.435 0 0 0 0.16 -0.185c0.093 -0.2 0.2 -0.451 0.322 -0.719 6.162 2.587 9.343 6.2 8.981 7.641 -0.737 2.943 -25.387 -6.611 -23.428 -9.931 0.6 -1.021 5.469 -1.347 11.648 1.093l-0.355 0.84a0.446 0.446 0 0 0 0.204 0.561 0.46 0.46 0 0 0 0.209 0.053 0.437 0.437 0 0 0 0.4 -0.27l5.7 -13.5c0.383 0.156 0.778 0.288 1.17 0.426 -0.529 1.297 -4.364 10.634 -5.646 13.434l-0.007 0.004Zm4.338 -14.894c3.392 -1.876 6.683 -1.388 9.136 2.015a24.787 24.787 0 0 1 -9.129 -2.019l-0.007 0.004Zm28.312 -2.65c-6.281 5.948 -14.124 7.14 -19.759 7.052v-1.526c14.89 0.748 26.886 -10.968 26.667 -25.04 -0.206 -13.252 -11.136 -23.9 -24.588 -24.273l0.051 -1.527c6.921 -0.045 24.734 5.4 26.02 24.389a26.382 26.382 0 0 1 -8.384 20.921l-0.007 0.004Z" stroke-width="1"></path></g><g id="pencil"><path id="vector_26" fill="#f9f5e5" d="M183.284 62.961c-0.858 0.13 -38.983 -21.34 -39.373 -21.6 -0.39 -0.26 -8.223 -7.86 -7.856 -8.356 0.367 -0.496 11.014 2.208 11.474 2.363 0.46 0.155 34.643 18.878 35.155 19.114 0.512 0.236 4.146 2.279 4.28 3.28 0.184 1.369 -0.922 4.782 -3.68 5.199Z" stroke-width="1"></path><path id="vector_27" fill="#ffb949" d="M139.791 37.019s1.834 -1.446 1.2 -2.926c-0.113 -0.263 -4.618 -0.736 -4.618 -0.736l3.418 3.662Z" stroke-width="1"></path><path id="vector_28" fill="#501200" d="M186.665 56.446c-1.78 -1.358 -36.214 -20.263 -39.195 -21.519 -0.024 -0.01 -10.756 -2.431 -11.653 -2.52a0.426 0.426 0 0 0 -0.346 0.094 0.43 0.43 0 0 0 -0.154 0.324c-0.039 1.177 8.421 8.887 8.453 8.9 39.472 21.855 38.929 21.591 39.673 21.579 2.557 -0.034 5.326 -5.25 3.222 -6.858Zm-41.595 -15 1.685 -0.586 32.457 17.779 -0.747 1.24c-9.105 -4.997 -29.019 -16.016 -33.395 -18.438v0.005Zm34.6 16.436L147.036 40l-0.74 -1.456 1.71 -0.055 32.539 17.93 -0.875 1.463Zm1.33 -2.217 -32.471 -17.892 -0.472 -1.59c4.919 2.456 24.637 13.241 33.628 18.344L181 55.665Zm-44.343 -22.211c2.255 0.455 7.8 1.691 10.341 2.264l0.566 1.9c-2.123 0.068 -2.191 0 -2.355 0.28 -0.164 0.28 -0.052 0.35 0.909 2.24l-2.018 0.7c-3 -2.833 -6.2 -5.978 -7.443 -7.384ZM183 62.335c-0.229 -0.108 -1.631 -0.868 -3.763 -2.036l3.213 -5.336c2.009 1.147 3.363 1.945 3.678 2.184 1.488 1.135 -1.364 6.017 -3.128 5.188Z" stroke-width="1"></path></g><g id="paper 1"><path id="vector_29" fill="#f9f5e5" d="M65.693 53.61c5.474 -0.926 21.26 -7.081 26.765 -10.511 2.376 -1.481 -0.477 -6.9 -3.343 -7.084a7.9 7.9 0 0 0 -2.975 0.859s-11.653 -4.088 -10.213 -15.415l3.961 -0.184s2.023 -4.712 -2.927 -5.929c-4.837 -1.188 -21.115 0.616 -27.713 6.113 -6.328 5.271 -2.152 16.458 -1.507 18.2 3.2 8.66 10.71 15.176 17.952 13.951Z" stroke-width="1"></path><path id="vector_30" fill="#501200" d="M88.3 35.656c-0.236 0.09 -0.917 0.338 -1.9 0.691 -0.015 -0.007 -11.753 -3.767 -10 -14.573 3.821 -0.147 3.838 0.077 4 -0.36a5.756 5.756 0 0 0 -0.255 -4.461 4.965 4.965 0 0 0 -3.778 -2.2c-5.754 -0.888 -19.195 0.72 -27.668 6.587 -1.171 0.811 -2.6 2.792 -3.025 7.179 -0.86 8.754 4.18 22.425 15.875 25.325 2.024 0.499 4.147 0.43 6.134 -0.2 15.563 -3.976 25 -10.267 25.026 -10.3 2.923 -3.816 -1.886 -8.655 -4.409 -7.688ZM76.232 15.62c3.105 0.478 4.134 2.5 3.424 5.2 -7.784 0.018 -18.159 1.123 -25.084 4.587 0.311 -4.037 -1.941 -4.518 -3.021 -4.747 7.974 -4.285 19.36 -5.86 24.681 -5.04ZM61.761 52.982C49.615 49.971 45.86 35.617 46.55 28.6c0.312 -3.173 1.3 -5.456 2.675 -6.559a2.768 2.768 0 0 1 3.988 0.673 5 5 0 0 1 0.354 3.395 0.44 0.44 0 0 0 0.657 0.487c0.074 -0.045 6.9 -4.067 21.275 -4.777 -0.318 2.085 -0.883 10.537 9.68 14.967a9898.537 9898.537 0 0 1 -18.648 6.664 0.443 0.443 0 0 0 -0.117 0.768 6.335 6.335 0 0 1 2.422 3.918c0.615 5.939 -5.704 5.185 -7.075 4.846Zm30.286 -10.235c-0.7 0.478 -8.226 5.434 -23.4 9.569 1.685 -1.976 1.686 -5.542 -1.113 -8.284 3.64 -1.3 19.686 -7.019 21.08 -7.552 1.694 -0.655 5.723 3.185 3.433 6.267Z" stroke-width="1"></path><path id="vector_31" fill="#ff7449" d="M60.055 29.693a0.443 0.443 0 0 1 -0.135 -0.863 118.174 118.174 0 0 1 12.087 -3.192 0.441 0.441 0 0 1 0.178 0.864c-7.772 1.584 -11.585 3.182 -12.13 3.191Z" stroke-width="1"></path><path id="vector_32" fill="#ff7449" d="M50.719 32.683a0.443 0.443 0 0 1 -0.162 -0.854c0.027 -0.01 2.8 -1.061 5.683 -1.938a0.44 0.44 0 0 1 0.257 0.843c-3.626 1.105 -5.558 1.946 -5.778 1.949Z" stroke-width="1"></path><path id="vector_33" fill="#ff7449" d="M52.374 38.349a0.444 0.444 0 0 1 -0.155 -0.857c0.154 -0.055 15.469 -5.516 20.781 -6.992a0.44 0.44 0 0 1 0.237 0.849c-6.019 1.673 -20.625 6.996 -20.863 7Z" stroke-width="1"></path><path id="vector_34" fill="#ff7449" d="M70.6 37.934c-0.475 0.063 -0.612 -0.676 -0.17 -0.852 0 0 3.3 -1.308 5.449 -2.02a0.441 0.441 0 1 1 0.278 0.838c-2.125 0.7 -5.148 1.979 -5.557 2.034Z" stroke-width="1"></path><path id="vector_35" fill="#ff7449" d="M56.033 43.818a0.428 0.428 0 0 1 -0.568 -0.555 0.428 0.428 0 0 1 0.237 -0.232c0.06 -0.025 6 -2.546 11.827 -4.852a0.442 0.442 0 0 1 0.326 0.82C62.041 41.3 59 42.622 56.033 43.818Z" stroke-width="1"></path><path id="vector_36" fill="#ff7449" d="M61.843 48.982a0.442 0.442 0 0 1 -0.171 -0.851c1.065 -0.429 3.959 -1.619 4.55 -1.963a0.44 0.44 0 0 1 0.445 0.761c-0.606 0.353 -4.631 2.05 -4.824 2.053Z" stroke-width="1"></path><path id="vector_37" fill="#ff7449" d="M49.762 26.922a0.443 0.443 0 0 1 -0.118 -0.868l2.015 -0.525a0.44 0.44 0 0 1 0.223 0.853c-1.947 0.511 -2.019 0.539 -2.12 0.54Z" stroke-width="1"></path></g><g id="paper 3"><path id="vector_38" fill="#f9f5e5" d="M38.446 172.369s8.536 -0.255 10.671 -13.991c0 0 7.405 -0.319 19.259 6.247 0 0 0.985 8.452 -4 14.5 -3.446 4.176 -9.7 6.895 -14.189 5.5 -4.489 -1.395 -13.182 -4.858 -18.287 -9.145 -1.32 -1.108 0.165 -5.411 3.382 -5.136l3.164 2.025Z" stroke-width="1"></path><path id="vector_39" fill="#501200" d="M68.586 164.188c-8.117 -5.14 -19.2 -6.45 -19.314 -6.462a0.436 0.436 0 0 0 -0.485 0.374c-1.985 13.668 -10.548 13.8 -10.6 13.823 -1.9 -1.2 -2.386 -2.148 -3.161 -2.1a4.157 4.157 0 0 0 -3.657 2.493c-0.539 1.244 -0.666 2.944 0.113 3.545a56.047 56.047 0 0 0 19.821 9.491c2.733 0.539 6.047 -0.739 8.533 -2 7.951 -4.038 8.994 -13.346 9.123 -16.1 0.089 -1.822 -0.038 -2.852 -0.373 -3.064Zm-36.4 11.133a2.999 2.999 0 0 1 0 -2.652A3.27 3.27 0 0 1 35.1 170.7c0.095 0.015 2.677 3.11 13.78 6.914a4.594 4.594 0 0 0 -0.53 5.936c-9.007 -3.042 -15.728 -7.689 -16.169 -8.229h0.005Zm27.257 7.245c-12.163 6.177 -12.537 -3.672 -9.37 -4.6a0.437 0.437 0 0 0 0.316 -0.41 0.44 0.44 0 0 0 -0.292 -0.428 111.87 111.87 0 0 1 -10.638 -4.476c5.939 -1.363 9 -6.759 10.14 -13.99 2.074 0.29 11.366 1.792 18.409 6.206 0.272 1.257 0.358 13.162 -8.57 17.698h0.005Z" stroke-width="1"></path><path id="vector_40" fill="#ff7449" d="M64.469 168.909c-4.126 -2.362 -13.043 -5.189 -13.151 -5.223a0.44 0.44 0 0 1 -0.06 -0.802 0.441 0.441 0 0 1 0.326 -0.04c0.369 0.117 9.111 2.887 13.324 5.3 0.472 0.271 0.067 1.056 -0.439 0.765Z" stroke-width="1"></path><path id="vector_41" fill="#ff7449" d="M62.391 173.855c-0.355 0.006 -0.745 -0.689 -7.862 -3.55a0.443 0.443 0 0 1 -0.234 -0.569 0.442 0.442 0 0 1 0.563 -0.249 60.395 60.395 0 0 1 7.75 3.548 0.444 0.444 0 0 1 0.201 0.492 0.439 0.439 0 0 1 -0.418 0.328Z" stroke-width="1"></path><path id="vector_42" fill="#ff7449" d="M52.605 169.535c-1.954 -0.786 -3.4 -1.341 -3.4 -1.341a0.442 0.442 0 0 1 0.318 -0.823s1.446 0.557 3.407 1.346a0.442 0.442 0 0 1 -0.325 0.818Z" stroke-width="1"></path><path id="vector_43" fill="#ff7449" d="M58.915 178.224c-2.81 -1.767 -12.5 -5.809 -12.619 -5.858a0.44 0.44 0 0 1 0.01 -0.802 0.442 0.442 0 0 1 0.327 -0.012c0.4 0.167 9.876 4.117 12.752 5.925a0.446 0.446 0 0 1 0.195 0.276 0.442 0.442 0 0 1 -0.332 0.528 0.434 0.434 0 0 1 -0.172 0.004 0.426 0.426 0 0 1 -0.161 -0.061Z" stroke-width="1"></path><path id="vector_44" fill="#ff7449" d="m52.279 181.884 -2.58 -1.265a0.438 0.438 0 0 1 -0.202 -0.589 0.44 0.44 0 0 1 0.589 -0.202l2.58 1.264c0.486 0.238 0.134 1.055 -0.387 0.792Z" stroke-width="1"></path></g><g id="paper 2"><path id="vector_45" fill="#f9f5e5" d="M69.159 134.438s13.147 -12.031 30.817 -15.864c0 0 1.39 16.143 14.411 27.192 0 0 5.343 -2.5 6.349 -2.282 7.385 1.593 6.5 7.787 4.984 9.315 -1.516 1.528 -23.969 19.914 -27.68 20.519 -3.711 0.605 -14.27 -0.047 -22.408 -12.095 -2.717 -4.023 -7.867 -11.67 -6.473 -26.785Z" stroke-width="1"></path><path id="vector_46" fill="#501200" d="M120 143.037a30.06 30.06 0 0 0 -5.311 2.388 41.189 41.189 0 0 1 -14.142 -27.04 0.438 0.438 0 0 0 -0.358 -0.413 0.454 0.454 0 0 0 -0.194 0.005c-20.375 5.315 -31.046 16.073 -31.152 16.181a0.431 0.431 0 0 0 -0.116 0.222 38.1 38.1 0 0 0 6.623 27.08c6.17 8.707 14.806 12.741 20.617 12.5a10.458 10.458 0 0 0 5.308 -1.56 295.894 295.894 0 0 0 24.784 -19.3c4 -5.548 -3.436 -10.874 -6.059 -10.063Zm-18.309 27.586c-3.478 5.09 -17.047 2.424 -25.622 -9.672a37.3 37.3 0 0 1 -6.5 -26.27c1.079 -1.052 11.35 -10.69 30.139 -15.715a42.322 42.322 0 0 0 14.159 26.918c-9.075 5.166 -20.558 14.675 -21.16 15.175a0.443 0.443 0 0 0 0.167 0.755c0.1 0.031 0.21 0.025 0.306 -0.017 4.12 -1.966 11.861 3.916 8.507 8.826h0.004Zm23.722 -18.109c-0.121 0.1 -11.372 9.907 -22.472 17.672 2.168 -4.912 -3.426 -9.858 -8.183 -9.658 4.535 -3.651 18.317 -14.435 25.5 -16.648 0.939 -0.291 3.536 0.851 5.054 2.964a4.573 4.573 0 0 1 0.097 5.67h0.004Z" stroke-width="1"></path><path id="vector_47" fill="#ff7449" d="M86.49 132.048a0.448 0.448 0 0 1 -0.423 -0.326 0.445 0.445 0 0 1 0.194 -0.497c3.25 -1.882 4.771 -2.643 9.372 -4.839a0.443 0.443 0 0 1 0.38 0.8c-9.113 4.345 -9.104 4.855 -9.523 4.862Z" stroke-width="1"></path><path id="vector_48" fill="#ff7449" d="M75.024 139.112a0.445 0.445 0 0 1 -0.265 -0.8c0.028 -0.022 2.928 -2.11 8.532 -5.356a0.44 0.44 0 1 1 0.443 0.763c-7.842 4.543 -8.262 5.381 -8.71 5.393Z" stroke-width="1"></path><path id="vector_49" fill="#ff7449" d="M85.731 141.076a97.144 97.144 0 0 1 12.744 -7.056 0.44 0.44 0 0 1 0.555 0.23 0.44 0.44 0 0 1 -0.189 0.57 96.335 96.335 0 0 0 -12.622 6.987 0.44 0.44 0 0 1 -0.65 -0.454 0.442 0.442 0 0 1 0.162 -0.277Z" stroke-width="1"></path><path id="vector_50" fill="#ff7449" d="M77.527 147.49a0.447 0.447 0 0 1 -0.41 -0.281 0.446 0.446 0 0 1 0.11 -0.485 44.435 44.435 0 0 1 5.418 -3.786 0.443 0.443 0 0 1 0.454 0.757c-5.225 3.137 -5.056 3.792 -5.572 3.795Z" stroke-width="1"></path><path id="vector_51" fill="#ff7449" d="M82.42 153.422c0.137 -0.091 13.656 -9.041 20.592 -12.734a0.442 0.442 0 1 1 0.415 0.779c-6.9 3.673 -20.383 12.6 -20.518 12.69a0.442 0.442 0 0 1 -0.489 -0.735Z" stroke-width="1"></path><path id="vector_52" fill="#ff7449" d="M103.226 148.623c2.324 -1.589 2.568 -1.645 3.822 -2.411a0.444 0.444 0 0 1 0.592 0.156 0.443 0.443 0 0 1 -0.132 0.598c-1.435 0.87 -1.489 0.817 -3.785 2.385a0.442 0.442 0 0 1 -0.671 -0.447 0.447 0.447 0 0 1 0.174 -0.281Z" stroke-width="1"></path><path id="vector_53" fill="#ff7449" d="M86.8 159.987a150.016 150.016 0 0 1 13.267 -9.3 0.443 0.443 0 0 1 0.664 0.473 0.44 0.44 0 0 1 -0.196 0.275 149.63 149.63 0 0 0 -13.181 9.24 0.442 0.442 0 0 1 -0.554 -0.688Z" stroke-width="1"></path><path id="vector_54" fill="#ff7449" d="M94.569 168.158a0.44 0.44 0 0 1 -0.28 -0.787c0.021 -0.019 2.263 -1.781 4.139 -3a0.442 0.442 0 0 1 0.479 0.741c-1.84 1.191 -4.05 2.929 -4.073 2.946a0.436 0.436 0 0 1 -0.265 0.1Z" stroke-width="1"></path></g><g id="elements"><path id="vector_55" fill="#ffb949" d="M30.826 37.883c1.678 -7.9 -3.242 -11.692 -7.244 -10.229 1.666 4.507 -1 7.217 -3.22 5.985a2.023 2.023 0 0 1 -0.957 -2.054 6.016 6.016 0 0 1 3.034 -4.373c-2.059 -4.277 -6.773 -3.754 -9.038 -2.849a0.44 0.44 0 1 1 -0.328 -0.819c2.947 -1.181 7.992 -1.225 10.166 3.3 4.631 -1.733 10.291 2.556 8.448 11.222a0.44 0.44 0 0 1 -0.861 -0.183Zm-8.045 -9.849c-1.582 0.581 -3.389 3.763 -1.992 4.833 1.593 1.219 3.411 -2.332 1.992 -4.833Z" stroke-width="1"></path><path id="vector_56" fill="#501200" d="M23.993 44.015a33.999 33.999 0 0 0 -9.755 -3.409 0.442 0.442 0 0 1 0.116 -0.875 34.198 34.198 0 0 1 10.037 3.5 0.441 0.441 0 0 1 -0.398 0.784Z" stroke-width="1"></path><path id="vector_57" fill="#501200" d="M14.977 50.993a0.441 0.441 0 0 1 -0.167 -0.852 34.25 34.25 0 0 1 8.843 -1.548 0.44 0.44 0 1 1 0.069 0.879c-2.97 0.121 -5.91 0.632 -8.745 1.521Z" stroke-width="1"></path><path id="vector_58" fill="#ffb949" d="M166.988 29.5a8.548 8.548 0 0 1 2.94 -5.006 5.33 5.33 0 0 1 3.72 -1.066c0.988 -2.161 3.733 -4.421 8.38 -3.909a0.444 0.444 0 0 1 0.377 0.488 0.442 0.442 0 0 1 -0.477 0.39c-4 -0.449 -6.421 1.357 -7.368 3.172 3.163 0.791 4.469 4.958 1.571 5.667 -0.761 0.187 -3.471 -0.191 -2.781 -4.941a4.54 4.54 0 0 0 -2.892 0.9 7.763 7.763 0 0 0 -2.6 4.412 0.44 0.44 0 0 1 -0.87 -0.107Zm7.248 -5.1c-0.829 2.6 0.681 4.581 2 3.9 1.822 -0.937 -0.436 -4.095 -2 -3.9Z" stroke-width="1"></path><path id="vector_59" fill="#501200" d="M181.286 37.35a0.439 0.439 0 0 1 -0.437 -0.339 0.444 0.444 0 0 1 0.237 -0.499c0.2 -0.095 4.859 -2.313 8.48 -1.173a0.44 0.44 0 0 1 0.06 0.802 0.441 0.441 0 0 1 -0.326 0.04c-3.418 -1.081 -7.737 1.165 -8.014 1.169Z" stroke-width="1"></path><path id="vector_60" fill="#501200" d="M157.328 23.849a28.195 28.195 0 0 0 -1.208 -7.141 0.443 0.443 0 0 1 0.273 -0.548 0.444 0.444 0 0 1 0.558 0.254 28.481 28.481 0 0 1 1.258 7.389 0.439 0.439 0 0 1 -0.418 0.463 0.442 0.442 0 0 1 -0.463 -0.417Z" stroke-width="1"></path><path id="vector_61" fill="#501200" d="M119.282 182.047a0.442 0.442 0 0 1 -0.427 -0.576 91.642 91.642 0 0 1 3.912 -9.275 0.445 0.445 0 0 1 0.588 -0.2 0.445 0.445 0 0 1 0.205 0.586 93.466 93.466 0 0 0 -3.865 9.159 0.443 0.443 0 0 1 -0.413 0.306Z" stroke-width="1"></path><path id="vector_62" fill="#501200" d="M126 184.727c-0.05 -3.206 0.448 -10.5 0.453 -10.576a0.425 0.425 0 0 1 0.04 -0.172 0.453 0.453 0 0 1 0.256 -0.234 0.452 0.452 0 0 1 0.346 0.024 0.436 0.436 0 0 1 0.221 0.267 0.437 0.437 0 0 1 0.016 0.176c0 0.073 -0.5 7.332 -0.451 10.5a0.44 0.44 0 0 1 -0.881 0.015Z" stroke-width="1"></path><path id="vector_63" fill="#501200" d="M136.173 182.4a0.438 0.438 0 0 1 -0.375 -0.2 76.747 76.747 0 0 1 -4.669 -8.478 0.445 0.445 0 0 1 0.225 -0.562 0.445 0.445 0 0 1 0.575 0.19 75.437 75.437 0 0 0 4.6 8.361 0.453 0.453 0 0 1 0.019 0.446 0.448 0.448 0 0 1 -0.375 0.243Z" stroke-width="1"></path><path id="vector_64" fill="#ffb949" d="M178.656 171.694h-0.842l-0.028 -2.418a0.443 0.443 0 0 0 -0.448 -0.435 0.44 0.44 0 0 0 -0.434 0.448l0.029 2.418h-0.9a0.443 0.443 0 0 0 -0.415 0.446 0.437 0.437 0 0 0 0.426 0.435h0.9l0.03 2.547a0.443 0.443 0 0 0 0.447 0.434 0.439 0.439 0 0 0 0.435 -0.447l-0.031 -2.547h0.84a0.438 0.438 0 0 0 0.416 -0.445 0.44 0.44 0 0 0 -0.425 -0.436Z" stroke-width="1"></path><path id="vector_65" fill="#ffb949" d="m20.968 95.983 -1.8 0.019 -0.056 -4.2a0.441 0.441 0 0 0 -0.882 0.012l0.056 4.2 -1.919 0.02a0.44 0.44 0 0 0 0.011 0.881l1.92 -0.02 0.055 4.141a0.438 0.438 0 0 0 0.278 0.404 0.445 0.445 0 0 0 0.48 -0.102 0.446 0.446 0 0 0 0.124 -0.314l-0.055 -4.138 1.8 -0.018a0.442 0.442 0 1 0 -0.012 -0.885Z" stroke-width="1"></path><path id="vector_66" fill="#ffb949" d="M111.848 24.185H110.7l-0.029 -2.453a0.434 0.434 0 0 0 -0.126 -0.323 0.444 0.444 0 0 0 -0.494 -0.094 0.45 0.45 0 0 0 -0.236 0.254 0.435 0.435 0 0 0 -0.025 0.175l0.029 2.46h-1.306a0.438 0.438 0 0 0 -0.31 0.133 0.442 0.442 0 0 0 0.008 0.624 0.439 0.439 0 0 0 0.313 0.125h1.306l0.031 2.553a0.443 0.443 0 0 0 0.447 0.435 0.438 0.438 0 0 0 0.404 -0.278 0.445 0.445 0 0 0 0.031 -0.169l-0.031 -2.56h1.146a0.44 0.44 0 0 0 0.436 -0.446 0.439 0.439 0 0 0 -0.446 -0.436Z" stroke-width="1"></path></g></g></svg>