<svg xmlns="http://www.w3.org/2000/svg" fill="none" viewBox="0 0 200 200"><g id="mathematician--science-mathematician"><g id="board"><path id="vector" fill="#ff7449" d="M195 17.737H5v126.991h190V17.738Z" stroke-width="1"></path><g id="group"><path id="vector_2" fill="#f9f5e5" d="M22.643 57.356c0.157 3.438 1.89 6.595 4.735 8.54 1.73 0.988 3.5 1.638 5.272 1.933 0.909 0.13 1.759 0.151 2.643 0.154v9.615a0.5 0.5 0 0 0 1 0v-9.635c6.994 -0.389 13.689 -4.6 13.643 -11.68 4.513 -0.144 9.17 -0.285 13.795 -0.212 0.655 0.028 0.685 -0.989 0.016 -1 -4.658 -0.073 -9.333 0.068 -13.865 0.213 -0.641 -6.609 -6.725 -12.653 -14.005 -12.036 -0.367 -4.6 -0.729 -6.642 -1.161 -10.14 -0.083 -0.656 -1.074 -0.532 -0.992 0.124 0.413 3.28 0.808 5.695 1.16 10.142 -6.168 1.025 -11.949 5.977 -12.24 12.92 -9.202 0.46 -9.898 0.44 -10.797 0.666 -0.569 0.142 -0.465 0.985 0.121 0.985 0.196 0 0.12 -0.075 1.207 -0.17 0.974 -0.086 0.059 -0.035 9.469 -0.418l-0.001 0Zm10.16 9.485c-1.643 -0.274 -3.301 -0.884 -4.895 -1.792 -2.551 -1.745 -4.123 -4.61 -4.267 -7.733l11.651 -0.475v10.143c-0.84 -0.003 -1.652 -0.023 -2.49 -0.143h0.001Zm3.49 0.121V56.803c2.133 -0.072 10.563 -0.417 12.644 -0.487 0.023 6.467 -6.226 10.271 -12.644 10.646ZM48.88 55.317c-2.076 0.071 -10.468 0.414 -12.588 0.486 -0.011 -2.779 -0.083 -7.297 -0.347 -11.558 6.685 -0.583 12.314 4.995 12.935 11.072Zm-13.929 -10.94c0.264 4.182 0.332 9.011 0.341 11.461l-11.646 0.413c0.308 -6.3 5.575 -10.883 11.305 -11.875v0.001Z" stroke-width="1"></path><path id="vector_3" fill="#f9f5e5" d="M14.749 43.764a0.5 0.5 0 0 0 0.283 -0.959c-4.326 -1.273 -1.064 -6.215 -1.064 -6.863 0 -0.59 -0.849 -0.69 -0.986 -0.117 -0.111 0.314 -0.846 1.95 -0.905 2.344 -1.017 3.674 0.891 5.07 2.674 5.595h-0.002Z" stroke-width="1"></path><path id="vector_4" fill="#f9f5e5" d="M16.45 37.681c0.485 0.39 0.565 0.534 1.471 1.346 -0.183 0.243 -1.069 1.444 -1.329 1.778a0.5 0.5 0 0 0 0.789 0.615c0.408 -0.525 0.813 -1.09 1.288 -1.723 1.678 1.501 1.654 1.542 1.914 1.542a0.5 0.5 0 0 0 0.332 -0.874l-1.645 -1.47a4.68 4.68 0 0 1 0.293 -0.333c0.282 -0.352 0.573 -0.716 0.844 -0.987 0.155 -0.136 0.712 -0.336 0.652 -0.823 -0.024 -0.19 -0.21 -0.398 -0.394 -0.459a0.5 0.5 0 0 0 -0.632 0.317l-0.008 0.017c-0.407 0.26 -0.678 0.6 -1.22 1.286a4.5 4.5 0 0 0 -0.282 0.313c-0.787 -0.704 -0.901 -0.885 -1.449 -1.324a0.5 0.5 0 1 0 -0.625 0.781l0.001 -0.002Z" stroke-width="1"></path><path id="vector_5" fill="#f9f5e5" d="M23.123 42.111a0.503 0.503 0 0 0 0.632 -0.317c0.299 -0.85 0.39 -1.158 0.311 -1.478a0.509 0.509 0 0 0 -0.608 -0.373 0.493 0.493 0 0 0 -0.366 0.598c0.013 0.167 -0.215 0.734 -0.286 0.937a0.498 0.498 0 0 0 0.317 0.632v0.001Z" stroke-width="1"></path><path id="vector_6" fill="#f9f5e5" d="M25.077 38.444c0.741 0.848 1.364 1.845 1.646 1.988 -0.47 1.239 -0.963 2.504 -1.564 3.672a0.5 0.5 0 0 0 0.889 0.458c1.299 -2.523 2.035 -5.269 3.227 -7.728a0.5 0.5 0 1 0 -0.899 -0.437c-0.471 0.971 -0.876 1.996 -1.262 3.006 -0.459 -0.56 -1.142 -1.53 -1.997 -2.45 -0.105 -0.456 -0.743 -0.505 -0.958 -0.237 -0.444 0.546 0.439 0.986 0.919 1.727l-0.001 0.001Z" stroke-width="1"></path><path id="vector_7" fill="#f9f5e5" d="M31.116 36.454c0.677 2.37 -0.678 4.91 -1.292 5.891 -0.353 0.565 0.503 1.081 0.848 0.53 0.685 -1.096 2.192 -3.94 1.404 -6.703a7 7 0 0 0 -1.128 -2.178c-0.414 -0.552 -1.241 -1.514 -1.728 -1.028a0.5 0.5 0 0 0 0 0.707c0.419 0.42 1.395 1.111 1.896 2.78v0.001Z" stroke-width="1"></path><path id="vector_8" fill="#f9f5e5" d="M53.837 49.553c0.945 0.84 2.699 0.622 3.504 -1.15 0.916 -2.02 0.428 -5.489 -0.379 -6.744 -0.47 -0.73 -1.509 -1.418 -2.461 -1.292 -1.702 0.23 -1.742 2.708 -1.975 4.388 -0.057 0.96 0.069 3.695 1.312 4.8l-0.001 -0.002Zm2.593 -1.564c-0.421 0.928 -1.346 1.334 -1.929 0.817 -0.618 -0.548 -0.876 -1.884 -0.956 -2.924 0 0 2.9 -0.062 3.289 -0.069 -0.013 0.802 -0.134 1.581 -0.403 2.176h-0.001Zm-1.701 -6.638c0.479 0 1.121 0.428 1.392 0.848 0.33 0.513 0.583 1.527 0.677 2.614 -0.39 0.007 -3.269 0.07 -3.279 0.07v-0.03c0.148 -1.027 0.243 -3.502 1.211 -3.502h-0.001Z" stroke-width="1"></path><path id="vector_9" fill="#f9f5e5" d="M54.267 81.113a0.5 0.5 0 0 0 -0.575 -0.41c-4.102 0.683 -5.136 -2.898 -4.962 -7.054a0.5 0.5 0 0 0 -1 -0.042c-0.204 4.9 1.357 8.876 6.125 8.081a0.5 0.5 0 0 0 0.411 -0.575h0.001Z" stroke-width="1"></path><path id="vector_10" fill="#f9f5e5" d="M56.445 75.405c0.277 0.285 0.576 0.568 0.896 0.847a0.5 0.5 0 0 0 0.659 -0.753c-2.362 -2.068 -2.325 -3.661 -5.093 -2.143 -1.941 1.236 -1.331 4.019 0.563 5.062 1.947 1.004 2.992 -0.774 2.976 -3.013h-0.001Zm-3.729 0.167c-0.013 -0.407 0.103 -0.975 0.682 -1.346 2 -0.973 1.925 -0.207 2.013 0.474 0.128 0.987 -0.021 2.379 -0.542 2.848 -0.585 0.534 -2.108 -0.546 -2.153 -1.976Z" stroke-width="1"></path><path id="vector_11" fill="#f9f5e5" d="M62.239 69.734c-1.623 -0.812 -3.073 1.224 -3.102 2.965 -0.573 -0.716 -1.223 -1.822 -1.591 -2.293 -0.728 -0.93 -0.614 -0.778 -0.701 -1 -0.11 -0.275 -0.259 -0.65 -0.686 -0.569 -0.235 0.045 -0.413 0.281 -0.413 0.521 0 0.227 0.112 0.277 0.169 0.42 0.134 0.333 0.06 0.235 0.839 1.241 0.596 0.77 2.282 3.91 3.237 3.236a0.495 0.495 0 0 0 0.15 0.023c2.21 0 4.815 -3.276 2.097 -4.543l0.001 0Zm0.143 1.777c-0.172 0.778 -1.365 1.73 -2.192 1.766a2.927 2.927 0 0 1 -0.01 -1.035c0.145 -0.626 0.577 -1.408 1.051 -1.63 0.2 -0.095 0.375 -0.076 0.573 0.023 0.7 0.327 0.611 0.726 0.578 0.876Z" stroke-width="1"></path><path id="vector_12" fill="#f9f5e5" d="M64.231 74.693a0.5 0.5 0 0 0 0.647 -0.285c1.086 -2.792 1.743 -5.27 -1.23 -7.335 -0.908 -0.628 -1.917 -1.11 -3.345 -1.579 -0.463 -0.103 -1.115 -0.438 -1.498 -0.156a0.554 0.554 0 0 0 -0.213 0.423c0 0.33 0.357 0.573 0.652 0.476 0.841 0.171 2.585 0.794 3.833 1.658 2.388 1.66 1.894 3.512 0.868 6.151a0.5 0.5 0 0 0 0.285 0.647h0.001Z" stroke-width="1"></path><path id="vector_13" fill="#f9f5e5" d="M63.976 60.65c-1.465 -1.17 -3.322 1.306 -3.123 1.953 0.165 0.533 0.951 0.451 0.987 -0.106 0.136 -0.275 0.659 -1.007 1.141 -1.145 0.762 -0.217 0.435 1.158 0.257 1.975 -0.2 0.92 -0.344 1.584 0.164 1.895 0.64 0.39 1.252 -0.29 3.57 -2.143a0.5 0.5 0 0 0 -0.624 -0.782c-2.248 1.801 -1.935 1.58 -2.249 1.808 0.198 -1.115 0.766 -2.744 -0.124 -3.456l0.001 0.001Z" stroke-width="1"></path><path id="vector_14" fill="#f9f5e5" d="M51.328 92.226a17.274 17.274 0 0 0 1.861 -0.52 0.5 0.5 0 1 0 -0.33 -0.944c-2.625 0.92 -7.885 1.294 -7.165 2.588a0.5 0.5 0 0 0 0.68 0.194c0.713 -0.396 0.578 -0.284 0.739 -0.337 0.242 -0.08 0.559 -0.179 0.894 -0.26 0.097 1.006 0.418 2.39 0.247 5.3 -0.039 0.674 0.959 0.714 0.998 0.06 0.203 -3.47 -0.308 -5.367 -0.243 -5.584 0.363 -0.082 1.3 -0.277 1.399 -0.298 0.918 1.39 1.716 4.847 2.052 6.478 0.133 0.648 1.112 0.444 0.979 -0.204 -0.21 -1.019 -1.097 -5.887 -2.111 -6.473Z" stroke-width="1"></path><path id="vector_15" fill="#f9f5e5" d="M56.448 93.441c-0.625 0.11 -1.634 -0.274 -1.759 0.43 -0.08 0.448 0.461 0.782 0.816 0.566 1.243 0.031 0.668 0.018 1.961 -0.11 1.005 -0.103 3.199 -0.316 2.747 -1.22a0.502 0.502 0 0 0 -0.671 -0.224c-0.829 0.415 -2.268 0.412 -3.095 0.557l0.001 0.001Z" stroke-width="1"></path><path id="vector_16" fill="#f9f5e5" d="M60.467 95.157c-1.385 0.138 -2.716 0.404 -4.007 0.675 -0.519 0.109 -0.48 1.122 0.263 0.967 1.247 -0.261 2.53 -0.516 3.844 -0.646 0.643 -0.064 0.578 -1.044 -0.1 -0.995v-0.001Z" stroke-width="1"></path><path id="vector_17" fill="#f9f5e5" d="M68.489 92.491c-0.644 -0.25 -1.243 -0.24 -1.798 -0.148 0.676 -0.735 0.902 -1.482 0.673 -2.225 -0.469 -1.598 -3.022 -1.477 -4.439 -0.824 -0.513 0.236 -1.167 0.643 -1.167 1.063 0 0.628 1.033 0.79 1.116 0.117 0.251 -0.155 0.636 -0.353 0.769 -0.406 0.436 -0.108 2.497 -0.568 2.764 0.338 0.266 0.863 -0.899 1.794 -1.694 2.178 -0.81 0.391 -0.709 0.604 -0.673 0.77 0.05 0.228 0.288 0.402 0.523 0.402 1.367 0 2.397 -0.788 3.575 -0.33 0.709 0.258 1.022 1.337 0.162 1.984 -0.72 0.566 -1.912 0.764 -3.45 0.571a0.5 0.5 0 1 0 -0.124 0.992c1.938 0.242 4.094 0.003 4.952 -1.749 0.4 -1.103 -0.148 -2.356 -1.188 -2.734l-0.001 0.001Z" stroke-width="1"></path><path id="vector_18" fill="#f9f5e5" d="M72.172 94.743a0.5 0.5 0 0 0 -0.654 0.27c-0.147 0.352 -0.34 0.788 -0.342 0.812 -0.469 0.47 0.244 1.17 0.707 0.707 0.065 -0.064 0.145 -0.145 0.558 -1.135a0.5 0.5 0 0 0 -0.269 -0.654Z" stroke-width="1"></path><path id="vector_19" fill="#f9f5e5" d="M74.188 89.241c-0.091 -0.376 0.004 -1.678 -0.508 -2.019 -0.485 -0.325 -1.04 0.314 -0.65 0.75 0.093 0.281 0.118 1.222 0.187 1.512 0.298 1.638 0.596 3.276 0.894 4.84a0.5 0.5 0 1 0 0.983 -0.186c-0.297 -1.562 -0.595 -3.197 -0.905 -4.897h-0.001Z" stroke-width="1"></path><path id="vector_20" fill="#f9f5e5" d="M79.752 91.442c0.162 0.754 0.365 1.46 0.514 1.958a0.5 0.5 0 1 0 0.958 -0.288 22.743 22.743 0 0 1 -0.594 -2.378c-0.351 -1.406 -0.509 -2.248 -0.509 -3.697 0 -0.724 -1.15 -0.612 -1.15 0.075 0 0.56 -0.009 0.457 0.211 1.548 0.011 0.54 0.02 2.398 -0.519 2.451 -0.521 0.051 -0.993 -0.842 -1.522 -2.653 -0.086 -0.295 -0.284 -0.726 -0.311 -1.017 0.27 -0.459 -0.271 -0.963 -0.708 -0.67 -0.656 0.438 -0.02 1.763 0.02 1.821 0.403 1.502 1.074 3.693 2.611 3.514 0.44 -0.028 0.776 -0.282 0.999 -0.666v0.002Z" stroke-width="1"></path><path id="vector_21" fill="#f9f5e5" d="M20.334 100.224a0.5 0.5 0 0 0 -0.5 -0.5c-0.378 0 -0.762 -0.052 -1.169 -0.108 -1.925 -0.26 -3.805 -0.048 -4.19 -0.027 0.159 -0.245 0.332 -0.494 0.539 -0.748 0.321 -0.513 2.331 -3.532 2.5 -3.73 0.452 -0.53 0.797 -0.97 0.797 -1.405a0.5 0.5 0 0 0 -0.5 -0.5c-1.152 0 -1.589 0.188 -2.311 0.276 -2.072 0.253 -2.557 0.388 -2.729 0.79a0.626 0.626 0 0 0 0.069 0.558 0.502 0.502 0 0 0 0.83 -0.043c0.464 -0.143 1.758 -0.287 2.389 -0.37 0.268 -0.068 0.562 -0.12 0.863 -0.156 -0.552 0.672 -3.655 5.358 -3.723 5.461a0.502 0.502 0 0 0 0 0.555c0.49 0.734 2.255 -0.09 5.331 0.331 0.421 0.057 0.858 0.117 1.304 0.117a0.5 0.5 0 0 0 0.5 -0.5v-0.001Z" stroke-width="1"></path><path id="vector_22" fill="#f9f5e5" d="M22.219 96.075c0.651 -0.08 0.538 -1.07 -0.125 -0.992 -0.274 0.034 -0.537 0.14 -0.792 0.24 -0.154 0.061 -0.562 0.224 -0.624 0.171a0.498 0.498 0 0 0 -0.705 0.064c-0.33 0.396 0.055 0.942 0.735 0.942 0.567 0 1.142 -0.379 1.51 -0.425h0.001Z" stroke-width="1"></path><path id="vector_23" fill="#f9f5e5" d="M23.431 98.702a0.499 0.499 0 1 0 0 -1c-0.497 0.003 -1.984 0.031 -2.485 -0.07 -0.44 -0.461 -1.167 0.169 -0.743 0.702 0.282 0.356 1.006 0.381 3.228 0.368Z" stroke-width="1"></path><path id="vector_24" fill="#f9f5e5" d="M30.049 92.732c-0.126 -0.169 -0.432 -0.292 -0.631 -0.232 -0.411 0.127 -0.429 0.538 -0.452 1.059 -0.026 0.557 0.074 0.253 -1.206 3.253 -1.091 -1.339 -2.059 -3.423 -2.873 -3.055 -0.213 0.095 -0.345 0.418 -0.299 0.647a0.498 0.498 0 0 0 0.459 0.401c0.515 0.559 1.373 1.931 2.261 3.047a146.867 146.867 0 0 1 -2.08 4.478 0.5 0.5 0 0 0 0.901 0.434c1.244 -2.577 2.149 -4.573 2.929 -6.458 0.907 -2.042 0.866 -2.04 0.917 -2.896a0.5 0.5 0 0 0 0.074 -0.68v0.002Z" stroke-width="1"></path><path id="vector_25" fill="#f9f5e5" d="M37.183 97.33c-0.733 -0.062 -1.416 -0.124 -2.089 -0.184v-1.91c0.021 -0.115 0.267 -0.499 0.101 -0.857a0.751 0.751 0 0 0 -0.367 -0.323 0.5 0.5 0 0 0 -0.616 0.675c-0.157 0.396 -0.117 0.222 -0.117 2.308 -0.974 -0.11 -1.248 -0.086 -1.605 -0.086a0.5 0.5 0 0 0 0 1c0.662 0 0.579 -0.008 0.963 0.035 0.542 0.06 0.333 0.02 0.646 0.056 0.026 1.124 0.155 2.186 0.221 3.188a0.5 0.5 0 1 0 0.998 -0.066c-0.067 -1.005 -0.184 -1.99 -0.215 -3.015 0.644 0.058 2.026 0.176 2.04 0.176 0.635 0 0.674 -0.946 0.041 -0.998h-0.001Z" stroke-width="1"></path><path id="vector_26" fill="#f9f5e5" d="M41.216 100.414c-0.621 0.155 -1.133 0.199 -1.615 0.139 -0.662 -0.077 -0.776 0.911 -0.124 0.992 0.175 0.022 0.354 0.033 0.54 0.033 4.686 0 4.788 -5.252 1.297 -5.555 1.959 -2.205 0.524 -3.638 -1.932 -3.213 -1.847 0.324 -1.898 1.657 -1.192 1.765a0.5 0.5 0 0 0 0.57 -0.418c0.009 -0.059 0.222 -0.262 0.794 -0.362 0.847 -0.147 1.556 0.064 1.644 0.226 0.179 0.327 -0.375 1.191 -1.263 1.954l-0.102 0.102c-0.251 0.067 -0.776 0.247 -0.966 0.627 -0.129 0.25 -0.063 0.606 0.213 0.763 0.394 0.223 0.802 -0.119 1.137 -0.439 3.336 -0.374 3.086 2.828 0.999 3.385v0.001Z" stroke-width="1"></path><path id="vector_27" fill="#f9f5e5" d="M24.518 116.243c-0.775 0.311 -1.548 0.535 -2.218 0.72 -3.085 0.514 -3.328 -2.318 -1.044 -3.704 0.35 -0.17 1.341 -0.535 1.73 -0.562 0.33 0.364 0.935 0.08 0.865 -0.406a0.659 0.659 0 0 0 -0.352 -0.495c-0.724 -0.377 -2.669 0.558 -2.724 0.587 -3.338 2.02 -2.453 6.261 1.739 5.555 0.748 -0.204 1.554 -0.438 2.377 -0.767a0.5 0.5 0 0 0 -0.372 -0.928h-0.001Z" stroke-width="1"></path><path id="vector_28" fill="#f9f5e5" d="M26.4 109.6c0.329 -0.141 0.764 -0.161 0.816 -0.057 -0.31 1.235 -1.572 1.832 -1.456 2.564 0.074 0.463 0.683 0.582 1.154 0.582 1.013 0 2.547 -0.551 3.298 -0.504a0.495 0.495 0 0 0 0.534 -0.463c0.083 -1.135 -2.298 -0.13 -3.672 -0.042 0.492 -0.567 0.929 -1.168 1.111 -1.896 0.309 -1.235 -1.019 -1.605 -2.207 -1.093 -0.369 0.184 -0.676 0.496 -0.976 0.721a0.5 0.5 0 0 0 0.599 0.801c0.264 -0.197 0.603 -0.517 0.796 -0.615l0.003 0.002Z" stroke-width="1"></path><path id="vector_29" fill="#f9f5e5" d="M36.841 112.862a0.5 0.5 0 0 0 0 -1h-2.697a0.5 0.5 0 0 0 0 1h2.697Z" stroke-width="1"></path><path id="vector_30" fill="#f9f5e5" d="M33.123 114.592c-0.253 0.531 0.428 1.093 0.851 0.67 1.302 0.096 0.139 0.09 1.997 -0.004 0.381 -0.019 0.763 -0.038 1.145 -0.076 0.649 -0.065 0.57 -1.052 -0.1 -0.995 -0.365 0.037 -0.73 0.055 -1.096 0.073 -1.422 0.071 -0.927 0.102 -1.492 0.041 -0.644 -0.068 -1.11 -0.119 -1.307 0.291h0.002Z" stroke-width="1"></path><path id="vector_31" fill="#f9f5e5" d="M45.874 114.062c0.504 -0.719 0.061 -1.103 0.519 0.955a0.501 0.501 0 0 0 0.977 -0.216c-0.242 -1.087 -0.207 -1.653 -0.386 -2.367 0.206 -0.278 0.122 -0.57 -0.336 -0.854 -2.052 -1.462 -5.992 -0.631 -5.116 2.345 0.627 2.149 3.24 1.711 4.342 0.137Zm-1.573 -2.177c1.089 0 1.829 0.063 0.753 1.604 -0.421 0.604 -1.264 0.992 -1.854 0.89 -0.351 -0.062 -0.583 -0.302 -0.709 -0.735 -0.363 -1.235 0.584 -1.759 1.81 -1.759Z" stroke-width="1"></path><path id="vector_32" fill="#f9f5e5" d="M49.287 109.467c-0.598 0.401 -1.07 0.718 -0.931 1.224 0.192 0.697 1.151 0.598 3.62 0.598a0.5 0.5 0 0 0 0 -1h-2.119c0.826 -0.553 2.188 -1.475 1.502 -2.674 -0.84 -1.438 -4.665 -0.287 -3.62 1.278 0.394 0.589 1.173 0.028 0.827 -0.49 0.066 -0.137 0.605 -0.415 1.252 -0.44 0.414 -0.013 0.637 0.087 0.675 0.152 0.208 0.363 -0.482 0.867 -1.206 1.353v-0.001Z" stroke-width="1"></path><path id="vector_33" fill="#f9f5e5" d="M59.293 112.362a0.5 0.5 0 0 0 -0.5 -0.5c-0.511 0 -1.021 0.042 -1.505 0.092a7.083 7.083 0 0 1 0.262 -2.452 0.5 0.5 0 1 0 -0.962 -0.274 8.056 8.056 0 0 0 -0.3 2.779c-0.67 -0.052 -1.35 -0.236 -1.59 0.263 -0.253 0.527 0.426 1.096 0.851 0.671 0.329 0.024 0.637 0.071 0.841 0.071 0.082 0.756 0.179 1.383 0.179 1.897a0.5 0.5 0 0 0 1 0c0 -0.58 -0.1 -1.23 -0.18 -1.961 0.476 -0.049 0.938 -0.086 1.403 -0.086a0.5 0.5 0 0 0 0.5 -0.5h0.001Z" stroke-width="1"></path><path id="vector_34" fill="#f9f5e5" d="M137.974 113.901c-0.167 -0.404 -0.724 -1.5 -0.724 -1.5 -0.883 -2.207 -1.872 -4.493 -2.694 -6.735 -0.902 -2.381 -4.631 -12.856 -6.145 -16.86 -0.977 -2.518 -6.174 -15.422 -6.304 -15.837 -0.784 -2.51 -1.33 -3.821 -2.095 -4.011 -1.06 -0.353 -1.235 1.671 -1.396 2.314l-9.525 45.249c-0.395 0.906 -0.203 1.583 0.035 1.997 1.096 1.909 5.332 2.252 7.541 2.435 5.029 0.418 16.585 0.44 20.336 -2.921 1.314 -1.178 1.545 -2.734 0.97 -4.129l0.001 -0.002Zm-18.068 -43.806c0.448 0.618 1.035 2.496 1.246 3.171 0.462 1.478 3.65 9.003 6.325 15.897 2.779 7.353 6.231 17.805 9.504 24.952a70.772 70.772 0 0 1 -1.686 -0.729c-1.837 -0.612 -3.405 -0.896 -4.908 -0.998 -5.058 -0.344 -15.882 -0.769 -19.918 2.391l9.436 -44.683 0.001 -0.001Zm16.43 47.19c-3.184 2.853 -13.463 3.177 -19.583 2.669 -1.651 -0.137 -5.915 -0.466 -6.759 -1.937 -0.763 -1.328 1.39 -3.318 5.026 -4.045 4.181 -0.951 9.167 -1.006 15.3 -0.588 1.43 0.098 2.913 0.367 4.593 0.921 1.382 0.696 3.703 0.938 1.423 2.979v0.001Z" stroke-width="1"></path><path id="vector_35" fill="#f9f5e5" d="M64.998 136.893c-5.204 0.94 -10.498 1.611 -15.657 2.256 1.049 -3.271 -0.622 -6.687 -2.494 -8.776 0.676 -0.472 1.361 -0.908 2.031 -1.335 10.05 -6.606 10.101 -6.343 11.116 -7.191a0.512 0.512 0 0 0 0.573 -0.495c0 -0.195 -0.149 -0.464 -0.327 -0.545 -0.557 -0.259 -1.005 0.497 -1.491 0.723 -1.851 1.177 -1.647 0.905 -10.414 6.668 -0.101 0.064 -18.309 12.597 -18.972 12.995 -1.398 0.851 -0.944 1.559 -0.083 1.559 0.5 0 7.049 -1.013 8.519 -1.199 10.801 -1.371 19.935 -2.332 27.375 -3.675 0.647 -0.117 0.478 -1.1 -0.178 -0.984l0.002 -0.001Zm-34.425 4.695c1.003 -0.681 15.448 -10.637 15.448 -10.637 1.742 1.897 3.34 5.051 2.334 7.996a0.503 0.503 0 0 0 0 0.323c-4.9 0.592 -12.912 1.515 -17.783 2.318h0.001Z" stroke-width="1"></path><path id="vector_36" fill="#f9f5e5" d="M57.866 127.148a0.327 0.327 0 0 0 -0.469 -0.054c-0.244 0.202 -0.142 0.11 -0.935 0.906 -0.478 0.575 -3.104 2.429 -2.278 3.246 0.177 0.175 0.399 0.283 2.418 0.283 0.498 0 0.98 -0.007 1.152 -0.009 0.019 0.232 0.167 2.166 0.243 2.918 0.066 0.658 1.061 0.559 0.995 -0.1 -0.207 -2.062 -0.41 -6.095 -0.78 -6.697a6.204 6.204 0 0 0 -0.346 -0.494v0.001Zm-2.571 3.357c0.499 -0.564 1.095 -1.024 2.121 -2.048 0.083 0.351 0.245 1.964 0.254 2.064a42.343 42.343 0 0 1 -2.375 -0.016Z" stroke-width="1"></path><path id="vector_37" fill="#f9f5e5" d="M62.914 128.146a0.5 0.5 0 0 0 0 -1c-0.304 0 -2.947 0.135 -3.247 0.15 -0.524 0.027 -0.656 0.741 -0.178 0.956 0.012 0.163 0.033 0.797 0.034 0.848 0 2.648 0.314 3.383 2.483 1.863 0.525 -0.368 1.183 -0.824 1.526 -0.713 0.175 0.057 0.346 0.307 0.479 0.694 0.398 1.25 -1.068 2.371 -2.273 2.499 -0.625 0.065 -0.577 0.997 0.052 0.997 0.813 0 2.189 -0.652 2.861 -1.682 0.927 -1.419 0.163 -3.142 -0.81 -3.458 -1.108 -0.361 -2.266 0.849 -3.142 1.322 -0.01 -0.101 -0.156 -2.268 -0.14 -2.368 1.049 -0.052 2.19 -0.107 2.354 -0.107l0.001 -0.001Z" stroke-width="1"></path><path id="vector_38" fill="#f9f5e5" d="M23.712 130.909a35.491 35.491 0 0 1 -3.663 -1.253c-0.232 -0.43 -0.96 -0.316 -1.046 0.175 -0.114 0.633 0.63 0.724 1.859 1.206 0.932 0.366 1.834 0.631 2.586 0.837 0.644 0.17 0.898 -0.791 0.264 -0.965Z" stroke-width="1"></path><path id="vector_39" fill="#f9f5e5" d="M28.454 129.757a67.024 67.024 0 0 1 -1.492 -3.432c-0.085 -0.198 -0.203 -0.683 -0.289 -1.037 -0.177 -0.727 -0.269 -1.096 -0.738 -1.036 -0.488 0.059 -0.582 0.713 -0.311 0.957 0.257 1.024 0.162 1.199 1.923 4.971a0.501 0.501 0 0 0 0.907 -0.423Z" stroke-width="1"></path><path id="vector_40" fill="#f9f5e5" d="M31.097 126.597a0.5 0.5 0 0 0 1 0c0 -0.992 0.565 -2.959 0.022 -4.045a0.5 0.5 0 0 0 -0.895 0.447c0.357 0.714 -0.127 2.632 -0.127 3.598Z" stroke-width="1"></path><path id="vector_41" fill="#f9f5e5" d="M108.516 57.114c-0.475 -7.608 -1.797 -14.528 -1.797 -27.09 0 -0.998 -0.005 -2.84 0.086 -3.959 0.056 -0.685 0.154 -1.458 -0.465 -1.619 -0.712 -0.185 -1.344 0.976 -1.52 1.341C100 32.454 93.399 37.63 86.378 44.962c-3.265 3.41 -6.597 6.837 -9.535 10.437 -0.876 1.036 -2.844 2.823 -3.179 4.415a0.499 0.499 0 1 0 0.978 0.206c0.265 -1.26 2.165 -3.03 2.97 -3.982 7.889 -9.664 19.039 -19.322 24.861 -25.683 0.758 -0.86 3.09 -3.733 3.245 -4.14 0.016 -0.04 0.046 -0.1 0.085 -0.167 -0.638 7.813 0.947 22.24 1.438 27.613 -0.788 0.023 -1.71 0.423 -2.871 0.472 -1.073 0.044 -2.561 0.086 -3.299 0.787 -0.614 0.583 -0.176 1.652 0.019 2.123 0.319 1.276 0.647 2.59 1.121 3.905a41.904 41.904 0 0 0 -2.203 -0.03c-22.065 -0.29 -22.087 0.18 -23.615 -0.55a0.5 0.5 0 1 0 -0.432 0.901c1.873 0.896 5.127 0.42 6.945 0.498 5.681 0.15 11.414 0.076 17.095 0.15 2.333 0 0 0.075 5.619 0.075 0.902 0 2.118 0.158 2.722 -0.65 0.827 -1.102 0.255 -3.194 0.174 -4.227Zm-0.975 3.627c-0.271 0.362 -1.029 0.25 -4.248 0.251 -0.536 -1.396 -0.893 -2.82 -1.268 -4.288 -0.333 -0.832 -0.272 -1.04 -0.268 -1.06 0.469 -0.423 1.836 -0.48 2.653 -0.514 0.967 -0.04 2.819 -0.433 2.919 -0.46 0.072 0.841 0.136 1.681 0.188 2.512 0.069 0.892 0.541 2.868 0.023 3.558l0.001 0.001Z" stroke-width="1"></path><path id="vector_42" fill="#f9f5e5" d="M74.279 42.27c0.178 0.227 0.512 0.683 0.718 0.844 0.649 0.65 2.014 1.822 2.924 1.747 1.083 -0.095 1.094 -1.63 1.025 -2.716 -0.051 -0.785 0.02 -3.237 -0.249 -7.1 0 -0.688 -0.314 -2.1 0.113 -2.533 0.79 -0.973 4.206 -0.804 5.58 -0.94 0.647 -0.065 0.573 -1.05 -0.1 -0.996 -1.572 0.158 -5.11 -0.107 -6.222 1.268 -0.801 0.801 -0.375 2.391 -0.371 3.235 0.28 4.045 0.185 6.12 0.25 7.13 0.034 0.542 0.086 1.36 -0.11 1.656 -0.289 0.06 -1.344 -0.667 -2.174 -1.494 -0.481 -0.387 -0.836 -1.426 -1.477 -1.145 -0.459 0.2 -0.415 0.95 0.092 1.045l0.001 0Z" stroke-width="1"></path><path id="vector_43" fill="#f9f5e5" d="M82.32 34.896c-0.156 0.078 -1.188 1.094 -0.982 1.652 0.088 0.239 0.404 0.392 0.652 0.33a0.5 0.5 0 0 0 0.375 -0.548c0.129 -0.196 0.368 -0.496 0.456 -0.57 0.565 -0.377 2.126 -0.926 2.417 -0.352 0.49 1.035 -2.087 3.37 -2.713 4.122 -0.514 0.654 -0.995 1.402 -0.666 1.995 0.465 0.837 1.729 0.316 2.682 0.311 0.755 -0.076 1.434 -0.225 2.221 -0.382a0.5 0.5 0 1 0 -0.195 -0.981c-0.766 0.155 -1.431 0.297 -2.075 0.365 -0.763 0 -1.334 0.208 -1.716 0.162 0.46 -1.354 4.379 -3.883 3.362 -6.029a1.413 1.413 0 0 0 -0.935 -0.741c-1.021 -0.271 -2.419 0.354 -2.882 0.667l-0.001 -0.001Z" stroke-width="1"></path><path id="vector_44" fill="#f9f5e5" d="M106.568 78.847a0.5 0.5 0 1 0 0.049 -0.999c-1.529 -0.075 -2.987 0 -4.409 0.076 -0.878 0.067 -1.687 0.193 -2.542 0.326 -2.098 0.326 -3.11 1.651 3.362 -3.145 1.038 -0.623 2.188 -1.45 1.855 -2.338 -0.216 -0.538 -0.805 -0.622 -1.888 -0.614 -5.003 0.04 -7.159 0.524 -7.342 0.524 -0.718 0 -0.658 1.162 0.165 0.988 0.248 -0.029 1.622 -0.286 2.657 -0.29 1.381 -0.139 4.852 -0.299 5.408 -0.195 -0.114 0.164 -0.447 0.513 -1.409 1.092 -6.241 4.596 -6.93 4.631 -6.869 5.247 0.119 1.208 3.17 -0.116 3.87 -0.229 1.543 -0.25 3.823 -0.61 7.092 -0.444l0.001 0.001Z" stroke-width="1"></path><path id="vector_45" fill="#f9f5e5" d="M104.849 71.055c0.651 0.042 0.713 -0.971 0.042 -0.999 -1.791 -0.076 -6.42 0.426 -7.167 0.239a0.5 0.5 0 1 0 -0.242 0.97c1.02 0.255 5.532 -0.287 7.367 -0.21Z" stroke-width="1"></path><path id="vector_46" fill="#f9f5e5" d="M103.045 91.713c-0.156 -1.712 -3.058 -2.738 -4.843 -0.799 -1.979 2.15 0.063 4.923 1.6 4.592 1.184 -0.255 1.857 -2.075 2.319 -3.236 0.099 0.845 0.316 1.967 0.379 2.472 0.082 0.667 1.074 0.53 0.992 -0.124a20.33 20.33 0 0 0 -0.137 -0.878c-0.251 -1.459 -0.252 -1.842 -0.31 -2.027Zm-4.046 2.533c-1.762 -1.705 0.655 -4.237 2.515 -3.104 -0.662 1.39 -1.378 4.198 -2.515 3.104Z" stroke-width="1"></path><path id="vector_47" fill="#f9f5e5" d="M109.824 90.043c-1.469 -0.78 -2.799 0.777 -3.378 2.316a1.505 1.505 0 0 0 -0.11 0.312c-0.265 -1.514 -0.22 -4.46 -0.842 -6.316a0.5 0.5 0 1 0 -0.948 0.318c0.737 2.206 0.414 5.71 1.105 7.233 0.375 0.827 1.907 1.11 2.365 1.11 2.686 0 4.531 -3.57 1.808 -4.973Zm0.251 2.505c-0.67 1.841 -3.565 1.98 -2.715 0.214 0.315 -0.818 1.158 -2.276 2.001 -1.833 0.907 0.467 0.889 1.138 0.714 1.62Z" stroke-width="1"></path><path id="vector_48" fill="#f9f5e5" d="M117.573 53.197a0.5 0.5 0 0 0 0.967 0.254c0.341 -1.295 0.621 -2.655 0.887 -3.98 0.703 0.143 2.729 0.722 6.296 1.358 4.125 0.735 8.392 1.493 12.069 3.031 0.616 0.258 0.99 -0.67 0.386 -0.923 -4.042 -1.69 -8.73 -2.458 -13.102 -3.24 0.995 -2.845 -0.857 -6.166 -3.976 -6.598a1.197 1.197 0 0 0 -0.484 -0.004c0.117 -0.694 1.697 -9.26 1.896 -10.179 0.546 -2.175 0.364 -1.79 0.702 -2.412 0.183 -0.337 0.373 -0.686 0.043 -0.97 -0.178 -0.154 -0.518 -0.128 -0.706 0.013 -0.92 0.692 -2.854 13.727 -3.9 18.733l-3.553 -0.846c-0.846 -0.2 -1.074 0.772 -0.331 0.95l3.682 0.875c-0.264 1.32 -0.542 2.666 -0.876 3.936v0.002Zm3.335 -9.117c2.668 0.38 4.059 3.198 3.17 5.433 -1.441 -0.278 -4.199 -0.963 -4.45 -1.019 0.303 -1.452 0.562 -2.915 0.811 -4.346 0.166 -0.024 0.356 -0.086 0.469 -0.069v0.001Z" stroke-width="1"></path><path id="vector_49" fill="#f9f5e5" d="M127.814 39.355a0.5 0.5 0 0 0 0.397 -0.585c-0.045 -0.234 0.314 -0.393 0.532 -0.466 1.385 -0.47 3.735 0.138 3.464 0.816 -0.053 0.134 -1.079 1.373 -2.849 1.774 -1.046 0.237 -1.688 0.404 -1.688 0.966 0 0.29 0.253 0.512 0.493 0.512 0.207 0 0.528 -0.125 1.281 -0.417 0.868 -0.336 3.387 -0.016 3.76 1.058 0.155 0.447 -0.552 0.88 -0.987 1.097 -0.328 0.164 -0.711 0.287 -1.082 0.407 -0.668 0.217 -1.266 0.39 -2.241 0.292 -0.665 -0.058 -0.752 0.93 -0.1 0.995a5.81 5.81 0 0 0 2.38 -0.248c0.511 -0.168 1.033 -0.324 1.489 -0.55 2.642 -1.322 1.673 -3.417 -0.983 -4.074 0.937 -0.58 1.898 -1.443 1.431 -2.442 -0.971 -1.942 -6.319 -1.819 -5.883 0.467 0.052 0.271 0.312 0.45 0.585 0.397l0.001 0.001Z" stroke-width="1"></path><path id="vector_50" fill="#f9f5e5" d="M138.96 41.679c1.268 -2.076 0.86 -1.616 1.436 -2.765 0.717 -0.022 0.578 -1.093 -0.064 -1.151 -0.816 -0.068 -0.812 1.122 -2.101 3.194 -0.307 -0.298 -1.535 -1.467 -1.765 -1.698a0.5 0.5 0 0 0 -0.707 0.707c0.412 0.413 1.267 1.209 1.945 1.873a83.95 83.95 0 0 0 -1.131 2.029 0.5 0.5 0 1 0 0.878 0.478c0.328 -0.601 0.656 -1.203 0.986 -1.778 0.684 0.686 1.4 1.413 1.949 2.023a0.5 0.5 0 1 0 0.743 -0.669c-0.611 -0.68 -1.414 -1.489 -2.169 -2.245v0.002Z" stroke-width="1"></path><path id="vector_51" fill="#f9f5e5" d="M144.354 39.938c0.386 -0.288 2.378 -0.062 3.046 -0.127 0.644 -0.064 0.577 -1.045 -0.1 -0.995 -0.769 0.077 -2.752 -0.274 -3.546 0.322 -0.532 0.398 0.076 1.192 0.6 0.8Z" stroke-width="1"></path><path id="vector_52" fill="#f9f5e5" d="M148.324 42.736a0.5 0.5 0 0 0 0 -1c-1.305 0 -2.558 0.14 -3.955 0.212 -0.357 -0.198 -0.912 0.122 -0.822 0.582 0.159 0.807 1.129 0.206 4.777 0.206Z" stroke-width="1"></path><path id="vector_53" fill="#f9f5e5" d="M150.107 38.536a0.5 0.5 0 0 0 0.437 -0.556c-0.151 -1.258 3.352 -1.956 3.585 -0.88 0.133 0.6 -1.181 2.062 -2.05 3.031 -1.266 1.41 -2.266 2.524 -1.859 3.378 0.561 1.176 2.924 0.425 5.821 0.425a0.5 0.5 0 0 0 0 -1c-1.487 0 -2.786 0.232 -4.258 0.232 -0.508 0 -0.646 -0.084 -0.655 -0.076 -0.036 -0.364 1.047 -1.569 1.695 -2.292 1.3 -1.447 2.527 -2.814 2.283 -3.915 -0.218 -1 -1.374 -1.502 -2.884 -1.249 -3.023 0.51 -3.135 3.023 -2.116 2.901l0.001 0.001Z" stroke-width="1"></path><path id="vector_54" fill="#f9f5e5" d="M90.636 111.54c-0.663 0.335 -1.292 -0.539 -1.56 -1.162 -0.027 -0.062 -0.041 -0.265 -0.049 -0.386 -0.083 -1.117 -1.067 -2.026 -3.186 -1.403 -1.493 0.439 -2.528 2.143 -1.797 3.698 1.032 2.062 3.268 0.757 4.215 -1.305 0.25 0.485 0.759 1.275 1.525 1.546 0.774 0.274 1.855 -0.1 1.523 -0.764a0.5 0.5 0 0 0 -0.671 -0.224Zm-3.237 -1.087c-0.289 0.722 -1.247 1.849 -1.882 1.875 -0.092 0.006 -0.327 0.013 -0.572 -0.479 -0.458 -0.973 0.282 -2.04 1.167 -2.299 1.162 -0.34 1.775 -0.39 1.288 0.902l-0.001 0.001Z" stroke-width="1"></path><path id="vector_55" fill="#f9f5e5" d="M83.675 119.754c-0.917 -0.304 -1.919 0.23 -2.781 1.531 -0.083 0.165 -0.153 0.302 -0.214 0.417 -0.344 -1.193 -0.331 -2.931 -0.463 -3.702 -0.028 -0.164 -0.084 -0.496 -0.072 -0.624 0.273 -0.555 -0.521 -1.015 -0.865 -0.497 -0.198 0.298 -0.146 0.722 -0.049 1.288 0.115 0.674 0.126 2.795 0.558 3.999 0.413 1.153 1.574 1.473 2.799 1.473 2.662 0 2.778 -3.364 1.087 -3.885Zm-0.212 2.594c-0.258 0.258 -2.363 0.76 -1.703 -0.568 0.206 -0.309 0.925 -1.301 1.609 -1.073 0.549 0.169 0.539 1.243 0.093 1.641h0.001Z" stroke-width="1"></path><path id="vector_56" fill="#f9f5e5" d="M111.393 135.723c-0.76 -0.26 -1.887 -1.577 -2.539 -2.099a0.5 0.5 0 1 0 -0.625 0.781c0.327 0.263 1.022 0.989 1.545 1.434 -10.604 0.624 -9.974 0.436 -13.317 0.683 -1.106 0.22 -2.233 0.353 -2.625 0.312 -0.062 -0.264 -0.027 -0.897 -0.014 -1.122 0.043 -0.743 -0.765 -11.069 -0.725 -11.714 0.243 -0.429 -0.217 -0.915 -0.659 -0.694 -0.422 0.211 -0.367 0.769 -0.292 1.541 0.032 0.326 0.111 2.812 0.318 5.091 0.05 0.597 0.38 5.361 0.359 5.72 -0.047 0.841 -0.057 1.567 0.31 1.934 0.524 0.524 2.687 0.076 3.461 -0.08 0.537 -0.038 13.813 -0.627 14.338 -0.746 -1.331 1.759 -1.451 2.089 -1.399 2.396 0.107 0.652 1.059 0.551 1.01 -0.088 0.225 -0.473 1.535 -2.149 1.641 -2.308 0.189 -0.282 0.144 -0.723 -0.786 -1.041h-0.001Z" stroke-width="1"></path><path id="vector_57" fill="#f9f5e5" d="M140.251 76.615c-0.964 -1.226 -2.535 -0.309 -3.414 0.98 -0.075 0.093 -0.236 0.354 -0.312 0.469 -0.17 -0.907 -0.207 -2.581 -0.288 -2.938 0 -0.216 -0.242 -1.708 -0.26 -2.138 0.185 -0.467 -0.359 -0.882 -0.771 -0.59 -0.306 0.221 -0.288 0.442 -0.051 2.111 0.263 1.85 0.262 5.341 1.006 5.77 1.866 1.08 5.645 -1.431 4.09 -3.664Zm-1.047 1.981c-0.656 0.713 -1.819 1.114 -2.442 0.865 0.144 -0.136 0.31 -0.396 0.619 -0.878 1.822 -2.833 2.844 -1.096 1.824 0.013h-0.001Z" stroke-width="1"></path><path id="vector_58" fill="#f9f5e5" d="M145.254 81.073a0.5 0.5 0 1 0 0.295 -0.955c-1.812 -0.562 -2.116 -2.958 -1.833 -4.808 0.377 -1.699 0.823 -2.197 1.108 -2.428 0.572 -0.463 0.095 -0.953 -0.323 -0.953 -1.806 0 -3.403 7.855 0.751 9.144h0.002Z" stroke-width="1"></path><path id="vector_59" fill="#f9f5e5" d="M147.292 79.08c0.779 0.031 1.385 -0.897 1.819 -1.554 0.011 0.172 0.032 0.35 0.072 0.546a0.5 0.5 0 1 0 0.981 -0.197c-0.14 -0.697 0.032 -1.256 -0.215 -1.69a0.501 0.501 0 0 0 0.023 -0.906c-0.427 -0.213 -0.726 -1.177 -1.872 -1.177 -2.65 0 -2.672 4.911 -0.808 4.98v-0.002Zm0.056 -0.995c-0.605 -0.294 -0.538 -2.983 0.752 -2.983 1.899 0 -0.5 2.942 -0.752 2.983Z" stroke-width="1"></path><path id="vector_60" fill="#f9f5e5" d="m155.237 74.704 -1.37 0.161c-0.037 -0.445 0.003 -0.088 -0.253 -1.832a0.5 0.5 0 0 0 -0.99 0.14l0.229 1.832c-0.251 0.03 -0.567 0.19 -0.808 0.311a0.498 0.498 0 0 0 -0.572 0.261c-0.096 0.192 -0.071 0.506 0.08 0.658 0.444 0.448 1.133 -0.213 1.412 -0.237 0.034 0.45 0.05 0.908 0.107 1.363a0.5 0.5 0 1 0 0.992 -0.124c-0.055 -0.443 -0.066 -0.865 -0.107 -1.378l1.39 -0.16c0.651 -0.074 0.557 -1.06 -0.11 -0.995Z" stroke-width="1"></path><path id="vector_61" fill="#f9f5e5" d="M156.495 72.166c0.22 0.241 0.135 1.141 0.073 1.798 -0.153 1.632 0.546 3.413 1.006 3.521 1.031 0.242 2.89 -0.157 3.532 -1.167 0.225 -0.354 0.491 -1.087 -0.249 -2.022 -0.906 -1.176 -2.461 -0.469 -3.359 0.698 0.028 -1.23 0.427 -2.741 -0.263 -3.501a0.502 0.502 0 0 0 -0.707 -0.034 0.502 0.502 0 0 0 -0.034 0.707h0.001Zm1.813 3.417c0.342 -0.439 0.944 -0.893 1.363 -0.893 0.104 -0.018 0.246 0.024 0.398 0.221 0.414 0.523 0.253 0.775 0.193 0.87 -0.239 0.375 -0.928 0.651 -1.576 0.742 -1.228 0.174 -1.077 -0.076 -0.378 -0.941v0.001Z" stroke-width="1"></path><path id="vector_62" fill="#f9f5e5" d="M160.98 71.35c0.637 -0.089 1.096 0.098 1.454 0.586 1.004 1.373 0.727 4.494 0.199 5.596a0.5 0.5 0 0 0 0.903 0.432c0.634 -1.325 1.003 -4.844 -0.294 -6.618 -0.574 -0.784 -1.402 -1.127 -2.398 -0.986a0.5 0.5 0 1 0 0.138 0.99h-0.002Z" stroke-width="1"></path><path id="vector_63" fill="#f9f5e5" d="M170.339 114.679c-0.58 -0.613 -1.256 -1.333 -2.06 -2.022a0.5 0.5 0 1 0 -0.651 0.759c1.07 0.917 2.775 2.763 3.263 3.38a7.718 7.718 0 0 1 -0.741 -0.063c-3.295 -0.157 -7.669 -0.021 -11.63 -0.002 -0.852 -8.092 0.629 -14.74 -2.9 -15.497 -1.32 -0.28 -2.659 0.407 -3.878 1.992 -1.426 1.944 -2.185 4.707 -2.565 8.4 -0.148 1.439 -0.026 3.52 0.006 3.681 0.126 0.632 1.133 0.596 0.985 -0.194 -0.072 -1.148 -0.115 -2.23 0.003 -3.385 0.362 -3.526 1.063 -6.12 2.37 -7.902 0.67 -0.871 1.709 -1.857 2.87 -1.614 2.48 0.532 1.347 7.176 2.104 14.52h-9.485c-0.511 -3.046 -1.595 -19.048 -0.957 -24.079 1.11 0.991 2.02 1.873 2.834 2.744a0.5 0.5 0 0 0 0.731 -0.683c-1.035 -1.108 -3.229 -3.165 -3.486 -3.312 -0.028 -0.373 -0.141 -0.633 -0.402 -0.764 -0.414 -0.208 -0.946 0.02 -1.825 1.118a20.91 20.91 0 0 0 -3.069 3.3 0.5 0.5 0 1 0 0.8 0.6c1.317 -1.755 2.052 -2.283 3.492 -3.764 -0.046 0.606 -0.127 0.994 -0.12 1.101 -0.505 6.322 0.435 19.397 0.99 23.731 -0.784 -0.022 -1.505 -0.071 -2.058 -0.06 -0.612 -0.102 -1.22 -0.082 -2.18 -0.082a0.5 0.5 0 0 0 0 1c0.953 0 1.498 -0.017 2.098 0.075 0.741 0 1.474 0.052 2.25 0.069l0.401 4.071c0.068 0.476 0.415 1.688 0.314 2.04a0.5 0.5 0 0 0 0.481 0.637c0.835 0 0.489 -1.458 0.306 -2.274 -0.145 -0.651 -0.064 -0.07 -0.499 -4.468h9.493c0.17 1.359 0.503 2.771 1.009 4.289 1.383 4.613 4.99 5.093 6.466 2.334 1.008 -1.938 0.668 -4.096 0.882 -6.698 0.974 0.001 3.395 0.006 4.348 0.103 -0.453 0.657 -0.982 1.594 -1.54 1.984 -0.399 0.279 -0.2 0.91 0.287 0.91 0.57 0 1.464 -1.399 1.776 -1.876 0.535 -0.819 0.573 -0.764 0.594 -0.971h0.252a0.502 0.502 0 0 0 0.475 -0.342c0.177 -0.533 -0.327 -1.193 -1.835 -2.786h0.001Zm-6.123 9.21c-0.942 1.757 -2.659 1.353 -3.638 -0.116 -1.083 -1.623 -1.726 -4.399 -1.945 -6.043 0.868 -0.005 6.322 -0.073 6.322 -0.073 -0.16 2.057 0.148 4.525 -0.739 6.232Z" stroke-width="1"></path><path id="vector_64" fill="#f9f5e5" d="M134.089 135.537c-5.069 0.002 -4.501 0.045 -5.07 0.021 1.604 -1.089 4.771 -3.103 4.19 -4.941a1.286 1.286 0 0 0 -0.839 -0.793c-1.162 -0.376 -2.94 0.578 -3.299 0.821 -0.01 0.005 -0.973 0.523 -1.077 1.16 -0.093 0.582 0.515 1.005 0.905 0.615a0.5 0.5 0 0 0 0.127 -0.492c0.584 -0.647 2.987 -1.647 3.238 -0.985 0.196 0.621 -0.823 1.722 -3.029 3.271l-0.239 0.177c-0.017 0.008 -1.7 0.913 -1.7 1.571 0 0.765 0.812 0.575 6.793 0.575a0.5 0.5 0 0 0 0 -1Z" stroke-width="1"></path><path id="vector_65" fill="#f9f5e5" d="m140.607 132.315 -2.387 -0.002c-0.026 -0.232 -0.132 -1.58 -0.185 -1.807 0.02 -0.246 0.293 -0.849 -0.241 -1.036 -0.321 -0.112 -0.715 0.164 -0.682 0.542 -0.031 0.146 -0.078 0.334 -0.07 0.563 0.049 0.293 0.161 1.636 0.172 1.74h-1.627a0.5 0.5 0 0 0 0 1h1.703l0.196 2.683a0.5 0.5 0 1 0 0.997 -0.071l-0.192 -2.611h2.316a0.5 0.5 0 0 0 0 -1v-0.001Z" stroke-width="1"></path><path id="vector_66" fill="#f9f5e5" d="M145.086 128.873c-0.48 0.078 -1.996 1.978 -2.004 1.995 -0.042 0.084 -0.095 0.243 -0.125 0.329 -0.784 0.509 0.614 1.814 0.999 0.156 0.079 -0.115 0.496 -0.582 0.869 -0.977 -0.017 0.315 -0.072 0.801 -0.072 1.017 0 1.578 0 3.21 -0.075 4.771 -0.032 0.661 0.967 0.714 0.999 0.048 0.088 -1.836 0.053 -4.669 0.106 -5.246 0.075 -0.835 0.107 -1.505 -0.252 -1.949a0.523 0.523 0 0 0 -0.444 -0.142l-0.001 -0.002Z" stroke-width="1"></path><path id="vector_67" fill="#f9f5e5" d="M153.369 132.093c-1.556 0.136 -3.04 0.3 -3.396 0.202 -0.57 -0.29 -1.031 0.546 -0.483 0.875 0.452 0.271 1.808 0.139 3.979 -0.081 0.643 -0.065 0.577 -1.054 -0.1 -0.995v-0.001Z" stroke-width="1"></path><path id="vector_68" fill="#f9f5e5" d="M153.298 134.415c-0.736 0.067 -1.735 0.082 -2.352 0.148h-1.124a0.5 0.5 0 0 0 0 1 50.993 50.993 0 0 0 3.566 -0.152c0.663 -0.061 0.563 -1.064 -0.091 -0.996h0.001Z" stroke-width="1"></path><path id="vector_69" fill="#f9f5e5" d="M164.033 135.512a0.5 0.5 0 0 0 -0.5 -0.5s-4.769 0.012 -4.961 0.026c-0.33 0.024 -0.293 0.075 0.203 -0.225 1.581 -0.965 4.781 -2.58 4.103 -4.497 -0.498 -1.406 -2.797 -1.41 -4.073 -0.824 -1.005 0.334 -1.693 1.353 -0.944 2.102 0.459 0.46 1.161 -0.234 0.684 -0.711 0.02 -0.101 0.306 -0.352 0.625 -0.461 0.748 -0.339 2.51 -0.49 2.765 0.228 0.45 1.266 -4.002 3.452 -4.844 3.964 -0.594 0.297 -0.892 0.446 -0.794 0.859 0.206 0.875 2.336 0.538 2.741 0.538h4.496a0.5 0.5 0 0 0 0.5 -0.5l-0.001 0.001Z" stroke-width="1"></path><path id="vector_70" fill="#f9f5e5" d="M168.755 130.601a0.5 0.5 0 0 0 -0.693 0.139c-0.672 1.007 -1.573 2.907 -1.684 3.114 -0.326 -0.537 -0.657 -1.005 -0.947 -1.516 -0.057 -0.372 -0.047 -0.981 -0.653 -1.132 -0.564 -0.136 -0.865 0.625 -0.376 0.916 0.085 0.559 -0.107 0.34 0.735 1.639 0.678 1.049 0.572 0.986 0.707 1.093 -0.774 1.446 -1.597 3.007 -2.518 4.604a0.5 0.5 0 0 0 0.867 0.5c2.105 -3.647 4.072 -7.724 4.703 -8.663a0.499 0.499 0 0 0 -0.139 -0.693l-0.002 -0.001Z" stroke-width="1"></path><path id="vector_71" fill="#f9f5e5" d="M188.846 63.961c-0.42 -7.15 -0.509 -6.776 -0.657 -18.45 -0.143 -11.305 -0.251 -9.048 -0.132 -11.31 0.352 -6.649 -0.326 -6.806 -5.049 -6.276 -0.718 0.081 -0.431 0.072 -4.824 0.308 -10.917 0.584 -9.194 0.785 -10.942 0.785 -0.376 0 -0.709 0.493 -0.438 0.855 0.028 0.5 -0.024 1.058 -0.024 1.574 0 0.616 0.035 0.995 0.076 2.424 0.161 5.688 0.448 4.461 0.448 16.681 0 7.865 0.077 7.193 0.104 10.123 0.018 1.996 0.037 4.06 0.513 5.963 0.5 1.9 3.928 1.047 5.139 1.047 3.494 -0.074 6.936 -0.41 10.51 -0.675 1.218 -0.09 3.417 0.168 4.688 -0.426 0.875 -0.438 0.697 -1.805 0.59 -2.622l-0.002 0Zm-1.025 1.722c-0.987 0.461 -3.141 0.243 -4.326 0.33 -3.52 0.258 -6.873 0.596 -10.447 0.672 -0.824 0 -3.928 0.587 -4.16 -0.295 -0.583 -2.335 -0.434 -5.06 -0.509 -7.459 -0.323 -12.028 0.338 -6.856 -0.561 -26.25 -0.097 -2.124 0.021 -1.534 -0.007 -2.667 5.652 -0.67 12.947 -0.828 15.309 -1.094 1.003 -0.113 3.089 -0.348 3.522 0.047 0.883 0.823 0.299 5.658 0.366 6.917 0.1 3.222 0.224 13.04 0.255 14.763 -0.288 -0.336 -1.507 -1.499 -1.653 -1.884 0.012 -0.61 -0.892 -0.705 -0.993 -0.09 -0.132 0.797 1.466 2.098 1.901 2.641 0.072 0.09 0.493 0.525 0.772 0.753 0.216 10.247 0.893 13.434 0.53 13.616h0.001Z" stroke-width="1"></path><path id="vector_72" fill="#f9f5e5" d="M168.649 31.801c0.423 0.423 0.889 0.964 1.349 1.423a0.5 0.5 0 0 0 0.707 -0.707 286.144 286.144 0 0 1 -1.657 -1.743c-0.064 -0.425 -0.691 -0.653 -0.991 -0.273 -0.31 0.397 0.03 0.737 0.593 1.3l-0.001 0Z" stroke-width="1"></path><path id="vector_73" fill="#f9f5e5" d="M172.77 35.921c1.722 1.722 1.58 1.795 1.927 1.795a0.5 0.5 0 0 0 0.376 -0.829c-0.57 -0.652 -1.503 -1.599 -1.849 -1.907 -0.369 -0.327 -0.309 -0.37 -0.463 -0.452a1.472 1.472 0 0 1 -0.047 -0.063 0.5 0.5 0 0 0 -0.831 0.556c0.207 0.31 0.759 0.773 0.887 0.9Z" stroke-width="1"></path><path id="vector_74" fill="#f9f5e5" d="M176.303 39.891c0.296 0.445 2.007 2.171 2.385 2.548a0.5 0.5 0 0 0 0.707 -0.707c-0.298 -0.297 -2.039 -2.048 -2.258 -2.414 -0.255 -1.038 -1.466 -0.297 -0.952 0.316 0.026 0.1 0.063 0.212 0.118 0.256v0.001Z" stroke-width="1"></path><path id="vector_75" fill="#f9f5e5" d="M180.861 44.987c0.105 0.105 0.287 0.655 1.827 1.974a0.5 0.5 0 0 0 0.65 -0.76c-1.404 -1.202 -1.508 -1.626 -1.779 -1.96 -0.104 -0.208 -0.379 -0.391 -0.605 -0.334a0.514 0.514 0 0 0 -0.262 0.834 0.975 0.975 0 0 0 0.17 0.246h-0.001Z" stroke-width="1"></path><path id="vector_76" fill="#f9f5e5" d="M161.373 87.942c-0.323 1.217 0.248 2.876 1.494 3.058 1.408 0.204 3.281 -1.426 4.308 -2.409a10.186 10.186 0 0 1 1.728 3.176 0.5 0.5 0 0 0 0.948 -0.316c-0.433 -1.299 -1.109 -2.532 -1.928 -3.524 0.583 -0.583 0.039 -0.017 2.145 -2.675a0.5 0.5 0 1 0 -0.783 -0.62c-2.026 2.553 -1.621 2.14 -2.043 2.561 -0.603 -0.549 -1.414 -1.015 -2.314 -1.313 -1.601 -0.4 -3.152 0.541 -3.555 2.062Zm1.884 -0.918c0.406 -0.232 0.94 -0.297 1.392 -0.185 0.704 0.235 1.353 0.598 1.843 1.023 -2.159 2.072 -3.143 2.2 -3.48 2.148 -0.776 -0.113 -1.245 -2.147 0.246 -2.986h-0.001Z" stroke-width="1"></path><path id="vector_77" fill="#f9f5e5" d="M175.221 88.512a0.5 0.5 0 0 0 0 -1s-2.065 -0.005 -2.167 -0.01c-0.806 -0.044 -1.141 -0.061 -1.254 0.367 -0.1 0.378 0.287 0.765 0.682 0.608 0.329 0.001 0.004 0.035 2.739 0.035Z" stroke-width="1"></path><path id="vector_78" fill="#f9f5e5" d="M176.544 90.137c-0.774 -0.077 -1.625 -0.077 -2.447 -0.077 -0.42 0 -1.184 -0.33 -1.454 0.205 -0.097 0.192 -0.027 0.496 0.125 0.648a0.5 0.5 0 0 0 0.631 0.063c0.161 0.024 0.52 0.084 0.697 0.084 2.247 0 2.116 0.075 2.398 0.075 0.63 0 0.676 -0.935 0.049 -0.998h0.001Z" stroke-width="1"></path><path id="vector_79" fill="#f9f5e5" d="M180.775 88.42c-1.025 0.928 -1.703 1.541 -1.453 2.208 0.289 0.771 1.16 0.656 4.664 0.656a0.5 0.5 0 0 0 0 -1c-3.134 0 -3.3 0.017 -3.629 -0.049 0.859 -1.156 4.845 -3.559 3.118 -5.685 -0.506 -0.623 -1.349 -0.933 -2.319 -0.85 -3.022 0.258 -3.631 3.56 -2.198 4.038 0.632 0.213 0.949 -0.73 0.327 -0.938 -0.372 -0.547 0.304 -1.963 1.956 -2.103 0.632 -0.052 1.165 0.123 1.458 0.484 0.649 0.798 -0.488 1.939 -1.924 3.239Z" stroke-width="1"></path><path id="vector_80" fill="#f9f5e5" d="M190.548 90.852c-0.069 -0.419 -0.074 -0.975 -0.146 -1.395 -0.121 -1.116 0.379 -2.761 -1.62 -3.197 -1.074 -0.232 -2.384 0.211 -3.115 1.059 -1.197 1.387 -0.441 3.346 0.554 3.597 1.168 0.298 2.408 -1.337 3.125 -1.669 0.108 0.338 0.137 1.3 0.215 1.769a0.5 0.5 0 1 0 0.987 -0.164Zm-2.684 -1.749c-1.163 0.967 -1.435 1.086 -1.687 0.455 -0.227 -0.599 -0.144 -1.133 0.247 -1.586 0.495 -0.574 1.415 -0.893 2.145 -0.735 2.123 0.464 -0.239 1.478 -0.705 1.866Z" stroke-width="1"></path><path id="vector_81" fill="#f9f5e5" d="M185.387 123.818c-0.501 0.424 -2.893 2.629 -2.946 2.737a4.89 4.89 0 0 1 -0.486 0.492c-0.179 -3.942 -0.416 -19.726 -0.397 -20.021 0.083 -1.284 0.176 -2.738 -0.164 -3.872a0.5 0.5 0 1 0 -0.958 0.288c0.415 1.382 0.054 3.549 0.054 5.111 0 0 0.453 18.272 0.464 18.494 -0.74 -0.669 -1.481 -1.552 -1.808 -1.874a18.159 18.159 0 0 1 -1.676 -1.676 0.5 0.5 0 1 0 -0.753 0.659c0.54 0.617 1.152 1.229 1.746 1.748 0.298 0.298 1.586 1.795 2.302 2.276 0.878 0.59 1.768 -0.185 2.433 -0.992 1.292 -1.192 1.911 -1.824 2.834 -2.604a0.5 0.5 0 0 0 -0.646 -0.764l0.001 -0.002Z" stroke-width="1"></path></g></g><g id="person"><path id="vector_82" fill="#fccac2" d="M162.859 107.043c-3.416 0.378 -0.599 -5.544 -0.599 -5.544s-3.568 2.095 -5.469 -1.499a6.625 6.625 0 0 1 -0.225 -4.795l0.225 -0.674c-0.674 0.824 -1.648 1.648 -1.873 1.873 -2.772 2.772 -6.744 5.819 -10.938 5.919 -2.3 0.055 -4.046 -1.721 -4.046 -3.971 0 -0.075 0 -0.899 -0.075 -0.824 -2.098 1.423 -4.046 5.619 -6.818 7.118v0.075c-0.375 0.15 -0.749 0.45 -1.049 0.674l0.075 0.075c0.674 2.173 1.424 4.42 2.098 6.668 2.267 7.936 4.149 13.663 12.423 15.232 0.927 1.519 1.362 4.215 1.362 5.821 4.778 3.528 11.359 0.638 14.931 -3.01 -0.754 -3.228 -1.589 -9.729 -1.833 -12.808 0.217 -0.545 0.502 -1.079 0.912 -1.489 0.599 -0.524 2.173 0.225 2.922 0.15 1.199 -0.15 2.248 -0.899 2.847 -1.873 3.249 -4.693 -1.925 -10.706 -4.87 -7.117v-0.001Z" stroke-width="1"></path><path id="vector_83" fill="#fccac2" d="M81.422 123.659c-0.949 -1.778 -2.787 -4.322 -4.722 -5.079 -1.124 -0.524 -2.547 -0.15 -3.221 0.899 -0.3 -0.1 -0.1 -0.047 -0.899 -0.225 -0.524 0 -1.049 0.15 -1.573 0.375 -1.078 0.81 -0.649 0.912 -0.974 0.75 -1.274 -0.974 -2.248 0 -2.772 1.349 -0.15 0 -0.824 -0.225 -0.974 -0.225 -0.3 0 -0.599 0.15 -0.899 0.225 -0.899 0.449 -0.824 2.322 -0.749 3.296 0.062 1.106 1.083 2.648 2.382 1.713 1.274 3.37 5.853 9.587 9.156 11.024l0.225 0.149c1.498 -1.199 6.293 -3.896 8.241 -4.121 0 -1.384 -1.184 -6.315 -3.22 -10.13h-0.001Z" stroke-width="1"></path><path id="vector_84" fill="#f9f5e5" d="M179.192 133.865c-2.622 -1.723 -8.766 -5.544 -14.909 -5.32l-0.225 0.075c-3.895 4.865 -11.137 8.016 -16.108 4.345 -0.905 -0.678 -1.511 -1.436 -1.723 -1.648 -5.619 -3.596 -14.909 2.322 -17.831 4.87 -2.622 2.248 -5.095 4.72 -8.017 6.518 -6.443 3.971 -15.434 5.469 -22.476 2.547 -3.446 -1.423 -6.097 -4.084 -8.541 -6.967 -1.03 -1.216 -2.473 -4.121 -4.121 -4.42h-0.449c-2.283 0.263 -8.286 3.836 -8.616 4.495 -0.674 0.899 3.746 8.691 5.619 11.163 6.593 8.991 16.033 18.356 27.271 19.18l25.897 1.911c5.777 0.068 11.035 5.996 14.062 9.05 0.25 2.152 2.298 9.716 2.97 10.392 0.45 0.599 7.417 1.198 9.665 1.049 10.639 -0.824 23.9 -4.496 28.844 -17.457 5.469 -14.235 -0.225 -32.59 -11.313 -39.783h0.001Z" stroke-width="1"></path><path id="vector_85" fill="#f9f5e5" d="M147.05 119.929c0.45 0.075 0.899 0.225 0.824 0.749 -0.075 0.375 -0.15 0.674 -0.375 1.049 -0.15 0.45 -0.45 0.824 -0.824 1.124 -1.474 0.491 -3.19 -1.843 -4.196 -3.072 0.362 0 0.275 0.075 1.948 0.075 0.899 -0.15 1.723 -0.075 2.622 0.075h0.001Z" stroke-width="1"></path><path id="vector_86" fill="#fccac2" d="M153.194 116.033a1.934 1.934 0 0 0 -1.948 1.948c0 1.124 0.899 1.948 1.948 1.948a1.934 1.934 0 0 0 1.948 -1.948c0 -1.049 -0.899 -1.948 -1.948 -1.948Z" stroke-width="1"></path><path id="vector_87" fill="#fccac2" d="M138.509 115.434a1.934 1.934 0 0 0 -1.948 1.948c0 1.124 0.899 1.948 1.948 1.948a1.934 1.934 0 0 0 1.948 -1.948c0.075 -1.049 -0.824 -1.948 -1.948 -1.948Z" stroke-width="1"></path><path id="vector_88" fill="#ffb949" d="m144.054 174.846 -7.192 -29.444 -31.841 6.593 9.89 40.907 26.522 -5.544c6.518 -1.199 2.622 -12.512 2.622 -12.512h-0.001Z" stroke-width="1"></path><path id="vector_89" fill="#fccac2" d="M148.923 179.342c-3.164 -2.877 -9.087 -8.433 -13.336 -8.916 -1.127 -0.128 -3.971 -0.375 -4.945 0.749 -0.375 0.45 0.974 0.599 1.124 0.674 3.222 0.402 6.855 1.612 6.743 1.948 -0.977 -0.195 -1.853 -0.494 -2.697 -0.599 -1.798 -0.45 -3.671 -0.524 -5.469 -0.3 -0.524 0.075 -1.498 0.15 -1.873 0.749 -0.438 0.877 2.655 0.576 6.968 1.948 0.225 0.075 1.423 0.375 1.423 0.749 0 0.36 -3.318 -0.893 -7.192 -0.524 -1.63 0 -2.684 0.855 -0.075 1.723 1.42 0.387 2.901 0.816 4.338 1.262 -0.919 -0.108 -3.886 -0.152 -4.038 0.761 -0.075 0.45 0.375 0.749 0.674 0.899 0.899 0.524 1.873 0.899 2.847 1.274 3.857 1.578 4.158 2.922 8.316 5.694 6.873 4.468 9.604 2.623 10.264 2.623 -1.124 -1.724 -3.221 -9.44 -3.072 -10.714Z" stroke-width="1"></path><path id="vector_90" fill="#501200" d="M163.533 113.312a0.5 0.5 0 0 1 -0.447 -0.724c0.753 -1.507 1.368 -2.366 3.054 -3.287a0.501 0.501 0 0 1 0.48 0.878c-1.437 0.784 -1.937 1.45 -2.639 2.856a0.5 0.5 0 0 1 -0.448 0.276v0.001Z" stroke-width="1"></path><path id="vector_91" fill="#501200" d="M141.356 117.282a0.5 0.5 0 0 1 -0.479 -0.356l-0.674 -2.248c-0.121 -0.355 -0.417 -1.229 0.255 -1.565 0.402 -0.272 0.887 -0.168 1.277 -0.083 0.502 0.109 0.604 0.107 0.76 -0.167 0.56 -1.123 0.234 -2.038 0.234 -2.449a0.5 0.5 0 0 1 1 0c0 0.244 0.361 1.494 -0.353 2.921 -0.727 1.275 -1.901 0.537 -2.342 0.613 0.017 0.109 0.05 0.187 0.8 2.691a0.5 0.5 0 0 1 -0.479 0.644l0.001 -0.001Zm-0.385 -3.312 -0.012 0.007 0.012 -0.007Z" stroke-width="1"></path><path id="vector_92" fill="#501200" d="M142.081 120.004a0.5 0.5 0 0 1 0.4 -0.8c0.178 0 0.914 0.075 1.049 0.075 1.588 0.005 1.922 -0.124 3.603 0.157 1.151 0.191 1.308 0.82 1.237 1.313 -0.081 0.407 -0.165 0.759 -0.414 1.189 -0.25 0.701 -0.873 1.305 -1.122 1.387 -1.74 0.58 -3.582 -1.758 -4.753 -3.321Zm1.484 0.275c0.588 0.717 1.97 2.334 2.872 2.12 0.517 -0.443 0.56 -0.808 0.634 -0.93 0.189 -0.315 0.247 -0.557 0.313 -0.889 -0.005 -0.032 -0.07 -0.101 -0.416 -0.158 -1.534 -0.256 -1.848 -0.146 -3.403 -0.143Z" stroke-width="1"></path><path id="vector_93" fill="#501200" d="M162.15 106.63c-0.045 0.005 -3.064 0.634 -3.222 0.684 -2.12 -6.512 -11.055 -6.587 -13.416 -0.39 -1.534 -1.07 -2.906 -0.701 -4.656 -0.185 -1.482 -2.599 -4.716 -3.919 -7.85 -2.485 -0.51 0.175 -0.861 0.426 -1.264 0.76 -4.213 3.492 -1.929 10.647 3.928 10.647 4.16 0 6.961 -4.331 5.617 -8.006 1.577 -0.465 2.647 -0.767 3.921 0.293 -0.891 4.108 2.36 8.56 7.013 8.56 4.518 0 7.742 -4.178 6.963 -8.239 0.1 -0.032 3.146 -0.591 3.354 -0.798 0.318 -0.316 0.089 -0.891 -0.387 -0.841h-0.001Zm-21.589 3.645c-0.343 2.672 -2.754 4.627 -5.422 4.358l-0.163 0.004c-4.926 -0.617 -6.068 -7.35 -1.576 -9.464 3.835 -1.772 7.691 1.392 7.161 5.102Zm17.682 -0.074c-0.415 3.324 -3.461 5.678 -6.784 5.26 -5.568 -0.695 -7.538 -8.32 -2.341 -11.32 4.255 -2.454 9.631 0.958 9.125 6.061v-0.001Z" stroke-width="1"></path><path id="vector_94" fill="#501200" d="M74.751 133.166a0.5 0.5 0 0 1 -0.47 -0.329c-0.274 -0.754 -0.555 -1.667 -0.555 -2.718 0 -2.552 1.633 -1.524 1.129 -0.83 -0.088 0.261 -0.129 0.162 -0.129 0.83 0 0.896 0.25 1.705 0.494 2.376a0.5 0.5 0 0 1 -0.47 0.671h0.001Z" stroke-width="1"></path><path id="vector_95" fill="#501200" d="M114.107 153.166c-0.684 -0.113 -0.962 -0.899 -1.165 -1.733a2.723 2.723 0 0 1 -0.017 -1.283c0.085 -1.195 0.798 -2.679 1.925 -2.913 0.467 -0.098 1.362 -0.037 2.149 1.452a0.5 0.5 0 0 1 -0.884 0.468c-0.167 -0.315 -0.612 -1.037 -1.062 -0.94 -0.473 0.098 -1.059 0.982 -1.145 2.094a1.828 1.828 0 0 0 -0.013 0.814c0.208 0.855 0.351 1.032 0.403 1.072 1.938 0.193 8.888 -1.168 9.534 -1.658 0.21 -0.34 -0.304 -1.507 -0.495 -2.327 -0.204 -0.713 -0.048 -1.539 0.403 -2.081 0.458 -0.59 1.493 -0.724 2.271 -0.543 1.551 0.358 2.02 1.931 1.213 2.102a0.5 0.5 0 0 1 -0.592 -0.386c-0.198 -0.939 -1.807 -0.94 -2.113 -0.545 -0.929 1.117 1.013 3.015 0.097 4.391 -0.611 0.978 -8.728 2.207 -10.509 2.018v-0.002Z" stroke-width="1"></path><path id="vector_96" fill="#501200" d="M148.741 107.798c-1.787 -0.927 -1.465 2.718 -0.422 3.275 0.514 0.275 1.311 -0.109 1.356 -1.201 0.032 -0.765 -0.309 -1.75 -0.934 -2.074Z" stroke-width="1"></path><path id="vector_97" fill="#501200" d="M135.025 107.798c-0.408 0.373 -0.059 2.716 0.708 3.125 0.532 0.285 1.319 -0.112 1.31 -1.292 -0.012 -1.446 -1.044 -2.725 -2.018 -1.833Z" stroke-width="1"></path><path id="vector_98" fill="#501200" d="M179.391 133.596c-5.698 -3.744 -10.827 -5.568 -15.202 -5.401 -0.612 0.028 -0.383 -0.025 -1.103 0.789 -0.771 -3.113 -1.323 -8.763 -1.53 -11.683 0.17 -0.403 0.414 -0.853 0.808 -1.191 0.184 -0.16 0.932 0.007 1.381 0.107 3.413 0.76 8.495 -4.467 9.108 -7.083 0.266 -0.888 0.098 -1.939 -0.5 -2.82 -0.027 -0.027 -0.086 -0.086 -0.737 -0.542 0.347 -0.373 0.994 -0.899 1.169 -1.142 1.182 -1.636 2.13 -4.39 1.074 -6.674 -0.812 -1.444 -2.248 -2.523 -3.793 -2.794a9.162 9.162 0 0 1 -0.876 -0.186c0.308 -0.664 1.507 -2.13 1.684 -2.545 1.613 -3.227 2.867 -9.094 -0.519 -11.785 -2.08 -1.653 -5.23 -1.34 -7.202 1.225 -0.061 -0.55 -0.126 -1.38 -0.275 -1.75 -1.102 -2.746 -3.857 -4.54 -6.875 -4.295 -2.063 0.159 -4.053 0.972 -5.558 2.255 -0.242 0.16 -1.025 1.09 -1.663 1.735 -0.387 -0.73 -0.823 -1.948 -1.115 -2.381 -1.931 -2.413 -5.019 -3.512 -8.073 -2.872 -2.703 0.636 -5.067 2.469 -6.303 4.867 -0.367 0.587 -1.005 3.25 -1.453 3.928 -0.614 -0.273 -1.821 -1.153 -2.295 -1.232 -5.836 -1.165 -10.258 5.289 -8.752 11.317 0.215 0.928 1.642 3.258 1.442 3.909 -0.678 1.828 -3.776 2.454 -2.862 5.694 0.396 1.52 1.762 2.719 4.033 3.555a6.989 6.989 0 0 0 1.769 0.475c-1.175 1.188 -4.924 2.923 -2.784 5.601 1.977 2.417 8.544 0.224 8.645 0.143a5.536 5.536 0 0 0 3.567 2.339c1.943 6.413 4.644 11.425 11.584 12.655 0.824 1.167 1.09 2.644 1.203 4.14 -0.524 -0.519 -0.88 -0.976 -1.546 -1.321 -5.67 -2.942 -14.551 2.29 -17.853 5.253 -2.668 2.365 -4.997 4.697 -7.947 6.467 -6.806 4.083 -15.603 5.163 -22.023 2.511 -2.927 -1.209 -5.655 -3.439 -8.344 -6.821 -0.9 -1.107 -2.681 -4.638 -4.536 -4.604 -0.02 -0.203 -0.09 -0.117 -0.303 -1.601 -0.415 -2.66 -3.853 -10.004 -4.561 -10.894 -0.909 -1.144 -1.768 -2.224 -3.289 -2.818 -1.267 -0.59 -2.82 -0.22 -3.675 0.836 -0.422 -0.094 -0.997 -0.332 -2.427 0.281 -0.153 0.065 -0.559 0.416 -0.71 0.574 -1.024 -0.633 -2.263 -0.396 -3.129 1.338 -0.557 -0.131 -0.885 -0.187 -1.807 0.273 -1.013 0.507 -1.116 2.044 -1.053 3.33 0.101 2.052 1.469 2.88 2.523 2.607 1.079 1.718 4.78 8.529 9.021 10.737 -1.215 1.314 4.562 10.436 5.588 11.792 9.008 12.181 18.307 18.702 27.637 19.381a0.5 0.5 0 0 0 0.073 -0.997c-9.026 -0.658 -18.079 -7.043 -26.909 -18.983 -2.036 -2.687 -5.71 -9.466 -5.59 -10.586 0.701 -0.792 6.103 -4.025 8.188 -4.27l0.385 -0.004c1.054 0.138 2.14 1.792 2.933 3 2.242 3.415 5.826 6.794 9.602 8.354 6.703 2.769 15.862 1.657 22.925 -2.581 3.042 -1.825 5.399 -4.187 8.093 -6.575 2.689 -2.413 11.491 -7.924 16.799 -5.074 0.828 0.445 0.705 0.819 2.125 1.882 1.598 1.197 3.432 1.698 5.303 1.698 3.505 0 7.809 -1.796 11.336 -5.946 5.336 0 10.021 2.211 14.628 5.239 11.118 7.306 16.324 25.538 11.118 39.186 -4.853 12.72 -18.131 16.339 -28.411 17.136 -2.294 0.155 -8.629 -0.462 -9.259 -0.886 -1.066 -2.106 -2.792 -8.903 -2.869 -10.344 1.214 -0.445 9.187 -1.105 11.064 -1.492 9.891 -2.066 17.525 -4.714 18.378 -18.139a0.5 0.5 0 0 0 -0.467 -0.531 0.507 0.507 0 0 0 -0.531 0.467c-0.811 12.747 -7.8 15.18 -17.583 17.224 -2.512 0.517 -10.532 0.968 -11.589 1.729 -2.995 -2.976 -8.892 -8.431 -13.15 -8.781 -1.631 -0.134 -4.268 -0.335 -5.362 0.928a0.69 0.69 0 0 0 -0.146 0.684c0.146 0.429 0.66 0.587 1.128 0.697 -0.528 0.035 -0.777 0.067 -1.114 0.113 -0.604 0.081 -1.615 0.214 -2.104 1a0.74 0.74 0 0 0 -0.004 0.682c0.384 0.751 1.864 0.739 4.042 1.163a16.584 16.584 0 0 0 -2.466 0.051c-0.662 0 -1.278 0.22 -1.939 0.692a0.793 0.793 0 0 0 -0.271 0.833c0.244 0.83 1.856 1.145 3.241 1.511 -0.461 0.1 -1.254 0.331 -1.375 1.052 -0.055 0.33 -0.006 0.954 0.916 1.414 0.935 0.545 1.943 0.934 2.909 1.305 3.448 1.325 4.26 3.001 8.229 5.647 2.952 1.969 6.952 3.852 10.317 2.761 0.886 0.97 8.62 1.313 10.077 1.217 15.162 -1.175 25.285 -7.322 29.273 -17.776 5.36 -14.05 -0.029 -32.839 -11.505 -40.38l-0.001 0.001Zm-102.85 3.789 -0.017 -0.009c-3.479 -1.512 -7.104 -7.147 -9.089 -10.86a0.5 0.5 0 0 0 -0.728 -0.229c-0.255 0.161 -0.499 0.175 -0.746 0.042 -0.604 -0.323 -0.755 -1.044 -0.781 -1.701 -0.072 -1.803 0.321 -2.212 0.506 -2.305 0.415 -0.207 0.611 -0.308 1.018 -0.219a5.667 5.667 0 0 0 -0.168 2.07c0.066 0.658 1.061 0.558 0.995 -0.1 -0.158 -1.582 0.722 -4.217 2.078 -3.429a5.81 5.81 0 0 0 -0.678 2.73 0.5 0.5 0 0 0 1 0c0 -0.92 0.258 -1.812 0.753 -2.59 0.164 -0.273 0.387 -0.449 0.647 -0.645 0.305 -0.127 0.962 -0.379 1.46 -0.268a3.948 3.948 0 0 0 -0.173 2.426 0.5 0.5 0 1 0 0.969 -0.244 2.975 2.975 0 0 1 0.385 -2.305c0.533 -0.83 1.669 -1.146 2.619 -0.704 1.3 0.508 2.042 1.441 2.9 2.521 0.517 0.651 3.868 7.309 4.355 10.43 0.072 0.501 0.147 1.018 0.289 1.542 -2.16 0.519 -5.972 2.684 -7.595 3.846l0.001 0.001Zm68.407 -10.892c-6.66 -2.024 -8.335 -7.873 -10.23 -14.5 -0.402 -1.341 -1.814 -5.756 -2.082 -6.617 2.906 -0.925 4.887 -4.824 6.876 -6.822 0.125 2.526 2.052 4.254 4.541 4.193 4.898 -0.12 8.627 -3.585 11.832 -6.563a7.061 7.061 0 0 0 0.538 4.049c0.882 1.665 2.834 2.662 5.108 2.05 -2.355 3.663 -0.867 4.592 0.212 5.593a6.697 6.697 0 0 0 -0.652 2.006c-0.109 0.65 0.878 0.82 0.986 0.164 0.309 -1.855 1.684 -4.111 3.583 -3.444 1.434 0.503 2.691 2.389 2.691 4.036a5.493 5.493 0 0 1 -0.975 3.109c-0.687 1.117 -1.829 1.845 -3.416 1.493 -0.793 -0.176 -1.693 -0.376 -2.253 0.113 -1.471 1.262 -1.712 4.037 -2.441 5.394 -2.721 5.256 -8.671 7.512 -14.32 5.745l0.002 0.001Zm3.493 6.334c-0.075 -1.655 -0.234 -3.364 -0.986 -4.837 6.422 0.649 11.77 -3.327 13.292 -8.315 0.303 3.312 0.838 7.767 1.531 10.158 -3.767 3.686 -9.58 5.874 -13.837 2.995v-0.001Zm-6.657 54.114c-4.244 -2.829 -4.673 -4.306 -8.415 -5.745 -0.333 -0.128 -3.266 -1.254 -3.209 -1.618 0.018 -0.033 0.124 -0.15 0.698 -0.267 0.943 -0.125 1.981 -0.031 3.12 0.269 0.39 0.156 0.708 0.238 1.083 0.315 0.86 0.345 1.294 -0.133 1.151 -0.562 -0.123 -0.368 -0.534 -0.543 -1.629 -0.861 -0.674 -0.196 -0.808 -0.3 -3.693 -1.061 -0.814 -0.215 -1.968 -0.498 -2.459 -0.763 0.38 -0.226 0.732 -0.33 1.135 -0.332 4.536 -0.433 7.645 1.424 7.645 0.027 0 -0.645 -0.815 -0.938 -1.649 -1.188 -4.069 -1.225 -5.288 -1.029 -6.533 -1.44 0.109 -0.067 0.259 -0.179 1.301 -0.322 5.134 -0.701 8.188 1.81 8.579 0.635 0.259 -0.779 -1.017 -1.041 -1.809 -1.379 -2.965 -1.032 -4.789 -1.077 -5.814 -1.341 0.979 -0.544 2.998 -0.396 3.925 -0.329 4.266 0.309 10.294 6.011 13.257 8.988 0.277 2.111 1.717 7.49 2.599 9.667 -3.016 0.867 -6.686 -0.962 -9.284 -2.694l0.001 0.001Z" stroke-width="1"></path><g id="group_2"><path id="vector_99" fill="#f9f5e5" d="M65.248 125.065c-0.043 0.513 0.893 2.206 1.163 2.363 6.323 -0.701 17.14 -2.348 22.69 -3.256 0.239 -0.497 -0.32 -2.343 -0.709 -2.561 -7.655 0.722 -15.649 1.742 -23.145 3.454h0.001Z" stroke-width="1"></path><path id="vector_100" fill="#501200" d="M89.441 121.745c-0.526 -1.158 -1.91 -0.824 -2.813 -0.741 -3.754 0.267 -20.716 3.116 -21.868 3.545 -6.047 2.254 -5.643 2.48 -5.643 2.722 0 0.911 1.342 0.462 7.683 0.462 0.153 0 6.621 -0.688 19.764 -2.438 1.382 -0.184 2.734 -0.213 3.207 -1.081 0.348 -0.639 -0.078 -1.948 -0.331 -2.47l0.001 0.001Zm-0.548 1.991c-0.182 0.335 -1.404 0.428 -2.483 0.571 -13.054 1.73 -19.478 2.721 -19.963 2.652 -0.257 -0.375 -0.618 -1.218 -0.717 -1.603 1.273 -0.401 17.01 -3.075 20.979 -3.356 0.763 -0.071 1.619 -0.287 1.827 0.169 0.339 0.702 0.4 1.489 0.357 1.567Z" stroke-width="1"></path></g><g id="group_3"><path id="vector_101" fill="#fccac2" d="M73.86 122.965c-1.91 -0.469 -4.324 0.069 -2.977 1.736 0.611 0.755 1.49 1.157 4.018 2.421l5.319 0.15c-1.897 -2.439 -4.9 -3.948 -6.361 -4.307h0.001Z" stroke-width="1"></path><path id="vector_102" fill="#501200" d="M80.221 127.771a0.499 0.499 0 0 1 -0.395 -0.193c-1.748 -2.247 -4.61 -3.767 -6.085 -4.129 -1.241 -0.304 -2.48 -0.105 -2.718 0.269 -0.115 0.182 0.136 0.527 0.249 0.667 0.606 0.749 1.891 1.309 3.853 2.289a0.5 0.5 0 0 1 -0.447 0.895c-2.03 -1.011 -3.431 -1.625 -4.183 -2.554 -1.608 -1.987 0.824 -3.189 3.484 -2.536 1.504 0.369 4.635 1.913 6.636 4.485a0.5 0.5 0 0 1 -0.394 0.807Z" stroke-width="1"></path></g></g><g id="elements"><path id="vector_103" fill="#ff7449" d="M40.293 161.016c-1.313 -0.213 -3.443 -0.619 -5.505 -1.042 0.559 -2.244 1.144 -4.477 1.57 -6.607a0.5 0.5 0 0 0 -0.98 -0.196c-0.422 2.11 -1.004 4.333 -1.569 6.601 -2.266 -0.477 -4.269 -0.939 -4.759 -1.141 -0.381 -0.423 -1.053 0.011 -0.84 0.539 0.16 0.396 2.675 1.024 5.355 1.589a83.833 83.833 0 0 0 -0.96 4.33 0.5 0.5 0 0 0 0.982 0.186c0.267 -1.414 0.604 -2.868 0.958 -4.313a202.46 202.46 0 0 0 5.589 1.043 0.5 0.5 0 0 0 0.16 -0.988l-0.001 -0.001Z" stroke-width="1"></path><path id="vector_104" fill="#ff7449" d="M75.595 176.245a0.5 0.5 0 0 0 -0.643 -0.294c-1.119 0.416 -3.114 1.063 -5.112 1.675 -0.463 -2.265 -0.939 -4.728 -1.497 -6.876a0.5 0.5 0 1 0 -0.968 0.252c0.562 2.161 1.017 4.541 1.503 6.916 -0.42 0.126 -4.631 1.396 -5.042 1.309 -0.509 -0.105 -0.817 0.548 -0.417 0.89 0.455 0.39 5.049 -1.025 5.663 -1.211a77.5 77.5 0 0 0 0.99 4.237 0.5 0.5 0 1 0 0.965 -0.26 78.447 78.447 0 0 1 -0.996 -4.271c2.7 -0.839 5.205 -1.704 5.257 -1.723a0.499 0.499 0 0 0 0.294 -0.643l0.003 -0.001Z" stroke-width="1"></path></g><g id="eraser"><path id="vector_105" fill="#ffb949" d="M108.916 17.886H91.085a3.006 3.006 0 0 1 -2.997 -2.997v-0.599h23.825v0.599a3.006 3.006 0 0 1 -2.997 2.997Z" stroke-width="1"></path><path id="vector_106" fill="#f9f5e5" d="M91.084 7.098h17.831a3.006 3.006 0 0 1 2.997 2.997v4.12H88.087v-4.12a3.006 3.006 0 0 1 2.997 -2.997Z" stroke-width="1"></path><path id="vector_107" fill="#501200" d="M111.913 14.715H88.088a0.5 0.5 0 0 1 -0.5 -0.5v-4.121a3.501 3.501 0 0 1 3.497 -3.497h17.831a3.501 3.501 0 0 1 3.497 3.497v4.12a0.5 0.5 0 0 1 -0.5 0.5Zm-23.325 -1h22.825v-3.621a2.5 2.5 0 0 0 -2.497 -2.497H91.085a2.5 2.5 0 0 0 -2.497 2.497v3.62Z" stroke-width="1"></path></g></g></svg>